<?xml version="1.0" encoding="utf-8" standalone="no"?>
<!DOCTYPE svg PUBLIC "-//W3C//DTD SVG 1.1//EN"
  "http://www.w3.org/Graphics/SVG/1.1/DTD/svg11.dtd">
<svg xmlns:xlink="http://www.w3.org/1999/xlink" width="721.614922pt" height="404.430337pt" viewBox="0 0 721.614922 404.430337" xmlns="http://www.w3.org/2000/svg" version="1.1">
 <metadata>
  <rdf:RDF xmlns:dc="http://purl.org/dc/elements/1.1/" xmlns:cc="http://creativecommons.org/ns#" xmlns:rdf="http://www.w3.org/1999/02/22-rdf-syntax-ns#">
   <cc:Work>
    <dc:type rdf:resource="http://purl.org/dc/dcmitype/StillImage"/>
    <dc:date>2025-10-21T12:50:07.284590</dc:date>
    <dc:format>image/svg+xml</dc:format>
    <dc:creator>
     <cc:Agent>
      <dc:title>Matplotlib v3.8.2, https://matplotlib.org/</dc:title>
     </cc:Agent>
    </dc:creator>
   </cc:Work>
  </rdf:RDF>
 </metadata>
 <defs>
  <style type="text/css">*{stroke-linejoin: round; stroke-linecap: butt}</style>
 </defs>
 <g id="figure_1">
  <g id="patch_1">
   <path d="M 0 404.430337 
L 721.614922 404.430337 
L 721.614922 0 
L 0 0 
z
" style="fill: #ffffff"/>
  </g>
  <g id="axes_1">
   <g id="patch_2">
    <path d="M 71.492266 377.745337 
L 714.414922 377.745337 
L 714.414922 92.95365 
L 71.492266 92.95365 
z
" style="fill: #ffffff"/>
   </g>
   <g id="matplotlib.axis_1">
    <g id="text_1">
     <!-- Time (ms) -->
     <g transform="translate(352.634844 393.902837) scale(0.16 -0.16)">
      <defs>
       <path id="DejaVuSans-54" d="M -19 4666 
L 3928 4666 
L 3928 4134 
L 2272 4134 
L 2272 0 
L 1638 0 
L 1638 4134 
L -19 4134 
L -19 4666 
z
" transform="scale(0.015625)"/>
       <path id="DejaVuSans-69" d="M 603 3500 
L 1178 3500 
L 1178 0 
L 603 0 
L 603 3500 
z
M 603 4863 
L 1178 4863 
L 1178 4134 
L 603 4134 
L 603 4863 
z
" transform="scale(0.015625)"/>
       <path id="DejaVuSans-6d" d="M 3328 2828 
Q 3544 3216 3844 3400 
Q 4144 3584 4550 3584 
Q 5097 3584 5394 3201 
Q 5691 2819 5691 2113 
L 5691 0 
L 5113 0 
L 5113 2094 
Q 5113 2597 4934 2840 
Q 4756 3084 4391 3084 
Q 3944 3084 3684 2787 
Q 3425 2491 3425 1978 
L 3425 0 
L 2847 0 
L 2847 2094 
Q 2847 2600 2669 2842 
Q 2491 3084 2119 3084 
Q 1678 3084 1418 2786 
Q 1159 2488 1159 1978 
L 1159 0 
L 581 0 
L 581 3500 
L 1159 3500 
L 1159 2956 
Q 1356 3278 1631 3431 
Q 1906 3584 2284 3584 
Q 2666 3584 2933 3390 
Q 3200 3197 3328 2828 
z
" transform="scale(0.015625)"/>
       <path id="DejaVuSans-65" d="M 3597 1894 
L 3597 1613 
L 953 1613 
Q 991 1019 1311 708 
Q 1631 397 2203 397 
Q 2534 397 2845 478 
Q 3156 559 3463 722 
L 3463 178 
Q 3153 47 2828 -22 
Q 2503 -91 2169 -91 
Q 1331 -91 842 396 
Q 353 884 353 1716 
Q 353 2575 817 3079 
Q 1281 3584 2069 3584 
Q 2775 3584 3186 3129 
Q 3597 2675 3597 1894 
z
M 3022 2063 
Q 3016 2534 2758 2815 
Q 2500 3097 2075 3097 
Q 1594 3097 1305 2825 
Q 1016 2553 972 2059 
L 3022 2063 
z
" transform="scale(0.015625)"/>
       <path id="DejaVuSans-20" transform="scale(0.015625)"/>
       <path id="DejaVuSans-28" d="M 1984 4856 
Q 1566 4138 1362 3434 
Q 1159 2731 1159 2009 
Q 1159 1288 1364 580 
Q 1569 -128 1984 -844 
L 1484 -844 
Q 1016 -109 783 600 
Q 550 1309 550 2009 
Q 550 2706 781 3412 
Q 1013 4119 1484 4856 
L 1984 4856 
z
" transform="scale(0.015625)"/>
       <path id="DejaVuSans-73" d="M 2834 3397 
L 2834 2853 
Q 2591 2978 2328 3040 
Q 2066 3103 1784 3103 
Q 1356 3103 1142 2972 
Q 928 2841 928 2578 
Q 928 2378 1081 2264 
Q 1234 2150 1697 2047 
L 1894 2003 
Q 2506 1872 2764 1633 
Q 3022 1394 3022 966 
Q 3022 478 2636 193 
Q 2250 -91 1575 -91 
Q 1294 -91 989 -36 
Q 684 19 347 128 
L 347 722 
Q 666 556 975 473 
Q 1284 391 1588 391 
Q 1994 391 2212 530 
Q 2431 669 2431 922 
Q 2431 1156 2273 1281 
Q 2116 1406 1581 1522 
L 1381 1569 
Q 847 1681 609 1914 
Q 372 2147 372 2553 
Q 372 3047 722 3315 
Q 1072 3584 1716 3584 
Q 2034 3584 2315 3537 
Q 2597 3491 2834 3397 
z
" transform="scale(0.015625)"/>
       <path id="DejaVuSans-29" d="M 513 4856 
L 1013 4856 
Q 1481 4119 1714 3412 
Q 1947 2706 1947 2009 
Q 1947 1309 1714 600 
Q 1481 -109 1013 -844 
L 513 -844 
Q 928 -128 1133 580 
Q 1338 1288 1338 2009 
Q 1338 2731 1133 3434 
Q 928 4138 513 4856 
z
" transform="scale(0.015625)"/>
      </defs>
      <use xlink:href="#DejaVuSans-54"/>
      <use xlink:href="#DejaVuSans-69" x="57.958984"/>
      <use xlink:href="#DejaVuSans-6d" x="85.742188"/>
      <use xlink:href="#DejaVuSans-65" x="183.154297"/>
      <use xlink:href="#DejaVuSans-20" x="244.677734"/>
      <use xlink:href="#DejaVuSans-28" x="276.464844"/>
      <use xlink:href="#DejaVuSans-6d" x="315.478516"/>
      <use xlink:href="#DejaVuSans-73" x="412.890625"/>
      <use xlink:href="#DejaVuSans-29" x="464.990234"/>
     </g>
    </g>
   </g>
   <g id="matplotlib.axis_2">
    <g id="ytick_1">
     <g id="line2d_1">
      <path d="M 71.492266 347.411352 
L 714.414922 347.411352 
" clip-path="url(#p2943209de4)" style="fill: none; stroke: #b0b0b0; stroke-opacity: 0.3; stroke-width: 0.8; stroke-linecap: square"/>
     </g>
     <g id="line2d_2">
      <defs>
       <path id="m16208b65e9" d="M 0 0 
L -5 0 
" style="stroke: #000000; stroke-width: 0.8"/>
      </defs>
      <g>
       <use xlink:href="#m16208b65e9" x="71.492266" y="347.411352" style="stroke: #000000; stroke-width: 0.8"/>
      </g>
     </g>
     <g id="text_2">
      <!-- 1 -->
      <g transform="translate(52.812266 353.490102) scale(0.16 -0.16)">
       <defs>
        <path id="DejaVuSans-31" d="M 794 531 
L 1825 531 
L 1825 4091 
L 703 3866 
L 703 4441 
L 1819 4666 
L 2450 4666 
L 2450 531 
L 3481 531 
L 3481 0 
L 794 0 
L 794 531 
z
" transform="scale(0.015625)"/>
       </defs>
       <use xlink:href="#DejaVuSans-31"/>
      </g>
     </g>
    </g>
    <g id="ytick_2">
     <g id="line2d_3">
      <path d="M 71.492266 292.187803 
L 714.414922 292.187803 
" clip-path="url(#p2943209de4)" style="fill: none; stroke: #b0b0b0; stroke-opacity: 0.3; stroke-width: 0.8; stroke-linecap: square"/>
     </g>
     <g id="line2d_4">
      <g>
       <use xlink:href="#m16208b65e9" x="71.492266" y="292.187803" style="stroke: #000000; stroke-width: 0.8"/>
      </g>
     </g>
     <g id="text_3">
      <!-- 2 -->
      <g transform="translate(52.812266 298.266553) scale(0.16 -0.16)">
       <defs>
        <path id="DejaVuSans-32" d="M 1228 531 
L 3431 531 
L 3431 0 
L 469 0 
L 469 531 
Q 828 903 1448 1529 
Q 2069 2156 2228 2338 
Q 2531 2678 2651 2914 
Q 2772 3150 2772 3378 
Q 2772 3750 2511 3984 
Q 2250 4219 1831 4219 
Q 1534 4219 1204 4116 
Q 875 4013 500 3803 
L 500 4441 
Q 881 4594 1212 4672 
Q 1544 4750 1819 4750 
Q 2544 4750 2975 4387 
Q 3406 4025 3406 3419 
Q 3406 3131 3298 2873 
Q 3191 2616 2906 2266 
Q 2828 2175 2409 1742 
Q 1991 1309 1228 531 
z
" transform="scale(0.015625)"/>
       </defs>
       <use xlink:href="#DejaVuSans-32"/>
      </g>
     </g>
    </g>
    <g id="ytick_3">
     <g id="line2d_5">
      <path d="M 71.492266 236.964255 
L 714.414922 236.964255 
" clip-path="url(#p2943209de4)" style="fill: none; stroke: #b0b0b0; stroke-opacity: 0.3; stroke-width: 0.8; stroke-linecap: square"/>
     </g>
     <g id="line2d_6">
      <g>
       <use xlink:href="#m16208b65e9" x="71.492266" y="236.964255" style="stroke: #000000; stroke-width: 0.8"/>
      </g>
     </g>
     <g id="text_4">
      <!-- 3 -->
      <g transform="translate(52.812266 243.043005) scale(0.16 -0.16)">
       <defs>
        <path id="DejaVuSans-33" d="M 2597 2516 
Q 3050 2419 3304 2112 
Q 3559 1806 3559 1356 
Q 3559 666 3084 287 
Q 2609 -91 1734 -91 
Q 1441 -91 1130 -33 
Q 819 25 488 141 
L 488 750 
Q 750 597 1062 519 
Q 1375 441 1716 441 
Q 2309 441 2620 675 
Q 2931 909 2931 1356 
Q 2931 1769 2642 2001 
Q 2353 2234 1838 2234 
L 1294 2234 
L 1294 2753 
L 1863 2753 
Q 2328 2753 2575 2939 
Q 2822 3125 2822 3475 
Q 2822 3834 2567 4026 
Q 2313 4219 1838 4219 
Q 1578 4219 1281 4162 
Q 984 4106 628 3988 
L 628 4550 
Q 988 4650 1302 4700 
Q 1616 4750 1894 4750 
Q 2613 4750 3031 4423 
Q 3450 4097 3450 3541 
Q 3450 3153 3228 2886 
Q 3006 2619 2597 2516 
z
" transform="scale(0.015625)"/>
       </defs>
       <use xlink:href="#DejaVuSans-33"/>
      </g>
     </g>
    </g>
    <g id="ytick_4">
     <g id="line2d_7">
      <path d="M 71.492266 181.740706 
L 714.414922 181.740706 
" clip-path="url(#p2943209de4)" style="fill: none; stroke: #b0b0b0; stroke-opacity: 0.3; stroke-width: 0.8; stroke-linecap: square"/>
     </g>
     <g id="line2d_8">
      <g>
       <use xlink:href="#m16208b65e9" x="71.492266" y="181.740706" style="stroke: #000000; stroke-width: 0.8"/>
      </g>
     </g>
     <g id="text_5">
      <!-- 4 -->
      <g transform="translate(52.812266 187.819456) scale(0.16 -0.16)">
       <defs>
        <path id="DejaVuSans-34" d="M 2419 4116 
L 825 1625 
L 2419 1625 
L 2419 4116 
z
M 2253 4666 
L 3047 4666 
L 3047 1625 
L 3713 1625 
L 3713 1100 
L 3047 1100 
L 3047 0 
L 2419 0 
L 2419 1100 
L 313 1100 
L 313 1709 
L 2253 4666 
z
" transform="scale(0.015625)"/>
       </defs>
       <use xlink:href="#DejaVuSans-34"/>
      </g>
     </g>
    </g>
    <g id="ytick_5">
     <g id="line2d_9">
      <path d="M 71.492266 126.517157 
L 714.414922 126.517157 
" clip-path="url(#p2943209de4)" style="fill: none; stroke: #b0b0b0; stroke-opacity: 0.3; stroke-width: 0.8; stroke-linecap: square"/>
     </g>
     <g id="line2d_10">
      <g>
       <use xlink:href="#m16208b65e9" x="71.492266" y="126.517157" style="stroke: #000000; stroke-width: 0.8"/>
      </g>
     </g>
     <g id="text_6">
      <!-- 5 -->
      <g transform="translate(52.812266 132.595907) scale(0.16 -0.16)">
       <defs>
        <path id="DejaVuSans-35" d="M 691 4666 
L 3169 4666 
L 3169 4134 
L 1269 4134 
L 1269 2991 
Q 1406 3038 1543 3061 
Q 1681 3084 1819 3084 
Q 2600 3084 3056 2656 
Q 3513 2228 3513 1497 
Q 3513 744 3044 326 
Q 2575 -91 1722 -91 
Q 1428 -91 1123 -41 
Q 819 9 494 109 
L 494 744 
Q 775 591 1075 516 
Q 1375 441 1709 441 
Q 2250 441 2565 725 
Q 2881 1009 2881 1497 
Q 2881 1984 2565 2268 
Q 2250 2553 1709 2553 
Q 1456 2553 1204 2497 
Q 953 2441 691 2322 
L 691 4666 
z
" transform="scale(0.015625)"/>
       </defs>
       <use xlink:href="#DejaVuSans-35"/>
      </g>
     </g>
    </g>
    <g id="text_7">
     <!-- Neurons -->
     <g transform="translate(45.484766 268.568244) rotate(-90) scale(0.16 -0.16)">
      <defs>
       <path id="DejaVuSans-4e" d="M 628 4666 
L 1478 4666 
L 3547 763 
L 3547 4666 
L 4159 4666 
L 4159 0 
L 3309 0 
L 1241 3903 
L 1241 0 
L 628 0 
L 628 4666 
z
" transform="scale(0.015625)"/>
       <path id="DejaVuSans-75" d="M 544 1381 
L 544 3500 
L 1119 3500 
L 1119 1403 
Q 1119 906 1312 657 
Q 1506 409 1894 409 
Q 2359 409 2629 706 
Q 2900 1003 2900 1516 
L 2900 3500 
L 3475 3500 
L 3475 0 
L 2900 0 
L 2900 538 
Q 2691 219 2414 64 
Q 2138 -91 1772 -91 
Q 1169 -91 856 284 
Q 544 659 544 1381 
z
M 1991 3584 
L 1991 3584 
z
" transform="scale(0.015625)"/>
       <path id="DejaVuSans-72" d="M 2631 2963 
Q 2534 3019 2420 3045 
Q 2306 3072 2169 3072 
Q 1681 3072 1420 2755 
Q 1159 2438 1159 1844 
L 1159 0 
L 581 0 
L 581 3500 
L 1159 3500 
L 1159 2956 
Q 1341 3275 1631 3429 
Q 1922 3584 2338 3584 
Q 2397 3584 2469 3576 
Q 2541 3569 2628 3553 
L 2631 2963 
z
" transform="scale(0.015625)"/>
       <path id="DejaVuSans-6f" d="M 1959 3097 
Q 1497 3097 1228 2736 
Q 959 2375 959 1747 
Q 959 1119 1226 758 
Q 1494 397 1959 397 
Q 2419 397 2687 759 
Q 2956 1122 2956 1747 
Q 2956 2369 2687 2733 
Q 2419 3097 1959 3097 
z
M 1959 3584 
Q 2709 3584 3137 3096 
Q 3566 2609 3566 1747 
Q 3566 888 3137 398 
Q 2709 -91 1959 -91 
Q 1206 -91 779 398 
Q 353 888 353 1747 
Q 353 2609 779 3096 
Q 1206 3584 1959 3584 
z
" transform="scale(0.015625)"/>
       <path id="DejaVuSans-6e" d="M 3513 2113 
L 3513 0 
L 2938 0 
L 2938 2094 
Q 2938 2591 2744 2837 
Q 2550 3084 2163 3084 
Q 1697 3084 1428 2787 
Q 1159 2491 1159 1978 
L 1159 0 
L 581 0 
L 581 3500 
L 1159 3500 
L 1159 2956 
Q 1366 3272 1645 3428 
Q 1925 3584 2291 3584 
Q 2894 3584 3203 3211 
Q 3513 2838 3513 2113 
z
" transform="scale(0.015625)"/>
      </defs>
      <use xlink:href="#DejaVuSans-4e"/>
      <use xlink:href="#DejaVuSans-65" x="74.804688"/>
      <use xlink:href="#DejaVuSans-75" x="136.328125"/>
      <use xlink:href="#DejaVuSans-72" x="199.707031"/>
      <use xlink:href="#DejaVuSans-6f" x="238.570312"/>
      <use xlink:href="#DejaVuSans-6e" x="299.751953"/>
      <use xlink:href="#DejaVuSans-73" x="363.130859"/>
     </g>
    </g>
   </g>
   <g id="line2d_11">
    <path d="M 100.716023 344.415895 
L 101.107625 346.562308 
L 101.411555 347.168321 
L 101.738864 347.357041 
L 102.393483 347.404216 
L 118.069263 347.399074 
L 160.204498 347.287983 
L 161.525425 347.206385 
L 163.997779 347.223633 
L 167.311786 347.189196 
L 170.333553 347.218597 
L 174.530127 347.17838 
L 177.136912 347.207162 
L 179.825524 347.208222 
L 187.920586 347.20071 
L 191.01249 347.204845 
L 193.95243 347.203344 
L 212.012892 347.194061 
L 214.403419 347.213212 
L 216.805636 347.234923 
L 217.933685 347.305995 
L 218.559079 347.400924 
L 222.311447 347.399739 
L 247.438285 347.317055 
L 248.06368 347.012959 
L 248.683229 346.72091 
L 249.256021 346.76877 
L 249.863881 346.745314 
L 250.208725 346.514791 
L 250.413293 346.105582 
L 250.541879 345.290765 
L 250.65293 342.733503 
L 251.202342 326.087595 
L 251.214032 326.092578 
L 251.27248 326.350789 
L 251.406911 328.294652 
L 251.792668 338.695906 
L 252.125822 343.990347 
L 252.435597 345.87136 
L 252.751217 346.599872 
L 253.084371 346.861493 
L 253.452594 346.87281 
L 253.809128 346.664012 
L 254.072144 346.255619 
L 254.235799 345.56754 
L 254.352695 343.920019 
L 254.557263 336.107961 
L 254.861193 328.001089 
L 254.95471 327.550478 
L 255.007314 327.670588 
L 255.12421 328.776427 
L 255.358002 333.637696 
L 255.843121 343.152159 
L 256.164586 345.479892 
L 256.486051 346.387901 
L 256.819205 346.727414 
L 257.199117 346.796531 
L 257.72515 346.656224 
L 258.233649 346.293274 
L 258.479131 345.859168 
L 258.625251 345.080907 
L 258.742147 342.847425 
L 259.338318 326.020664 
L 259.373387 326.07036 
L 259.466904 326.73838 
L 259.653937 330.111768 
L 260.33778 344.035889 
L 260.6534 345.843803 
L 260.974865 346.556568 
L 261.313863 346.819611 
L 261.711311 346.847814 
L 262.167206 346.659739 
L 262.48867 346.297159 
L 262.669859 345.724661 
L 262.786756 344.483221 
L 262.932876 339.502712 
L 263.324478 326.93359 
L 263.417995 326.459826 
L 263.464754 326.576756 
L 263.575805 327.705334 
L 263.803752 332.914154 
L 264.277182 342.999529 
L 264.592802 345.427661 
L 264.914266 346.394431 
L 265.247421 346.764945 
L 265.639023 346.868498 
L 266.124142 346.759342 
L 266.48652 346.46445 
L 266.691089 346.010706 
L 266.819674 345.130787 
L 266.936571 342.282109 
L 267.474293 325.975819 
L 267.503517 325.948887 
L 267.544431 326.058352 
L 267.655482 327.156298 
L 267.877585 332.169566 
L 268.374394 342.973505 
L 268.695858 345.433929 
L 269.017323 346.390738 
L 269.350477 346.760179 
L 269.747924 346.868478 
L 270.285647 346.769211 
L 270.712318 346.492402 
L 270.934421 346.088288 
L 271.074696 345.301633 
L 271.185747 343.029113 
L 271.758539 326.252147 
L 271.787763 326.29401 
L 271.875435 326.917224 
L 272.050779 330.122104 
L 272.728777 344.033414 
L 273.044397 345.842591 
L 273.365861 346.557404 
L 273.699016 346.813291 
L 274.078928 346.824825 
L 274.49391 346.618746 
L 274.79784 346.220063 
L 274.973184 345.605308 
L 275.095925 344.154774 
L 275.25958 338.297816 
L 275.616113 327.423272 
L 275.72132 326.826989 
L 275.768078 326.925137 
L 275.87913 327.956876 
L 276.101232 332.678549 
L 276.609731 343.274218 
L 276.925351 345.574749 
L 277.246815 346.479986 
L 277.585814 346.827386 
L 277.989106 346.921854 
L 278.550208 346.801369 
L 279.146378 346.460092 
L 279.426929 346.053779 
L 279.590584 345.380177 
L 279.70748 343.718199 
L 279.906204 335.976357 
L 280.221823 327.113876 
L 280.31534 326.652568 
L 280.362099 326.759544 
L 280.47315 327.815687 
L 280.695253 332.638859 
L 281.197907 343.288049 
L 281.513526 345.615788 
L 281.829146 346.511368 
L 282.168145 346.86597 
L 282.588971 346.976527 
L 283.167608 346.887003 
L 283.752089 346.589484 
L 284.044329 346.200761 
L 284.219673 345.56465 
L 284.33657 344.167361 
L 284.500224 338.369507 
L 284.862602 327.351081 
L 284.967809 326.810952 
L 285.008723 326.907837 
L 285.119774 327.936613 
L 285.336032 332.529329 
L 285.850375 343.257075 
L 286.165995 345.548061 
L 286.48746 346.449954 
L 286.832303 346.808611 
L 287.25313 346.920801 
L 287.919438 346.840203 
L 288.556522 346.544764 
L 288.895521 346.174409 
L 289.082555 345.613728 
L 289.205296 344.385909 
L 289.345572 339.814866 
L 289.754708 326.63744 
L 289.85407 326.120385 
L 289.900829 326.228013 
L 290.01188 327.281655 
L 290.228138 331.96107 
L 290.748326 343.15734 
L 291.063946 345.514638 
L 291.38541 346.441435 
L 291.724409 346.80345 
L 292.139391 346.919603 
L 292.741406 346.839618 
L 293.302508 346.558944 
L 293.588904 346.175298 
L 293.758403 345.552853 
L 293.881144 344.038707 
L 294.056488 337.632022 
L 294.395487 327.640983 
L 294.500694 327.106161 
L 294.541608 327.20294 
L 294.652659 328.227359 
L 294.874762 332.915944 
L 295.377415 343.25244 
L 295.693035 345.560055 
L 296.0145 346.478768 
L 296.353499 346.841237 
L 296.76848 346.953197 
L 297.341272 346.867175 
L 298.001735 346.555857 
L 298.29982 346.174073 
L 298.46932 345.558706 
L 298.586216 344.119192 
L 298.755716 337.87153 
L 299.106404 327.155396 
L 299.211611 326.57831 
L 299.258369 326.693239 
L 299.369421 327.784529 
L 299.591523 332.711037 
L 300.082487 343.201882 
L 300.398107 345.556948 
L 300.713727 346.454687 
L 301.046881 346.79661 
L 301.438483 346.878768 
L 301.964516 346.747118 
L 302.490549 346.396071 
L 302.794479 345.937494 
L 302.963979 345.24278 
L 303.080875 343.607865 
L 303.279598 335.995632 
L 303.601063 327.057294 
L 303.700425 326.564097 
L 303.747183 326.665083 
L 303.858235 327.662148 
L 304.074492 332.138881 
L 304.612215 343.409107 
L 304.927835 345.63719 
L 305.243454 346.490434 
L 305.518161 346.719771 
L 305.740263 346.639726 
L 305.956521 346.2965 
L 306.126021 345.590502 
L 306.254607 343.885694 
L 306.470865 336.41099 
L 306.774795 329.217565 
L 306.880001 328.77544 
L 306.92676 328.863812 
L 307.043656 329.73795 
L 307.271603 333.533991 
L 307.832705 342.914724 
L 308.171704 345.024147 
L 308.510703 345.893644 
L 308.867237 346.242426 
L 309.247149 346.318962 
L 309.621217 346.172539 
L 309.860854 345.847588 
L 310.012819 345.225835 
L 310.129716 343.563357 
L 310.334284 335.732688 
L 310.649904 327.203453 
L 310.75511 326.69364 
L 310.801869 326.797121 
L 310.91292 327.754958 
L 311.135023 332.034367 
L 311.69028 342.741581 
L 312.023434 345.082954 
L 312.356588 346.042094 
L 312.683897 346.388994 
L 312.987828 346.420264 
L 313.227465 346.229543 
L 313.402809 345.782191 
L 313.52555 344.761492 
L 313.654136 341.15448 
L 314.104186 327.434608 
L 314.180169 327.135614 
L 314.232772 327.257639 
L 314.349668 328.386171 
L 314.589305 333.461715 
L 315.05689 342.541782 
L 315.3842 345.017155 
L 315.711509 346.016591 
L 316.027129 346.356795 
L 316.29599 346.357888 
L 316.506403 346.133837 
L 316.670058 345.590068 
L 316.792799 344.19954 
L 316.956453 338.616843 
L 317.307142 328.432878 
L 317.412349 327.900413 
L 317.459107 328.013208 
L 317.576003 329.115894 
L 317.81564 334.056938 
L 318.283225 342.855581 
L 318.610535 345.224861 
L 318.931999 346.145667 
L 319.235929 346.433575 
L 319.487256 346.402173 
L 319.703514 346.138814 
L 319.873014 345.533821 
L 319.995755 344.086955 
L 320.171099 338.119972 
L 320.515943 328.450962 
L 320.626994 327.893323 
L 320.667908 327.97604 
L 320.773114 328.81326 
L 320.989372 332.773129 
L 321.544629 343.067355 
L 321.871939 345.253056 
L 322.193403 346.096932 
L 322.485644 346.332438 
L 322.725281 346.269878 
L 322.941539 345.964531 
L 323.099349 345.313852 
L 323.22209 343.638089 
L 323.438348 335.959794 
L 323.736433 328.78904 
L 323.835795 328.38702 
L 323.882553 328.492574 
L 323.999449 329.463525 
L 324.233242 333.711309 
L 324.759275 342.995039 
L 325.092429 345.200424 
L 325.413893 346.041034 
L 325.711979 346.29307 
L 325.96915 346.246409 
L 326.173719 345.973912 
L 326.325684 345.359499 
L 326.44258 343.765953 
L 326.641303 336.47353 
L 326.956923 328.087039 
L 327.06213 327.57165 
L 327.108888 327.666322 
L 327.21994 328.586332 
L 327.442042 332.759469 
L 327.98561 342.962465 
L 328.312919 345.168476 
L 328.634384 346.014037 
L 328.926624 346.251438 
L 329.160416 346.184666 
L 329.34745 345.87321 
L 329.487726 345.153255 
L 329.604622 343.129875 
L 330.206637 327.495805 
L 330.253396 327.599621 
L 330.370292 328.611677 
L 330.59824 333.000828 
L 331.124273 342.852237 
L 331.451582 345.11294 
L 331.778891 346.013622 
L 332.076977 346.278976 
L 332.310769 346.226343 
L 332.503648 345.940977 
L 332.649768 345.263471 
L 332.766664 343.345651 
L 333.35699 327.49649 
L 333.432972 327.736209 
L 333.573248 329.37142 
L 333.900557 336.67666 
L 334.286315 342.960181 
L 334.637003 345.33081 
L 335.022761 346.815352 
L 335.332536 347.235608 
L 335.718293 347.372294 
L 336.74698 347.398324 
L 390.034111 347.389377 
L 393.453325 347.294 
L 393.903375 346.994012 
L 395.154165 345.666498 
L 395.30613 345.006412 
L 395.423026 343.199202 
L 395.656818 333.940278 
L 395.954904 326.333377 
L 396.06011 325.823116 
L 396.106869 325.909626 
L 396.21792 326.787839 
L 396.428333 330.659514 
L 397.071262 343.497551 
L 397.398572 345.562985 
L 397.725881 346.380817 
L 398.05319 346.667988 
L 398.374655 346.671892 
L 398.649361 346.45343 
L 398.836395 346.000047 
L 398.959136 345.01545 
L 399.081877 341.547218 
L 399.549462 326.591318 
L 399.613755 326.378755 
L 399.666358 326.525217 
L 399.783254 327.766248 
L 400.022891 333.243154 
L 400.478786 342.716742 
L 400.800251 345.240594 
L 401.121716 346.234902 
L 401.437335 346.581742 
L 401.729576 346.608029 
L 401.975058 346.410224 
L 402.162092 345.955084 
L 402.290678 344.960329 
L 402.419263 341.531853 
L 402.881003 327.625849 
L 402.945296 327.431698 
L 402.9979 327.581926 
L 403.120641 328.890224 
L 403.383657 334.802691 
L 403.810328 342.933611 
L 404.131793 345.316064 
L 404.447412 346.229681 
L 404.745498 346.512441 
L 405.002669 346.483785 
L 405.230617 346.222064 
L 405.405961 345.652035 
L 405.528702 344.33483 
L 405.686512 339.083608 
L 406.054735 328.121008 
L 406.159942 327.605211 
L 406.200855 327.695321 
L 406.311907 328.659734 
L 406.534009 333.064349 
L 407.054198 343.151718 
L 407.375662 345.403054 
L 407.691282 346.265336 
L 407.983522 346.520907 
L 408.246539 346.480197 
L 408.486176 346.215587 
L 408.655675 345.685247 
L 408.778416 344.423381 
L 408.930382 339.461442 
L 409.310294 327.883777 
L 409.415501 327.337599 
L 409.462259 327.442771 
L 409.573311 328.445577 
L 409.795413 332.936464 
L 410.315601 343.178169 
L 410.637066 345.434001 
L 410.952686 346.280444 
L 411.262461 346.55038 
L 411.543012 346.524863 
L 411.806028 346.271254 
L 411.993062 345.774693 
L 412.121648 344.707707 
L 412.256078 340.980822 
L 412.706129 327.528207 
L 412.787956 327.240227 
L 412.834715 327.35328 
L 412.951611 328.406151 
L 413.185403 333.068805 
L 413.699746 342.979094 
L 414.027056 345.281114 
L 414.354365 346.19036 
L 414.669985 346.496095 
L 414.973915 346.498899 
L 415.254466 346.277146 
L 415.459034 345.816055 
L 415.593465 344.873906 
L 415.716206 341.919838 
L 416.236394 326.886402 
L 416.283152 326.803059 
L 416.335756 326.943373 
L 416.458497 328.12293 
L 416.698134 333.059918 
L 417.200787 342.861987 
L 417.528097 345.240147 
L 417.855406 346.17907 
L 418.171026 346.494627 
L 418.469111 346.504772 
L 418.726283 346.290951 
L 418.913317 345.824474 
L 419.041903 344.776949 
L 419.170488 341.168778 
L 419.626384 327.110302 
L 419.708211 326.789761 
L 419.760814 326.917 
L 419.87771 328.025749 
L 420.111503 332.922126 
L 420.608312 342.848228 
L 420.929776 345.20072 
L 421.251241 346.133429 
L 421.572705 346.463054 
L 421.900015 346.496464 
L 422.192255 346.306777 
L 422.618926 346.016183 
L 423.787888 345.43699 
L 423.945698 344.885762 
L 424.062594 343.506603 
L 424.226249 337.793645 
L 424.588627 326.884295 
L 424.687989 326.375101 
L 424.734747 326.494533 
L 424.845799 327.605507 
L 425.067902 332.650999 
L 425.558866 343.408633 
L 425.868641 345.719855 
L 426.18426 346.599694 
L 426.529104 346.949589 
L 426.996689 347.087599 
L 428.370219 347.138401 
L 430.228869 347.077862 
L 431.701761 347.008587 
L 433.893564 347.025763 
L 439.779288 347.037297 
L 444.671394 347.058587 
L 446.763836 346.968812 
L 448.768606 347.047527 
L 451.8722 346.794529 
L 452.105992 346.381528 
L 452.252112 345.605729 
L 452.363164 343.474504 
L 452.93011 326.939956 
L 452.982714 327.07472 
L 453.09961 328.323275 
L 453.345092 333.9879 
L 453.783452 342.845075 
L 454.104917 345.311659 
L 454.426382 346.280161 
L 454.753691 346.637771 
L 455.09269 346.693215 
L 455.443378 346.526253 
L 455.68886 346.164995 
L 455.840826 345.502861 
L 455.951877 343.811798 
L 456.16229 335.324157 
L 456.46622 327.098031 
L 456.559737 326.678032 
L 456.606496 326.794396 
L 456.723392 327.923592 
L 456.957184 332.95495 
L 457.448148 342.93949 
L 457.769613 345.355734 
L 458.096922 346.328804 
L 458.430076 346.693873 
L 458.792455 346.777571 
L 459.189902 346.643545 
L 459.470452 346.328303 
L 459.639952 345.770104 
L 459.756848 344.415744 
L 459.914658 338.628534 
L 460.277036 327.113086 
L 460.382243 326.515046 
L 460.429001 326.612029 
L 460.540053 327.624651 
L 460.756311 332.131772 
L 461.282344 343.002537 
L 461.603808 345.37281 
L 461.931117 346.329258 
L 462.264272 346.691391 
L 462.620805 346.766834 
L 462.977338 346.622011 
L 463.228665 346.282873 
L 463.386475 345.661462 
L 463.497526 344.127553 
L 463.678716 336.954772 
L 464.006025 327.078867 
L 464.111231 326.52132 
L 464.15799 326.640936 
L 464.274886 327.805404 
L 464.508679 333.007602 
L 464.987953 343.019983 
L 465.309418 345.455561 
L 465.630882 346.392028 
L 465.952347 346.717164 
L 466.279656 346.745748 
L 466.589431 346.55325 
L 466.811534 346.140078 
L 466.957654 345.319441 
L 467.07455 342.986 
L 467.641497 327.363674 
L 467.659031 327.377308 
L 467.729169 327.712035 
L 467.881134 329.788298 
L 468.792924 345.160122 
L 469.108544 346.210241 
L 469.418319 346.573441 
L 469.722249 346.61215 
L 470.008645 346.422304 
L 470.230747 345.985762 
L 470.376868 345.146152 
L 470.493764 342.834186 
L 471.066555 327.115107 
L 471.089934 327.137115 
L 471.171762 327.59502 
L 471.341261 330.176145 
L 472.142 344.694001 
L 472.45762 346.045932 
L 472.77324 346.549208 
L 473.083015 346.668488 
L 473.398634 346.548951 
L 473.679185 346.208121 
L 473.85453 345.631752 
L 473.977271 344.262857 
L 474.13508 338.741593 
L 474.503303 327.234394 
L 474.614355 326.624813 
L 474.655268 326.717149 
L 474.760475 327.640095 
L 474.970888 331.908728 
L 475.5203 343.226997 
L 475.83592 345.414752 
L 476.15154 346.262215 
L 476.46716 346.547997 
L 476.776934 346.543606 
L 477.07502 346.315763 
L 477.279588 345.875389 
L 477.414019 344.983805 
L 477.53676 342.088709 
L 478.062793 326.687116 
L 478.097862 326.630909 
L 478.150465 326.769459 
L 478.267361 327.947304 
L 478.501153 333.101807 
L 478.980428 342.973696 
L 479.301892 345.36967 
L 479.623357 346.299482 
L 479.944821 346.626323 
L 480.260441 346.646981 
L 480.552682 346.444832 
L 480.967663 346.10811 
L 481.213145 346.281339 
L 482.165849 347.124925 
L 482.802933 347.262954 
L 484.579756 347.3177 
L 491.540924 347.316423 
L 495.918687 347.314086 
L 534.471053 347.246417 
L 539.708002 347.053702 
L 540.175587 346.674407 
L 540.432759 346.18429 
L 540.578879 345.376701 
L 540.695775 343.101489 
L 541.280256 326.79302 
L 541.30948 326.834968 
L 541.397152 327.424839 
L 541.578341 330.542946 
L 542.273874 344.124742 
L 542.595338 345.896369 
L 542.916803 346.575337 
L 543.261647 346.822291 
L 543.647404 346.826458 
L 544.044851 346.612525 
L 544.290333 346.236119 
L 544.442298 345.539641 
L 544.55335 343.72157 
L 544.792987 333.802755 
L 545.079383 326.698598 
L 545.155365 326.389465 
L 545.207968 326.517376 
L 545.324865 327.69779 
L 545.552812 332.812312 
L 546.032087 342.984697 
L 546.347706 345.423014 
L 546.669171 346.384543 
L 546.99648 346.740291 
L 547.364703 346.820981 
L 547.838133 346.68203 
L 548.153753 346.373115 
L 548.346631 345.860096 
L 548.469372 344.803163 
L 548.597958 341.047016 
L 549.053853 326.605189 
L 549.129836 326.303062 
L 549.182439 326.429471 
L 549.299335 327.577344 
L 549.527283 332.531942 
L 550.029937 343.056249 
L 550.345556 345.415167 
L 550.667021 346.355176 
L 550.99433 346.70334 
L 551.345019 346.763938 
L 551.701552 346.604967 
L 551.964569 346.250997 
L 552.128223 345.635288 
L 552.24512 344.123768 
L 552.420464 337.429181 
L 552.759463 327.00087 
L 552.870514 326.36678 
L 552.911428 326.452262 
L 553.016634 327.374747 
L 553.227048 331.724215 
L 553.77646 343.299457 
L 554.092079 345.545065 
L 554.413544 346.427143 
L 554.740853 346.746288 
L 555.109076 346.79736 
L 555.535747 346.634249 
L 555.845522 346.285868 
L 556.020867 345.735371 
L 556.137763 344.489772 
L 556.283883 339.448987 
L 556.669641 326.886073 
L 556.769002 326.34127 
L 556.815761 326.449306 
L 556.926812 327.523244 
L 557.148915 332.36367 
L 557.651569 342.962874 
L 557.973033 345.396141 
L 558.294498 346.350903 
L 558.627652 346.720791 
L 558.99003 346.803331 
L 559.352408 346.665118 
L 559.632959 346.323445 
L 559.802459 345.7478 
L 559.919355 344.404671 
L 560.077165 338.778064 
L 560.445388 327.301246 
L 560.550594 326.717768 
L 560.597353 326.812322 
L 560.708404 327.801975 
L 560.924662 332.203232 
L 561.462385 343.137472 
L 561.783849 345.451203 
L 562.111159 346.390323 
L 562.450158 346.755393 
L 562.859294 346.864765 
L 563.356103 346.763174 
L 563.730171 346.475556 
L 563.952274 346.022575 
L 564.086704 345.168081 
L 564.2036 342.482889 
L 564.758857 326.085179 
L 564.782237 326.07743 
L 564.817306 326.167257 
L 564.922512 327.112073 
L 565.132925 331.491928 
L 565.688182 343.324329 
L 566.003802 345.561464 
L 566.325266 346.436195 
L 566.652576 346.748533 
L 567.009109 346.791811 
L 567.389022 346.614987 
L 567.646194 346.258851 
L 567.804003 345.640923 
L 567.915055 344.152233 
L 568.090399 337.329545 
L 568.417708 327.436201 
L 568.470312 327.262807 
L 568.522915 327.468057 
L 568.645656 329.214398 
L 568.972965 338.310087 
L 569.311964 344.393447 
L 569.61005 346.278008 
L 569.91398 346.945949 
L 570.258824 347.197649 
L 570.82577 347.294797 
L 573.093556 347.308687 
L 583.26937 347.312288 
L 588.705043 347.325442 
L 597.799568 347.35417 
L 598.617841 347.40779 
L 685.191165 347.404821 
L 685.191165 347.404821 
" clip-path="url(#p2943209de4)" style="fill: none; stroke: #1f77b4; stroke-width: 1.5; stroke-linecap: square"/>
   </g>
   <g id="line2d_12">
    <path d="M 100.716023 347.411352 
L 129.881624 347.411352 
L 129.881624 347.411352 
" clip-path="url(#p2943209de4)" style="fill: none; stroke-dasharray: 2.96,1.28; stroke-dashoffset: 0; stroke: #808080; stroke-opacity: 0.7; stroke-width: 0.8"/>
   </g>
   <g id="line2d_13">
    <path d="M 100.716023 289.484771 
L 101.084246 291.405803 
L 101.388176 291.976721 
L 101.72133 292.147146 
L 102.463621 292.183353 
L 126.690358 292.181404 
L 247.660388 292.070755 
L 248.729988 291.959157 
L 250.641241 291.95131 
L 252.458977 291.931271 
L 254.03123 291.926557 
L 256.322396 291.89846 
L 277.802072 292.009479 
L 280.443926 292.011427 
L 293.799317 292.020749 
L 296.826928 292.036417 
L 301.572914 291.989571 
L 305.69935 291.824821 
L 305.950676 291.405223 
L 306.126021 290.636758 
L 306.248762 288.815514 
L 306.488399 279.806354 
L 306.774795 273.269737 
L 306.868312 272.918091 
L 306.91507 273.015851 
L 307.031966 273.944168 
L 307.265759 278.060605 
L 307.809326 287.536445 
L 308.148325 289.749006 
L 308.487324 290.659878 
L 308.838013 291.023506 
L 309.200391 291.102517 
L 309.521855 290.956673 
L 309.743958 290.605027 
L 309.890078 289.892598 
L 310.006975 287.865353 
L 310.60899 271.356657 
L 310.667438 271.523922 
L 310.796024 272.880843 
L 311.05904 278.64357 
L 311.503246 287.110725 
L 311.8364 289.653431 
L 312.169554 290.686579 
L 312.491019 291.050141 
L 312.75988 291.065111 
L 312.970293 290.859427 
L 313.128103 290.365005 
L 313.244999 289.090519 
L 313.396964 283.804439 
L 313.771032 272.061477 
L 313.870394 271.539656 
L 313.917152 271.646738 
L 314.028204 272.678279 
L 314.256151 277.385489 
L 314.758805 287.300268 
L 315.091959 289.753245 
L 315.419268 290.713241 
L 315.711509 290.993039 
L 315.939457 290.947431 
L 316.114801 290.67132 
L 316.249231 289.987132 
L 316.360283 287.963389 
L 316.938919 271.783167 
L 316.991522 271.928155 
L 317.108418 273.155888 
L 317.359745 278.766162 
L 317.803951 287.434893 
L 318.13126 289.917271 
L 318.45857 290.909933 
L 318.768344 291.233653 
L 319.025516 291.220526 
L 319.22424 290.98373 
L 319.376205 290.407322 
L 319.487256 288.94033 
L 319.668445 282.13071 
L 319.98991 272.896695 
L 320.089272 272.380786 
L 320.13603 272.480363 
L 320.247081 273.472143 
L 320.475029 278.009573 
L 320.977683 287.543858 
L 321.304992 289.892598 
L 321.632301 290.830184 
L 321.930387 291.111351 
L 322.164179 291.068113 
L 322.345368 290.797677 
L 322.485644 290.143653 
L 322.60254 288.223767 
L 323.187021 272.64011 
L 323.257158 272.862937 
L 323.391589 274.415273 
L 323.718898 281.645899 
L 324.098811 287.752662 
L 324.431965 289.931583 
L 324.759275 290.787302 
L 325.051515 291.030589 
L 325.279463 290.970656 
L 325.466497 290.668252 
L 325.606772 289.945895 
L 325.723668 287.833122 
L 326.313994 272.07334 
L 326.354908 272.148296 
L 326.460114 273.005002 
L 326.670527 277.025996 
L 327.225784 287.769331 
L 327.553094 289.973584 
L 327.874558 290.811699 
L 328.160954 291.030984 
L 328.377212 290.944271 
L 328.552556 290.599892 
L 328.686987 289.746715 
L 328.809728 287.021603 
L 329.353295 272.063886 
L 329.382519 272.037856 
L 329.429278 272.1595 
L 329.546174 273.271883 
L 329.779966 278.145923 
L 330.259241 287.460541 
L 330.58655 289.849359 
L 330.908015 290.761562 
L 331.19441 291.017449 
L 331.428203 290.965521 
L 331.626926 290.677034 
L 331.778891 290.002378 
L 331.895787 288.222029 
L 332.141269 278.930859 
L 332.427665 272.439456 
L 332.509492 272.153641 
L 332.556251 272.263396 
L 332.673147 273.302323 
L 332.901095 277.803941 
L 333.415438 287.624278 
L 333.736903 289.869965 
L 334.052522 290.715493 
L 334.321384 290.910341 
L 334.531797 290.800889 
L 334.642848 290.883653 
L 335.554638 292.135401 
L 336.220947 292.181036 
L 352.323398 292.178745 
L 393.5936 292.069596 
L 395.382112 291.534938 
L 395.791249 291.300064 
L 396.019197 290.908327 
L 396.159472 290.16335 
L 396.270523 288.007088 
L 396.831625 271.338593 
L 396.884228 271.499644 
L 397.001125 272.872167 
L 397.258296 279.25117 
L 397.667433 287.704803 
L 397.983053 290.177912 
L 398.304517 291.151272 
L 398.631827 291.507592 
L 398.97667 291.570592 
L 399.339049 291.412465 
L 399.625444 291.040767 
L 399.806633 290.413958 
L 399.929374 289.058327 
L 400.087184 283.842173 
L 400.461252 272.845452 
L 400.554769 272.386211 
L 400.607372 272.507025 
L 400.724268 273.63131 
L 400.958061 278.576672 
L 401.43149 287.891791 
L 401.752955 290.224837 
L 402.07442 291.125887 
L 402.395884 291.445473 
L 402.764107 291.496045 
L 403.342743 291.317904 
L 403.74019 290.998937 
L 403.950604 290.541987 
L 404.085034 289.622161 
L 404.207775 286.586219 
L 404.727963 270.998849 
L 404.763032 270.949344 
L 404.809791 271.081113 
L 404.926687 272.309873 
L 405.166324 277.855816 
L 405.622219 287.480501 
L 405.943684 289.996243 
L 406.270993 291.01313 
L 406.609992 291.418758 
L 407.007439 291.554451 
L 407.510093 291.4885 
L 407.872471 291.237142 
L 408.088729 290.801456 
L 408.229004 289.938548 
L 408.351745 287.264258 
L 408.895313 272.120778 
L 408.918692 272.127019 
L 408.947916 272.210757 
L 409.053123 273.158231 
L 409.26938 277.641008 
L 409.777879 287.98069 
L 410.099343 290.313262 
L 410.420808 291.228057 
L 410.753962 291.574332 
L 411.11634 291.637635 
L 411.507943 291.482391 
L 411.841097 291.112655 
L 412.05151 290.536852 
L 412.185941 289.382666 
L 412.326216 285.379038 
L 412.752887 272.645219 
L 412.834715 272.304211 
L 412.887318 272.42858 
L 413.004214 273.551562 
L 413.238006 278.472553 
L 413.717281 287.899664 
L 414.038745 290.227285 
L 414.36021 291.131483 
L 414.687519 291.457757 
L 415.049897 291.508316 
L 415.499948 291.340235 
L 415.856481 290.990484 
L 416.06105 290.47522 
L 416.189635 289.484837 
L 416.318221 286.122725 
L 416.80334 271.561236 
L 416.861789 271.38927 
L 416.914392 271.524159 
L 417.031288 272.720714 
L 417.26508 277.970534 
L 417.732665 287.680261 
L 418.05413 290.144522 
L 418.375594 291.113102 
L 418.708748 291.491437 
L 419.082816 291.59 
L 419.562091 291.476585 
L 419.947848 291.166808 
L 420.175796 290.697534 
L 420.316071 289.820644 
L 420.432967 287.258386 
L 420.988224 271.818479 
L 421.034983 271.913922 
L 421.146034 272.930902 
L 421.362292 277.463842 
L 421.876635 288.021005 
L 422.192255 290.295592 
L 422.566323 291.454729 
L 422.917012 291.883082 
L 423.361217 292.059563 
L 424.278852 292.12683 
L 429.872335 292.129213 
L 436.675694 292.117666 
L 452.187819 291.972771 
L 453.485367 291.465288 
L 454.666019 290.85869 
L 454.870587 290.437025 
L 455.005018 289.562123 
L 455.121914 286.89327 
L 455.665481 271.261465 
L 455.68886 271.267403 
L 455.718085 271.355249 
L 455.823291 272.363157 
L 456.039549 277.156974 
L 456.536358 287.866196 
L 456.851978 290.236831 
L 457.179287 291.194049 
L 457.524131 291.582337 
L 457.956647 291.729457 
L 458.716472 291.708404 
L 459.739314 291.480008 
L 460.300415 291.132523 
L 460.627725 290.691701 
L 460.808914 290.034754 
L 460.931655 288.578902 
L 461.101154 282.79108 
L 461.457688 272.567261 
L 461.562894 272.042675 
L 461.609653 272.153193 
L 461.720704 273.16987 
L 461.942807 277.780953 
L 462.45715 288.234734 
L 462.77277 290.44794 
L 463.094235 291.310321 
L 463.433234 291.640874 
L 463.871594 291.745784 
L 464.900281 291.687825 
L 465.940657 291.454874 
L 466.402397 291.12881 
L 466.659569 290.669964 
L 466.817378 289.854297 
L 466.940119 287.650597 
L 467.507066 272.640268 
L 467.54798 272.729101 
L 467.653186 273.659262 
L 467.869444 278.079354 
L 468.377943 288.265004 
L 468.693562 290.491218 
L 469.009182 291.341709 
L 469.336492 291.653909 
L 469.733939 291.722071 
L 470.371023 291.578782 
L 471.382175 291.144715 
L 471.744553 290.751937 
L 471.943277 290.191183 
L 472.066018 289.072968 
L 472.200448 285.102164 
L 472.632964 271.84892 
L 472.708947 271.537918 
L 472.76155 271.672623 
L 472.878446 272.899105 
L 473.112239 278.290199 
L 473.568134 287.908802 
L 473.883754 290.342609 
L 474.199373 291.26516 
L 474.532527 291.621151 
L 474.935819 291.726034 
L 475.555369 291.64044 
L 476.163229 291.345369 
L 476.572366 290.918491 
L 476.794469 290.357487 
L 476.934744 289.286499 
L 477.069175 285.871893 
L 477.53676 272.598531 
L 477.601053 272.421181 
L 477.653656 272.564694 
L 477.776397 273.810491 
L 478.021879 279.181467 
L 478.471929 288.020189 
L 478.793394 290.375591 
L 479.114858 291.280907 
L 479.453857 291.629815 
L 479.880529 291.744283 
L 480.581906 291.664047 
L 480.839077 291.720083 
L 481.674885 292.105487 
L 482.674348 292.159838 
L 495.468636 292.164051 
L 522.319693 292.15419 
L 539.684623 292.082394 
L 542.303098 291.723006 
L 550.918348 291.61233 
L 552.069775 291.568565 
L 556.435848 291.811497 
L 557.429466 291.622389 
L 558.38217 291.491094 
L 559.369943 291.61994 
L 560.620732 291.68851 
L 562.736553 291.69957 
L 563.89967 291.799423 
L 565.086167 291.688681 
L 566.05056 291.701834 
L 567.535142 291.701255 
L 568.522915 291.722637 
L 569.288585 292.091715 
L 570.194531 292.154413 
L 578.137627 292.168554 
L 632.552807 292.180035 
L 682.86493 292.177784 
L 685.191165 292.178442 
L 685.191165 292.178442 
" clip-path="url(#p2943209de4)" style="fill: none; stroke: #ff7f0e; stroke-width: 1.5; stroke-linecap: square"/>
   </g>
   <g id="line2d_14">
    <path d="M 100.716023 292.187803 
L 129.881624 292.187803 
L 129.881624 292.187803 
" clip-path="url(#p2943209de4)" style="fill: none; stroke-dasharray: 2.96,1.28; stroke-dashoffset: 0; stroke: #808080; stroke-opacity: 0.7; stroke-width: 0.8"/>
   </g>
   <g id="line2d_15">
    <path d="M 100.716023 233.30881 
L 101.072556 235.196887 
L 101.434934 236.050762 
L 101.832381 236.454652 
L 102.32919 236.638428 
L 103.112395 236.660666 
L 104.193685 236.45431 
L 105.935438 235.806316 
L 106.256902 235.455579 
L 106.438092 234.905753 
L 106.560833 233.7075 
L 106.706953 229.188753 
L 107.110245 217.081913 
L 107.197917 216.68117 
L 107.25052 216.815822 
L 107.367416 218.027505 
L 107.607054 223.510869 
L 108.057104 232.802881 
L 108.372724 235.173806 
L 108.694188 236.099162 
L 109.039032 236.470044 
L 109.489082 236.616229 
L 110.231373 236.593596 
L 112.066643 236.1876 
L 112.639435 235.818798 
L 112.919986 235.391498 
L 113.077796 234.717804 
L 113.194692 233.064048 
L 113.39926 225.406135 
L 113.709035 217.163558 
L 113.802552 216.734757 
L 113.849311 216.857125 
L 113.960362 217.971153 
L 114.188309 223.105623 
L 114.655894 232.902195 
L 114.971514 235.252357 
L 115.287134 236.138792 
L 115.626133 236.486528 
L 116.052804 236.59648 
L 116.719112 236.512163 
L 119.004433 235.843077 
L 119.419414 235.518645 
L 119.629827 235.056942 
L 119.764258 234.147531 
L 119.886999 231.346252 
L 120.407187 216.930856 
L 120.436411 216.90401 
L 120.477325 217.008695 
L 120.588376 218.068518 
L 120.810479 222.884297 
L 121.295598 232.916033 
L 121.611218 235.236122 
L 121.932683 236.139806 
L 122.277526 236.496192 
L 122.721732 236.620061 
L 123.417264 236.564025 
L 124.194624 236.283648 
L 124.720657 235.870094 
L 125.012897 235.350683 
L 125.176552 234.582178 
L 125.299293 232.720776 
L 125.55062 223.471858 
L 125.825326 217.495612 
L 125.895464 217.273799 
L 125.948067 217.422513 
L 126.070808 218.718316 
L 126.322135 224.423993 
L 126.754651 232.918152 
L 127.07027 235.180534 
L 127.38589 236.033672 
L 127.724889 236.364437 
L 128.157405 236.462842 
L 130.255692 236.422711 
L 131.06812 236.190365 
L 132.090962 235.950303 
L 133.283303 235.985918 
L 133.949612 235.897045 
L 134.914005 235.537302 
L 135.212091 235.19715 
L 135.38159 234.630182 
L 135.504331 233.301806 
L 135.667986 228.099845 
L 136.024519 218.162552 
L 136.112191 217.760729 
L 136.164795 217.895355 
L 136.281691 219.09353 
L 136.527173 224.519304 
L 136.959689 232.858272 
L 137.275308 235.139205 
L 137.596773 236.043073 
L 137.941617 236.400999 
L 138.368288 236.518338 
L 139.437888 236.476864 
L 140.881556 236.278197 
L 141.875174 235.908592 
L 142.523948 235.427956 
L 142.816188 234.953455 
L 142.985688 234.204173 
L 143.114274 232.328499 
L 143.3656 223.331175 
L 143.646151 217.397905 
L 143.716289 217.189469 
L 143.763047 217.308519 
L 143.879944 218.433173 
L 144.107891 223.327634 
L 144.581321 232.822828 
L 144.896941 235.107711 
L 145.218405 236.004838 
L 145.557404 236.356326 
L 145.97823 236.469122 
L 146.784814 236.403646 
L 150.659923 236.174684 
L 152.378297 236.153064 
L 153.114743 235.82288 
L 153.51219 235.413091 
L 153.745983 234.855142 
L 153.892103 233.84439 
L 154.026534 230.802219 
L 154.529187 217.503064 
L 154.570101 217.447279 
L 154.616859 217.57461 
L 154.733756 218.709613 
L 154.967548 223.686363 
L 155.435133 232.8603 
L 155.756597 235.167934 
L 156.078062 236.064521 
L 156.422906 236.421657 
L 156.861266 236.544302 
L 157.609402 236.481064 
L 160.017464 236.039676 
L 160.327239 235.708267 
L 160.502583 235.178941 
L 160.619479 234.015697 
L 160.759755 229.446655 
L 161.163046 216.605108 
L 161.244874 216.230908 
L 161.297477 216.375856 
L 161.414373 217.661218 
L 161.65401 223.423379 
L 162.098216 232.960561 
L 162.407991 235.328629 
L 162.717766 236.210891 
L 163.05092 236.549476 
L 163.477591 236.654793 
L 164.196503 236.570081 
L 165.488206 236.427148 
L 166.329858 236.235196 
L 166.768219 235.923747 
L 166.996167 235.48885 
L 167.136442 234.659977 
L 167.253338 232.120905 
L 167.808595 215.996008 
L 167.820285 216.00055 
L 167.878733 216.232844 
L 168.013164 217.972891 
L 168.317094 225.790486 
L 168.691161 232.962878 
L 169.006781 235.264259 
L 169.328246 236.155303 
L 169.67309 236.511109 
L 170.12314 236.64376 
L 170.894655 236.604287 
L 172.256496 236.526185 
L 173.472216 236.324477 
L 173.910577 236.066351 
L 174.150214 235.664476 
L 174.302179 234.926056 
L 174.419075 232.881366 
L 175.003556 216.309485 
L 175.067849 216.52931 
L 175.20228 218.209187 
L 175.49452 225.537166 
L 175.880278 232.960969 
L 176.195897 235.266655 
L 176.511517 236.151629 
L 176.856361 236.512413 
L 177.306411 236.648184 
L 178.095461 236.61594 
L 179.509905 236.345648 
L 180.135299 236.023047 
L 180.42754 235.624305 
L 180.591194 234.974034 
L 180.702246 233.41605 
L 180.883435 226.180591 
L 181.210744 216.092662 
L 181.310106 215.539834 
L 181.356864 215.664835 
L 181.467916 216.844169 
L 181.690019 222.147168 
L 182.163448 232.866001 
L 182.473223 235.276517 
L 182.782998 236.169114 
L 183.110307 236.503763 
L 183.513599 236.59332 
L 184.103925 236.478615 
L 185.722937 235.792623 
L 186.026868 235.489008 
L 186.190522 234.983579 
L 186.307418 233.715228 
L 186.453539 228.535743 
L 186.845141 215.61084 
L 186.944503 215.069942 
L 186.991261 215.182158 
L 187.102313 216.285759 
L 187.318571 221.230739 
L 187.832914 232.957072 
L 188.142689 235.320887 
L 188.458308 236.219805 
L 188.797307 236.569831 
L 189.235668 236.692554 
L 189.890287 236.628553 
L 190.650112 236.34025 
L 191.176145 235.908987 
L 191.445006 235.415843 
L 191.596971 234.62323 
L 191.713868 232.530128 
L 192.304193 216.305074 
L 192.362641 216.476723 
L 192.485382 217.815685 
L 192.730864 223.544496 
L 193.180915 232.940153 
L 193.49069 235.268525 
L 193.80631 236.157502 
L 194.145308 236.498944 
L 194.566135 236.599929 
L 195.431167 236.516573 
L 197.78078 236.035121 
L 198.102245 235.68853 
L 198.289279 235.133609 
L 198.41202 233.89275 
L 198.55814 229.017393 
L 198.955587 216.376686 
L 199.049104 215.901408 
L 199.095862 216.009819 
L 199.206914 217.09292 
L 199.423172 221.910464 
L 199.93167 233.019217 
L 200.241445 235.305364 
L 200.557065 236.178515 
L 200.890219 236.502551 
L 201.31689 236.597678 
L 202.152698 236.506106 
L 203.345039 236.176316 
L 204.128244 235.779707 
L 204.39126 235.399714 
L 204.53738 234.760858 
L 204.648432 233.06073 
L 204.858845 224.471537 
L 205.162775 215.980932 
L 205.256292 215.519532 
L 205.303051 215.635066 
L 205.414102 216.739247 
L 205.63036 221.643398 
L 206.133014 232.864394 
L 206.442788 235.230237 
L 206.758408 236.141333 
L 207.097407 236.501748 
L 207.535768 236.633346 
L 208.313128 236.595769 
L 210.55169 236.18677 
L 210.943292 235.870278 
L 211.14786 235.410984 
L 211.276446 234.491962 
L 211.393342 231.535834 
L 211.91353 215.627193 
L 211.948599 215.574804 
L 211.995358 215.708271 
L 212.112254 216.971237 
L 212.346046 222.575205 
L 212.801942 232.643358 
L 213.111716 235.110252 
L 213.427336 236.075001 
L 213.766335 236.465159 
L 214.198851 236.615795 
L 215.058038 236.628013 
L 216.776412 236.45169 
L 217.448565 236.153538 
L 217.828478 235.753572 
L 218.033046 235.231501 
L 218.161632 234.179644 
L 218.290218 230.518103 
L 218.728579 216.915978 
L 218.775337 216.790161 
L 218.827941 216.972225 
L 218.950682 218.60028 
L 219.272146 227.062985 
L 219.622835 233.217528 
L 219.938454 235.306075 
L 220.259919 236.115001 
L 220.598918 236.423343 
L 221.037279 236.511412 
L 221.791259 236.393837 
L 224.006442 236.043613 
L 224.421424 235.653929 
L 224.707819 235.072478 
L 224.877319 234.159091 
L 225.005905 231.954931 
L 225.578696 217.864045 
L 225.625454 217.951615 
L 225.730661 218.823831 
L 225.941074 222.884771 
L 226.472952 233.190484 
L 226.788572 235.26942 
L 227.104191 236.056516 
L 227.44319 236.357643 
L 227.92831 236.464395 
L 229.45965 236.440288 
L 230.307147 236.187587 
L 231.195558 235.963259 
L 232.481416 235.649558 
L 232.808726 235.324324 
L 233.007449 234.786137 
L 233.14188 233.66754 
L 233.282155 230.016796 
L 233.714671 218.225184 
L 233.778964 218.025201 
L 233.831567 218.157391 
L 233.948464 219.309049 
L 234.193946 224.551996 
L 234.638151 232.993503 
L 234.953771 235.233397 
L 235.269391 236.094896 
L 235.602545 236.423764 
L 236.017526 236.513927 
L 238.460657 236.402909 
L 239.407516 236.054528 
L 241.207718 235.201995 
L 241.377217 234.675869 
L 241.505803 233.398131 
L 241.663613 228.605419 
L 242.043525 217.990152 
L 242.131197 217.61195 
L 242.177956 217.721059 
L 242.289007 218.759921 
L 242.516955 223.542771 
L 242.996229 232.952372 
L 243.317694 235.229236 
L 243.645003 236.131077 
L 243.995692 236.496798 
L 244.445742 236.636268 
L 245.094516 236.585209 
L 247.105131 236.041875 
L 247.514267 235.787528 
L 247.73637 235.376686 
L 247.876646 234.554555 
L 247.993542 232.059208 
L 248.51373 217.296011 
L 248.531264 217.308348 
L 248.601402 217.694095 
L 248.753367 220.164899 
L 249.495658 234.499085 
L 249.805433 235.873715 
L 250.126897 236.395246 
L 250.489276 236.575835 
L 250.986084 236.557942 
L 252.125822 236.434495 
L 253.271405 236.401381 
L 253.990317 236.154052 
L 254.814435 235.617669 
L 255.147589 235.186117 
L 255.311244 234.574936 
L 255.42814 233.123112 
L 255.603484 226.836563 
L 255.954173 216.498474 
L 256.065224 215.900592 
L 256.106138 215.982828 
L 256.211344 216.865341 
L 256.410068 220.814631 
L 257.006239 233.368217 
L 257.321858 235.393236 
L 257.637478 236.160767 
L 257.982322 236.463882 
L 258.449907 236.564551 
L 259.355852 236.488108 
L 261.068381 236.051105 
L 261.828207 235.742196 
L 262.097068 235.39005 
L 262.260723 234.762569 
L 262.377619 233.202729 
L 262.558808 226.324762 
L 262.891962 216.515037 
L 262.991324 216.019418 
L 263.038082 216.146907 
L 263.154979 217.368584 
L 263.388771 222.843271 
L 263.844666 232.705134 
L 264.160286 235.149883 
L 264.475906 236.077819 
L 264.814905 236.44824 
L 265.241576 236.57727 
L 266.094918 236.54263 
L 267.304794 236.293404 
L 267.88343 235.942561 
L 268.292566 235.471115 
L 268.497135 234.869598 
L 268.625721 233.686447 
L 268.771841 229.408749 
L 269.192667 216.996345 
L 269.280339 216.621764 
L 269.332943 216.755454 
L 269.449839 217.925782 
L 269.677786 222.995763 
L 270.157061 233.031475 
L 270.466836 235.299926 
L 270.782455 236.163084 
L 271.11561 236.487423 
L 271.536436 236.581009 
L 272.337175 236.483236 
L 275.376476 235.84567 
L 275.703785 235.517421 
L 275.890819 234.996232 
L 276.019405 233.840335 
L 276.159681 229.654959 
L 276.580507 216.789187 
L 276.662334 216.426863 
L 276.714937 216.556919 
L 276.831834 217.768655 
L 277.065626 223.131548 
L 277.527366 232.792783 
L 277.842986 235.176045 
L 278.158606 236.084336 
L 278.497604 236.44225 
L 278.924276 236.55997 
L 279.678256 236.5003 
L 281.624578 236.050802 
L 282.103852 235.776837 
L 282.337645 235.387838 
L 282.47792 234.684717 
L 282.588971 232.717577 
L 283.179297 215.632565 
L 283.25528 215.944435 
L 283.395555 217.949508 
L 283.775468 227.978031 
L 284.114467 233.426227 
L 284.430087 235.380939 
L 284.751551 236.154776 
L 285.10224 236.467252 
L 285.55229 236.564788 
L 286.177685 236.460064 
L 286.990113 236.0893 
L 287.428474 235.688886 
L 287.644732 235.17906 
L 287.773318 234.231967 
L 287.896059 231.155972 
L 288.398712 216.327536 
L 288.439626 216.254515 
L 288.486385 216.376975 
L 288.603281 217.558113 
L 288.831228 222.699824 
L 289.310503 232.922063 
L 289.620278 235.246616 
L 289.935897 236.134197 
L 290.263207 236.458339 
L 290.672343 236.539088 
L 291.3971 236.420696 
L 293.179767 235.865367 
L 293.431094 235.485901 
L 293.577214 234.823898 
L 293.688265 233.086102 
L 293.916213 223.90474 
L 294.202609 216.601303 
L 294.278591 216.272369 
L 294.331194 216.406415 
L 294.448091 217.64717 
L 294.687728 223.240354 
L 295.137778 232.729374 
L 295.453398 235.162312 
L 295.769018 236.092197 
L 296.108017 236.465975 
L 296.522998 236.591845 
L 297.177617 236.530596 
L 298.393337 236.157436 
L 298.966129 235.754823 
L 299.23499 235.308182 
L 299.386955 234.572066 
L 299.503851 232.615366 
L 299.796092 221.16288 
L 300.053263 216.179112 
L 300.105867 216.056296 
L 300.15847 216.201837 
L 300.281211 217.484342 
L 300.520848 222.964875 
L 300.982588 232.673443 
L 301.298208 235.086724 
L 301.613828 236.01208 
L 301.946982 236.370888 
L 302.361963 236.485001 
L 303.396495 236.434468 
L 305.097334 236.220976 
L 305.488936 235.949724 
L 305.716884 235.49072 
L 305.863004 234.638016 
L 305.99159 232.138877 
L 306.523468 218.826754 
L 306.529313 218.829637 
L 306.587761 219.037902 
L 306.722191 220.631856 
L 307.669051 234.947701 
L 307.990515 235.860114 
L 308.341204 236.24328 
L 308.832168 236.428649 
L 309.895923 236.543499 
L 310.930454 236.481788 
L 311.713659 236.193525 
L 313.344361 235.374737 
L 313.589843 234.945199 
L 313.741808 234.180236 
L 313.870394 232.076706 
L 314.425651 218.490262 
L 314.478254 218.625322 
L 314.59515 219.797309 
L 314.852322 225.258777 
L 315.273148 232.804751 
L 315.600458 235.090292 
L 315.927767 235.999558 
L 316.278455 236.374127 
L 316.693437 236.491228 
L 317.494176 236.417918 
L 322.620074 235.694324 
L 323.075969 235.284864 
L 323.315607 234.759317 
L 323.467572 233.836437 
L 323.602002 231.289347 
L 324.157259 218.156706 
L 324.192328 218.183447 
L 324.209862 218.235388 
L 324.315069 219.058731 
L 324.519637 222.803956 
L 325.074894 233.229299 
L 325.396359 235.276227 
L 325.723668 236.087562 
L 326.074357 236.405739 
L 326.541942 236.511254 
L 327.436198 236.439511 
L 328.75128 236.101742 
L 330.1365 235.790293 
L 330.703446 235.583252 
L 331.019066 235.228657 
L 331.21779 234.655264 
L 331.358065 233.430046 
L 331.51003 229.375714 
L 331.919167 218.601135 
L 331.995149 218.325643 
L 332.047753 218.450118 
L 332.164649 219.56154 
L 332.410131 224.658696 
L 332.860181 232.972635 
L 333.181646 235.191146 
L 333.50311 236.052869 
L 333.836264 236.370203 
L 334.233711 236.436127 
L 336.8931 236.372639 
L 338.675767 236.569621 
L 339.382989 236.37996 
L 339.914867 235.993397 
L 340.370762 235.406811 
L 340.581175 234.78773 
L 340.715606 233.545606 
L 340.861726 229.235691 
L 341.282552 216.71901 
L 341.381914 216.271513 
L 341.428672 216.380517 
L 341.539724 217.371204 
L 341.755982 221.779933 
L 342.299549 233.028763 
L 342.615169 235.205445 
L 342.936633 236.052961 
L 343.287322 236.392125 
L 343.749062 236.514348 
L 344.74268 236.490386 
L 345.899952 236.302028 
L 346.484433 235.989868 
L 346.911104 235.518198 
L 347.121517 234.945305 
L 347.255948 233.789276 
L 347.396223 229.788689 
L 347.834584 216.650966 
L 347.916411 216.320624 
L 347.969015 216.453287 
L 348.085911 217.610949 
L 348.313858 222.590412 
L 348.804822 232.788951 
L 349.120442 235.117099 
L 349.441907 236.030973 
L 349.780906 236.388228 
L 350.213422 236.506528 
L 351.364849 236.497061 
L 352.25326 236.291469 
L 353.223499 235.855413 
L 353.568342 235.493366 
L 353.755376 234.946595 
L 353.878117 233.779848 
L 354.018393 229.464666 
L 354.433374 216.692361 
L 354.521046 216.316081 
L 354.567805 216.439041 
L 354.678856 217.547158 
L 354.900959 222.538892 
L 355.386078 232.940008 
L 355.695853 235.235372 
L 356.011473 236.111433 
L 356.344627 236.438326 
L 356.765453 236.530477 
L 357.443451 236.422329 
L 359.272877 235.846276 
L 359.582652 235.527454 
L 359.757996 235.007213 
L 359.880737 233.780862 
L 360.026857 228.979658 
L 360.424304 216.440437 
L 360.511977 216.011083 
L 360.56458 216.154386 
L 360.681476 217.442894 
L 360.921113 223.271019 
L 361.359474 232.778379 
L 361.669249 235.207644 
L 361.984869 236.136791 
L 362.318023 236.488108 
L 362.71547 236.581799 
L 363.276572 236.467634 
L 364.030552 236.080281 
L 365.47422 235.039668 
L 365.614496 234.390529 
L 365.725547 232.596302 
L 365.959339 223.056473 
L 366.25158 215.559031 
L 366.333407 215.204936 
L 366.38601 215.344854 
L 366.502907 216.577275 
L 366.730854 221.896323 
L 367.215973 232.672337 
L 367.531593 235.131292 
L 367.853058 236.095528 
L 368.197902 236.486133 
L 368.642107 236.641969 
L 369.48376 236.658506 
L 370.483222 236.481906 
L 371.681408 235.987998 
L 372.131459 235.63709 
L 372.336027 235.1932 
L 372.464613 234.324052 
L 372.581509 231.579454 
L 373.119231 215.89306 
L 373.142611 215.875167 
L 373.183524 215.976258 
L 373.294576 217.042059 
L 373.510834 221.848648 
L 374.019332 232.981601 
L 374.329107 235.276293 
L 374.644727 236.157199 
L 374.983726 236.502499 
L 375.422087 236.623576 
L 376.211136 236.570174 
L 377.023564 236.304411 
L 378.163302 235.657787 
L 378.408784 235.246906 
L 378.554905 234.50447 
L 378.671801 232.444046 
L 379.256282 216.18002 
L 379.320575 216.36955 
L 379.449161 217.875329 
L 379.712177 224.335436 
L 380.127158 232.904446 
L 380.436933 235.237163 
L 380.752553 236.123585 
L 381.085707 236.455139 
L 381.494844 236.541853 
L 384.107474 236.449544 
L 384.767938 236.170523 
L 385.136161 235.79365 
L 385.340729 235.244299 
L 385.469315 234.130468 
L 385.603745 230.155898 
L 386.036261 216.562304 
L 386.112244 216.256793 
L 386.164847 216.403334 
L 386.281743 217.66709 
L 386.52138 223.323578 
L 386.971431 232.930331 
L 387.281206 235.290355 
L 387.590981 236.169338 
L 387.924135 236.507291 
L 388.344961 236.608461 
L 389.058028 236.513282 
L 391.168004 236.118463 
L 391.910295 235.958664 
L 392.255139 235.679985 
L 392.453863 235.21815 
L 392.582448 234.277772 
L 392.705189 231.167216 
L 393.213688 215.83501 
L 393.266291 215.722662 
L 393.31305 215.84944 
L 393.429946 217.018096 
L 393.657893 222.142797 
L 394.154702 232.976769 
L 394.464477 235.303047 
L 394.780097 236.193577 
L 395.119096 236.53789 
L 395.545767 236.644919 
L 396.194541 236.558074 
L 397.679123 236.277355 
L 398.713654 236.210904 
L 399.385807 235.928803 
L 399.853392 235.490838 
L 400.104719 234.94545 
L 400.256684 234.00444 
L 400.385269 231.400984 
L 400.940526 217.396733 
L 400.975595 217.427437 
L 400.99313 217.483157 
L 401.104181 218.420099 
L 401.320439 222.664683 
L 401.852317 233.091461 
L 402.167937 235.210646 
L 402.489401 236.049367 
L 402.84009 236.393192 
L 403.331054 236.539167 
L 404.172706 236.532439 
L 404.99098 236.338538 
L 406.674285 235.785105 
L 407.755575 235.664555 
L 407.989367 235.355396 
L 408.147177 234.734775 
L 408.269918 233.089262 
L 408.474486 225.621035 
L 408.784261 217.636768 
L 408.866089 217.295432 
L 408.918692 217.442697 
L 409.035588 218.697618 
L 409.286915 224.516302 
L 409.707741 232.86109 
L 410.023361 235.211436 
L 410.344826 236.131564 
L 410.683824 236.486567 
L 411.092961 236.58571 
L 411.730045 236.483671 
L 413.103576 236.229455 
L 414.284227 236.068352 
L 416.072739 235.520949 
L 416.329911 235.168908 
L 416.487721 234.541928 
L 416.604617 232.989619 
L 416.791651 226.15834 
L 417.113115 217.231944 
L 417.206632 216.800154 
L 417.253391 216.92505 
L 417.370287 218.128504 
L 417.604079 223.476861 
L 418.05413 232.780498 
L 418.369749 235.152582 
L 418.691214 236.079122 
L 419.030213 236.434955 
L 419.456884 236.552675 
L 420.146572 236.483947 
L 422.414358 236.197817 
L 423.308614 236.177264 
L 424.302231 235.904629 
L 424.804885 235.609309 
L 425.021143 235.212542 
L 425.155574 234.417033 
L 425.27247 231.863741 
L 425.845261 215.356006 
L 425.89202 215.459454 
L 426.003071 216.514458 
L 426.213484 221.141616 
L 426.745362 232.904407 
L 427.060982 235.227354 
L 427.382446 236.13184 
L 427.72729 236.495336 
L 428.18903 236.642378 
L 429.089131 236.652582 
L 430.071059 236.471057 
L 430.713988 236.136343 
L 431.093901 235.704936 
L 431.286779 235.131398 
L 431.40952 233.941294 
L 431.549796 229.502743 
L 431.964777 216.408706 
L 432.052449 215.988543 
L 432.105053 216.117994 
L 432.221949 217.328045 
L 432.449896 222.601248 
L 432.923326 232.857087 
L 433.233101 235.212858 
L 433.548721 236.11924 
L 433.88772 236.473085 
L 434.308546 236.583827 
L 434.951475 236.498838 
L 437.575795 235.773532 
L 437.815432 235.350327 
L 437.955707 234.585864 
L 438.066759 232.439162 
L 438.65124 215.563744 
L 438.697998 215.664388 
L 438.80905 216.71747 
L 439.025308 221.477121 
L 439.55134 233.039519 
L 439.861115 235.288906 
L 440.176735 236.152841 
L 440.515734 236.486646 
L 440.94825 236.591147 
L 442.058764 236.533176 
L 443.046537 236.342093 
L 443.818052 235.966274 
L 444.127827 235.586873 
L 444.297326 235.012848 
L 444.414222 233.678902 
L 444.572032 228.036265 
L 444.940255 216.291078 
L 445.045462 215.699107 
L 445.09222 215.817038 
L 445.203272 216.938611 
L 445.425374 222.011976 
L 445.916338 232.818299 
L 446.226113 235.194899 
L 446.541733 236.111498 
L 446.880732 236.473046 
L 447.324938 236.606434 
L 448.154901 236.584577 
L 449.610258 236.315682 
L 450.364239 235.980072 
L 450.697393 235.592917 
L 450.878582 235.015086 
L 451.001323 233.694241 
L 451.153288 228.472531 
L 451.539045 216.193766 
L 451.650097 215.55986 
L 451.696855 215.663387 
L 451.807907 216.704988 
L 452.01832 221.309066 
L 452.544353 232.873966 
L 452.859972 235.169448 
L 453.181437 236.063389 
L 453.526281 236.422513 
L 453.982176 236.55993 
L 454.94657 236.556968 
L 456.349324 236.371099 
L 458.131991 236.007853 
L 460.30626 236.050183 
L 460.785535 235.713731 
L 461.066086 235.247814 
L 461.22974 234.506406 
L 461.352481 232.653852 
L 461.597963 223.460837 
L 461.884359 217.013119 
L 461.960341 216.760681 
L 462.0071 216.879139 
L 462.118151 217.930272 
L 462.340254 222.703998 
L 462.837063 233.023193 
L 463.146838 235.255424 
L 463.462458 236.118608 
L 463.801457 236.453085 
L 464.263197 236.574979 
L 465.677641 236.588225 
L 466.583586 236.438787 
L 467.203136 236.118964 
L 467.857755 235.510825 
L 468.109081 234.995732 
L 468.255202 234.086532 
L 468.377943 231.48563 
L 468.944889 216.348931 
L 468.997493 216.488007 
L 469.114389 217.684483 
L 469.348181 222.963387 
L 469.815766 232.74096 
L 470.131386 235.097218 
L 470.45285 236.020532 
L 470.791849 236.385384 
L 471.2419 236.526975 
L 472.329034 236.543301 
L 473.609048 236.357274 
L 475.485231 236.253484 
L 476.163229 236.091828 
L 476.695107 235.729201 
L 476.999037 235.273778 
L 477.168537 234.586549 
L 477.291278 232.936217 
L 477.490001 225.735043 
L 477.805621 217.316089 
L 477.899138 216.882404 
L 477.945896 216.995713 
L 478.056948 218.063528 
L 478.279051 222.898175 
L 478.76417 232.997427 
L 479.073945 235.253278 
L 479.389564 236.116857 
L 479.728563 236.453507 
L 480.161079 236.557666 
L 481.236524 236.490465 
L 482.528227 236.300672 
L 483.036726 236.009631 
L 483.328966 235.59609 
L 483.486776 234.961789 
L 483.603672 233.298303 
L 483.796551 225.556692 
L 484.118016 216.161667 
L 484.211533 215.687152 
L 484.258291 215.804767 
L 484.369342 216.93503 
L 484.591445 222.095977 
L 485.076564 232.982167 
L 485.386339 235.342691 
L 485.696114 236.200937 
L 486.029269 236.519707 
L 486.461784 236.611542 
L 487.344351 236.522604 
L 488.466554 236.467779 
L 489.986205 236.493796 
L 490.921374 236.247098 
L 491.459097 235.904063 
L 491.722113 235.473327 
L 491.874078 234.736066 
L 491.990975 232.671205 
L 492.5813 215.586786 
L 492.651438 215.818513 
L 492.785869 217.535269 
L 493.06642 224.808595 
L 493.458022 232.891635 
L 493.767797 235.278452 
L 494.083417 236.190431 
L 494.416571 236.537561 
L 494.843242 236.650396 
L 495.585533 236.578732 
L 498.589765 235.952515 
L 498.876161 235.585267 
L 499.03397 234.994507 
L 499.145022 233.581524 
L 499.314521 227.158203 
L 499.659365 216.334646 
L 499.764572 215.742227 
L 499.81133 215.862699 
L 499.922382 216.996451 
L 500.144484 222.127629 
L 500.629604 232.878443 
L 500.939378 235.256952 
L 501.254998 236.172063 
L 501.593997 236.536718 
L 502.038203 236.677255 
L 502.856476 236.659994 
L 504.948918 236.337248 
L 505.533399 236.023877 
L 505.819795 235.620197 
L 505.989294 234.956233 
L 506.10619 233.365439 
L 506.293224 226.10549 
L 506.620534 216.441517 
L 506.719895 215.90832 
L 506.766654 216.01585 
L 506.877705 217.093302 
L 507.093963 221.916099 
L 507.602462 233.055319 
L 507.912237 235.334449 
L 508.227856 236.206533 
L 508.566855 236.545934 
L 509.011061 236.663747 
L 509.805955 236.606552 
L 512.284154 236.132328 
L 512.821877 235.832491 
L 513.067359 235.445243 
L 513.219324 234.727429 
L 513.330375 232.834678 
L 513.593392 221.865975 
L 513.868098 215.530394 
L 513.938236 215.296205 
L 513.990839 215.446617 
L 514.11358 216.773505 
L 514.347372 222.322043 
L 514.820802 232.82271 
L 515.130577 235.234556 
L 515.440352 236.141162 
L 515.773506 236.499075 
L 516.200177 236.623444 
L 517.006761 236.5781 
L 518.11143 236.327913 
L 519.005686 235.895018 
L 519.297926 235.508599 
L 519.461581 234.871402 
L 519.572632 233.359119 
L 519.747977 226.510434 
L 520.086976 215.934495 
L 520.198027 215.27901 
L 520.244785 215.385538 
L 520.355837 216.440266 
L 520.572095 221.186566 
L 521.103973 233.033542 
L 521.413747 235.318596 
L 521.729367 236.195895 
L 522.068366 236.540325 
L 522.518417 236.665511 
L 523.289931 236.617506 
L 524.330308 236.351889 
L 525.002461 235.968644 
L 525.306391 235.560185 
L 525.470045 234.936115 
L 525.586942 233.363516 
L 525.768131 226.319746 
L 526.101285 216.269367 
L 526.206492 215.685401 
L 526.25325 215.797394 
L 526.364301 216.888987 
L 526.580559 221.752652 
L 527.089058 233.0001 
L 527.398833 235.312816 
L 527.708608 236.17704 
L 528.041762 236.510609 
L 528.474278 236.61752 
L 529.298396 236.551148 
L 530.292014 236.252655 
L 530.905719 235.86176 
L 531.145356 235.439226 
L 531.285631 234.674144 
L 531.396683 232.474145 
L 531.975319 215.465682 
L 532.016233 215.561506 
L 532.121439 216.578776 
L 532.326007 221.21648 
L 532.846196 233.05686 
L 533.15597 235.334593 
L 533.465745 236.181333 
L 533.7989 236.507739 
L 534.219726 236.602194 
L 534.833431 236.498075 
L 535.435446 236.179358 
L 535.856273 235.707674 
L 536.072531 235.12072 
L 536.201116 234.044307 
L 536.335547 230.341372 
L 536.791442 216.679169 
L 536.86158 216.432932 
L 536.914183 216.566557 
L 537.031079 217.744561 
L 537.259027 222.820849 
L 537.738301 232.916757 
L 538.048076 235.22867 
L 538.357851 236.104125 
L 538.691005 236.439761 
L 539.117677 236.542445 
L 540.011932 236.463869 
L 541.6251 236.199871 
L 542.308943 235.819232 
L 542.718079 235.374685 
L 542.905113 234.813444 
L 543.033699 233.561801 
L 543.179819 229.095245 
L 543.583111 217.201411 
L 543.670783 216.825196 
L 543.717542 216.939704 
L 543.828593 218.0106 
L 544.050696 222.838057 
L 544.535815 232.827068 
L 544.851435 235.126961 
L 545.1729 236.036016 
L 545.529433 236.423948 
L 545.991173 236.589133 
L 546.791912 236.606012 
L 548.329097 236.384107 
L 549.825368 235.872187 
L 550.269574 235.492076 
L 550.479987 234.997733 
L 550.614418 233.996737 
L 550.743003 230.752503 
L 551.228123 216.647754 
L 551.280726 216.518329 
L 551.333329 216.65855 
L 551.450225 217.849997 
L 551.684018 223.088257 
L 552.151603 232.854967 
L 552.467222 235.212291 
L 552.782842 236.107417 
L 553.121841 236.460603 
L 553.571891 236.590634 
L 554.501216 236.575414 
L 556.716399 236.29089 
L 557.324259 235.916966 
L 557.680793 235.452458 
L 557.867827 234.838223 
L 557.990568 233.56712 
L 558.142533 228.75171 
L 558.534135 217.084784 
L 558.627652 216.637853 
L 558.67441 216.746133 
L 558.785462 217.805231 
L 559.007565 222.631043 
L 559.498529 232.918139 
L 559.814148 235.227235 
L 560.129768 236.097384 
L 560.468767 236.436628 
L 560.907128 236.549911 
L 561.74878 236.484434 
L 565.436855 235.97395 
L 566.07394 235.626649 
L 566.325266 235.235306 
L 566.477232 234.543429 
L 566.594128 232.721711 
L 566.83961 223.168795 
L 567.120161 216.731465 
L 567.184454 216.508362 
L 567.237057 216.641803 
L 567.353953 217.863348 
L 567.587745 223.240143 
L 568.043641 232.808951 
L 568.35926 235.181416 
L 568.680725 236.102637 
L 569.019724 236.457931 
L 569.44055 236.570121 
L 570.030876 236.482604 
L 571.088787 236.063086 
L 571.532992 235.695627 
L 571.73756 235.215557 
L 571.866146 234.256772 
L 571.988887 231.095407 
L 572.485696 216.031254 
L 572.532455 215.915614 
L 572.585058 216.054058 
L 572.701954 217.294036 
L 572.935746 222.790382 
L 573.397486 232.846238 
L 573.707261 235.245879 
L 574.022881 236.161794 
L 574.36188 236.517679 
L 574.794396 236.640626 
L 575.706186 236.607882 
L 579.324124 236.178581 
L 579.914449 235.877046 
L 580.20669 235.483557 
L 580.370345 234.834484 
L 580.487241 233.172578 
L 580.685964 225.245374 
L 581.001584 216.101457 
L 581.106791 215.553778 
L 581.147704 215.648206 
L 581.252911 216.597854 
L 581.457479 220.917486 
L 582.024426 233.31592 
L 582.334201 235.434341 
L 582.64982 236.240581 
L 582.988819 236.548963 
L 583.421335 236.633267 
L 584.181161 236.515441 
L 585.490398 236.322778 
L 586.67105 236.343502 
L 587.723115 236.272983 
L 588.249148 236.021612 
L 588.570613 235.63256 
L 588.751802 235.036982 
L 588.868698 233.750198 
L 589.020663 228.468529 
L 589.400576 216.342085 
L 589.499938 215.805294 
L 589.546696 215.9099 
L 589.657747 216.972949 
L 589.874005 221.752376 
L 590.394194 233.162704 
L 590.703968 235.383348 
L 591.013743 236.201227 
L 591.346898 236.50978 
L 591.773569 236.591384 
L 594.877163 236.438616 
L 596.367589 236.102348 
L 596.729967 235.784355 
L 596.940381 235.286879 
L 597.068966 234.305422 
L 597.191707 231.029444 
L 597.676827 215.97452 
L 597.723585 215.853351 
L 597.776188 215.996614 
L 597.893085 217.283398 
L 598.126877 222.992314 
L 598.571083 232.917073 
L 598.875013 235.237084 
L 599.184788 236.102953 
L 599.517942 236.435996 
L 599.944613 236.537047 
L 600.745352 236.444791 
L 601.388281 236.468582 
L 602.709208 236.612477 
L 608.694293 236.615439 
L 609.448274 236.545671 
L 610.529564 236.410756 
L 615.971081 236.520931 
L 618.420057 236.417102 
L 622.371148 236.510254 
L 625.200036 236.533334 
L 628.087372 236.182425 
L 628.438061 235.863037 
L 628.642629 235.372499 
L 628.77706 234.363432 
L 628.905646 230.963546 
L 629.379075 216.754717 
L 629.431679 216.610783 
L 629.484282 216.753453 
L 629.601178 218.001778 
L 629.840815 223.602072 
L 630.285021 232.971673 
L 630.594796 235.330512 
L 630.904571 236.215697 
L 631.237725 236.561892 
L 631.652706 236.669487 
L 632.31317 236.579206 
L 633.669166 236.350507 
L 635.749918 236.212589 
L 636.223348 235.886618 
L 636.544812 235.406376 
L 636.714312 234.71604 
L 636.831208 233.10647 
L 637.024087 225.803363 
L 637.351396 216.519409 
L 637.450758 216.009135 
L 637.497516 216.112451 
L 637.608568 217.144256 
L 637.824826 221.781223 
L 638.350858 233.091447 
L 638.660633 235.305943 
L 638.976253 236.157488 
L 639.315252 236.485172 
L 639.759458 236.590687 
L 640.881661 236.537824 
L 642.547432 236.306518 
L 643.131913 236.024535 
L 643.459222 235.631481 
L 643.646256 235.043078 
L 643.768997 233.8236 
L 643.915117 229.263419 
L 644.318409 216.906182 
L 644.411926 216.45883 
L 644.458685 216.570744 
L 644.569736 217.641271 
L 644.791839 222.515008 
L 645.288648 233.108287 
L 645.598423 235.362295 
L 645.908198 236.204308 
L 646.235507 236.517363 
L 646.644644 236.592188 
L 647.521365 236.453625 
L 648.637724 236.416588 
L 650.110616 236.362277 
L 650.852907 236.07774 
L 651.338026 235.688662 
L 651.565974 235.221903 
L 651.700404 234.375624 
L 651.8173 231.798041 
L 652.384247 215.642914 
L 652.431005 215.727665 
L 652.536212 216.671861 
L 652.74078 221.040275 
L 653.290193 233.141387 
L 653.599967 235.344192 
L 653.915587 236.187205 
L 654.254586 236.515217 
L 654.704636 236.628211 
L 655.739168 236.594558 
L 658.398556 236.466344 
L 665.201915 236.493309 
L 666.557911 236.497825 
L 670.555761 236.602721 
L 672.420255 236.528752 
L 673.747027 236.510043 
L 674.997816 236.525474 
L 676.312899 236.485409 
L 677.300671 236.562274 
L 678.469633 236.634372 
L 679.474941 236.423237 
L 680.164628 236.407385 
L 681.935606 236.51918 
L 683.203929 236.465001 
L 685.191165 236.552294 
L 685.191165 236.552294 
" clip-path="url(#p2943209de4)" style="fill: none; stroke: #2ca02c; stroke-width: 1.5; stroke-linecap: square"/>
   </g>
   <g id="line2d_16">
    <path d="M 100.716023 236.964255 
L 129.881624 236.964255 
L 129.881624 236.964255 
" clip-path="url(#p2943209de4)" style="fill: none; stroke-dasharray: 2.96,1.28; stroke-dashoffset: 0; stroke: #808080; stroke-opacity: 0.7; stroke-width: 0.8"/>
   </g>
   <g id="line2d_17">
    <path d="M 100.716023 179.755146 
L 101.008263 180.825489 
L 101.347262 181.295105 
L 101.797313 181.524094 
L 102.562983 181.629477 
L 104.363184 181.599484 
L 108.086328 181.593138 
L 111.575679 181.60799 
L 118.694658 181.590794 
L 130.594691 181.534047 
L 131.535705 181.485385 
L 133.441113 181.468795 
L 134.691902 181.456261 
L 136.655759 181.486807 
L 159.50312 181.596061 
L 160.169429 181.716427 
L 162.770369 181.734202 
L 218.599993 181.623183 
L 219.599455 181.569017 
L 224.421424 181.479723 
L 229.149875 181.526885 
L 238.589243 181.501026 
L 242.452662 181.490072 
L 244.591862 181.533284 
L 246.81289 181.534311 
L 247.198648 181.645514 
L 247.841577 181.730384 
L 252.125822 181.735071 
L 598.156101 181.625158 
L 599.336753 181.337343 
L 600.347905 181.208023 
L 601.306454 180.990805 
L 602.773501 181.299687 
L 603.667757 181.070804 
L 604.228858 181.038441 
L 606.02906 181.147063 
L 606.835644 181.043944 
L 608.559863 181.288575 
L 609.161878 181.117728 
L 609.863255 180.898588 
L 610.465271 181.099928 
L 611.178337 181.232749 
L 612.002456 181.144956 
L 613.077901 180.964367 
L 614.971619 181.243598 
L 616.391908 181.036492 
L 617.134199 181.041285 
L 618.431746 181.093687 
L 621.038532 181.157333 
L 622.534803 181.160756 
L 625.737759 181.050212 
L 626.661239 181.045682 
L 626.959324 181.196726 
L 627.561339 181.587134 
L 628.221803 181.680536 
L 632.026774 181.706553 
L 640.495904 181.703182 
L 656.294425 181.664183 
L 656.814613 181.420343 
L 657.445852 181.151224 
L 658.100471 181.221216 
L 658.807693 181.180268 
L 660.011724 181.006183 
L 661.332651 181.272143 
L 662.256131 181.161125 
L 663.284817 181.142639 
L 666.785858 181.095425 
L 667.95482 181.03881 
L 669.34004 181.268667 
L 670.210917 181.188932 
L 671.181156 181.032753 
L 673.185925 181.085445 
L 674.004199 181.013372 
L 675.740107 181.114095 
L 676.610984 181.092028 
L 678.229996 181.220979 
L 680.158783 181.080283 
L 681.193315 181.144956 
L 685.191165 181.130236 
L 685.191165 181.130236 
" clip-path="url(#p2943209de4)" style="fill: none; stroke: #d62728; stroke-width: 1.5; stroke-linecap: square"/>
   </g>
   <g id="line2d_18">
    <path d="M 100.716023 181.740706 
L 129.881624 181.740706 
L 129.881624 181.740706 
" clip-path="url(#p2943209de4)" style="fill: none; stroke-dasharray: 2.96,1.28; stroke-dashoffset: 0; stroke: #808080; stroke-opacity: 0.7; stroke-width: 0.8"/>
   </g>
   <g id="line2d_19">
    <path d="M 100.716023 124.786524 
L 101.060867 126.00691 
L 101.370641 126.390761 
L 101.762244 126.5007 
L 103.287739 126.513287 
L 305.798711 126.403005 
L 306.400727 126.042143 
L 306.897536 125.528656 
L 307.107949 124.980674 
L 307.242379 123.894769 
L 307.37681 120.249752 
L 307.83855 106.598517 
L 307.908688 106.373215 
L 307.961291 106.527734 
L 308.084032 107.872806 
L 308.347048 114.008469 
L 308.76203 122.025731 
L 309.083495 124.446648 
L 309.410804 125.426249 
L 309.749803 125.808362 
L 310.118026 125.896813 
L 310.492094 125.761911 
L 310.772645 125.426591 
L 310.953834 124.827603 
L 311.076575 123.470761 
L 311.240229 117.934744 
L 311.585073 108.013343 
L 311.67859 107.582778 
L 311.725349 107.698773 
L 311.842245 108.826311 
L 312.093572 114.073721 
L 312.537777 122.202054 
L 312.865087 124.520195 
L 313.186551 125.415505 
L 313.502171 125.722333 
L 313.811946 125.73384 
L 314.104186 125.51944 
L 314.343823 125.049034 
L 314.507478 124.209128 
L 314.636064 122.131614 
L 315.22639 108.088101 
L 315.273148 108.170338 
L 315.3842 109.010218 
L 315.600458 112.755588 
L 316.161559 122.56081 
L 316.488869 124.572413 
L 316.804488 125.319075 
L 317.114263 125.554857 
L 317.459107 125.53998 
L 317.926692 125.291426 
L 318.207243 124.906337 
L 318.370897 124.274196 
L 318.487794 122.767521 
L 318.668983 116.186494 
L 319.007982 106.427644 
L 319.113188 105.899148 
L 319.154102 105.994051 
L 319.265153 107.007226 
L 319.487256 111.649249 
L 319.98991 121.831133 
L 320.317219 124.270351 
L 320.650373 125.265514 
L 320.989372 125.654132 
L 321.35175 125.75014 
L 321.737508 125.622822 
L 322.012214 125.308884 
L 322.187558 124.752107 
L 322.310299 123.487508 
L 322.462264 118.635351 
L 322.836332 107.601501 
L 322.929849 107.178625 
L 322.976608 107.297332 
L 323.093504 108.426897 
L 323.338986 113.563816 
L 323.789036 121.943362 
L 324.116346 124.323227 
L 324.443655 125.275916 
L 324.776809 125.636199 
L 325.115808 125.693788 
L 325.443117 125.526129 
L 325.706134 125.136721 
L 325.875633 124.454232 
L 325.998374 122.826638 
L 326.197098 115.642909 
L 326.512718 107.368114 
L 326.60039 106.989714 
L 326.647148 107.096704 
L 326.7582 108.110484 
L 326.986147 112.752428 
L 327.471266 122.096302 
L 327.798576 124.430664 
L 328.12004 125.3339 
L 328.43566 125.642914 
L 328.75128 125.659609 
L 329.072744 125.454082 
L 329.294847 125.04727 
L 329.446812 124.24602 
L 329.569553 122.045875 
L 330.154034 106.912454 
L 330.189103 106.960011 
L 330.28262 107.586596 
L 330.469654 110.708541 
L 331.124273 122.781135 
L 331.451582 124.642458 
L 331.778891 125.382958 
L 332.100356 125.629063 
L 332.42182 125.609787 
L 332.719906 125.36808 
L 332.936164 124.88643 
L 333.076439 123.974504 
L 333.19918 121.340108 
L 333.742747 106.918564 
L 333.771971 106.934969 
L 333.795351 107.006093 
L 333.900557 107.921152 
L 334.12266 112.345431 
L 334.648693 122.556333 
L 334.976002 125.594172 
L 335.239019 126.31013 
L 335.51957 126.481872 
L 336.180033 126.514445 
L 360.453528 126.512707 
L 394.189771 126.401715 
L 396.767332 126.338859 
L 401.291215 126.34797 
L 405.049428 126.338675 
L 409.368742 126.332697 
L 411.876166 126.323323 
L 415.570086 126.334541 
L 421.110965 126.323297 
L 422.50203 126.420754 
L 423.337838 126.50307 
L 428.65077 126.511654 
L 685.191165 126.504228 
L 685.191165 126.504228 
" clip-path="url(#p2943209de4)" style="fill: none; stroke: #9467bd; stroke-width: 1.5; stroke-linecap: square"/>
   </g>
   <g id="line2d_20">
    <path d="M 100.716023 126.517157 
L 129.881624 126.517157 
L 129.881624 126.517157 
" clip-path="url(#p2943209de4)" style="fill: none; stroke-dasharray: 2.96,1.28; stroke-dashoffset: 0; stroke: #808080; stroke-opacity: 0.7; stroke-width: 0.8"/>
   </g>
   <g id="line2d_21">
    <path d="M 100.716023 364.800261 
L 101.884985 364.800261 
" style="fill: none; stroke: #000000; stroke-width: 5; stroke-linecap: square"/>
   </g>
   <g id="text_8">
    <!-- 20 ms -->
    <g transform="translate(76.618004 384.927677) scale(0.16 -0.16)">
     <defs>
      <path id="DejaVuSans-30" d="M 2034 4250 
Q 1547 4250 1301 3770 
Q 1056 3291 1056 2328 
Q 1056 1369 1301 889 
Q 1547 409 2034 409 
Q 2525 409 2770 889 
Q 3016 1369 3016 2328 
Q 3016 3291 2770 3770 
Q 2525 4250 2034 4250 
z
M 2034 4750 
Q 2819 4750 3233 4129 
Q 3647 3509 3647 2328 
Q 3647 1150 3233 529 
Q 2819 -91 2034 -91 
Q 1250 -91 836 529 
Q 422 1150 422 2328 
Q 422 3509 836 4129 
Q 1250 4750 2034 4750 
z
" transform="scale(0.015625)"/>
     </defs>
     <use xlink:href="#DejaVuSans-32"/>
     <use xlink:href="#DejaVuSans-30" x="63.623047"/>
     <use xlink:href="#DejaVuSans-20" x="127.246094"/>
     <use xlink:href="#DejaVuSans-6d" x="159.033203"/>
     <use xlink:href="#DejaVuSans-73" x="256.445312"/>
    </g>
   </g>
   <g id="text_9">
    <!-- Excitatory Gating Variables -->
    <g transform="translate(230.025469 58.474481) scale(0.24 -0.24)">
     <defs>
      <path id="DejaVuSans-45" d="M 628 4666 
L 3578 4666 
L 3578 4134 
L 1259 4134 
L 1259 2753 
L 3481 2753 
L 3481 2222 
L 1259 2222 
L 1259 531 
L 3634 531 
L 3634 0 
L 628 0 
L 628 4666 
z
" transform="scale(0.015625)"/>
      <path id="DejaVuSans-78" d="M 3513 3500 
L 2247 1797 
L 3578 0 
L 2900 0 
L 1881 1375 
L 863 0 
L 184 0 
L 1544 1831 
L 300 3500 
L 978 3500 
L 1906 2253 
L 2834 3500 
L 3513 3500 
z
" transform="scale(0.015625)"/>
      <path id="DejaVuSans-63" d="M 3122 3366 
L 3122 2828 
Q 2878 2963 2633 3030 
Q 2388 3097 2138 3097 
Q 1578 3097 1268 2742 
Q 959 2388 959 1747 
Q 959 1106 1268 751 
Q 1578 397 2138 397 
Q 2388 397 2633 464 
Q 2878 531 3122 666 
L 3122 134 
Q 2881 22 2623 -34 
Q 2366 -91 2075 -91 
Q 1284 -91 818 406 
Q 353 903 353 1747 
Q 353 2603 823 3093 
Q 1294 3584 2113 3584 
Q 2378 3584 2631 3529 
Q 2884 3475 3122 3366 
z
" transform="scale(0.015625)"/>
      <path id="DejaVuSans-74" d="M 1172 4494 
L 1172 3500 
L 2356 3500 
L 2356 3053 
L 1172 3053 
L 1172 1153 
Q 1172 725 1289 603 
Q 1406 481 1766 481 
L 2356 481 
L 2356 0 
L 1766 0 
Q 1100 0 847 248 
Q 594 497 594 1153 
L 594 3053 
L 172 3053 
L 172 3500 
L 594 3500 
L 594 4494 
L 1172 4494 
z
" transform="scale(0.015625)"/>
      <path id="DejaVuSans-61" d="M 2194 1759 
Q 1497 1759 1228 1600 
Q 959 1441 959 1056 
Q 959 750 1161 570 
Q 1363 391 1709 391 
Q 2188 391 2477 730 
Q 2766 1069 2766 1631 
L 2766 1759 
L 2194 1759 
z
M 3341 1997 
L 3341 0 
L 2766 0 
L 2766 531 
Q 2569 213 2275 61 
Q 1981 -91 1556 -91 
Q 1019 -91 701 211 
Q 384 513 384 1019 
Q 384 1609 779 1909 
Q 1175 2209 1959 2209 
L 2766 2209 
L 2766 2266 
Q 2766 2663 2505 2880 
Q 2244 3097 1772 3097 
Q 1472 3097 1187 3025 
Q 903 2953 641 2809 
L 641 3341 
Q 956 3463 1253 3523 
Q 1550 3584 1831 3584 
Q 2591 3584 2966 3190 
Q 3341 2797 3341 1997 
z
" transform="scale(0.015625)"/>
      <path id="DejaVuSans-79" d="M 2059 -325 
Q 1816 -950 1584 -1140 
Q 1353 -1331 966 -1331 
L 506 -1331 
L 506 -850 
L 844 -850 
Q 1081 -850 1212 -737 
Q 1344 -625 1503 -206 
L 1606 56 
L 191 3500 
L 800 3500 
L 1894 763 
L 2988 3500 
L 3597 3500 
L 2059 -325 
z
" transform="scale(0.015625)"/>
      <path id="DejaVuSans-47" d="M 3809 666 
L 3809 1919 
L 2778 1919 
L 2778 2438 
L 4434 2438 
L 4434 434 
Q 4069 175 3628 42 
Q 3188 -91 2688 -91 
Q 1594 -91 976 548 
Q 359 1188 359 2328 
Q 359 3472 976 4111 
Q 1594 4750 2688 4750 
Q 3144 4750 3555 4637 
Q 3966 4525 4313 4306 
L 4313 3634 
Q 3963 3931 3569 4081 
Q 3175 4231 2741 4231 
Q 1884 4231 1454 3753 
Q 1025 3275 1025 2328 
Q 1025 1384 1454 906 
Q 1884 428 2741 428 
Q 3075 428 3337 486 
Q 3600 544 3809 666 
z
" transform="scale(0.015625)"/>
      <path id="DejaVuSans-67" d="M 2906 1791 
Q 2906 2416 2648 2759 
Q 2391 3103 1925 3103 
Q 1463 3103 1205 2759 
Q 947 2416 947 1791 
Q 947 1169 1205 825 
Q 1463 481 1925 481 
Q 2391 481 2648 825 
Q 2906 1169 2906 1791 
z
M 3481 434 
Q 3481 -459 3084 -895 
Q 2688 -1331 1869 -1331 
Q 1566 -1331 1297 -1286 
Q 1028 -1241 775 -1147 
L 775 -588 
Q 1028 -725 1275 -790 
Q 1522 -856 1778 -856 
Q 2344 -856 2625 -561 
Q 2906 -266 2906 331 
L 2906 616 
Q 2728 306 2450 153 
Q 2172 0 1784 0 
Q 1141 0 747 490 
Q 353 981 353 1791 
Q 353 2603 747 3093 
Q 1141 3584 1784 3584 
Q 2172 3584 2450 3431 
Q 2728 3278 2906 2969 
L 2906 3500 
L 3481 3500 
L 3481 434 
z
" transform="scale(0.015625)"/>
      <path id="DejaVuSans-56" d="M 1831 0 
L 50 4666 
L 709 4666 
L 2188 738 
L 3669 4666 
L 4325 4666 
L 2547 0 
L 1831 0 
z
" transform="scale(0.015625)"/>
      <path id="DejaVuSans-62" d="M 3116 1747 
Q 3116 2381 2855 2742 
Q 2594 3103 2138 3103 
Q 1681 3103 1420 2742 
Q 1159 2381 1159 1747 
Q 1159 1113 1420 752 
Q 1681 391 2138 391 
Q 2594 391 2855 752 
Q 3116 1113 3116 1747 
z
M 1159 2969 
Q 1341 3281 1617 3432 
Q 1894 3584 2278 3584 
Q 2916 3584 3314 3078 
Q 3713 2572 3713 1747 
Q 3713 922 3314 415 
Q 2916 -91 2278 -91 
Q 1894 -91 1617 61 
Q 1341 213 1159 525 
L 1159 0 
L 581 0 
L 581 4863 
L 1159 4863 
L 1159 2969 
z
" transform="scale(0.015625)"/>
      <path id="DejaVuSans-6c" d="M 603 4863 
L 1178 4863 
L 1178 0 
L 603 0 
L 603 4863 
z
" transform="scale(0.015625)"/>
     </defs>
     <use xlink:href="#DejaVuSans-45"/>
     <use xlink:href="#DejaVuSans-78" x="63.183594"/>
     <use xlink:href="#DejaVuSans-63" x="120.613281"/>
     <use xlink:href="#DejaVuSans-69" x="175.59375"/>
     <use xlink:href="#DejaVuSans-74" x="203.376953"/>
     <use xlink:href="#DejaVuSans-61" x="242.585938"/>
     <use xlink:href="#DejaVuSans-74" x="303.865234"/>
     <use xlink:href="#DejaVuSans-6f" x="343.074219"/>
     <use xlink:href="#DejaVuSans-72" x="404.255859"/>
     <use xlink:href="#DejaVuSans-79" x="445.369141"/>
     <use xlink:href="#DejaVuSans-20" x="504.548828"/>
     <use xlink:href="#DejaVuSans-47" x="536.335938"/>
     <use xlink:href="#DejaVuSans-61" x="613.826172"/>
     <use xlink:href="#DejaVuSans-74" x="675.105469"/>
     <use xlink:href="#DejaVuSans-69" x="714.314453"/>
     <use xlink:href="#DejaVuSans-6e" x="742.097656"/>
     <use xlink:href="#DejaVuSans-67" x="805.476562"/>
     <use xlink:href="#DejaVuSans-20" x="868.953125"/>
     <use xlink:href="#DejaVuSans-56" x="900.740234"/>
     <use xlink:href="#DejaVuSans-61" x="961.398438"/>
     <use xlink:href="#DejaVuSans-72" x="1022.677734"/>
     <use xlink:href="#DejaVuSans-69" x="1063.791016"/>
     <use xlink:href="#DejaVuSans-61" x="1091.574219"/>
     <use xlink:href="#DejaVuSans-62" x="1152.853516"/>
     <use xlink:href="#DejaVuSans-6c" x="1216.330078"/>
     <use xlink:href="#DejaVuSans-65" x="1244.113281"/>
     <use xlink:href="#DejaVuSans-73" x="1305.636719"/>
    </g>
   </g>
   <g id="text_10">
    <!-- G -->
    <g transform="translate(7.2 29.995312) scale(0.3 -0.3)">
     <use xlink:href="#DejaVuSans-47"/>
    </g>
   </g>
  </g>
 </g>
 <defs>
  <clipPath id="p2943209de4">
   <rect x="71.492266" y="92.95365" width="642.922656" height="284.791687"/>
  </clipPath>
 </defs>
</svg>
