<?xml version="1.0" encoding="utf-8" standalone="no"?>
<!DOCTYPE svg PUBLIC "-//W3C//DTD SVG 1.1//EN"
  "http://www.w3.org/Graphics/SVG/1.1/DTD/svg11.dtd">
<svg xmlns:xlink="http://www.w3.org/1999/xlink" width="718.320078pt" height="404.430337pt" viewBox="0 0 718.320078 404.430337" xmlns="http://www.w3.org/2000/svg" version="1.1">
 <metadata>
  <rdf:RDF xmlns:dc="http://purl.org/dc/elements/1.1/" xmlns:cc="http://creativecommons.org/ns#" xmlns:rdf="http://www.w3.org/1999/02/22-rdf-syntax-ns#">
   <cc:Work>
    <dc:type rdf:resource="http://purl.org/dc/dcmitype/StillImage"/>
    <dc:date>2025-10-21T12:50:07.506764</dc:date>
    <dc:format>image/svg+xml</dc:format>
    <dc:creator>
     <cc:Agent>
      <dc:title>Matplotlib v3.8.2, https://matplotlib.org/</dc:title>
     </cc:Agent>
    </dc:creator>
   </cc:Work>
  </rdf:RDF>
 </metadata>
 <defs>
  <style type="text/css">*{stroke-linejoin: round; stroke-linecap: butt}</style>
 </defs>
 <g id="figure_1">
  <g id="patch_1">
   <path d="M 0 404.430337 
L 718.320078 404.430337 
L 718.320078 0 
L 0 0 
z
" style="fill: #ffffff"/>
  </g>
  <g id="axes_1">
   <g id="patch_2">
    <path d="M 71.192734 377.745337 
L 711.120078 377.745337 
L 711.120078 92.95365 
L 71.192734 92.95365 
z
" style="fill: #ffffff"/>
   </g>
   <g id="matplotlib.axis_1">
    <g id="text_1">
     <!-- Time (ms) -->
     <g transform="translate(350.837656 393.902837) scale(0.16 -0.16)">
      <defs>
       <path id="DejaVuSans-54" d="M -19 4666 
L 3928 4666 
L 3928 4134 
L 2272 4134 
L 2272 0 
L 1638 0 
L 1638 4134 
L -19 4134 
L -19 4666 
z
" transform="scale(0.015625)"/>
       <path id="DejaVuSans-69" d="M 603 3500 
L 1178 3500 
L 1178 0 
L 603 0 
L 603 3500 
z
M 603 4863 
L 1178 4863 
L 1178 4134 
L 603 4134 
L 603 4863 
z
" transform="scale(0.015625)"/>
       <path id="DejaVuSans-6d" d="M 3328 2828 
Q 3544 3216 3844 3400 
Q 4144 3584 4550 3584 
Q 5097 3584 5394 3201 
Q 5691 2819 5691 2113 
L 5691 0 
L 5113 0 
L 5113 2094 
Q 5113 2597 4934 2840 
Q 4756 3084 4391 3084 
Q 3944 3084 3684 2787 
Q 3425 2491 3425 1978 
L 3425 0 
L 2847 0 
L 2847 2094 
Q 2847 2600 2669 2842 
Q 2491 3084 2119 3084 
Q 1678 3084 1418 2786 
Q 1159 2488 1159 1978 
L 1159 0 
L 581 0 
L 581 3500 
L 1159 3500 
L 1159 2956 
Q 1356 3278 1631 3431 
Q 1906 3584 2284 3584 
Q 2666 3584 2933 3390 
Q 3200 3197 3328 2828 
z
" transform="scale(0.015625)"/>
       <path id="DejaVuSans-65" d="M 3597 1894 
L 3597 1613 
L 953 1613 
Q 991 1019 1311 708 
Q 1631 397 2203 397 
Q 2534 397 2845 478 
Q 3156 559 3463 722 
L 3463 178 
Q 3153 47 2828 -22 
Q 2503 -91 2169 -91 
Q 1331 -91 842 396 
Q 353 884 353 1716 
Q 353 2575 817 3079 
Q 1281 3584 2069 3584 
Q 2775 3584 3186 3129 
Q 3597 2675 3597 1894 
z
M 3022 2063 
Q 3016 2534 2758 2815 
Q 2500 3097 2075 3097 
Q 1594 3097 1305 2825 
Q 1016 2553 972 2059 
L 3022 2063 
z
" transform="scale(0.015625)"/>
       <path id="DejaVuSans-20" transform="scale(0.015625)"/>
       <path id="DejaVuSans-28" d="M 1984 4856 
Q 1566 4138 1362 3434 
Q 1159 2731 1159 2009 
Q 1159 1288 1364 580 
Q 1569 -128 1984 -844 
L 1484 -844 
Q 1016 -109 783 600 
Q 550 1309 550 2009 
Q 550 2706 781 3412 
Q 1013 4119 1484 4856 
L 1984 4856 
z
" transform="scale(0.015625)"/>
       <path id="DejaVuSans-73" d="M 2834 3397 
L 2834 2853 
Q 2591 2978 2328 3040 
Q 2066 3103 1784 3103 
Q 1356 3103 1142 2972 
Q 928 2841 928 2578 
Q 928 2378 1081 2264 
Q 1234 2150 1697 2047 
L 1894 2003 
Q 2506 1872 2764 1633 
Q 3022 1394 3022 966 
Q 3022 478 2636 193 
Q 2250 -91 1575 -91 
Q 1294 -91 989 -36 
Q 684 19 347 128 
L 347 722 
Q 666 556 975 473 
Q 1284 391 1588 391 
Q 1994 391 2212 530 
Q 2431 669 2431 922 
Q 2431 1156 2273 1281 
Q 2116 1406 1581 1522 
L 1381 1569 
Q 847 1681 609 1914 
Q 372 2147 372 2553 
Q 372 3047 722 3315 
Q 1072 3584 1716 3584 
Q 2034 3584 2315 3537 
Q 2597 3491 2834 3397 
z
" transform="scale(0.015625)"/>
       <path id="DejaVuSans-29" d="M 513 4856 
L 1013 4856 
Q 1481 4119 1714 3412 
Q 1947 2706 1947 2009 
Q 1947 1309 1714 600 
Q 1481 -109 1013 -844 
L 513 -844 
Q 928 -128 1133 580 
Q 1338 1288 1338 2009 
Q 1338 2731 1133 3434 
Q 928 4138 513 4856 
z
" transform="scale(0.015625)"/>
      </defs>
      <use xlink:href="#DejaVuSans-54"/>
      <use xlink:href="#DejaVuSans-69" x="57.958984"/>
      <use xlink:href="#DejaVuSans-6d" x="85.742188"/>
      <use xlink:href="#DejaVuSans-65" x="183.154297"/>
      <use xlink:href="#DejaVuSans-20" x="244.677734"/>
      <use xlink:href="#DejaVuSans-28" x="276.464844"/>
      <use xlink:href="#DejaVuSans-6d" x="315.478516"/>
      <use xlink:href="#DejaVuSans-73" x="412.890625"/>
      <use xlink:href="#DejaVuSans-29" x="464.990234"/>
     </g>
    </g>
   </g>
   <g id="matplotlib.axis_2">
    <g id="ytick_1">
     <g id="line2d_1">
      <path d="M 71.192734 347.411352 
L 711.120078 347.411352 
" clip-path="url(#p0de6d8307a)" style="fill: none; stroke: #b0b0b0; stroke-opacity: 0.3; stroke-width: 0.8; stroke-linecap: square"/>
     </g>
     <g id="line2d_2">
      <defs>
       <path id="m4b4be8a9ca" d="M 0 0 
L -5 0 
" style="stroke: #000000; stroke-width: 0.8"/>
      </defs>
      <g>
       <use xlink:href="#m4b4be8a9ca" x="71.192734" y="347.411352" style="stroke: #000000; stroke-width: 0.8"/>
      </g>
     </g>
     <g id="text_2">
      <!-- 1 -->
      <g transform="translate(52.512734 353.490102) scale(0.16 -0.16)">
       <defs>
        <path id="DejaVuSans-31" d="M 794 531 
L 1825 531 
L 1825 4091 
L 703 3866 
L 703 4441 
L 1819 4666 
L 2450 4666 
L 2450 531 
L 3481 531 
L 3481 0 
L 794 0 
L 794 531 
z
" transform="scale(0.015625)"/>
       </defs>
       <use xlink:href="#DejaVuSans-31"/>
      </g>
     </g>
    </g>
    <g id="ytick_2">
     <g id="line2d_3">
      <path d="M 71.192734 292.52466 
L 711.120078 292.52466 
" clip-path="url(#p0de6d8307a)" style="fill: none; stroke: #b0b0b0; stroke-opacity: 0.3; stroke-width: 0.8; stroke-linecap: square"/>
     </g>
     <g id="line2d_4">
      <g>
       <use xlink:href="#m4b4be8a9ca" x="71.192734" y="292.52466" style="stroke: #000000; stroke-width: 0.8"/>
      </g>
     </g>
     <g id="text_3">
      <!-- 2 -->
      <g transform="translate(52.512734 298.60341) scale(0.16 -0.16)">
       <defs>
        <path id="DejaVuSans-32" d="M 1228 531 
L 3431 531 
L 3431 0 
L 469 0 
L 469 531 
Q 828 903 1448 1529 
Q 2069 2156 2228 2338 
Q 2531 2678 2651 2914 
Q 2772 3150 2772 3378 
Q 2772 3750 2511 3984 
Q 2250 4219 1831 4219 
Q 1534 4219 1204 4116 
Q 875 4013 500 3803 
L 500 4441 
Q 881 4594 1212 4672 
Q 1544 4750 1819 4750 
Q 2544 4750 2975 4387 
Q 3406 4025 3406 3419 
Q 3406 3131 3298 2873 
Q 3191 2616 2906 2266 
Q 2828 2175 2409 1742 
Q 1991 1309 1228 531 
z
" transform="scale(0.015625)"/>
       </defs>
       <use xlink:href="#DejaVuSans-32"/>
      </g>
     </g>
    </g>
    <g id="ytick_3">
     <g id="line2d_5">
      <path d="M 71.192734 237.637968 
L 711.120078 237.637968 
" clip-path="url(#p0de6d8307a)" style="fill: none; stroke: #b0b0b0; stroke-opacity: 0.3; stroke-width: 0.8; stroke-linecap: square"/>
     </g>
     <g id="line2d_6">
      <g>
       <use xlink:href="#m4b4be8a9ca" x="71.192734" y="237.637968" style="stroke: #000000; stroke-width: 0.8"/>
      </g>
     </g>
     <g id="text_4">
      <!-- 3 -->
      <g transform="translate(52.512734 243.716718) scale(0.16 -0.16)">
       <defs>
        <path id="DejaVuSans-33" d="M 2597 2516 
Q 3050 2419 3304 2112 
Q 3559 1806 3559 1356 
Q 3559 666 3084 287 
Q 2609 -91 1734 -91 
Q 1441 -91 1130 -33 
Q 819 25 488 141 
L 488 750 
Q 750 597 1062 519 
Q 1375 441 1716 441 
Q 2309 441 2620 675 
Q 2931 909 2931 1356 
Q 2931 1769 2642 2001 
Q 2353 2234 1838 2234 
L 1294 2234 
L 1294 2753 
L 1863 2753 
Q 2328 2753 2575 2939 
Q 2822 3125 2822 3475 
Q 2822 3834 2567 4026 
Q 2313 4219 1838 4219 
Q 1578 4219 1281 4162 
Q 984 4106 628 3988 
L 628 4550 
Q 988 4650 1302 4700 
Q 1616 4750 1894 4750 
Q 2613 4750 3031 4423 
Q 3450 4097 3450 3541 
Q 3450 3153 3228 2886 
Q 3006 2619 2597 2516 
z
" transform="scale(0.015625)"/>
       </defs>
       <use xlink:href="#DejaVuSans-33"/>
      </g>
     </g>
    </g>
    <g id="ytick_4">
     <g id="line2d_7">
      <path d="M 71.192734 182.751276 
L 711.120078 182.751276 
" clip-path="url(#p0de6d8307a)" style="fill: none; stroke: #b0b0b0; stroke-opacity: 0.3; stroke-width: 0.8; stroke-linecap: square"/>
     </g>
     <g id="line2d_8">
      <g>
       <use xlink:href="#m4b4be8a9ca" x="71.192734" y="182.751276" style="stroke: #000000; stroke-width: 0.8"/>
      </g>
     </g>
     <g id="text_5">
      <!-- 4 -->
      <g transform="translate(52.512734 188.830026) scale(0.16 -0.16)">
       <defs>
        <path id="DejaVuSans-34" d="M 2419 4116 
L 825 1625 
L 2419 1625 
L 2419 4116 
z
M 2253 4666 
L 3047 4666 
L 3047 1625 
L 3713 1625 
L 3713 1100 
L 3047 1100 
L 3047 0 
L 2419 0 
L 2419 1100 
L 313 1100 
L 313 1709 
L 2253 4666 
z
" transform="scale(0.015625)"/>
       </defs>
       <use xlink:href="#DejaVuSans-34"/>
      </g>
     </g>
    </g>
    <g id="ytick_5">
     <g id="line2d_9">
      <path d="M 71.192734 127.864584 
L 711.120078 127.864584 
" clip-path="url(#p0de6d8307a)" style="fill: none; stroke: #b0b0b0; stroke-opacity: 0.3; stroke-width: 0.8; stroke-linecap: square"/>
     </g>
     <g id="line2d_10">
      <g>
       <use xlink:href="#m4b4be8a9ca" x="71.192734" y="127.864584" style="stroke: #000000; stroke-width: 0.8"/>
      </g>
     </g>
     <g id="text_6">
      <!-- 5 -->
      <g transform="translate(52.512734 133.943334) scale(0.16 -0.16)">
       <defs>
        <path id="DejaVuSans-35" d="M 691 4666 
L 3169 4666 
L 3169 4134 
L 1269 4134 
L 1269 2991 
Q 1406 3038 1543 3061 
Q 1681 3084 1819 3084 
Q 2600 3084 3056 2656 
Q 3513 2228 3513 1497 
Q 3513 744 3044 326 
Q 2575 -91 1722 -91 
Q 1428 -91 1123 -41 
Q 819 9 494 109 
L 494 744 
Q 775 591 1075 516 
Q 1375 441 1709 441 
Q 2250 441 2565 725 
Q 2881 1009 2881 1497 
Q 2881 1984 2565 2268 
Q 2250 2553 1709 2553 
Q 1456 2553 1204 2497 
Q 953 2441 691 2322 
L 691 4666 
z
" transform="scale(0.015625)"/>
       </defs>
       <use xlink:href="#DejaVuSans-35"/>
      </g>
     </g>
    </g>
    <g id="text_7">
     <!-- Neurons -->
     <g transform="translate(45.185234 268.568244) rotate(-90) scale(0.16 -0.16)">
      <defs>
       <path id="DejaVuSans-4e" d="M 628 4666 
L 1478 4666 
L 3547 763 
L 3547 4666 
L 4159 4666 
L 4159 0 
L 3309 0 
L 1241 3903 
L 1241 0 
L 628 0 
L 628 4666 
z
" transform="scale(0.015625)"/>
       <path id="DejaVuSans-75" d="M 544 1381 
L 544 3500 
L 1119 3500 
L 1119 1403 
Q 1119 906 1312 657 
Q 1506 409 1894 409 
Q 2359 409 2629 706 
Q 2900 1003 2900 1516 
L 2900 3500 
L 3475 3500 
L 3475 0 
L 2900 0 
L 2900 538 
Q 2691 219 2414 64 
Q 2138 -91 1772 -91 
Q 1169 -91 856 284 
Q 544 659 544 1381 
z
M 1991 3584 
L 1991 3584 
z
" transform="scale(0.015625)"/>
       <path id="DejaVuSans-72" d="M 2631 2963 
Q 2534 3019 2420 3045 
Q 2306 3072 2169 3072 
Q 1681 3072 1420 2755 
Q 1159 2438 1159 1844 
L 1159 0 
L 581 0 
L 581 3500 
L 1159 3500 
L 1159 2956 
Q 1341 3275 1631 3429 
Q 1922 3584 2338 3584 
Q 2397 3584 2469 3576 
Q 2541 3569 2628 3553 
L 2631 2963 
z
" transform="scale(0.015625)"/>
       <path id="DejaVuSans-6f" d="M 1959 3097 
Q 1497 3097 1228 2736 
Q 959 2375 959 1747 
Q 959 1119 1226 758 
Q 1494 397 1959 397 
Q 2419 397 2687 759 
Q 2956 1122 2956 1747 
Q 2956 2369 2687 2733 
Q 2419 3097 1959 3097 
z
M 1959 3584 
Q 2709 3584 3137 3096 
Q 3566 2609 3566 1747 
Q 3566 888 3137 398 
Q 2709 -91 1959 -91 
Q 1206 -91 779 398 
Q 353 888 353 1747 
Q 353 2609 779 3096 
Q 1206 3584 1959 3584 
z
" transform="scale(0.015625)"/>
       <path id="DejaVuSans-6e" d="M 3513 2113 
L 3513 0 
L 2938 0 
L 2938 2094 
Q 2938 2591 2744 2837 
Q 2550 3084 2163 3084 
Q 1697 3084 1428 2787 
Q 1159 2491 1159 1978 
L 1159 0 
L 581 0 
L 581 3500 
L 1159 3500 
L 1159 2956 
Q 1366 3272 1645 3428 
Q 1925 3584 2291 3584 
Q 2894 3584 3203 3211 
Q 3513 2838 3513 2113 
z
" transform="scale(0.015625)"/>
      </defs>
      <use xlink:href="#DejaVuSans-4e"/>
      <use xlink:href="#DejaVuSans-65" x="74.804688"/>
      <use xlink:href="#DejaVuSans-75" x="136.328125"/>
      <use xlink:href="#DejaVuSans-72" x="199.707031"/>
      <use xlink:href="#DejaVuSans-6f" x="238.570312"/>
      <use xlink:href="#DejaVuSans-6e" x="299.751953"/>
      <use xlink:href="#DejaVuSans-73" x="363.130859"/>
     </g>
    </g>
   </g>
   <g id="line2d_11">
    <path d="M 100.280341 345.318467 
L 100.809741 346.955527 
L 101.135525 347.294167 
L 101.566026 347.394248 
L 103.416016 347.403625 
L 216.99262 347.386946 
L 218.522644 347.39962 
L 230.675567 347.401315 
L 245.993254 347.376792 
L 246.644823 347.156901 
L 247.441832 346.908116 
L 248.291198 347.090843 
L 249.123112 347.110616 
L 251.165082 347.079105 
L 252.340233 347.124938 
L 254.923239 347.07355 
L 260.572108 347.038329 
L 266.058086 347.093925 
L 267.599744 347.002702 
L 269.8686 347.098393 
L 273.812919 347.040926 
L 278.275003 347.220734 
L 304.105056 347.140949 
L 304.378482 346.868616 
L 304.593732 346.310688 
L 304.727537 345.274269 
L 304.855523 341.943881 
L 305.326747 328.180064 
L 305.402376 327.931051 
L 305.454734 328.041006 
L 305.576903 329.06602 
L 305.815424 333.419754 
L 306.339006 342.695292 
L 306.670608 344.917604 
L 306.996393 345.786044 
L 307.293089 346.030071 
L 307.543245 345.977282 
L 307.735225 345.693473 
L 307.874847 345.036641 
L 307.991199 343.131442 
L 308.293713 331.614958 
L 308.549686 326.933033 
L 308.607862 326.789041 
L 308.66022 326.906285 
L 308.776572 327.911592 
L 309.003458 332.260255 
L 309.55031 342.78957 
L 309.876095 345.022357 
L 310.196061 345.884372 
L 310.492758 346.139261 
L 310.719644 346.078038 
L 310.899988 345.779481 
L 311.033793 345.059077 
L 311.150144 342.769248 
L 311.743538 326.297799 
L 311.76099 326.314183 
L 311.836619 326.685596 
L 311.993693 328.829353 
L 312.936141 344.680053 
L 313.261926 345.781863 
L 313.56444 346.140118 
L 313.797143 346.129793 
L 313.97167 345.894173 
L 314.111292 345.266078 
L 314.221826 343.451991 
L 314.471982 333.193248 
L 314.751226 326.577283 
L 314.832672 326.270587 
L 314.88503 326.40231 
L 315.0072 327.579312 
L 315.24572 332.580365 
L 315.740215 342.451971 
L 316.071817 344.959191 
L 316.403419 345.978212 
L 316.717568 346.32751 
L 316.985177 346.33686 
L 317.182974 346.123813 
L 317.328414 345.596166 
L 317.438948 344.09734 
L 317.619293 336.777806 
L 317.945077 326.706521 
L 318.049794 326.126883 
L 318.096334 326.240672 
L 318.206868 327.305991 
L 318.433754 332.192352 
L 318.934066 342.510773 
L 319.25985 344.994523 
L 319.585635 345.986502 
L 319.882331 346.291347 
L 320.115034 346.26117 
L 320.295379 346.000438 
L 320.429184 345.354637 
L 320.539718 343.363261 
L 321.121476 326.408284 
L 321.185469 326.598267 
L 321.313456 328.074735 
L 321.5927 334.644185 
L 321.99993 342.40015 
L 322.331532 344.918683 
L 322.651499 345.877135 
L 322.924925 346.126999 
L 323.122723 346.053927 
L 323.279798 345.736801 
L 323.401967 344.911663 
L 323.518318 342.117761 
L 324.047718 326.566939 
L 324.082624 326.521812 
L 324.129164 326.642524 
L 324.245516 327.765552 
L 324.478219 332.758132 
L 324.966896 342.66931 
L 325.29268 345.108175 
L 325.612647 346.043458 
L 325.897708 346.306291 
L 326.112959 346.242758 
L 326.287486 345.933143 
L 326.421291 345.155874 
L 326.537642 342.68604 
L 327.113583 326.65012 
L 327.165941 326.774176 
L 327.282292 327.894213 
L 327.514995 332.812144 
L 328.00949 342.681657 
L 328.335274 345.106664 
L 328.655241 346.047718 
L 328.940302 346.314515 
L 329.149735 346.251879 
L 329.324263 345.935074 
L 329.458067 345.155992 
L 329.574419 342.742212 
L 330.144541 327.094979 
L 330.150359 327.096163 
L 330.208535 327.278478 
L 330.336522 328.655937 
L 330.609948 334.663566 
L 331.040449 342.669107 
L 331.366233 345.060333 
L 331.692018 346.005745 
L 331.982897 346.277619 
L 332.186512 346.215867 
L 332.349404 345.916158 
L 332.483208 345.121837 
L 332.59956 342.66242 
L 333.053331 328.25455 
L 333.117325 328.723094 
L 333.268582 332.465247 
L 333.768893 345.478993 
L 334.024867 346.937128 
L 334.28084 347.299833 
L 334.64153 347.392377 
L 336.410075 347.404403 
L 354.968153 347.397677 
L 391.857425 347.204154 
L 392.311196 346.788059 
L 392.82896 346.012543 
L 393.026758 345.304596 
L 393.154745 343.853554 
L 393.323455 338.255046 
L 393.69578 327.509747 
L 393.817949 326.874382 
L 393.858672 326.950097 
L 393.969206 327.783381 
L 394.178639 331.492381 
L 394.818573 343.752655 
L 395.138539 345.684444 
L 395.464324 346.464592 
L 395.813379 346.770667 
L 396.214792 346.830719 
L 396.616205 346.677737 
L 396.877996 346.34937 
L 397.040888 345.753577 
L 397.151422 344.331652 
L 397.320132 337.768842 
L 397.663369 326.789617 
L 397.768085 326.174162 
L 397.814626 326.287016 
L 397.92516 327.402958 
L 398.146228 332.44834 
L 398.629087 342.955494 
L 398.949054 345.441986 
L 399.269021 346.402342 
L 399.600623 346.765682 
L 399.94386 346.829986 
L 400.269645 346.667923 
L 400.508165 346.304263 
L 400.66524 345.62415 
L 400.781592 343.846481 
L 401.008477 334.772958 
L 401.299356 327.517507 
L 401.380802 327.201401 
L 401.43316 327.342893 
L 401.55533 328.590814 
L 401.799668 333.974169 
L 402.259257 343.149782 
L 402.579224 345.50508 
L 402.89919 346.404861 
L 403.219157 346.713534 
L 403.556577 346.739987 
L 403.905632 346.54672 
L 404.167423 346.145562 
L 404.330315 345.473864 
L 404.446667 343.8744 
L 404.638647 336.627834 
L 404.964431 327.461747 
L 405.069148 326.916034 
L 405.115688 327.011916 
L 405.226222 327.974306 
L 405.441473 332.287709 
L 405.988325 343.35024 
L 406.308292 345.518428 
L 406.628259 346.350672 
L 406.948226 346.635437 
L 407.285645 346.647888 
L 407.669606 346.431125 
L 407.937214 346.035463 
L 408.094289 345.378094 
L 408.210641 343.667216 
L 408.414256 335.508091 
L 408.722587 326.819911 
L 408.821486 326.306442 
L 408.868027 326.410672 
L 408.978561 327.445121 
L 409.193811 332.041902 
L 409.711576 343.029712 
L 410.031543 345.383184 
L 410.35151 346.294893 
L 410.671477 346.617535 
L 411.032167 346.669768 
L 411.404492 346.505453 
L 411.666283 346.15185 
L 411.823357 345.534773 
L 411.933891 344.040985 
L 412.114236 337.067341 
L 412.440021 327.345543 
L 412.53892 326.840345 
L 412.58546 326.968549 
L 412.701812 328.17977 
L 412.940333 333.600871 
L 413.394104 342.928976 
L 413.714071 345.368816 
L 414.034038 346.314535 
L 414.359822 346.661301 
L 414.691424 346.708751 
L 415.011391 346.52906 
L 415.279 346.110897 
L 415.441892 345.399143 
L 415.558243 343.639408 
L 415.785129 334.849485 
L 416.076008 327.671935 
L 416.163272 327.299088 
L 416.21563 327.42156 
L 416.331981 328.514719 
L 416.564685 333.348082 
L 417.059179 343.132273 
L 417.379146 345.450361 
L 417.699113 346.364 
L 418.024897 346.696601 
L 418.385587 346.757032 
L 418.769547 346.598063 
L 419.072061 346.240789 
L 419.258224 345.667609 
L 419.380393 344.469251 
L 419.525833 339.903445 
L 419.927246 327.553408 
L 420.031962 327.02686 
L 420.078503 327.12842 
L 420.189037 328.096458 
L 420.381017 332.097648 
L 420.927869 344.42413 
L 421.224566 346.3284 
L 421.52708 346.99718 
L 421.870317 347.24476 
L 422.434622 347.337063 
L 424.115903 347.30934 
L 426.338218 347.33294 
L 431.195897 347.331135 
L 450.05649 347.178833 
L 450.783687 346.79824 
L 451.365445 346.262518 
L 451.598148 345.725154 
L 451.73777 344.725226 
L 451.865757 341.517244 
L 452.366069 326.787491 
L 452.418427 326.66884 
L 452.470785 326.810005 
L 452.592954 328.051226 
L 452.825658 333.229365 
L 453.308517 343.352164 
L 453.622666 345.657879 
L 453.936815 346.515588 
L 454.2626 346.823397 
L 454.652378 346.885268 
L 455.234135 346.715255 
L 455.763535 346.363385 
L 456.007874 345.933222 
L 456.153313 345.151981 
L 456.269665 342.8744 
L 456.845605 326.413708 
L 456.88051 326.487899 
L 456.979409 327.339131 
L 457.177207 331.424236 
L 457.741512 343.53383 
L 458.055662 345.648215 
L 458.375628 346.468911 
L 458.713048 346.776111 
L 459.137731 346.847914 
L 459.754395 346.711394 
L 460.272159 346.3901 
L 460.53395 345.973383 
L 460.685207 345.278516 
L 460.801559 343.376229 
L 461.069168 332.623019 
L 461.330959 327.004515 
L 461.389135 326.822941 
L 461.441493 326.952525 
L 461.557844 328.136645 
L 461.790548 333.405261 
L 462.255954 343.180639 
L 462.570103 345.588994 
L 462.89007 346.536088 
L 463.22749 346.907115 
L 463.628903 347.020905 
L 464.146667 346.92819 
L 464.606256 346.63647 
L 464.879682 346.196336 
L 465.042574 345.453999 
L 465.158926 343.649877 
L 465.403264 334.215605 
L 465.682508 327.86337 
L 465.758137 327.609174 
L 465.804677 327.726484 
L 465.921029 328.839121 
L 466.147915 333.674113 
L 466.630774 343.42803 
L 466.944923 345.667635 
L 467.259072 346.512409 
L 467.590674 346.823548 
L 467.980452 346.882599 
L 468.56221 346.717604 
L 469.143968 346.334773 
L 469.411577 345.898806 
L 469.568651 345.173978 
L 469.685003 343.307011 
L 469.929341 333.508824 
L 470.214403 326.700743 
L 470.290031 326.427848 
L 470.342389 326.576688 
L 470.464559 327.890046 
L 470.708897 333.607054 
L 471.156851 343.054981 
L 471.471 345.493048 
L 471.790967 346.450878 
L 472.122569 346.811705 
L 472.529799 346.922812 
L 473.233726 346.848019 
L 473.774761 346.605417 
L 474.100546 346.220113 
L 474.286708 345.640501 
L 474.408877 344.412746 
L 474.554317 339.766951 
L 474.949912 327.608036 
L 475.048811 327.134283 
L 475.095352 327.24997 
L 475.211703 328.375569 
L 475.444407 333.402559 
L 475.927266 343.215723 
L 476.247233 345.579376 
L 476.567199 346.496823 
L 476.898801 346.846422 
L 477.300214 346.942755 
L 477.852884 346.837367 
L 478.41719 346.506461 
L 478.597535 346.491543 
L 478.894231 346.802807 
L 479.394543 347.225485 
L 479.92976 347.353937 
L 481.39579 347.381372 
L 537.692507 347.143645 
L 539.333064 346.73669 
L 541.735725 346.546805 
L 542.154591 346.231419 
L 542.393111 345.765466 
L 542.538551 344.928393 
L 542.66072 342.485615 
L 543.219208 327.42949 
L 543.230843 327.435529 
L 543.294836 327.699624 
L 543.434458 329.513044 
L 543.771878 337.897825 
L 544.12675 343.888101 
L 544.440899 345.890221 
L 544.755049 346.64317 
L 545.104103 346.941021 
L 545.552057 347.022128 
L 546.663215 346.901233 
L 549.199679 346.621585 
L 549.810525 346.277652 
L 550.101404 345.87389 
L 550.264296 345.225393 
L 550.380648 343.656139 
L 550.572628 336.446848 
L 550.892595 327.576583 
L 550.979859 327.185874 
L 551.026399 327.312311 
L 551.136933 328.456048 
L 551.369636 333.823313 
L 551.823408 343.399856 
L 552.131739 345.725697 
L 552.445889 346.618955 
L 552.783308 346.968371 
L 553.225444 347.090162 
L 553.906101 347.034507 
L 556.59964 346.566421 
L 557.262844 346.342107 
L 557.617717 346.008983 
L 557.821332 345.496097 
L 557.955136 344.427605 
L 558.088941 340.838839 
L 558.548529 327.40375 
L 558.612523 327.192031 
L 558.664881 327.322289 
L 558.781233 328.507083 
L 559.013936 333.77744 
L 559.473525 343.411568 
L 559.787674 345.761278 
L 560.101823 346.638381 
L 560.439243 346.978179 
L 560.869744 347.086858 
L 561.626029 347.009958 
L 563.37712 346.752772 
L 564.342839 346.785906 
L 565.174753 346.579134 
L 565.622706 346.271194 
L 565.87868 346.145699 
L 566.105565 346.428468 
L 566.693141 347.154277 
L 567.146912 347.323172 
L 568.106813 347.373841 
L 584.134244 347.388909 
L 682.032472 347.395779 
L 682.032472 347.395779 
" clip-path="url(#p0de6d8307a)" style="fill: none; stroke: #1f77b4; stroke-width: 1.5; stroke-linecap: square"/>
   </g>
   <g id="line2d_12">
    <path d="M 100.280341 347.411352 
L 129.310063 347.411352 
L 129.310063 347.411352 
" clip-path="url(#p0de6d8307a)" style="fill: none; stroke-dasharray: 2.96,1.28; stroke-dashoffset: 0; stroke: #808080; stroke-opacity: 0.7; stroke-width: 0.8"/>
   </g>
   <g id="line2d_13">
    <path d="M 100.280341 290.385045 
L 100.582855 291.470399 
L 100.943545 291.992086 
L 101.420586 292.284793 
L 102.101243 292.423714 
L 103.573091 292.44511 
L 109.053251 292.445202 
L 116.517205 292.434916 
L 124.987601 292.412617 
L 129.990719 292.369551 
L 131.229864 292.325386 
L 158.869184 292.434759 
L 159.491665 292.514715 
L 164.215539 292.520551 
L 188.58538 292.522017 
L 220.041032 292.340252 
L 222.903281 292.30967 
L 228.563786 292.331641 
L 295.244882 292.520525 
L 595.408713 292.411518 
L 596.543141 292.083845 
L 597.631028 291.954921 
L 598.480395 291.786897 
L 599.806803 292.030271 
L 601.493901 291.937046 
L 602.354903 292.051784 
L 603.03556 291.913308 
L 604.007096 291.662397 
L 605.362592 292.053066 
L 606.083971 291.942084 
L 607.148588 291.635505 
L 608.195753 292.002319 
L 608.957856 291.909094 
L 610.086466 291.713354 
L 611.47105 292.028753 
L 613.792264 291.899725 
L 614.74053 291.902708 
L 616.01458 291.75744 
L 617.340988 291.986197 
L 619.761101 291.965757 
L 620.976975 292.033961 
L 623.996299 291.927532 
L 624.700226 292.425206 
L 625.398335 292.495609 
L 630.965759 292.509794 
L 653.392528 292.449625 
L 653.997556 292.15447 
L 654.526956 291.993865 
L 656.31877 291.835093 
L 656.912163 291.829453 
L 658.622532 291.986969 
L 661.228807 291.799865 
L 662.037451 291.806029 
L 663.858353 291.876274 
L 664.824071 291.755752 
L 666.569345 292.057856 
L 667.25582 291.932963 
L 667.924841 291.83525 
L 669.862095 291.898795 
L 670.9558 291.772057 
L 672.404378 291.95076 
L 673.602799 291.865806 
L 675.144457 292.024931 
L 677.093347 291.882085 
L 678.012524 291.898756 
L 679.763616 291.89962 
L 680.583894 291.950001 
L 682.032472 291.906477 
L 682.032472 291.906477 
" clip-path="url(#p0de6d8307a)" style="fill: none; stroke: #ff7f0e; stroke-width: 1.5; stroke-linecap: square"/>
   </g>
   <g id="line2d_14">
    <path d="M 100.280341 292.52466 
L 129.310063 292.52466 
L 129.310063 292.52466 
" clip-path="url(#p0de6d8307a)" style="fill: none; stroke-dasharray: 2.96,1.28; stroke-dashoffset: 0; stroke: #808080; stroke-opacity: 0.7; stroke-width: 0.8"/>
   </g>
   <g id="line2d_15">
    <path d="M 100.280341 236.963136 
L 100.577037 237.453848 
L 100.926092 237.604808 
L 101.798729 237.635508 
L 150.491869 237.633937 
L 682.032472 237.63221 
L 682.032472 237.63221 
" clip-path="url(#p0de6d8307a)" style="fill: none; stroke: #2ca02c; stroke-width: 1.5; stroke-linecap: square"/>
   </g>
   <g id="line2d_16">
    <path d="M 100.280341 237.637968 
L 129.310063 237.637968 
L 129.310063 237.637968 
" clip-path="url(#p0de6d8307a)" style="fill: none; stroke-dasharray: 2.96,1.28; stroke-dashoffset: 0; stroke: #808080; stroke-opacity: 0.7; stroke-width: 0.8"/>
   </g>
   <g id="line2d_17">
    <path d="M 100.280341 180.297283 
L 100.617761 181.414724 
L 100.972633 181.895818 
L 101.385681 182.086821 
L 101.955804 182.095353 
L 102.520109 181.903565 
L 102.787718 181.587197 
L 102.944792 181.037271 
L 103.055326 179.704697 
L 103.212401 173.835936 
L 103.578908 161.798302 
L 103.69526 161.108093 
L 103.735983 161.206631 
L 103.846517 162.250476 
L 104.061768 166.907943 
L 104.591167 178.315512 
L 104.911134 180.673532 
L 105.231101 181.587433 
L 105.54525 181.899534 
L 105.841947 181.902858 
L 106.109556 181.681102 
L 106.289901 181.226154 
L 106.41207 180.246614 
L 106.540056 176.717449 
L 107.005463 162.346213 
L 107.069456 162.148352 
L 107.121814 162.295387 
L 107.243984 163.61074 
L 107.494139 169.448774 
L 107.930458 178.312607 
L 108.250425 180.746317 
L 108.570392 181.698376 
L 108.896176 182.056618 
L 109.233596 182.11828 
L 109.55938 181.960201 
L 109.774631 181.607847 
L 109.914253 180.878407 
L 110.024787 178.716232 
L 110.600727 162.088314 
L 110.635632 162.161229 
L 110.734531 162.99965 
L 110.938147 167.112555 
L 111.484999 178.377723 
L 111.810783 180.672642 
L 112.136568 181.56851 
L 112.456535 181.869227 
L 112.759049 181.869489 
L 113.026658 181.642996 
L 113.21282 181.182421 
L 113.340807 180.175112 
L 113.468794 176.714387 
L 113.940018 162.459093 
L 114.009828 162.228622 
L 114.062187 162.358069 
L 114.178538 163.465904 
L 114.405424 168.211832 
L 114.911553 178.465949 
L 115.23152 180.785862 
L 115.551487 181.682097 
L 115.865636 181.980249 
L 116.162333 181.981348 
L 116.424124 181.763727 
L 116.610287 181.313333 
L 116.738273 180.312934 
L 116.86626 176.801016 
L 117.331666 162.540933 
L 117.407295 162.293502 
L 117.453836 162.412794 
L 117.570187 163.519714 
L 117.80289 168.4495 
L 118.297385 178.420488 
L 118.617351 180.744668 
L 118.937318 181.644566 
L 119.251468 181.946225 
L 119.542347 181.944916 
L 119.815773 181.717534 
L 120.019388 181.24225 
L 120.153192 180.271164 
L 120.275362 177.231389 
L 120.781491 162.329934 
L 120.833849 162.209464 
L 120.886207 162.345323 
L 121.008377 163.554915 
L 121.246897 168.716612 
L 121.723939 178.341632 
L 122.043906 180.700699 
L 122.363873 181.612846 
L 122.672204 181.912411 
L 122.963083 181.905972 
L 123.219057 181.675292 
L 123.393584 181.200218 
L 123.515753 180.124077 
L 123.649558 176.165534 
L 124.085876 162.550983 
L 124.161505 162.236604 
L 124.213863 162.372437 
L 124.330214 163.598073 
L 124.568735 169.070903 
L 125.016689 178.289052 
L 125.336656 180.737732 
L 125.656623 181.680029 
L 125.970772 182.000322 
L 126.267468 182.013461 
L 126.523442 181.801808 
L 126.709604 181.338144 
L 126.837591 180.319189 
L 126.965578 176.794814 
L 127.425167 162.78271 
L 127.494978 162.549596 
L 127.547336 162.68849 
L 127.669505 163.935692 
L 127.913843 169.330267 
L 128.367615 178.346945 
L 128.687582 180.727316 
L 129.007548 181.656841 
L 129.327515 181.980406 
L 129.600942 181.979882 
L 129.82201 181.746611 
L 129.996537 181.201317 
L 130.118706 179.967359 
L 130.264146 175.341455 
L 130.648106 163.730451 
L 130.741187 163.272597 
L 130.793545 163.398171 
L 130.909897 164.539218 
L 131.154235 169.757735 
L 131.608006 178.41473 
L 131.927973 180.721479 
L 132.24794 181.63271 
L 132.556272 181.935808 
L 132.841333 181.92958 
L 133.097307 181.690315 
L 133.300922 181.171978 
L 133.434726 180.136116 
L 133.568531 176.69536 
L 134.033937 163.338001 
L 134.103748 163.109389 
L 134.156106 163.225017 
L 134.272458 164.256142 
L 134.505161 168.803686 
L 135.01129 178.343752 
L 135.337075 180.63273 
L 135.662859 181.547651 
L 135.988644 181.876555 
L 136.326063 181.918064 
L 136.698388 181.734546 
L 136.948544 181.368478 
L 137.105619 180.678217 
L 137.221971 178.857116 
L 137.460491 169.371488 
L 137.75137 162.320931 
L 137.832816 161.993964 
L 137.885175 162.125216 
L 138.001526 163.269562 
L 138.234229 168.305633 
L 138.717089 178.149503 
L 139.042873 180.594205 
L 139.36284 181.533911 
L 139.688624 181.882208 
L 140.020226 181.932406 
L 140.334376 181.76145 
L 140.561261 181.378371 
L 140.706701 180.643905 
L 140.823052 178.576264 
L 141.410628 162.149844 
L 141.474621 162.333022 
L 141.602608 163.793787 
L 141.876034 170.25393 
L 142.289082 178.287482 
L 142.609049 180.706771 
L 142.929016 181.65247 
L 143.248983 181.990613 
L 143.574767 182.036335 
L 143.877282 181.857921 
L 144.09835 181.461676 
L 144.243789 180.682431 
L 144.360141 178.506961 
L 144.936081 162.809458 
L 144.976804 162.880567 
L 145.081521 163.723541 
L 145.290953 167.697866 
L 145.849441 178.522193 
L 146.175225 180.729802 
L 146.506827 181.634804 
L 146.844247 181.979359 
L 147.181667 182.026704 
L 147.489998 181.843761 
L 147.716884 181.447857 
L 147.862323 180.695726 
L 147.978675 178.62319 
L 148.566251 162.628871 
L 148.618609 162.765122 
L 148.740778 163.988611 
L 148.990934 169.384862 
L 149.450523 178.273218 
L 149.776307 180.658405 
L 150.102092 181.610752 
L 150.433694 181.96868 
L 150.771113 182.024322 
L 151.079445 181.850592 
L 151.294695 181.47314 
L 151.440135 180.688555 
L 151.556486 178.429282 
L 152.138244 162.55763 
L 152.161515 162.585791 
L 152.242961 163.067226 
L 152.411671 165.716226 
L 153.173774 179.692213 
L 153.499558 181.251829 
L 153.825342 181.858051 
L 154.145309 182.036152 
L 154.447823 181.962295 
L 154.686344 181.679846 
L 154.860872 181.105894 
L 154.983041 179.816503 
L 155.134298 174.861775 
L 155.518258 163.30191 
L 155.622975 162.763028 
L 155.669515 162.854055 
L 155.780049 163.784129 
L 155.9953 167.929122 
L 156.542152 178.544387 
L 156.867937 180.756655 
L 157.187903 181.607114 
L 157.50787 181.899168 
L 157.816202 181.893672 
L 158.101263 181.662206 
L 158.304879 181.206028 
L 158.438683 180.30469 
L 158.572487 177.357119 
L 159.107705 163.282464 
L 159.148428 163.221091 
L 159.200786 163.349805 
L 159.322955 164.487764 
L 159.555658 169.292998 
L 160.050153 179.017393 
L 160.364302 181.19993 
L 160.684269 182.052797 
L 161.033323 182.396384 
L 161.510365 182.535566 
L 162.429543 182.531693 
L 164.657675 182.462703 
L 165.815374 182.425304 
L 167.601371 182.335246 
L 169.631706 182.424806 
L 171.440973 182.470581 
L 172.918638 182.446529 
L 174.844257 182.349326 
L 176.577896 182.456213 
L 188.021075 182.464117 
L 189.120597 182.412401 
L 191.017128 182.251077 
L 193.297619 182.427005 
L 195.775908 182.359376 
L 197.329202 182.39518 
L 199.20828 182.404916 
L 201.029182 182.367908 
L 202.774456 182.376414 
L 204.292844 182.415123 
L 205.974125 182.375053 
L 207.893926 182.411197 
L 209.505396 182.399262 
L 213.816222 182.432396 
L 215.247347 182.450246 
L 216.94608 182.179784 
L 217.207871 181.860747 
L 217.364946 181.294542 
L 217.47548 179.874448 
L 217.644189 173.26345 
L 217.964156 163.439339 
L 218.045602 163.041499 
L 218.097961 163.199944 
L 218.22013 164.642179 
L 218.511009 171.65853 
L 218.889151 178.514079 
L 219.209118 180.753619 
L 219.523268 181.595049 
L 219.819964 181.842688 
L 220.064302 181.788355 
L 220.256283 181.508053 
L 220.401722 180.848466 
L 220.518074 179.042859 
L 220.7915 168.875398 
L 221.047473 164.079664 
L 221.094014 163.97597 
L 221.146372 164.10916 
L 221.262724 165.258792 
L 221.51288 170.531249 
L 221.949198 178.490001 
L 222.269165 180.724829 
L 222.589132 181.590024 
L 222.885829 181.845175 
L 223.153437 181.807252 
L 223.38614 181.535534 
L 223.566485 180.95407 
L 223.694472 179.637408 
L 223.851547 174.708145 
L 224.229689 163.814568 
L 224.334406 163.316828 
L 224.380946 163.427588 
L 224.497298 164.48677 
L 224.730001 169.174203 
L 225.218678 178.465138 
L 225.538645 180.684629 
L 225.852794 181.517475 
L 226.149491 181.762811 
L 226.452005 181.735017 
L 226.789424 181.47204 
L 227.010492 181.0167 
L 227.150114 180.153599 
L 227.272283 177.578377 
L 227.848224 162.047041 
L 227.877312 162.049108 
L 227.9064 162.122364 
L 228.016934 163.000775 
L 228.226366 166.907053 
L 228.81976 178.612015 
L 229.145544 180.761549 
L 229.471328 181.609679 
L 229.814566 181.940519 
L 230.175256 181.989644 
L 230.50104 181.816595 
L 230.727926 181.432416 
L 230.867548 180.719072 
L 230.978082 178.721833 
L 231.565657 161.867108 
L 231.62965 162.07015 
L 231.757637 163.573602 
L 232.036881 170.258798 
L 232.444112 178.135632 
L 232.769896 180.615483 
L 233.09568 181.603633 
L 233.427283 181.977108 
L 233.758885 182.040235 
L 234.061399 181.873519 
L 234.276649 181.502766 
L 234.422089 180.757728 
L 234.53844 178.645253 
L 235.126016 162.71953 
L 235.166739 162.804485 
L 235.271455 163.671956 
L 235.480888 167.684047 
L 236.045193 178.734029 
L 236.36516 180.862128 
L 236.685127 181.691885 
L 236.993459 181.952559 
L 237.272703 181.92199 
L 237.528676 181.666498 
L 237.720656 181.14612 
L 237.854461 180.026769 
L 237.994082 176.159017 
L 238.430401 163.329365 
L 238.517665 162.990856 
L 238.564205 163.102793 
L 238.680557 164.174276 
L 238.91326 168.943968 
L 239.401937 178.412296 
L 239.721904 180.682588 
L 240.036053 181.544799 
L 240.326932 181.796469 
L 240.600358 181.761241 
L 240.850514 181.49816 
L 241.036676 180.96467 
L 241.164663 179.836289 
L 241.304285 175.900647 
L 241.734786 163.25234 
L 241.827867 162.851909 
L 241.874408 162.947934 
L 241.984942 163.879474 
L 242.200192 168.023446 
L 242.747045 178.646091 
L 243.067012 180.804968 
L 243.386979 181.643519 
L 243.701128 181.915394 
L 244.003642 181.897257 
L 244.277068 181.652156 
L 244.474866 181.149549 
L 244.60867 180.079794 
L 244.742475 176.420737 
L 245.202063 162.64515 
L 245.271874 162.420541 
L 245.324233 162.572705 
L 245.446402 163.872512 
L 245.702375 169.626456 
L 246.185234 179.320648 
L 246.493566 181.406375 
L 246.801898 182.171566 
L 247.150953 182.482908 
L 247.68617 182.636198 
L 248.785692 182.667683 
L 253.515384 182.629812 
L 262.253389 182.636852 
L 267.163426 182.615129 
L 271.113562 182.628372 
L 279.060376 182.5888 
L 283.574818 182.577913 
L 289.630918 182.575845 
L 297.688265 182.578201 
L 303.476757 182.597463 
L 304.727537 182.691656 
L 306.629885 182.717357 
L 333.7049 182.606492 
L 334.397192 182.313261 
L 334.769517 181.91262 
L 335.048761 181.303283 
L 335.205836 180.353344 
L 335.333822 177.710913 
L 335.898128 162.768446 
L 335.927215 162.760987 
L 335.962121 162.845784 
L 336.072655 163.735476 
L 336.287905 167.739323 
L 336.869663 178.991823 
L 337.18963 181.02251 
L 337.503779 181.767758 
L 337.800476 181.971402 
L 338.07972 181.906182 
L 338.364781 181.598556 
L 338.585849 181.021594 
L 338.725471 179.962229 
L 338.859275 176.673873 
L 339.347952 162.931498 
L 339.423581 162.711731 
L 339.475939 162.839032 
L 339.598108 163.921297 
L 339.830811 168.428877 
L 340.360211 178.554646 
L 340.680178 180.742574 
L 341.005962 181.614547 
L 341.337564 181.931176 
L 341.738977 181.995219 
L 342.227654 181.84562 
L 342.541803 181.541972 
L 342.722148 181.050095 
L 342.844317 179.924751 
L 342.978122 175.67897 
L 343.408623 161.511326 
L 343.513339 160.988252 
L 343.55988 161.098069 
L 343.670414 162.101766 
L 343.885664 166.566398 
L 344.444152 178.465426 
L 344.764119 180.761575 
L 345.089903 181.674219 
L 345.427323 182.02762 
L 345.805465 182.115767 
L 346.17779 181.982604 
L 346.433764 181.654119 
L 346.590839 181.047687 
L 346.701373 179.504664 
L 346.881718 172.202122 
L 347.207502 162.202424 
L 347.312218 161.625383 
L 347.358759 161.743524 
L 347.469293 162.841701 
L 347.690361 167.767589 
L 348.184855 178.359141 
L 348.504822 180.777173 
L 348.830607 181.731719 
L 349.162209 182.087449 
L 349.522899 182.159396 
L 349.860318 182.011184 
L 350.093021 181.656605 
L 350.238461 180.995291 
L 350.348995 179.180471 
L 350.593333 168.901098 
L 350.872577 162.136575 
L 350.942388 161.895766 
L 350.994746 162.051202 
L 351.116915 163.404504 
L 351.367071 169.332518 
L 351.80339 178.395389 
L 352.117539 180.812192 
L 352.431688 181.741089 
L 352.757473 182.090119 
L 353.112345 182.158794 
L 353.519576 182.008096 
L 353.793002 181.690472 
L 353.961712 181.116624 
L 354.072246 179.810117 
L 354.223503 174.251417 
L 354.595828 162.074338 
L 354.71218 161.408496 
L 354.752903 161.501694 
L 354.863437 162.499162 
L 355.078687 166.990803 
L 355.619722 178.419755 
L 355.939689 180.739145 
L 356.259656 181.637997 
L 356.597075 181.988048 
L 356.975218 182.071563 
L 357.434807 181.94031 
L 357.743138 181.641112 
L 357.923483 181.136567 
L 358.039835 180.046241 
L 358.173639 175.758585 
L 358.60414 161.523443 
L 358.697222 161.053106 
L 358.74958 161.181872 
L 358.865931 162.370082 
L 359.092817 167.518222 
L 359.587311 178.304127 
L 359.907278 180.779634 
L 360.227245 181.729311 
L 360.547212 182.064444 
L 360.872996 182.100509 
L 361.163875 181.912044 
L 361.373308 181.499416 
L 361.507112 180.695046 
L 361.623464 178.155706 
L 362.181952 162.06455 
L 362.187769 162.067559 
L 362.245945 162.290205 
L 362.379749 164.015909 
L 362.688081 171.889236 
L 363.060406 178.800558 
L 363.374555 181.030309 
L 363.694522 181.897126 
L 364.026124 182.213912 
L 364.392632 182.26008 
L 364.759139 182.087187 
L 365.009295 181.728003 
L 365.160552 181.087338 
L 365.271086 179.401075 
L 365.480519 170.657816 
L 365.783033 162.123672 
L 365.876115 161.639045 
L 365.928473 161.769015 
L 366.044824 162.986354 
L 366.277528 168.384489 
L 366.748752 178.509839 
L 367.062901 180.918921 
L 367.37705 181.83871 
L 367.702835 182.183265 
L 368.063524 182.256625 
L 368.43585 182.110428 
L 368.715093 181.760142 
L 368.883803 181.176244 
L 369.000155 179.766698 
L 369.163047 173.589684 
L 369.512102 162.405807 
L 369.622636 161.753469 
L 369.669176 161.86067 
L 369.77971 162.901635 
L 370.000778 167.641492 
L 370.518543 178.588251 
L 370.832692 180.882254 
L 371.152659 181.782048 
L 371.484261 182.117154 
L 371.868221 182.188421 
L 372.345263 182.044265 
L 372.694318 181.724836 
L 372.88048 181.238926 
L 373.002649 180.172652 
L 373.130636 176.250776 
L 373.57859 161.498999 
L 373.660036 161.14251 
L 373.712394 161.277165 
L 373.828746 162.477701 
L 374.055631 167.656986 
L 374.544308 178.335481 
L 374.858457 180.758094 
L 375.178424 181.709735 
L 375.510026 182.067742 
L 375.923074 182.179156 
L 376.452474 182.084099 
L 376.836434 181.813742 
L 377.069138 181.362746 
L 377.208759 180.515793 
L 377.325111 177.904795 
L 377.889416 161.31781 
L 377.912687 161.3187 
L 377.941774 161.392452 
L 378.046491 162.273716 
L 378.250106 166.323207 
L 378.843499 178.839005 
L 379.157649 180.955222 
L 379.477615 181.781865 
L 379.8034 182.071798 
L 380.21063 182.126079 
L 380.856382 181.956955 
L 381.211254 181.687986 
L 381.403234 181.253478 
L 381.525403 180.355123 
L 381.641755 177.268553 
L 382.153702 160.936326 
L 382.20606 160.820594 
L 382.252601 160.948156 
L 382.368952 162.114303 
L 382.595838 167.187407 
L 383.107785 178.400702 
L 383.421934 180.799158 
L 383.741901 181.75564 
L 384.079321 182.131287 
L 384.492369 182.253039 
L 385.021769 182.169865 
L 385.440634 181.903669 
L 385.661702 181.503394 
L 385.795507 180.748122 
L 385.906041 178.409836 
L 386.487799 160.913976 
L 386.511069 160.947266 
L 386.592515 161.482955 
L 386.761225 164.429217 
L 387.511693 179.773477 
L 387.825842 181.345525 
L 388.145809 181.955647 
L 388.500681 182.180805 
L 388.966088 182.19622 
L 389.454764 182.001762 
L 389.72819 181.668383 
L 389.885265 181.099665 
L 389.995799 179.646045 
L 390.164509 172.824545 
L 390.507746 161.458013 
L 390.61828 160.762832 
L 390.664821 160.877701 
L 390.775355 162.001684 
L 390.996423 167.107164 
L 391.525823 179.205335 
L 391.828337 181.494548 
L 392.125033 182.276777 
L 392.456635 182.573777 
L 392.95113 182.687233 
L 394.324078 182.693567 
L 402.276709 182.697336 
L 420.683531 182.669567 
L 424.67439 182.42164 
L 428.45 182.497695 
L 429.764772 182.484636 
L 432.085987 182.499004 
L 434.040693 182.513085 
L 435.774332 182.518764 
L 441.11487 182.509761 
L 444.02366 182.49021 
L 466.944923 182.688516 
L 480.05193 182.459667 
L 482.43132 182.058948 
L 483.350497 181.994224 
L 483.693734 181.746532 
L 483.908985 181.306031 
L 484.042789 180.445836 
L 484.159141 177.737922 
L 484.700176 161.802987 
L 484.723446 161.805447 
L 484.752534 161.887784 
L 484.85725 162.862953 
L 485.066683 167.447138 
L 485.590265 178.954921 
L 485.898597 181.186975 
L 486.212746 182.039659 
L 486.550166 182.371834 
L 486.998119 182.485682 
L 487.713682 182.413919 
L 490.965709 181.660557 
L 491.198412 181.265098 
L 491.343851 180.512731 
L 491.454385 178.47456 
L 492.041961 161.464216 
L 492.105954 161.664013 
L 492.233941 163.212114 
L 492.495732 169.823191 
L 492.90878 178.610602 
L 493.217112 181.02586 
L 493.531261 181.949575 
L 493.862863 182.301536 
L 494.287547 182.418447 
L 495.200907 182.360711 
L 497.714101 181.989147 
L 498.36567 181.773333 
L 498.679819 181.439796 
L 498.854346 180.907196 
L 498.970698 179.706633 
L 499.11032 175.016033 
L 499.51755 161.750642 
L 499.610632 161.277688 
L 499.66299 161.412186 
L 499.779342 162.627876 
L 500.006227 167.931164 
L 500.489086 178.767686 
L 500.797418 181.13306 
L 501.10575 182.008331 
L 501.437352 182.344223 
L 501.87367 182.455585 
L 502.629956 182.38615 
L 504.584662 181.894928 
L 505.218778 181.615254 
L 505.486387 181.25442 
L 505.643462 180.64189 
L 505.759813 179.033149 
L 505.945976 171.689151 
L 506.27176 161.973837 
L 506.376477 161.402267 
L 506.423017 161.512948 
L 506.533551 162.576841 
L 506.748802 167.331196 
L 507.272384 178.906084 
L 507.580716 181.162007 
L 507.894865 182.028143 
L 508.232285 182.363878 
L 508.674421 182.477124 
L 509.56451 182.422058 
L 511.152709 182.368851 
L 512.921254 182.265995 
L 514.846872 182.2209 
L 518.040724 182.296485 
L 521.252027 182.320903 
L 523.712864 182.187845 
L 524.829839 182.198209 
L 526.813633 182.283582 
L 530.01912 182.279028 
L 531.642224 182.306561 
L 532.817375 182.142515 
L 533.783094 182.034346 
L 535.004785 182.227888 
L 535.970504 182.246418 
L 536.976945 182.243225 
L 538.07065 182.596233 
L 539.385423 182.650095 
L 553.551229 182.666479 
L 562.853538 182.651979 
L 566.216099 182.58723 
L 567.466879 182.238671 
L 568.874733 181.837663 
L 569.485579 181.580654 
L 569.77064 181.226756 
L 569.933533 180.613441 
L 570.049884 179.0583 
L 570.230229 172.134808 
L 570.567649 162.067481 
L 570.672365 161.49311 
L 570.718906 161.592119 
L 570.82944 162.602332 
L 571.038873 167.030218 
L 571.591543 179.01967 
L 571.899874 181.182683 
L 572.214024 182.013382 
L 572.557261 182.344301 
L 573.01685 182.465739 
L 573.837128 182.421901 
L 575.530044 182.089438 
L 577.042615 181.595284 
L 577.304406 181.231441 
L 577.46148 180.578737 
L 577.572014 178.946519 
L 577.769812 170.984051 
L 578.083961 161.868992 
L 578.18286 161.326918 
L 578.229401 161.428151 
L 578.339935 162.484349 
L 578.555185 167.248964 
L 579.078767 178.842198 
L 579.387099 181.113955 
L 579.701248 181.984698 
L 580.044486 182.329566 
L 580.480804 182.443781 
L 581.237089 182.377226 
L 582.831106 181.978207 
L 583.628115 181.593295 
L 583.884088 181.209012 
L 584.035345 180.552617 
L 584.145879 178.888548 
L 584.349494 170.625101 
L 584.657826 161.791418 
L 584.756725 161.284153 
L 584.803266 161.40067 
L 584.9138 162.480475 
L 585.12905 167.237972 
L 585.652632 178.808436 
L 585.966782 181.127617 
L 586.280931 181.996972 
L 586.61835 182.336921 
L 587.066304 182.462285 
L 587.816772 182.412872 
L 588.887206 182.117809 
L 589.445694 181.738053 
L 589.754026 181.278629 
L 589.922736 180.580072 
L 590.039087 178.921264 
L 590.236885 171.279716 
L 590.556852 162.363696 
L 590.655751 161.892181 
L 590.702291 162.011316 
L 590.818643 163.160634 
L 591.039711 168.092069 
L 591.534205 178.816209 
L 591.842537 181.104847 
L 592.156686 181.978469 
L 592.499923 182.326452 
L 592.947877 182.449199 
L 593.669257 182.397273 
L 594.931672 182.060963 
L 595.117834 181.730882 
L 595.240003 181.019134 
L 595.34472 178.710082 
L 595.862484 162.511777 
L 595.89739 162.601259 
L 595.996289 163.652013 
L 596.223174 169.141619 
L 596.647858 178.064523 
L 596.967824 180.568713 
L 597.287791 181.536581 
L 597.590305 181.848263 
L 597.863732 181.842453 
L 598.113888 181.603136 
L 598.364043 181.03748 
L 598.538571 180.064797 
L 598.678193 177.768098 
L 599.242498 165.68037 
L 599.259951 165.693849 
L 599.335579 166.014378 
L 599.498471 167.974086 
L 600.34202 180.226881 
L 600.667805 181.368347 
L 600.993589 181.79113 
L 601.365914 181.916886 
L 601.837138 181.821908 
L 602.308362 181.533283 
L 602.546883 181.135782 
L 602.69814 180.379254 
L 602.814492 178.342155 
L 603.402067 162.38746 
L 603.460243 162.552134 
L 603.582412 163.924961 
L 603.844203 170.168347 
L 604.251434 178.204203 
L 604.571401 180.645895 
L 604.897185 181.636688 
L 605.228787 182.013539 
L 605.624383 182.129481 
L 606.01416 182.025631 
L 606.287587 181.724129 
L 606.473749 181.155045 
L 606.601736 179.927054 
L 606.752993 175.438501 
L 607.131136 164.980452 
L 607.218399 164.622079 
L 607.26494 164.726898 
L 607.375474 165.701962 
L 607.613995 170.329253 
L 608.079401 178.515493 
L 608.405186 180.710461 
L 608.736788 181.606983 
L 609.062572 181.917802 
L 609.388357 181.933296 
L 609.737411 181.721878 
L 610.080649 181.241884 
L 610.290081 180.561437 
L 610.429703 179.21685 
L 610.592596 174.616491 
L 610.982373 164.364782 
L 611.081272 163.932342 
L 611.127813 164.013475 
L 611.238347 164.848571 
L 611.453597 168.606297 
L 612.02372 178.844789 
L 612.349505 180.883222 
L 612.675289 181.689111 
L 613.001073 181.966194 
L 613.355946 181.977631 
L 613.710818 181.768308 
L 614.001697 181.331863 
L 614.170407 180.656782 
L 614.292576 179.05741 
L 614.490374 171.996306 
L 614.804523 163.75008 
L 614.897604 163.325727 
L 614.944145 163.438633 
L 615.054679 164.47986 
L 615.287382 169.342045 
L 615.752789 178.277118 
L 616.078573 180.643644 
L 616.404357 181.591123 
L 616.735959 181.944759 
L 617.090832 182.01121 
L 617.451522 181.856246 
L 617.736583 181.491146 
L 617.922746 180.879977 
L 618.050732 179.583154 
L 618.207807 174.754496 
L 618.58595 164.052707 
L 618.679031 163.617885 
L 618.725572 163.719877 
L 618.836106 164.72326 
L 619.068809 169.449742 
L 619.540033 178.343542 
L 619.865817 180.659295 
L 620.197419 181.600074 
L 620.534839 181.954364 
L 620.907164 182.029086 
L 621.296942 181.879382 
L 621.628544 181.514046 
L 621.820524 180.958598 
L 621.954328 179.751126 
L 622.099768 175.571403 
L 622.506998 163.978038 
L 622.594262 163.608123 
L 622.64662 163.731602 
L 622.762972 164.832633 
L 623.00731 169.861978 
L 623.461081 178.260787 
L 623.792683 180.634012 
L 624.141738 181.659929 
L 624.496611 182.087371 
L 624.886388 182.217969 
L 625.305254 182.127911 
L 625.619403 181.838475 
L 625.823019 181.336417 
L 625.951005 180.331045 
L 626.073175 177.006336 
L 626.550216 162.265341 
L 626.608392 162.100196 
L 626.66075 162.247623 
L 626.782919 163.562165 
L 627.027258 169.257797 
L 627.475211 178.59427 
L 627.78936 180.973202 
L 628.10351 181.873728 
L 628.435112 182.210248 
L 628.784167 182.260237 
L 629.150674 182.081979 
L 629.406648 181.720439 
L 629.563722 181.085637 
L 629.674256 179.53149 
L 629.860419 172.053936 
L 630.186203 162.198943 
L 630.29092 161.614129 
L 630.33746 161.718686 
L 630.447994 162.755412 
L 630.663245 167.37014 
L 631.192644 178.746199 
L 631.506794 181.017197 
L 631.820943 181.875116 
L 632.146728 182.187479 
L 632.513235 182.237886 
L 632.903013 182.071222 
L 633.193892 181.711881 
L 633.380054 181.094221 
L 633.502224 179.706162 
L 633.659298 174.068789 
L 634.031623 162.220849 
L 634.142157 161.601174 
L 634.188698 161.706883 
L 634.299232 162.721991 
L 634.514482 167.255455 
L 635.0497 178.640621 
L 635.363849 180.909551 
L 635.677998 181.78511 
L 636.0096 182.114145 
L 636.381925 182.174576 
L 636.812426 182.014953 
L 637.126576 181.6738 
L 637.312738 181.118116 
L 637.42909 179.955215 
L 637.568712 175.31811 
L 637.98176 161.67354 
L 638.086476 161.113406 
L 638.133017 161.216681 
L 638.243551 162.224356 
L 638.452984 166.603902 
L 639.017289 178.778626 
L 639.331438 180.965403 
L 639.651405 181.816281 
L 639.97719 182.117913 
L 640.343697 182.161568 
L 640.780015 181.983389 
L 641.117435 181.619441 
L 641.303598 181.080402 
L 641.425767 179.903002 
L 641.565389 175.343497 
L 641.984254 161.613606 
L 642.088971 161.073625 
L 642.135511 161.186531 
L 642.251863 162.296695 
L 642.472931 167.061886 
L 643.008148 178.620207 
L 643.322298 180.898978 
L 643.642265 181.782231 
L 643.973867 182.112155 
L 644.369462 182.189703 
L 644.910497 182.057011 
L 645.323545 181.735121 
L 645.532978 181.290407 
L 645.660965 180.438167 
L 645.777316 177.631036 
L 646.324169 160.960719 
L 646.359074 160.922717 
L 646.405615 161.053158 
L 646.521966 162.200958 
L 646.748852 167.201854 
L 647.260799 178.346264 
L 647.580766 180.771913 
L 647.900733 181.719261 
L 648.238152 182.092814 
L 648.633748 182.205747 
L 649.087519 182.108073 
L 649.424939 181.82921 
L 649.634371 181.355313 
L 649.762358 180.431807 
L 649.87871 177.435504 
L 650.396474 161.283236 
L 650.437197 161.198675 
L 650.489556 161.340004 
L 650.605907 162.555772 
L 650.83861 167.894026 
L 651.32147 178.369243 
L 651.635619 180.809601 
L 651.955586 181.777075 
L 652.287188 182.15021 
L 652.671148 182.257253 
L 653.066743 182.149215 
L 653.270359 181.852948 
L 653.409981 181.22037 
L 653.514697 179.499246 
L 653.759035 169.323515 
L 654.020826 163.427955 
L 654.067367 163.321827 
L 654.113908 163.471505 
L 654.230259 164.837658 
L 654.515321 171.701556 
L 654.893463 178.511305 
L 655.21343 180.749379 
L 655.533397 181.619493 
L 655.841729 181.899953 
L 656.12679 181.881789 
L 656.470027 181.611799 
L 656.795812 181.074095 
L 657.005245 180.301837 
L 657.144867 178.753056 
L 657.331029 173.110658 
L 657.680084 164.451751 
L 657.7848 164.010648 
L 657.831341 164.109003 
L 657.947693 165.053865 
L 658.174578 169.217885 
L 658.69816 178.659177 
L 659.023945 180.790416 
L 659.349729 181.62868 
L 659.681331 181.933819 
L 660.071109 181.987681 
L 660.47834 181.823504 
L 660.763401 181.47717 
L 660.943746 180.891336 
L 661.065915 179.618486 
L 661.22299 174.595867 
L 661.595315 163.873245 
L 661.682579 163.500503 
L 661.729119 163.620267 
L 661.845471 164.774295 
L 662.095627 170.156832 
L 662.531945 178.278741 
L 662.85773 180.650291 
L 663.189332 181.631166 
L 663.520934 181.999721 
L 663.864171 182.066407 
L 664.195773 181.910055 
L 664.475017 181.52318 
L 664.666997 180.856972 
L 664.800801 179.448394 
L 664.969511 174.3638 
L 665.336018 164.742601 
L 665.4291 164.349707 
L 665.47564 164.4506 
L 665.586174 165.398393 
L 665.81306 169.73787 
L 666.307554 178.715866 
L 666.633339 180.894581 
L 666.953306 181.716121 
L 667.261637 181.972502 
L 667.593239 181.966718 
L 667.988835 181.726903 
L 668.320437 181.284125 
L 668.512417 180.623125 
L 668.640404 179.249461 
L 668.809113 173.973392 
L 669.175621 163.927604 
L 669.27452 163.456691 
L 669.32106 163.547875 
L 669.431594 164.473422 
L 669.652662 168.695936 
L 670.176245 178.502956 
L 670.502029 180.706247 
L 670.827814 181.579974 
L 671.171051 181.927067 
L 671.549193 182.00608 
L 671.979694 181.859543 
L 672.311296 181.526949 
L 672.497459 181.008534 
L 672.625446 179.912057 
L 672.765067 176.097513 
L 673.178116 164.450495 
L 673.247927 164.207462 
L 673.300285 164.337196 
L 673.416636 165.470916 
L 673.666792 170.668756 
L 674.108928 178.620756 
L 674.434713 180.853439 
L 674.760497 181.719575 
L 675.086282 182.025788 
L 675.423701 182.059733 
L 675.749486 181.867971 
L 676.052 181.413938 
L 676.24398 180.707975 
L 676.377784 179.176964 
L 676.563947 173.273997 
L 676.901366 164.755451 
L 677.000265 164.317646 
L 677.046806 164.407625 
L 677.15734 165.29695 
L 677.378408 169.330791 
L 677.90199 178.657502 
L 678.227775 180.791882 
L 678.553559 181.634883 
L 678.879344 181.92424 
L 679.251669 181.953658 
L 679.722893 181.750118 
L 680.042859 181.401899 
L 680.229022 180.834856 
L 680.351191 179.63152 
L 680.496631 175.157885 
L 680.892226 163.420365 
L 680.973672 163.072486 
L 681.02603 163.220175 
L 681.142382 164.473579 
L 681.398355 170.332629 
L 681.811404 178.239168 
L 682.032472 180.09042 
L 682.032472 180.09042 
" clip-path="url(#p0de6d8307a)" style="fill: none; stroke: #d62728; stroke-width: 1.5; stroke-linecap: square"/>
   </g>
   <g id="line2d_18">
    <path d="M 100.280341 182.751276 
L 129.310063 182.751276 
L 129.310063 182.751276 
" clip-path="url(#p0de6d8307a)" style="fill: none; stroke-dasharray: 2.96,1.28; stroke-dashoffset: 0; stroke: #808080; stroke-opacity: 0.7; stroke-width: 0.8"/>
   </g>
   <g id="line2d_19">
    <path d="M 100.280341 125.664277 
L 100.798105 127.388568 
L 101.118072 127.744821 
L 101.525303 127.847389 
L 103.218219 127.858198 
L 159.363678 127.7477 
L 160.474836 127.739037 
L 163.488342 127.803996 
L 187.811642 127.805619 
L 200.45906 127.80834 
L 217.091519 127.844615 
L 218.656448 127.85333 
L 242.578335 127.856785 
L 246.225957 127.763482 
L 246.697181 127.45808 
L 247.040419 126.972537 
L 247.273122 126.24383 
L 247.412744 124.934365 
L 247.564001 120.434088 
L 247.965414 108.79063 
L 248.058495 108.365203 
L 248.110853 108.479366 
L 248.227205 109.536375 
L 248.45409 114.129354 
L 248.96022 123.996491 
L 249.274369 126.162618 
L 249.594336 127.006378 
L 249.925938 127.311465 
L 250.368074 127.393174 
L 251.613036 127.305105 
L 252.241335 127.068301 
L 252.543849 126.720082 
L 252.724194 126.154243 
L 252.846363 124.905602 
L 252.991802 120.194169 
L 253.375763 108.452749 
L 253.463026 108.047737 
L 253.509567 108.166244 
L 253.620101 109.275963 
L 253.852804 114.450354 
L 254.312393 123.75864 
L 254.626542 126.073372 
L 254.946509 126.978897 
L 255.278111 127.318662 
L 255.679524 127.410578 
L 256.307823 127.289637 
L 257.797123 126.745888 
L 258.035644 126.394947 
L 258.181083 125.755355 
L 258.291617 124.061058 
L 258.506868 115.303719 
L 258.803564 107.270507 
L 258.896646 106.840553 
L 258.943186 106.96453 
L 259.05372 108.079798 
L 259.274788 113.096004 
L 259.763465 123.665023 
L 260.077614 126.0433 
L 260.397581 126.971778 
L 260.735001 127.333004 
L 261.159684 127.455044 
L 261.840341 127.392912 
L 262.596626 127.108972 
L 263.102755 126.730786 
L 263.352911 126.262333 
L 263.504168 125.443516 
L 263.62052 123.267103 
L 264.208096 107.170739 
L 264.248819 107.259541 
L 264.353535 108.173755 
L 264.55715 112.327882 
L 265.115638 124.134837 
L 265.429787 126.259193 
L 265.743937 127.055398 
L 266.069721 127.339783 
L 266.465316 127.3837 
L 267.198331 127.186598 
L 268.222225 126.720265 
L 268.513104 126.327319 
L 268.670179 125.707356 
L 268.786531 124.122353 
L 268.972693 116.977393 
L 269.298478 107.511158 
L 269.403194 106.960656 
L 269.449735 107.068851 
L 269.560269 108.097359 
L 269.775519 112.677776 
L 270.299101 123.832733 
L 270.613251 126.109489 
L 270.9274 126.977955 
L 271.264819 127.316699 
L 271.689503 127.418377 
L 272.375977 127.329052 
L 272.92283 127.065788 
L 273.28352 126.663472 
L 273.481317 126.09868 
L 273.609304 124.924786 
L 273.748926 120.673902 
L 274.161974 107.903974 
L 274.255055 107.491137 
L 274.301596 107.60967 
L 274.417948 108.748022 
L 274.644833 113.712329 
L 275.13351 123.874294 
L 275.447659 126.19248 
L 275.761808 127.072069 
L 276.099228 127.417461 
L 276.547182 127.545129 
L 277.582711 127.53165 
L 281.76555 127.492052 
L 282.975607 127.473653 
L 285.482984 127.291391 
L 289.404032 127.427197 
L 291.364557 127.431987 
L 292.89458 127.410212 
L 295.163436 127.46007 
L 299.11939 127.456301 
L 301.045009 127.342086 
L 303.953799 127.402491 
L 304.174867 127.222087 
L 304.343576 126.780513 
L 304.465746 125.702907 
L 304.59955 121.571262 
L 305.012598 108.583321 
L 305.105679 108.187469 
L 305.15222 108.302783 
L 305.268572 109.366964 
L 305.51291 114.185859 
L 305.995769 122.938252 
L 306.327371 125.248953 
L 306.629885 126.039897 
L 306.862588 126.162199 
L 307.013845 126.002576 
L 307.153467 125.474137 
L 307.275636 123.895572 
L 307.473434 116.973833 
L 307.793401 108.683952 
L 307.903935 108.158052 
L 307.944658 108.234108 
L 308.049375 109.016101 
L 308.258807 112.656236 
L 308.863836 123.691587 
L 309.18962 125.690004 
L 309.492134 126.385656 
L 309.713202 126.476944 
L 309.864459 126.294604 
L 309.998264 125.717877 
L 310.114615 123.947759 
L 310.358954 114.622801 
L 310.644015 108.136198 
L 310.725461 107.830457 
L 310.777819 107.94776 
L 310.894171 108.97386 
L 311.126874 113.477488 
L 311.650456 123.334889 
L 311.976241 125.567309 
L 312.284572 126.361839 
L 312.517276 126.486026 
L 312.668533 126.333914 
L 312.802337 125.842063 
L 312.918689 124.349473 
L 313.104851 117.600496 
L 313.430636 108.740903 
L 313.535352 108.263185 
L 313.576075 108.348637 
L 313.686609 109.230686 
L 313.907677 113.211214 
L 314.471982 123.44434 
L 314.803584 125.591728 
L 315.106098 126.326481 
L 315.321349 126.412639 
L 315.466788 126.222788 
L 315.594775 125.627217 
L 315.705309 123.831372 
L 315.996188 112.732999 
L 316.246344 108.141904 
L 316.298702 108.017875 
L 316.35106 108.141145 
L 316.47323 109.273268 
L 316.717568 114.182509 
L 317.206245 123.336538 
L 317.532029 125.634572 
L 317.846178 126.486078 
L 318.102152 126.660933 
L 318.270862 126.539024 
L 318.416301 126.130426 
L 318.532653 125.047664 
L 318.672275 120.806699 
L 319.085323 108.193306 
L 319.190039 107.695095 
L 319.23658 107.797716 
L 319.352931 108.810468 
L 319.585635 113.333489 
L 320.109217 123.253232 
L 320.435001 125.539986 
L 320.749151 126.39691 
L 320.999306 126.566138 
L 321.162199 126.432766 
L 321.301821 125.984125 
L 321.418172 124.696226 
L 321.575247 119.34876 
L 321.935937 108.574972 
L 322.052288 107.962966 
L 322.093011 108.04478 
L 322.203545 108.933267 
L 322.424613 112.998278 
L 322.983101 123.313506 
L 323.314703 125.539672 
L 323.628852 126.36621 
L 323.884826 126.542086 
L 324.053536 126.423265 
L 324.198975 125.996609 
L 324.315327 124.793298 
L 324.460766 119.968173 
L 324.856362 107.631628 
L 324.961078 107.094029 
L 325.007619 107.20348 
L 325.12397 108.293021 
L 325.356674 113.134582 
L 325.856985 123.069217 
L 326.18277 125.46427 
L 326.496919 126.367179 
L 326.764528 126.588908 
L 326.939055 126.491993 
L 327.084495 126.120848 
L 327.200846 125.112361 
L 327.334651 121.173421 
L 327.776787 107.461222 
L 327.875685 107.03331 
L 327.922226 107.144096 
L 328.038578 108.196577 
L 328.265463 112.799135 
L 328.783228 123.096253 
L 329.109012 125.448672 
L 329.423162 126.319676 
L 329.684953 126.514763 
L 329.865298 126.39992 
L 330.016555 125.992107 
L 330.138724 124.86145 
L 330.278346 120.606456 
L 330.697211 107.832132 
L 330.807745 107.307095 
L 330.848469 107.387077 
L 330.959003 108.248005 
L 331.174253 112.124656 
L 331.779281 123.551907 
L 332.105066 125.619784 
L 332.40758 126.333547 
L 332.640283 126.435226 
L 332.79154 126.262778 
L 332.925344 125.705288 
L 333.105689 123.460803 
L 333.454744 120.294486 
L 333.501285 120.258892 
L 333.547825 120.35353 
L 333.669995 121.18601 
L 334.420462 127.459572 
L 334.688071 127.763613 
L 335.101119 127.846316 
L 337.625949 127.860135 
L 363.816691 127.853356 
L 376.248859 127.854115 
L 391.67708 127.745685 
L 392.020317 127.451459 
L 392.264655 126.942623 
L 392.42173 126.037673 
L 392.543899 123.567296 
L 393.114022 108.297287 
L 393.16638 108.432466 
L 393.288549 109.602041 
L 393.538705 114.698517 
L 394.009929 123.389379 
L 394.335713 125.673673 
L 394.65568 126.549702 
L 394.952377 126.812966 
L 395.214168 126.778236 
L 395.441054 126.517694 
L 395.603946 125.958241 
L 395.720297 124.620484 
L 395.877372 119.174167 
L 396.249697 107.685804 
L 396.371866 106.996067 
L 396.412589 107.072332 
L 396.517306 107.880184 
L 396.720921 111.565517 
L 397.355037 123.89921 
L 397.680822 125.906682 
L 398.000789 126.670434 
L 398.30912 126.902763 
L 398.582546 126.854371 
L 398.809432 126.591656 
L 398.966507 126.045603 
L 399.082858 124.622997 
L 399.245751 118.517668 
L 399.600623 107.208793 
L 399.722792 106.48587 
L 399.763515 106.567395 
L 399.868232 107.413406 
L 400.071847 111.260247 
L 400.68851 123.742099 
L 401.014295 125.854573 
L 401.340079 126.685195 
L 401.648411 126.942596 
L 401.904384 126.897528 
L 402.102182 126.633505 
L 402.241804 126.033538 
L 402.34652 124.386873 
L 402.550136 115.651388 
L 402.858467 106.49872 
L 402.957366 105.961618 
L 403.003907 106.074367 
L 403.114441 107.167127 
L 403.335509 112.137821 
L 403.835821 123.125068 
L 404.155788 125.617664 
L 404.475754 126.598382 
L 404.784086 126.928621 
L 405.057512 126.935818 
L 405.272763 126.724112 
L 405.42402 126.246892 
L 405.534554 125.014504 
L 405.679993 119.662458 
L 406.063954 106.574462 
L 406.174488 105.898727 
L 406.221028 106.009094 
L 406.331562 107.097379 
L 406.55263 112.069093 
L 407.05876 123.135118 
L 407.378727 125.623946 
L 407.698694 126.60838 
L 408.012843 126.956311 
L 408.309539 126.986042 
L 408.54806 126.795562 
L 408.71677 126.355794 
L 408.833122 125.299334 
L 408.961108 121.205089 
L 409.391609 106.803074 
L 409.478873 106.393482 
L 409.531231 106.528268 
L 409.647583 107.71742 
L 409.880286 112.936538 
L 410.363145 123.140693 
L 410.683112 125.615361 
L 411.003079 126.58951 
L 411.31141 126.916189 
L 411.567384 126.910038 
L 411.765182 126.683938 
L 411.910621 126.137048 
L 412.021155 124.596511 
L 412.207318 116.977314 
L 412.527284 107.245539 
L 412.626183 106.716314 
L 412.672724 106.82854 
L 412.783258 107.891464 
L 413.010144 112.783641 
L 413.510455 123.220046 
L 413.830422 125.654017 
L 414.150389 126.617278 
L 414.458721 126.938723 
L 414.714694 126.926605 
L 414.912492 126.685666 
L 415.057932 126.106767 
L 415.168466 124.513022 
L 415.360446 116.676284 
L 415.674595 107.3072 
L 415.779311 106.756462 
L 415.820034 106.851807 
L 415.930568 107.86312 
L 416.151636 112.47421 
L 416.681036 123.385741 
L 417.001003 125.714318 
L 417.326788 126.645544 
L 417.640937 126.957829 
L 417.920181 126.951076 
L 418.147066 126.723432 
L 418.309958 126.228624 
L 418.42631 125.01563 
L 418.57175 120.001045 
L 418.961527 107.383151 
L 419.066244 106.821421 
L 419.112784 106.926842 
L 419.223318 107.93525 
L 419.444386 112.507527 
L 419.973786 123.410421 
L 420.299571 125.77488 
L 420.671896 126.99371 
L 421.026768 127.467267 
L 421.463087 127.671016 
L 422.27173 127.757253 
L 424.395147 127.722575 
L 426.472022 127.75898 
L 429.078298 127.730034 
L 449.881962 127.619379 
L 450.306646 127.295892 
L 450.550984 126.831208 
L 450.696423 126.020504 
L 450.812775 123.687086 
L 451.388715 107.5975 
L 451.406168 107.616082 
L 451.481797 108.019183 
L 451.638871 110.342552 
L 452.476603 125.330348 
L 452.79657 126.611651 
L 453.122354 127.100597 
L 453.448139 127.223344 
L 453.768105 127.113002 
L 454.012444 126.789281 
L 454.169518 126.176908 
L 454.28587 124.559687 
L 454.47785 116.954571 
L 454.797817 107.705381 
L 454.902533 107.175188 
L 454.943256 107.268046 
L 455.05379 108.263551 
L 455.269041 112.706015 
L 455.804258 123.705197 
L 456.124225 125.974546 
L 456.444192 126.856962 
L 456.775794 127.186336 
L 457.136484 127.241533 
L 457.479721 127.077513 
L 457.718242 126.721181 
L 457.869499 126.064499 
L 457.980033 124.410585 
L 458.189466 116.027453 
L 458.49198 107.735871 
L 458.590879 107.248889 
L 458.637419 107.357188 
L 458.747953 108.375934 
L 458.969021 112.959151 
L 459.486786 123.491581 
L 459.806753 125.82581 
L 460.132537 126.760884 
L 460.458322 127.094132 
L 460.795741 127.137369 
L 461.138979 126.954269 
L 461.394952 126.577261 
L 461.557844 125.89124 
L 461.674196 124.178518 
L 461.889446 115.780494 
L 462.191961 107.798108 
L 462.290859 107.331304 
L 462.3374 107.432485 
L 462.447934 108.396113 
L 462.663184 112.665082 
L 463.215855 123.792952 
L 463.535821 125.989255 
L 463.849971 126.813647 
L 464.158302 127.078586 
L 464.454999 127.059585 
L 464.71679 126.817677 
L 464.902953 126.328392 
L 465.030939 125.250994 
L 465.164744 121.445322 
L 465.60688 108.083252 
L 465.688326 107.7555 
L 465.740684 107.870212 
L 465.857036 108.921935 
L 466.083921 113.48267 
L 466.607503 123.7784 
L 466.92747 125.98211 
L 467.24162 126.804696 
L 467.549951 127.069531 
L 467.852465 127.057518 
L 468.131709 126.820766 
L 468.335324 126.350324 
L 468.463311 125.431084 
L 468.58548 122.381259 
L 469.097427 107.118107 
L 469.155603 106.988372 
L 469.202144 107.105859 
L 469.318495 108.178414 
L 469.539563 112.766839 
L 470.068963 123.709541 
L 470.383112 125.938716 
L 470.703079 126.808125 
L 471.028864 127.112924 
L 471.389554 127.145639 
L 471.767696 126.964686 
L 472.006217 126.609401 
L 472.157474 125.937565 
L 472.268008 124.179067 
L 472.494894 114.76324 
L 472.79159 106.921006 
L 472.884672 106.515156 
L 472.931212 106.63382 
L 473.047564 107.751234 
L 473.274449 112.634199 
L 473.780579 123.263727 
L 474.100546 125.674641 
L 474.42633 126.64366 
L 474.752115 126.995673 
L 475.089534 127.053749 
L 475.403684 126.890462 
L 475.624752 126.522928 
L 475.770191 125.800973 
L 475.880725 123.871206 
L 476.183239 111.633486 
L 476.439213 106.76557 
L 476.485753 106.660018 
L 476.538112 106.794281 
L 476.654463 107.956266 
L 476.887166 113.064415 
L 477.381661 123.380847 
L 477.701627 125.788254 
L 478.021594 126.718983 
L 478.341561 127.047572 
L 478.789515 127.379643 
L 479.301462 127.709489 
L 479.941396 127.814674 
L 482.291698 127.830561 
L 537.110749 127.720874 
L 537.785588 127.390504 
L 538.245177 126.950684 
L 538.466245 126.425752 
L 538.600049 125.454246 
L 538.722219 122.364274 
L 539.228348 107.059665 
L 539.280706 106.925402 
L 539.333064 107.053017 
L 539.449416 108.183413 
L 539.676302 113.106866 
L 540.176613 123.635632 
L 540.490763 125.962769 
L 540.81073 126.880333 
L 541.142332 127.225856 
L 541.537927 127.315077 
L 541.997516 127.18898 
L 542.334935 126.881747 
L 542.532733 126.389294 
L 542.66072 125.370574 
L 542.788707 121.773179 
L 543.248295 107.278463 
L 543.323924 106.993868 
L 543.376282 107.126168 
L 543.492634 108.274203 
L 543.725337 113.359766 
L 544.214014 123.522045 
L 544.533981 125.917988 
L 544.853947 126.851047 
L 545.197185 127.227269 
L 545.581145 127.329183 
L 546.058186 127.218266 
L 546.447964 126.915796 
L 546.680667 126.451819 
L 546.820289 125.590262 
L 546.936641 122.984943 
L 547.495128 106.905904 
L 547.541669 107.002558 
L 547.652203 108.040618 
L 547.873271 112.818005 
L 548.379401 123.560884 
L 548.699367 125.937931 
L 549.019334 126.848299 
L 549.345119 127.17893 
L 549.711626 127.243104 
L 550.130492 127.086909 
L 550.433006 126.748269 
L 550.619169 126.186618 
L 550.741338 124.975115 
L 550.886777 120.268497 
L 551.282373 107.865658 
L 551.387089 107.344678 
L 551.43363 107.459914 
L 551.549981 108.567592 
L 551.776867 113.414675 
L 552.277179 123.724276 
L 552.597146 126.049633 
L 552.917113 126.93943 
L 553.248715 127.272835 
L 553.62104 127.344363 
L 554.016635 127.196962 
L 554.336602 126.848901 
L 554.528582 126.287275 
L 554.650751 125.10943 
L 554.790373 120.68157 
L 555.197604 107.781018 
L 555.296503 107.276134 
L 555.343043 107.373075 
L 555.453577 108.365282 
L 555.668828 112.810625 
L 556.204045 123.852571 
L 556.518194 126.061018 
L 556.838161 126.926893 
L 557.169763 127.249777 
L 557.547906 127.314187 
L 558.007495 127.159536 
L 558.362367 126.817259 
L 558.554347 126.311563 
L 558.676516 125.280333 
L 558.804503 121.57223 
L 559.258274 107.095049 
L 559.33972 106.780514 
L 559.386261 106.904962 
L 559.502613 108.083252 
L 559.729498 113.192893 
L 560.218175 123.635003 
L 560.532324 126.001398 
L 560.852291 126.919565 
L 561.183893 127.260586 
L 561.562036 127.339731 
L 561.975084 127.20306 
L 562.306686 126.871409 
L 562.498666 126.347994 
L 562.620835 125.264787 
L 562.754639 121.216945 
L 563.18514 107.513174 
L 563.272404 107.140641 
L 563.318945 107.261582 
L 563.435296 108.424562 
L 563.667999 113.598429 
L 564.145041 123.521443 
L 564.465008 125.929216 
L 564.784975 126.858872 
L 565.110759 127.200757 
L 565.459814 127.262706 
L 565.995031 127.296494 
L 566.733864 127.735635 
L 567.478514 127.816218 
L 572.208206 127.832864 
L 601.365914 127.852938 
L 614.304211 127.847599 
L 682.032472 127.849038 
L 682.032472 127.849038 
" clip-path="url(#p0de6d8307a)" style="fill: none; stroke: #9467bd; stroke-width: 1.5; stroke-linecap: square"/>
   </g>
   <g id="line2d_20">
    <path d="M 100.280341 127.864584 
L 129.310063 127.864584 
L 129.310063 127.864584 
" clip-path="url(#p0de6d8307a)" style="fill: none; stroke-dasharray: 2.96,1.28; stroke-dashoffset: 0; stroke: #808080; stroke-opacity: 0.7; stroke-width: 0.8"/>
   </g>
   <g id="line2d_21">
    <path d="M 100.280341 364.800261 
L 101.443857 364.800261 
" style="fill: none; stroke: #000000; stroke-width: 5; stroke-linecap: square"/>
   </g>
   <g id="text_8">
    <!-- 20 ms -->
    <g transform="translate(76.179599 384.927677) scale(0.16 -0.16)">
     <defs>
      <path id="DejaVuSans-30" d="M 2034 4250 
Q 1547 4250 1301 3770 
Q 1056 3291 1056 2328 
Q 1056 1369 1301 889 
Q 1547 409 2034 409 
Q 2525 409 2770 889 
Q 3016 1369 3016 2328 
Q 3016 3291 2770 3770 
Q 2525 4250 2034 4250 
z
M 2034 4750 
Q 2819 4750 3233 4129 
Q 3647 3509 3647 2328 
Q 3647 1150 3233 529 
Q 2819 -91 2034 -91 
Q 1250 -91 836 529 
Q 422 1150 422 2328 
Q 422 3509 836 4129 
Q 1250 4750 2034 4750 
z
" transform="scale(0.015625)"/>
     </defs>
     <use xlink:href="#DejaVuSans-32"/>
     <use xlink:href="#DejaVuSans-30" x="63.623047"/>
     <use xlink:href="#DejaVuSans-20" x="127.246094"/>
     <use xlink:href="#DejaVuSans-6d" x="159.033203"/>
     <use xlink:href="#DejaVuSans-73" x="256.445312"/>
    </g>
   </g>
   <g id="text_9">
    <!-- Inhibitory Gating Variables -->
    <g transform="translate(231.657656 58.474481) scale(0.24 -0.24)">
     <defs>
      <path id="DejaVuSans-49" d="M 628 4666 
L 1259 4666 
L 1259 0 
L 628 0 
L 628 4666 
z
" transform="scale(0.015625)"/>
      <path id="DejaVuSans-68" d="M 3513 2113 
L 3513 0 
L 2938 0 
L 2938 2094 
Q 2938 2591 2744 2837 
Q 2550 3084 2163 3084 
Q 1697 3084 1428 2787 
Q 1159 2491 1159 1978 
L 1159 0 
L 581 0 
L 581 4863 
L 1159 4863 
L 1159 2956 
Q 1366 3272 1645 3428 
Q 1925 3584 2291 3584 
Q 2894 3584 3203 3211 
Q 3513 2838 3513 2113 
z
" transform="scale(0.015625)"/>
      <path id="DejaVuSans-62" d="M 3116 1747 
Q 3116 2381 2855 2742 
Q 2594 3103 2138 3103 
Q 1681 3103 1420 2742 
Q 1159 2381 1159 1747 
Q 1159 1113 1420 752 
Q 1681 391 2138 391 
Q 2594 391 2855 752 
Q 3116 1113 3116 1747 
z
M 1159 2969 
Q 1341 3281 1617 3432 
Q 1894 3584 2278 3584 
Q 2916 3584 3314 3078 
Q 3713 2572 3713 1747 
Q 3713 922 3314 415 
Q 2916 -91 2278 -91 
Q 1894 -91 1617 61 
Q 1341 213 1159 525 
L 1159 0 
L 581 0 
L 581 4863 
L 1159 4863 
L 1159 2969 
z
" transform="scale(0.015625)"/>
      <path id="DejaVuSans-74" d="M 1172 4494 
L 1172 3500 
L 2356 3500 
L 2356 3053 
L 1172 3053 
L 1172 1153 
Q 1172 725 1289 603 
Q 1406 481 1766 481 
L 2356 481 
L 2356 0 
L 1766 0 
Q 1100 0 847 248 
Q 594 497 594 1153 
L 594 3053 
L 172 3053 
L 172 3500 
L 594 3500 
L 594 4494 
L 1172 4494 
z
" transform="scale(0.015625)"/>
      <path id="DejaVuSans-79" d="M 2059 -325 
Q 1816 -950 1584 -1140 
Q 1353 -1331 966 -1331 
L 506 -1331 
L 506 -850 
L 844 -850 
Q 1081 -850 1212 -737 
Q 1344 -625 1503 -206 
L 1606 56 
L 191 3500 
L 800 3500 
L 1894 763 
L 2988 3500 
L 3597 3500 
L 2059 -325 
z
" transform="scale(0.015625)"/>
      <path id="DejaVuSans-47" d="M 3809 666 
L 3809 1919 
L 2778 1919 
L 2778 2438 
L 4434 2438 
L 4434 434 
Q 4069 175 3628 42 
Q 3188 -91 2688 -91 
Q 1594 -91 976 548 
Q 359 1188 359 2328 
Q 359 3472 976 4111 
Q 1594 4750 2688 4750 
Q 3144 4750 3555 4637 
Q 3966 4525 4313 4306 
L 4313 3634 
Q 3963 3931 3569 4081 
Q 3175 4231 2741 4231 
Q 1884 4231 1454 3753 
Q 1025 3275 1025 2328 
Q 1025 1384 1454 906 
Q 1884 428 2741 428 
Q 3075 428 3337 486 
Q 3600 544 3809 666 
z
" transform="scale(0.015625)"/>
      <path id="DejaVuSans-61" d="M 2194 1759 
Q 1497 1759 1228 1600 
Q 959 1441 959 1056 
Q 959 750 1161 570 
Q 1363 391 1709 391 
Q 2188 391 2477 730 
Q 2766 1069 2766 1631 
L 2766 1759 
L 2194 1759 
z
M 3341 1997 
L 3341 0 
L 2766 0 
L 2766 531 
Q 2569 213 2275 61 
Q 1981 -91 1556 -91 
Q 1019 -91 701 211 
Q 384 513 384 1019 
Q 384 1609 779 1909 
Q 1175 2209 1959 2209 
L 2766 2209 
L 2766 2266 
Q 2766 2663 2505 2880 
Q 2244 3097 1772 3097 
Q 1472 3097 1187 3025 
Q 903 2953 641 2809 
L 641 3341 
Q 956 3463 1253 3523 
Q 1550 3584 1831 3584 
Q 2591 3584 2966 3190 
Q 3341 2797 3341 1997 
z
" transform="scale(0.015625)"/>
      <path id="DejaVuSans-67" d="M 2906 1791 
Q 2906 2416 2648 2759 
Q 2391 3103 1925 3103 
Q 1463 3103 1205 2759 
Q 947 2416 947 1791 
Q 947 1169 1205 825 
Q 1463 481 1925 481 
Q 2391 481 2648 825 
Q 2906 1169 2906 1791 
z
M 3481 434 
Q 3481 -459 3084 -895 
Q 2688 -1331 1869 -1331 
Q 1566 -1331 1297 -1286 
Q 1028 -1241 775 -1147 
L 775 -588 
Q 1028 -725 1275 -790 
Q 1522 -856 1778 -856 
Q 2344 -856 2625 -561 
Q 2906 -266 2906 331 
L 2906 616 
Q 2728 306 2450 153 
Q 2172 0 1784 0 
Q 1141 0 747 490 
Q 353 981 353 1791 
Q 353 2603 747 3093 
Q 1141 3584 1784 3584 
Q 2172 3584 2450 3431 
Q 2728 3278 2906 2969 
L 2906 3500 
L 3481 3500 
L 3481 434 
z
" transform="scale(0.015625)"/>
      <path id="DejaVuSans-56" d="M 1831 0 
L 50 4666 
L 709 4666 
L 2188 738 
L 3669 4666 
L 4325 4666 
L 2547 0 
L 1831 0 
z
" transform="scale(0.015625)"/>
      <path id="DejaVuSans-6c" d="M 603 4863 
L 1178 4863 
L 1178 0 
L 603 0 
L 603 4863 
z
" transform="scale(0.015625)"/>
     </defs>
     <use xlink:href="#DejaVuSans-49"/>
     <use xlink:href="#DejaVuSans-6e" x="29.492188"/>
     <use xlink:href="#DejaVuSans-68" x="92.871094"/>
     <use xlink:href="#DejaVuSans-69" x="156.25"/>
     <use xlink:href="#DejaVuSans-62" x="184.033203"/>
     <use xlink:href="#DejaVuSans-69" x="247.509766"/>
     <use xlink:href="#DejaVuSans-74" x="275.292969"/>
     <use xlink:href="#DejaVuSans-6f" x="314.501953"/>
     <use xlink:href="#DejaVuSans-72" x="375.683594"/>
     <use xlink:href="#DejaVuSans-79" x="416.796875"/>
     <use xlink:href="#DejaVuSans-20" x="475.976562"/>
     <use xlink:href="#DejaVuSans-47" x="507.763672"/>
     <use xlink:href="#DejaVuSans-61" x="585.253906"/>
     <use xlink:href="#DejaVuSans-74" x="646.533203"/>
     <use xlink:href="#DejaVuSans-69" x="685.742188"/>
     <use xlink:href="#DejaVuSans-6e" x="713.525391"/>
     <use xlink:href="#DejaVuSans-67" x="776.904297"/>
     <use xlink:href="#DejaVuSans-20" x="840.380859"/>
     <use xlink:href="#DejaVuSans-56" x="872.167969"/>
     <use xlink:href="#DejaVuSans-61" x="932.826172"/>
     <use xlink:href="#DejaVuSans-72" x="994.105469"/>
     <use xlink:href="#DejaVuSans-69" x="1035.21875"/>
     <use xlink:href="#DejaVuSans-61" x="1063.001953"/>
     <use xlink:href="#DejaVuSans-62" x="1124.28125"/>
     <use xlink:href="#DejaVuSans-6c" x="1187.757812"/>
     <use xlink:href="#DejaVuSans-65" x="1215.541016"/>
     <use xlink:href="#DejaVuSans-73" x="1277.064453"/>
    </g>
   </g>
   <g id="text_10">
    <!-- F -->
    <g transform="translate(7.2 29.995312) scale(0.3 -0.3)">
     <defs>
      <path id="DejaVuSans-46" d="M 628 4666 
L 3309 4666 
L 3309 4134 
L 1259 4134 
L 1259 2759 
L 3109 2759 
L 3109 2228 
L 1259 2228 
L 1259 0 
L 628 0 
L 628 4666 
z
" transform="scale(0.015625)"/>
     </defs>
     <use xlink:href="#DejaVuSans-46"/>
    </g>
   </g>
  </g>
 </g>
 <defs>
  <clipPath id="p0de6d8307a">
   <rect x="71.192734" y="92.95365" width="639.927344" height="284.791687"/>
  </clipPath>
 </defs>
</svg>
