<?xml version="1.0" encoding="utf-8" standalone="no"?>
<!DOCTYPE svg PUBLIC "-//W3C//DTD SVG 1.1//EN"
  "http://www.w3.org/Graphics/SVG/1.1/DTD/svg11.dtd">
<svg xmlns:xlink="http://www.w3.org/1999/xlink" width="856.18pt" height="280.44pt" viewBox="0 0 856.18 280.44" xmlns="http://www.w3.org/2000/svg" version="1.1">
 <metadata>
  <rdf:RDF xmlns:dc="http://purl.org/dc/elements/1.1/" xmlns:cc="http://creativecommons.org/ns#" xmlns:rdf="http://www.w3.org/1999/02/22-rdf-syntax-ns#">
   <cc:Work>
    <dc:type rdf:resource="http://purl.org/dc/dcmitype/StillImage"/>
    <dc:date>2025-10-21T12:46:53.730989</dc:date>
    <dc:format>image/svg+xml</dc:format>
    <dc:creator>
     <cc:Agent>
      <dc:title>Matplotlib v3.8.2, https://matplotlib.org/</dc:title>
     </cc:Agent>
    </dc:creator>
   </cc:Work>
  </rdf:RDF>
 </metadata>
 <defs>
  <style type="text/css">*{stroke-linejoin: round; stroke-linecap: butt}</style>
 </defs>
 <g id="figure_1">
  <g id="patch_1">
   <path d="M 0 280.44 
L 856.18 280.44 
L 856.18 0 
L 0 0 
z
" style="fill: #ffffff"/>
  </g>
  <g id="axes_1">
   <g id="patch_2">
    <path d="M 51.325 227.834375 
L 848.98 227.834375 
L 848.98 56.268455 
L 51.325 56.268455 
z
" style="fill: #ffffff"/>
   </g>
   <g id="matplotlib.axis_1">
    <g id="xtick_1">
     <g id="line2d_1">
      <defs>
       <path id="m877bd638fa" d="M 0 0 
L 0 5 
" style="stroke: #000000; stroke-width: 0.8"/>
      </defs>
      <g>
       <use xlink:href="#m877bd638fa" x="87.582045" y="227.834375" style="stroke: #000000; stroke-width: 0.8"/>
      </g>
     </g>
     <g id="text_1">
      <!-- 0 -->
      <g transform="translate(82.492045 248.491875) scale(0.16 -0.16)">
       <defs>
        <path id="DejaVuSans-30" d="M 2034 4250 
Q 1547 4250 1301 3770 
Q 1056 3291 1056 2328 
Q 1056 1369 1301 889 
Q 1547 409 2034 409 
Q 2525 409 2770 889 
Q 3016 1369 3016 2328 
Q 3016 3291 2770 3770 
Q 2525 4250 2034 4250 
z
M 2034 4750 
Q 2819 4750 3233 4129 
Q 3647 3509 3647 2328 
Q 3647 1150 3233 529 
Q 2819 -91 2034 -91 
Q 1250 -91 836 529 
Q 422 1150 422 2328 
Q 422 3509 836 4129 
Q 1250 4750 2034 4750 
z
" transform="scale(0.015625)"/>
       </defs>
       <use xlink:href="#DejaVuSans-30"/>
      </g>
     </g>
    </g>
    <g id="xtick_2">
     <g id="line2d_2">
      <g>
       <use xlink:href="#m877bd638fa" x="232.639239" y="227.834375" style="stroke: #000000; stroke-width: 0.8"/>
      </g>
     </g>
     <g id="text_2">
      <!-- 100 -->
      <g transform="translate(217.369239 248.491875) scale(0.16 -0.16)">
       <defs>
        <path id="DejaVuSans-31" d="M 794 531 
L 1825 531 
L 1825 4091 
L 703 3866 
L 703 4441 
L 1819 4666 
L 2450 4666 
L 2450 531 
L 3481 531 
L 3481 0 
L 794 0 
L 794 531 
z
" transform="scale(0.015625)"/>
       </defs>
       <use xlink:href="#DejaVuSans-31"/>
       <use xlink:href="#DejaVuSans-30" x="63.623047"/>
       <use xlink:href="#DejaVuSans-30" x="127.246094"/>
      </g>
     </g>
    </g>
    <g id="xtick_3">
     <g id="line2d_3">
      <g>
       <use xlink:href="#m877bd638fa" x="377.696432" y="227.834375" style="stroke: #000000; stroke-width: 0.8"/>
      </g>
     </g>
     <g id="text_3">
      <!-- 200 -->
      <g transform="translate(362.426432 248.491875) scale(0.16 -0.16)">
       <defs>
        <path id="DejaVuSans-32" d="M 1228 531 
L 3431 531 
L 3431 0 
L 469 0 
L 469 531 
Q 828 903 1448 1529 
Q 2069 2156 2228 2338 
Q 2531 2678 2651 2914 
Q 2772 3150 2772 3378 
Q 2772 3750 2511 3984 
Q 2250 4219 1831 4219 
Q 1534 4219 1204 4116 
Q 875 4013 500 3803 
L 500 4441 
Q 881 4594 1212 4672 
Q 1544 4750 1819 4750 
Q 2544 4750 2975 4387 
Q 3406 4025 3406 3419 
Q 3406 3131 3298 2873 
Q 3191 2616 2906 2266 
Q 2828 2175 2409 1742 
Q 1991 1309 1228 531 
z
" transform="scale(0.015625)"/>
       </defs>
       <use xlink:href="#DejaVuSans-32"/>
       <use xlink:href="#DejaVuSans-30" x="63.623047"/>
       <use xlink:href="#DejaVuSans-30" x="127.246094"/>
      </g>
     </g>
    </g>
    <g id="xtick_4">
     <g id="line2d_4">
      <g>
       <use xlink:href="#m877bd638fa" x="522.753625" y="227.834375" style="stroke: #000000; stroke-width: 0.8"/>
      </g>
     </g>
     <g id="text_4">
      <!-- 300 -->
      <g transform="translate(507.483625 248.491875) scale(0.16 -0.16)">
       <defs>
        <path id="DejaVuSans-33" d="M 2597 2516 
Q 3050 2419 3304 2112 
Q 3559 1806 3559 1356 
Q 3559 666 3084 287 
Q 2609 -91 1734 -91 
Q 1441 -91 1130 -33 
Q 819 25 488 141 
L 488 750 
Q 750 597 1062 519 
Q 1375 441 1716 441 
Q 2309 441 2620 675 
Q 2931 909 2931 1356 
Q 2931 1769 2642 2001 
Q 2353 2234 1838 2234 
L 1294 2234 
L 1294 2753 
L 1863 2753 
Q 2328 2753 2575 2939 
Q 2822 3125 2822 3475 
Q 2822 3834 2567 4026 
Q 2313 4219 1838 4219 
Q 1578 4219 1281 4162 
Q 984 4106 628 3988 
L 628 4550 
Q 988 4650 1302 4700 
Q 1616 4750 1894 4750 
Q 2613 4750 3031 4423 
Q 3450 4097 3450 3541 
Q 3450 3153 3228 2886 
Q 3006 2619 2597 2516 
z
" transform="scale(0.015625)"/>
       </defs>
       <use xlink:href="#DejaVuSans-33"/>
       <use xlink:href="#DejaVuSans-30" x="63.623047"/>
       <use xlink:href="#DejaVuSans-30" x="127.246094"/>
      </g>
     </g>
    </g>
    <g id="xtick_5">
     <g id="line2d_5">
      <g>
       <use xlink:href="#m877bd638fa" x="667.810818" y="227.834375" style="stroke: #000000; stroke-width: 0.8"/>
      </g>
     </g>
     <g id="text_5">
      <!-- 400 -->
      <g transform="translate(652.540818 248.491875) scale(0.16 -0.16)">
       <defs>
        <path id="DejaVuSans-34" d="M 2419 4116 
L 825 1625 
L 2419 1625 
L 2419 4116 
z
M 2253 4666 
L 3047 4666 
L 3047 1625 
L 3713 1625 
L 3713 1100 
L 3047 1100 
L 3047 0 
L 2419 0 
L 2419 1100 
L 313 1100 
L 313 1709 
L 2253 4666 
z
" transform="scale(0.015625)"/>
       </defs>
       <use xlink:href="#DejaVuSans-34"/>
       <use xlink:href="#DejaVuSans-30" x="63.623047"/>
       <use xlink:href="#DejaVuSans-30" x="127.246094"/>
      </g>
     </g>
    </g>
    <g id="xtick_6">
     <g id="line2d_6">
      <g>
       <use xlink:href="#m877bd638fa" x="812.868012" y="227.834375" style="stroke: #000000; stroke-width: 0.8"/>
      </g>
     </g>
     <g id="text_6">
      <!-- 500 -->
      <g transform="translate(797.598012 248.491875) scale(0.16 -0.16)">
       <defs>
        <path id="DejaVuSans-35" d="M 691 4666 
L 3169 4666 
L 3169 4134 
L 1269 4134 
L 1269 2991 
Q 1406 3038 1543 3061 
Q 1681 3084 1819 3084 
Q 2600 3084 3056 2656 
Q 3513 2228 3513 1497 
Q 3513 744 3044 326 
Q 2575 -91 1722 -91 
Q 1428 -91 1123 -41 
Q 819 9 494 109 
L 494 744 
Q 775 591 1075 516 
Q 1375 441 1709 441 
Q 2250 441 2565 725 
Q 2881 1009 2881 1497 
Q 2881 1984 2565 2268 
Q 2250 2553 1709 2553 
Q 1456 2553 1204 2497 
Q 953 2441 691 2322 
L 691 4666 
z
" transform="scale(0.015625)"/>
       </defs>
       <use xlink:href="#DejaVuSans-35"/>
       <use xlink:href="#DejaVuSans-30" x="63.623047"/>
       <use xlink:href="#DejaVuSans-30" x="127.246094"/>
      </g>
     </g>
    </g>
    <g id="text_7">
     <!-- Time (ms) -->
     <g transform="translate(404.793906 269.496562) scale(0.18 -0.18)">
      <defs>
       <path id="DejaVuSans-54" d="M -19 4666 
L 3928 4666 
L 3928 4134 
L 2272 4134 
L 2272 0 
L 1638 0 
L 1638 4134 
L -19 4134 
L -19 4666 
z
" transform="scale(0.015625)"/>
       <path id="DejaVuSans-69" d="M 603 3500 
L 1178 3500 
L 1178 0 
L 603 0 
L 603 3500 
z
M 603 4863 
L 1178 4863 
L 1178 4134 
L 603 4134 
L 603 4863 
z
" transform="scale(0.015625)"/>
       <path id="DejaVuSans-6d" d="M 3328 2828 
Q 3544 3216 3844 3400 
Q 4144 3584 4550 3584 
Q 5097 3584 5394 3201 
Q 5691 2819 5691 2113 
L 5691 0 
L 5113 0 
L 5113 2094 
Q 5113 2597 4934 2840 
Q 4756 3084 4391 3084 
Q 3944 3084 3684 2787 
Q 3425 2491 3425 1978 
L 3425 0 
L 2847 0 
L 2847 2094 
Q 2847 2600 2669 2842 
Q 2491 3084 2119 3084 
Q 1678 3084 1418 2786 
Q 1159 2488 1159 1978 
L 1159 0 
L 581 0 
L 581 3500 
L 1159 3500 
L 1159 2956 
Q 1356 3278 1631 3431 
Q 1906 3584 2284 3584 
Q 2666 3584 2933 3390 
Q 3200 3197 3328 2828 
z
" transform="scale(0.015625)"/>
       <path id="DejaVuSans-65" d="M 3597 1894 
L 3597 1613 
L 953 1613 
Q 991 1019 1311 708 
Q 1631 397 2203 397 
Q 2534 397 2845 478 
Q 3156 559 3463 722 
L 3463 178 
Q 3153 47 2828 -22 
Q 2503 -91 2169 -91 
Q 1331 -91 842 396 
Q 353 884 353 1716 
Q 353 2575 817 3079 
Q 1281 3584 2069 3584 
Q 2775 3584 3186 3129 
Q 3597 2675 3597 1894 
z
M 3022 2063 
Q 3016 2534 2758 2815 
Q 2500 3097 2075 3097 
Q 1594 3097 1305 2825 
Q 1016 2553 972 2059 
L 3022 2063 
z
" transform="scale(0.015625)"/>
       <path id="DejaVuSans-20" transform="scale(0.015625)"/>
       <path id="DejaVuSans-28" d="M 1984 4856 
Q 1566 4138 1362 3434 
Q 1159 2731 1159 2009 
Q 1159 1288 1364 580 
Q 1569 -128 1984 -844 
L 1484 -844 
Q 1016 -109 783 600 
Q 550 1309 550 2009 
Q 550 2706 781 3412 
Q 1013 4119 1484 4856 
L 1984 4856 
z
" transform="scale(0.015625)"/>
       <path id="DejaVuSans-73" d="M 2834 3397 
L 2834 2853 
Q 2591 2978 2328 3040 
Q 2066 3103 1784 3103 
Q 1356 3103 1142 2972 
Q 928 2841 928 2578 
Q 928 2378 1081 2264 
Q 1234 2150 1697 2047 
L 1894 2003 
Q 2506 1872 2764 1633 
Q 3022 1394 3022 966 
Q 3022 478 2636 193 
Q 2250 -91 1575 -91 
Q 1294 -91 989 -36 
Q 684 19 347 128 
L 347 722 
Q 666 556 975 473 
Q 1284 391 1588 391 
Q 1994 391 2212 530 
Q 2431 669 2431 922 
Q 2431 1156 2273 1281 
Q 2116 1406 1581 1522 
L 1381 1569 
Q 847 1681 609 1914 
Q 372 2147 372 2553 
Q 372 3047 722 3315 
Q 1072 3584 1716 3584 
Q 2034 3584 2315 3537 
Q 2597 3491 2834 3397 
z
" transform="scale(0.015625)"/>
       <path id="DejaVuSans-29" d="M 513 4856 
L 1013 4856 
Q 1481 4119 1714 3412 
Q 1947 2706 1947 2009 
Q 1947 1309 1714 600 
Q 1481 -109 1013 -844 
L 513 -844 
Q 928 -128 1133 580 
Q 1338 1288 1338 2009 
Q 1338 2731 1133 3434 
Q 928 4138 513 4856 
z
" transform="scale(0.015625)"/>
      </defs>
      <use xlink:href="#DejaVuSans-54"/>
      <use xlink:href="#DejaVuSans-69" x="57.958984"/>
      <use xlink:href="#DejaVuSans-6d" x="85.742188"/>
      <use xlink:href="#DejaVuSans-65" x="183.154297"/>
      <use xlink:href="#DejaVuSans-20" x="244.677734"/>
      <use xlink:href="#DejaVuSans-28" x="276.464844"/>
      <use xlink:href="#DejaVuSans-6d" x="315.478516"/>
      <use xlink:href="#DejaVuSans-73" x="412.890625"/>
      <use xlink:href="#DejaVuSans-29" x="464.990234"/>
     </g>
    </g>
   </g>
   <g id="matplotlib.axis_2">
    <g id="ytick_1">
     <g id="line2d_7">
      <defs>
       <path id="mec20d6f578" d="M 0 0 
L -5 0 
" style="stroke: #000000; stroke-width: 0.8"/>
      </defs>
      <g>
       <use xlink:href="#mec20d6f578" x="51.325" y="216.212913" style="stroke: #000000; stroke-width: 0.8"/>
      </g>
     </g>
     <g id="text_8">
      <!-- 0.50 -->
      <g transform="translate(7.2 222.291663) scale(0.16 -0.16)">
       <defs>
        <path id="DejaVuSans-2e" d="M 684 794 
L 1344 794 
L 1344 0 
L 684 0 
L 684 794 
z
" transform="scale(0.015625)"/>
       </defs>
       <use xlink:href="#DejaVuSans-30"/>
       <use xlink:href="#DejaVuSans-2e" x="63.623047"/>
       <use xlink:href="#DejaVuSans-35" x="95.410156"/>
       <use xlink:href="#DejaVuSans-30" x="159.033203"/>
      </g>
     </g>
    </g>
    <g id="ytick_2">
     <g id="line2d_8">
      <g>
       <use xlink:href="#mec20d6f578" x="51.325" y="180.0502" style="stroke: #000000; stroke-width: 0.8"/>
      </g>
     </g>
     <g id="text_9">
      <!-- 0.75 -->
      <g transform="translate(7.2 186.12895) scale(0.16 -0.16)">
       <defs>
        <path id="DejaVuSans-37" d="M 525 4666 
L 3525 4666 
L 3525 4397 
L 1831 0 
L 1172 0 
L 2766 4134 
L 525 4134 
L 525 4666 
z
" transform="scale(0.015625)"/>
       </defs>
       <use xlink:href="#DejaVuSans-30"/>
       <use xlink:href="#DejaVuSans-2e" x="63.623047"/>
       <use xlink:href="#DejaVuSans-37" x="95.410156"/>
       <use xlink:href="#DejaVuSans-35" x="159.033203"/>
      </g>
     </g>
    </g>
    <g id="ytick_3">
     <g id="line2d_9">
      <g>
       <use xlink:href="#mec20d6f578" x="51.325" y="143.887488" style="stroke: #000000; stroke-width: 0.8"/>
      </g>
     </g>
     <g id="text_10">
      <!-- 1.00 -->
      <g transform="translate(7.2 149.966238) scale(0.16 -0.16)">
       <use xlink:href="#DejaVuSans-31"/>
       <use xlink:href="#DejaVuSans-2e" x="63.623047"/>
       <use xlink:href="#DejaVuSans-30" x="95.410156"/>
       <use xlink:href="#DejaVuSans-30" x="159.033203"/>
      </g>
     </g>
    </g>
    <g id="ytick_4">
     <g id="line2d_10">
      <g>
       <use xlink:href="#mec20d6f578" x="51.325" y="107.724776" style="stroke: #000000; stroke-width: 0.8"/>
      </g>
     </g>
     <g id="text_11">
      <!-- 1.25 -->
      <g transform="translate(7.2 113.803526) scale(0.16 -0.16)">
       <use xlink:href="#DejaVuSans-31"/>
       <use xlink:href="#DejaVuSans-2e" x="63.623047"/>
       <use xlink:href="#DejaVuSans-32" x="95.410156"/>
       <use xlink:href="#DejaVuSans-35" x="159.033203"/>
      </g>
     </g>
    </g>
    <g id="ytick_5">
     <g id="line2d_11">
      <g>
       <use xlink:href="#mec20d6f578" x="51.325" y="71.562063" style="stroke: #000000; stroke-width: 0.8"/>
      </g>
     </g>
     <g id="text_12">
      <!-- 1.50 -->
      <g transform="translate(7.2 77.640813) scale(0.16 -0.16)">
       <use xlink:href="#DejaVuSans-31"/>
       <use xlink:href="#DejaVuSans-2e" x="63.623047"/>
       <use xlink:href="#DejaVuSans-35" x="95.410156"/>
       <use xlink:href="#DejaVuSans-30" x="159.033203"/>
      </g>
     </g>
    </g>
   </g>
   <g id="line2d_12">
    <path d="M 87.582045 192.150398 
L 812.722955 192.150398 
L 812.722955 192.150398 
" clip-path="url(#pfc712a8c2e)" style="fill: none; stroke: #1f77b4; stroke-width: 3; stroke-linecap: square"/>
   </g>
   <g id="line2d_13">
    <path d="M 87.582045 64.066906 
L 92.368933 98.231812 
L 94.254676 109.784918 
L 95.995363 119.053386 
L 97.590992 126.437235 
L 99.186621 132.854504 
L 100.78225 138.367513 
L 102.232822 142.595467 
L 103.538337 145.744879 
L 105.569137 149.891288 
L 107.019709 153.103569 
L 109.920853 159.91197 
L 110.791196 161.222363 
L 112.821997 163.782358 
L 114.417626 166.139446 
L 115.287969 166.985466 
L 116.738541 168.277918 
L 117.753942 169.649949 
L 118.914399 171.155516 
L 119.494628 171.539577 
L 119.9298 171.597706 
L 120.510028 171.40117 
L 121.525429 170.680322 
L 122.395772 170.188066 
L 122.976001 170.098312 
L 123.701287 170.241435 
L 124.861744 170.527888 
L 125.58703 170.457602 
L 126.60243 170.046477 
L 127.472774 169.762663 
L 128.488174 169.711354 
L 129.648631 169.594373 
L 130.518975 169.281951 
L 131.534375 168.651133 
L 133.565176 167.209497 
L 134.580576 166.87002 
L 135.741034 166.737519 
L 137.191606 166.794492 
L 138.061949 167.005659 
L 138.787235 167.426276 
L 139.512521 168.17956 
L 140.527921 169.640077 
L 142.268607 172.180363 
L 143.13895 173.093564 
L 144.009294 173.669953 
L 144.73458 173.876697 
L 145.314808 173.84177 
L 146.040094 173.542901 
L 147.780781 172.593548 
L 148.361009 172.639123 
L 150.39181 173.138096 
L 150.972039 172.95971 
L 151.697325 172.474411 
L 153.00284 171.512867 
L 153.438011 171.428381 
L 154.01824 171.5816 
L 156.194098 172.79392 
L 156.919384 173.362954 
L 157.64467 174.280278 
L 158.369956 175.580273 
L 159.530413 178.18486 
L 162.431557 185.447409 
L 164.027186 189.216732 
L 165.042587 191.076743 
L 166.783273 193.620158 
L 167.508559 194.440304 
L 168.088788 194.779497 
L 168.523959 194.817537 
L 168.959131 194.665542 
L 169.53936 194.168983 
L 170.264646 193.162372 
L 171.280046 191.723124 
L 171.715218 191.386863 
L 172.150389 191.287246 
L 172.585561 191.398244 
L 173.165789 191.797738 
L 173.891075 192.60008 
L 174.761419 193.907473 
L 181.288992 204.692604 
L 182.014278 205.367989 
L 182.739564 205.750705 
L 183.319793 205.830018 
L 183.900022 205.670901 
L 185.930822 204.710503 
L 188.251738 204.7246 
L 188.977024 204.910694 
L 189.557252 205.282193 
L 190.427595 206.152449 
L 192.168282 207.969774 
L 192.893568 208.422112 
L 193.473797 208.574977 
L 194.054025 208.512288 
L 194.634254 208.224283 
L 195.35954 207.589196 
L 196.37494 206.640188 
L 196.810112 206.479356 
L 197.245284 206.576576 
L 197.680455 206.924649 
L 198.405741 207.857561 
L 199.711256 209.55267 
L 200.581599 210.356987 
L 201.451942 210.89193 
L 202.757457 211.65706 
L 206.093772 214.27708 
L 208.26963 215.741711 
L 210.010317 216.833652 
L 211.025717 217.194068 
L 211.751003 217.233353 
L 212.476289 217.040793 
L 213.201575 216.590063 
L 213.926861 215.879635 
L 214.942261 214.536262 
L 216.973062 211.658397 
L 217.553291 211.313324 
L 218.133519 211.252902 
L 219.003863 211.431874 
L 220.599492 212.012074 
L 221.469835 212.545776 
L 222.77535 213.660488 
L 223.79075 214.401244 
L 224.516036 214.68461 
L 225.386379 214.780183 
L 226.401779 214.661934 
L 227.272123 214.372352 
L 227.852351 213.937276 
L 228.43258 213.176413 
L 229.012809 212.054588 
L 229.738095 210.193292 
L 231.04361 206.0526 
L 232.204067 202.657431 
L 233.364525 200.014407 
L 234.815097 197.27181 
L 235.830497 195.763208 
L 238.876698 191.900416 
L 239.747041 191.235153 
L 240.472327 190.967108 
L 241.197613 190.932905 
L 243.518528 191.032177 
L 244.243814 190.784023 
L 244.9691 190.31689 
L 245.9845 189.343939 
L 248.885644 186.085685 
L 250.336216 183.798409 
L 252.22196 180.710557 
L 252.802189 180.144886 
L 253.382417 179.873038 
L 253.962646 179.871917 
L 254.542875 180.10551 
L 255.268161 180.676984 
L 256.573676 182.12675 
L 258.169305 183.775173 
L 259.184705 184.580429 
L 260.055048 184.967809 
L 260.925391 185.098758 
L 262.230906 185.032085 
L 263.246306 185.02192 
L 263.826535 185.19978 
L 264.551821 185.696693 
L 265.712279 186.894588 
L 267.307908 188.510903 
L 268.323308 189.238519 
L 269.193651 189.610311 
L 270.209052 189.78987 
L 272.675024 189.975956 
L 273.40031 190.376803 
L 274.41571 191.20714 
L 276.011339 192.511628 
L 276.881683 192.915019 
L 277.606969 192.99422 
L 278.332255 192.844768 
L 279.492712 192.324749 
L 280.508112 191.649563 
L 283.409256 189.341878 
L 284.859828 188.761825 
L 285.875229 188.564522 
L 286.745572 188.626634 
L 287.470858 188.925046 
L 288.196144 189.509358 
L 289.211544 190.678715 
L 292.112688 194.502942 
L 296.464404 200.474858 
L 297.334747 201.398923 
L 297.914976 201.745514 
L 298.495204 201.852149 
L 299.075433 201.739625 
L 299.800719 201.349925 
L 300.671062 200.62681 
L 301.83152 199.344575 
L 302.701863 198.467326 
L 303.137035 198.264592 
L 303.572206 198.286483 
L 304.007378 198.522851 
L 304.587607 199.091532 
L 305.748064 200.637182 
L 309.374494 205.931083 
L 310.825066 208.454702 
L 314.306439 215.133757 
L 315.466896 216.533189 
L 318.658154 219.756959 
L 319.238383 219.99741 
L 319.818612 220.023603 
L 320.688955 219.783153 
L 321.559298 219.604538 
L 323.00987 219.515521 
L 324.02527 219.079173 
L 325.040671 218.447669 
L 325.765957 217.737745 
L 326.6363 216.526369 
L 327.506643 214.916616 
L 329.682501 210.082743 
L 330.697901 207.554554 
L 331.568245 204.755828 
L 332.583645 200.557593 
L 334.034217 194.411714 
L 334.614446 192.874195 
L 335.049617 192.255309 
L 335.484789 192.03759 
L 335.91996 192.108599 
L 336.500189 192.461173 
L 339.256276 194.485035 
L 339.981562 194.578349 
L 340.706848 194.401532 
L 341.577191 193.921967 
L 342.592591 193.083732 
L 343.317877 192.224598 
L 344.18822 190.81976 
L 345.058563 189.439262 
L 345.493735 189.018041 
L 345.928907 188.872987 
L 346.364078 189.01404 
L 346.79925 189.418578 
L 347.379479 190.310734 
L 348.104765 191.877594 
L 349.265222 195.004114 
L 352.311423 203.939114 
L 354.922453 212.372209 
L 355.647739 213.84328 
L 356.373025 214.796746 
L 357.098311 215.360236 
L 357.823596 215.636619 
L 359.70934 216.138066 
L 361.159912 216.797298 
L 361.740141 216.815443 
L 362.465427 216.609083 
L 363.770941 215.932375 
L 364.931399 215.10327 
L 366.672085 213.703554 
L 367.397371 213.441544 
L 368.267714 213.410756 
L 370.733687 213.584547 
L 372.039201 213.273021 
L 372.909545 212.853344 
L 373.634831 212.194745 
L 374.360117 211.154492 
L 375.085402 209.707924 
L 375.955746 207.428951 
L 377.116203 203.641694 
L 379.001947 197.327094 
L 379.87229 195.172318 
L 380.597576 193.886858 
L 381.177805 193.222966 
L 381.758033 192.841665 
L 382.628377 192.570947 
L 384.369063 192.334742 
L 385.674578 192.029313 
L 386.689978 191.580131 
L 387.705378 190.888683 
L 390.026293 189.065168 
L 390.461465 189.015282 
L 390.896637 189.148041 
L 391.476865 189.601172 
L 392.202151 190.50783 
L 394.668124 193.915009 
L 395.248352 194.302286 
L 395.683524 194.397488 
L 396.118696 194.314779 
L 396.698924 193.978448 
L 398.729725 192.540408 
L 399.455011 192.302212 
L 400.180297 192.282614 
L 400.905583 192.474201 
L 401.775926 192.942178 
L 403.226498 194.040819 
L 404.967184 195.309699 
L 405.982585 195.793169 
L 406.997985 196.034271 
L 409.754072 196.344865 
L 410.769472 196.316922 
L 411.494758 196.061352 
L 412.220044 195.52171 
L 412.94533 194.661662 
L 413.815673 193.257937 
L 415.266245 190.434216 
L 416.57176 187.477668 
L 418.022332 184.162579 
L 419.182789 182.14483 
L 420.19819 180.718748 
L 420.778418 180.238795 
L 421.358647 180.089214 
L 421.938876 180.196625 
L 422.809219 180.613898 
L 426.145535 182.663289 
L 426.87082 183.550633 
L 427.741164 185.028843 
L 429.626907 188.399638 
L 430.49725 189.456213 
L 431.512651 190.314028 
L 432.528051 190.881105 
L 433.398394 191.115938 
L 434.12368 191.080209 
L 434.703909 190.85936 
L 435.429195 190.301983 
L 436.299538 189.263454 
L 437.314938 188.09088 
L 437.75011 187.856719 
L 438.185282 187.869868 
L 438.620453 188.142724 
L 439.200682 188.859123 
L 440.216082 190.644943 
L 442.101826 194.451401 
L 445.873313 202.544881 
L 447.178828 204.688336 
L 449.6448 208.577245 
L 451.820658 212.012177 
L 452.836058 213.257709 
L 453.851458 214.122163 
L 454.721802 214.593822 
L 455.30203 214.690904 
L 455.737202 214.586303 
L 456.172374 214.297126 
L 456.752602 213.616585 
L 457.477888 212.376865 
L 458.493289 210.164047 
L 459.363632 207.748451 
L 460.379032 204.198563 
L 461.974661 198.496072 
L 462.699947 196.654925 
L 463.280176 195.665988 
L 463.860405 195.123932 
L 464.295576 194.991216 
L 464.730748 195.054862 
L 465.310977 195.377828 
L 466.036263 196.062068 
L 467.19672 197.533053 
L 468.357178 198.87552 
L 469.227521 199.523453 
L 470.678093 200.527115 
L 472.999008 202.38254 
L 473.724294 202.610355 
L 474.44958 202.57648 
L 475.174866 202.263256 
L 477.785895 200.483299 
L 478.511181 199.762623 
L 480.541982 197.33143 
L 481.122211 197.109874 
L 481.847497 197.098114 
L 482.71784 197.310419 
L 488.084956 199.415593 
L 488.810242 199.966358 
L 489.535528 200.789159 
L 490.405871 202.152336 
L 491.276214 203.989526 
L 493.161958 208.151618 
L 494.177358 209.751594 
L 495.047701 210.724468 
L 495.918044 211.347001 
L 496.788388 211.71043 
L 497.658731 211.854044 
L 500.559875 212.019394 
L 502.010447 212.260616 
L 502.735733 212.148653 
L 505.926991 211.141714 
L 506.50722 210.635309 
L 507.087448 209.818457 
L 507.812734 208.400169 
L 508.828135 205.844269 
L 510.278707 202.187686 
L 511.003993 200.904848 
L 511.729279 200.048774 
L 512.744679 199.285662 
L 514.485365 198.264919 
L 516.80628 197.226123 
L 518.982138 196.578225 
L 520.577767 196.320233 
L 521.738225 196.036461 
L 522.463511 195.639183 
L 523.188797 194.967514 
L 523.914083 193.951186 
L 524.784426 192.295228 
L 526.380055 189.156689 
L 527.250398 187.984297 
L 530.006485 184.983561 
L 530.586714 184.759255 
L 531.166942 184.818953 
L 531.892228 185.186244 
L 532.907629 185.994664 
L 534.213143 187.313887 
L 535.228544 188.707266 
L 537.404402 191.931506 
L 538.274745 192.715897 
L 540.015431 194.024593 
L 540.885774 195.202167 
L 542.191289 197.023501 
L 542.916575 197.647896 
L 543.641861 197.959188 
L 545.23749 198.470128 
L 545.962776 198.98863 
L 546.833119 199.93381 
L 548.718863 202.579644 
L 550.169435 204.672343 
L 551.329892 206.908294 
L 553.50575 211.223303 
L 554.666208 213.036955 
L 555.536551 214.04185 
L 556.551951 214.849494 
L 557.857466 215.605011 
L 558.582752 215.82642 
L 559.308038 215.808616 
L 560.178381 215.515792 
L 562.499296 214.59859 
L 563.079525 214.676816 
L 564.094925 215.125161 
L 564.820211 215.374066 
L 565.40044 215.330508 
L 565.980669 215.015465 
L 568.156527 213.417808 
L 569.607099 212.811752 
L 570.187327 212.273808 
L 571.202728 210.92146 
L 572.218128 209.660289 
L 573.523643 208.529057 
L 574.393986 207.579712 
L 575.119272 206.438186 
L 576.134672 204.360981 
L 579.180873 197.824429 
L 580.92156 194.802233 
L 582.082017 192.620419 
L 583.532589 189.351483 
L 585.128218 185.145462 
L 586.288676 182.259966 
L 587.013962 181.005856 
L 587.594191 180.370339 
L 588.319477 179.909086 
L 589.18982 179.639679 
L 591.800849 179.049176 
L 592.526135 178.557023 
L 593.251421 177.810025 
L 593.976707 176.771651 
L 595.137165 174.626135 
L 595.862451 173.442896 
L 596.442679 172.884433 
L 597.022908 172.68269 
L 597.748194 172.715401 
L 599.053709 172.809457 
L 600.069109 172.62757 
L 601.519681 172.335703 
L 602.09991 172.475256 
L 602.680139 172.873086 
L 603.405425 173.727159 
L 604.275768 175.175037 
L 605.581283 177.880164 
L 607.031855 181.399755 
L 608.337369 185.177622 
L 612.689085 198.305985 
L 613.849543 201.040323 
L 615.01 203.188641 
L 616.460572 205.312611 
L 618.201258 207.90073 
L 619.65183 210.038676 
L 620.232059 210.575335 
L 620.812288 210.818162 
L 621.392517 210.775716 
L 622.843089 210.42047 
L 623.27826 210.654389 
L 623.858489 211.331395 
L 626.759633 215.48559 
L 628.065148 216.967162 
L 628.790433 217.479344 
L 629.370662 217.659825 
L 630.095948 217.619147 
L 632.706978 217.139845 
L 633.722378 216.92407 
L 634.302607 216.615713 
L 634.882836 216.068514 
L 635.608122 215.025105 
L 637.203751 212.471111 
L 637.783979 211.965102 
L 638.509265 211.672407 
L 639.524666 211.563935 
L 641.120295 211.39474 
L 641.700524 211.132342 
L 642.280752 210.652415 
L 643.006038 209.713442 
L 644.601668 207.446668 
L 645.326954 206.946954 
L 647.06764 205.964363 
L 648.808326 204.591703 
L 649.678669 204.011796 
L 650.258898 203.87964 
L 650.984184 203.97592 
L 653.014985 204.606877 
L 653.740271 205.075924 
L 654.465557 205.820025 
L 655.190843 206.897387 
L 656.206243 208.901849 
L 657.511758 211.472871 
L 658.237044 212.462575 
L 658.817272 212.936751 
L 659.397501 213.122958 
L 659.97773 213.032083 
L 660.557959 212.670155 
L 661.138188 212.044958 
L 661.863474 210.940066 
L 663.459103 208.327823 
L 664.909675 206.691988 
L 666.215189 205.347305 
L 666.940475 204.917161 
L 667.665761 204.747508 
L 668.536104 204.809215 
L 669.986676 205.193655 
L 670.711962 205.588847 
L 671.727363 206.469725 
L 672.88782 207.409422 
L 673.758163 207.837635 
L 674.628507 208.042301 
L 675.353793 207.993717 
L 675.934021 207.742752 
L 676.51425 207.2591 
L 677.094479 206.506196 
L 677.819765 205.124275 
L 678.545051 203.190598 
L 679.415394 200.168765 
L 681.881366 190.971272 
L 682.606652 189.307227 
L 683.186881 188.464992 
L 683.76711 187.955069 
L 684.637453 187.507353 
L 686.233082 186.934947 
L 687.103425 186.855169 
L 688.263883 187.017226 
L 689.279283 187.36542 
L 692.760656 188.824489 
L 694.211228 189.080894 
L 696.242028 189.274136 
L 696.967314 189.070014 
L 697.837657 188.544192 
L 698.853058 187.658322 
L 699.868458 186.498741 
L 701.754202 184.251056 
L 702.33443 183.931884 
L 702.914659 183.909544 
L 703.639945 184.201644 
L 706.541089 185.760865 
L 708.862004 186.806085 
L 711.473034 188.153691 
L 712.923606 188.874513 
L 713.939006 189.749891 
L 716.404978 192.198284 
L 717.565436 193.954868 
L 718.870951 195.849272 
L 719.741294 196.730383 
L 720.46658 197.166529 
L 721.046808 197.304875 
L 721.627037 197.252928 
L 722.352323 196.944507 
L 723.947952 196.06556 
L 724.528181 196.072863 
L 725.10841 196.319801 
L 726.12381 197.070067 
L 728.009554 198.465343 
L 728.73484 198.735552 
L 729.170011 198.709997 
L 729.75024 198.413604 
L 730.76564 197.465388 
L 731.345869 197.084147 
L 731.781041 197.081793 
L 732.216212 197.383869 
L 732.796441 198.219663 
L 733.666784 200.041903 
L 735.552528 204.105076 
L 736.277814 205.132819 
L 736.858042 205.618808 
L 737.293214 205.752283 
L 737.728386 205.649441 
L 738.163557 205.284555 
L 738.743786 204.40804 
L 740.339415 201.596433 
L 740.774587 201.361039 
L 741.209758 201.420487 
L 741.789987 201.826206 
L 744.110902 203.951227 
L 744.981245 204.247759 
L 748.462618 205.091383 
L 749.332961 205.707354 
L 754.119848 209.739161 
L 755.425363 210.465493 
L 756.150649 210.643974 
L 756.875935 210.597321 
L 759.632022 210.104711 
L 761.80788 210.37023 
L 763.693623 210.874385 
L 765.43431 211.20856 
L 766.159596 211.154518 
L 766.884881 210.885654 
L 767.755225 210.295944 
L 768.770625 209.316742 
L 769.786025 208.360181 
L 770.511311 207.980284 
L 774.137741 206.679176 
L 775.298199 206.313057 
L 776.168542 206.28301 
L 778.3444 206.428444 
L 779.069686 206.185316 
L 779.794972 205.71964 
L 780.520258 205.007794 
L 781.535658 203.645238 
L 784.436802 199.247122 
L 785.452202 196.799962 
L 788.063232 190.111026 
L 788.788518 188.919726 
L 789.368746 188.356744 
L 789.948975 188.096993 
L 790.529204 188.086733 
L 791.25449 188.34976 
L 792.26989 189.008453 
L 796.041377 191.649278 
L 797.056778 192.095356 
L 797.782064 192.211915 
L 798.50735 192.107772 
L 799.232636 191.782314 
L 804.454695 188.848647 
L 805.034923 188.847966 
L 805.760209 189.098612 
L 806.485495 189.60988 
L 809.676753 192.352839 
L 812.142726 193.761445 
L 812.722955 194.285283 
L 812.722955 194.285283 
" clip-path="url(#pfc712a8c2e)" style="fill: none; stroke: #ff7f0e; stroke-width: 3; stroke-linecap: square"/>
   </g>
   <g id="patch_3">
    <path d="M 51.325 227.834375 
L 51.325 56.268455 
" style="fill: none; stroke: #000000; stroke-width: 0.8; stroke-linejoin: miter; stroke-linecap: square"/>
   </g>
   <g id="patch_4">
    <path d="M 51.325 227.834375 
L 848.98 227.834375 
" style="fill: none; stroke: #000000; stroke-width: 0.8; stroke-linejoin: miter; stroke-linecap: square"/>
   </g>
   <g id="legend_1">
    <g id="patch_5">
     <path d="M 589.872812 123.509705 
L 836.38 123.509705 
Q 839.98 123.509705 839.98 119.909705 
L 839.98 68.868455 
Q 839.98 65.268455 836.38 65.268455 
L 589.872812 65.268455 
Q 586.272812 65.268455 586.272812 68.868455 
L 586.272812 119.909705 
Q 586.272812 123.509705 589.872812 123.509705 
z
" style="fill: #ffffff; opacity: 0.8; stroke: #cccccc; stroke-linejoin: miter"/>
    </g>
    <g id="line2d_14">
     <path d="M 593.472812 79.845643 
L 611.472812 79.845643 
L 629.472812 79.845643 
" style="fill: none; stroke: #1f77b4; stroke-width: 3; stroke-linecap: square"/>
    </g>
    <g id="text_13">
     <!-- True Output = 1.262 -->
     <g transform="translate(643.872812 86.145643) scale(0.18 -0.18)">
      <defs>
       <path id="DejaVuSans-72" d="M 2631 2963 
Q 2534 3019 2420 3045 
Q 2306 3072 2169 3072 
Q 1681 3072 1420 2755 
Q 1159 2438 1159 1844 
L 1159 0 
L 581 0 
L 581 3500 
L 1159 3500 
L 1159 2956 
Q 1341 3275 1631 3429 
Q 1922 3584 2338 3584 
Q 2397 3584 2469 3576 
Q 2541 3569 2628 3553 
L 2631 2963 
z
" transform="scale(0.015625)"/>
       <path id="DejaVuSans-75" d="M 544 1381 
L 544 3500 
L 1119 3500 
L 1119 1403 
Q 1119 906 1312 657 
Q 1506 409 1894 409 
Q 2359 409 2629 706 
Q 2900 1003 2900 1516 
L 2900 3500 
L 3475 3500 
L 3475 0 
L 2900 0 
L 2900 538 
Q 2691 219 2414 64 
Q 2138 -91 1772 -91 
Q 1169 -91 856 284 
Q 544 659 544 1381 
z
M 1991 3584 
L 1991 3584 
z
" transform="scale(0.015625)"/>
       <path id="DejaVuSans-4f" d="M 2522 4238 
Q 1834 4238 1429 3725 
Q 1025 3213 1025 2328 
Q 1025 1447 1429 934 
Q 1834 422 2522 422 
Q 3209 422 3611 934 
Q 4013 1447 4013 2328 
Q 4013 3213 3611 3725 
Q 3209 4238 2522 4238 
z
M 2522 4750 
Q 3503 4750 4090 4092 
Q 4678 3434 4678 2328 
Q 4678 1225 4090 567 
Q 3503 -91 2522 -91 
Q 1538 -91 948 565 
Q 359 1222 359 2328 
Q 359 3434 948 4092 
Q 1538 4750 2522 4750 
z
" transform="scale(0.015625)"/>
       <path id="DejaVuSans-74" d="M 1172 4494 
L 1172 3500 
L 2356 3500 
L 2356 3053 
L 1172 3053 
L 1172 1153 
Q 1172 725 1289 603 
Q 1406 481 1766 481 
L 2356 481 
L 2356 0 
L 1766 0 
Q 1100 0 847 248 
Q 594 497 594 1153 
L 594 3053 
L 172 3053 
L 172 3500 
L 594 3500 
L 594 4494 
L 1172 4494 
z
" transform="scale(0.015625)"/>
       <path id="DejaVuSans-70" d="M 1159 525 
L 1159 -1331 
L 581 -1331 
L 581 3500 
L 1159 3500 
L 1159 2969 
Q 1341 3281 1617 3432 
Q 1894 3584 2278 3584 
Q 2916 3584 3314 3078 
Q 3713 2572 3713 1747 
Q 3713 922 3314 415 
Q 2916 -91 2278 -91 
Q 1894 -91 1617 61 
Q 1341 213 1159 525 
z
M 3116 1747 
Q 3116 2381 2855 2742 
Q 2594 3103 2138 3103 
Q 1681 3103 1420 2742 
Q 1159 2381 1159 1747 
Q 1159 1113 1420 752 
Q 1681 391 2138 391 
Q 2594 391 2855 752 
Q 3116 1113 3116 1747 
z
" transform="scale(0.015625)"/>
       <path id="DejaVuSans-3d" d="M 678 2906 
L 4684 2906 
L 4684 2381 
L 678 2381 
L 678 2906 
z
M 678 1631 
L 4684 1631 
L 4684 1100 
L 678 1100 
L 678 1631 
z
" transform="scale(0.015625)"/>
       <path id="DejaVuSans-36" d="M 2113 2584 
Q 1688 2584 1439 2293 
Q 1191 2003 1191 1497 
Q 1191 994 1439 701 
Q 1688 409 2113 409 
Q 2538 409 2786 701 
Q 3034 994 3034 1497 
Q 3034 2003 2786 2293 
Q 2538 2584 2113 2584 
z
M 3366 4563 
L 3366 3988 
Q 3128 4100 2886 4159 
Q 2644 4219 2406 4219 
Q 1781 4219 1451 3797 
Q 1122 3375 1075 2522 
Q 1259 2794 1537 2939 
Q 1816 3084 2150 3084 
Q 2853 3084 3261 2657 
Q 3669 2231 3669 1497 
Q 3669 778 3244 343 
Q 2819 -91 2113 -91 
Q 1303 -91 875 529 
Q 447 1150 447 2328 
Q 447 3434 972 4092 
Q 1497 4750 2381 4750 
Q 2619 4750 2861 4703 
Q 3103 4656 3366 4563 
z
" transform="scale(0.015625)"/>
      </defs>
      <use xlink:href="#DejaVuSans-54"/>
      <use xlink:href="#DejaVuSans-72" x="46.333984"/>
      <use xlink:href="#DejaVuSans-75" x="87.447266"/>
      <use xlink:href="#DejaVuSans-65" x="150.826172"/>
      <use xlink:href="#DejaVuSans-20" x="212.349609"/>
      <use xlink:href="#DejaVuSans-4f" x="244.136719"/>
      <use xlink:href="#DejaVuSans-75" x="322.847656"/>
      <use xlink:href="#DejaVuSans-74" x="386.226562"/>
      <use xlink:href="#DejaVuSans-70" x="425.435547"/>
      <use xlink:href="#DejaVuSans-75" x="488.912109"/>
      <use xlink:href="#DejaVuSans-74" x="552.291016"/>
      <use xlink:href="#DejaVuSans-20" x="591.5"/>
      <use xlink:href="#DejaVuSans-3d" x="623.287109"/>
      <use xlink:href="#DejaVuSans-20" x="707.076172"/>
      <use xlink:href="#DejaVuSans-31" x="738.863281"/>
      <use xlink:href="#DejaVuSans-2e" x="802.486328"/>
      <use xlink:href="#DejaVuSans-32" x="834.273438"/>
      <use xlink:href="#DejaVuSans-36" x="897.896484"/>
      <use xlink:href="#DejaVuSans-32" x="961.519531"/>
     </g>
    </g>
    <g id="line2d_15">
     <path d="M 593.472812 106.266268 
L 611.472812 106.266268 
L 629.472812 106.266268 
" style="fill: none; stroke: #ff7f0e; stroke-width: 3; stroke-linecap: square"/>
    </g>
    <g id="text_14">
     <!-- Model Output=1.225 -->
     <g transform="translate(643.872812 112.566268) scale(0.18 -0.18)">
      <defs>
       <path id="DejaVuSans-4d" d="M 628 4666 
L 1569 4666 
L 2759 1491 
L 3956 4666 
L 4897 4666 
L 4897 0 
L 4281 0 
L 4281 4097 
L 3078 897 
L 2444 897 
L 1241 4097 
L 1241 0 
L 628 0 
L 628 4666 
z
" transform="scale(0.015625)"/>
       <path id="DejaVuSans-6f" d="M 1959 3097 
Q 1497 3097 1228 2736 
Q 959 2375 959 1747 
Q 959 1119 1226 758 
Q 1494 397 1959 397 
Q 2419 397 2687 759 
Q 2956 1122 2956 1747 
Q 2956 2369 2687 2733 
Q 2419 3097 1959 3097 
z
M 1959 3584 
Q 2709 3584 3137 3096 
Q 3566 2609 3566 1747 
Q 3566 888 3137 398 
Q 2709 -91 1959 -91 
Q 1206 -91 779 398 
Q 353 888 353 1747 
Q 353 2609 779 3096 
Q 1206 3584 1959 3584 
z
" transform="scale(0.015625)"/>
       <path id="DejaVuSans-64" d="M 2906 2969 
L 2906 4863 
L 3481 4863 
L 3481 0 
L 2906 0 
L 2906 525 
Q 2725 213 2448 61 
Q 2172 -91 1784 -91 
Q 1150 -91 751 415 
Q 353 922 353 1747 
Q 353 2572 751 3078 
Q 1150 3584 1784 3584 
Q 2172 3584 2448 3432 
Q 2725 3281 2906 2969 
z
M 947 1747 
Q 947 1113 1208 752 
Q 1469 391 1925 391 
Q 2381 391 2643 752 
Q 2906 1113 2906 1747 
Q 2906 2381 2643 2742 
Q 2381 3103 1925 3103 
Q 1469 3103 1208 2742 
Q 947 2381 947 1747 
z
" transform="scale(0.015625)"/>
       <path id="DejaVuSans-6c" d="M 603 4863 
L 1178 4863 
L 1178 0 
L 603 0 
L 603 4863 
z
" transform="scale(0.015625)"/>
      </defs>
      <use xlink:href="#DejaVuSans-4d"/>
      <use xlink:href="#DejaVuSans-6f" x="86.279297"/>
      <use xlink:href="#DejaVuSans-64" x="147.460938"/>
      <use xlink:href="#DejaVuSans-65" x="210.9375"/>
      <use xlink:href="#DejaVuSans-6c" x="272.460938"/>
      <use xlink:href="#DejaVuSans-20" x="300.244141"/>
      <use xlink:href="#DejaVuSans-4f" x="332.03125"/>
      <use xlink:href="#DejaVuSans-75" x="410.742188"/>
      <use xlink:href="#DejaVuSans-74" x="474.121094"/>
      <use xlink:href="#DejaVuSans-70" x="513.330078"/>
      <use xlink:href="#DejaVuSans-75" x="576.806641"/>
      <use xlink:href="#DejaVuSans-74" x="640.185547"/>
      <use xlink:href="#DejaVuSans-3d" x="679.394531"/>
      <use xlink:href="#DejaVuSans-31" x="763.183594"/>
      <use xlink:href="#DejaVuSans-2e" x="826.806641"/>
      <use xlink:href="#DejaVuSans-32" x="858.59375"/>
      <use xlink:href="#DejaVuSans-32" x="922.216797"/>
      <use xlink:href="#DejaVuSans-35" x="985.839844"/>
     </g>
    </g>
   </g>
  </g>
  <g id="text_15">
   <!-- Output of the Model -->
   <g transform="translate(342.867813 20.877187) scale(0.18 -0.18)">
    <defs>
     <path id="DejaVuSans-66" d="M 2375 4863 
L 2375 4384 
L 1825 4384 
Q 1516 4384 1395 4259 
Q 1275 4134 1275 3809 
L 1275 3500 
L 2222 3500 
L 2222 3053 
L 1275 3053 
L 1275 0 
L 697 0 
L 697 3053 
L 147 3053 
L 147 3500 
L 697 3500 
L 697 3744 
Q 697 4328 969 4595 
Q 1241 4863 1831 4863 
L 2375 4863 
z
" transform="scale(0.015625)"/>
     <path id="DejaVuSans-68" d="M 3513 2113 
L 3513 0 
L 2938 0 
L 2938 2094 
Q 2938 2591 2744 2837 
Q 2550 3084 2163 3084 
Q 1697 3084 1428 2787 
Q 1159 2491 1159 1978 
L 1159 0 
L 581 0 
L 581 4863 
L 1159 4863 
L 1159 2956 
Q 1366 3272 1645 3428 
Q 1925 3584 2291 3584 
Q 2894 3584 3203 3211 
Q 3513 2838 3513 2113 
z
" transform="scale(0.015625)"/>
    </defs>
    <use xlink:href="#DejaVuSans-4f"/>
    <use xlink:href="#DejaVuSans-75" x="78.710938"/>
    <use xlink:href="#DejaVuSans-74" x="142.089844"/>
    <use xlink:href="#DejaVuSans-70" x="181.298828"/>
    <use xlink:href="#DejaVuSans-75" x="244.775391"/>
    <use xlink:href="#DejaVuSans-74" x="308.154297"/>
    <use xlink:href="#DejaVuSans-20" x="347.363281"/>
    <use xlink:href="#DejaVuSans-6f" x="379.150391"/>
    <use xlink:href="#DejaVuSans-66" x="440.332031"/>
    <use xlink:href="#DejaVuSans-20" x="475.537109"/>
    <use xlink:href="#DejaVuSans-74" x="507.324219"/>
    <use xlink:href="#DejaVuSans-68" x="546.533203"/>
    <use xlink:href="#DejaVuSans-65" x="609.912109"/>
    <use xlink:href="#DejaVuSans-20" x="671.435547"/>
    <use xlink:href="#DejaVuSans-4d" x="703.222656"/>
    <use xlink:href="#DejaVuSans-6f" x="789.501953"/>
    <use xlink:href="#DejaVuSans-64" x="850.683594"/>
    <use xlink:href="#DejaVuSans-65" x="914.160156"/>
    <use xlink:href="#DejaVuSans-6c" x="975.683594"/>
   </g>
  </g>
 </g>
 <defs>
  <clipPath id="pfc712a8c2e">
   <rect x="51.325" y="56.268455" width="797.655" height="171.56592"/>
  </clipPath>
 </defs>
</svg>
