<?xml version="1.0" encoding="utf-8" standalone="no"?>
<!DOCTYPE svg PUBLIC "-//W3C//DTD SVG 1.1//EN"
  "http://www.w3.org/Graphics/SVG/1.1/DTD/svg11.dtd">
<svg xmlns:xlink="http://www.w3.org/1999/xlink" width="720.351641pt" height="408.327337pt" viewBox="0 0 720.351641 408.327337" xmlns="http://www.w3.org/2000/svg" version="1.1">
 <metadata>
  <rdf:RDF xmlns:dc="http://purl.org/dc/elements/1.1/" xmlns:cc="http://creativecommons.org/ns#" xmlns:rdf="http://www.w3.org/1999/02/22-rdf-syntax-ns#">
   <cc:Work>
    <dc:type rdf:resource="http://purl.org/dc/dcmitype/StillImage"/>
    <dc:date>2025-10-21T12:05:14.488106</dc:date>
    <dc:format>image/svg+xml</dc:format>
    <dc:creator>
     <cc:Agent>
      <dc:title>Matplotlib v3.8.2, https://matplotlib.org/</dc:title>
     </cc:Agent>
    </dc:creator>
   </cc:Work>
  </rdf:RDF>
 </metadata>
 <defs>
  <style type="text/css">*{stroke-linejoin: round; stroke-linecap: butt}</style>
 </defs>
 <g id="figure_1">
  <g id="patch_1">
   <path d="M 0 408.327337 
L 720.351641 408.327337 
L 720.351641 0 
L 0 0 
z
" style="fill: #ffffff"/>
  </g>
  <g id="axes_1">
   <g id="patch_2">
    <path d="M 71.377422 401.127337 
L 713.151641 401.127337 
L 713.151641 96.85065 
L 71.377422 96.85065 
z
" style="fill: #ffffff"/>
   </g>
   <g id="matplotlib.axis_1"/>
   <g id="matplotlib.axis_2">
    <g id="ytick_1">
     <g id="line2d_1">
      <path d="M 71.377422 368.765063 
L 713.151641 368.765063 
" clip-path="url(#p2b0c4d9c39)" style="fill: none; stroke: #b0b0b0; stroke-opacity: 0.3; stroke-width: 0.8; stroke-linecap: square"/>
     </g>
     <g id="line2d_2">
      <defs>
       <path id="mfc8929533a" d="M 0 0 
L -5 0 
" style="stroke: #000000; stroke-width: 0.8"/>
      </defs>
      <g>
       <use xlink:href="#mfc8929533a" x="71.377422" y="368.765063" style="stroke: #000000; stroke-width: 0.8"/>
      </g>
     </g>
     <g id="text_1">
      <!-- 1 -->
      <g transform="translate(52.697422 374.843813) scale(0.16 -0.16)">
       <defs>
        <path id="DejaVuSans-31" d="M 794 531 
L 1825 531 
L 1825 4091 
L 703 3866 
L 703 4441 
L 1819 4666 
L 2450 4666 
L 2450 531 
L 3481 531 
L 3481 0 
L 794 0 
L 794 531 
z
" transform="scale(0.015625)"/>
       </defs>
       <use xlink:href="#DejaVuSans-31"/>
      </g>
     </g>
    </g>
    <g id="ytick_2">
     <g id="line2d_3">
      <path d="M 71.377422 304.244149 
L 713.151641 304.244149 
" clip-path="url(#p2b0c4d9c39)" style="fill: none; stroke: #b0b0b0; stroke-opacity: 0.3; stroke-width: 0.8; stroke-linecap: square"/>
     </g>
     <g id="line2d_4">
      <g>
       <use xlink:href="#mfc8929533a" x="71.377422" y="304.244149" style="stroke: #000000; stroke-width: 0.8"/>
      </g>
     </g>
     <g id="text_2">
      <!-- 2 -->
      <g transform="translate(52.697422 310.322899) scale(0.16 -0.16)">
       <defs>
        <path id="DejaVuSans-32" d="M 1228 531 
L 3431 531 
L 3431 0 
L 469 0 
L 469 531 
Q 828 903 1448 1529 
Q 2069 2156 2228 2338 
Q 2531 2678 2651 2914 
Q 2772 3150 2772 3378 
Q 2772 3750 2511 3984 
Q 2250 4219 1831 4219 
Q 1534 4219 1204 4116 
Q 875 4013 500 3803 
L 500 4441 
Q 881 4594 1212 4672 
Q 1544 4750 1819 4750 
Q 2544 4750 2975 4387 
Q 3406 4025 3406 3419 
Q 3406 3131 3298 2873 
Q 3191 2616 2906 2266 
Q 2828 2175 2409 1742 
Q 1991 1309 1228 531 
z
" transform="scale(0.015625)"/>
       </defs>
       <use xlink:href="#DejaVuSans-32"/>
      </g>
     </g>
    </g>
    <g id="ytick_3">
     <g id="line2d_5">
      <path d="M 71.377422 239.723236 
L 713.151641 239.723236 
" clip-path="url(#p2b0c4d9c39)" style="fill: none; stroke: #b0b0b0; stroke-opacity: 0.3; stroke-width: 0.8; stroke-linecap: square"/>
     </g>
     <g id="line2d_6">
      <g>
       <use xlink:href="#mfc8929533a" x="71.377422" y="239.723236" style="stroke: #000000; stroke-width: 0.8"/>
      </g>
     </g>
     <g id="text_3">
      <!-- 3 -->
      <g transform="translate(52.697422 245.801986) scale(0.16 -0.16)">
       <defs>
        <path id="DejaVuSans-33" d="M 2597 2516 
Q 3050 2419 3304 2112 
Q 3559 1806 3559 1356 
Q 3559 666 3084 287 
Q 2609 -91 1734 -91 
Q 1441 -91 1130 -33 
Q 819 25 488 141 
L 488 750 
Q 750 597 1062 519 
Q 1375 441 1716 441 
Q 2309 441 2620 675 
Q 2931 909 2931 1356 
Q 2931 1769 2642 2001 
Q 2353 2234 1838 2234 
L 1294 2234 
L 1294 2753 
L 1863 2753 
Q 2328 2753 2575 2939 
Q 2822 3125 2822 3475 
Q 2822 3834 2567 4026 
Q 2313 4219 1838 4219 
Q 1578 4219 1281 4162 
Q 984 4106 628 3988 
L 628 4550 
Q 988 4650 1302 4700 
Q 1616 4750 1894 4750 
Q 2613 4750 3031 4423 
Q 3450 4097 3450 3541 
Q 3450 3153 3228 2886 
Q 3006 2619 2597 2516 
z
" transform="scale(0.015625)"/>
       </defs>
       <use xlink:href="#DejaVuSans-33"/>
      </g>
     </g>
    </g>
    <g id="ytick_4">
     <g id="line2d_7">
      <path d="M 71.377422 175.202322 
L 713.151641 175.202322 
" clip-path="url(#p2b0c4d9c39)" style="fill: none; stroke: #b0b0b0; stroke-opacity: 0.3; stroke-width: 0.8; stroke-linecap: square"/>
     </g>
     <g id="line2d_8">
      <g>
       <use xlink:href="#mfc8929533a" x="71.377422" y="175.202322" style="stroke: #000000; stroke-width: 0.8"/>
      </g>
     </g>
     <g id="text_4">
      <!-- 4 -->
      <g transform="translate(52.697422 181.281072) scale(0.16 -0.16)">
       <defs>
        <path id="DejaVuSans-34" d="M 2419 4116 
L 825 1625 
L 2419 1625 
L 2419 4116 
z
M 2253 4666 
L 3047 4666 
L 3047 1625 
L 3713 1625 
L 3713 1100 
L 3047 1100 
L 3047 0 
L 2419 0 
L 2419 1100 
L 313 1100 
L 313 1709 
L 2253 4666 
z
" transform="scale(0.015625)"/>
       </defs>
       <use xlink:href="#DejaVuSans-34"/>
      </g>
     </g>
    </g>
    <g id="ytick_5">
     <g id="line2d_9">
      <path d="M 71.377422 110.681409 
L 713.151641 110.681409 
" clip-path="url(#p2b0c4d9c39)" style="fill: none; stroke: #b0b0b0; stroke-opacity: 0.3; stroke-width: 0.8; stroke-linecap: square"/>
     </g>
     <g id="line2d_10">
      <g>
       <use xlink:href="#mfc8929533a" x="71.377422" y="110.681409" style="stroke: #000000; stroke-width: 0.8"/>
      </g>
     </g>
     <g id="text_5">
      <!-- 5 -->
      <g transform="translate(52.697422 116.760159) scale(0.16 -0.16)">
       <defs>
        <path id="DejaVuSans-35" d="M 691 4666 
L 3169 4666 
L 3169 4134 
L 1269 4134 
L 1269 2991 
Q 1406 3038 1543 3061 
Q 1681 3084 1819 3084 
Q 2600 3084 3056 2656 
Q 3513 2228 3513 1497 
Q 3513 744 3044 326 
Q 2575 -91 1722 -91 
Q 1428 -91 1123 -41 
Q 819 9 494 109 
L 494 744 
Q 775 591 1075 516 
Q 1375 441 1709 441 
Q 2250 441 2565 725 
Q 2881 1009 2881 1497 
Q 2881 1984 2565 2268 
Q 2250 2553 1709 2553 
Q 1456 2553 1204 2497 
Q 953 2441 691 2322 
L 691 4666 
z
" transform="scale(0.015625)"/>
       </defs>
       <use xlink:href="#DejaVuSans-35"/>
      </g>
     </g>
    </g>
    <g id="text_6">
     <!-- Neurons -->
     <g transform="translate(45.369922 282.207744) rotate(-90) scale(0.16 -0.16)">
      <defs>
       <path id="DejaVuSans-4e" d="M 628 4666 
L 1478 4666 
L 3547 763 
L 3547 4666 
L 4159 4666 
L 4159 0 
L 3309 0 
L 1241 3903 
L 1241 0 
L 628 0 
L 628 4666 
z
" transform="scale(0.015625)"/>
       <path id="DejaVuSans-65" d="M 3597 1894 
L 3597 1613 
L 953 1613 
Q 991 1019 1311 708 
Q 1631 397 2203 397 
Q 2534 397 2845 478 
Q 3156 559 3463 722 
L 3463 178 
Q 3153 47 2828 -22 
Q 2503 -91 2169 -91 
Q 1331 -91 842 396 
Q 353 884 353 1716 
Q 353 2575 817 3079 
Q 1281 3584 2069 3584 
Q 2775 3584 3186 3129 
Q 3597 2675 3597 1894 
z
M 3022 2063 
Q 3016 2534 2758 2815 
Q 2500 3097 2075 3097 
Q 1594 3097 1305 2825 
Q 1016 2553 972 2059 
L 3022 2063 
z
" transform="scale(0.015625)"/>
       <path id="DejaVuSans-75" d="M 544 1381 
L 544 3500 
L 1119 3500 
L 1119 1403 
Q 1119 906 1312 657 
Q 1506 409 1894 409 
Q 2359 409 2629 706 
Q 2900 1003 2900 1516 
L 2900 3500 
L 3475 3500 
L 3475 0 
L 2900 0 
L 2900 538 
Q 2691 219 2414 64 
Q 2138 -91 1772 -91 
Q 1169 -91 856 284 
Q 544 659 544 1381 
z
M 1991 3584 
L 1991 3584 
z
" transform="scale(0.015625)"/>
       <path id="DejaVuSans-72" d="M 2631 2963 
Q 2534 3019 2420 3045 
Q 2306 3072 2169 3072 
Q 1681 3072 1420 2755 
Q 1159 2438 1159 1844 
L 1159 0 
L 581 0 
L 581 3500 
L 1159 3500 
L 1159 2956 
Q 1341 3275 1631 3429 
Q 1922 3584 2338 3584 
Q 2397 3584 2469 3576 
Q 2541 3569 2628 3553 
L 2631 2963 
z
" transform="scale(0.015625)"/>
       <path id="DejaVuSans-6f" d="M 1959 3097 
Q 1497 3097 1228 2736 
Q 959 2375 959 1747 
Q 959 1119 1226 758 
Q 1494 397 1959 397 
Q 2419 397 2687 759 
Q 2956 1122 2956 1747 
Q 2956 2369 2687 2733 
Q 2419 3097 1959 3097 
z
M 1959 3584 
Q 2709 3584 3137 3096 
Q 3566 2609 3566 1747 
Q 3566 888 3137 398 
Q 2709 -91 1959 -91 
Q 1206 -91 779 398 
Q 353 888 353 1747 
Q 353 2609 779 3096 
Q 1206 3584 1959 3584 
z
" transform="scale(0.015625)"/>
       <path id="DejaVuSans-6e" d="M 3513 2113 
L 3513 0 
L 2938 0 
L 2938 2094 
Q 2938 2591 2744 2837 
Q 2550 3084 2163 3084 
Q 1697 3084 1428 2787 
Q 1159 2491 1159 1978 
L 1159 0 
L 581 0 
L 581 3500 
L 1159 3500 
L 1159 2956 
Q 1366 3272 1645 3428 
Q 1925 3584 2291 3584 
Q 2894 3584 3203 3211 
Q 3513 2838 3513 2113 
z
" transform="scale(0.015625)"/>
       <path id="DejaVuSans-73" d="M 2834 3397 
L 2834 2853 
Q 2591 2978 2328 3040 
Q 2066 3103 1784 3103 
Q 1356 3103 1142 2972 
Q 928 2841 928 2578 
Q 928 2378 1081 2264 
Q 1234 2150 1697 2047 
L 1894 2003 
Q 2506 1872 2764 1633 
Q 3022 1394 3022 966 
Q 3022 478 2636 193 
Q 2250 -91 1575 -91 
Q 1294 -91 989 -36 
Q 684 19 347 128 
L 347 722 
Q 666 556 975 473 
Q 1284 391 1588 391 
Q 1994 391 2212 530 
Q 2431 669 2431 922 
Q 2431 1156 2273 1281 
Q 2116 1406 1581 1522 
L 1381 1569 
Q 847 1681 609 1914 
Q 372 2147 372 2553 
Q 372 3047 722 3315 
Q 1072 3584 1716 3584 
Q 2034 3584 2315 3537 
Q 2597 3491 2834 3397 
z
" transform="scale(0.015625)"/>
      </defs>
      <use xlink:href="#DejaVuSans-4e"/>
      <use xlink:href="#DejaVuSans-65" x="74.804688"/>
      <use xlink:href="#DejaVuSans-75" x="136.328125"/>
      <use xlink:href="#DejaVuSans-72" x="199.707031"/>
      <use xlink:href="#DejaVuSans-6f" x="238.570312"/>
      <use xlink:href="#DejaVuSans-6e" x="299.751953"/>
      <use xlink:href="#DejaVuSans-73" x="363.130859"/>
     </g>
    </g>
   </g>
   <g id="line2d_11">
    <path d="M 100.548977 383.997267 
L 120.973151 385.173585 
L 124.824566 385.137023 
L 128.092434 384.897437 
L 138.129457 383.765269 
L 154.818924 381.968671 
L 170.224587 380.653702 
L 184.113025 379.76702 
L 188.547988 379.322159 
L 193.216371 378.596509 
L 200.335654 377.256136 
L 203.370103 376.46577 
L 205.704294 375.644141 
L 207.688357 374.714059 
L 209.088871 373.833126 
L 210.255967 372.851445 
L 211.306353 371.661471 
L 212.24003 370.238357 
L 213.173706 368.349022 
L 214.224092 365.656985 
L 215.974736 361.109567 
L 216.791703 359.630808 
L 217.49196 358.81228 
L 218.075508 358.429743 
L 218.659056 358.286912 
L 219.359313 358.37991 
L 220.17628 358.771538 
L 221.226666 359.583882 
L 222.74389 361.097237 
L 225.778339 364.519005 
L 227.995821 367.289112 
L 229.396335 369.409087 
L 230.563431 371.595117 
L 231.847236 374.510046 
L 234.414847 380.493669 
L 235.581942 382.567019 
L 236.632328 383.994337 
L 237.682714 385.051967 
L 238.7331 385.802803 
L 239.900196 386.356967 
L 241.184001 386.71181 
L 242.701226 386.879473 
L 244.568579 386.83577 
L 246.90277 386.540163 
L 250.287347 385.866365 
L 255.539278 384.847539 
L 261.258046 383.946976 
L 265.459591 383.567332 
L 277.247256 382.86456 
L 288.568084 382.247072 
L 302.573232 380.749296 
L 309.342386 380.08554 
L 315.294574 379.324459 
L 320.313085 378.429515 
L 325.565016 377.2332 
L 329.066303 376.228541 
L 331.400494 375.334209 
L 333.151137 374.440034 
L 334.551652 373.478798 
L 335.718748 372.397966 
L 336.652424 371.248788 
L 337.586101 369.730011 
L 338.519777 367.741318 
L 339.920292 364.070784 
L 341.087388 361.232454 
L 341.904355 359.799552 
L 342.604612 359.007144 
L 343.18816 358.639113 
L 343.771708 358.50632 
L 344.471965 358.607947 
L 345.288932 359.007897 
L 346.339318 359.829872 
L 347.856542 361.354018 
L 350.774281 364.66832 
L 352.991763 367.446741 
L 354.392278 369.55799 
L 355.559374 371.717404 
L 356.959888 374.844157 
L 359.29408 380.166016 
L 360.461175 382.252341 
L 361.511561 383.712451 
L 362.561947 384.818315 
L 363.612333 385.625902 
L 364.779429 386.240187 
L 366.063234 386.652074 
L 367.580459 386.890087 
L 369.447812 386.943559 
L 371.898712 386.772227 
L 375.399999 386.288867 
L 399.20875 382.560331 
L 421.616986 379.674376 
L 433.638072 378.6494 
L 442.858127 377.955158 
L 449.510572 377.227854 
L 453.828826 376.536712 
L 456.746565 375.850685 
L 458.964047 375.104541 
L 460.597981 374.334934 
L 461.881786 373.508298 
L 463.048882 372.482342 
L 463.982558 371.373259 
L 464.916235 369.890074 
L 465.849911 367.921645 
L 467.017007 364.84634 
L 468.417521 361.248544 
L 469.234488 359.737574 
L 469.934746 358.892794 
L 470.518294 358.493013 
L 471.101841 358.337691 
L 471.685389 358.389063 
L 472.385647 358.668887 
L 473.319323 359.31128 
L 474.603128 360.500762 
L 476.93732 363.030802 
L 479.971768 366.602254 
L 481.488993 368.702808 
L 482.772798 370.882346 
L 484.056603 373.5696 
L 487.324471 380.78855 
L 488.374857 382.467549 
L 489.425243 383.751643 
L 490.475629 384.695662 
L 491.642725 385.425581 
L 492.80982 385.895628 
L 494.210335 386.204345 
L 495.844269 386.310341 
L 497.945041 386.194146 
L 501.563037 385.719335 
L 512.300317 384.204657 
L 518.602634 383.60807 
L 541.244289 381.748813 
L 548.363572 380.919628 
L 564.236073 378.49014 
L 570.30497 377.179271 
L 573.572838 376.234863 
L 575.907029 375.344254 
L 577.657673 374.453667 
L 579.058188 373.500072 
L 580.225283 372.437139 
L 581.275669 371.156632 
L 582.209346 369.642593 
L 583.143022 367.680862 
L 584.660247 363.800958 
L 585.827342 361.122035 
L 586.644309 359.807366 
L 587.344567 359.100772 
L 587.928114 358.788705 
L 588.511662 358.696976 
L 589.21192 358.829224 
L 590.028887 359.242457 
L 591.079273 360.05644 
L 592.596497 361.547728 
L 595.397527 364.671143 
L 597.498299 367.289042 
L 598.898813 369.391454 
L 600.065909 371.555382 
L 601.349714 374.449264 
L 604.034034 380.715361 
L 605.20113 382.791172 
L 606.251516 384.232127 
L 607.301902 385.315662 
L 608.352288 386.101048 
L 609.519384 386.693128 
L 610.803189 387.081644 
L 612.203704 387.271882 
L 613.954347 387.265675 
L 616.055119 387.019924 
L 618.50602 386.498352 
L 623.057693 385.241201 
L 631.694201 382.873971 
L 636.829422 381.864839 
L 641.264385 381.199691 
L 646.983154 380.572342 
L 652.585213 380.208484 
L 660.288044 379.995042 
L 668.107585 379.932987 
L 683.279828 380.022827 
L 683.980085 379.989073 
L 683.980085 379.989073 
" clip-path="url(#p2b0c4d9c39)" style="fill: none; stroke: #1f77b4; stroke-width: 1.5; stroke-linecap: square"/>
   </g>
   <g id="line2d_12">
    <path d="M 100.548977 368.765063 
L 682.929699 368.765063 
L 682.929699 368.765063 
" clip-path="url(#p2b0c4d9c39)" style="fill: none; stroke-dasharray: 2.96,1.28; stroke-dashoffset: 0; stroke: #808080; stroke-opacity: 0.7; stroke-width: 0.8"/>
   </g>
   <g id="line2d_13">
    <path d="M 100.548977 326.602717 
L 110.936128 330.562544 
L 116.071349 332.261348 
L 119.922765 333.318144 
L 122.957213 333.939093 
L 125.874953 334.307047 
L 128.792692 334.440809 
L 133.227655 334.408774 
L 139.99681 334.0922 
L 150.033832 333.510262 
L 159.604016 333.351117 
L 163.688851 333.223069 
L 172.558778 332.801199 
L 186.097087 332.301821 
L 190.532051 331.862852 
L 195.900691 331.390441 
L 201.38604 331.232696 
L 209.439 331.071213 
L 216.441574 331.376334 
L 224.261115 331.780261 
L 232.664203 332.364937 
L 241.067292 332.657468 
L 250.053928 332.746174 
L 258.340307 332.820881 
L 262.541851 332.956467 
L 275.613323 333.573417 
L 281.56551 333.790063 
L 286.117183 333.828244 
L 304.090456 333.21144 
L 311.09303 332.760665 
L 315.177865 332.32488 
L 324.047791 331.22262 
L 328.482755 330.995582 
L 334.668362 330.922429 
L 342.371193 331.016303 
L 359.06066 332.037649 
L 375.28329 333.412811 
L 383.452959 333.752844 
L 394.773787 333.711095 
L 404.110552 333.120288 
L 413.797446 332.59016 
L 431.30388 331.934098 
L 440.640645 331.74808 
L 447.643219 331.730251 
L 454.645793 331.966056 
L 468.534231 332.466796 
L 473.085904 332.404625 
L 480.905445 332.389788 
L 486.507504 332.234143 
L 494.327045 332.070384 
L 504.364067 332.242866 
L 515.334766 332.739213 
L 530.3903 333.453768 
L 539.960484 333.376784 
L 547.429896 333.126741 
L 559.334271 332.181411 
L 564.819621 331.599365 
L 568.787746 331.245294 
L 573.339419 331.070236 
L 578.241221 331.143505 
L 584.193408 331.412638 
L 589.21192 331.89681 
L 598.315266 332.841687 
L 607.185192 333.464667 
L 612.086994 333.57364 
L 617.689053 333.469274 
L 622.590855 333.104051 
L 626.55898 332.62744 
L 631.577491 332.082844 
L 637.29626 331.765462 
L 642.198061 331.704138 
L 647.683411 331.836762 
L 656.786757 332.303351 
L 665.189846 332.753273 
L 680.245379 333.421625 
L 683.980085 333.396151 
L 683.980085 333.396151 
" clip-path="url(#p2b0c4d9c39)" style="fill: none; stroke: #ff7f0e; stroke-width: 1.5; stroke-linecap: square"/>
   </g>
   <g id="line2d_14">
    <path d="M 100.548977 304.244149 
L 682.929699 304.244149 
L 682.929699 304.244149 
" clip-path="url(#p2b0c4d9c39)" style="fill: none; stroke-dasharray: 2.96,1.28; stroke-dashoffset: 0; stroke: #808080; stroke-opacity: 0.7; stroke-width: 0.8"/>
   </g>
   <g id="line2d_15">
    <path d="M 100.548977 263.223821 
L 106.851294 266.130636 
L 111.869805 268.206739 
L 116.188059 269.758328 
L 119.689346 270.787681 
L 122.723794 271.454733 
L 125.524824 271.840661 
L 128.209144 271.987907 
L 132.994236 271.976478 
L 140.113519 271.711752 
L 154.702215 271.053499 
L 160.187564 270.931681 
L 164.739237 270.725872 
L 169.874458 270.517048 
L 186.563926 270.191329 
L 199.168558 269.415688 
L 205.120746 269.2272 
L 209.205581 269.185958 
L 219.942861 269.178467 
L 224.261115 269.225554 
L 261.958304 270.783035 
L 277.714095 271.932775 
L 283.316154 272.115463 
L 286.700731 272.003167 
L 291.602533 271.53454 
L 297.438011 271.064575 
L 310.859611 270.223171 
L 316.111541 269.844873 
L 322.880696 269.344111 
L 327.782497 269.246167 
L 345.055513 269.273949 
L 349.373767 269.218232 
L 353.80873 269.179913 
L 359.17737 269.393336 
L 369.564521 270.109214 
L 381.935735 271.039162 
L 389.171728 271.337176 
L 395.007206 271.480884 
L 401.076103 271.276475 
L 413.097188 270.649034 
L 425.701821 269.92508 
L 433.404652 269.673845 
L 443.324965 269.723255 
L 452.545021 269.965506 
L 466.20004 270.308362 
L 471.101841 270.259521 
L 479.154801 270.000687 
L 483.006217 269.779265 
L 489.308533 269.376261 
L 493.860206 269.337265 
L 502.146585 269.52103 
L 508.565611 269.973506 
L 532.95791 271.559445 
L 541.594418 271.533063 
L 546.963058 271.26303 
L 551.981569 270.739301 
L 560.151238 269.989827 
L 571.705485 269.131503 
L 577.074125 269.081508 
L 586.294181 269.164668 
L 591.546111 269.510185 
L 611.620156 271.063928 
L 616.872086 271.19916 
L 619.906535 271.037208 
L 628.893171 270.173623 
L 634.028392 269.801062 
L 639.280322 269.579086 
L 644.765672 269.632603 
L 652.701922 269.973259 
L 677.44435 271.437258 
L 682.346151 271.4747 
L 683.980085 271.388448 
L 683.980085 271.388448 
" clip-path="url(#p2b0c4d9c39)" style="fill: none; stroke: #2ca02c; stroke-width: 1.5; stroke-linecap: square"/>
   </g>
   <g id="line2d_16">
    <path d="M 100.548977 239.723236 
L 682.929699 239.723236 
L 682.929699 239.723236 
" clip-path="url(#p2b0c4d9c39)" style="fill: none; stroke-dasharray: 2.96,1.28; stroke-dashoffset: 0; stroke: #808080; stroke-opacity: 0.7; stroke-width: 0.8"/>
   </g>
   <g id="line2d_17">
    <path d="M 100.548977 191.869601 
L 102.53304 192.470676 
L 104.983941 192.975438 
L 108.485228 193.448911 
L 115.721221 194.138453 
L 123.073923 194.700393 
L 128.442563 194.907218 
L 135.795265 194.927708 
L 142.447711 194.759172 
L 154.935634 194.067353 
L 175.826646 192.86728 
L 184.579863 192.628075 
L 190.181922 192.402776 
L 196.834367 192.156786 
L 220.876537 192.032353 
L 226.712015 192.167093 
L 240.717163 192.72068 
L 248.419994 193.14985 
L 267.326944 193.802304 
L 275.496613 194.074429 
L 286.000474 194.135669 
L 290.085308 193.865513 
L 296.621044 193.396224 
L 305.024133 193.1862 
L 313.77735 192.7536 
L 320.546504 192.150756 
L 326.031854 191.767243 
L 330.700237 191.683959 
L 338.869906 191.826329 
L 344.705384 192.025262 
L 349.723895 192.131112 
L 355.909502 192.272097 
L 364.54601 192.686622 
L 378.317738 193.463509 
L 385.437022 193.64086 
L 408.778934 193.591726 
L 420.216472 193.034355 
L 437.956325 191.983974 
L 446.359414 192.005602 
L 453.245278 192.262713 
L 471.56868 193.168387 
L 478.921382 193.165187 
L 483.356346 192.939488 
L 493.976916 192.316308 
L 499.695684 192.252222 
L 505.647872 192.440356 
L 521.520373 193.20626 
L 530.623719 193.523349 
L 541.594418 193.528887 
L 548.480282 193.28599 
L 556.649951 192.836422 
L 564.819621 192.339151 
L 570.188261 192.134989 
L 577.774382 192.013078 
L 584.193408 192.148326 
L 590.028887 192.522578 
L 600.766166 193.308772 
L 606.601645 193.511443 
L 612.203704 193.484999 
L 618.039182 193.217874 
L 625.625303 192.573742 
L 630.527105 192.270743 
L 634.962069 192.271251 
L 640.097289 192.446832 
L 660.521463 193.417929 
L 671.142033 193.554823 
L 676.744092 193.521934 
L 683.513247 193.299157 
L 683.980085 193.266053 
L 683.980085 193.266053 
" clip-path="url(#p2b0c4d9c39)" style="fill: none; stroke: #d62728; stroke-width: 1.5; stroke-linecap: square"/>
   </g>
   <g id="line2d_18">
    <path d="M 100.548977 175.202322 
L 682.929699 175.202322 
L 682.929699 175.202322 
" clip-path="url(#p2b0c4d9c39)" style="fill: none; stroke-dasharray: 2.96,1.28; stroke-dashoffset: 0; stroke: #808080; stroke-opacity: 0.7; stroke-width: 0.8"/>
   </g>
   <g id="line2d_19">
    <path d="M 100.548977 124.026671 
L 102.53304 125.275584 
L 104.633812 126.326458 
L 106.968003 127.243253 
L 109.885742 128.135989 
L 113.737158 129.062844 
L 118.52225 129.996653 
L 123.073923 130.6424 
L 126.691919 130.947383 
L 131.126883 131.059617 
L 138.129457 131.015653 
L 143.848225 130.778355 
L 157.036406 130.141192 
L 178.744385 129.702561 
L 186.447216 129.466586 
L 193.33308 128.88594 
L 198.468301 128.576804 
L 214.574221 127.992712 
L 225.311501 128.099562 
L 233.714589 128.672178 
L 246.552641 129.729051 
L 251.921281 129.902755 
L 274.913065 130.436237 
L 287.517698 130.247057 
L 299.772202 129.601864 
L 312.726964 129.349768 
L 319.14599 128.953225 
L 328.599464 128.426173 
L 334.668362 128.322707 
L 354.508987 128.396054 
L 360.577885 128.625814 
L 366.646782 129.102471 
L 375.049871 129.689639 
L 384.036507 130.070553 
L 394.073529 130.151344 
L 406.444743 129.912139 
L 431.187171 128.868896 
L 439.47355 128.900615 
L 481.839121 129.048138 
L 495.377431 128.710636 
L 501.563037 128.871388 
L 511.716769 129.487692 
L 520.703406 129.917708 
L 527.005722 129.989146 
L 533.424748 129.88165 
L 559.917819 129.317987 
L 582.092636 128.474938 
L 588.044824 128.505919 
L 593.997012 128.753523 
L 613.13738 129.630015 
L 619.089568 129.624846 
L 624.808337 129.36232 
L 630.993943 129.101056 
L 645.34922 129.078904 
L 655.036113 129.293958 
L 680.245379 130.153529 
L 683.980085 130.081136 
L 683.980085 130.081136 
" clip-path="url(#p2b0c4d9c39)" style="fill: none; stroke: #9467bd; stroke-width: 1.5; stroke-linecap: square"/>
   </g>
   <g id="line2d_20">
    <path d="M 100.548977 110.681409 
L 682.929699 110.681409 
L 682.929699 110.681409 
" clip-path="url(#p2b0c4d9c39)" style="fill: none; stroke-dasharray: 2.96,1.28; stroke-dashoffset: 0; stroke: #808080; stroke-opacity: 0.7; stroke-width: 0.8"/>
   </g>
   <g id="text_7">
    <!-- Excitatory Membrane Potentials -->
    <g transform="translate(200.956406 60.422981) scale(0.24 -0.24)">
     <defs>
      <path id="DejaVuSans-45" d="M 628 4666 
L 3578 4666 
L 3578 4134 
L 1259 4134 
L 1259 2753 
L 3481 2753 
L 3481 2222 
L 1259 2222 
L 1259 531 
L 3634 531 
L 3634 0 
L 628 0 
L 628 4666 
z
" transform="scale(0.015625)"/>
      <path id="DejaVuSans-78" d="M 3513 3500 
L 2247 1797 
L 3578 0 
L 2900 0 
L 1881 1375 
L 863 0 
L 184 0 
L 1544 1831 
L 300 3500 
L 978 3500 
L 1906 2253 
L 2834 3500 
L 3513 3500 
z
" transform="scale(0.015625)"/>
      <path id="DejaVuSans-63" d="M 3122 3366 
L 3122 2828 
Q 2878 2963 2633 3030 
Q 2388 3097 2138 3097 
Q 1578 3097 1268 2742 
Q 959 2388 959 1747 
Q 959 1106 1268 751 
Q 1578 397 2138 397 
Q 2388 397 2633 464 
Q 2878 531 3122 666 
L 3122 134 
Q 2881 22 2623 -34 
Q 2366 -91 2075 -91 
Q 1284 -91 818 406 
Q 353 903 353 1747 
Q 353 2603 823 3093 
Q 1294 3584 2113 3584 
Q 2378 3584 2631 3529 
Q 2884 3475 3122 3366 
z
" transform="scale(0.015625)"/>
      <path id="DejaVuSans-69" d="M 603 3500 
L 1178 3500 
L 1178 0 
L 603 0 
L 603 3500 
z
M 603 4863 
L 1178 4863 
L 1178 4134 
L 603 4134 
L 603 4863 
z
" transform="scale(0.015625)"/>
      <path id="DejaVuSans-74" d="M 1172 4494 
L 1172 3500 
L 2356 3500 
L 2356 3053 
L 1172 3053 
L 1172 1153 
Q 1172 725 1289 603 
Q 1406 481 1766 481 
L 2356 481 
L 2356 0 
L 1766 0 
Q 1100 0 847 248 
Q 594 497 594 1153 
L 594 3053 
L 172 3053 
L 172 3500 
L 594 3500 
L 594 4494 
L 1172 4494 
z
" transform="scale(0.015625)"/>
      <path id="DejaVuSans-61" d="M 2194 1759 
Q 1497 1759 1228 1600 
Q 959 1441 959 1056 
Q 959 750 1161 570 
Q 1363 391 1709 391 
Q 2188 391 2477 730 
Q 2766 1069 2766 1631 
L 2766 1759 
L 2194 1759 
z
M 3341 1997 
L 3341 0 
L 2766 0 
L 2766 531 
Q 2569 213 2275 61 
Q 1981 -91 1556 -91 
Q 1019 -91 701 211 
Q 384 513 384 1019 
Q 384 1609 779 1909 
Q 1175 2209 1959 2209 
L 2766 2209 
L 2766 2266 
Q 2766 2663 2505 2880 
Q 2244 3097 1772 3097 
Q 1472 3097 1187 3025 
Q 903 2953 641 2809 
L 641 3341 
Q 956 3463 1253 3523 
Q 1550 3584 1831 3584 
Q 2591 3584 2966 3190 
Q 3341 2797 3341 1997 
z
" transform="scale(0.015625)"/>
      <path id="DejaVuSans-79" d="M 2059 -325 
Q 1816 -950 1584 -1140 
Q 1353 -1331 966 -1331 
L 506 -1331 
L 506 -850 
L 844 -850 
Q 1081 -850 1212 -737 
Q 1344 -625 1503 -206 
L 1606 56 
L 191 3500 
L 800 3500 
L 1894 763 
L 2988 3500 
L 3597 3500 
L 2059 -325 
z
" transform="scale(0.015625)"/>
      <path id="DejaVuSans-20" transform="scale(0.015625)"/>
      <path id="DejaVuSans-4d" d="M 628 4666 
L 1569 4666 
L 2759 1491 
L 3956 4666 
L 4897 4666 
L 4897 0 
L 4281 0 
L 4281 4097 
L 3078 897 
L 2444 897 
L 1241 4097 
L 1241 0 
L 628 0 
L 628 4666 
z
" transform="scale(0.015625)"/>
      <path id="DejaVuSans-6d" d="M 3328 2828 
Q 3544 3216 3844 3400 
Q 4144 3584 4550 3584 
Q 5097 3584 5394 3201 
Q 5691 2819 5691 2113 
L 5691 0 
L 5113 0 
L 5113 2094 
Q 5113 2597 4934 2840 
Q 4756 3084 4391 3084 
Q 3944 3084 3684 2787 
Q 3425 2491 3425 1978 
L 3425 0 
L 2847 0 
L 2847 2094 
Q 2847 2600 2669 2842 
Q 2491 3084 2119 3084 
Q 1678 3084 1418 2786 
Q 1159 2488 1159 1978 
L 1159 0 
L 581 0 
L 581 3500 
L 1159 3500 
L 1159 2956 
Q 1356 3278 1631 3431 
Q 1906 3584 2284 3584 
Q 2666 3584 2933 3390 
Q 3200 3197 3328 2828 
z
" transform="scale(0.015625)"/>
      <path id="DejaVuSans-62" d="M 3116 1747 
Q 3116 2381 2855 2742 
Q 2594 3103 2138 3103 
Q 1681 3103 1420 2742 
Q 1159 2381 1159 1747 
Q 1159 1113 1420 752 
Q 1681 391 2138 391 
Q 2594 391 2855 752 
Q 3116 1113 3116 1747 
z
M 1159 2969 
Q 1341 3281 1617 3432 
Q 1894 3584 2278 3584 
Q 2916 3584 3314 3078 
Q 3713 2572 3713 1747 
Q 3713 922 3314 415 
Q 2916 -91 2278 -91 
Q 1894 -91 1617 61 
Q 1341 213 1159 525 
L 1159 0 
L 581 0 
L 581 4863 
L 1159 4863 
L 1159 2969 
z
" transform="scale(0.015625)"/>
      <path id="DejaVuSans-50" d="M 1259 4147 
L 1259 2394 
L 2053 2394 
Q 2494 2394 2734 2622 
Q 2975 2850 2975 3272 
Q 2975 3691 2734 3919 
Q 2494 4147 2053 4147 
L 1259 4147 
z
M 628 4666 
L 2053 4666 
Q 2838 4666 3239 4311 
Q 3641 3956 3641 3272 
Q 3641 2581 3239 2228 
Q 2838 1875 2053 1875 
L 1259 1875 
L 1259 0 
L 628 0 
L 628 4666 
z
" transform="scale(0.015625)"/>
      <path id="DejaVuSans-6c" d="M 603 4863 
L 1178 4863 
L 1178 0 
L 603 0 
L 603 4863 
z
" transform="scale(0.015625)"/>
     </defs>
     <use xlink:href="#DejaVuSans-45"/>
     <use xlink:href="#DejaVuSans-78" x="63.183594"/>
     <use xlink:href="#DejaVuSans-63" x="120.613281"/>
     <use xlink:href="#DejaVuSans-69" x="175.59375"/>
     <use xlink:href="#DejaVuSans-74" x="203.376953"/>
     <use xlink:href="#DejaVuSans-61" x="242.585938"/>
     <use xlink:href="#DejaVuSans-74" x="303.865234"/>
     <use xlink:href="#DejaVuSans-6f" x="343.074219"/>
     <use xlink:href="#DejaVuSans-72" x="404.255859"/>
     <use xlink:href="#DejaVuSans-79" x="445.369141"/>
     <use xlink:href="#DejaVuSans-20" x="504.548828"/>
     <use xlink:href="#DejaVuSans-4d" x="536.335938"/>
     <use xlink:href="#DejaVuSans-65" x="622.615234"/>
     <use xlink:href="#DejaVuSans-6d" x="684.138672"/>
     <use xlink:href="#DejaVuSans-62" x="781.550781"/>
     <use xlink:href="#DejaVuSans-72" x="845.027344"/>
     <use xlink:href="#DejaVuSans-61" x="886.140625"/>
     <use xlink:href="#DejaVuSans-6e" x="947.419922"/>
     <use xlink:href="#DejaVuSans-65" x="1010.798828"/>
     <use xlink:href="#DejaVuSans-20" x="1072.322266"/>
     <use xlink:href="#DejaVuSans-50" x="1104.109375"/>
     <use xlink:href="#DejaVuSans-6f" x="1160.787109"/>
     <use xlink:href="#DejaVuSans-74" x="1221.96875"/>
     <use xlink:href="#DejaVuSans-65" x="1261.177734"/>
     <use xlink:href="#DejaVuSans-6e" x="1322.701172"/>
     <use xlink:href="#DejaVuSans-74" x="1386.080078"/>
     <use xlink:href="#DejaVuSans-69" x="1425.289062"/>
     <use xlink:href="#DejaVuSans-61" x="1453.072266"/>
     <use xlink:href="#DejaVuSans-6c" x="1514.351562"/>
     <use xlink:href="#DejaVuSans-73" x="1542.134766"/>
    </g>
   </g>
   <g id="text_8">
    <!-- C -->
    <g transform="translate(7.2 29.995313) scale(0.3 -0.3)">
     <defs>
      <path id="DejaVuSans-43" d="M 4122 4306 
L 4122 3641 
Q 3803 3938 3442 4084 
Q 3081 4231 2675 4231 
Q 1875 4231 1450 3742 
Q 1025 3253 1025 2328 
Q 1025 1406 1450 917 
Q 1875 428 2675 428 
Q 3081 428 3442 575 
Q 3803 722 4122 1019 
L 4122 359 
Q 3791 134 3420 21 
Q 3050 -91 2638 -91 
Q 1578 -91 968 557 
Q 359 1206 359 2328 
Q 359 3453 968 4101 
Q 1578 4750 2638 4750 
Q 3056 4750 3426 4639 
Q 3797 4528 4122 4306 
z
" transform="scale(0.015625)"/>
     </defs>
     <use xlink:href="#DejaVuSans-43"/>
    </g>
   </g>
  </g>
 </g>
 <defs>
  <clipPath id="p2b0c4d9c39">
   <rect x="71.377422" y="96.85065" width="641.774219" height="304.276687"/>
  </clipPath>
 </defs>
</svg>
