<?xml version="1.0" encoding="utf-8" standalone="no"?>
<!DOCTYPE svg PUBLIC "-//W3C//DTD SVG 1.1//EN"
  "http://www.w3.org/Graphics/SVG/1.1/DTD/svg11.dtd">
<svg xmlns:xlink="http://www.w3.org/1999/xlink" width="721.535pt" height="408.327337pt" viewBox="0 0 721.535 408.327337" xmlns="http://www.w3.org/2000/svg" version="1.1">
 <metadata>
  <rdf:RDF xmlns:dc="http://purl.org/dc/elements/1.1/" xmlns:cc="http://creativecommons.org/ns#" xmlns:rdf="http://www.w3.org/1999/02/22-rdf-syntax-ns#">
   <cc:Work>
    <dc:type rdf:resource="http://purl.org/dc/dcmitype/StillImage"/>
    <dc:date>2025-10-21T12:05:15.246847</dc:date>
    <dc:format>image/svg+xml</dc:format>
    <dc:creator>
     <cc:Agent>
      <dc:title>Matplotlib v3.8.2, https://matplotlib.org/</dc:title>
     </cc:Agent>
    </dc:creator>
   </cc:Work>
  </rdf:RDF>
 </metadata>
 <defs>
  <style type="text/css">*{stroke-linejoin: round; stroke-linecap: butt}</style>
 </defs>
 <g id="figure_1">
  <g id="patch_1">
   <path d="M 0 408.327337 
L 721.535 408.327337 
L 721.535 0 
L 0 0 
z
" style="fill: #ffffff"/>
  </g>
  <g id="axes_1">
   <g id="patch_2">
    <path d="M 71.485 401.127337 
L 714.335 401.127337 
L 714.335 96.85065 
L 71.485 96.85065 
z
" style="fill: #ffffff"/>
   </g>
   <g id="matplotlib.axis_1"/>
   <g id="matplotlib.axis_2">
    <g id="ytick_1">
     <g id="line2d_1">
      <path d="M 71.485 387.296579 
L 714.335 387.296579 
" clip-path="url(#p7e7d398195)" style="fill: none; stroke: #b0b0b0; stroke-opacity: 0.3; stroke-width: 0.8; stroke-linecap: square"/>
     </g>
     <g id="line2d_2">
      <defs>
       <path id="m8a0bc122c0" d="M 0 0 
L -5 0 
" style="stroke: #000000; stroke-width: 0.8"/>
      </defs>
      <g>
       <use xlink:href="#m8a0bc122c0" x="71.485" y="387.296579" style="stroke: #000000; stroke-width: 0.8"/>
      </g>
     </g>
     <g id="text_1">
      <!-- 1 -->
      <g transform="translate(52.805 393.375329) scale(0.16 -0.16)">
       <defs>
        <path id="DejaVuSans-31" d="M 794 531 
L 1825 531 
L 1825 4091 
L 703 3866 
L 703 4441 
L 1819 4666 
L 2450 4666 
L 2450 531 
L 3481 531 
L 3481 0 
L 794 0 
L 794 531 
z
" transform="scale(0.015625)"/>
       </defs>
       <use xlink:href="#DejaVuSans-31"/>
      </g>
     </g>
    </g>
    <g id="ytick_2">
     <g id="line2d_3">
      <path d="M 71.485 318.165219 
L 714.335 318.165219 
" clip-path="url(#p7e7d398195)" style="fill: none; stroke: #b0b0b0; stroke-opacity: 0.3; stroke-width: 0.8; stroke-linecap: square"/>
     </g>
     <g id="line2d_4">
      <g>
       <use xlink:href="#m8a0bc122c0" x="71.485" y="318.165219" style="stroke: #000000; stroke-width: 0.8"/>
      </g>
     </g>
     <g id="text_2">
      <!-- 2 -->
      <g transform="translate(52.805 324.243969) scale(0.16 -0.16)">
       <defs>
        <path id="DejaVuSans-32" d="M 1228 531 
L 3431 531 
L 3431 0 
L 469 0 
L 469 531 
Q 828 903 1448 1529 
Q 2069 2156 2228 2338 
Q 2531 2678 2651 2914 
Q 2772 3150 2772 3378 
Q 2772 3750 2511 3984 
Q 2250 4219 1831 4219 
Q 1534 4219 1204 4116 
Q 875 4013 500 3803 
L 500 4441 
Q 881 4594 1212 4672 
Q 1544 4750 1819 4750 
Q 2544 4750 2975 4387 
Q 3406 4025 3406 3419 
Q 3406 3131 3298 2873 
Q 3191 2616 2906 2266 
Q 2828 2175 2409 1742 
Q 1991 1309 1228 531 
z
" transform="scale(0.015625)"/>
       </defs>
       <use xlink:href="#DejaVuSans-32"/>
      </g>
     </g>
    </g>
    <g id="ytick_3">
     <g id="line2d_5">
      <path d="M 71.485 249.033858 
L 714.335 249.033858 
" clip-path="url(#p7e7d398195)" style="fill: none; stroke: #b0b0b0; stroke-opacity: 0.3; stroke-width: 0.8; stroke-linecap: square"/>
     </g>
     <g id="line2d_6">
      <g>
       <use xlink:href="#m8a0bc122c0" x="71.485" y="249.033858" style="stroke: #000000; stroke-width: 0.8"/>
      </g>
     </g>
     <g id="text_3">
      <!-- 3 -->
      <g transform="translate(52.805 255.112608) scale(0.16 -0.16)">
       <defs>
        <path id="DejaVuSans-33" d="M 2597 2516 
Q 3050 2419 3304 2112 
Q 3559 1806 3559 1356 
Q 3559 666 3084 287 
Q 2609 -91 1734 -91 
Q 1441 -91 1130 -33 
Q 819 25 488 141 
L 488 750 
Q 750 597 1062 519 
Q 1375 441 1716 441 
Q 2309 441 2620 675 
Q 2931 909 2931 1356 
Q 2931 1769 2642 2001 
Q 2353 2234 1838 2234 
L 1294 2234 
L 1294 2753 
L 1863 2753 
Q 2328 2753 2575 2939 
Q 2822 3125 2822 3475 
Q 2822 3834 2567 4026 
Q 2313 4219 1838 4219 
Q 1578 4219 1281 4162 
Q 984 4106 628 3988 
L 628 4550 
Q 988 4650 1302 4700 
Q 1616 4750 1894 4750 
Q 2613 4750 3031 4423 
Q 3450 4097 3450 3541 
Q 3450 3153 3228 2886 
Q 3006 2619 2597 2516 
z
" transform="scale(0.015625)"/>
       </defs>
       <use xlink:href="#DejaVuSans-33"/>
      </g>
     </g>
    </g>
    <g id="ytick_4">
     <g id="line2d_7">
      <path d="M 71.485 179.902498 
L 714.335 179.902498 
" clip-path="url(#p7e7d398195)" style="fill: none; stroke: #b0b0b0; stroke-opacity: 0.3; stroke-width: 0.8; stroke-linecap: square"/>
     </g>
     <g id="line2d_8">
      <g>
       <use xlink:href="#m8a0bc122c0" x="71.485" y="179.902498" style="stroke: #000000; stroke-width: 0.8"/>
      </g>
     </g>
     <g id="text_4">
      <!-- 4 -->
      <g transform="translate(52.805 185.981248) scale(0.16 -0.16)">
       <defs>
        <path id="DejaVuSans-34" d="M 2419 4116 
L 825 1625 
L 2419 1625 
L 2419 4116 
z
M 2253 4666 
L 3047 4666 
L 3047 1625 
L 3713 1625 
L 3713 1100 
L 3047 1100 
L 3047 0 
L 2419 0 
L 2419 1100 
L 313 1100 
L 313 1709 
L 2253 4666 
z
" transform="scale(0.015625)"/>
       </defs>
       <use xlink:href="#DejaVuSans-34"/>
      </g>
     </g>
    </g>
    <g id="ytick_5">
     <g id="line2d_9">
      <path d="M 71.485 110.771138 
L 714.335 110.771138 
" clip-path="url(#p7e7d398195)" style="fill: none; stroke: #b0b0b0; stroke-opacity: 0.3; stroke-width: 0.8; stroke-linecap: square"/>
     </g>
     <g id="line2d_10">
      <g>
       <use xlink:href="#m8a0bc122c0" x="71.485" y="110.771138" style="stroke: #000000; stroke-width: 0.8"/>
      </g>
     </g>
     <g id="text_5">
      <!-- 5 -->
      <g transform="translate(52.805 116.849888) scale(0.16 -0.16)">
       <defs>
        <path id="DejaVuSans-35" d="M 691 4666 
L 3169 4666 
L 3169 4134 
L 1269 4134 
L 1269 2991 
Q 1406 3038 1543 3061 
Q 1681 3084 1819 3084 
Q 2600 3084 3056 2656 
Q 3513 2228 3513 1497 
Q 3513 744 3044 326 
Q 2575 -91 1722 -91 
Q 1428 -91 1123 -41 
Q 819 9 494 109 
L 494 744 
Q 775 591 1075 516 
Q 1375 441 1709 441 
Q 2250 441 2565 725 
Q 2881 1009 2881 1497 
Q 2881 1984 2565 2268 
Q 2250 2553 1709 2553 
Q 1456 2553 1204 2497 
Q 953 2441 691 2322 
L 691 4666 
z
" transform="scale(0.015625)"/>
       </defs>
       <use xlink:href="#DejaVuSans-35"/>
      </g>
     </g>
    </g>
    <g id="text_6">
     <!-- Neurons -->
     <g transform="translate(45.4775 282.207744) rotate(-90) scale(0.16 -0.16)">
      <defs>
       <path id="DejaVuSans-4e" d="M 628 4666 
L 1478 4666 
L 3547 763 
L 3547 4666 
L 4159 4666 
L 4159 0 
L 3309 0 
L 1241 3903 
L 1241 0 
L 628 0 
L 628 4666 
z
" transform="scale(0.015625)"/>
       <path id="DejaVuSans-65" d="M 3597 1894 
L 3597 1613 
L 953 1613 
Q 991 1019 1311 708 
Q 1631 397 2203 397 
Q 2534 397 2845 478 
Q 3156 559 3463 722 
L 3463 178 
Q 3153 47 2828 -22 
Q 2503 -91 2169 -91 
Q 1331 -91 842 396 
Q 353 884 353 1716 
Q 353 2575 817 3079 
Q 1281 3584 2069 3584 
Q 2775 3584 3186 3129 
Q 3597 2675 3597 1894 
z
M 3022 2063 
Q 3016 2534 2758 2815 
Q 2500 3097 2075 3097 
Q 1594 3097 1305 2825 
Q 1016 2553 972 2059 
L 3022 2063 
z
" transform="scale(0.015625)"/>
       <path id="DejaVuSans-75" d="M 544 1381 
L 544 3500 
L 1119 3500 
L 1119 1403 
Q 1119 906 1312 657 
Q 1506 409 1894 409 
Q 2359 409 2629 706 
Q 2900 1003 2900 1516 
L 2900 3500 
L 3475 3500 
L 3475 0 
L 2900 0 
L 2900 538 
Q 2691 219 2414 64 
Q 2138 -91 1772 -91 
Q 1169 -91 856 284 
Q 544 659 544 1381 
z
M 1991 3584 
L 1991 3584 
z
" transform="scale(0.015625)"/>
       <path id="DejaVuSans-72" d="M 2631 2963 
Q 2534 3019 2420 3045 
Q 2306 3072 2169 3072 
Q 1681 3072 1420 2755 
Q 1159 2438 1159 1844 
L 1159 0 
L 581 0 
L 581 3500 
L 1159 3500 
L 1159 2956 
Q 1341 3275 1631 3429 
Q 1922 3584 2338 3584 
Q 2397 3584 2469 3576 
Q 2541 3569 2628 3553 
L 2631 2963 
z
" transform="scale(0.015625)"/>
       <path id="DejaVuSans-6f" d="M 1959 3097 
Q 1497 3097 1228 2736 
Q 959 2375 959 1747 
Q 959 1119 1226 758 
Q 1494 397 1959 397 
Q 2419 397 2687 759 
Q 2956 1122 2956 1747 
Q 2956 2369 2687 2733 
Q 2419 3097 1959 3097 
z
M 1959 3584 
Q 2709 3584 3137 3096 
Q 3566 2609 3566 1747 
Q 3566 888 3137 398 
Q 2709 -91 1959 -91 
Q 1206 -91 779 398 
Q 353 888 353 1747 
Q 353 2609 779 3096 
Q 1206 3584 1959 3584 
z
" transform="scale(0.015625)"/>
       <path id="DejaVuSans-6e" d="M 3513 2113 
L 3513 0 
L 2938 0 
L 2938 2094 
Q 2938 2591 2744 2837 
Q 2550 3084 2163 3084 
Q 1697 3084 1428 2787 
Q 1159 2491 1159 1978 
L 1159 0 
L 581 0 
L 581 3500 
L 1159 3500 
L 1159 2956 
Q 1366 3272 1645 3428 
Q 1925 3584 2291 3584 
Q 2894 3584 3203 3211 
Q 3513 2838 3513 2113 
z
" transform="scale(0.015625)"/>
       <path id="DejaVuSans-73" d="M 2834 3397 
L 2834 2853 
Q 2591 2978 2328 3040 
Q 2066 3103 1784 3103 
Q 1356 3103 1142 2972 
Q 928 2841 928 2578 
Q 928 2378 1081 2264 
Q 1234 2150 1697 2047 
L 1894 2003 
Q 2506 1872 2764 1633 
Q 3022 1394 3022 966 
Q 3022 478 2636 193 
Q 2250 -91 1575 -91 
Q 1294 -91 989 -36 
Q 684 19 347 128 
L 347 722 
Q 666 556 975 473 
Q 1284 391 1588 391 
Q 1994 391 2212 530 
Q 2431 669 2431 922 
Q 2431 1156 2273 1281 
Q 2116 1406 1581 1522 
L 1381 1569 
Q 847 1681 609 1914 
Q 372 2147 372 2553 
Q 372 3047 722 3315 
Q 1072 3584 1716 3584 
Q 2034 3584 2315 3537 
Q 2597 3491 2834 3397 
z
" transform="scale(0.015625)"/>
      </defs>
      <use xlink:href="#DejaVuSans-4e"/>
      <use xlink:href="#DejaVuSans-65" x="74.804688"/>
      <use xlink:href="#DejaVuSans-75" x="136.328125"/>
      <use xlink:href="#DejaVuSans-72" x="199.707031"/>
      <use xlink:href="#DejaVuSans-6f" x="238.570312"/>
      <use xlink:href="#DejaVuSans-6e" x="299.751953"/>
      <use xlink:href="#DejaVuSans-73" x="363.130859"/>
     </g>
    </g>
   </g>
   <g id="line2d_11">
    <path d="M 100.705455 385.424366 
L 102.926653 385.271617 
L 105.147852 384.894537 
L 107.369051 384.287374 
L 109.473344 383.482606 
L 111.460733 382.486315 
L 113.331216 381.294314 
L 115.084794 379.898939 
L 116.721467 378.295616 
L 118.124329 376.619558 
L 119.410286 374.74362 
L 120.579338 372.647075 
L 121.631485 370.314415 
L 122.566727 367.735536 
L 123.501968 364.468484 
L 124.320305 360.793019 
L 125.138641 356.013749 
L 125.956978 349.693823 
L 126.775314 341.519113 
L 128.295082 325.760447 
L 128.762702 323.090825 
L 129.230323 321.644941 
L 129.697944 320.962026 
L 130.165565 320.660451 
L 130.866996 320.493354 
L 132.503669 320.420857 
L 137.647497 320.481413 
L 139.985601 320.686913 
L 141.505369 321.03266 
L 142.557516 321.485673 
L 143.375852 322.052504 
L 144.194189 322.915471 
L 144.89562 323.990473 
L 145.597051 325.460892 
L 146.415387 327.724376 
L 147.467534 331.368318 
L 152.377553 349.44181 
L 154.131131 354.632623 
L 155.884709 359.120092 
L 157.638287 362.987031 
L 159.391865 366.311787 
L 161.145443 369.163093 
L 162.899021 371.599244 
L 164.652599 373.668057 
L 166.406177 375.407621 
L 168.159754 376.848083 
L 169.913332 378.014043 
L 171.66691 378.921824 
L 173.420488 379.575929 
L 175.057161 379.951319 
L 176.576929 380.08335 
L 177.979791 379.999538 
L 179.382654 379.691296 
L 180.668611 379.183364 
L 181.837663 378.501042 
L 183.006715 377.562933 
L 184.058862 376.441327 
L 185.111008 374.969747 
L 186.04625 373.260205 
L 186.864586 371.335471 
L 187.682923 368.853062 
L 188.501259 365.581774 
L 189.20269 361.889283 
L 189.904122 357.057155 
L 190.605553 350.733141 
L 191.423889 341.300995 
L 192.592941 327.507281 
L 193.060562 324.045227 
L 193.528183 322.090727 
L 193.995804 321.151793 
L 194.463424 320.739293 
L 195.04795 320.536925 
L 196.217002 320.435741 
L 200.191779 320.432197 
L 203.698935 320.586503 
L 205.569418 320.873137 
L 206.855375 321.282365 
L 207.790617 321.788361 
L 208.608953 322.470468 
L 209.310385 323.317752 
L 210.011816 324.490997 
L 210.830152 326.358422 
L 211.765394 329.163775 
L 213.051351 333.846055 
L 216.324697 346.056547 
L 218.078275 351.664434 
L 219.831853 356.535848 
L 221.585431 360.741611 
L 223.339009 364.361061 
L 225.092587 367.467849 
L 226.846165 370.126386 
L 228.599742 372.391461 
L 230.35332 374.308869 
L 232.106898 375.915718 
L 233.977382 377.321691 
L 235.847865 378.440791 
L 237.718348 379.298608 
L 239.588831 379.914391 
L 241.459314 380.30511 
L 243.446703 380.491202 
L 245.317186 380.447631 
L 247.070764 380.191061 
L 248.707437 379.727359 
L 250.110299 379.113463 
L 251.396256 378.323422 
L 252.565308 377.361405 
L 253.73436 376.094237 
L 254.786507 374.603949 
L 255.721749 372.898132 
L 256.65699 370.686237 
L 257.475327 368.153723 
L 258.293663 364.802784 
L 258.995094 360.985531 
L 259.696525 355.92341 
L 260.397957 349.201071 
L 261.333198 337.605249 
L 262.26844 326.647363 
L 262.736061 323.41386 
L 263.203681 321.717734 
L 263.671302 320.956232 
L 264.138923 320.639428 
L 264.840354 320.476378 
L 266.477027 320.413374 
L 272.205382 320.47843 
L 274.660391 320.694923 
L 276.180159 321.039945 
L 277.232305 321.489093 
L 278.050642 322.054408 
L 278.752073 322.776526 
L 279.453504 323.811279 
L 280.154935 325.248519 
L 280.973272 327.49538 
L 282.025419 331.157313 
L 286.935437 349.366206 
L 288.689015 354.577812 
L 290.442593 359.079587 
L 292.196171 362.955855 
L 293.949749 366.285927 
L 295.703327 369.140075 
L 297.456905 371.579144 
L 299.210483 373.655168 
L 301.080966 375.518926 
L 302.951449 377.062451 
L 304.821932 378.317348 
L 306.692416 379.305151 
L 308.562899 380.037381 
L 310.316477 380.494721 
L 312.070055 380.723519 
L 313.706728 380.707902 
L 315.10959 380.484164 
L 316.395547 380.065063 
L 317.564599 379.455584 
L 318.616746 378.662123 
L 319.551987 377.695392 
L 320.487229 376.392623 
L 321.305565 374.874645 
L 322.123902 372.866231 
L 322.942238 370.165672 
L 323.643669 367.065551 
L 324.345101 362.92809 
L 325.046532 357.334443 
L 325.747963 349.830081 
L 326.80011 335.45077 
L 327.501541 327.01087 
L 327.969162 323.576284 
L 328.436783 321.785369 
L 328.904403 320.985043 
L 329.372024 320.653133 
L 330.073455 320.482501 
L 331.710128 320.416391 
L 336.970862 320.480836 
L 339.308966 320.689138 
L 340.828734 321.035157 
L 341.880881 321.486052 
L 342.699217 322.050288 
L 343.517553 322.911557 
L 344.218985 323.988083 
L 344.920416 325.46451 
L 345.738752 327.73991 
L 346.790899 331.398646 
L 351.584012 349.080602 
L 353.33759 354.310223 
L 355.091168 358.833087 
L 356.844746 362.730403 
L 358.598324 366.080245 
L 360.351902 368.952425 
L 362.10548 371.407334 
L 363.859058 373.497104 
L 365.729541 375.373314 
L 367.600024 376.927882 
L 369.470508 378.195849 
L 371.340991 379.204412 
L 373.211474 379.973051 
L 375.081957 380.513873 
L 376.95244 380.825379 
L 378.706018 380.892906 
L 380.342691 380.732427 
L 381.745553 380.387133 
L 383.031511 379.855665 
L 384.200563 379.136563 
L 385.252709 378.22883 
L 386.187951 377.138178 
L 387.123193 375.676018 
L 387.941529 373.967654 
L 388.759865 371.683114 
L 389.461297 369.06574 
L 390.162728 365.566643 
L 390.864159 360.796093 
L 391.56559 354.232675 
L 392.267021 345.458309 
L 393.669884 326.565034 
L 394.137505 323.232152 
L 394.605125 321.582605 
L 395.072746 320.879837 
L 395.540367 320.599747 
L 396.358703 320.451432 
L 398.579902 320.408578 
L 403.840636 320.511262 
L 405.828025 320.746323 
L 407.113982 321.099298 
L 408.049223 321.560189 
L 408.86756 322.207544 
L 409.568991 323.040143 
L 410.270422 324.228361 
L 410.971853 325.852278 
L 411.79019 328.315807 
L 412.959242 332.620158 
L 416.466398 345.98349 
L 418.219976 351.638475 
L 419.973554 356.539672 
L 421.727132 360.767686 
L 423.48071 364.405893 
L 425.234288 367.529566 
L 426.987866 370.203227 
L 428.741444 372.48124 
L 430.495022 374.409163 
L 432.2486 376.024558 
L 434.002178 377.358356 
L 435.872661 378.4966 
L 437.626239 379.310771 
L 439.379817 379.884937 
L 441.016489 380.200324 
L 442.536257 380.286732 
L 443.939119 380.164343 
L 445.225077 379.848973 
L 446.394129 379.354128 
L 447.563181 378.604839 
L 448.615327 377.643086 
L 449.550569 376.480341 
L 450.485811 374.921644 
L 451.304147 373.11011 
L 452.122483 370.711447 
L 452.823915 367.999424 
L 453.525346 364.429734 
L 454.226777 359.650687 
L 454.928208 353.209995 
L 455.746545 343.206601 
L 457.032502 326.786563 
L 457.500123 323.449791 
L 457.967743 321.723347 
L 458.435364 320.956562 
L 458.902985 320.639873 
L 459.604416 320.477589 
L 461.241089 320.414973 
L 466.735633 320.484058 
L 469.073737 320.699357 
L 470.4766 321.025532 
L 471.528746 321.484816 
L 472.347083 322.071171 
L 473.048514 322.826517 
L 473.749945 323.912422 
L 474.451376 325.414898 
L 475.269713 327.73668 
L 476.32186 331.456383 
L 480.881162 348.451139 
L 482.63474 353.772813 
L 484.388318 358.374066 
L 486.141896 362.337426 
L 487.895474 365.742187 
L 489.649052 368.658457 
L 491.40263 371.146536 
L 493.156208 373.257584 
L 494.909786 375.034431 
L 496.663364 376.512448 
L 498.416942 377.718986 
L 500.287425 378.731092 
L 502.157909 379.482483 
L 504.028392 379.992055 
L 505.898875 380.269928 
L 507.652453 380.314257 
L 509.289126 380.143386 
L 510.808893 379.764848 
L 512.211756 379.18287 
L 513.497713 378.398317 
L 514.666765 377.409278 
L 515.718912 376.215183 
L 516.654153 374.824877 
L 517.589395 373.008703 
L 518.407731 370.9331 
L 519.226068 368.209894 
L 519.927499 365.140793 
L 520.62893 361.098681 
L 521.330361 355.684798 
L 522.031793 348.460262 
L 523.083939 334.64887 
L 523.785371 326.584294 
L 524.252991 323.33974 
L 524.720612 321.668197 
L 525.188233 320.929432 
L 525.655854 320.625846 
L 526.357285 320.471326 
L 528.110863 320.411726 
L 533.839218 320.488945 
L 536.060416 320.710235 
L 537.463279 321.059839 
L 538.515426 321.558376 
L 539.333762 322.201891 
L 540.035193 323.035132 
L 540.736624 324.231451 
L 541.438056 325.872279 
L 542.256392 328.362443 
L 543.542349 333.161244 
L 546.69879 345.264907 
L 548.452368 351.016602 
L 550.205946 356.003464 
L 551.959524 360.304618 
L 553.713102 364.004477 
L 555.46668 367.179748 
L 557.220258 369.896575 
L 558.973835 372.209976 
L 560.727413 374.163726 
L 562.480991 375.791278 
L 564.234569 377.115202 
L 565.871242 378.087677 
L 567.507915 378.811361 
L 569.144588 379.285059 
L 570.664355 379.484247 
L 571.950313 379.444607 
L 573.23627 379.176804 
L 574.405322 378.691346 
L 575.457469 378.00731 
L 576.39271 377.150161 
L 577.327952 375.99302 
L 578.263193 374.446899 
L 579.08153 372.674774 
L 579.899866 370.378045 
L 580.718203 367.362527 
L 581.419634 363.985671 
L 582.121065 359.601669 
L 582.822496 353.879865 
L 583.640833 345.172211 
L 585.277505 326.225147 
L 585.745126 323.288422 
L 586.212747 321.717965 
L 586.680368 320.987037 
L 587.147989 320.669063 
L 587.84942 320.495621 
L 589.369187 320.423058 
L 594.396111 320.475817 
L 596.85112 320.680304 
L 598.370888 321.014596 
L 599.423034 321.454679 
L 600.241371 322.010236 
L 600.942802 322.719795 
L 601.644233 323.736697 
L 602.345664 325.151084 
L 603.164001 327.368319 
L 604.216148 330.997634 
L 609.243071 349.575851 
L 610.996649 354.755193 
L 612.750227 359.23021 
L 614.503805 363.08449 
L 616.257383 366.396209 
L 618.010961 369.233579 
L 619.764539 371.653471 
L 621.518117 373.701516 
L 623.271695 375.412467 
L 625.025273 376.809977 
L 626.661946 377.841894 
L 628.298619 378.609643 
L 629.818386 379.074186 
L 631.221249 379.271362 
L 632.507206 379.234599 
L 633.676258 378.995533 
L 634.84531 378.526746 
L 635.897457 377.867606 
L 636.949603 376.929852 
L 637.884845 375.803013 
L 638.820087 374.323225 
L 639.755328 372.378836 
L 640.573665 370.159862 
L 641.392001 367.267021 
L 642.210337 363.415238 
L 642.911769 359.027132 
L 643.6132 353.257769 
L 644.431536 344.394606 
L 646.068209 325.513083 
L 646.53583 322.838879 
L 647.003451 321.478899 
L 647.471071 320.87031 
L 647.938692 320.612504 
L 648.757028 320.463999 
L 650.861322 320.414116 
L 656.005151 320.509317 
L 658.22635 320.753979 
L 659.629212 321.119752 
L 660.681359 321.622014 
L 661.499695 322.251156 
L 662.201126 323.048161 
L 662.902558 324.1772 
L 663.603989 325.721071 
L 664.422325 328.084487 
L 665.591377 332.288446 
L 669.566154 347.25313 
L 671.319732 352.744892 
L 673.07331 357.499859 
L 674.826888 361.600465 
L 676.580466 365.128728 
L 678.334044 368.158395 
L 680.087622 370.753534 
L 681.8412 372.968074 
L 683.594778 374.845916 
L 685.114545 376.227248 
L 685.114545 376.227248 
" clip-path="url(#p7e7d398195)" style="fill: none; stroke: #1f77b4; stroke-width: 1.5; stroke-linecap: square"/>
   </g>
   <g id="line2d_12">
    <path d="M 100.705455 387.296579 
L 684.062399 387.296579 
L 684.062399 387.296579 
" clip-path="url(#p7e7d398195)" style="fill: none; stroke-dasharray: 2.96,1.28; stroke-dashoffset: 0; stroke: #808080; stroke-opacity: 0.7; stroke-width: 0.8"/>
   </g>
   <g id="line2d_13">
    <path d="M 100.705455 312.918572 
L 101.991412 312.952673 
L 103.861895 313.24904 
L 107.485956 314.107614 
L 112.863595 315.325434 
L 117.422898 316.116745 
L 122.332916 316.737877 
L 128.061271 317.227942 
L 134.958678 317.58577 
L 144.311094 317.831026 
L 157.638287 317.938143 
L 185.344819 317.881989 
L 260.281051 317.908327 
L 305.874079 317.939083 
L 339.659682 317.790117 
L 364.677394 317.794402 
L 406.646361 317.943962 
L 549.738325 317.933842 
L 573.703891 317.863528 
L 596.85112 317.807917 
L 631.571964 317.893592 
L 654.251573 317.854265 
L 685.114545 317.95128 
L 685.114545 317.95128 
" clip-path="url(#p7e7d398195)" style="fill: none; stroke: #ff7f0e; stroke-width: 1.5; stroke-linecap: square"/>
   </g>
   <g id="line2d_14">
    <path d="M 100.705455 318.165219 
L 684.062399 318.165219 
L 684.062399 318.165219 
" clip-path="url(#p7e7d398195)" style="fill: none; stroke-dasharray: 2.96,1.28; stroke-dashoffset: 0; stroke: #808080; stroke-opacity: 0.7; stroke-width: 0.8"/>
   </g>
   <g id="line2d_15">
    <path d="M 100.705455 242.037362 
L 102.225222 242.478409 
L 103.628085 242.651077 
L 105.030947 242.588197 
L 106.316904 242.311791 
L 107.602861 241.807798 
L 108.888818 241.046831 
L 110.05787 240.092446 
L 111.226922 238.829827 
L 112.279069 237.356318 
L 113.214311 235.693297 
L 114.149552 233.581581 
L 114.967889 231.229274 
L 115.786225 228.215438 
L 116.604562 224.253941 
L 117.305993 219.778727 
L 118.007424 213.927809 
L 118.82576 204.998626 
L 120.345528 187.497958 
L 120.813149 184.698604 
L 121.28077 183.262642 
L 121.74839 182.620611 
L 122.216011 182.350863 
L 123.034348 182.198238 
L 125.138641 182.14894 
L 130.399375 182.248954 
L 132.386764 182.483512 
L 133.672721 182.848411 
L 134.607962 183.341179 
L 135.309394 183.930665 
L 136.010825 184.810304 
L 136.712256 186.090328 
L 137.413687 187.855176 
L 138.348929 190.938732 
L 139.868696 196.943182 
L 142.2068 206.009315 
L 143.960378 211.916882 
L 145.713956 217.037605 
L 147.467534 221.45556 
L 149.221112 225.259553 
L 150.97469 228.530001 
L 152.728268 231.336821 
L 154.481846 233.739431 
L 156.235424 235.7883 
L 158.105907 237.63195 
L 159.976391 239.164251 
L 161.846874 240.417705 
L 163.717357 241.414302 
L 165.58784 242.165313 
L 167.458323 242.673262 
L 169.328806 242.9409 
L 171.082384 242.975908 
L 172.835962 242.791142 
L 174.472635 242.39758 
L 175.992403 241.805177 
L 177.395265 241.014839 
L 178.681222 240.022611 
L 179.850274 238.828014 
L 180.902421 237.43924 
L 181.954568 235.655404 
L 182.88981 233.622111 
L 183.825051 230.999661 
L 184.643388 228.017915 
L 185.461724 224.109507 
L 186.163155 219.714941 
L 186.864586 214.006429 
L 187.682923 205.353027 
L 189.20269 188.0645 
L 189.670311 185.083233 
L 190.137932 183.478938 
L 190.605553 182.731635 
L 191.073174 182.407562 
L 191.774605 182.23201 
L 193.294372 182.159669 
L 198.321296 182.213286 
L 200.776305 182.41788 
L 202.296073 182.753111 
L 203.348219 183.197175 
L 204.166556 183.7593 
L 204.867987 184.476276 
L 205.569418 185.499309 
L 206.270849 186.913729 
L 207.089186 189.11829 
L 208.141333 192.716404 
L 213.285161 211.592957 
L 215.038739 216.722449 
L 216.792317 221.154727 
L 218.545895 224.970999 
L 220.299473 228.247661 
L 222.053051 231.052189 
L 223.806629 233.442933 
L 225.560207 235.469633 
L 227.313785 237.173563 
L 229.067363 238.588379 
L 230.937846 239.809018 
L 232.80833 240.756711 
L 234.678813 241.453496 
L 236.549296 241.916729 
L 238.419779 242.158078 
L 240.407168 242.181219 
L 242.394556 241.977878 
L 244.381944 241.548945 
L 246.252428 240.915649 
L 248.006006 240.08015 
L 249.525773 239.118117 
L 250.928636 237.968714 
L 252.214593 236.615855 
L 253.383645 235.046618 
L 254.435792 233.255068 
L 255.371033 231.246976 
L 256.306275 228.686252 
L 257.124611 225.792357 
L 257.942947 222.004022 
L 258.644379 217.736368 
L 259.34581 212.174647 
L 260.164146 203.728689 
L 261.683914 187.267058 
L 262.151535 184.614693 
L 262.619155 183.239699 
L 263.086776 182.617133 
L 263.554397 182.352132 
L 264.372733 182.199787 
L 266.477027 182.149187 
L 271.854666 182.241454 
L 273.95896 182.466205 
L 275.361822 182.827248 
L 276.413969 183.33818 
L 277.232305 183.993051 
L 277.933737 184.837351 
L 278.635168 186.047425 
L 279.336599 187.70738 
L 280.154935 190.22769 
L 281.440893 195.074825 
L 284.480428 206.79723 
L 286.234006 212.592454 
L 287.987584 217.616031 
L 289.741162 221.949845 
L 291.49474 225.68003 
L 293.248318 228.8845 
L 295.001896 231.631143 
L 296.755474 233.978225 
L 298.509052 235.975538 
L 300.379535 237.768027 
L 302.250018 239.252414 
L 304.120501 240.460411 
L 305.990984 241.414598 
L 307.861468 242.129712 
L 309.731951 242.612492 
L 311.602434 242.86373 
L 313.356012 242.879256 
L 314.992685 242.67552 
L 316.512452 242.257811 
L 317.79841 241.689406 
L 318.967461 240.953789 
L 320.136513 239.943133 
L 321.18866 238.716297 
L 322.123902 237.283055 
L 323.059143 235.4086 
L 323.87748 233.270479 
L 324.695816 230.480999 
L 325.514153 226.765795 
L 326.215584 222.537105 
L 326.917015 216.980082 
L 327.735351 208.381367 
L 329.605835 186.74482 
L 330.073455 184.297823 
L 330.541076 183.08709 
L 331.008697 182.5531 
L 331.593223 182.295746 
L 332.528465 182.182959 
L 335.568 182.155318 
L 339.776587 182.285297 
L 341.64707 182.536073 
L 342.933027 182.913335 
L 343.868269 183.398505 
L 344.686605 184.07444 
L 345.388037 184.9387 
L 346.089468 186.164646 
L 346.790899 187.82747 
L 347.609235 190.326007 
L 348.895192 195.101493 
L 352.051633 207.121105 
L 353.805211 212.844335 
L 355.558789 217.811411 
L 357.312367 222.098514 
L 359.065945 225.788417 
L 360.819523 228.957219 
L 362.573101 231.671541 
L 364.326679 233.98912 
L 366.080257 235.959138 
L 367.95074 237.724695 
L 369.821223 239.18576 
L 371.691706 240.377571 
L 373.679095 241.380365 
L 375.666483 242.136222 
L 377.653872 242.661378 
L 379.64126 242.96503 
L 381.628648 243.048776 
L 383.616037 242.903633 
L 385.48652 242.537696 
L 387.123193 242.000293 
L 388.64296 241.271912 
L 390.045823 240.3467 
L 391.33178 239.223125 
L 392.500832 237.904582 
L 393.552979 236.393247 
L 394.48822 234.693651 
L 395.423462 232.520688 
L 396.241798 230.068186 
L 397.060135 226.876786 
L 397.761566 223.307451 
L 398.462997 218.660327 
L 399.164428 212.577933 
L 399.982765 203.40849 
L 401.268722 188.465117 
L 401.736343 185.273553 
L 402.203963 183.547998 
L 402.671584 182.749271 
L 403.139205 182.407825 
L 403.840636 182.227148 
L 405.360404 182.155813 
L 410.621138 182.205737 
L 413.193052 182.416413 
L 414.595914 182.727234 
L 415.648061 183.172237 
L 416.466398 183.746279 
L 417.167829 184.490632 
L 417.86926 185.567331 
L 418.570691 187.068398 
L 419.389028 189.406596 
L 420.441174 193.170933 
L 424.766667 209.498861 
L 426.520245 214.926449 
L 428.273823 219.61913 
L 430.027401 223.661884 
L 431.780979 227.136628 
L 433.534557 230.116215 
L 435.288135 232.66344 
L 437.041713 234.831245 
L 438.795291 236.663505 
L 440.548869 238.196218 
L 442.419352 239.532414 
L 444.289835 240.584275 
L 446.043413 241.326715 
L 447.796991 241.839048 
L 449.550569 242.117927 
L 451.187242 242.159149 
L 452.823915 241.977911 
L 454.343682 241.594897 
L 455.86345 240.976798 
L 457.266312 240.157254 
L 458.552269 239.144917 
L 459.721321 237.946892 
L 460.773468 236.573793 
L 461.825615 234.827652 
L 462.760857 232.844711 
L 463.696098 230.284877 
L 464.514435 227.365286 
L 465.332771 223.519774 
L 466.034202 219.170039 
L 466.735633 213.4834 
L 467.55397 204.809905 
L 469.073737 187.647748 
L 469.541358 184.81482 
L 470.008979 183.332345 
L 470.4766 182.657811 
L 470.94422 182.370394 
L 471.645652 182.21706 
L 473.39923 182.153077 
L 478.893774 182.227411 
L 481.231878 182.450382 
L 482.63474 182.782861 
L 483.686887 183.2485 
L 484.505224 183.84214 
L 485.206655 184.605925 
L 485.908086 185.70209 
L 486.609517 187.216887 
L 487.427854 189.555925 
L 488.48 193.297813 
L 492.922398 209.923953 
L 494.675976 215.288069 
L 496.429554 219.928006 
L 498.183132 223.927313 
L 499.93671 227.366967 
L 501.690288 230.319638 
L 503.443866 232.848848 
L 505.197444 235.009368 
L 507.067927 236.960152 
L 508.93841 238.591906 
L 510.808893 239.942969 
L 512.796282 241.106249 
L 514.78367 242.0191 
L 516.887964 242.738729 
L 518.992257 243.226619 
L 521.213456 243.507113 
L 523.434655 243.555422 
L 525.538949 243.386479 
L 527.643242 242.989324 
L 529.513725 242.414623 
L 531.150398 241.692126 
L 532.55326 240.850874 
L 533.839218 239.836362 
L 535.00827 238.644567 
L 536.060416 237.275226 
L 537.112563 235.515124 
L 538.047805 233.486512 
L 538.866141 231.200381 
L 539.684478 228.228343 
L 540.385909 224.897043 
L 541.08734 220.526969 
L 541.788771 214.711884 
L 542.490202 207.085553 
L 544.24378 186.61677 
L 544.711401 184.177898 
L 545.179022 183.005635 
L 545.646643 182.504279 
L 546.231169 182.270397 
L 547.283316 182.167861 
L 551.141187 182.155796 
L 554.882154 182.295615 
L 556.635732 182.557715 
L 557.804784 182.931069 
L 558.740025 183.453951 
L 559.558361 184.188167 
L 560.259793 185.127834 
L 560.961224 186.4532 
L 561.77956 188.569103 
L 562.714802 191.683728 
L 564.46838 198.515452 
L 566.689579 206.881949 
L 568.443157 212.641159 
L 570.196735 217.639057 
L 571.950313 221.95207 
L 573.703891 225.663334 
L 575.457469 228.849096 
L 577.211047 231.575961 
L 578.964625 233.901171 
L 580.718203 235.873348 
L 582.588686 237.63373 
L 584.459169 239.081081 
L 586.329652 240.251581 
L 588.31704 241.225828 
L 590.304429 241.954358 
L 592.408722 242.494298 
L 594.629921 242.839485 
L 596.968025 242.977358 
L 599.306129 242.893101 
L 601.644233 242.583599 
L 603.865432 242.06047 
L 605.735915 241.405467 
L 607.372588 240.616646 
L 608.892356 239.63879 
L 610.178313 238.552497 
L 611.347365 237.273544 
L 612.399512 235.788053 
L 613.334753 234.091211 
L 614.269995 231.885661 
L 615.088331 229.351638 
L 615.906668 225.986814 
L 616.608099 222.140346 
L 617.30953 217.023101 
L 618.010961 210.215342 
L 618.946203 198.548696 
L 619.764539 188.906576 
L 620.23216 185.454346 
L 620.699781 183.599505 
L 621.167401 182.755007 
L 621.635022 182.401958 
L 622.336453 182.220637 
L 623.856221 182.152615 
L 629.350765 182.210056 
L 631.805775 182.42767 
L 633.208637 182.763083 
L 634.260784 183.251632 
L 635.07912 183.888685 
L 635.780551 184.718185 
L 636.481983 185.914776 
L 637.183414 187.563145 
L 638.00175 190.072197 
L 639.287707 194.906707 
L 642.444148 207.042502 
L 644.197726 212.795762 
L 645.951304 217.783276 
L 647.704882 222.086713 
L 649.45846 225.791285 
L 651.212038 228.974295 
L 652.965616 231.703467 
L 654.719194 234.037512 
L 656.589677 236.14814 
L 658.46016 237.917504 
L 660.330643 239.387848 
L 662.318032 240.661329 
L 664.30542 241.67093 
L 666.409714 242.483403 
L 668.514007 243.058517 
L 670.735206 243.431097 
L 672.956405 243.577838 
L 675.177604 243.499152 
L 677.281897 243.199291 
L 679.269285 242.691524 
L 681.139769 241.977103 
L 682.659536 241.172425 
L 684.062399 240.176554 
L 685.114545 239.204896 
L 685.114545 239.204896 
" clip-path="url(#p7e7d398195)" style="fill: none; stroke: #2ca02c; stroke-width: 1.5; stroke-linecap: square"/>
   </g>
   <g id="line2d_16">
    <path d="M 100.705455 249.033858 
L 684.062399 249.033858 
L 684.062399 249.033858 
" clip-path="url(#p7e7d398195)" style="fill: none; stroke-dasharray: 2.96,1.28; stroke-dashoffset: 0; stroke: #808080; stroke-opacity: 0.7; stroke-width: 0.8"/>
   </g>
   <g id="line2d_17">
    <path d="M 100.705455 179.44093 
L 107.719766 179.438788 
L 119.877907 179.463082 
L 153.66351 179.734116 
L 193.645088 179.668846 
L 238.069064 179.515793 
L 297.80762 179.741994 
L 331.710128 179.593259 
L 359.884281 179.488993 
L 382.56389 179.644716 
L 411.322569 179.728776 
L 534.891364 179.700492 
L 569.144588 179.647485 
L 615.672857 179.627179 
L 685.114545 179.702899 
L 685.114545 179.702899 
" clip-path="url(#p7e7d398195)" style="fill: none; stroke: #d62728; stroke-width: 1.5; stroke-linecap: square"/>
   </g>
   <g id="line2d_18">
    <path d="M 100.705455 179.902498 
L 684.062399 179.902498 
L 684.062399 179.902498 
" clip-path="url(#p7e7d398195)" style="fill: none; stroke-dasharray: 2.96,1.28; stroke-dashoffset: 0; stroke: #808080; stroke-opacity: 0.7; stroke-width: 0.8"/>
   </g>
   <g id="line2d_19">
    <path d="M 100.705455 110.681409 
L 131.919143 110.764116 
L 340.010397 110.770379 
L 685.114545 110.770808 
L 685.114545 110.770808 
" clip-path="url(#p7e7d398195)" style="fill: none; stroke: #9467bd; stroke-width: 1.5; stroke-linecap: square"/>
   </g>
   <g id="line2d_20">
    <path d="M 100.705455 110.771138 
L 684.062399 110.771138 
L 684.062399 110.771138 
" clip-path="url(#p7e7d398195)" style="fill: none; stroke-dasharray: 2.96,1.28; stroke-dashoffset: 0; stroke: #808080; stroke-opacity: 0.7; stroke-width: 0.8"/>
   </g>
   <g id="text_7">
    <!-- Inhibitory Synaptic Variables -->
    <g transform="translate(221.390625 60.422981) scale(0.24 -0.24)">
     <defs>
      <path id="DejaVuSans-49" d="M 628 4666 
L 1259 4666 
L 1259 0 
L 628 0 
L 628 4666 
z
" transform="scale(0.015625)"/>
      <path id="DejaVuSans-68" d="M 3513 2113 
L 3513 0 
L 2938 0 
L 2938 2094 
Q 2938 2591 2744 2837 
Q 2550 3084 2163 3084 
Q 1697 3084 1428 2787 
Q 1159 2491 1159 1978 
L 1159 0 
L 581 0 
L 581 4863 
L 1159 4863 
L 1159 2956 
Q 1366 3272 1645 3428 
Q 1925 3584 2291 3584 
Q 2894 3584 3203 3211 
Q 3513 2838 3513 2113 
z
" transform="scale(0.015625)"/>
      <path id="DejaVuSans-69" d="M 603 3500 
L 1178 3500 
L 1178 0 
L 603 0 
L 603 3500 
z
M 603 4863 
L 1178 4863 
L 1178 4134 
L 603 4134 
L 603 4863 
z
" transform="scale(0.015625)"/>
      <path id="DejaVuSans-62" d="M 3116 1747 
Q 3116 2381 2855 2742 
Q 2594 3103 2138 3103 
Q 1681 3103 1420 2742 
Q 1159 2381 1159 1747 
Q 1159 1113 1420 752 
Q 1681 391 2138 391 
Q 2594 391 2855 752 
Q 3116 1113 3116 1747 
z
M 1159 2969 
Q 1341 3281 1617 3432 
Q 1894 3584 2278 3584 
Q 2916 3584 3314 3078 
Q 3713 2572 3713 1747 
Q 3713 922 3314 415 
Q 2916 -91 2278 -91 
Q 1894 -91 1617 61 
Q 1341 213 1159 525 
L 1159 0 
L 581 0 
L 581 4863 
L 1159 4863 
L 1159 2969 
z
" transform="scale(0.015625)"/>
      <path id="DejaVuSans-74" d="M 1172 4494 
L 1172 3500 
L 2356 3500 
L 2356 3053 
L 1172 3053 
L 1172 1153 
Q 1172 725 1289 603 
Q 1406 481 1766 481 
L 2356 481 
L 2356 0 
L 1766 0 
Q 1100 0 847 248 
Q 594 497 594 1153 
L 594 3053 
L 172 3053 
L 172 3500 
L 594 3500 
L 594 4494 
L 1172 4494 
z
" transform="scale(0.015625)"/>
      <path id="DejaVuSans-79" d="M 2059 -325 
Q 1816 -950 1584 -1140 
Q 1353 -1331 966 -1331 
L 506 -1331 
L 506 -850 
L 844 -850 
Q 1081 -850 1212 -737 
Q 1344 -625 1503 -206 
L 1606 56 
L 191 3500 
L 800 3500 
L 1894 763 
L 2988 3500 
L 3597 3500 
L 2059 -325 
z
" transform="scale(0.015625)"/>
      <path id="DejaVuSans-20" transform="scale(0.015625)"/>
      <path id="DejaVuSans-53" d="M 3425 4513 
L 3425 3897 
Q 3066 4069 2747 4153 
Q 2428 4238 2131 4238 
Q 1616 4238 1336 4038 
Q 1056 3838 1056 3469 
Q 1056 3159 1242 3001 
Q 1428 2844 1947 2747 
L 2328 2669 
Q 3034 2534 3370 2195 
Q 3706 1856 3706 1288 
Q 3706 609 3251 259 
Q 2797 -91 1919 -91 
Q 1588 -91 1214 -16 
Q 841 59 441 206 
L 441 856 
Q 825 641 1194 531 
Q 1563 422 1919 422 
Q 2459 422 2753 634 
Q 3047 847 3047 1241 
Q 3047 1584 2836 1778 
Q 2625 1972 2144 2069 
L 1759 2144 
Q 1053 2284 737 2584 
Q 422 2884 422 3419 
Q 422 4038 858 4394 
Q 1294 4750 2059 4750 
Q 2388 4750 2728 4690 
Q 3069 4631 3425 4513 
z
" transform="scale(0.015625)"/>
      <path id="DejaVuSans-61" d="M 2194 1759 
Q 1497 1759 1228 1600 
Q 959 1441 959 1056 
Q 959 750 1161 570 
Q 1363 391 1709 391 
Q 2188 391 2477 730 
Q 2766 1069 2766 1631 
L 2766 1759 
L 2194 1759 
z
M 3341 1997 
L 3341 0 
L 2766 0 
L 2766 531 
Q 2569 213 2275 61 
Q 1981 -91 1556 -91 
Q 1019 -91 701 211 
Q 384 513 384 1019 
Q 384 1609 779 1909 
Q 1175 2209 1959 2209 
L 2766 2209 
L 2766 2266 
Q 2766 2663 2505 2880 
Q 2244 3097 1772 3097 
Q 1472 3097 1187 3025 
Q 903 2953 641 2809 
L 641 3341 
Q 956 3463 1253 3523 
Q 1550 3584 1831 3584 
Q 2591 3584 2966 3190 
Q 3341 2797 3341 1997 
z
" transform="scale(0.015625)"/>
      <path id="DejaVuSans-70" d="M 1159 525 
L 1159 -1331 
L 581 -1331 
L 581 3500 
L 1159 3500 
L 1159 2969 
Q 1341 3281 1617 3432 
Q 1894 3584 2278 3584 
Q 2916 3584 3314 3078 
Q 3713 2572 3713 1747 
Q 3713 922 3314 415 
Q 2916 -91 2278 -91 
Q 1894 -91 1617 61 
Q 1341 213 1159 525 
z
M 3116 1747 
Q 3116 2381 2855 2742 
Q 2594 3103 2138 3103 
Q 1681 3103 1420 2742 
Q 1159 2381 1159 1747 
Q 1159 1113 1420 752 
Q 1681 391 2138 391 
Q 2594 391 2855 752 
Q 3116 1113 3116 1747 
z
" transform="scale(0.015625)"/>
      <path id="DejaVuSans-63" d="M 3122 3366 
L 3122 2828 
Q 2878 2963 2633 3030 
Q 2388 3097 2138 3097 
Q 1578 3097 1268 2742 
Q 959 2388 959 1747 
Q 959 1106 1268 751 
Q 1578 397 2138 397 
Q 2388 397 2633 464 
Q 2878 531 3122 666 
L 3122 134 
Q 2881 22 2623 -34 
Q 2366 -91 2075 -91 
Q 1284 -91 818 406 
Q 353 903 353 1747 
Q 353 2603 823 3093 
Q 1294 3584 2113 3584 
Q 2378 3584 2631 3529 
Q 2884 3475 3122 3366 
z
" transform="scale(0.015625)"/>
      <path id="DejaVuSans-56" d="M 1831 0 
L 50 4666 
L 709 4666 
L 2188 738 
L 3669 4666 
L 4325 4666 
L 2547 0 
L 1831 0 
z
" transform="scale(0.015625)"/>
      <path id="DejaVuSans-6c" d="M 603 4863 
L 1178 4863 
L 1178 0 
L 603 0 
L 603 4863 
z
" transform="scale(0.015625)"/>
     </defs>
     <use xlink:href="#DejaVuSans-49"/>
     <use xlink:href="#DejaVuSans-6e" x="29.492188"/>
     <use xlink:href="#DejaVuSans-68" x="92.871094"/>
     <use xlink:href="#DejaVuSans-69" x="156.25"/>
     <use xlink:href="#DejaVuSans-62" x="184.033203"/>
     <use xlink:href="#DejaVuSans-69" x="247.509766"/>
     <use xlink:href="#DejaVuSans-74" x="275.292969"/>
     <use xlink:href="#DejaVuSans-6f" x="314.501953"/>
     <use xlink:href="#DejaVuSans-72" x="375.683594"/>
     <use xlink:href="#DejaVuSans-79" x="416.796875"/>
     <use xlink:href="#DejaVuSans-20" x="475.976562"/>
     <use xlink:href="#DejaVuSans-53" x="507.763672"/>
     <use xlink:href="#DejaVuSans-79" x="571.240234"/>
     <use xlink:href="#DejaVuSans-6e" x="630.419922"/>
     <use xlink:href="#DejaVuSans-61" x="693.798828"/>
     <use xlink:href="#DejaVuSans-70" x="755.078125"/>
     <use xlink:href="#DejaVuSans-74" x="818.554688"/>
     <use xlink:href="#DejaVuSans-69" x="857.763672"/>
     <use xlink:href="#DejaVuSans-63" x="885.546875"/>
     <use xlink:href="#DejaVuSans-20" x="940.527344"/>
     <use xlink:href="#DejaVuSans-56" x="972.314453"/>
     <use xlink:href="#DejaVuSans-61" x="1032.972656"/>
     <use xlink:href="#DejaVuSans-72" x="1094.251953"/>
     <use xlink:href="#DejaVuSans-69" x="1135.365234"/>
     <use xlink:href="#DejaVuSans-61" x="1163.148438"/>
     <use xlink:href="#DejaVuSans-62" x="1224.427734"/>
     <use xlink:href="#DejaVuSans-6c" x="1287.904297"/>
     <use xlink:href="#DejaVuSans-65" x="1315.6875"/>
     <use xlink:href="#DejaVuSans-73" x="1377.210938"/>
    </g>
   </g>
   <g id="text_8">
    <!-- D -->
    <g transform="translate(7.2 29.995313) scale(0.3 -0.3)">
     <defs>
      <path id="DejaVuSans-44" d="M 1259 4147 
L 1259 519 
L 2022 519 
Q 2988 519 3436 956 
Q 3884 1394 3884 2338 
Q 3884 3275 3436 3711 
Q 2988 4147 2022 4147 
L 1259 4147 
z
M 628 4666 
L 1925 4666 
Q 3281 4666 3915 4102 
Q 4550 3538 4550 2338 
Q 4550 1131 3912 565 
Q 3275 0 1925 0 
L 628 0 
L 628 4666 
z
" transform="scale(0.015625)"/>
     </defs>
     <use xlink:href="#DejaVuSans-44"/>
    </g>
   </g>
  </g>
 </g>
 <defs>
  <clipPath id="p7e7d398195">
   <rect x="71.485" y="96.85065" width="642.85" height="304.276687"/>
  </clipPath>
 </defs>
</svg>
