<?xml version="1.0" encoding="utf-8" standalone="no"?>
<!DOCTYPE svg PUBLIC "-//W3C//DTD SVG 1.1//EN"
  "http://www.w3.org/Graphics/SVG/1.1/DTD/svg11.dtd">
<svg xmlns:xlink="http://www.w3.org/1999/xlink" width="719.255938pt" height="408.327337pt" viewBox="0 0 719.255938 408.327337" xmlns="http://www.w3.org/2000/svg" version="1.1">
 <metadata>
  <rdf:RDF xmlns:dc="http://purl.org/dc/elements/1.1/" xmlns:cc="http://creativecommons.org/ns#" xmlns:rdf="http://www.w3.org/1999/02/22-rdf-syntax-ns#">
   <cc:Work>
    <dc:type rdf:resource="http://purl.org/dc/dcmitype/StillImage"/>
    <dc:date>2025-10-21T12:05:15.099568</dc:date>
    <dc:format>image/svg+xml</dc:format>
    <dc:creator>
     <cc:Agent>
      <dc:title>Matplotlib v3.8.2, https://matplotlib.org/</dc:title>
     </cc:Agent>
    </dc:creator>
   </cc:Work>
  </rdf:RDF>
 </metadata>
 <defs>
  <style type="text/css">*{stroke-linejoin: round; stroke-linecap: butt}</style>
 </defs>
 <g id="figure_1">
  <g id="patch_1">
   <path d="M 0 408.327337 
L 719.255938 408.327337 
L 719.255938 0 
L 0 0 
z
" style="fill: #ffffff"/>
  </g>
  <g id="axes_1">
   <g id="patch_2">
    <path d="M 71.277813 401.127337 
L 712.055938 401.127337 
L 712.055938 96.85065 
L 71.277813 96.85065 
z
" style="fill: #ffffff"/>
   </g>
   <g id="matplotlib.axis_1"/>
   <g id="matplotlib.axis_2">
    <g id="ytick_1">
     <g id="line2d_1">
      <path d="M 71.277813 387.296579 
L 712.055938 387.296579 
" clip-path="url(#pa6e75ad23d)" style="fill: none; stroke: #b0b0b0; stroke-opacity: 0.3; stroke-width: 0.8; stroke-linecap: square"/>
     </g>
     <g id="line2d_2">
      <defs>
       <path id="m8319579bce" d="M 0 0 
L -5 0 
" style="stroke: #000000; stroke-width: 0.8"/>
      </defs>
      <g>
       <use xlink:href="#m8319579bce" x="71.277813" y="387.296579" style="stroke: #000000; stroke-width: 0.8"/>
      </g>
     </g>
     <g id="text_1">
      <!-- 1 -->
      <g transform="translate(52.597813 393.375329) scale(0.16 -0.16)">
       <defs>
        <path id="DejaVuSans-31" d="M 794 531 
L 1825 531 
L 1825 4091 
L 703 3866 
L 703 4441 
L 1819 4666 
L 2450 4666 
L 2450 531 
L 3481 531 
L 3481 0 
L 794 0 
L 794 531 
z
" transform="scale(0.015625)"/>
       </defs>
       <use xlink:href="#DejaVuSans-31"/>
      </g>
     </g>
    </g>
    <g id="ytick_2">
     <g id="line2d_3">
      <path d="M 71.277813 321.884399 
L 712.055938 321.884399 
" clip-path="url(#pa6e75ad23d)" style="fill: none; stroke: #b0b0b0; stroke-opacity: 0.3; stroke-width: 0.8; stroke-linecap: square"/>
     </g>
     <g id="line2d_4">
      <g>
       <use xlink:href="#m8319579bce" x="71.277813" y="321.884399" style="stroke: #000000; stroke-width: 0.8"/>
      </g>
     </g>
     <g id="text_2">
      <!-- 2 -->
      <g transform="translate(52.597813 327.963149) scale(0.16 -0.16)">
       <defs>
        <path id="DejaVuSans-32" d="M 1228 531 
L 3431 531 
L 3431 0 
L 469 0 
L 469 531 
Q 828 903 1448 1529 
Q 2069 2156 2228 2338 
Q 2531 2678 2651 2914 
Q 2772 3150 2772 3378 
Q 2772 3750 2511 3984 
Q 2250 4219 1831 4219 
Q 1534 4219 1204 4116 
Q 875 4013 500 3803 
L 500 4441 
Q 881 4594 1212 4672 
Q 1544 4750 1819 4750 
Q 2544 4750 2975 4387 
Q 3406 4025 3406 3419 
Q 3406 3131 3298 2873 
Q 3191 2616 2906 2266 
Q 2828 2175 2409 1742 
Q 1991 1309 1228 531 
z
" transform="scale(0.015625)"/>
       </defs>
       <use xlink:href="#DejaVuSans-32"/>
      </g>
     </g>
    </g>
    <g id="ytick_3">
     <g id="line2d_5">
      <path d="M 71.277813 256.472219 
L 712.055938 256.472219 
" clip-path="url(#pa6e75ad23d)" style="fill: none; stroke: #b0b0b0; stroke-opacity: 0.3; stroke-width: 0.8; stroke-linecap: square"/>
     </g>
     <g id="line2d_6">
      <g>
       <use xlink:href="#m8319579bce" x="71.277813" y="256.472219" style="stroke: #000000; stroke-width: 0.8"/>
      </g>
     </g>
     <g id="text_3">
      <!-- 3 -->
      <g transform="translate(52.597813 262.550969) scale(0.16 -0.16)">
       <defs>
        <path id="DejaVuSans-33" d="M 2597 2516 
Q 3050 2419 3304 2112 
Q 3559 1806 3559 1356 
Q 3559 666 3084 287 
Q 2609 -91 1734 -91 
Q 1441 -91 1130 -33 
Q 819 25 488 141 
L 488 750 
Q 750 597 1062 519 
Q 1375 441 1716 441 
Q 2309 441 2620 675 
Q 2931 909 2931 1356 
Q 2931 1769 2642 2001 
Q 2353 2234 1838 2234 
L 1294 2234 
L 1294 2753 
L 1863 2753 
Q 2328 2753 2575 2939 
Q 2822 3125 2822 3475 
Q 2822 3834 2567 4026 
Q 2313 4219 1838 4219 
Q 1578 4219 1281 4162 
Q 984 4106 628 3988 
L 628 4550 
Q 988 4650 1302 4700 
Q 1616 4750 1894 4750 
Q 2613 4750 3031 4423 
Q 3450 4097 3450 3541 
Q 3450 3153 3228 2886 
Q 3006 2619 2597 2516 
z
" transform="scale(0.015625)"/>
       </defs>
       <use xlink:href="#DejaVuSans-33"/>
      </g>
     </g>
    </g>
    <g id="ytick_4">
     <g id="line2d_7">
      <path d="M 71.277813 191.060039 
L 712.055938 191.060039 
" clip-path="url(#pa6e75ad23d)" style="fill: none; stroke: #b0b0b0; stroke-opacity: 0.3; stroke-width: 0.8; stroke-linecap: square"/>
     </g>
     <g id="line2d_8">
      <g>
       <use xlink:href="#m8319579bce" x="71.277813" y="191.060039" style="stroke: #000000; stroke-width: 0.8"/>
      </g>
     </g>
     <g id="text_4">
      <!-- 4 -->
      <g transform="translate(52.597813 197.138789) scale(0.16 -0.16)">
       <defs>
        <path id="DejaVuSans-34" d="M 2419 4116 
L 825 1625 
L 2419 1625 
L 2419 4116 
z
M 2253 4666 
L 3047 4666 
L 3047 1625 
L 3713 1625 
L 3713 1100 
L 3047 1100 
L 3047 0 
L 2419 0 
L 2419 1100 
L 313 1100 
L 313 1709 
L 2253 4666 
z
" transform="scale(0.015625)"/>
       </defs>
       <use xlink:href="#DejaVuSans-34"/>
      </g>
     </g>
    </g>
    <g id="ytick_5">
     <g id="line2d_9">
      <path d="M 71.277813 125.647859 
L 712.055938 125.647859 
" clip-path="url(#pa6e75ad23d)" style="fill: none; stroke: #b0b0b0; stroke-opacity: 0.3; stroke-width: 0.8; stroke-linecap: square"/>
     </g>
     <g id="line2d_10">
      <g>
       <use xlink:href="#m8319579bce" x="71.277813" y="125.647859" style="stroke: #000000; stroke-width: 0.8"/>
      </g>
     </g>
     <g id="text_5">
      <!-- 5 -->
      <g transform="translate(52.597813 131.726609) scale(0.16 -0.16)">
       <defs>
        <path id="DejaVuSans-35" d="M 691 4666 
L 3169 4666 
L 3169 4134 
L 1269 4134 
L 1269 2991 
Q 1406 3038 1543 3061 
Q 1681 3084 1819 3084 
Q 2600 3084 3056 2656 
Q 3513 2228 3513 1497 
Q 3513 744 3044 326 
Q 2575 -91 1722 -91 
Q 1428 -91 1123 -41 
Q 819 9 494 109 
L 494 744 
Q 775 591 1075 516 
Q 1375 441 1709 441 
Q 2250 441 2565 725 
Q 2881 1009 2881 1497 
Q 2881 1984 2565 2268 
Q 2250 2553 1709 2553 
Q 1456 2553 1204 2497 
Q 953 2441 691 2322 
L 691 4666 
z
" transform="scale(0.015625)"/>
       </defs>
       <use xlink:href="#DejaVuSans-35"/>
      </g>
     </g>
    </g>
    <g id="text_6">
     <!-- Neurons -->
     <g transform="translate(45.270313 282.207744) rotate(-90) scale(0.16 -0.16)">
      <defs>
       <path id="DejaVuSans-4e" d="M 628 4666 
L 1478 4666 
L 3547 763 
L 3547 4666 
L 4159 4666 
L 4159 0 
L 3309 0 
L 1241 3903 
L 1241 0 
L 628 0 
L 628 4666 
z
" transform="scale(0.015625)"/>
       <path id="DejaVuSans-65" d="M 3597 1894 
L 3597 1613 
L 953 1613 
Q 991 1019 1311 708 
Q 1631 397 2203 397 
Q 2534 397 2845 478 
Q 3156 559 3463 722 
L 3463 178 
Q 3153 47 2828 -22 
Q 2503 -91 2169 -91 
Q 1331 -91 842 396 
Q 353 884 353 1716 
Q 353 2575 817 3079 
Q 1281 3584 2069 3584 
Q 2775 3584 3186 3129 
Q 3597 2675 3597 1894 
z
M 3022 2063 
Q 3016 2534 2758 2815 
Q 2500 3097 2075 3097 
Q 1594 3097 1305 2825 
Q 1016 2553 972 2059 
L 3022 2063 
z
" transform="scale(0.015625)"/>
       <path id="DejaVuSans-75" d="M 544 1381 
L 544 3500 
L 1119 3500 
L 1119 1403 
Q 1119 906 1312 657 
Q 1506 409 1894 409 
Q 2359 409 2629 706 
Q 2900 1003 2900 1516 
L 2900 3500 
L 3475 3500 
L 3475 0 
L 2900 0 
L 2900 538 
Q 2691 219 2414 64 
Q 2138 -91 1772 -91 
Q 1169 -91 856 284 
Q 544 659 544 1381 
z
M 1991 3584 
L 1991 3584 
z
" transform="scale(0.015625)"/>
       <path id="DejaVuSans-72" d="M 2631 2963 
Q 2534 3019 2420 3045 
Q 2306 3072 2169 3072 
Q 1681 3072 1420 2755 
Q 1159 2438 1159 1844 
L 1159 0 
L 581 0 
L 581 3500 
L 1159 3500 
L 1159 2956 
Q 1341 3275 1631 3429 
Q 1922 3584 2338 3584 
Q 2397 3584 2469 3576 
Q 2541 3569 2628 3553 
L 2631 2963 
z
" transform="scale(0.015625)"/>
       <path id="DejaVuSans-6f" d="M 1959 3097 
Q 1497 3097 1228 2736 
Q 959 2375 959 1747 
Q 959 1119 1226 758 
Q 1494 397 1959 397 
Q 2419 397 2687 759 
Q 2956 1122 2956 1747 
Q 2956 2369 2687 2733 
Q 2419 3097 1959 3097 
z
M 1959 3584 
Q 2709 3584 3137 3096 
Q 3566 2609 3566 1747 
Q 3566 888 3137 398 
Q 2709 -91 1959 -91 
Q 1206 -91 779 398 
Q 353 888 353 1747 
Q 353 2609 779 3096 
Q 1206 3584 1959 3584 
z
" transform="scale(0.015625)"/>
       <path id="DejaVuSans-6e" d="M 3513 2113 
L 3513 0 
L 2938 0 
L 2938 2094 
Q 2938 2591 2744 2837 
Q 2550 3084 2163 3084 
Q 1697 3084 1428 2787 
Q 1159 2491 1159 1978 
L 1159 0 
L 581 0 
L 581 3500 
L 1159 3500 
L 1159 2956 
Q 1366 3272 1645 3428 
Q 1925 3584 2291 3584 
Q 2894 3584 3203 3211 
Q 3513 2838 3513 2113 
z
" transform="scale(0.015625)"/>
       <path id="DejaVuSans-73" d="M 2834 3397 
L 2834 2853 
Q 2591 2978 2328 3040 
Q 2066 3103 1784 3103 
Q 1356 3103 1142 2972 
Q 928 2841 928 2578 
Q 928 2378 1081 2264 
Q 1234 2150 1697 2047 
L 1894 2003 
Q 2506 1872 2764 1633 
Q 3022 1394 3022 966 
Q 3022 478 2636 193 
Q 2250 -91 1575 -91 
Q 1294 -91 989 -36 
Q 684 19 347 128 
L 347 722 
Q 666 556 975 473 
Q 1284 391 1588 391 
Q 1994 391 2212 530 
Q 2431 669 2431 922 
Q 2431 1156 2273 1281 
Q 2116 1406 1581 1522 
L 1381 1569 
Q 847 1681 609 1914 
Q 372 2147 372 2553 
Q 372 3047 722 3315 
Q 1072 3584 1716 3584 
Q 2034 3584 2315 3537 
Q 2597 3491 2834 3397 
z
" transform="scale(0.015625)"/>
      </defs>
      <use xlink:href="#DejaVuSans-4e"/>
      <use xlink:href="#DejaVuSans-65" x="74.804688"/>
      <use xlink:href="#DejaVuSans-75" x="136.328125"/>
      <use xlink:href="#DejaVuSans-72" x="199.707031"/>
      <use xlink:href="#DejaVuSans-6f" x="238.570312"/>
      <use xlink:href="#DejaVuSans-6e" x="299.751953"/>
      <use xlink:href="#DejaVuSans-73" x="363.130859"/>
     </g>
    </g>
   </g>
   <g id="line2d_11">
    <path d="M 100.404091 383.120734 
L 103.899943 383.947692 
L 107.978438 384.673552 
L 112.756103 385.288973 
L 118.582524 385.80863 
L 125.341173 386.185783 
L 131.983293 386.338018 
L 139.208055 386.273726 
L 146.19976 385.999714 
L 155.288976 385.396636 
L 165.193892 384.492294 
L 173.816995 383.387198 
L 183.02274 382.095674 
L 188.033462 381.192493 
L 190.946673 380.443044 
L 193.39377 379.586611 
L 195.724338 378.527912 
L 197.938378 377.26931 
L 199.919361 375.885539 
L 201.550759 374.491272 
L 203.065628 372.89817 
L 204.347441 371.230608 
L 205.512725 369.35791 
L 206.561481 367.27582 
L 207.610237 364.677645 
L 208.542464 361.763162 
L 209.474691 358.032411 
L 210.29039 353.821398 
L 211.106089 348.421845 
L 212.038317 340.63273 
L 213.320129 329.679409 
L 213.902771 326.623662 
L 214.368885 325.289033 
L 214.834999 324.614879 
L 215.301112 324.298486 
L 216.000283 324.112354 
L 217.398624 324.028933 
L 222.059761 324.055773 
L 224.856443 324.245469 
L 226.371312 324.549744 
L 227.420068 324.96931 
L 228.235767 325.522668 
L 228.934937 326.256451 
L 229.634108 327.338778 
L 230.333278 328.865817 
L 231.148977 331.241686 
L 232.314262 335.439802 
L 235.460529 347.121471 
L 237.208455 352.651433 
L 238.956381 357.43997 
L 240.704308 361.570331 
L 242.452234 365.127426 
L 244.20016 368.187735 
L 245.948087 370.818115 
L 247.812541 373.21486 
L 249.676996 375.247847 
L 251.657979 377.066389 
L 253.638962 378.584968 
L 255.736474 379.916151 
L 257.950514 381.060173 
L 260.397611 382.064717 
L 263.077764 382.914187 
L 266.107503 383.631751 
L 269.603356 384.221041 
L 273.68185 384.670854 
L 278.459516 384.959183 
L 284.985107 385.117618 
L 290.228886 385.042206 
L 294.773494 384.753299 
L 300.832972 384.122766 
L 307.358564 383.252289 
L 311.786644 382.437223 
L 315.165968 381.604346 
L 317.846121 380.720067 
L 320.060161 379.76886 
L 322.041144 378.681979 
L 323.905599 377.401887 
L 325.536997 376.021991 
L 327.051866 374.465289 
L 328.450208 372.721153 
L 329.73202 370.76966 
L 330.897304 368.58896 
L 331.94606 366.166187 
L 332.994816 363.130425 
L 333.927043 359.699233 
L 334.742742 355.897663 
L 335.558441 351.085413 
L 336.490668 344.067736 
L 338.471652 328.053144 
L 338.937765 326.120677 
L 339.403879 325.043419 
L 339.869993 324.507036 
L 340.452635 324.21551 
L 341.384862 324.068975 
L 343.71543 324.020902 
L 348.376567 324.132129 
L 350.35755 324.380611 
L 351.639363 324.755683 
L 352.57159 325.254021 
L 353.387289 325.967623 
L 354.08646 326.8978 
L 354.78563 328.226831 
L 355.601329 330.357423 
L 356.650085 333.888816 
L 361.194693 350.279852 
L 362.94262 355.386381 
L 364.690546 359.798576 
L 366.438472 363.601557 
L 368.186399 366.875672 
L 369.934325 369.692215 
L 371.682251 372.113273 
L 373.546706 374.32015 
L 375.411161 376.193861 
L 377.392144 377.872839 
L 379.489655 379.353458 
L 381.703695 380.637021 
L 384.034264 381.727441 
L 386.48136 382.631269 
L 389.161514 383.387744 
L 392.191253 384.007251 
L 395.454049 384.445959 
L 399.06643 384.697569 
L 403.028396 384.745354 
L 406.990362 384.575347 
L 411.185385 384.170988 
L 415.496937 383.533047 
L 419.808488 382.671607 
L 425.984494 381.177942 
L 431.344802 379.658186 
L 441.715831 376.469059 
L 445.328212 375.100852 
L 448.241423 373.768031 
L 450.571991 372.467243 
L 452.552974 371.122094 
L 454.3009 369.665079 
L 455.81577 368.098498 
L 457.097582 366.452566 
L 458.262867 364.590965 
L 459.311622 362.490699 
L 460.24385 360.142573 
L 461.176077 357.144826 
L 461.991776 353.765091 
L 462.807475 349.407488 
L 463.623174 343.818676 
L 465.837214 327.220548 
L 466.303328 325.636734 
L 466.769441 324.792472 
L 467.235555 324.38384 
L 467.818197 324.164614 
L 468.866953 324.048631 
L 472.01322 324.022563 
L 476.091715 324.158625 
L 477.95617 324.42339 
L 479.121454 324.784347 
L 480.053681 325.296097 
L 480.86938 326.027081 
L 481.568551 326.976986 
L 482.267721 328.329402 
L 483.08342 330.487006 
L 484.132176 334.03858 
L 488.560256 350.012701 
L 490.308182 355.146702 
L 492.056108 359.584224 
L 493.804035 363.409311 
L 495.551961 366.701673 
L 497.299887 369.532206 
L 499.047813 371.962894 
L 500.912268 374.175588 
L 502.776723 376.051053 
L 504.757706 377.728324 
L 506.855217 379.203921 
L 509.069257 380.479202 
L 511.399826 381.561303 
L 513.963451 382.500049 
L 516.760133 383.283067 
L 519.9064 383.930786 
L 523.518781 384.441686 
L 527.713805 384.802534 
L 532.374941 384.977999 
L 537.61872 384.941475 
L 542.979027 384.688235 
L 547.756693 384.247522 
L 551.485602 383.680284 
L 555.447568 382.845481 
L 558.943421 381.895888 
L 561.740103 380.906487 
L 564.070671 379.846432 
L 566.168183 378.652543 
L 568.149166 377.26984 
L 569.897092 375.771957 
L 571.411962 374.181709 
L 572.810303 372.390537 
L 574.092115 370.376537 
L 575.2574 368.115738 
L 576.306155 365.591244 
L 577.238383 362.802842 
L 578.17061 359.294085 
L 578.986309 355.4066 
L 579.802008 350.50293 
L 580.734235 343.426637 
L 582.59869 328.461441 
L 583.064804 326.401318 
L 583.530917 325.209574 
L 583.997031 324.597545 
L 584.579673 324.256924 
L 585.395372 324.093312 
L 587.259827 324.025908 
L 592.037492 324.10015 
L 594.251532 324.317543 
L 595.649873 324.666087 
L 596.5821 325.103337 
L 597.397799 325.733012 
L 598.09697 326.563191 
L 598.79614 327.771755 
L 599.495311 329.440596 
L 600.427538 332.363048 
L 601.942408 338.063211 
L 604.272976 346.65997 
L 606.020902 352.253631 
L 607.768829 357.099926 
L 609.516755 361.281051 
L 611.264681 364.882577 
L 613.012607 367.981937 
L 614.760534 370.646885 
L 616.624988 373.076263 
L 618.489443 375.137735 
L 620.353898 376.881848 
L 622.334881 378.434776 
L 624.432393 379.787449 
L 626.529904 380.878642 
L 628.743944 381.782501 
L 631.074512 382.495324 
L 633.638138 383.040152 
L 636.318291 383.379517 
L 639.34803 383.528017 
L 642.727354 383.466945 
L 646.922378 383.153882 
L 668.13055 381.231248 
L 673.956971 381.095707 
L 682.929659 381.067339 
L 682.929659 381.067339 
" clip-path="url(#pa6e75ad23d)" style="fill: none; stroke: #1f77b4; stroke-width: 1.5; stroke-linecap: square"/>
   </g>
   <g id="line2d_12">
    <path d="M 100.404091 387.296579 
L 681.880903 387.296579 
L 681.880903 387.296579 
" clip-path="url(#pa6e75ad23d)" style="fill: none; stroke-dasharray: 2.96,1.28; stroke-dashoffset: 0; stroke: #808080; stroke-opacity: 0.7; stroke-width: 0.8"/>
   </g>
   <g id="line2d_13">
    <path d="M 100.404091 311.84049 
L 102.501602 313.49032 
L 104.715642 314.93942 
L 107.046211 316.195917 
L 109.609836 317.317513 
L 112.406518 318.290733 
L 115.552785 319.140203 
L 119.048638 319.850842 
L 123.127133 320.450941 
L 128.021326 320.942167 
L 134.197333 321.329356 
L 142.47085 321.610917 
L 154.939391 321.789532 
L 179.293831 321.870737 
L 310.504831 321.882559 
L 682.929659 321.882387 
L 682.929659 321.882387 
" clip-path="url(#pa6e75ad23d)" style="fill: none; stroke: #ff7f0e; stroke-width: 1.5; stroke-linecap: square"/>
   </g>
   <g id="line2d_14">
    <path d="M 100.404091 321.884399 
L 681.880903 321.884399 
L 681.880903 321.884399 
" clip-path="url(#pa6e75ad23d)" style="fill: none; stroke-dasharray: 2.96,1.28; stroke-dashoffset: 0; stroke: #808080; stroke-opacity: 0.7; stroke-width: 0.8"/>
   </g>
   <g id="line2d_15">
    <path d="M 100.404091 248.099412 
L 102.618131 249.545425 
L 104.948699 250.799192 
L 107.512324 251.918277 
L 110.309007 252.889174 
L 113.455274 253.736491 
L 116.951126 254.445212 
L 121.029621 255.043595 
L 126.040343 255.542729 
L 132.332878 255.930385 
L 140.722924 256.208266 
L 153.424522 256.383107 
L 178.59466 256.461256 
L 308.174263 256.471549 
L 682.929659 256.471611 
L 682.929659 256.471611 
" clip-path="url(#pa6e75ad23d)" style="fill: none; stroke: #2ca02c; stroke-width: 1.5; stroke-linecap: square"/>
   </g>
   <g id="line2d_16">
    <path d="M 100.404091 256.472219 
L 681.880903 256.472219 
L 681.880903 256.472219 
" clip-path="url(#pa6e75ad23d)" style="fill: none; stroke-dasharray: 2.96,1.28; stroke-dashoffset: 0; stroke: #808080; stroke-opacity: 0.7; stroke-width: 0.8"/>
   </g>
   <g id="line2d_17">
    <path d="M 100.404091 167.092689 
L 102.152017 170.385612 
L 103.899943 173.22611 
L 105.764398 175.82544 
L 107.628853 178.043429 
L 109.609836 180.044173 
L 111.590819 181.73413 
L 113.688331 183.23847 
L 115.902371 184.56053 
L 118.349467 185.759791 
L 121.029621 186.816821 
L 123.942832 187.723387 
L 127.205627 188.504907 
L 130.934537 189.168277 
L 135.362617 189.724318 
L 140.722924 190.166231 
L 147.481572 190.491802 
L 156.687317 190.697788 
L 169.855029 190.756676 
L 207.493708 190.585438 
L 234.178716 190.574708 
L 310.621359 190.770712 
L 331.013833 190.561545 
L 346.628641 190.521808 
L 380.421883 190.723146 
L 409.787044 190.809015 
L 432.626614 190.679822 
L 453.485201 190.572026 
L 554.631869 190.759546 
L 599.262254 190.667283 
L 621.752239 190.749876 
L 656.244651 190.703963 
L 682.929659 190.782097 
L 682.929659 190.782097 
" clip-path="url(#pa6e75ad23d)" style="fill: none; stroke: #d62728; stroke-width: 1.5; stroke-linecap: square"/>
   </g>
   <g id="line2d_18">
    <path d="M 100.404091 191.060039 
L 681.880903 191.060039 
L 681.880903 191.060039 
" clip-path="url(#pa6e75ad23d)" style="fill: none; stroke-dasharray: 2.96,1.28; stroke-dashoffset: 0; stroke: #808080; stroke-opacity: 0.7; stroke-width: 0.8"/>
   </g>
   <g id="line2d_19">
    <path d="M 100.404091 110.681409 
L 102.851188 113.238755 
L 105.065228 115.239499 
L 107.279268 116.94237 
L 109.609836 118.446117 
L 112.056933 119.751646 
L 114.620558 120.868625 
L 117.41724 121.848208 
L 120.563507 122.711948 
L 124.175888 123.462215 
L 128.254383 124.076833 
L 133.148577 124.581597 
L 139.208055 124.973105 
L 147.131987 125.249551 
L 158.668301 125.408594 
L 181.391342 125.456191 
L 207.260651 125.338726 
L 231.382034 125.26839 
L 303.862711 125.468293 
L 382.635923 125.431176 
L 413.515954 125.469572 
L 502.310609 125.366548 
L 581.433406 125.361464 
L 604.972147 125.378058 
L 636.551348 125.411276 
L 678.618108 125.465985 
L 682.929659 125.474344 
L 682.929659 125.474344 
" clip-path="url(#pa6e75ad23d)" style="fill: none; stroke: #9467bd; stroke-width: 1.5; stroke-linecap: square"/>
   </g>
   <g id="line2d_20">
    <path d="M 100.404091 125.647859 
L 681.880903 125.647859 
L 681.880903 125.647859 
" clip-path="url(#pa6e75ad23d)" style="fill: none; stroke-dasharray: 2.96,1.28; stroke-dashoffset: 0; stroke: #808080; stroke-opacity: 0.7; stroke-width: 0.8"/>
   </g>
   <g id="text_7">
    <!-- Excitatory Synaptic Variables -->
    <g transform="translate(216.718125 60.422981) scale(0.24 -0.24)">
     <defs>
      <path id="DejaVuSans-45" d="M 628 4666 
L 3578 4666 
L 3578 4134 
L 1259 4134 
L 1259 2753 
L 3481 2753 
L 3481 2222 
L 1259 2222 
L 1259 531 
L 3634 531 
L 3634 0 
L 628 0 
L 628 4666 
z
" transform="scale(0.015625)"/>
      <path id="DejaVuSans-78" d="M 3513 3500 
L 2247 1797 
L 3578 0 
L 2900 0 
L 1881 1375 
L 863 0 
L 184 0 
L 1544 1831 
L 300 3500 
L 978 3500 
L 1906 2253 
L 2834 3500 
L 3513 3500 
z
" transform="scale(0.015625)"/>
      <path id="DejaVuSans-63" d="M 3122 3366 
L 3122 2828 
Q 2878 2963 2633 3030 
Q 2388 3097 2138 3097 
Q 1578 3097 1268 2742 
Q 959 2388 959 1747 
Q 959 1106 1268 751 
Q 1578 397 2138 397 
Q 2388 397 2633 464 
Q 2878 531 3122 666 
L 3122 134 
Q 2881 22 2623 -34 
Q 2366 -91 2075 -91 
Q 1284 -91 818 406 
Q 353 903 353 1747 
Q 353 2603 823 3093 
Q 1294 3584 2113 3584 
Q 2378 3584 2631 3529 
Q 2884 3475 3122 3366 
z
" transform="scale(0.015625)"/>
      <path id="DejaVuSans-69" d="M 603 3500 
L 1178 3500 
L 1178 0 
L 603 0 
L 603 3500 
z
M 603 4863 
L 1178 4863 
L 1178 4134 
L 603 4134 
L 603 4863 
z
" transform="scale(0.015625)"/>
      <path id="DejaVuSans-74" d="M 1172 4494 
L 1172 3500 
L 2356 3500 
L 2356 3053 
L 1172 3053 
L 1172 1153 
Q 1172 725 1289 603 
Q 1406 481 1766 481 
L 2356 481 
L 2356 0 
L 1766 0 
Q 1100 0 847 248 
Q 594 497 594 1153 
L 594 3053 
L 172 3053 
L 172 3500 
L 594 3500 
L 594 4494 
L 1172 4494 
z
" transform="scale(0.015625)"/>
      <path id="DejaVuSans-61" d="M 2194 1759 
Q 1497 1759 1228 1600 
Q 959 1441 959 1056 
Q 959 750 1161 570 
Q 1363 391 1709 391 
Q 2188 391 2477 730 
Q 2766 1069 2766 1631 
L 2766 1759 
L 2194 1759 
z
M 3341 1997 
L 3341 0 
L 2766 0 
L 2766 531 
Q 2569 213 2275 61 
Q 1981 -91 1556 -91 
Q 1019 -91 701 211 
Q 384 513 384 1019 
Q 384 1609 779 1909 
Q 1175 2209 1959 2209 
L 2766 2209 
L 2766 2266 
Q 2766 2663 2505 2880 
Q 2244 3097 1772 3097 
Q 1472 3097 1187 3025 
Q 903 2953 641 2809 
L 641 3341 
Q 956 3463 1253 3523 
Q 1550 3584 1831 3584 
Q 2591 3584 2966 3190 
Q 3341 2797 3341 1997 
z
" transform="scale(0.015625)"/>
      <path id="DejaVuSans-79" d="M 2059 -325 
Q 1816 -950 1584 -1140 
Q 1353 -1331 966 -1331 
L 506 -1331 
L 506 -850 
L 844 -850 
Q 1081 -850 1212 -737 
Q 1344 -625 1503 -206 
L 1606 56 
L 191 3500 
L 800 3500 
L 1894 763 
L 2988 3500 
L 3597 3500 
L 2059 -325 
z
" transform="scale(0.015625)"/>
      <path id="DejaVuSans-20" transform="scale(0.015625)"/>
      <path id="DejaVuSans-53" d="M 3425 4513 
L 3425 3897 
Q 3066 4069 2747 4153 
Q 2428 4238 2131 4238 
Q 1616 4238 1336 4038 
Q 1056 3838 1056 3469 
Q 1056 3159 1242 3001 
Q 1428 2844 1947 2747 
L 2328 2669 
Q 3034 2534 3370 2195 
Q 3706 1856 3706 1288 
Q 3706 609 3251 259 
Q 2797 -91 1919 -91 
Q 1588 -91 1214 -16 
Q 841 59 441 206 
L 441 856 
Q 825 641 1194 531 
Q 1563 422 1919 422 
Q 2459 422 2753 634 
Q 3047 847 3047 1241 
Q 3047 1584 2836 1778 
Q 2625 1972 2144 2069 
L 1759 2144 
Q 1053 2284 737 2584 
Q 422 2884 422 3419 
Q 422 4038 858 4394 
Q 1294 4750 2059 4750 
Q 2388 4750 2728 4690 
Q 3069 4631 3425 4513 
z
" transform="scale(0.015625)"/>
      <path id="DejaVuSans-70" d="M 1159 525 
L 1159 -1331 
L 581 -1331 
L 581 3500 
L 1159 3500 
L 1159 2969 
Q 1341 3281 1617 3432 
Q 1894 3584 2278 3584 
Q 2916 3584 3314 3078 
Q 3713 2572 3713 1747 
Q 3713 922 3314 415 
Q 2916 -91 2278 -91 
Q 1894 -91 1617 61 
Q 1341 213 1159 525 
z
M 3116 1747 
Q 3116 2381 2855 2742 
Q 2594 3103 2138 3103 
Q 1681 3103 1420 2742 
Q 1159 2381 1159 1747 
Q 1159 1113 1420 752 
Q 1681 391 2138 391 
Q 2594 391 2855 752 
Q 3116 1113 3116 1747 
z
" transform="scale(0.015625)"/>
      <path id="DejaVuSans-56" d="M 1831 0 
L 50 4666 
L 709 4666 
L 2188 738 
L 3669 4666 
L 4325 4666 
L 2547 0 
L 1831 0 
z
" transform="scale(0.015625)"/>
      <path id="DejaVuSans-62" d="M 3116 1747 
Q 3116 2381 2855 2742 
Q 2594 3103 2138 3103 
Q 1681 3103 1420 2742 
Q 1159 2381 1159 1747 
Q 1159 1113 1420 752 
Q 1681 391 2138 391 
Q 2594 391 2855 752 
Q 3116 1113 3116 1747 
z
M 1159 2969 
Q 1341 3281 1617 3432 
Q 1894 3584 2278 3584 
Q 2916 3584 3314 3078 
Q 3713 2572 3713 1747 
Q 3713 922 3314 415 
Q 2916 -91 2278 -91 
Q 1894 -91 1617 61 
Q 1341 213 1159 525 
L 1159 0 
L 581 0 
L 581 4863 
L 1159 4863 
L 1159 2969 
z
" transform="scale(0.015625)"/>
      <path id="DejaVuSans-6c" d="M 603 4863 
L 1178 4863 
L 1178 0 
L 603 0 
L 603 4863 
z
" transform="scale(0.015625)"/>
     </defs>
     <use xlink:href="#DejaVuSans-45"/>
     <use xlink:href="#DejaVuSans-78" x="63.183594"/>
     <use xlink:href="#DejaVuSans-63" x="120.613281"/>
     <use xlink:href="#DejaVuSans-69" x="175.59375"/>
     <use xlink:href="#DejaVuSans-74" x="203.376953"/>
     <use xlink:href="#DejaVuSans-61" x="242.585938"/>
     <use xlink:href="#DejaVuSans-74" x="303.865234"/>
     <use xlink:href="#DejaVuSans-6f" x="343.074219"/>
     <use xlink:href="#DejaVuSans-72" x="404.255859"/>
     <use xlink:href="#DejaVuSans-79" x="445.369141"/>
     <use xlink:href="#DejaVuSans-20" x="504.548828"/>
     <use xlink:href="#DejaVuSans-53" x="536.335938"/>
     <use xlink:href="#DejaVuSans-79" x="599.8125"/>
     <use xlink:href="#DejaVuSans-6e" x="658.992188"/>
     <use xlink:href="#DejaVuSans-61" x="722.371094"/>
     <use xlink:href="#DejaVuSans-70" x="783.650391"/>
     <use xlink:href="#DejaVuSans-74" x="847.126953"/>
     <use xlink:href="#DejaVuSans-69" x="886.335938"/>
     <use xlink:href="#DejaVuSans-63" x="914.119141"/>
     <use xlink:href="#DejaVuSans-20" x="969.099609"/>
     <use xlink:href="#DejaVuSans-56" x="1000.886719"/>
     <use xlink:href="#DejaVuSans-61" x="1061.544922"/>
     <use xlink:href="#DejaVuSans-72" x="1122.824219"/>
     <use xlink:href="#DejaVuSans-69" x="1163.9375"/>
     <use xlink:href="#DejaVuSans-61" x="1191.720703"/>
     <use xlink:href="#DejaVuSans-62" x="1253"/>
     <use xlink:href="#DejaVuSans-6c" x="1316.476562"/>
     <use xlink:href="#DejaVuSans-65" x="1344.259766"/>
     <use xlink:href="#DejaVuSans-73" x="1405.783203"/>
    </g>
   </g>
   <g id="text_8">
    <!-- E -->
    <g transform="translate(7.2 29.995313) scale(0.3 -0.3)">
     <use xlink:href="#DejaVuSans-45"/>
    </g>
   </g>
  </g>
 </g>
 <defs>
  <clipPath id="pa6e75ad23d">
   <rect x="71.277813" y="96.85065" width="640.778125" height="304.276687"/>
  </clipPath>
 </defs>
</svg>
