<?xml version="1.0" encoding="utf-8" standalone="no"?>
<!DOCTYPE svg PUBLIC "-//W3C//DTD SVG 1.1//EN"
  "http://www.w3.org/Graphics/SVG/1.1/DTD/svg11.dtd">
<svg xmlns:xlink="http://www.w3.org/1999/xlink" width="718.320078pt" height="404.430337pt" viewBox="0 0 718.320078 404.430337" xmlns="http://www.w3.org/2000/svg" version="1.1">
 <metadata>
  <rdf:RDF xmlns:dc="http://purl.org/dc/elements/1.1/" xmlns:cc="http://creativecommons.org/ns#" xmlns:rdf="http://www.w3.org/1999/02/22-rdf-syntax-ns#">
   <cc:Work>
    <dc:type rdf:resource="http://purl.org/dc/dcmitype/StillImage"/>
    <dc:date>2025-10-21T12:05:14.946636</dc:date>
    <dc:format>image/svg+xml</dc:format>
    <dc:creator>
     <cc:Agent>
      <dc:title>Matplotlib v3.8.2, https://matplotlib.org/</dc:title>
     </cc:Agent>
    </dc:creator>
   </cc:Work>
  </rdf:RDF>
 </metadata>
 <defs>
  <style type="text/css">*{stroke-linejoin: round; stroke-linecap: butt}</style>
 </defs>
 <g id="figure_1">
  <g id="patch_1">
   <path d="M 0 404.430337 
L 718.320078 404.430337 
L 718.320078 0 
L 0 0 
z
" style="fill: #ffffff"/>
  </g>
  <g id="axes_1">
   <g id="patch_2">
    <path d="M 71.192734 377.745337 
L 711.120078 377.745337 
L 711.120078 92.95365 
L 71.192734 92.95365 
z
" style="fill: #ffffff"/>
   </g>
   <g id="matplotlib.axis_1">
    <g id="text_1">
     <!-- Time (ms) -->
     <g transform="translate(350.837656 393.902837) scale(0.16 -0.16)">
      <defs>
       <path id="DejaVuSans-54" d="M -19 4666 
L 3928 4666 
L 3928 4134 
L 2272 4134 
L 2272 0 
L 1638 0 
L 1638 4134 
L -19 4134 
L -19 4666 
z
" transform="scale(0.015625)"/>
       <path id="DejaVuSans-69" d="M 603 3500 
L 1178 3500 
L 1178 0 
L 603 0 
L 603 3500 
z
M 603 4863 
L 1178 4863 
L 1178 4134 
L 603 4134 
L 603 4863 
z
" transform="scale(0.015625)"/>
       <path id="DejaVuSans-6d" d="M 3328 2828 
Q 3544 3216 3844 3400 
Q 4144 3584 4550 3584 
Q 5097 3584 5394 3201 
Q 5691 2819 5691 2113 
L 5691 0 
L 5113 0 
L 5113 2094 
Q 5113 2597 4934 2840 
Q 4756 3084 4391 3084 
Q 3944 3084 3684 2787 
Q 3425 2491 3425 1978 
L 3425 0 
L 2847 0 
L 2847 2094 
Q 2847 2600 2669 2842 
Q 2491 3084 2119 3084 
Q 1678 3084 1418 2786 
Q 1159 2488 1159 1978 
L 1159 0 
L 581 0 
L 581 3500 
L 1159 3500 
L 1159 2956 
Q 1356 3278 1631 3431 
Q 1906 3584 2284 3584 
Q 2666 3584 2933 3390 
Q 3200 3197 3328 2828 
z
" transform="scale(0.015625)"/>
       <path id="DejaVuSans-65" d="M 3597 1894 
L 3597 1613 
L 953 1613 
Q 991 1019 1311 708 
Q 1631 397 2203 397 
Q 2534 397 2845 478 
Q 3156 559 3463 722 
L 3463 178 
Q 3153 47 2828 -22 
Q 2503 -91 2169 -91 
Q 1331 -91 842 396 
Q 353 884 353 1716 
Q 353 2575 817 3079 
Q 1281 3584 2069 3584 
Q 2775 3584 3186 3129 
Q 3597 2675 3597 1894 
z
M 3022 2063 
Q 3016 2534 2758 2815 
Q 2500 3097 2075 3097 
Q 1594 3097 1305 2825 
Q 1016 2553 972 2059 
L 3022 2063 
z
" transform="scale(0.015625)"/>
       <path id="DejaVuSans-20" transform="scale(0.015625)"/>
       <path id="DejaVuSans-28" d="M 1984 4856 
Q 1566 4138 1362 3434 
Q 1159 2731 1159 2009 
Q 1159 1288 1364 580 
Q 1569 -128 1984 -844 
L 1484 -844 
Q 1016 -109 783 600 
Q 550 1309 550 2009 
Q 550 2706 781 3412 
Q 1013 4119 1484 4856 
L 1984 4856 
z
" transform="scale(0.015625)"/>
       <path id="DejaVuSans-73" d="M 2834 3397 
L 2834 2853 
Q 2591 2978 2328 3040 
Q 2066 3103 1784 3103 
Q 1356 3103 1142 2972 
Q 928 2841 928 2578 
Q 928 2378 1081 2264 
Q 1234 2150 1697 2047 
L 1894 2003 
Q 2506 1872 2764 1633 
Q 3022 1394 3022 966 
Q 3022 478 2636 193 
Q 2250 -91 1575 -91 
Q 1294 -91 989 -36 
Q 684 19 347 128 
L 347 722 
Q 666 556 975 473 
Q 1284 391 1588 391 
Q 1994 391 2212 530 
Q 2431 669 2431 922 
Q 2431 1156 2273 1281 
Q 2116 1406 1581 1522 
L 1381 1569 
Q 847 1681 609 1914 
Q 372 2147 372 2553 
Q 372 3047 722 3315 
Q 1072 3584 1716 3584 
Q 2034 3584 2315 3537 
Q 2597 3491 2834 3397 
z
" transform="scale(0.015625)"/>
       <path id="DejaVuSans-29" d="M 513 4856 
L 1013 4856 
Q 1481 4119 1714 3412 
Q 1947 2706 1947 2009 
Q 1947 1309 1714 600 
Q 1481 -109 1013 -844 
L 513 -844 
Q 928 -128 1133 580 
Q 1338 1288 1338 2009 
Q 1338 2731 1133 3434 
Q 928 4138 513 4856 
z
" transform="scale(0.015625)"/>
      </defs>
      <use xlink:href="#DejaVuSans-54"/>
      <use xlink:href="#DejaVuSans-69" x="57.958984"/>
      <use xlink:href="#DejaVuSans-6d" x="85.742188"/>
      <use xlink:href="#DejaVuSans-65" x="183.154297"/>
      <use xlink:href="#DejaVuSans-20" x="244.677734"/>
      <use xlink:href="#DejaVuSans-28" x="276.464844"/>
      <use xlink:href="#DejaVuSans-6d" x="315.478516"/>
      <use xlink:href="#DejaVuSans-73" x="412.890625"/>
      <use xlink:href="#DejaVuSans-29" x="464.990234"/>
     </g>
    </g>
   </g>
   <g id="matplotlib.axis_2">
    <g id="ytick_1">
     <g id="line2d_1">
      <path d="M 71.192734 347.411352 
L 711.120078 347.411352 
" clip-path="url(#p4798051200)" style="fill: none; stroke: #b0b0b0; stroke-opacity: 0.3; stroke-width: 0.8; stroke-linecap: square"/>
     </g>
     <g id="line2d_2">
      <defs>
       <path id="m4cc4a66996" d="M 0 0 
L -5 0 
" style="stroke: #000000; stroke-width: 0.8"/>
      </defs>
      <g>
       <use xlink:href="#m4cc4a66996" x="71.192734" y="347.411352" style="stroke: #000000; stroke-width: 0.8"/>
      </g>
     </g>
     <g id="text_2">
      <!-- 1 -->
      <g transform="translate(52.512734 353.490102) scale(0.16 -0.16)">
       <defs>
        <path id="DejaVuSans-31" d="M 794 531 
L 1825 531 
L 1825 4091 
L 703 3866 
L 703 4441 
L 1819 4666 
L 2450 4666 
L 2450 531 
L 3481 531 
L 3481 0 
L 794 0 
L 794 531 
z
" transform="scale(0.015625)"/>
       </defs>
       <use xlink:href="#DejaVuSans-31"/>
      </g>
     </g>
    </g>
    <g id="ytick_2">
     <g id="line2d_3">
      <path d="M 71.192734 287.230498 
L 711.120078 287.230498 
" clip-path="url(#p4798051200)" style="fill: none; stroke: #b0b0b0; stroke-opacity: 0.3; stroke-width: 0.8; stroke-linecap: square"/>
     </g>
     <g id="line2d_4">
      <g>
       <use xlink:href="#m4cc4a66996" x="71.192734" y="287.230498" style="stroke: #000000; stroke-width: 0.8"/>
      </g>
     </g>
     <g id="text_3">
      <!-- 2 -->
      <g transform="translate(52.512734 293.309248) scale(0.16 -0.16)">
       <defs>
        <path id="DejaVuSans-32" d="M 1228 531 
L 3431 531 
L 3431 0 
L 469 0 
L 469 531 
Q 828 903 1448 1529 
Q 2069 2156 2228 2338 
Q 2531 2678 2651 2914 
Q 2772 3150 2772 3378 
Q 2772 3750 2511 3984 
Q 2250 4219 1831 4219 
Q 1534 4219 1204 4116 
Q 875 4013 500 3803 
L 500 4441 
Q 881 4594 1212 4672 
Q 1544 4750 1819 4750 
Q 2544 4750 2975 4387 
Q 3406 4025 3406 3419 
Q 3406 3131 3298 2873 
Q 3191 2616 2906 2266 
Q 2828 2175 2409 1742 
Q 1991 1309 1228 531 
z
" transform="scale(0.015625)"/>
       </defs>
       <use xlink:href="#DejaVuSans-32"/>
      </g>
     </g>
    </g>
    <g id="ytick_3">
     <g id="line2d_5">
      <path d="M 71.192734 227.049644 
L 711.120078 227.049644 
" clip-path="url(#p4798051200)" style="fill: none; stroke: #b0b0b0; stroke-opacity: 0.3; stroke-width: 0.8; stroke-linecap: square"/>
     </g>
     <g id="line2d_6">
      <g>
       <use xlink:href="#m4cc4a66996" x="71.192734" y="227.049644" style="stroke: #000000; stroke-width: 0.8"/>
      </g>
     </g>
     <g id="text_4">
      <!-- 3 -->
      <g transform="translate(52.512734 233.128394) scale(0.16 -0.16)">
       <defs>
        <path id="DejaVuSans-33" d="M 2597 2516 
Q 3050 2419 3304 2112 
Q 3559 1806 3559 1356 
Q 3559 666 3084 287 
Q 2609 -91 1734 -91 
Q 1441 -91 1130 -33 
Q 819 25 488 141 
L 488 750 
Q 750 597 1062 519 
Q 1375 441 1716 441 
Q 2309 441 2620 675 
Q 2931 909 2931 1356 
Q 2931 1769 2642 2001 
Q 2353 2234 1838 2234 
L 1294 2234 
L 1294 2753 
L 1863 2753 
Q 2328 2753 2575 2939 
Q 2822 3125 2822 3475 
Q 2822 3834 2567 4026 
Q 2313 4219 1838 4219 
Q 1578 4219 1281 4162 
Q 984 4106 628 3988 
L 628 4550 
Q 988 4650 1302 4700 
Q 1616 4750 1894 4750 
Q 2613 4750 3031 4423 
Q 3450 4097 3450 3541 
Q 3450 3153 3228 2886 
Q 3006 2619 2597 2516 
z
" transform="scale(0.015625)"/>
       </defs>
       <use xlink:href="#DejaVuSans-33"/>
      </g>
     </g>
    </g>
    <g id="ytick_4">
     <g id="line2d_7">
      <path d="M 71.192734 166.868791 
L 711.120078 166.868791 
" clip-path="url(#p4798051200)" style="fill: none; stroke: #b0b0b0; stroke-opacity: 0.3; stroke-width: 0.8; stroke-linecap: square"/>
     </g>
     <g id="line2d_8">
      <g>
       <use xlink:href="#m4cc4a66996" x="71.192734" y="166.868791" style="stroke: #000000; stroke-width: 0.8"/>
      </g>
     </g>
     <g id="text_5">
      <!-- 4 -->
      <g transform="translate(52.512734 172.947541) scale(0.16 -0.16)">
       <defs>
        <path id="DejaVuSans-34" d="M 2419 4116 
L 825 1625 
L 2419 1625 
L 2419 4116 
z
M 2253 4666 
L 3047 4666 
L 3047 1625 
L 3713 1625 
L 3713 1100 
L 3047 1100 
L 3047 0 
L 2419 0 
L 2419 1100 
L 313 1100 
L 313 1709 
L 2253 4666 
z
" transform="scale(0.015625)"/>
       </defs>
       <use xlink:href="#DejaVuSans-34"/>
      </g>
     </g>
    </g>
    <g id="ytick_5">
     <g id="line2d_9">
      <path d="M 71.192734 106.687937 
L 711.120078 106.687937 
" clip-path="url(#p4798051200)" style="fill: none; stroke: #b0b0b0; stroke-opacity: 0.3; stroke-width: 0.8; stroke-linecap: square"/>
     </g>
     <g id="line2d_10">
      <g>
       <use xlink:href="#m4cc4a66996" x="71.192734" y="106.687937" style="stroke: #000000; stroke-width: 0.8"/>
      </g>
     </g>
     <g id="text_6">
      <!-- 5 -->
      <g transform="translate(52.512734 112.766687) scale(0.16 -0.16)">
       <defs>
        <path id="DejaVuSans-35" d="M 691 4666 
L 3169 4666 
L 3169 4134 
L 1269 4134 
L 1269 2991 
Q 1406 3038 1543 3061 
Q 1681 3084 1819 3084 
Q 2600 3084 3056 2656 
Q 3513 2228 3513 1497 
Q 3513 744 3044 326 
Q 2575 -91 1722 -91 
Q 1428 -91 1123 -41 
Q 819 9 494 109 
L 494 744 
Q 775 591 1075 516 
Q 1375 441 1709 441 
Q 2250 441 2565 725 
Q 2881 1009 2881 1497 
Q 2881 1984 2565 2268 
Q 2250 2553 1709 2553 
Q 1456 2553 1204 2497 
Q 953 2441 691 2322 
L 691 4666 
z
" transform="scale(0.015625)"/>
       </defs>
       <use xlink:href="#DejaVuSans-35"/>
      </g>
     </g>
    </g>
    <g id="text_7">
     <!-- Neurons -->
     <g transform="translate(45.185234 268.568244) rotate(-90) scale(0.16 -0.16)">
      <defs>
       <path id="DejaVuSans-4e" d="M 628 4666 
L 1478 4666 
L 3547 763 
L 3547 4666 
L 4159 4666 
L 4159 0 
L 3309 0 
L 1241 3903 
L 1241 0 
L 628 0 
L 628 4666 
z
" transform="scale(0.015625)"/>
       <path id="DejaVuSans-75" d="M 544 1381 
L 544 3500 
L 1119 3500 
L 1119 1403 
Q 1119 906 1312 657 
Q 1506 409 1894 409 
Q 2359 409 2629 706 
Q 2900 1003 2900 1516 
L 2900 3500 
L 3475 3500 
L 3475 0 
L 2900 0 
L 2900 538 
Q 2691 219 2414 64 
Q 2138 -91 1772 -91 
Q 1169 -91 856 284 
Q 544 659 544 1381 
z
M 1991 3584 
L 1991 3584 
z
" transform="scale(0.015625)"/>
       <path id="DejaVuSans-72" d="M 2631 2963 
Q 2534 3019 2420 3045 
Q 2306 3072 2169 3072 
Q 1681 3072 1420 2755 
Q 1159 2438 1159 1844 
L 1159 0 
L 581 0 
L 581 3500 
L 1159 3500 
L 1159 2956 
Q 1341 3275 1631 3429 
Q 1922 3584 2338 3584 
Q 2397 3584 2469 3576 
Q 2541 3569 2628 3553 
L 2631 2963 
z
" transform="scale(0.015625)"/>
       <path id="DejaVuSans-6f" d="M 1959 3097 
Q 1497 3097 1228 2736 
Q 959 2375 959 1747 
Q 959 1119 1226 758 
Q 1494 397 1959 397 
Q 2419 397 2687 759 
Q 2956 1122 2956 1747 
Q 2956 2369 2687 2733 
Q 2419 3097 1959 3097 
z
M 1959 3584 
Q 2709 3584 3137 3096 
Q 3566 2609 3566 1747 
Q 3566 888 3137 398 
Q 2709 -91 1959 -91 
Q 1206 -91 779 398 
Q 353 888 353 1747 
Q 353 2609 779 3096 
Q 1206 3584 1959 3584 
z
" transform="scale(0.015625)"/>
       <path id="DejaVuSans-6e" d="M 3513 2113 
L 3513 0 
L 2938 0 
L 2938 2094 
Q 2938 2591 2744 2837 
Q 2550 3084 2163 3084 
Q 1697 3084 1428 2787 
Q 1159 2491 1159 1978 
L 1159 0 
L 581 0 
L 581 3500 
L 1159 3500 
L 1159 2956 
Q 1366 3272 1645 3428 
Q 1925 3584 2291 3584 
Q 2894 3584 3203 3211 
Q 3513 2838 3513 2113 
z
" transform="scale(0.015625)"/>
      </defs>
      <use xlink:href="#DejaVuSans-4e"/>
      <use xlink:href="#DejaVuSans-65" x="74.804688"/>
      <use xlink:href="#DejaVuSans-75" x="136.328125"/>
      <use xlink:href="#DejaVuSans-72" x="199.707031"/>
      <use xlink:href="#DejaVuSans-6f" x="238.570312"/>
      <use xlink:href="#DejaVuSans-6e" x="299.751953"/>
      <use xlink:href="#DejaVuSans-73" x="363.130859"/>
     </g>
    </g>
   </g>
   <g id="line2d_11">
    <path d="M 100.280341 343.582483 
L 102.375068 344.270516 
L 104.935289 344.866341 
L 107.961005 345.334667 
L 111.56859 345.664548 
L 115.758043 345.824408 
L 120.06387 345.77599 
L 123.322334 345.535779 
L 125.300687 345.18815 
L 126.580797 344.746598 
L 127.511787 344.181564 
L 128.326403 343.385496 
L 129.141019 342.21379 
L 130.072008 340.439976 
L 131.70124 336.734896 
L 133.91234 331.83087 
L 135.308825 329.297159 
L 136.472562 327.628746 
L 137.519925 326.491986 
L 138.450915 325.771016 
L 139.381904 325.312604 
L 140.312894 325.10142 
L 141.243884 325.119441 
L 142.174873 325.348489 
L 143.222237 325.837943 
L 144.385974 326.646315 
L 145.666084 327.827333 
L 147.178942 329.55717 
L 149.273669 332.3442 
L 152.76488 337.016222 
L 154.626859 339.110999 
L 156.372465 340.734157 
L 158.11807 342.044194 
L 159.863676 343.08198 
L 161.842029 343.988466 
L 163.936755 344.703611 
L 166.380603 345.301006 
L 169.289946 345.777533 
L 172.89753 346.130492 
L 177.203357 346.31849 
L 181.974679 346.306115 
L 186.047758 346.094873 
L 188.60798 345.761735 
L 190.120838 345.366635 
L 191.168201 344.878745 
L 191.982817 344.256663 
L 192.681059 343.462058 
L 193.495675 342.177195 
L 194.543039 340.053671 
L 198.965239 330.462321 
L 200.24535 328.4525 
L 201.409087 327.052851 
L 202.45645 326.143833 
L 203.38744 325.605832 
L 204.318429 325.30751 
L 205.249419 325.231737 
L 206.180409 325.361302 
L 207.227772 325.733388 
L 208.391509 326.406248 
L 209.67162 327.43526 
L 211.068104 328.862106 
L 212.81371 330.987761 
L 218.516021 338.220806 
L 220.261627 339.939674 
L 222.007232 341.350227 
L 223.752838 342.485079 
L 225.614817 343.440787 
L 227.709543 344.264232 
L 230.037017 344.939474 
L 232.829986 345.506351 
L 236.204824 345.947789 
L 240.394277 346.255738 
L 245.631093 346.409415 
L 251.217031 346.356965 
L 255.522858 346.112406 
L 258.083079 345.76236 
L 259.595937 345.337544 
L 260.526927 344.867044 
L 261.341543 344.189076 
L 262.039785 343.307147 
L 262.854401 341.882052 
L 264.018138 339.28292 
L 267.85847 330.25943 
L 269.138581 327.96735 
L 270.302318 326.328086 
L 271.349681 325.22249 
L 272.280671 324.527921 
L 273.21166 324.092129 
L 274.14265 323.899059 
L 275.07364 323.931285 
L 276.004629 324.172379 
L 277.051993 324.676181 
L 278.21573 325.50652 
L 279.49584 326.725202 
L 280.892325 328.375192 
L 282.754304 330.950656 
L 287.060131 337.04542 
L 288.805736 339.061612 
L 290.434968 340.615175 
L 292.0642 341.874311 
L 293.809805 342.945378 
L 295.671785 343.832644 
L 297.766511 344.587885 
L 300.210359 345.228139 
L 303.119702 345.748822 
L 306.610913 346.135536 
L 310.916739 346.375818 
L 315.804435 346.422701 
L 319.993888 346.253048 
L 322.670483 345.939359 
L 324.299715 345.533598 
L 325.347078 345.047301 
L 326.161694 344.411445 
L 326.859937 343.582734 
L 327.674552 342.228461 
L 328.721916 339.990395 
L 332.911369 330.461482 
L 334.19148 328.326924 
L 335.238843 326.967386 
L 336.286206 325.961044 
L 337.217196 325.355154 
L 338.148186 325.006104 
L 339.079175 324.895831 
L 340.010165 325.005631 
L 341.057528 325.37098 
L 342.104891 325.972738 
L 343.268628 326.897445 
L 344.548739 328.195107 
L 346.177971 330.188134 
L 349.552808 334.817053 
L 351.763909 337.601687 
L 353.509514 339.457882 
L 355.25512 340.98764 
L 357.000725 342.218159 
L 358.862704 343.252143 
L 360.841057 344.097785 
L 363.168531 344.838003 
L 365.845126 345.44017 
L 368.987216 345.909415 
L 372.827548 346.250321 
L 377.59887 346.440149 
L 382.719313 346.42372 
L 386.676019 346.205634 
L 389.003493 345.875804 
L 390.399977 345.470861 
L 391.330967 344.981608 
L 392.029209 344.386629 
L 392.727451 343.496931 
L 393.542067 342.041827 
L 394.58943 339.663593 
L 398.429763 330.463505 
L 399.709873 328.146531 
L 400.87361 326.510057 
L 401.920974 325.429635 
L 402.851963 324.774847 
L 403.782953 324.39355 
L 404.713942 324.267751 
L 405.644932 324.378147 
L 406.575922 324.706233 
L 407.623285 325.315151 
L 408.787022 326.265614 
L 410.067133 327.609792 
L 411.579991 329.526802 
L 414.140212 333.200789 
L 416.700434 336.734594 
L 418.446039 338.784139 
L 420.075271 340.378838 
L 421.704503 341.68132 
L 423.450108 342.794356 
L 425.312087 343.715821 
L 427.406814 344.495934 
L 429.734288 345.125233 
L 432.527257 345.64601 
L 435.902094 346.041827 
L 439.975174 346.29097 
L 444.630122 346.354059 
L 448.819575 346.19861 
L 451.49617 345.899916 
L 453.125402 345.515283 
L 454.172765 345.057531 
L 454.987381 344.458822 
L 455.685623 343.670574 
L 456.500239 342.359088 
L 457.547603 340.14735 
L 462.086177 329.824349 
L 463.249914 327.919262 
L 464.297277 326.572479 
L 465.344641 325.576418 
L 466.27563 324.977774 
L 467.20662 324.636429 
L 468.137609 324.536967 
L 469.068599 324.662572 
L 470.115962 325.05326 
L 471.163326 325.689762 
L 472.327063 326.663749 
L 473.607173 328.02366 
L 475.236405 330.097073 
L 481.404211 338.340901 
L 483.149817 340.085732 
L 484.779049 341.413044 
L 486.524654 342.552107 
L 488.386633 343.500891 
L 490.48136 344.311057 
L 492.808834 344.971456 
L 495.601803 345.524444 
L 498.97664 345.952431 
L 503.166093 346.247538 
L 508.286536 346.376234 
L 513.290605 346.287254 
L 516.781816 346.029617 
L 518.876543 345.678207 
L 520.156654 345.258335 
L 521.087643 344.714852 
L 521.785885 344.060645 
L 522.484128 343.106903 
L 523.298744 341.598366 
L 524.462481 338.919465 
L 527.837318 330.867702 
L 529.117429 328.45717 
L 530.281166 326.71094 
L 531.328529 325.517339 
L 532.259519 324.756302 
L 533.190508 324.268677 
L 534.121498 324.039399 
L 535.052487 324.050462 
L 535.983477 324.284395 
L 537.03084 324.795157 
L 538.078204 325.550462 
L 539.241941 326.653963 
L 540.638425 328.297704 
L 542.500404 330.878499 
L 546.806231 336.98604 
L 548.551837 338.999248 
L 550.181068 340.549618 
L 551.8103 341.8079 
L 553.555906 342.879929 
L 555.417885 343.767625 
L 557.512612 344.519544 
L 559.956459 345.149238 
L 562.749428 345.634101 
L 566.124266 345.98965 
L 570.197345 346.187024 
L 574.386798 346.167381 
L 577.761636 345.940758 
L 579.856362 345.604615 
L 581.252847 345.167345 
L 582.183836 344.65789 
L 582.998452 343.944044 
L 583.813068 342.872037 
L 584.744058 341.191966 
L 586.140542 338.090868 
L 588.817137 332.103178 
L 590.213622 329.579898 
L 591.377359 327.920984 
L 592.424722 326.791591 
L 593.355712 326.074947 
L 594.286701 325.61815 
L 595.217691 325.406054 
L 596.14868 325.421636 
L 597.07967 325.648346 
L 598.127033 326.137556 
L 599.29077 326.951101 
L 600.570881 328.145605 
L 602.083739 329.896786 
L 604.294839 332.865328 
L 607.436929 337.063951 
L 609.298909 339.165436 
L 611.044514 340.788853 
L 612.79012 342.092462 
L 614.535725 343.119896 
L 616.397704 343.96708 
L 618.492431 344.679965 
L 620.936279 345.271944 
L 623.845621 345.737092 
L 627.336832 346.057596 
L 631.409912 346.200045 
L 635.599365 346.125729 
L 638.741455 345.866908 
L 640.719808 345.496236 
L 641.883545 345.081098 
L 642.814534 344.509249 
L 643.512777 343.835198 
L 644.211019 342.876944 
L 645.142008 341.156655 
L 646.538493 337.973894 
L 649.215088 331.825332 
L 650.611572 329.230597 
L 651.775309 327.51924 
L 652.822673 326.347399 
L 653.870036 325.520546 
L 654.801026 325.061754 
L 655.732015 324.84572 
L 656.663005 324.854537 
L 657.593994 325.071202 
L 658.641358 325.545203 
L 659.805095 326.338058 
L 661.085205 327.509333 
L 662.48169 329.09972 
L 664.343669 331.582682 
L 668.649496 337.447659 
L 670.395102 339.394656 
L 672.024333 340.900869 
L 673.653565 342.12463 
L 675.399171 343.165767 
L 677.26115 344.025728 
L 679.355876 344.752165 
L 681.799724 345.358349 
L 682.032472 345.405218 
L 682.032472 345.405218 
" clip-path="url(#p4798051200)" style="fill: none; stroke: #1f77b4; stroke-width: 1.5; stroke-linecap: square"/>
   </g>
   <g id="line2d_12">
    <path d="M 100.280341 347.411352 
L 680.985108 347.411352 
L 680.985108 347.411352 
" clip-path="url(#p4798051200)" style="fill: none; stroke-dasharray: 2.96,1.28; stroke-dashoffset: 0; stroke: #808080; stroke-opacity: 0.7; stroke-width: 0.8"/>
   </g>
   <g id="line2d_13">
    <path d="M 100.280341 284.026337 
L 105.517157 285.202318 
L 109.706611 285.906974 
L 114.128811 286.414959 
L 119.365628 286.778787 
L 126.231676 287.014184 
L 136.938057 287.129974 
L 164.285876 287.134049 
L 249.820547 287.118453 
L 324.76521 287.109083 
L 374.689528 287.121408 
L 437.298579 287.110805 
L 682.032472 287.135828 
L 682.032472 287.135828 
" clip-path="url(#p4798051200)" style="fill: none; stroke: #ff7f0e; stroke-width: 1.5; stroke-linecap: square"/>
   </g>
   <g id="line2d_14">
    <path d="M 100.280341 287.230498 
L 680.985108 287.230498 
L 680.985108 287.230498 
" clip-path="url(#p4798051200)" style="fill: none; stroke-dasharray: 2.96,1.28; stroke-dashoffset: 0; stroke: #808080; stroke-opacity: 0.7; stroke-width: 0.8"/>
   </g>
   <g id="line2d_15">
    <path d="M 100.280341 224.370298 
L 102.724189 224.843403 
L 105.749905 225.196383 
L 109.35749 225.389252 
L 113.081448 225.368978 
L 115.874417 225.151416 
L 117.620022 224.817734 
L 118.783759 224.380715 
L 119.598375 223.85293 
L 120.296617 223.152463 
L 120.99486 222.153252 
L 121.925849 220.369925 
L 123.322334 217.107595 
L 125.882555 211.1284 
L 127.162666 208.683647 
L 128.326403 206.905241 
L 129.373766 205.688181 
L 130.304756 204.911296 
L 131.235745 204.412981 
L 132.166735 204.180296 
L 133.097725 204.197729 
L 134.028714 204.448838 
L 135.076077 204.991588 
L 136.123441 205.791445 
L 137.287178 206.956866 
L 138.683662 208.683174 
L 140.662015 211.534268 
L 144.153226 216.590141 
L 145.898832 218.694854 
L 147.528063 220.318386 
L 149.157295 221.63155 
L 150.902901 222.741774 
L 152.76488 223.65095 
L 154.859607 224.411822 
L 157.187081 225.018695 
L 159.980049 225.515187 
L 163.47126 225.896993 
L 167.777087 226.131472 
L 173.246651 226.198852 
L 179.065336 226.053834 
L 183.138416 225.748231 
L 185.46589 225.378061 
L 186.862374 224.958619 
L 187.793364 224.480493 
L 188.60798 223.811549 
L 189.306222 222.962421 
L 190.120838 221.60977 
L 191.284575 219.153539 
L 195.008533 210.874091 
L 196.288644 208.705399 
L 197.452381 207.172319 
L 198.499744 206.157698 
L 199.430734 205.539346 
L 200.361724 205.175217 
L 201.292713 205.049856 
L 202.223703 205.146894 
L 203.271066 205.502271 
L 204.318429 206.09844 
L 205.482167 207.019654 
L 206.878651 208.442898 
L 208.507883 210.443257 
L 214.559315 218.209612 
L 216.304921 219.903205 
L 218.050526 221.277651 
L 219.796132 222.370728 
L 221.658111 223.281655 
L 223.752838 224.060362 
L 226.196685 224.72259 
L 228.989654 225.246301 
L 232.480865 225.662027 
L 236.786692 225.939435 
L 242.37263 226.064107 
L 249.005931 225.98743 
L 254.01 225.728803 
L 256.919342 225.380629 
L 258.548574 224.989554 
L 259.595937 224.539392 
L 260.410553 223.962651 
L 261.108796 223.210215 
L 261.923411 221.953812 
L 262.854401 220.066517 
L 264.600007 215.889258 
L 266.578359 211.310249 
L 267.974844 208.625508 
L 269.138581 206.838235 
L 270.185944 205.600154 
L 271.233307 204.713175 
L 272.164297 204.21027 
L 273.095287 203.961629 
L 274.026276 203.950452 
L 274.957266 204.159663 
L 276.004629 204.639612 
L 277.051993 205.361672 
L 278.21573 206.428693 
L 279.612214 208.036771 
L 281.357819 210.426068 
L 286.245515 217.347326 
L 287.99112 219.302875 
L 289.620352 220.793097 
L 291.249584 221.988793 
L 292.99519 222.995178 
L 294.973542 223.863648 
L 297.184643 224.577272 
L 299.744864 225.1609 
L 302.77058 225.618652 
L 306.494539 225.952478 
L 311.265861 226.144185 
L 316.735425 226.14021 
L 321.390373 225.927168 
L 324.299715 225.5871 
L 325.928947 225.204777 
L 327.092684 224.709275 
L 327.9073 224.127842 
L 328.605542 223.375478 
L 329.420158 222.129449 
L 330.467521 220.014318 
L 335.238843 209.589939 
L 336.40258 207.825623 
L 337.449943 206.607214 
L 338.497307 205.737108 
L 339.428296 205.24449 
L 340.359286 205.000542 
L 341.290275 204.988346 
L 342.221265 205.191387 
L 343.268628 205.65881 
L 344.432365 206.453802 
L 345.712476 207.633815 
L 347.225334 209.374486 
L 349.320061 212.174701 
L 352.694898 216.676417 
L 354.556877 218.760426 
L 356.302483 220.371388 
L 358.048088 221.669573 
L 359.793694 222.69893 
L 361.772047 223.602481 
L 363.983147 224.357213 
L 366.543369 224.984116 
L 369.569085 225.486031 
L 373.293043 225.867278 
L 377.947991 226.110452 
L 383.766676 226.186325 
L 389.818109 226.053016 
L 394.123936 225.758605 
L 396.567783 225.388994 
L 397.964268 224.981892 
L 398.895257 224.515402 
L 399.709873 223.855828 
L 400.408115 223.007173 
L 401.222731 221.638308 
L 402.270095 219.399238 
L 406.459548 209.911052 
L 407.739659 207.777097 
L 408.903396 206.283503 
L 409.950759 205.308354 
L 410.881749 204.72837 
L 411.812738 204.406596 
L 412.743728 204.328657 
L 413.674717 204.478754 
L 414.605707 204.841377 
L 415.65307 205.485899 
L 416.816807 206.473947 
L 418.096918 207.855711 
L 419.72615 209.964543 
L 425.661209 218.016714 
L 427.29044 219.685299 
L 428.919672 221.051136 
L 430.665278 222.219168 
L 432.527257 223.188535 
L 434.621984 224.01264 
L 436.949458 224.680234 
L 439.626053 225.215825 
L 442.884516 225.636071 
L 446.957596 225.923911 
L 451.961665 226.040476 
L 457.431229 225.946624 
L 461.620682 225.66877 
L 463.948156 225.322304 
L 465.344641 224.92404 
L 466.27563 224.466589 
L 467.090246 223.819699 
L 467.788488 222.986182 
L 468.603104 221.6364 
L 469.650467 219.416786 
L 473.956294 209.720594 
L 475.236405 207.615062 
L 476.400142 206.142704 
L 477.447505 205.181415 
L 478.378495 204.608419 
L 479.309485 204.287363 
L 480.240474 204.202794 
L 481.171464 204.338701 
L 482.218827 204.737036 
L 483.26619 205.378388 
L 484.429928 206.355646 
L 485.710038 207.718786 
L 487.33927 209.798677 
L 493.507076 218.083691 
L 495.252682 219.842842 
L 496.881913 221.182035 
L 498.627519 222.331701 
L 500.489498 223.29002 
L 502.584225 224.109117 
L 504.911699 224.77753 
L 507.704668 225.337857 
L 511.079505 225.774043 
L 515.268958 226.080809 
L 520.738522 226.247592 
L 527.720944 226.229499 
L 533.772377 226.007331 
L 537.263588 225.685687 
L 539.241941 225.307238 
L 540.405678 224.893334 
L 541.336667 224.319979 
L 542.034909 223.634033 
L 542.733152 222.645827 
L 543.547768 221.106821 
L 544.827878 218.128845 
L 547.737221 211.191259 
L 549.017331 208.717408 
L 550.181068 206.913462 
L 551.228432 205.672168 
L 552.159421 204.87267 
L 553.090411 204.350351 
L 554.021401 204.091222 
L 554.95239 204.077936 
L 555.88338 204.291667 
L 556.930743 204.781544 
L 557.978106 205.514667 
L 559.141843 206.589838 
L 560.538328 208.194128 
L 562.400307 210.71441 
L 566.706134 216.690722 
L 568.45174 218.676589 
L 570.080971 220.213428 
L 571.710203 221.464379 
L 573.455809 222.532175 
L 575.317788 223.418594 
L 577.412515 224.174115 
L 579.856362 224.814979 
L 582.765705 225.339249 
L 586.373289 225.749565 
L 591.028238 226.037793 
L 597.07967 226.181017 
L 604.527587 226.131372 
L 610.113524 225.896649 
L 613.255614 225.566597 
L 615.00122 225.185307 
L 616.164957 224.707295 
L 616.979573 224.133854 
L 617.677815 223.375851 
L 618.376057 222.306664 
L 619.307047 220.434047 
L 620.936279 216.498656 
L 623.031005 211.538271 
L 624.42749 208.800542 
L 625.591227 206.979952 
L 626.63859 205.719374 
L 627.685953 204.816439 
L 628.616943 204.305298 
L 629.547932 204.055251 
L 630.478922 204.050875 
L 631.409912 204.275927 
L 632.457275 204.783553 
L 633.504638 205.540839 
L 634.668375 206.650359 
L 636.06486 208.303031 
L 637.926839 210.888612 
L 641.999918 216.65224 
L 643.745524 218.686461 
L 645.374756 220.261237 
L 647.003988 221.541716 
L 648.749593 222.631737 
L 650.611572 223.533222 
L 652.706299 224.298356 
L 655.150147 224.944443 
L 658.059489 225.469258 
L 661.5507 225.865155 
L 666.089275 226.142693 
L 672.024333 226.270578 
L 679.123129 226.201004 
L 682.032472 226.099519 
L 682.032472 226.099519 
" clip-path="url(#p4798051200)" style="fill: none; stroke: #2ca02c; stroke-width: 1.5; stroke-linecap: square"/>
   </g>
   <g id="line2d_16">
    <path d="M 100.280341 227.049644 
L 680.985108 227.049644 
L 680.985108 227.049644 
" clip-path="url(#p4798051200)" style="fill: none; stroke-dasharray: 2.96,1.28; stroke-dashoffset: 0; stroke: #808080; stroke-opacity: 0.7; stroke-width: 0.8"/>
   </g>
   <g id="line2d_17">
    <path d="M 100.280341 164.46374 
L 102.491441 165.068661 
L 105.28441 165.583246 
L 108.891995 166.007552 
L 113.77969 166.344449 
L 120.878486 166.593477 
L 132.166735 166.742784 
L 156.488838 166.787981 
L 664.576416 166.773748 
L 682.032472 166.775871 
L 682.032472 166.775871 
" clip-path="url(#p4798051200)" style="fill: none; stroke: #d62728; stroke-width: 1.5; stroke-linecap: square"/>
   </g>
   <g id="line2d_18">
    <path d="M 100.280341 166.868791 
L 680.985108 166.868791 
L 680.985108 166.868791 
" clip-path="url(#p4798051200)" style="fill: none; stroke-dasharray: 2.96,1.28; stroke-dashoffset: 0; stroke: #808080; stroke-opacity: 0.7; stroke-width: 0.8"/>
   </g>
   <g id="line2d_19">
    <path d="M 100.280341 105.898727 
L 103.306057 106.275081 
L 107.262763 106.526892 
L 113.197822 106.654563 
L 128.791898 106.685986 
L 682.032472 106.685785 
L 682.032472 106.685785 
" clip-path="url(#p4798051200)" style="fill: none; stroke: #9467bd; stroke-width: 1.5; stroke-linecap: square"/>
   </g>
   <g id="line2d_20">
    <path d="M 100.280341 106.687937 
L 680.985108 106.687937 
L 680.985108 106.687937 
" clip-path="url(#p4798051200)" style="fill: none; stroke-dasharray: 2.96,1.28; stroke-dashoffset: 0; stroke: #808080; stroke-opacity: 0.7; stroke-width: 0.8"/>
   </g>
   <g id="line2d_21">
    <path d="M 100.280341 364.800261 
L 123.555081 364.800261 
" style="fill: none; stroke: #000000; stroke-width: 5; stroke-linecap: square"/>
   </g>
   <g id="text_8">
    <!-- 20 ms -->
    <g transform="translate(87.235211 384.927677) scale(0.16 -0.16)">
     <defs>
      <path id="DejaVuSans-30" d="M 2034 4250 
Q 1547 4250 1301 3770 
Q 1056 3291 1056 2328 
Q 1056 1369 1301 889 
Q 1547 409 2034 409 
Q 2525 409 2770 889 
Q 3016 1369 3016 2328 
Q 3016 3291 2770 3770 
Q 2525 4250 2034 4250 
z
M 2034 4750 
Q 2819 4750 3233 4129 
Q 3647 3509 3647 2328 
Q 3647 1150 3233 529 
Q 2819 -91 2034 -91 
Q 1250 -91 836 529 
Q 422 1150 422 2328 
Q 422 3509 836 4129 
Q 1250 4750 2034 4750 
z
" transform="scale(0.015625)"/>
     </defs>
     <use xlink:href="#DejaVuSans-32"/>
     <use xlink:href="#DejaVuSans-30" x="63.623047"/>
     <use xlink:href="#DejaVuSans-20" x="127.246094"/>
     <use xlink:href="#DejaVuSans-6d" x="159.033203"/>
     <use xlink:href="#DejaVuSans-73" x="256.445312"/>
    </g>
   </g>
   <g id="text_9">
    <!-- Inhibitory Gating Variables -->
    <g transform="translate(231.657656 58.474481) scale(0.24 -0.24)">
     <defs>
      <path id="DejaVuSans-49" d="M 628 4666 
L 1259 4666 
L 1259 0 
L 628 0 
L 628 4666 
z
" transform="scale(0.015625)"/>
      <path id="DejaVuSans-68" d="M 3513 2113 
L 3513 0 
L 2938 0 
L 2938 2094 
Q 2938 2591 2744 2837 
Q 2550 3084 2163 3084 
Q 1697 3084 1428 2787 
Q 1159 2491 1159 1978 
L 1159 0 
L 581 0 
L 581 4863 
L 1159 4863 
L 1159 2956 
Q 1366 3272 1645 3428 
Q 1925 3584 2291 3584 
Q 2894 3584 3203 3211 
Q 3513 2838 3513 2113 
z
" transform="scale(0.015625)"/>
      <path id="DejaVuSans-62" d="M 3116 1747 
Q 3116 2381 2855 2742 
Q 2594 3103 2138 3103 
Q 1681 3103 1420 2742 
Q 1159 2381 1159 1747 
Q 1159 1113 1420 752 
Q 1681 391 2138 391 
Q 2594 391 2855 752 
Q 3116 1113 3116 1747 
z
M 1159 2969 
Q 1341 3281 1617 3432 
Q 1894 3584 2278 3584 
Q 2916 3584 3314 3078 
Q 3713 2572 3713 1747 
Q 3713 922 3314 415 
Q 2916 -91 2278 -91 
Q 1894 -91 1617 61 
Q 1341 213 1159 525 
L 1159 0 
L 581 0 
L 581 4863 
L 1159 4863 
L 1159 2969 
z
" transform="scale(0.015625)"/>
      <path id="DejaVuSans-74" d="M 1172 4494 
L 1172 3500 
L 2356 3500 
L 2356 3053 
L 1172 3053 
L 1172 1153 
Q 1172 725 1289 603 
Q 1406 481 1766 481 
L 2356 481 
L 2356 0 
L 1766 0 
Q 1100 0 847 248 
Q 594 497 594 1153 
L 594 3053 
L 172 3053 
L 172 3500 
L 594 3500 
L 594 4494 
L 1172 4494 
z
" transform="scale(0.015625)"/>
      <path id="DejaVuSans-79" d="M 2059 -325 
Q 1816 -950 1584 -1140 
Q 1353 -1331 966 -1331 
L 506 -1331 
L 506 -850 
L 844 -850 
Q 1081 -850 1212 -737 
Q 1344 -625 1503 -206 
L 1606 56 
L 191 3500 
L 800 3500 
L 1894 763 
L 2988 3500 
L 3597 3500 
L 2059 -325 
z
" transform="scale(0.015625)"/>
      <path id="DejaVuSans-47" d="M 3809 666 
L 3809 1919 
L 2778 1919 
L 2778 2438 
L 4434 2438 
L 4434 434 
Q 4069 175 3628 42 
Q 3188 -91 2688 -91 
Q 1594 -91 976 548 
Q 359 1188 359 2328 
Q 359 3472 976 4111 
Q 1594 4750 2688 4750 
Q 3144 4750 3555 4637 
Q 3966 4525 4313 4306 
L 4313 3634 
Q 3963 3931 3569 4081 
Q 3175 4231 2741 4231 
Q 1884 4231 1454 3753 
Q 1025 3275 1025 2328 
Q 1025 1384 1454 906 
Q 1884 428 2741 428 
Q 3075 428 3337 486 
Q 3600 544 3809 666 
z
" transform="scale(0.015625)"/>
      <path id="DejaVuSans-61" d="M 2194 1759 
Q 1497 1759 1228 1600 
Q 959 1441 959 1056 
Q 959 750 1161 570 
Q 1363 391 1709 391 
Q 2188 391 2477 730 
Q 2766 1069 2766 1631 
L 2766 1759 
L 2194 1759 
z
M 3341 1997 
L 3341 0 
L 2766 0 
L 2766 531 
Q 2569 213 2275 61 
Q 1981 -91 1556 -91 
Q 1019 -91 701 211 
Q 384 513 384 1019 
Q 384 1609 779 1909 
Q 1175 2209 1959 2209 
L 2766 2209 
L 2766 2266 
Q 2766 2663 2505 2880 
Q 2244 3097 1772 3097 
Q 1472 3097 1187 3025 
Q 903 2953 641 2809 
L 641 3341 
Q 956 3463 1253 3523 
Q 1550 3584 1831 3584 
Q 2591 3584 2966 3190 
Q 3341 2797 3341 1997 
z
" transform="scale(0.015625)"/>
      <path id="DejaVuSans-67" d="M 2906 1791 
Q 2906 2416 2648 2759 
Q 2391 3103 1925 3103 
Q 1463 3103 1205 2759 
Q 947 2416 947 1791 
Q 947 1169 1205 825 
Q 1463 481 1925 481 
Q 2391 481 2648 825 
Q 2906 1169 2906 1791 
z
M 3481 434 
Q 3481 -459 3084 -895 
Q 2688 -1331 1869 -1331 
Q 1566 -1331 1297 -1286 
Q 1028 -1241 775 -1147 
L 775 -588 
Q 1028 -725 1275 -790 
Q 1522 -856 1778 -856 
Q 2344 -856 2625 -561 
Q 2906 -266 2906 331 
L 2906 616 
Q 2728 306 2450 153 
Q 2172 0 1784 0 
Q 1141 0 747 490 
Q 353 981 353 1791 
Q 353 2603 747 3093 
Q 1141 3584 1784 3584 
Q 2172 3584 2450 3431 
Q 2728 3278 2906 2969 
L 2906 3500 
L 3481 3500 
L 3481 434 
z
" transform="scale(0.015625)"/>
      <path id="DejaVuSans-56" d="M 1831 0 
L 50 4666 
L 709 4666 
L 2188 738 
L 3669 4666 
L 4325 4666 
L 2547 0 
L 1831 0 
z
" transform="scale(0.015625)"/>
      <path id="DejaVuSans-6c" d="M 603 4863 
L 1178 4863 
L 1178 0 
L 603 0 
L 603 4863 
z
" transform="scale(0.015625)"/>
     </defs>
     <use xlink:href="#DejaVuSans-49"/>
     <use xlink:href="#DejaVuSans-6e" x="29.492188"/>
     <use xlink:href="#DejaVuSans-68" x="92.871094"/>
     <use xlink:href="#DejaVuSans-69" x="156.25"/>
     <use xlink:href="#DejaVuSans-62" x="184.033203"/>
     <use xlink:href="#DejaVuSans-69" x="247.509766"/>
     <use xlink:href="#DejaVuSans-74" x="275.292969"/>
     <use xlink:href="#DejaVuSans-6f" x="314.501953"/>
     <use xlink:href="#DejaVuSans-72" x="375.683594"/>
     <use xlink:href="#DejaVuSans-79" x="416.796875"/>
     <use xlink:href="#DejaVuSans-20" x="475.976562"/>
     <use xlink:href="#DejaVuSans-47" x="507.763672"/>
     <use xlink:href="#DejaVuSans-61" x="585.253906"/>
     <use xlink:href="#DejaVuSans-74" x="646.533203"/>
     <use xlink:href="#DejaVuSans-69" x="685.742188"/>
     <use xlink:href="#DejaVuSans-6e" x="713.525391"/>
     <use xlink:href="#DejaVuSans-67" x="776.904297"/>
     <use xlink:href="#DejaVuSans-20" x="840.380859"/>
     <use xlink:href="#DejaVuSans-56" x="872.167969"/>
     <use xlink:href="#DejaVuSans-61" x="932.826172"/>
     <use xlink:href="#DejaVuSans-72" x="994.105469"/>
     <use xlink:href="#DejaVuSans-69" x="1035.21875"/>
     <use xlink:href="#DejaVuSans-61" x="1063.001953"/>
     <use xlink:href="#DejaVuSans-62" x="1124.28125"/>
     <use xlink:href="#DejaVuSans-6c" x="1187.757812"/>
     <use xlink:href="#DejaVuSans-65" x="1215.541016"/>
     <use xlink:href="#DejaVuSans-73" x="1277.064453"/>
    </g>
   </g>
   <g id="text_10">
    <!-- F -->
    <g transform="translate(7.2 29.995312) scale(0.3 -0.3)">
     <defs>
      <path id="DejaVuSans-46" d="M 628 4666 
L 3309 4666 
L 3309 4134 
L 1259 4134 
L 1259 2759 
L 3109 2759 
L 3109 2228 
L 1259 2228 
L 1259 0 
L 628 0 
L 628 4666 
z
" transform="scale(0.015625)"/>
     </defs>
     <use xlink:href="#DejaVuSans-46"/>
    </g>
   </g>
  </g>
 </g>
 <defs>
  <clipPath id="p4798051200">
   <rect x="71.192734" y="92.95365" width="639.927344" height="284.791687"/>
  </clipPath>
 </defs>
</svg>
