<?xml version="1.0" encoding="utf-8" standalone="no"?>
<!DOCTYPE svg PUBLIC "-//W3C//DTD SVG 1.1//EN"
  "http://www.w3.org/Graphics/SVG/1.1/DTD/svg11.dtd">
<svg xmlns:xlink="http://www.w3.org/1999/xlink" width="721.535pt" height="408.327337pt" viewBox="0 0 721.535 408.327337" xmlns="http://www.w3.org/2000/svg" version="1.1">
 <metadata>
  <rdf:RDF xmlns:dc="http://purl.org/dc/elements/1.1/" xmlns:cc="http://creativecommons.org/ns#" xmlns:rdf="http://www.w3.org/1999/02/22-rdf-syntax-ns#">
   <cc:Work>
    <dc:type rdf:resource="http://purl.org/dc/dcmitype/StillImage"/>
    <dc:date>2025-10-21T12:50:08.050781</dc:date>
    <dc:format>image/svg+xml</dc:format>
    <dc:creator>
     <cc:Agent>
      <dc:title>Matplotlib v3.8.2, https://matplotlib.org/</dc:title>
     </cc:Agent>
    </dc:creator>
   </cc:Work>
  </rdf:RDF>
 </metadata>
 <defs>
  <style type="text/css">*{stroke-linejoin: round; stroke-linecap: butt}</style>
 </defs>
 <g id="figure_1">
  <g id="patch_1">
   <path d="M 0 408.327337 
L 721.535 408.327337 
L 721.535 0 
L 0 0 
z
" style="fill: #ffffff"/>
  </g>
  <g id="axes_1">
   <g id="patch_2">
    <path d="M 71.485 401.127337 
L 714.335 401.127337 
L 714.335 96.85065 
L 71.485 96.85065 
z
" style="fill: #ffffff"/>
   </g>
   <g id="matplotlib.axis_1"/>
   <g id="matplotlib.axis_2">
    <g id="ytick_1">
     <g id="line2d_1">
      <path d="M 71.485 387.296579 
L 714.335 387.296579 
" clip-path="url(#pa99b7f646c)" style="fill: none; stroke: #b0b0b0; stroke-opacity: 0.3; stroke-width: 0.8; stroke-linecap: square"/>
     </g>
     <g id="line2d_2">
      <defs>
       <path id="m71b31825eb" d="M 0 0 
L -5 0 
" style="stroke: #000000; stroke-width: 0.8"/>
      </defs>
      <g>
       <use xlink:href="#m71b31825eb" x="71.485" y="387.296579" style="stroke: #000000; stroke-width: 0.8"/>
      </g>
     </g>
     <g id="text_1">
      <!-- 1 -->
      <g transform="translate(52.805 393.375329) scale(0.16 -0.16)">
       <defs>
        <path id="DejaVuSans-31" d="M 794 531 
L 1825 531 
L 1825 4091 
L 703 3866 
L 703 4441 
L 1819 4666 
L 2450 4666 
L 2450 531 
L 3481 531 
L 3481 0 
L 794 0 
L 794 531 
z
" transform="scale(0.015625)"/>
       </defs>
       <use xlink:href="#DejaVuSans-31"/>
      </g>
     </g>
    </g>
    <g id="ytick_2">
     <g id="line2d_3">
      <path d="M 71.485 331.612605 
L 714.335 331.612605 
" clip-path="url(#pa99b7f646c)" style="fill: none; stroke: #b0b0b0; stroke-opacity: 0.3; stroke-width: 0.8; stroke-linecap: square"/>
     </g>
     <g id="line2d_4">
      <g>
       <use xlink:href="#m71b31825eb" x="71.485" y="331.612605" style="stroke: #000000; stroke-width: 0.8"/>
      </g>
     </g>
     <g id="text_2">
      <!-- 2 -->
      <g transform="translate(52.805 337.691355) scale(0.16 -0.16)">
       <defs>
        <path id="DejaVuSans-32" d="M 1228 531 
L 3431 531 
L 3431 0 
L 469 0 
L 469 531 
Q 828 903 1448 1529 
Q 2069 2156 2228 2338 
Q 2531 2678 2651 2914 
Q 2772 3150 2772 3378 
Q 2772 3750 2511 3984 
Q 2250 4219 1831 4219 
Q 1534 4219 1204 4116 
Q 875 4013 500 3803 
L 500 4441 
Q 881 4594 1212 4672 
Q 1544 4750 1819 4750 
Q 2544 4750 2975 4387 
Q 3406 4025 3406 3419 
Q 3406 3131 3298 2873 
Q 3191 2616 2906 2266 
Q 2828 2175 2409 1742 
Q 1991 1309 1228 531 
z
" transform="scale(0.015625)"/>
       </defs>
       <use xlink:href="#DejaVuSans-32"/>
      </g>
     </g>
    </g>
    <g id="ytick_3">
     <g id="line2d_5">
      <path d="M 71.485 275.928631 
L 714.335 275.928631 
" clip-path="url(#pa99b7f646c)" style="fill: none; stroke: #b0b0b0; stroke-opacity: 0.3; stroke-width: 0.8; stroke-linecap: square"/>
     </g>
     <g id="line2d_6">
      <g>
       <use xlink:href="#m71b31825eb" x="71.485" y="275.928631" style="stroke: #000000; stroke-width: 0.8"/>
      </g>
     </g>
     <g id="text_3">
      <!-- 3 -->
      <g transform="translate(52.805 282.007381) scale(0.16 -0.16)">
       <defs>
        <path id="DejaVuSans-33" d="M 2597 2516 
Q 3050 2419 3304 2112 
Q 3559 1806 3559 1356 
Q 3559 666 3084 287 
Q 2609 -91 1734 -91 
Q 1441 -91 1130 -33 
Q 819 25 488 141 
L 488 750 
Q 750 597 1062 519 
Q 1375 441 1716 441 
Q 2309 441 2620 675 
Q 2931 909 2931 1356 
Q 2931 1769 2642 2001 
Q 2353 2234 1838 2234 
L 1294 2234 
L 1294 2753 
L 1863 2753 
Q 2328 2753 2575 2939 
Q 2822 3125 2822 3475 
Q 2822 3834 2567 4026 
Q 2313 4219 1838 4219 
Q 1578 4219 1281 4162 
Q 984 4106 628 3988 
L 628 4550 
Q 988 4650 1302 4700 
Q 1616 4750 1894 4750 
Q 2613 4750 3031 4423 
Q 3450 4097 3450 3541 
Q 3450 3153 3228 2886 
Q 3006 2619 2597 2516 
z
" transform="scale(0.015625)"/>
       </defs>
       <use xlink:href="#DejaVuSans-33"/>
      </g>
     </g>
    </g>
    <g id="ytick_4">
     <g id="line2d_7">
      <path d="M 71.485 220.244657 
L 714.335 220.244657 
" clip-path="url(#pa99b7f646c)" style="fill: none; stroke: #b0b0b0; stroke-opacity: 0.3; stroke-width: 0.8; stroke-linecap: square"/>
     </g>
     <g id="line2d_8">
      <g>
       <use xlink:href="#m71b31825eb" x="71.485" y="220.244657" style="stroke: #000000; stroke-width: 0.8"/>
      </g>
     </g>
     <g id="text_4">
      <!-- 4 -->
      <g transform="translate(52.805 226.323407) scale(0.16 -0.16)">
       <defs>
        <path id="DejaVuSans-34" d="M 2419 4116 
L 825 1625 
L 2419 1625 
L 2419 4116 
z
M 2253 4666 
L 3047 4666 
L 3047 1625 
L 3713 1625 
L 3713 1100 
L 3047 1100 
L 3047 0 
L 2419 0 
L 2419 1100 
L 313 1100 
L 313 1709 
L 2253 4666 
z
" transform="scale(0.015625)"/>
       </defs>
       <use xlink:href="#DejaVuSans-34"/>
      </g>
     </g>
    </g>
    <g id="ytick_5">
     <g id="line2d_9">
      <path d="M 71.485 164.560683 
L 714.335 164.560683 
" clip-path="url(#pa99b7f646c)" style="fill: none; stroke: #b0b0b0; stroke-opacity: 0.3; stroke-width: 0.8; stroke-linecap: square"/>
     </g>
     <g id="line2d_10">
      <g>
       <use xlink:href="#m71b31825eb" x="71.485" y="164.560683" style="stroke: #000000; stroke-width: 0.8"/>
      </g>
     </g>
     <g id="text_5">
      <!-- 5 -->
      <g transform="translate(52.805 170.639433) scale(0.16 -0.16)">
       <defs>
        <path id="DejaVuSans-35" d="M 691 4666 
L 3169 4666 
L 3169 4134 
L 1269 4134 
L 1269 2991 
Q 1406 3038 1543 3061 
Q 1681 3084 1819 3084 
Q 2600 3084 3056 2656 
Q 3513 2228 3513 1497 
Q 3513 744 3044 326 
Q 2575 -91 1722 -91 
Q 1428 -91 1123 -41 
Q 819 9 494 109 
L 494 744 
Q 775 591 1075 516 
Q 1375 441 1709 441 
Q 2250 441 2565 725 
Q 2881 1009 2881 1497 
Q 2881 1984 2565 2268 
Q 2250 2553 1709 2553 
Q 1456 2553 1204 2497 
Q 953 2441 691 2322 
L 691 4666 
z
" transform="scale(0.015625)"/>
       </defs>
       <use xlink:href="#DejaVuSans-35"/>
      </g>
     </g>
    </g>
    <g id="text_6">
     <!-- Neurons -->
     <g transform="translate(45.4775 282.207744) rotate(-90) scale(0.16 -0.16)">
      <defs>
       <path id="DejaVuSans-4e" d="M 628 4666 
L 1478 4666 
L 3547 763 
L 3547 4666 
L 4159 4666 
L 4159 0 
L 3309 0 
L 1241 3903 
L 1241 0 
L 628 0 
L 628 4666 
z
" transform="scale(0.015625)"/>
       <path id="DejaVuSans-65" d="M 3597 1894 
L 3597 1613 
L 953 1613 
Q 991 1019 1311 708 
Q 1631 397 2203 397 
Q 2534 397 2845 478 
Q 3156 559 3463 722 
L 3463 178 
Q 3153 47 2828 -22 
Q 2503 -91 2169 -91 
Q 1331 -91 842 396 
Q 353 884 353 1716 
Q 353 2575 817 3079 
Q 1281 3584 2069 3584 
Q 2775 3584 3186 3129 
Q 3597 2675 3597 1894 
z
M 3022 2063 
Q 3016 2534 2758 2815 
Q 2500 3097 2075 3097 
Q 1594 3097 1305 2825 
Q 1016 2553 972 2059 
L 3022 2063 
z
" transform="scale(0.015625)"/>
       <path id="DejaVuSans-75" d="M 544 1381 
L 544 3500 
L 1119 3500 
L 1119 1403 
Q 1119 906 1312 657 
Q 1506 409 1894 409 
Q 2359 409 2629 706 
Q 2900 1003 2900 1516 
L 2900 3500 
L 3475 3500 
L 3475 0 
L 2900 0 
L 2900 538 
Q 2691 219 2414 64 
Q 2138 -91 1772 -91 
Q 1169 -91 856 284 
Q 544 659 544 1381 
z
M 1991 3584 
L 1991 3584 
z
" transform="scale(0.015625)"/>
       <path id="DejaVuSans-72" d="M 2631 2963 
Q 2534 3019 2420 3045 
Q 2306 3072 2169 3072 
Q 1681 3072 1420 2755 
Q 1159 2438 1159 1844 
L 1159 0 
L 581 0 
L 581 3500 
L 1159 3500 
L 1159 2956 
Q 1341 3275 1631 3429 
Q 1922 3584 2338 3584 
Q 2397 3584 2469 3576 
Q 2541 3569 2628 3553 
L 2631 2963 
z
" transform="scale(0.015625)"/>
       <path id="DejaVuSans-6f" d="M 1959 3097 
Q 1497 3097 1228 2736 
Q 959 2375 959 1747 
Q 959 1119 1226 758 
Q 1494 397 1959 397 
Q 2419 397 2687 759 
Q 2956 1122 2956 1747 
Q 2956 2369 2687 2733 
Q 2419 3097 1959 3097 
z
M 1959 3584 
Q 2709 3584 3137 3096 
Q 3566 2609 3566 1747 
Q 3566 888 3137 398 
Q 2709 -91 1959 -91 
Q 1206 -91 779 398 
Q 353 888 353 1747 
Q 353 2609 779 3096 
Q 1206 3584 1959 3584 
z
" transform="scale(0.015625)"/>
       <path id="DejaVuSans-6e" d="M 3513 2113 
L 3513 0 
L 2938 0 
L 2938 2094 
Q 2938 2591 2744 2837 
Q 2550 3084 2163 3084 
Q 1697 3084 1428 2787 
Q 1159 2491 1159 1978 
L 1159 0 
L 581 0 
L 581 3500 
L 1159 3500 
L 1159 2956 
Q 1366 3272 1645 3428 
Q 1925 3584 2291 3584 
Q 2894 3584 3203 3211 
Q 3513 2838 3513 2113 
z
" transform="scale(0.015625)"/>
       <path id="DejaVuSans-73" d="M 2834 3397 
L 2834 2853 
Q 2591 2978 2328 3040 
Q 2066 3103 1784 3103 
Q 1356 3103 1142 2972 
Q 928 2841 928 2578 
Q 928 2378 1081 2264 
Q 1234 2150 1697 2047 
L 1894 2003 
Q 2506 1872 2764 1633 
Q 3022 1394 3022 966 
Q 3022 478 2636 193 
Q 2250 -91 1575 -91 
Q 1294 -91 989 -36 
Q 684 19 347 128 
L 347 722 
Q 666 556 975 473 
Q 1284 391 1588 391 
Q 1994 391 2212 530 
Q 2431 669 2431 922 
Q 2431 1156 2273 1281 
Q 2116 1406 1581 1522 
L 1381 1569 
Q 847 1681 609 1914 
Q 372 2147 372 2553 
Q 372 3047 722 3315 
Q 1072 3584 1716 3584 
Q 2034 3584 2315 3537 
Q 2597 3491 2834 3397 
z
" transform="scale(0.015625)"/>
      </defs>
      <use xlink:href="#DejaVuSans-4e"/>
      <use xlink:href="#DejaVuSans-65" x="74.804688"/>
      <use xlink:href="#DejaVuSans-75" x="136.328125"/>
      <use xlink:href="#DejaVuSans-72" x="199.707031"/>
      <use xlink:href="#DejaVuSans-6f" x="238.570312"/>
      <use xlink:href="#DejaVuSans-6e" x="299.751953"/>
      <use xlink:href="#DejaVuSans-73" x="363.130859"/>
     </g>
    </g>
   </g>
   <g id="line2d_11">
    <path d="M 100.705455 381.345948 
L 101.295714 385.015992 
L 101.704804 386.161221 
L 102.137271 386.754045 
L 102.634024 387.063796 
L 103.34701 387.226249 
L 104.843112 387.288102 
L 118.962577 387.28927 
L 159.672921 387.225399 
L 160.800842 387.045641 
L 168.287198 387.189773 
L 170.280053 387.226176 
L 174.569658 387.217407 
L 176.731993 387.205405 
L 180.945625 387.233192 
L 247.317629 387.127906 
L 247.563084 386.703177 
L 247.872823 385.639842 
L 248.404641 383.81025 
L 248.550745 383.859889 
L 248.796199 384.278783 
L 249.555939 385.635653 
L 249.918276 385.838353 
L 250.286457 385.791694 
L 250.701392 385.494329 
L 251.554638 384.791433 
L 251.870222 385.044436 
L 252.828662 385.915381 
L 253.29035 386.005691 
L 253.693596 385.853501 
L 254.681257 385.368485 
L 256.305931 385.514469 
L 258.076708 385.080693 
L 259.350733 385.657526 
L 260.414368 385.320512 
L 261.372808 385.200257 
L 262.044886 385.346367 
L 263.196183 385.621786 
L 263.996832 385.338495 
L 264.622156 385.246664 
L 265.054623 385.452437 
L 266.252673 386.0686 
L 266.802023 386.040574 
L 267.20527 385.814057 
L 267.655269 385.242322 
L 268.140333 384.735806 
L 268.450073 384.71649 
L 268.85332 384.953767 
L 270.068903 385.73075 
L 270.665006 385.853839 
L 271.243577 385.730179 
L 272.394874 385.45628 
L 272.990977 385.619563 
L 273.65721 385.736246 
L 274.072145 385.557862 
L 274.837729 385.22655 
L 275.264351 385.409157 
L 275.901364 385.618189 
L 276.468246 385.747909 
L 277.958504 386.377913 
L 279.57149 386.631062 
L 280.325385 386.536343 
L 281.324734 386.417994 
L 282.306551 386.51927 
L 283.650706 386.654195 
L 284.772782 386.449856 
L 287.174728 386.252567 
L 288.337714 386.431714 
L 290.126023 386.692716 
L 290.891607 386.471198 
L 291.739009 386.300879 
L 292.568878 386.469518 
L 293.498097 386.565338 
L 295.999393 386.46823 
L 297.279262 386.668852 
L 298.214326 386.590875 
L 299.476662 386.402759 
L 300.844193 386.409563 
L 304.192891 386.520664 
L 305.303279 386.505224 
L 305.426006 386.251545 
L 305.57211 385.306871 
L 305.724058 382.598873 
L 305.88185 375.008426 
L 306.02211 355.866515 
L 306.232499 333.495049 
L 306.390291 333.430222 
L 306.629901 333.557533 
L 306.764316 333.939838 
L 306.892888 335.138298 
L 307.027303 339.05906 
L 307.938991 375.575388 
L 308.254575 379.018835 
L 308.412367 379.433812 
L 308.441587 379.413274 
L 308.540938 379.113009 
L 308.716262 377.701514 
L 308.920808 374.036589 
L 309.096132 366.325203 
L 309.24808 347.511604 
L 309.435093 333.497704 
L 309.592885 333.426584 
L 309.855872 333.545259 
L 309.990287 333.896113 
L 310.113014 334.955911 
L 310.241585 338.556122 
L 311.194182 376.400139 
L 311.509766 379.651633 
L 311.679246 380.087016 
L 311.702623 380.073289 
L 311.796129 379.819808 
L 311.942233 378.651811 
L 312.117557 375.201394 
L 312.275349 367.285662 
L 312.421453 346.162865 
L 312.590933 333.487774 
L 312.742881 333.42207 
L 313.011712 333.533736 
L 313.146128 333.89383 
L 313.268855 335.056178 
L 313.397426 339.083156 
L 314.221451 374.363035 
L 314.5721 379.229374 
L 314.81171 380.298677 
L 314.88184 380.25784 
L 314.893528 380.233564 
L 315.010411 379.673824 
L 315.168203 377.634663 
L 315.325995 372.411037 
L 315.466255 359.027832 
L 315.729242 333.443558 
L 315.945475 333.430394 
L 316.144176 333.573962 
L 316.272747 334.020809 
L 316.38963 335.410424 
L 316.524046 340.438964 
L 317.190279 371.331499 
L 317.570149 378.379969 
L 317.891577 380.938259 
L 318.061057 381.26892 
L 318.084434 381.256361 
L 318.183784 381.024342 
L 318.335732 379.958045 
L 318.499368 376.99968 
L 318.645472 369.759629 
L 318.774043 349.831137 
L 318.949368 333.472214 
L 319.10716 333.419136 
L 319.364302 333.534725 
L 319.48703 333.909256 
L 319.598068 335.133717 
L 319.72664 339.856196 
L 320.404561 371.516308 
L 320.784431 378.516846 
L 321.088327 380.850869 
L 321.211054 381.04399 
L 321.246119 381.008078 
L 321.351313 380.602294 
L 321.503261 378.910548 
L 321.661053 374.24126 
L 321.795469 362.541251 
L 322.09352 333.428542 
L 322.374039 333.462562 
L 322.514299 333.67101 
L 322.631182 334.366751 
L 322.748065 336.88806 
L 322.95261 348.578537 
L 323.379233 368.285246 
L 323.764947 376.982295 
L 324.080531 380.032153 
L 324.197414 380.280482 
L 324.238323 380.230909 
L 324.337674 379.750713 
L 324.483777 377.744648 
L 324.641569 371.97898 
L 324.775985 357.490918 
L 325.015595 333.454464 
L 325.202608 333.425947 
L 325.424685 333.557566 
L 325.547413 333.952317 
L 325.664295 335.299556 
L 325.792867 340.195082 
L 326.447412 371.081749 
L 326.833125 378.445314 
L 327.137021 380.866064 
L 327.242216 381.030216 
L 327.283125 380.978585 
L 327.38832 380.469002 
L 327.534423 378.397507 
L 327.686371 372.616186 
L 327.820787 357.882211 
L 328.060397 333.458606 
L 328.241565 333.425947 
L 328.469487 333.554791 
L 328.598058 333.965925 
L 328.714941 335.329593 
L 328.849357 340.504468 
L 329.492213 370.857748 
L 329.877927 378.343666 
L 330.193511 380.928621 
L 330.298706 381.110556 
L 330.345459 381.053675 
L 330.450654 380.519359 
L 330.590913 378.438729 
L 330.742861 372.26889 
L 330.883121 355.522359 
L 331.105199 333.472254 
L 331.268835 333.426093 
L 331.508445 333.553298 
L 331.631172 333.930379 
L 331.748055 335.175152 
L 331.876626 339.576343 
L 332.624677 372.990293 
L 332.998703 379.087127 
L 333.279222 380.834075 
L 333.349352 380.891308 
L 333.396105 380.821921 
L 333.5013 380.259592 
L 333.641559 378.113193 
L 333.787663 371.912593 
L 333.922079 355.190284 
L 334.138312 333.478892 
L 334.301948 333.425973 
L 334.500649 333.546308 
L 334.570779 334.28268 
L 334.664285 338.789037 
L 335.155194 366.176132 
L 335.55844 376.702296 
L 335.961687 381.982165 
L 336.364933 384.630082 
L 336.774023 385.970649 
L 337.194802 386.648991 
L 337.674022 387.009742 
L 338.322723 387.20113 
L 339.520774 387.281935 
L 347.603232 387.290193 
L 393.251883 387.232555 
L 393.44474 386.994402 
L 393.631752 386.342074 
L 393.842142 384.63206 
L 394.116817 380.238085 
L 394.490842 370.420739 
L 394.71292 358.375989 
L 395.110322 333.434497 
L 395.396686 333.493496 
L 395.548633 333.753481 
L 395.677205 334.530093 
L 395.799932 336.95073 
L 395.986945 346.87534 
L 396.436944 368.220717 
L 396.834346 377.433875 
L 397.214216 381.695714 
L 397.547333 383.333678 
L 397.792787 383.700225 
L 397.933046 383.617382 
L 398.102527 383.198959 
L 398.301228 382.025631 
L 398.494085 379.410632 
L 398.663565 373.710117 
L 398.79798 360.724344 
L 399.072655 333.43297 
L 399.329798 333.44059 
L 399.493434 333.615503 
L 399.604473 334.154127 
L 399.709668 335.992521 
L 399.861616 343.953757 
L 400.323303 367.289439 
L 400.720706 377.02063 
L 401.106419 381.637378 
L 401.439536 383.378837 
L 401.632393 383.61612 
L 401.638237 383.613366 
L 401.749276 383.428549 
L 401.907068 382.621993 
L 402.088237 380.356607 
L 402.257717 375.145083 
L 402.403821 362.828818 
L 402.719405 333.432585 
L 402.988236 333.469678 
L 403.128495 333.68434 
L 403.245378 334.366432 
L 403.362261 336.761552 
L 403.549274 347.247781 
L 403.981741 367.93783 
L 404.379143 377.332851 
L 404.753169 381.619847 
L 405.045376 382.958496 
L 405.179792 383.045594 
L 405.203168 383.026894 
L 405.331739 382.735577 
L 405.512908 381.683639 
L 405.717453 379.020348 
L 405.916154 373.170118 
L 406.079791 361.110785 
L 406.412907 333.434776 
L 406.681738 333.465749 
L 406.833686 333.674748 
L 406.956413 334.339873 
L 407.073296 336.564761 
L 407.24862 346.019158 
L 407.69862 367.872319 
L 408.096022 377.257681 
L 408.464203 381.382258 
L 408.744723 382.555015 
L 408.855762 382.60119 
L 408.884982 382.573502 
L 409.019398 382.221673 
L 409.229787 380.902746 
L 409.475241 377.786282 
L 409.691475 371.996584 
L 409.855111 360.798996 
L 410.199916 333.426505 
L 410.497967 333.484342 
L 410.632383 333.732744 
L 410.749266 334.564784 
L 410.866149 337.545506 
L 411.158356 354.931971 
L 411.561603 370.927925 
L 411.953161 378.6574 
L 412.30381 381.860696 
L 412.560952 382.642983 
L 412.695368 382.613523 
L 412.847316 382.242138 
L 413.051861 381.077439 
L 413.273938 378.375382 
L 413.466795 372.989278 
L 413.618743 361.453115 
L 413.940171 333.428788 
L 414.220691 333.474411 
L 414.355106 333.715797 
L 414.466145 334.512569 
L 414.577184 337.30027 
L 414.84017 353.032919 
L 415.249261 370.137201 
L 415.646663 378.376737 
L 416.009 381.906631 
L 416.283675 382.889487 
L 416.394714 382.904323 
L 416.418091 382.876715 
L 416.546662 382.504214 
L 416.721987 381.211481 
L 416.926532 377.762711 
L 417.125233 370.219798 
L 417.277181 355.01332 
L 417.516791 333.471683 
L 417.686271 333.428536 
L 417.914193 333.554506 
L 418.042764 333.947631 
L 418.159647 335.216733 
L 418.288219 339.806683 
L 418.995361 372.327066 
L 419.386919 379.377754 
L 419.743412 382.364796 
L 420.012243 383.139622 
L 420.152502 383.119634 
L 420.298606 382.776852 
L 420.497307 381.637232 
L 420.725229 378.827261 
L 420.935618 373.14419 
L 421.105099 361.558939 
L 421.461592 333.43062 
L 421.742111 333.487601 
L 421.88237 333.737231 
L 421.999253 334.487596 
L 422.116136 337.018989 
L 422.285617 347.292973 
L 422.700551 367.556189 
L 423.103798 377.375805 
L 423.507044 382.29349 
L 423.91029 384.753138 
L 424.319381 385.994101 
L 424.740159 386.615582 
L 425.207691 386.923454 
L 425.792106 387.034808 
L 430.520023 387.112068 
L 431.940151 387.105543 
L 434.31872 387.134989 
L 439.029105 387.128212 
L 444.10767 387.167177 
L 451.255065 387.12391 
L 451.67 387.031356 
L 451.944675 386.696373 
L 452.225194 385.966713 
L 452.52909 384.484583 
L 452.879739 381.475636 
L 453.242076 376.435075 
L 453.475842 369.877627 
L 453.645322 358.126611 
L 453.972594 333.435167 
L 454.241425 333.460239 
L 454.393373 333.657455 
L 454.5161 334.298425 
L 454.632983 336.506266 
L 454.802464 345.720154 
L 455.246619 367.59386 
L 455.644021 377.213113 
L 456.029735 381.784053 
L 456.362852 383.490987 
L 456.596618 383.82334 
L 456.731033 383.712472 
L 456.935578 383.172692 
L 457.268695 381.558797 
L 457.590123 378.85607 
L 457.841421 374.745639 
L 458.02259 367.76159 
L 458.168694 352.008907 
L 458.384927 333.467063 
L 458.554408 333.422203 
L 458.794018 333.540174 
L 458.910901 333.905001 
L 459.02194 335.203649 
L 459.144667 340.082846 
L 459.764146 370.333183 
L 460.161549 378.523451 
L 460.535574 382.187752 
L 460.845314 383.425104 
L 461.073236 383.641073 
L 461.24856 383.517174 
L 461.476482 383.029423 
L 461.780378 381.787 
L 462.084274 379.553271 
L 462.347261 375.896112 
L 462.551806 369.532946 
L 462.703754 356.943087 
L 462.984273 333.440809 
L 463.218039 333.440079 
L 463.387519 333.600421 
L 463.504402 334.098726 
L 463.615441 335.809152 
L 463.761545 342.955009 
L 464.252453 367.758238 
L 464.649855 377.29443 
L 465.041413 381.961634 
L 465.409595 384.046983 
L 465.713491 384.724462 
L 465.906347 384.750297 
L 466.075828 384.502738 
L 466.292061 383.739595 
L 466.531671 381.986613 
L 466.753749 378.51036 
L 466.940762 371.720442 
L 467.09271 356.907945 
L 467.349852 333.463332 
L 467.531021 333.43208 
L 467.74141 333.571732 
L 467.864137 333.993195 
L 467.975176 335.325291 
L 468.103748 340.360529 
L 468.734916 370.725591 
L 469.132318 378.7563 
L 469.506343 382.391135 
L 469.816083 383.63008 
L 470.014784 383.78403 
L 470.166732 383.609197 
L 470.400498 382.926839 
L 470.704394 381.276448 
L 471.060887 377.956946 
L 471.31803 373.51142 
L 471.510887 365.884065 
L 471.668679 349.262123 
L 471.873224 333.484415 
L 472.031016 333.422827 
L 472.294003 333.54121 
L 472.41673 333.905831 
L 472.527769 335.11527 
L 472.650496 339.628691 
L 473.328417 371.670344 
L 473.725819 379.212918 
L 474.099845 382.63039 
L 474.427117 383.893704 
L 474.678416 384.171015 
L 474.882961 384.104833 
L 475.169324 383.731622 
L 475.455688 382.976611 
L 475.71283 381.605051 
L 475.958284 378.909188 
L 476.180362 373.806136 
L 476.355687 363.928085 
L 476.788154 333.425276 
L 477.056984 333.531014 
L 477.179712 333.859192 
L 477.29075 334.905913 
L 477.413478 338.844372 
L 478.214126 374.201591 
L 478.611528 380.46028 
L 478.97971 383.225359 
L 479.289449 384.153105 
L 479.505683 384.276885 
L 479.681007 384.107117 
L 479.903085 383.508896 
L 480.189448 381.981853 
L 480.4875 379.10035 
L 480.651136 377.254575 
L 480.715422 377.507245 
L 480.949188 379.981352 
L 481.405032 383.815567 
L 481.814122 385.54207 
L 482.229057 386.418491 
L 482.679056 386.876397 
L 483.240094 387.120478 
L 484.134249 387.236777 
L 486.699831 387.265526 
L 509.328377 387.27381 
L 539.460811 387.130502 
L 539.793928 386.799456 
L 540.156265 386.069762 
L 540.647174 384.554395 
L 541.406913 382.21293 
L 541.740029 381.876521 
L 542.020549 381.875631 
L 542.324444 382.125846 
L 542.850418 382.540651 
L 543.136781 382.465242 
L 543.393924 382.1503 
L 543.703664 381.375766 
L 544.066001 379.818082 
L 544.34652 377.485393 
L 544.58613 373.457506 
L 544.778987 366.208997 
L 544.936779 350.736998 
L 545.158857 333.485955 
L 545.322493 333.427932 
L 545.556259 333.554367 
L 545.678986 333.952629 
L 545.790025 335.268682 
L 545.918596 340.406962 
L 546.526388 370.14042 
L 546.92379 378.496175 
L 547.309504 382.480676 
L 547.671841 384.20526 
L 547.969893 384.737844 
L 548.215347 384.78763 
L 548.484178 384.594137 
L 549.425086 383.731211 
L 550.14976 383.455785 
L 550.664045 382.968274 
L 551.084824 382.330556 
L 551.429629 381.364229 
L 551.76859 379.66155 
L 552.10755 376.762808 
L 552.38807 372.376347 
L 552.580926 365.548419 
L 552.738719 350.430101 
L 552.960796 333.475931 
L 553.124432 333.426053 
L 553.352354 333.544303 
L 553.469237 333.918702 
L 553.574432 335.171687 
L 553.697159 340.120962 
L 554.304951 370.066227 
L 554.702353 378.480124 
L 555.093911 382.592069 
L 555.467936 384.455216 
L 555.812741 385.188534 
L 556.081572 385.334186 
L 556.30365 385.198843 
L 556.578325 384.722431 
L 557.004948 383.477784 
L 557.706245 381.51178 
L 558.296505 380.662448 
L 559.091309 379.620932 
L 559.365984 378.693537 
L 559.675724 376.792387 
L 559.944555 373.601969 
L 560.160788 368.078942 
L 560.330269 357.349302 
L 560.669229 333.437895 
L 560.932216 333.468278 
L 561.07832 333.67502 
L 561.195203 334.348045 
L 561.306241 336.689304 
L 561.493254 347.5388 
L 561.919877 367.97418 
L 562.323123 377.529038 
L 562.714681 382.134854 
L 563.088707 384.253127 
L 563.421824 385.060321 
L 563.690654 385.231575 
L 563.941953 385.137382 
L 564.216628 384.758309 
L 564.555589 383.84895 
L 565.40299 381.388551 
L 565.578315 381.491089 
L 565.905587 382.026839 
L 566.390651 382.692124 
L 566.64195 382.717428 
L 566.893248 382.49368 
L 567.185456 381.899754 
L 567.530261 380.63893 
L 567.851689 378.592685 
L 568.102987 375.376313 
L 568.330909 371.211668 
L 568.406883 371.703886 
L 568.664025 376.072033 
L 569.108181 381.887473 
L 569.517271 384.57794 
L 569.926362 385.92557 
L 570.347141 386.610729 
L 570.820517 386.972158 
L 571.463373 387.16565 
L 572.638047 387.247338 
L 579.902325 387.276572 
L 598.054253 387.284557 
L 604.178921 387.291793 
L 629.852269 387.286244 
L 646.876276 387.291156 
L 680.579486 387.287352 
L 685.114545 387.289709 
L 685.114545 387.289709 
" clip-path="url(#pa99b7f646c)" style="fill: none; stroke: #1f77b4; stroke-width: 1.5; stroke-linecap: square"/>
   </g>
   <g id="line2d_12">
    <path d="M 100.705455 387.296579 
L 129.86776 387.296579 
L 129.86776 387.296579 
" clip-path="url(#pa99b7f646c)" style="fill: none; stroke-dasharray: 2.96,1.28; stroke-dashoffset: 0; stroke: #808080; stroke-opacity: 0.7; stroke-width: 0.8"/>
   </g>
   <g id="line2d_13">
    <path d="M 100.705455 331.050177 
L 101.003506 331.082876 
L 101.62883 331.097254 
L 103.282724 331.462612 
L 104.848956 331.433643 
L 108.536615 331.393603 
L 111.160638 331.473246 
L 112.422974 331.330847 
L 113.61518 331.280291 
L 117.787903 331.406507 
L 121.03725 331.36251 
L 123.725559 331.434413 
L 128.377502 331.4081 
L 130.218409 331.381933 
L 131.621005 330.937702 
L 132.450874 330.804436 
L 133.958664 330.367998 
L 135.133338 330.771538 
L 135.595026 330.636241 
L 136.214506 330.481615 
L 136.810609 330.591288 
L 137.739829 330.789673 
L 138.306711 330.644459 
L 139.066451 330.40233 
L 139.598268 330.517805 
L 140.632683 330.76571 
L 141.275539 330.662196 
L 142.461902 330.433422 
L 143.058005 330.656806 
L 143.735926 330.86224 
L 144.402159 330.812269 
L 145.395665 330.706352 
L 146.354105 330.668715 
L 147.242416 330.523846 
L 152.169034 330.73791 
L 153.834616 330.309716 
L 155.213836 330.735228 
L 156.271627 330.729028 
L 158.200196 330.696979 
L 159.252143 330.770131 
L 159.865778 331.305051 
L 160.496947 331.507246 
L 161.636556 331.596541 
L 167.20603 331.612008 
L 216.028054 331.612207 
L 218.336493 331.503104 
L 219.271557 331.154567 
L 221.024801 331.027554 
L 222.13519 330.85689 
L 223.327396 330.943357 
L 224.601421 330.862904 
L 226.226094 331.136338 
L 227.044275 330.953394 
L 227.763106 330.864909 
L 235.039072 330.903409 
L 235.886473 330.772733 
L 236.897511 331.00837 
L 237.768289 331.123447 
L 238.545561 330.95982 
L 239.223482 330.883641 
L 240.941662 330.920775 
L 242.203999 330.799789 
L 244.185165 331.039025 
L 246.972824 331.109229 
L 247.551395 331.421841 
L 248.3462 331.563218 
L 250.228016 331.610056 
L 299.757181 331.611463 
L 335.324674 331.500608 
L 336.452595 331.532471 
L 339.526618 331.588894 
L 344.774664 331.580689 
L 356.44543 331.575724 
L 364.522045 331.576707 
L 369.635675 331.605104 
L 597.972434 331.498855 
L 598.188668 331.141848 
L 598.510096 330.069923 
L 598.89581 329.073526 
L 599.188018 328.904601 
L 599.889315 328.669587 
L 600.13477 328.164113 
L 600.450354 326.904132 
L 600.964639 324.799924 
L 600.976327 324.804398 
L 601.09321 324.993291 
L 601.373729 326.026516 
L 601.934768 327.907088 
L 602.250352 328.316363 
L 602.454897 328.291723 
L 602.688663 327.991391 
L 603.045156 327.108239 
L 603.576974 325.893343 
L 603.734766 325.907071 
L 603.91009 326.250099 
L 604.804245 328.359033 
L 605.07892 328.474747 
L 605.289309 328.322364 
L 605.523075 327.834906 
L 605.803595 326.665786 
L 606.171776 324.049639 
L 606.458139 322.662858 
L 606.528269 322.684326 
L 606.551646 322.724791 
L 606.703594 323.29808 
L 607.732164 327.995294 
L 608.041904 328.355063 
L 608.328267 328.388997 
L 608.532812 328.183894 
L 608.743202 327.597649 
L 608.9945 326.115492 
L 609.590603 321.725911 
L 609.649045 321.796952 
L 609.795149 322.403576 
L 610.812031 327.573964 
L 611.069173 327.78532 
L 611.297095 327.683067 
L 611.548393 327.301831 
L 611.817224 326.432286 
L 612.57112 323.625866 
L 612.682158 323.767748 
L 612.898392 324.550254 
L 613.722417 327.798861 
L 614.032157 328.225502 
L 614.230858 328.195723 
L 614.45878 327.88177 
L 614.908779 326.770017 
L 615.24774 326.254347 
L 615.691895 325.987922 
L 615.931505 326.078996 
L 616.434102 326.649112 
L 617.164621 327.352997 
L 617.363322 327.167928 
L 617.61462 326.572469 
L 618.456178 324.2953 
L 618.590593 324.412727 
L 618.818515 325.031964 
L 619.654229 327.495595 
L 619.963968 327.790789 
L 620.197734 327.744814 
L 620.478254 327.411916 
L 621.407473 326.186958 
L 621.647084 326.159317 
L 621.904226 326.395883 
L 622.348381 327.1636 
L 622.967861 328.123037 
L 623.376952 328.421165 
L 623.704224 328.411553 
L 624.002276 328.159307 
L 625.001625 327.069127 
L 625.510066 326.765769 
L 626.439286 326.116594 
L 626.696429 326.240858 
L 626.842532 327.096383 
L 627.310064 329.515115 
L 627.724999 330.568148 
L 628.16331 331.109707 
L 628.683439 331.396457 
L 629.460711 331.545986 
L 631.237333 331.604268 
L 647.174328 331.601798 
L 656.337954 331.494979 
L 656.536655 331.173007 
L 656.782109 330.255098 
L 657.384057 327.841796 
L 657.565225 327.822147 
L 657.945095 328.166582 
L 658.248991 328.263286 
L 658.506133 328.109947 
L 658.763276 327.664587 
L 659.108081 326.503645 
L 659.452886 325.63207 
L 659.645743 325.592242 
L 659.8386 325.83607 
L 660.972364 327.684169 
L 661.428208 327.87403 
L 661.843143 327.762538 
L 662.20548 327.72117 
L 662.719765 327.993648 
L 663.082102 328.012049 
L 663.339245 327.784483 
L 663.608076 327.206535 
L 664.385348 325.268371 
L 664.607425 325.197318 
L 664.847036 325.411129 
L 665.489892 326.355219 
L 666.039242 327.088842 
L 666.395735 327.302561 
L 666.576904 327.175296 
L 666.804826 326.674735 
L 667.231448 325.07859 
L 667.523656 324.415608 
L 667.652227 324.495026 
L 667.856772 325.010643 
L 668.83859 327.896268 
L 669.306121 328.457355 
L 669.633394 328.558148 
L 669.855472 328.383859 
L 670.083393 327.874681 
L 670.8256 325.897964 
L 670.983392 326.032503 
L 671.369106 326.808412 
L 671.836638 327.49055 
L 672.152222 327.613155 
L 672.497027 327.47665 
L 672.75417 327.133025 
L 673.052221 326.283329 
L 673.584039 324.783011 
L 673.759363 324.757839 
L 673.934688 325.030636 
L 674.320402 326.193157 
L 674.81131 327.387661 
L 675.12105 327.65994 
L 675.319751 327.580456 
L 675.541829 327.200348 
L 676.237283 325.861308 
L 676.424295 325.996366 
L 676.739879 326.581204 
L 677.669099 328.419625 
L 677.943774 328.468587 
L 678.195073 328.259382 
L 678.458059 327.738906 
L 678.79702 326.465809 
L 679.171046 325.34682 
L 679.369747 325.296517 
L 679.580136 325.524095 
L 680.719745 327.068623 
L 681.041173 326.842159 
L 681.654809 326.240195 
L 682.128185 325.735053 
L 682.326886 325.837531 
L 682.61325 326.285267 
L 683.326236 327.512682 
L 683.554158 327.500362 
L 683.822988 327.202605 
L 684.407403 326.551612 
L 684.711299 326.654701 
L 685.114545 326.914209 
L 685.114545 326.914209 
" clip-path="url(#pa99b7f646c)" style="fill: none; stroke: #ff7f0e; stroke-width: 1.5; stroke-linecap: square"/>
   </g>
   <g id="line2d_14">
    <path d="M 100.705455 331.612605 
L 129.86776 331.612605 
L 129.86776 331.612605 
" clip-path="url(#pa99b7f646c)" style="fill: none; stroke-dasharray: 2.96,1.28; stroke-dashoffset: 0; stroke: #808080; stroke-opacity: 0.7; stroke-width: 0.8"/>
   </g>
   <g id="line2d_15">
    <path d="M 100.705455 275.881514 
L 103.475581 275.927795 
L 152.256696 275.927516 
L 200.786512 275.928379 
L 685.114545 275.927423 
L 685.114545 275.927423 
" clip-path="url(#pa99b7f646c)" style="fill: none; stroke: #2ca02c; stroke-width: 1.5; stroke-linecap: square"/>
   </g>
   <g id="line2d_16">
    <path d="M 100.705455 275.928631 
L 129.86776 275.928631 
L 129.86776 275.928631 
" clip-path="url(#pa99b7f646c)" style="fill: none; stroke-dasharray: 2.96,1.28; stroke-dashoffset: 0; stroke: #808080; stroke-opacity: 0.7; stroke-width: 0.8"/>
   </g>
   <g id="line2d_17">
    <path d="M 100.705455 219.168975 
L 101.015194 218.917313 
L 101.435973 218.26336 
L 102.166492 216.62724 
L 102.598959 215.084983 
L 102.879478 213.257821 
L 103.084023 210.256149 
L 103.24766 204.25955 
L 103.382075 189.684523 
L 103.615841 166.397431 
L 103.802854 166.369684 
L 104.042464 166.499471 
L 104.159347 166.881318 
L 104.270386 168.182003 
L 104.398957 173.196915 
L 105.030125 203.563856 
L 105.421683 211.425189 
L 105.772332 214.64334 
L 106.000254 215.259431 
L 106.09376 215.145363 
L 106.23402 214.494993 
L 106.415188 212.437093 
L 106.590513 207.689057 
L 106.736617 196.753459 
L 107.081421 166.374782 
L 107.367785 166.436755 
L 107.5022 166.709339 
L 107.613239 167.564585 
L 107.730122 170.784543 
L 108.682718 209.726672 
L 109.062588 214.355886 
L 109.384016 216.050447 
L 109.565185 216.257793 
L 109.576873 216.251633 
L 109.693756 216.048004 
L 109.857392 215.221249 
L 110.038561 212.964419 
L 110.196353 207.781326 
L 110.324924 195.001652 
L 110.599599 166.380438 
L 110.856742 166.397272 
L 111.00869 166.577375 
L 111.125573 167.179871 
L 111.236612 169.298072 
L 111.411936 178.939543 
L 111.856092 200.603101 
L 112.253494 210.027057 
L 112.615831 214.039145 
L 112.878818 215.03918 
L 112.972324 215.032357 
L 112.995701 214.998503 
L 113.124272 214.544221 
L 113.299596 212.948806 
L 113.492453 208.841714 
L 113.65609 199.801119 
L 113.813882 175.013324 
L 113.971674 166.424886 
L 114.13531 166.373454 
L 114.380764 166.494028 
L 114.509335 166.874972 
L 114.626218 168.09231 
L 114.75479 172.543439 
L 115.485308 205.772653 
L 115.876866 212.548665 
L 116.215827 215.185483 
L 116.414528 215.596537 
L 116.426216 215.59274 
L 116.525567 215.413699 
L 116.671671 214.55686 
L 116.846995 211.995317 
L 117.016475 205.724487 
L 117.156735 190.385793 
L 117.396345 166.405981 
L 117.577514 166.375207 
L 117.799591 166.50887 
L 117.928163 166.932059 
L 118.045046 168.331253 
L 118.179461 173.642355 
L 118.798941 203.386992 
L 119.190499 211.368526 
L 119.541148 214.699551 
L 119.780758 215.418478 
L 119.874264 215.321324 
L 120.00868 214.70927 
L 120.184004 212.727813 
L 120.371017 207.755464 
L 120.534653 196.472457 
L 120.902835 166.376216 
L 121.189198 166.443526 
L 121.323613 166.701639 
L 121.440496 167.505002 
L 121.557379 170.232337 
L 121.785301 183.539603 
L 122.200236 202.00511 
L 122.597638 210.76696 
L 122.954131 214.428347 
L 123.199585 215.232348 
L 123.287248 215.146 
L 123.415819 214.578792 
L 123.591143 212.638836 
L 123.766468 207.821526 
L 123.912572 196.521154 
L 124.245688 166.377915 
L 124.526207 166.424302 
L 124.660623 166.655067 
L 124.771662 167.41053 
L 124.8827 170.114551 
L 125.128155 184.843475 
L 125.537245 202.518071 
L 125.934647 211.065619 
L 126.296985 214.765985 
L 126.559971 215.709915 
L 126.647634 215.680442 
L 126.665166 215.649536 
L 126.787893 215.147912 
L 126.945685 213.42964 
L 127.109321 208.908307 
L 127.255425 197.567336 
L 127.60023 166.376587 
L 127.880749 166.440605 
L 128.015164 166.708251 
L 128.132047 167.5845 
L 128.24893 170.618459 
L 128.552826 188.530751 
L 128.956073 204.195347 
L 129.347631 211.776076 
L 129.698279 214.941442 
L 129.93789 215.632224 
L 130.019708 215.533662 
L 130.136591 214.895453 
L 130.282694 212.655723 
L 130.434642 206.425199 
L 130.574902 190.19151 
L 130.808668 166.425497 
L 130.972304 166.377756 
L 131.194382 166.510995 
L 131.317109 166.933493 
L 131.428148 168.297771 
L 131.556719 173.363424 
L 132.187887 203.580478 
L 132.579445 211.4395 
L 132.930094 214.709455 
L 133.158016 215.335636 
L 133.245678 215.212195 
L 133.380094 214.48347 
L 133.549574 212.120298 
L 133.730743 206.14449 
L 133.894379 192.307242 
L 134.19243 166.402024 
L 134.40282 166.392572 
L 134.583988 166.549389 
L 134.71256 167.037578 
L 134.835287 168.652508 
L 134.975546 174.386666 
L 135.577494 203.064808 
L 135.969052 211.096951 
L 136.319701 214.38751 
L 136.570999 215.154178 
L 136.687882 215.112358 
L 136.693726 215.103516 
L 136.83983 214.665989 
L 137.061908 213.155701 
L 137.301518 209.903748 
L 137.494375 203.964927 
L 137.646323 191.207663 
L 137.932686 166.390341 
L 138.166452 166.388085 
L 138.347621 166.545884 
L 138.470348 167.036436 
L 138.581386 168.595554 
L 138.721646 174.787551 
L 139.270996 201.857214 
L 139.662554 210.558366 
L 140.019047 214.244553 
L 140.287878 215.222045 
L 140.398917 215.235029 
L 140.422294 215.208026 
L 140.556709 214.835977 
L 140.743722 213.567313 
L 140.948267 210.457361 
L 141.123591 204.091262 
L 141.269695 189.417673 
L 141.515149 166.40999 
L 141.696318 166.374835 
L 141.92424 166.506428 
L 142.046967 166.915331 
L 142.158006 168.269015 
L 142.286577 173.39996 
L 142.906057 203.307946 
L 143.303459 211.430712 
L 143.665796 214.900578 
L 143.934627 215.804653 
L 144.039822 215.80399 
L 144.063199 215.773694 
L 144.19177 215.370392 
L 144.367094 213.955453 
L 144.554107 210.379564 
L 144.717743 202.29044 
L 144.863847 181.407515 
L 145.045016 166.445623 
L 145.196964 166.374994 
L 145.442418 166.488611 
L 145.570989 166.866582 
L 145.687872 168.10779 
L 145.816443 172.627211 
L 146.535274 205.417703 
L 146.926832 212.268725 
L 147.283325 215.123829 
L 147.546312 215.855421 
L 147.669039 215.810415 
L 147.803454 215.398299 
L 147.978779 214.00946 
L 148.17748 210.403168 
L 148.34696 202.622528 
L 148.493064 183.20709 
L 148.685921 166.442278 
L 148.837869 166.374118 
L 149.089167 166.491399 
L 149.217738 166.873166 
L 149.334621 168.138219 
L 149.463193 172.736288 
L 150.170335 205.214101 
L 150.561893 212.205345 
L 150.912542 215.088807 
L 151.169684 215.792944 
L 151.286567 215.743344 
L 151.420983 215.333299 
L 151.596307 213.968357 
L 151.78332 210.554675 
L 151.941112 203.173565 
L 152.081371 183.897288 
L 152.274228 166.434498 
L 152.43202 166.374198 
L 152.677475 166.491505 
L 152.806046 166.865785 
L 152.922929 168.118305 
L 153.0515 172.747413 
L 153.746954 204.956863 
L 154.138512 212.121095 
L 154.495005 215.151549 
L 154.746304 215.845464 
L 154.845654 215.76679 
L 154.98007 215.252315 
L 155.14955 213.558869 
L 155.31903 209.35826 
L 155.476822 198.89484 
L 155.880069 166.376189 
L 156.154744 166.46883 
L 156.289159 166.787483 
L 156.406042 167.753265 
L 156.528769 171.128792 
L 157.504742 209.987335 
L 157.867079 214.066096 
L 158.13591 215.152187 
L 158.223572 215.164825 
L 158.252793 215.128051 
L 158.381364 214.69833 
L 158.562533 213.15063 
L 158.767078 209.188193 
L 158.942403 201.019333 
L 159.094351 181.564386 
L 159.281363 166.499073 
L 159.433311 166.384208 
L 159.690454 166.489859 
L 159.824869 166.815654 
L 159.947597 167.859899 
L 160.070324 171.427716 
L 160.976167 209.135089 
L 161.373569 214.504897 
L 161.770971 217.168161 
L 162.162529 218.450207 
L 162.554087 219.043516 
L 162.933957 219.24988 
L 163.319671 219.213423 
L 163.775514 218.921987 
L 164.506033 218.41176 
L 164.903435 218.571498 
L 165.739149 218.955017 
L 166.189148 218.875892 
L 166.633303 218.568152 
L 167.889795 217.489655 
L 168.281353 217.724695 
L 169.420963 218.514198 
L 170.157325 218.651579 
L 170.718364 218.489823 
L 171.238493 218.346627 
L 171.67096 218.57803 
L 172.494985 219.012795 
L 173.126153 219.049411 
L 173.617062 218.872228 
L 173.944334 218.51218 
L 174.505373 217.429223 
L 174.809268 217.145619 
L 175.03719 217.20937 
L 175.428748 217.630196 
L 176.188488 218.382871 
L 176.866409 218.73729 
L 177.497577 218.833886 
L 178.076148 218.670617 
L 178.976147 218.488602 
L 181.191079 218.338635 
L 181.921598 218.43478 
L 182.909259 218.673883 
L 183.306661 218.513773 
L 184.831984 217.642941 
L 185.176789 217.890965 
L 186.146918 218.665121 
L 186.573541 218.693983 
L 187.157956 218.479308 
L 187.78328 218.291266 
L 188.145617 218.436347 
L 189.215096 218.967125 
L 189.577434 218.870316 
L 189.974836 218.520199 
L 190.43068 217.80005 
L 191.190419 216.601909 
L 191.45925 216.576526 
L 191.76899 216.799644 
L 192.306651 217.523589 
L 193.113144 218.521712 
L 193.557299 218.752212 
L 193.960546 218.710844 
L 194.463143 218.426629 
L 195.380674 217.858173 
L 196.087816 217.714181 
L 196.479374 217.884433 
L 197.659892 218.525403 
L 198.133268 218.39774 
L 199.015735 218.155212 
L 199.775474 218.327695 
L 200.991057 218.577127 
L 201.540407 218.372648 
L 202.644952 217.858067 
L 203.188458 217.85958 
L 203.609236 218.10094 
L 204.5443 218.67537 
L 204.9943 218.641542 
L 205.415078 218.378702 
L 206.046247 218.028744 
L 206.490402 218.012627 
L 206.998843 218.231762 
L 207.98066 218.725978 
L 208.489101 218.685778 
L 209.792346 218.35292 
L 210.604683 218.374321 
L 211.557279 218.12011 
L 212.270266 217.702391 
L 212.913122 217.377233 
L 213.310524 217.411539 
L 213.801433 217.731944 
L 215.57221 218.970471 
L 216.010521 218.925704 
L 216.402079 218.672768 
L 217.132598 217.819566 
L 217.792987 216.837056 
L 217.962467 215.272202 
L 218.126103 211.466132 
L 218.260519 202.567618 
L 218.406622 173.116967 
L 218.552726 166.397909 
L 218.733895 166.374331 
L 218.920908 166.514712 
L 219.031946 167.009937 
L 219.137141 168.798413 
L 219.289089 176.73818 
L 219.756621 200.330729 
L 220.154023 209.930619 
L 220.510516 213.933972 
L 220.738438 214.674221 
L 220.820256 214.532591 
L 220.942983 213.742876 
L 221.094931 211.079267 
L 221.241035 203.994347 
L 221.381294 183.466691 
L 221.568307 166.457492 
L 221.720255 166.381154 
L 221.942333 166.50441 
L 222.06506 166.891886 
L 222.176099 168.145282 
L 222.30467 172.951015 
L 222.970903 204.322797 
L 223.362461 211.742779 
L 223.683889 214.397494 
L 223.835837 214.685134 
L 223.865058 214.66198 
L 223.970253 214.336291 
L 224.122201 212.957515 
L 224.297525 209.000523 
L 224.467005 199.627175 
L 224.64233 174.480607 
L 224.800122 166.454863 
L 224.957914 166.380889 
L 225.19168 166.497772 
L 225.320251 166.867564 
L 225.437134 168.055642 
L 225.565705 172.379772 
L 226.325445 206.303537 
L 226.705315 212.453077 
L 226.985834 214.17727 
L 227.07934 214.24997 
L 227.120249 214.202202 
L 227.242976 213.759631 
L 227.447522 211.999911 
L 227.710508 207.643201 
L 227.926742 200.147386 
L 228.090378 185.228216 
L 228.329988 166.425045 
L 228.499468 166.375791 
L 228.750767 166.502631 
L 228.885182 166.87938 
L 229.007909 168.052402 
L 229.136481 172.133261 
L 229.942973 207.183371 
L 230.322843 212.94339 
L 230.65596 215.132458 
L 230.89557 215.604105 
L 231.018297 215.516297 
L 231.176089 215.019266 
L 231.37479 213.528919 
L 231.567647 210.147391 
L 231.737127 202.59186 
L 231.877387 183.965606 
L 232.070244 166.423266 
L 232.228036 166.369684 
L 232.479334 166.483646 
L 232.602061 166.846243 
L 232.7131 168.039763 
L 232.835827 172.440523 
L 233.542969 205.162802 
L 233.934527 212.207629 
L 234.29102 215.170401 
L 234.554007 215.923713 
L 234.67089 215.877513 
L 234.805306 215.451748 
L 234.98063 214.004946 
L 235.161799 210.449874 
L 235.319591 202.379549 
L 235.45985 181.549251 
L 235.641019 166.438082 
L 235.798811 166.374808 
L 236.044265 166.496736 
L 236.172836 166.882885 
L 236.289719 168.139626 
L 236.418291 172.691069 
L 237.131277 205.368794 
L 237.522835 212.322387 
L 237.861796 215.020408 
L 238.03712 215.3872 
L 238.060497 215.375411 
L 238.159847 215.141433 
L 238.311795 214.060865 
L 238.492964 210.916104 
L 238.668288 203.52732 
L 238.82608 185.746701 
L 239.042314 166.45327 
L 239.200106 166.378074 
L 239.44556 166.49963 
L 239.574131 166.877043 
L 239.691014 168.099373 
L 239.819586 172.580931 
L 240.54426 205.591408 
L 240.929974 212.252661 
L 241.228026 214.37365 
L 241.33322 214.505614 
L 241.374129 214.46244 
L 241.491012 214.025843 
L 241.660493 212.368137 
L 241.859194 207.871763 
L 242.040362 197.858906 
L 242.50205 166.378154 
L 242.759193 166.484044 
L 242.893608 166.828612 
L 243.010491 167.863988 
L 243.133218 171.438789 
L 244.044906 209.046006 
L 244.418931 213.79221 
L 244.69945 215.131104 
L 244.792957 215.1815 
L 244.833866 215.136016 
L 244.956593 214.718802 
L 245.131917 213.17519 
L 245.324774 209.252742 
L 245.494255 200.746377 
L 245.652047 179.243034 
L 245.827371 166.450668 
L 245.979319 166.373693 
L 246.236462 166.485425 
L 246.359189 166.836418 
L 246.470228 167.987801 
L 246.592955 172.196269 
L 247.34685 206.293474 
L 247.750096 213.192794 
L 248.147499 216.58789 
L 248.556589 218.350876 
L 248.977368 219.261908 
L 249.421523 219.724022 
L 249.929964 219.932138 
L 250.648794 219.963735 
L 252.074767 219.97117 
L 253.3897 220.027142 
L 257.246839 219.927996 
L 262.132548 219.994562 
L 264.043585 219.944299 
L 265.335142 219.984658 
L 266.936439 220.019601 
L 268.935138 219.948839 
L 270.665006 220.026133 
L 273.324094 220.004068 
L 275.089027 219.9811 
L 276.44487 219.913233 
L 277.88253 219.751663 
L 288.629921 219.715685 
L 290.307192 219.771975 
L 291.890956 219.67429 
L 293.696799 219.76008 
L 295.30394 219.682016 
L 297.548093 219.754398 
L 299.389 219.740192 
L 300.411726 219.772984 
L 302.129906 219.619088 
L 303.368866 219.775029 
L 304.637046 219.807768 
L 305.624707 219.890132 
L 306.437044 220.123659 
L 307.711069 220.203077 
L 317.225344 220.221636 
L 335.038311 220.03293 
L 335.353895 219.641392 
L 335.62857 218.913437 
L 335.862336 217.600431 
L 336.07857 214.969375 
L 336.324024 208.722893 
L 336.534413 197.447825 
L 336.738959 170.821211 
L 336.890906 166.422151 
L 337.066231 166.381101 
L 337.294153 166.512694 
L 337.428568 166.909384 
L 337.551295 168.15184 
L 337.679867 172.370797 
L 338.468827 206.983167 
L 338.854541 213.08239 
L 339.16428 215.161613 
L 339.281163 215.311447 
L 339.316228 215.279398 
L 339.427267 214.906473 
L 339.590903 213.416762 
L 339.795449 209.251892 
L 339.999994 200.20057 
L 340.181162 180.668648 
L 340.379864 166.474671 
L 340.531811 166.379508 
L 340.794798 166.491134 
L 340.935058 166.844012 
L 341.057785 167.869989 
L 341.186356 171.340997 
L 342.185706 210.354339 
L 342.548043 214.235021 
L 342.828562 215.356081 
L 343.003887 215.433985 
L 343.161679 215.206273 
L 343.395445 214.411301 
L 343.675964 212.605433 
L 343.915574 209.561623 
L 344.108431 203.940127 
L 344.254535 192.242083 
L 344.552586 166.37765 
L 344.83895 166.400352 
L 344.996742 166.588527 
L 345.119469 167.175198 
L 345.236352 169.15238 
L 345.394144 177.129002 
L 345.873364 200.838911 
L 346.270766 210.215577 
L 346.644792 214.452165 
L 346.972064 216.020788 
L 347.199986 216.304552 
L 347.328557 216.180659 
L 347.498037 215.628612 
L 347.690894 214.130485 
L 347.877907 210.668027 
L 348.035699 202.807145 
L 348.170115 181.963465 
L 348.345439 166.419496 
L 348.503231 166.367825 
L 348.760374 166.486195 
L 348.883101 166.870485 
L 348.99414 168.18349 
L 349.122711 173.348926 
L 349.730503 203.033104 
L 350.127905 211.331937 
L 350.50193 215.091727 
L 350.81167 216.374384 
L 350.986995 216.502657 
L 350.998683 216.495541 
L 351.127254 216.265546 
L 351.29089 215.418107 
L 351.466215 213.133397 
L 351.629851 207.538055 
L 351.764266 193.921455 
L 352.027253 166.385721 
L 352.261019 166.383119 
L 352.436344 166.54307 
L 352.553227 167.060359 
L 352.664265 168.874511 
L 352.816213 176.562644 
L 353.295434 200.637725 
L 353.692836 210.175802 
L 354.072705 214.612089 
L 354.394134 216.211911 
L 354.586991 216.422417 
L 354.592835 216.419974 
L 354.721406 216.231772 
L 354.908419 215.476442 
L 355.124652 213.569809 
L 355.311665 209.728849 
L 355.463613 201.432379 
L 355.603873 178.215093 
L 355.767509 166.415752 
L 355.931145 166.368356 
L 356.188288 166.484018 
L 356.311015 166.834533 
L 356.427898 168.044171 
L 356.550625 172.311081 
L 357.286988 205.84599 
L 357.672701 212.479204 
L 358.017506 215.173641 
L 358.292181 215.934865 
L 358.449973 215.939592 
L 358.607765 215.642712 
L 358.847376 214.622497 
L 359.09283 212.526866 
L 359.297375 208.573457 
L 359.461011 200.302796 
L 359.601271 178.915911 
L 359.770751 166.41546 
L 359.934387 166.367454 
L 360.203218 166.486036 
L 360.325945 166.849323 
L 360.436984 168.054951 
L 360.559711 172.516887 
L 361.255165 205.008056 
L 361.652567 212.31782 
L 362.014904 215.442482 
L 362.272047 216.197307 
L 362.383086 216.134325 
L 362.517501 215.656864 
L 362.681137 214.118191 
L 362.850618 210.174793 
L 363.002566 200.555891 
L 363.423344 166.3691 
L 363.692175 166.479583 
L 363.809058 166.831957 
L 363.914253 167.999935 
L 364.03698 172.676731 
L 364.685681 203.935427 
L 365.083083 211.84928 
L 365.462953 215.546566 
L 365.784381 216.884053 
L 365.953861 217.017557 
L 365.971394 217.006777 
L 366.099965 216.763241 
L 366.269445 215.875176 
L 366.456458 213.5162 
L 366.620094 208.203798 
L 366.75451 195.398447 
L 367.035029 166.379827 
L 367.298015 166.393926 
L 367.455808 166.569144 
L 367.57269 167.143362 
L 367.683729 169.190323 
L 367.847366 178.094466 
L 368.297365 200.462693 
L 368.694767 210.118688 
L 369.080481 214.753851 
L 369.425286 216.626231 
L 369.659052 216.985376 
L 369.775935 216.869024 
L 369.927883 216.316234 
L 370.109051 214.713624 
L 370.296064 210.731035 
L 370.453856 201.962467 
L 370.594116 178.641707 
L 370.757752 166.420027 
L 370.915544 166.368728 
L 371.172686 166.488585 
L 371.295414 166.869635 
L 371.406452 168.101603 
L 371.535024 172.894247 
L 372.195413 204.256629 
L 372.592815 211.959923 
L 372.96684 215.408415 
L 373.270736 216.515774 
L 373.457749 216.617416 
L 373.609697 216.408716 
L 373.820086 215.657103 
L 374.06554 213.871229 
L 374.281774 210.564022 
L 374.451254 204.225191 
L 374.58567 189.726157 
L 374.819436 166.397829 
L 375.006448 166.369312 
L 375.240214 166.494373 
L 375.362942 166.893983 
L 375.47398 168.218008 
L 375.602552 173.331349 
L 376.216187 203.196666 
L 376.61359 211.421578 
L 376.981771 215.05636 
L 377.297355 216.325156 
L 377.542809 216.585819 
L 377.706445 216.477698 
L 377.916835 216.007672 
L 378.168133 214.858493 
L 378.390211 212.715306 
L 378.594756 208.235421 
L 378.758392 199.168752 
L 378.91034 175.017785 
L 379.068132 166.409512 
L 379.237613 166.368755 
L 379.488911 166.487284 
L 379.617482 166.874547 
L 379.734365 168.157522 
L 379.862937 172.909116 
L 380.535014 204.539065 
L 380.932416 212.079196 
L 381.294753 215.287974 
L 381.575272 216.183951 
L 381.756441 216.235171 
L 381.925921 215.990253 
L 382.194752 215.117908 
L 382.592154 213.011045 
L 382.814232 210.473266 
L 382.989556 205.584716 
L 383.129816 194.607352 
L 383.4454 166.370958 
L 383.760984 166.42462 
L 383.8954 166.664015 
L 384.012283 167.451871 
L 384.129166 170.240913 
L 384.368776 184.463141 
L 384.78371 202.511566 
L 385.181112 211.101518 
L 385.560982 215.100702 
L 385.899943 216.683212 
L 386.174618 217.118987 
L 386.349942 217.081893 
L 386.542799 216.756204 
L 386.788254 215.830568 
L 387.02202 213.978978 
L 387.220721 210.401496 
L 387.378513 202.998958 
L 387.507084 184.427004 
L 387.694097 166.410919 
L 387.857733 166.365701 
L 388.12072 166.482026 
L 388.243447 166.861271 
L 388.354486 168.162222 
L 388.483057 173.353626 
L 389.085004 202.902361 
L 389.482406 211.301031 
L 389.856432 215.11504 
L 390.183704 216.527431 
L 390.423314 216.809654 
L 390.586951 216.717996 
L 390.785652 216.30102 
L 391.019418 215.226878 
L 391.241495 213.030959 
L 391.428508 208.636731 
L 391.574612 198.852144 
L 391.954482 166.365489 
L 392.264221 166.464289 
L 392.386949 166.808804 
L 392.497987 168.025292 
L 392.620715 172.701956 
L 393.275259 204.132763 
L 393.678506 212.142682 
L 394.081752 216.157426 
L 394.484998 218.17287 
L 394.894089 219.193881 
L 395.326556 219.715366 
L 395.834997 219.980304 
L 396.612269 220.105311 
L 398.93824 220.163089 
L 404.525247 220.172648 
L 422.764837 220.062881 
L 424.558991 219.640383 
L 425.289509 219.422177 
L 425.856392 218.977135 
L 426.394054 218.617008 
L 426.72717 218.681849 
L 427.323273 219.079388 
L 428.077169 219.493868 
L 428.813532 219.63786 
L 429.631712 219.568585 
L 430.309634 219.279379 
L 431.005088 218.983694 
L 431.548593 219.034435 
L 433.260929 219.393819 
L 434.114175 219.197492 
L 435.294693 218.926102 
L 436.142095 219.292177 
L 436.860925 219.430381 
L 437.784301 219.340741 
L 439.040793 219.314906 
L 440.829103 219.245286 
L 441.711569 219.09893 
L 443.21936 219.277786 
L 444.394034 219.415592 
L 445.182994 219.236391 
L 446.03624 219.14845 
L 449.95182 219.268599 
L 451.488831 219.264882 
L 453.101816 220.00367 
L 454.82584 220.126712 
L 456.865448 220.108657 
L 458.344018 220.132103 
L 460.36025 220.112746 
L 462.545962 220.134519 
L 470.207641 220.093097 
L 472.410886 220.154114 
L 481.112824 220.003723 
L 481.697239 219.625885 
L 482.164771 219.056128 
L 482.626459 218.121704 
L 484.198535 214.489364 
L 484.443989 214.524413 
L 485.127755 214.750903 
L 485.308923 214.512677 
L 485.50178 213.822825 
L 485.706325 212.101898 
L 485.899182 208.326761 
L 486.062819 200.168229 
L 486.208922 178.726541 
L 486.378403 166.422549 
L 486.536195 166.368914 
L 486.787493 166.483487 
L 486.904376 166.843481 
L 487.015415 168.139281 
L 487.138142 173.063809 
L 487.751778 203.187532 
L 488.14918 211.532035 
L 488.546582 215.690559 
L 488.932296 217.639728 
L 489.282945 218.416406 
L 489.55762 218.57718 
L 489.79723 218.461731 
L 490.130347 218.009892 
L 490.743982 216.720226 
L 491.679046 214.950682 
L 492.567357 213.144204 
L 492.847876 211.875939 
L 493.075798 209.7015 
L 493.274499 205.38669 
L 493.438135 196.182109 
L 493.858914 166.368622 
L 494.145277 166.472494 
L 494.268004 166.812893 
L 494.379043 167.986845 
L 494.50177 172.542722 
L 495.168003 204.382141 
L 495.565405 212.118413 
L 495.956963 215.881814 
L 496.319301 217.509941 
L 496.634885 218.073485 
L 496.921248 218.185482 
L 497.271897 218.064377 
L 497.926442 217.553805 
L 498.335532 216.948177 
L 499.124492 215.242225 
L 499.679687 214.177854 
L 500.13553 213.19221 
L 500.398517 212.005938 
L 500.643971 209.759092 
L 500.860205 205.513079 
L 501.023841 197.443231 
L 501.169945 176.901715 
L 501.333581 166.423001 
L 501.491373 166.367825 
L 501.75436 166.478282 
L 501.877087 166.835569 
L 501.988126 168.040002 
L 502.110853 172.6437 
L 502.771242 204.281482 
L 503.168644 212.085435 
L 503.560202 215.905764 
L 503.934227 217.630913 
L 504.267344 218.272679 
L 504.536175 218.392881 
L 504.781629 218.252287 
L 505.108901 217.764763 
L 505.517992 216.707906 
L 506.961497 211.803345 
L 507.282925 209.897376 
L 507.522535 206.975998 
L 507.721236 201.478128 
L 507.873184 190.352602 
L 508.17708 166.379614 
L 508.451755 166.400325 
L 508.603703 166.586934 
L 508.720586 167.183854 
L 508.831624 169.243613 
L 508.995261 178.169158 
L 509.439416 200.334977 
L 509.842662 210.19407 
L 510.240064 215.029701 
L 510.625778 217.316482 
L 510.982271 218.275441 
L 511.292011 218.571046 
L 511.619284 218.573303 
L 512.086816 218.340175 
L 512.717984 218.064829 
L 513.197204 218.08692 
L 513.857593 218.096267 
L 514.284216 217.89216 
L 515.575773 216.846721 
L 516.41733 216.3862 
L 516.843953 216.419655 
L 517.410836 216.73175 
L 517.977718 216.938219 
L 519.088107 217.064077 
L 520.134209 217.422638 
L 520.607585 217.333688 
L 521.74135 217.091744 
L 523.605634 217.651172 
L 524.166672 217.488806 
L 525.236152 217.04087 
L 525.610177 216.779491 
L 526.551085 215.945752 
L 526.89589 216.03672 
L 527.328357 216.448624 
L 527.883551 216.850332 
L 529.081602 217.28454 
L 529.420563 217.133059 
L 530.02251 216.534679 
L 530.454977 216.252854 
L 530.723808 216.371755 
L 531.658872 216.941193 
L 532.266663 217.089832 
L 533.359519 217.668192 
L 533.996532 217.539892 
L 534.504973 217.19397 
L 534.826401 216.662077 
L 535.358218 215.239835 
L 535.79653 214.269831 
L 536.030296 214.190041 
L 536.264061 214.370623 
L 536.626399 215.001025 
L 537.590683 216.764621 
L 537.999774 217.033914 
L 538.251072 216.976641 
L 538.54328 216.634781 
L 539.09263 215.835507 
L 539.145227 215.899418 
L 539.343928 216.458315 
L 540.1212 218.789836 
L 540.582888 219.438055 
L 541.097173 219.776356 
L 541.804315 219.958159 
L 543.294573 220.049313 
L 551.236772 220.046472 
L 561.884812 220.060597 
L 564.123121 220.07159 
L 566.717924 220.076555 
L 568.471169 219.990287 
L 568.856882 219.70671 
L 569.271817 219.110587 
L 569.669219 218.119394 
L 570.142595 216.210902 
L 571.025062 212.651608 
L 571.732204 210.044528 
L 572.001035 207.693332 
L 572.223112 203.688518 
L 572.392593 196.114533 
L 572.544541 176.771981 
L 572.714021 166.427833 
L 572.871813 166.369764 
L 573.1348 166.482 
L 573.263371 166.847305 
L 573.37441 167.981428 
L 573.497137 172.224335 
L 574.227656 205.820872 
L 574.625058 212.839066 
L 575.016616 216.251686 
L 575.396486 217.831037 
L 575.747135 218.463059 
L 576.056874 218.628133 
L 576.354926 218.523491 
L 576.752328 218.137821 
L 577.28999 217.233639 
L 577.780898 216.03964 
L 579.089988 211.853794 
L 579.38804 210.036005 
L 579.65687 206.90043 
L 579.855572 201.573079 
L 580.007519 190.773853 
L 580.317259 166.377915 
L 580.603623 166.406804 
L 580.749726 166.606529 
L 580.866609 167.273334 
L 580.977648 169.594739 
L 581.164661 180.408675 
L 581.591284 200.885563 
L 581.99453 210.461504 
L 582.391932 215.129325 
L 582.771802 217.280902 
L 583.116607 218.139759 
L 583.40297 218.35531 
L 583.654269 218.277963 
L 583.964008 217.917331 
L 584.408164 216.987155 
L 584.963358 215.409504 
L 585.50102 213.166508 
L 585.997772 210.126813 
L 586.254915 207.021482 
L 586.453616 201.561635 
L 586.611408 190.182164 
L 586.915304 166.37911 
L 587.189979 166.398254 
L 587.341927 166.582739 
L 587.45881 167.184517 
L 587.569849 169.244861 
L 587.733485 178.115044 
L 588.183484 200.489776 
L 588.586731 210.264646 
L 588.984133 215.043508 
L 589.369847 217.28754 
L 589.732184 218.246605 
L 590.047768 218.5416 
L 590.304911 218.508967 
L 590.608806 218.198811 
L 590.971144 217.51095 
L 591.339325 216.283894 
L 591.649065 214.444969 
L 591.976337 210.963977 
L 592.245168 205.697882 
L 592.443869 197.146272 
L 592.601661 178.989939 
L 592.788674 166.433515 
L 592.946466 166.371649 
L 593.203609 166.485319 
L 593.326336 166.833232 
L 593.437375 167.960266 
L 593.560102 172.262597 
L 594.273088 205.439741 
L 594.67049 212.644625 
L 595.062048 216.143566 
L 595.436074 217.726395 
L 595.775034 218.331838 
L 596.043865 218.439985 
L 596.295164 218.286062 
L 596.645813 217.76933 
L 597.206851 216.483699 
L 597.534123 215.318855 
L 597.662695 213.354099 
L 597.791266 207.344595 
L 597.902305 189.641508 
L 598.095162 166.401706 
L 598.264642 166.367985 
L 598.469187 166.49655 
L 598.568538 166.935644 
L 598.667888 168.74329 
L 598.82568 177.723506 
L 599.263991 199.907806 
L 599.661394 209.718786 
L 600.023731 213.90904 
L 600.269185 214.828542 
L 600.356847 214.746097 
L 600.479575 214.157807 
L 600.649055 212.006788 
L 600.847756 206.143135 
L 601.081522 191.816663 
L 601.478924 166.448677 
L 601.660093 166.432586 
L 601.829573 166.622939 
L 601.958144 167.181597 
L 602.080871 168.902285 
L 602.226975 174.919913 
L 602.823078 203.021103 
L 603.214636 211.012249 
L 603.547753 214.049182 
L 603.799051 214.752576 
L 603.945155 214.7346 
L 604.102947 214.401901 
L 604.348401 213.245235 
L 604.745804 210.194813 
L 605.014634 206.331045 
L 605.213336 199.932127 
L 605.365283 186.790042 
L 605.616582 166.414345 
L 605.791906 166.3768 
L 606.019828 166.507808 
L 606.142555 166.910393 
L 606.24775 168.188243 
L 606.376321 173.48652 
L 606.96658 202.581717 
L 607.363982 211.052343 
L 607.732164 214.793254 
L 608.041904 216.067148 
L 608.269826 216.298152 
L 608.410085 216.167622 
L 608.579566 215.622187 
L 608.766578 214.145885 
L 608.953591 210.576475 
L 609.117227 202.556997 
L 609.269175 182.034014 
L 609.456188 166.481123 
L 609.608136 166.387049 
L 609.818525 166.506401 
L 609.941252 166.880415 
L 610.058135 168.145547 
L 610.186707 172.719082 
L 610.899693 205.290651 
L 611.285407 212.086498 
L 611.624367 214.771136 
L 611.846445 215.253802 
L 611.945796 215.125926 
L 612.109432 214.430445 
L 612.325665 212.414895 
L 612.582808 207.525814 
L 612.857483 197.875342 
L 613.062028 181.810684 
L 613.301638 166.497904 
L 613.45943 166.392041 
L 613.687352 166.503268 
L 613.821768 166.845632 
L 613.944495 167.868555 
L 614.073066 171.330376 
L 615.072415 210.32715 
L 615.440597 214.323148 
L 615.721116 215.454297 
L 615.843843 215.498135 
L 615.86722 215.476097 
L 616.007479 215.140212 
L 616.20618 213.989121 
L 616.434102 211.152551 
L 616.667868 205.145171 
L 616.854881 194.082149 
L 617.252283 166.382641 
L 617.509426 166.453483 
L 617.637997 166.720757 
L 617.749036 167.570533 
L 617.865919 170.674749 
L 618.2341 191.865095 
L 618.637347 205.823952 
L 619.02306 212.398512 
L 619.367865 215.042154 
L 619.61332 215.617885 
L 619.736047 215.552912 
L 619.887995 215.128741 
L 620.09254 213.778562 
L 620.308773 210.686241 
L 620.513319 204.307423 
L 620.688643 190.80468 
L 620.992539 166.410203 
L 621.19124 166.394165 
L 621.372408 166.550079 
L 621.489291 167.007149 
L 621.60033 168.529545 
L 621.74059 174.615572 
L 622.301628 202.10253 
L 622.693186 210.655494 
L 623.061368 214.439393 
L 623.353575 215.591307 
L 623.523055 215.686709 
L 623.534744 215.679062 
L 623.675003 215.435127 
L 623.86786 214.567109 
L 624.095782 212.370978 
L 624.341236 207.651884 
L 624.528249 199.469137 
L 624.691885 180.524363 
L 624.884742 166.469626 
L 625.03669 166.382163 
L 625.270456 166.497745 
L 625.399027 166.86767 
L 625.51591 168.090319 
L 625.644482 172.608174 
L 626.363312 205.405436 
L 626.75487 212.2452 
L 627.146428 215.57811 
L 627.479545 216.8036 
L 627.707466 217.002157 
L 627.847726 216.855536 
L 628.02305 216.272078 
L 628.215907 214.738663 
L 628.414608 211.080833 
L 628.584089 203.189125 
L 628.724348 184.317529 
L 628.917205 166.428763 
L 629.074997 166.370534 
L 629.326296 166.487363 
L 629.449023 166.870166 
L 629.560062 168.14491 
L 629.688633 173.159848 
L 630.313957 203.480694 
L 630.711359 211.633517 
L 631.097073 215.489877 
L 631.418501 216.850279 
L 631.564605 216.961639 
L 631.587982 216.945123 
L 631.710709 216.677397 
L 631.886033 215.640641 
L 632.073046 213.06091 
L 632.242526 207.125832 
L 632.382786 192.519553 
L 632.634084 166.392572 
L 632.83863 166.374251 
L 633.049019 166.515216 
L 633.171746 166.96355 
L 633.282785 168.425938 
L 633.4172 174.179798 
L 633.984083 202.236671 
L 634.381485 211.00808 
L 634.767199 215.166392 
L 635.094471 216.674769 
L 635.299016 216.868069 
L 635.421744 216.689611 
L 635.597068 215.939353 
L 635.801613 213.921466 
L 635.99447 209.515768 
L 636.16395 199.701814 
L 636.327587 173.503354 
L 636.479535 166.413097 
L 636.649015 166.370215 
L 636.900313 166.494373 
L 637.02304 166.863077 
L 637.139923 168.125686 
L 637.262651 172.566433 
L 637.963948 205.173157 
L 638.361351 212.414523 
L 638.723688 215.534379 
L 639.010051 216.478097 
L 639.173687 216.52374 
L 639.179532 216.518907 
L 639.325635 216.24295 
L 639.530181 215.285718 
L 639.758102 213.022197 
L 639.962648 208.535328 
L 640.126284 199.477952 
L 640.278232 175.161485 
L 640.436024 166.409725 
L 640.605504 166.368224 
L 640.862647 166.485345 
L 640.991218 166.860156 
L 641.108101 168.103064 
L 641.230828 172.465296 
L 641.943814 205.424554 
L 642.341216 212.538203 
L 642.703554 215.587881 
L 642.984073 216.457731 
L 643.124332 216.469467 
L 643.136021 216.457598 
L 643.287969 216.122802 
L 643.504202 215.002246 
L 643.755501 212.352949 
L 643.971734 207.570501 
L 644.141214 198.298477 
L 644.299006 173.905301 
L 644.450954 166.412964 
L 644.620435 166.368516 
L 644.883421 166.487257 
L 645.011993 166.868918 
L 645.128876 168.136254 
L 645.257447 172.827442 
L 645.941212 204.820544 
L 646.338615 212.235615 
L 646.706796 215.480425 
L 647.004848 216.521509 
L 647.203549 216.638445 
L 647.373029 216.447588 
L 647.606795 215.77842 
L 647.858093 214.312367 
L 648.109392 211.413293 
L 648.313937 206.215172 
L 648.465885 195.597642 
L 648.816534 166.369126 
L 649.132118 166.442702 
L 649.266533 166.720013 
L 649.383416 167.603883 
L 649.500299 170.646285 
L 649.804195 188.610912 
L 650.207441 204.258966 
L 650.604844 211.935947 
L 650.978869 215.372039 
L 651.300297 216.603317 
L 651.528219 216.824603 
L 651.680167 216.696541 
L 651.861336 216.185412 
L 652.083413 214.80114 
L 652.287959 211.958091 
L 652.469127 205.810596 
L 652.609387 192.5148 
L 652.878218 166.384075 
L 653.123672 166.381393 
L 653.304841 166.536697 
L 653.421724 167.023399 
L 653.532762 168.679353 
L 653.673022 175.229034 
L 654.193151 201.284085 
L 654.590553 210.504677 
L 654.976267 214.895268 
L 655.321072 216.667015 
L 655.578215 217.095462 
L 655.724318 217.024833 
L 655.887955 216.608654 
L 656.010682 215.707101 
L 656.150941 212.683683 
L 656.279513 203.924859 
L 656.425616 172.303726 
L 656.565876 166.398095 
L 656.747045 166.376216 
L 656.928213 166.515031 
L 657.033408 166.969153 
L 657.138603 168.752769 
L 657.29055 176.859843 
L 657.746394 200.012926 
L 658.143796 209.770669 
L 658.506133 213.979987 
L 658.763276 215.02694 
L 658.83925 215.013186 
L 658.862627 214.974367 
L 658.985354 214.470379 
L 659.178211 212.518024 
L 659.447042 207.244945 
L 659.739249 196.70678 
L 659.973015 180.007578 
L 660.212625 166.508446 
L 660.370417 166.394802 
L 660.598339 166.504941 
L 660.738599 166.872184 
L 660.861326 167.95862 
L 660.989897 171.649533 
L 661.913273 209.192256 
L 662.281454 213.73884 
L 662.58535 215.221727 
L 662.778207 215.386403 
L 662.918466 215.205583 
L 663.111323 214.531821 
L 663.350933 212.774465 
L 663.578855 209.276957 
L 663.771712 202.514089 
L 663.929504 188.155913 
L 664.186647 166.418752 
L 664.361971 166.38288 
L 664.560672 166.51835 
L 664.677555 166.937795 
L 664.788594 168.376339 
L 664.923009 174.055799 
L 665.50158 202.373681 
L 665.898982 210.902164 
L 666.273008 214.726953 
L 666.57106 215.934228 
L 666.705475 216.006609 
L 666.728852 215.988076 
L 666.857423 215.704685 
L 667.032747 214.675362 
L 667.231448 211.994521 
L 667.435994 205.872648 
L 667.617162 193.133121 
L 667.967811 166.413309 
L 668.172356 166.412008 
L 668.341837 166.601086 
L 668.464564 167.175516 
L 668.581447 169.077264 
L 668.739239 176.749492 
L 669.230148 200.958954 
L 669.62755 210.264911 
L 669.995731 214.35809 
L 670.252874 215.350983 
L 670.352224 215.347 
L 670.375601 215.315987 
L 670.51586 214.882151 
L 670.72625 213.375712 
L 671.006769 209.499624 
L 671.2756 202.576964 
L 671.468457 191.145106 
L 671.836638 166.396714 
L 672.076248 166.421567 
L 672.23404 166.639162 
L 672.356767 167.309578 
L 672.47365 169.487442 
L 672.643131 178.305131 
L 673.104819 200.761724 
L 673.502221 210.077028 
L 673.864558 214.042119 
L 674.168454 215.359002 
L 674.372999 215.536211 
L 674.507414 215.351089 
L 674.706115 214.597936 
L 674.963258 212.643191 
L 675.214556 208.922273 
L 675.401569 202.592603 
L 675.559361 188.158383 
L 675.816504 166.426798 
L 675.985984 166.387315 
L 676.172997 166.523952 
L 676.295724 166.97741 
L 676.406763 168.428328 
L 676.541178 174.008005 
L 677.131437 202.703061 
L 677.52884 211.116387 
L 677.891177 214.748195 
L 678.17754 215.830515 
L 678.300267 215.875973 
L 678.323644 215.853138 
L 678.452215 215.516562 
L 678.62754 214.296277 
L 678.837929 210.996185 
L 679.071695 203.277915 
L 679.258708 189.271477 
L 679.562604 166.437233 
L 679.737928 166.397882 
L 679.936629 166.548646 
L 680.0652 166.996422 
L 680.182083 168.35446 
L 680.316499 173.287033 
L 681.000264 204.758306 
L 681.391822 211.941629 
L 681.730783 214.714819 
L 681.964549 215.26198 
L 682.087276 215.178712 
L 682.256756 214.686753 
L 682.508055 213.140407 
L 682.835327 209.614383 
L 683.063249 204.646256 
L 683.238574 195.134837 
L 683.665196 166.3768 
L 683.922339 166.476158 
L 684.039222 166.797333 
L 684.150261 167.953044 
L 684.272988 172.449949 
L 684.950909 204.497192 
L 685.114545 208.220526 
L 685.114545 208.220526 
" clip-path="url(#pa99b7f646c)" style="fill: none; stroke: #d62728; stroke-width: 1.5; stroke-linecap: square"/>
   </g>
   <g id="line2d_18">
    <path d="M 100.705455 220.244657 
L 129.86776 220.244657 
L 129.86776 220.244657 
" clip-path="url(#pa99b7f646c)" style="fill: none; stroke-dasharray: 2.96,1.28; stroke-dashoffset: 0; stroke: #808080; stroke-opacity: 0.7; stroke-width: 0.8"/>
   </g>
   <g id="line2d_19">
    <path d="M 100.705455 159.942886 
L 101.359999 162.962773 
L 101.774934 163.773411 
L 102.230778 164.199202 
L 102.809348 164.425612 
L 103.785321 164.533839 
L 106.602201 164.550726 
L 159.766428 164.441491 
L 160.707336 164.188448 
L 161.566426 164.298879 
L 163.214476 164.456174 
L 167.328757 164.457342 
L 179.858613 164.454448 
L 183.72744 164.431374 
L 186.392372 164.445473 
L 191.131977 164.442393 
L 193.533923 164.444305 
L 197.443659 164.475318 
L 202.872873 164.413584 
L 204.345599 164.45782 
L 206.928713 164.464086 
L 212.013123 164.44558 
L 214.789094 164.443137 
L 216.817014 164.479726 
L 218.52935 164.536335 
L 221.726099 164.55593 
L 234.086475 164.554683 
L 247.148149 164.505349 
L 247.352694 164.268742 
L 247.545551 163.633375 
L 247.755941 162.045899 
L 247.96633 158.545896 
L 248.176719 150.735172 
L 248.369576 134.448166 
L 248.65594 110.736398 
L 248.837108 110.700075 
L 249.047498 110.842899 
L 249.176069 111.285099 
L 249.292952 112.688966 
L 249.427367 117.933395 
L 250.058535 148.053772 
L 250.455938 156.057212 
L 250.835807 159.771625 
L 251.16308 161.125361 
L 251.43191 161.463795 
L 251.724118 161.482435 
L 252.250091 161.249148 
L 252.583208 160.871071 
L 252.887104 160.145692 
L 253.167623 158.854007 
L 253.401389 156.626571 
L 253.60009 152.413907 
L 253.76957 143.416406 
L 253.927362 120.045277 
L 254.090998 110.743381 
L 254.254635 110.690941 
L 254.476712 110.812683 
L 254.593595 111.200822 
L 254.704634 112.606655 
L 254.833205 118.05673 
L 255.411776 146.718064 
L 255.809178 155.395319 
L 256.194892 159.52761 
L 256.539697 161.179581 
L 256.79684 161.572527 
L 256.960476 161.508058 
L 257.182553 161.106376 
L 257.568267 159.862752 
L 258.608526 155.372777 
L 258.871513 153.0433 
L 259.070214 148.99749 
L 259.228006 140.402786 
L 259.654629 110.685152 
L 259.929304 110.792742 
L 260.052031 111.137416 
L 260.16307 112.319732 
L 260.285797 116.921916 
L 260.946186 148.537181 
L 261.343588 156.305077 
L 261.729302 159.982183 
L 262.079951 161.499721 
L 262.378002 161.97766 
L 262.611768 162.004849 
L 262.851378 161.780271 
L 263.114365 161.199548 
L 263.424105 159.888959 
L 263.862416 156.962005 
L 264.154624 153.412933 
L 264.382545 147.693406 
L 264.55787 137.211346 
L 264.93774 110.692083 
L 265.224103 110.758304 
L 265.358518 111.025844 
L 265.475401 111.917386 
L 265.592284 115.097568 
L 266.568257 154.522337 
L 266.953971 159.134584 
L 267.292932 160.967243 
L 267.538386 161.357162 
L 267.690334 161.271266 
L 267.912412 160.807452 
L 268.280593 159.444634 
L 269.005268 155.700192 
L 269.320852 152.783673 
L 269.566306 148.339792 
L 269.74163 140.790421 
L 269.893578 122.520817 
L 270.068903 110.754586 
L 270.226695 110.686931 
L 270.483837 110.798636 
L 270.612409 111.166039 
L 270.723447 112.307411 
L 270.846175 116.567471 
L 271.570849 149.971079 
L 271.968251 157.009082 
L 272.342277 160.196831 
L 272.675393 161.41563 
L 272.93838 161.704411 
L 273.142925 161.63835 
L 273.405912 161.274824 
L 273.674743 160.499659 
L 273.93773 158.959128 
L 274.218249 155.849468 
L 274.452015 150.653231 
L 274.633183 141.212415 
L 274.802664 117.822487 
L 274.960456 110.736823 
L 275.129936 110.690144 
L 275.363702 110.818073 
L 275.486429 111.212691 
L 275.597468 112.485762 
L 275.726039 117.442578 
L 276.363052 148.086936 
L 276.760454 156.118043 
L 277.152012 160.034173 
L 277.526037 161.803557 
L 277.876686 162.530184 
L 278.221491 162.780917 
L 278.677335 162.818462 
L 279.723437 162.622692 
L 280.442268 162.263893 
L 280.968241 162.140133 
L 282.411746 162.238057 
L 282.96694 162.460326 
L 283.685771 162.750329 
L 283.995511 162.609443 
L 284.766938 161.839217 
L 286.490962 160.33546 
L 286.753949 160.420241 
L 287.320832 160.939708 
L 288.150701 161.62972 
L 289.728621 162.448244 
L 290.143556 162.332397 
L 291.803294 161.530362 
L 292.20654 161.65359 
L 293.404591 162.127282 
L 293.948097 161.867654 
L 294.433161 161.728866 
L 295.864978 161.94431 
L 296.98121 162.239465 
L 297.717573 162.035039 
L 298.582507 161.836668 
L 298.997442 161.957294 
L 300.142895 162.435951 
L 300.452635 162.202185 
L 301.089647 161.376439 
L 301.598088 160.914006 
L 301.977958 160.840881 
L 302.387049 160.991034 
L 302.860425 161.397999 
L 303.579255 162.008275 
L 304.09354 162.156064 
L 304.607825 162.100464 
L 305.268214 161.767898 
L 305.361721 161.419666 
L 305.484448 159.927512 
L 305.613019 155.214287 
L 305.729902 141.363869 
L 305.987045 110.706235 
L 306.203278 110.705067 
L 306.372758 110.868973 
L 306.495486 111.385705 
L 306.612369 113.046412 
L 306.758472 119.220459 
L 307.337043 146.702452 
L 307.705225 154.154854 
L 307.938991 155.642122 
L 307.997432 155.54125 
L 308.102627 154.743862 
L 308.254575 151.566945 
L 308.412367 142.836081 
L 308.599379 115.919943 
L 308.751327 110.750019 
L 308.920808 110.699889 
L 309.148729 110.830924 
L 309.283145 111.227348 
L 309.405872 112.453555 
L 309.540287 116.782862 
L 310.340936 151.249992 
L 310.691585 156.311476 
L 310.866909 157.048432 
L 310.890286 157.033271 
L 310.96626 156.734214 
L 311.083143 155.183699 
L 311.223402 149.68328 
L 311.357818 133.771881 
L 311.58574 110.745904 
L 311.749376 110.693968 
L 311.988986 110.820861 
L 312.123401 111.2214 
L 312.246129 112.489506 
L 312.380544 116.96594 
L 313.146128 150.625458 
L 313.502621 156.163766 
L 313.695478 157.093279 
L 313.71301 157.085101 
L 313.78314 156.848839 
L 313.900023 155.478375 
L 314.040282 150.699114 
L 314.174698 136.920652 
L 314.43184 110.728247 
L 314.613009 110.699145 
L 314.817554 110.840297 
L 314.946126 111.27554 
L 315.068853 112.663795 
L 315.209112 117.632001 
L 315.922099 149.564167 
L 316.29028 155.754544 
L 316.500669 156.862859 
L 316.512358 156.856168 
L 316.582487 156.60894 
L 316.69937 155.109246 
L 316.833786 150.039265 
L 316.968201 134.723246 
L 317.201967 110.735097 
L 317.371448 110.694313 
L 317.593525 110.8288 
L 317.722097 111.237544 
L 317.844824 112.594573 
L 317.979239 117.358036 
L 318.692225 149.632114 
L 319.066251 156.11661 
L 319.329238 157.79962 
L 319.370147 157.805223 
L 319.405212 157.735815 
L 319.504562 157.061761 
L 319.638978 154.329037 
L 319.779237 146.098628 
L 319.931185 119.683291 
L 320.088977 110.7407 
L 320.252613 110.692029 
L 320.492223 110.818763 
L 320.620795 111.191423 
L 320.743522 112.4244 
L 320.872093 116.566701 
L 321.68443 151.455479 
L 322.040923 156.590805 
L 322.245468 157.481551 
L 322.257156 157.474568 
L 322.327286 157.256707 
L 322.444169 155.986159 
L 322.584429 151.515832 
L 322.718844 138.652652 
L 322.999363 110.7112 
L 323.215597 110.707722 
L 323.396766 110.87585 
L 323.525337 111.393299 
L 323.648064 113.09625 
L 323.794168 119.214804 
L 324.378583 146.92711 
L 324.764296 154.840352 
L 325.056504 157.237192 
L 325.132478 157.335674 
L 325.179231 157.257743 
L 325.284426 156.585203 
L 325.424685 153.984681 
L 325.564945 146.730278 
L 325.705205 124.839805 
L 325.874685 110.75987 
L 326.026633 110.687728 
L 326.295464 110.804292 
L 326.424035 111.178014 
L 326.540918 112.415452 
L 326.669489 116.881636 
L 327.400008 149.888343 
L 327.768189 156.0399 
L 328.025332 157.538267 
L 328.072085 157.532133 
L 328.101306 157.47271 
L 328.2065 156.813764 
L 328.34676 154.196143 
L 328.48702 146.643692 
L 328.627279 123.564052 
L 328.790915 110.756764 
L 328.942863 110.688073 
L 329.211694 110.801531 
L 329.34611 111.157383 
L 329.462993 112.23965 
L 329.58572 115.949522 
L 330.462342 152.552244 
L 330.795459 156.675055 
L 330.953251 157.179122 
L 330.982471 157.150366 
L 331.070134 156.778503 
L 331.204549 155.068621 
L 331.356497 149.884678 
L 331.496757 136.401929 
L 331.765587 110.717387 
L 331.964288 110.697287 
L 332.180522 110.847333 
L 332.314937 111.297207 
L 332.437665 112.678505 
L 332.57208 117.356071 
L 333.308443 150.063614 
L 333.67078 155.92161 
L 333.881169 156.924301 
L 333.887014 156.921858 
L 333.957143 156.734373 
L 334.074026 155.586017 
L 334.214286 151.650186 
L 334.348701 140.658749 
L 334.664285 111.824666 
L 334.746104 111.864999 
L 334.757792 111.886453 
L 334.868831 112.371084 
L 334.985714 114.113252 
L 335.125973 120.580622 
L 335.634414 145.849622 
L 336.037661 155.174272 
L 336.440907 159.851679 
L 336.844153 162.197353 
L 337.253244 163.385643 
L 337.679867 163.993475 
L 338.176619 164.317678 
L 338.872073 164.486311 
L 340.210383 164.544593 
L 393.322013 164.436525 
L 393.485649 164.069548 
L 393.649285 163.032791 
L 393.818765 160.228322 
L 393.982401 153.152908 
L 394.128505 135.573076 
L 394.362271 110.744311 
L 394.525907 110.693198 
L 394.753829 110.823171 
L 394.8824 111.235287 
L 394.999283 112.519988 
L 395.133699 117.228488 
L 395.858373 149.884944 
L 396.238243 156.337736 
L 396.530451 158.292084 
L 396.629801 158.397151 
L 396.67071 158.350392 
L 396.787593 157.893323 
L 396.957073 156.15203 
L 397.144086 151.671853 
L 397.307722 141.586456 
L 397.716813 110.688896 
L 398.00902 110.785334 
L 398.143436 111.094375 
L 398.266163 112.065893 
L 398.38889 115.270715 
L 398.704474 133.430234 
L 399.113565 148.892237 
L 399.499278 156.034723 
L 399.820707 158.584582 
L 399.990187 158.900394 
L 400.007719 158.89134 
L 400.10707 158.675656 
L 400.259018 157.695509 
L 400.446031 154.820358 
L 400.615511 148.441248 
L 400.755771 133.300368 
L 400.989536 110.718847 
L 401.170705 110.686772 
L 401.410315 110.813134 
L 401.538887 111.200159 
L 401.65577 112.39668 
L 401.784341 116.691363 
L 402.549924 150.723117 
L 402.929794 156.853194 
L 403.245378 159.004266 
L 403.379794 159.208771 
L 403.414858 159.181051 
L 403.520053 158.849095 
L 403.672001 157.454627 
L 403.829793 153.693802 
L 403.970053 144.013937 
L 404.349922 110.681754 
L 404.653818 110.778244 
L 404.776545 111.101544 
L 404.887584 112.198123 
L 405.010311 116.439436 
L 405.734986 149.842885 
L 406.1207 156.546888 
L 406.442128 158.935788 
L 406.594076 159.197301 
L 406.623296 159.177626 
L 406.728491 158.885233 
L 406.880439 157.637997 
L 407.044075 154.125275 
L 407.184335 145.590287 
L 407.324594 119.214618 
L 407.476542 110.714864 
L 407.651867 110.682842 
L 407.903165 110.801292 
L 408.025892 111.189246 
L 408.136931 112.514572 
L 408.265502 117.717526 
L 408.873294 147.317613 
L 409.264852 155.430873 
L 409.615501 158.74355 
L 409.849267 159.412453 
L 409.942773 159.330301 
L 410.077189 158.779582 
L 410.246669 156.950773 
L 410.410305 152.387727 
L 410.544721 141.489222 
L 410.866149 110.68579 
L 411.175889 110.75363 
L 411.30446 111.02117 
L 411.421343 111.941682 
L 411.538226 115.167879 
L 412.508355 154.198639 
L 412.864848 158.20555 
L 413.110302 159.113422 
L 413.197964 159.038386 
L 413.314847 158.488331 
L 413.466795 156.509582 
L 413.612899 151.366503 
L 413.74147 137.458228 
L 413.992769 110.70119 
L 414.220691 110.694738 
L 414.401859 110.847333 
L 414.518742 111.330132 
L 414.629781 112.944717 
L 414.770041 119.27298 
L 415.307702 145.904266 
L 415.69926 154.737091 
L 416.055754 158.470727 
L 416.289519 159.223906 
L 416.371338 159.124574 
L 416.494065 158.467169 
L 416.646013 156.172263 
L 416.792116 149.925516 
L 416.920688 132.730239 
L 417.131077 110.723308 
L 417.300557 110.685099 
L 417.540167 110.805965 
L 417.662895 111.196654 
L 417.773933 112.444235 
L 417.902505 117.14753 
L 418.58627 149.009332 
L 418.971984 156.144702 
L 419.305101 158.879285 
L 419.503802 159.312856 
L 419.51549 159.307572 
L 419.608996 159.117777 
L 419.7551 158.166784 
L 419.92458 155.380211 
L 420.082372 148.681997 
L 420.216788 131.877781 
L 420.427177 110.728751 
L 420.590813 110.685604 
L 420.842112 110.809656 
L 420.964839 111.18505 
L 421.081722 112.454484 
L 421.210293 117.095408 
L 421.905747 149.288529 
L 422.303149 156.552304 
L 422.71224 160.430623 
L 423.115486 162.36264 
L 423.530421 163.362118 
L 423.974576 163.889895 
L 424.506393 164.176208 
L 425.213536 164.294869 
L 426.125223 164.221267 
L 427.294053 164.153028 
L 430.192751 164.305411 
L 431.612879 164.229631 
L 434.52911 164.264308 
L 436.159627 164.293967 
L 445.34663 164.266644 
L 447.491433 164.26067 
L 448.999223 164.259502 
L 450.770001 164.218027 
L 451.605714 164.178836 
L 451.816103 163.818178 
L 452.032337 162.940256 
L 452.242726 161.002903 
L 452.429739 156.979874 
L 452.587531 147.949024 
L 452.733635 122.790082 
L 452.897271 110.743222 
L 453.055063 110.688153 
L 453.300517 110.810001 
L 453.423244 111.18197 
L 453.540127 112.464866 
L 453.668699 117.246623 
L 454.334932 148.68675 
L 454.732334 156.296209 
L 455.094671 159.573466 
L 455.363502 160.452874 
L 455.468697 160.445094 
L 455.486229 160.421834 
L 455.6148 160.023844 
L 455.784281 158.646396 
L 455.959605 155.103936 
L 456.111553 146.831177 
L 456.251813 123.850736 
L 456.421293 110.740354 
L 456.579085 110.686666 
L 456.830384 110.803788 
L 456.953111 111.160171 
L 457.064149 112.29456 
L 457.186877 116.440047 
L 457.946616 150.640832 
L 458.338174 157.170413 
L 458.694667 159.919334 
L 458.963498 160.633509 
L 459.097913 160.59753 
L 459.238173 160.234243 
L 459.419342 159.03212 
L 459.606354 156.118575 
L 459.769991 149.701946 
L 459.91025 133.538886 
L 460.138172 110.725432 
L 460.313497 110.689215 
L 460.547263 110.820781 
L 460.66999 111.217975 
L 460.786873 112.586661 
L 460.915444 117.532245 
L 461.564144 148.289529 
L 461.955703 155.964147 
L 462.312196 159.234314 
L 462.575182 160.0804 
L 462.692065 160.069328 
L 462.703754 160.054432 
L 462.838169 159.681878 
L 463.025182 158.40724 
L 463.24726 155.155208 
L 463.440116 148.711178 
L 463.592064 135.038447 
L 463.860895 110.716564 
L 464.059596 110.695481 
L 464.269986 110.840509 
L 464.398557 111.290648 
L 464.51544 112.722661 
L 464.649855 118.016822 
L 465.275179 147.87096 
L 465.666737 155.794983 
L 466.017386 159.097252 
L 466.251152 159.758136 
L 466.344659 159.656202 
L 466.479074 159.045396 
L 466.654399 157.026022 
L 466.829723 152.150616 
L 466.981671 140.952469 
L 467.33232 110.695109 
L 467.606995 110.752967 
L 467.747255 111.007098 
L 467.869982 111.818161 
L 467.992709 114.611849 
L 468.214786 127.403366 
L 468.635565 146.266385 
L 469.032967 155.08973 
L 469.38946 158.80539 
L 469.640759 159.66762 
L 469.740109 159.616852 
L 469.745954 159.606231 
L 469.874525 159.117564 
L 470.049849 157.397593 
L 470.24855 152.901272 
L 470.412187 143.709436 
L 470.569979 118.915322 
L 470.727771 110.733106 
L 470.897251 110.688498 
L 471.148549 110.81648 
L 471.277121 111.190759 
L 471.394004 112.3611 
L 471.516731 116.417345 
L 472.299847 151.150156 
L 472.685561 157.303068 
L 473.018677 159.64667 
L 473.240755 160.061282 
L 473.357638 159.951542 
L 473.527118 159.398938 
L 473.749196 157.83366 
L 473.953741 154.630696 
L 474.123221 147.961875 
L 474.263481 131.82311 
L 474.479715 110.728778 
L 474.649195 110.685312 
L 474.900493 110.802354 
L 475.029065 111.182634 
L 475.145948 112.435897 
L 475.274519 117.076822 
L 475.964128 149.158582 
L 476.349842 156.232218 
L 476.688803 159.021233 
L 476.928413 159.622879 
L 477.045296 159.549861 
L 477.1914 159.093004 
L 477.384257 157.647795 
L 477.582958 154.212579 
L 477.752438 146.810015 
L 477.892698 129.278933 
L 478.097243 110.735867 
L 478.260879 110.685922 
L 478.518022 110.801185 
L 478.640749 111.145249 
L 478.757632 112.337123 
L 478.880359 116.538768 
L 479.62841 150.383275 
L 480.014124 156.892332 
L 480.347241 159.381759 
L 480.563474 159.793769 
L 480.621916 159.854919 
L 480.62776 159.870611 
L 480.820617 160.767385 
L 481.323213 162.830808 
L 481.749836 163.697578 
L 482.20568 164.145726 
L 482.778407 164.386129 
L 483.701782 164.499401 
L 486.676454 164.523563 
L 508.708897 164.534556 
L 539.291331 164.424656 
L 539.548473 164.157488 
L 539.799772 163.539194 
L 540.080291 162.155453 
L 540.378343 159.512369 
L 540.623797 155.212667 
L 540.81081 147.658649 
L 540.962758 130.702263 
L 541.178991 110.739797 
L 541.342627 110.687144 
L 541.59977 110.808169 
L 541.728341 111.189352 
L 541.845224 112.450979 
L 541.973795 117.18388 
L 542.645873 148.858543 
L 543.043275 156.41033 
L 543.411456 159.744302 
L 543.721196 160.875903 
L 543.931585 161.024569 
L 544.077689 160.85121 
L 544.27639 160.18313 
L 544.504312 158.520884 
L 544.714701 155.14849 
L 544.890026 148.180161 
L 545.030286 132.372263 
L 545.258207 110.722777 
L 545.433532 110.687781 
L 545.667298 110.814701 
L 545.790025 111.196707 
L 545.906908 112.502942 
L 546.035479 117.335466 
L 546.695868 148.590419 
L 547.09327 156.263151 
L 547.467296 159.708537 
L 547.794568 160.990556 
L 548.010802 161.176554 
L 548.16275 161.017161 
L 548.361451 160.418515 
L 548.601061 158.903633 
L 548.834827 155.827775 
L 549.033528 150.02105 
L 549.185476 138.394724 
L 549.506904 110.692295 
L 549.793267 110.734062 
L 549.927683 110.950382 
L 550.038722 111.634844 
L 550.14976 114.017717 
L 550.342617 125.11401 
L 550.76924 145.340696 
L 551.166642 154.665639 
L 551.540668 158.921291 
L 551.856252 160.410497 
L 552.054953 160.594264 
L 552.189368 160.40962 
L 552.382225 159.66138 
L 552.604303 157.808303 
L 552.820537 153.889147 
L 552.995861 146.250427 
L 553.141965 128.653044 
L 553.34651 110.744709 
L 553.504302 110.688179 
L 553.755601 110.809948 
L 553.878328 111.170925 
L 553.995211 112.398167 
L 554.117938 116.698692 
L 554.848456 150.107212 
L 555.245859 157.046812 
L 555.61404 160.107749 
L 555.917936 161.12483 
L 556.081572 161.187148 
L 556.087416 161.182661 
L 556.227676 160.916767 
L 556.408844 160.004992 
L 556.625078 157.626128 
L 556.823779 152.721249 
L 556.981571 142.798324 
L 557.396506 110.687356 
L 557.671181 110.787617 
L 557.799752 111.116971 
L 557.916635 112.211717 
L 558.039362 116.191226 
L 558.828322 151.24277 
L 559.21988 157.513414 
L 559.582217 160.221604 
L 559.862737 160.98652 
L 560.020529 160.984555 
L 560.178321 160.670575 
L 560.394554 159.668124 
L 560.634164 157.392044 
L 560.850398 153.030555 
L 561.014034 144.737298 
L 561.160138 123.226627 
L 561.329618 110.743116 
L 561.48741 110.685338 
L 561.750397 110.802805 
L 561.873124 111.168376 
L 561.984163 112.383244 
L 562.10689 116.90179 
L 562.790655 149.087794 
L 563.188058 156.551083 
L 563.562083 159.903987 
L 563.871823 161.0345 
L 564.06468 161.151143 
L 564.199095 160.945072 
L 564.386108 160.155118 
L 564.608186 158.083144 
L 564.812731 153.870507 
L 564.976367 145.230664 
L 565.122471 122.617891 
L 565.286107 110.748506 
L 565.438055 110.686188 
L 565.695198 110.798026 
L 565.817925 111.155339 
L 565.928964 112.330671 
L 566.051691 116.700073 
L 566.758833 149.546589 
L 567.150391 156.663479 
L 567.512728 159.788644 
L 567.793247 160.695827 
L 567.921819 160.711121 
L 567.939351 160.691923 
L 568.079611 160.330575 
L 568.313377 159.167562 
L 568.406883 159.432845 
L 569.371168 163.378474 
L 569.803635 163.970481 
L 570.306231 164.286213 
L 571.013374 164.450279 
L 572.486099 164.512571 
L 606.458139 164.555851 
L 630.67045 164.556939 
L 655.250942 164.557524 
L 685.114545 164.553886 
L 685.114545 164.553886 
" clip-path="url(#pa99b7f646c)" style="fill: none; stroke: #9467bd; stroke-width: 1.5; stroke-linecap: square"/>
   </g>
   <g id="line2d_20">
    <path d="M 100.705455 164.560683 
L 129.86776 164.560683 
L 129.86776 164.560683 
" clip-path="url(#pa99b7f646c)" style="fill: none; stroke-dasharray: 2.96,1.28; stroke-dashoffset: 0; stroke: #808080; stroke-opacity: 0.7; stroke-width: 0.8"/>
   </g>
   <g id="text_7">
    <!-- Inhibitory Synaptic Variables -->
    <g transform="translate(221.390625 60.422981) scale(0.24 -0.24)">
     <defs>
      <path id="DejaVuSans-49" d="M 628 4666 
L 1259 4666 
L 1259 0 
L 628 0 
L 628 4666 
z
" transform="scale(0.015625)"/>
      <path id="DejaVuSans-68" d="M 3513 2113 
L 3513 0 
L 2938 0 
L 2938 2094 
Q 2938 2591 2744 2837 
Q 2550 3084 2163 3084 
Q 1697 3084 1428 2787 
Q 1159 2491 1159 1978 
L 1159 0 
L 581 0 
L 581 4863 
L 1159 4863 
L 1159 2956 
Q 1366 3272 1645 3428 
Q 1925 3584 2291 3584 
Q 2894 3584 3203 3211 
Q 3513 2838 3513 2113 
z
" transform="scale(0.015625)"/>
      <path id="DejaVuSans-69" d="M 603 3500 
L 1178 3500 
L 1178 0 
L 603 0 
L 603 3500 
z
M 603 4863 
L 1178 4863 
L 1178 4134 
L 603 4134 
L 603 4863 
z
" transform="scale(0.015625)"/>
      <path id="DejaVuSans-62" d="M 3116 1747 
Q 3116 2381 2855 2742 
Q 2594 3103 2138 3103 
Q 1681 3103 1420 2742 
Q 1159 2381 1159 1747 
Q 1159 1113 1420 752 
Q 1681 391 2138 391 
Q 2594 391 2855 752 
Q 3116 1113 3116 1747 
z
M 1159 2969 
Q 1341 3281 1617 3432 
Q 1894 3584 2278 3584 
Q 2916 3584 3314 3078 
Q 3713 2572 3713 1747 
Q 3713 922 3314 415 
Q 2916 -91 2278 -91 
Q 1894 -91 1617 61 
Q 1341 213 1159 525 
L 1159 0 
L 581 0 
L 581 4863 
L 1159 4863 
L 1159 2969 
z
" transform="scale(0.015625)"/>
      <path id="DejaVuSans-74" d="M 1172 4494 
L 1172 3500 
L 2356 3500 
L 2356 3053 
L 1172 3053 
L 1172 1153 
Q 1172 725 1289 603 
Q 1406 481 1766 481 
L 2356 481 
L 2356 0 
L 1766 0 
Q 1100 0 847 248 
Q 594 497 594 1153 
L 594 3053 
L 172 3053 
L 172 3500 
L 594 3500 
L 594 4494 
L 1172 4494 
z
" transform="scale(0.015625)"/>
      <path id="DejaVuSans-79" d="M 2059 -325 
Q 1816 -950 1584 -1140 
Q 1353 -1331 966 -1331 
L 506 -1331 
L 506 -850 
L 844 -850 
Q 1081 -850 1212 -737 
Q 1344 -625 1503 -206 
L 1606 56 
L 191 3500 
L 800 3500 
L 1894 763 
L 2988 3500 
L 3597 3500 
L 2059 -325 
z
" transform="scale(0.015625)"/>
      <path id="DejaVuSans-20" transform="scale(0.015625)"/>
      <path id="DejaVuSans-53" d="M 3425 4513 
L 3425 3897 
Q 3066 4069 2747 4153 
Q 2428 4238 2131 4238 
Q 1616 4238 1336 4038 
Q 1056 3838 1056 3469 
Q 1056 3159 1242 3001 
Q 1428 2844 1947 2747 
L 2328 2669 
Q 3034 2534 3370 2195 
Q 3706 1856 3706 1288 
Q 3706 609 3251 259 
Q 2797 -91 1919 -91 
Q 1588 -91 1214 -16 
Q 841 59 441 206 
L 441 856 
Q 825 641 1194 531 
Q 1563 422 1919 422 
Q 2459 422 2753 634 
Q 3047 847 3047 1241 
Q 3047 1584 2836 1778 
Q 2625 1972 2144 2069 
L 1759 2144 
Q 1053 2284 737 2584 
Q 422 2884 422 3419 
Q 422 4038 858 4394 
Q 1294 4750 2059 4750 
Q 2388 4750 2728 4690 
Q 3069 4631 3425 4513 
z
" transform="scale(0.015625)"/>
      <path id="DejaVuSans-61" d="M 2194 1759 
Q 1497 1759 1228 1600 
Q 959 1441 959 1056 
Q 959 750 1161 570 
Q 1363 391 1709 391 
Q 2188 391 2477 730 
Q 2766 1069 2766 1631 
L 2766 1759 
L 2194 1759 
z
M 3341 1997 
L 3341 0 
L 2766 0 
L 2766 531 
Q 2569 213 2275 61 
Q 1981 -91 1556 -91 
Q 1019 -91 701 211 
Q 384 513 384 1019 
Q 384 1609 779 1909 
Q 1175 2209 1959 2209 
L 2766 2209 
L 2766 2266 
Q 2766 2663 2505 2880 
Q 2244 3097 1772 3097 
Q 1472 3097 1187 3025 
Q 903 2953 641 2809 
L 641 3341 
Q 956 3463 1253 3523 
Q 1550 3584 1831 3584 
Q 2591 3584 2966 3190 
Q 3341 2797 3341 1997 
z
" transform="scale(0.015625)"/>
      <path id="DejaVuSans-70" d="M 1159 525 
L 1159 -1331 
L 581 -1331 
L 581 3500 
L 1159 3500 
L 1159 2969 
Q 1341 3281 1617 3432 
Q 1894 3584 2278 3584 
Q 2916 3584 3314 3078 
Q 3713 2572 3713 1747 
Q 3713 922 3314 415 
Q 2916 -91 2278 -91 
Q 1894 -91 1617 61 
Q 1341 213 1159 525 
z
M 3116 1747 
Q 3116 2381 2855 2742 
Q 2594 3103 2138 3103 
Q 1681 3103 1420 2742 
Q 1159 2381 1159 1747 
Q 1159 1113 1420 752 
Q 1681 391 2138 391 
Q 2594 391 2855 752 
Q 3116 1113 3116 1747 
z
" transform="scale(0.015625)"/>
      <path id="DejaVuSans-63" d="M 3122 3366 
L 3122 2828 
Q 2878 2963 2633 3030 
Q 2388 3097 2138 3097 
Q 1578 3097 1268 2742 
Q 959 2388 959 1747 
Q 959 1106 1268 751 
Q 1578 397 2138 397 
Q 2388 397 2633 464 
Q 2878 531 3122 666 
L 3122 134 
Q 2881 22 2623 -34 
Q 2366 -91 2075 -91 
Q 1284 -91 818 406 
Q 353 903 353 1747 
Q 353 2603 823 3093 
Q 1294 3584 2113 3584 
Q 2378 3584 2631 3529 
Q 2884 3475 3122 3366 
z
" transform="scale(0.015625)"/>
      <path id="DejaVuSans-56" d="M 1831 0 
L 50 4666 
L 709 4666 
L 2188 738 
L 3669 4666 
L 4325 4666 
L 2547 0 
L 1831 0 
z
" transform="scale(0.015625)"/>
      <path id="DejaVuSans-6c" d="M 603 4863 
L 1178 4863 
L 1178 0 
L 603 0 
L 603 4863 
z
" transform="scale(0.015625)"/>
     </defs>
     <use xlink:href="#DejaVuSans-49"/>
     <use xlink:href="#DejaVuSans-6e" x="29.492188"/>
     <use xlink:href="#DejaVuSans-68" x="92.871094"/>
     <use xlink:href="#DejaVuSans-69" x="156.25"/>
     <use xlink:href="#DejaVuSans-62" x="184.033203"/>
     <use xlink:href="#DejaVuSans-69" x="247.509766"/>
     <use xlink:href="#DejaVuSans-74" x="275.292969"/>
     <use xlink:href="#DejaVuSans-6f" x="314.501953"/>
     <use xlink:href="#DejaVuSans-72" x="375.683594"/>
     <use xlink:href="#DejaVuSans-79" x="416.796875"/>
     <use xlink:href="#DejaVuSans-20" x="475.976562"/>
     <use xlink:href="#DejaVuSans-53" x="507.763672"/>
     <use xlink:href="#DejaVuSans-79" x="571.240234"/>
     <use xlink:href="#DejaVuSans-6e" x="630.419922"/>
     <use xlink:href="#DejaVuSans-61" x="693.798828"/>
     <use xlink:href="#DejaVuSans-70" x="755.078125"/>
     <use xlink:href="#DejaVuSans-74" x="818.554688"/>
     <use xlink:href="#DejaVuSans-69" x="857.763672"/>
     <use xlink:href="#DejaVuSans-63" x="885.546875"/>
     <use xlink:href="#DejaVuSans-20" x="940.527344"/>
     <use xlink:href="#DejaVuSans-56" x="972.314453"/>
     <use xlink:href="#DejaVuSans-61" x="1032.972656"/>
     <use xlink:href="#DejaVuSans-72" x="1094.251953"/>
     <use xlink:href="#DejaVuSans-69" x="1135.365234"/>
     <use xlink:href="#DejaVuSans-61" x="1163.148438"/>
     <use xlink:href="#DejaVuSans-62" x="1224.427734"/>
     <use xlink:href="#DejaVuSans-6c" x="1287.904297"/>
     <use xlink:href="#DejaVuSans-65" x="1315.6875"/>
     <use xlink:href="#DejaVuSans-73" x="1377.210938"/>
    </g>
   </g>
   <g id="text_8">
    <!-- D -->
    <g transform="translate(7.2 29.995313) scale(0.3 -0.3)">
     <defs>
      <path id="DejaVuSans-44" d="M 1259 4147 
L 1259 519 
L 2022 519 
Q 2988 519 3436 956 
Q 3884 1394 3884 2338 
Q 3884 3275 3436 3711 
Q 2988 4147 2022 4147 
L 1259 4147 
z
M 628 4666 
L 1925 4666 
Q 3281 4666 3915 4102 
Q 4550 3538 4550 2338 
Q 4550 1131 3912 565 
Q 3275 0 1925 0 
L 628 0 
L 628 4666 
z
" transform="scale(0.015625)"/>
     </defs>
     <use xlink:href="#DejaVuSans-44"/>
    </g>
   </g>
  </g>
 </g>
 <defs>
  <clipPath id="pa99b7f646c">
   <rect x="71.485" y="96.85065" width="642.85" height="304.276687"/>
  </clipPath>
 </defs>
</svg>
