<?xml version="1.0" encoding="utf-8" standalone="no"?>
<!DOCTYPE svg PUBLIC "-//W3C//DTD SVG 1.1//EN"
  "http://www.w3.org/Graphics/SVG/1.1/DTD/svg11.dtd">
<svg xmlns:xlink="http://www.w3.org/1999/xlink" width="720.150547pt" height="408.327337pt" viewBox="0 0 720.150547 408.327337" xmlns="http://www.w3.org/2000/svg" version="1.1">
 <metadata>
  <rdf:RDF xmlns:dc="http://purl.org/dc/elements/1.1/" xmlns:cc="http://creativecommons.org/ns#" xmlns:rdf="http://www.w3.org/1999/02/22-rdf-syntax-ns#">
   <cc:Work>
    <dc:type rdf:resource="http://purl.org/dc/dcmitype/StillImage"/>
    <dc:date>2025-10-21T12:05:14.637913</dc:date>
    <dc:format>image/svg+xml</dc:format>
    <dc:creator>
     <cc:Agent>
      <dc:title>Matplotlib v3.8.2, https://matplotlib.org/</dc:title>
     </cc:Agent>
    </dc:creator>
   </cc:Work>
  </rdf:RDF>
 </metadata>
 <defs>
  <style type="text/css">*{stroke-linejoin: round; stroke-linecap: butt}</style>
 </defs>
 <g id="figure_1">
  <g id="patch_1">
   <path d="M 0 408.327337 
L 720.150547 408.327337 
L 720.150547 0 
L 0 0 
z
" style="fill: #ffffff"/>
  </g>
  <g id="axes_1">
   <g id="patch_2">
    <path d="M 71.359141 401.127337 
L 712.950547 401.127337 
L 712.950547 96.85065 
L 71.359141 96.85065 
z
" style="fill: #ffffff"/>
   </g>
   <g id="matplotlib.axis_1"/>
   <g id="matplotlib.axis_2">
    <g id="ytick_1">
     <g id="line2d_1">
      <path d="M 71.359141 370.364622 
L 712.950547 370.364622 
" clip-path="url(#pb8c4b9db6a)" style="fill: none; stroke: #b0b0b0; stroke-opacity: 0.3; stroke-width: 0.8; stroke-linecap: square"/>
     </g>
     <g id="line2d_2">
      <defs>
       <path id="m66b70f7bd6" d="M 0 0 
L -5 0 
" style="stroke: #000000; stroke-width: 0.8"/>
      </defs>
      <g>
       <use xlink:href="#m66b70f7bd6" x="71.359141" y="370.364622" style="stroke: #000000; stroke-width: 0.8"/>
      </g>
     </g>
     <g id="text_1">
      <!-- 1 -->
      <g transform="translate(52.679141 376.443372) scale(0.16 -0.16)">
       <defs>
        <path id="DejaVuSans-31" d="M 794 531 
L 1825 531 
L 1825 4091 
L 703 3866 
L 703 4441 
L 1819 4666 
L 2450 4666 
L 2450 531 
L 3481 531 
L 3481 0 
L 794 0 
L 794 531 
z
" transform="scale(0.015625)"/>
       </defs>
       <use xlink:href="#DejaVuSans-31"/>
      </g>
     </g>
    </g>
    <g id="ytick_2">
     <g id="line2d_3">
      <path d="M 71.359141 305.443818 
L 712.950547 305.443818 
" clip-path="url(#pb8c4b9db6a)" style="fill: none; stroke: #b0b0b0; stroke-opacity: 0.3; stroke-width: 0.8; stroke-linecap: square"/>
     </g>
     <g id="line2d_4">
      <g>
       <use xlink:href="#m66b70f7bd6" x="71.359141" y="305.443818" style="stroke: #000000; stroke-width: 0.8"/>
      </g>
     </g>
     <g id="text_2">
      <!-- 2 -->
      <g transform="translate(52.679141 311.522568) scale(0.16 -0.16)">
       <defs>
        <path id="DejaVuSans-32" d="M 1228 531 
L 3431 531 
L 3431 0 
L 469 0 
L 469 531 
Q 828 903 1448 1529 
Q 2069 2156 2228 2338 
Q 2531 2678 2651 2914 
Q 2772 3150 2772 3378 
Q 2772 3750 2511 3984 
Q 2250 4219 1831 4219 
Q 1534 4219 1204 4116 
Q 875 4013 500 3803 
L 500 4441 
Q 881 4594 1212 4672 
Q 1544 4750 1819 4750 
Q 2544 4750 2975 4387 
Q 3406 4025 3406 3419 
Q 3406 3131 3298 2873 
Q 3191 2616 2906 2266 
Q 2828 2175 2409 1742 
Q 1991 1309 1228 531 
z
" transform="scale(0.015625)"/>
       </defs>
       <use xlink:href="#DejaVuSans-32"/>
      </g>
     </g>
    </g>
    <g id="ytick_3">
     <g id="line2d_5">
      <path d="M 71.359141 240.523015 
L 712.950547 240.523015 
" clip-path="url(#pb8c4b9db6a)" style="fill: none; stroke: #b0b0b0; stroke-opacity: 0.3; stroke-width: 0.8; stroke-linecap: square"/>
     </g>
     <g id="line2d_6">
      <g>
       <use xlink:href="#m66b70f7bd6" x="71.359141" y="240.523015" style="stroke: #000000; stroke-width: 0.8"/>
      </g>
     </g>
     <g id="text_3">
      <!-- 3 -->
      <g transform="translate(52.679141 246.601765) scale(0.16 -0.16)">
       <defs>
        <path id="DejaVuSans-33" d="M 2597 2516 
Q 3050 2419 3304 2112 
Q 3559 1806 3559 1356 
Q 3559 666 3084 287 
Q 2609 -91 1734 -91 
Q 1441 -91 1130 -33 
Q 819 25 488 141 
L 488 750 
Q 750 597 1062 519 
Q 1375 441 1716 441 
Q 2309 441 2620 675 
Q 2931 909 2931 1356 
Q 2931 1769 2642 2001 
Q 2353 2234 1838 2234 
L 1294 2234 
L 1294 2753 
L 1863 2753 
Q 2328 2753 2575 2939 
Q 2822 3125 2822 3475 
Q 2822 3834 2567 4026 
Q 2313 4219 1838 4219 
Q 1578 4219 1281 4162 
Q 984 4106 628 3988 
L 628 4550 
Q 988 4650 1302 4700 
Q 1616 4750 1894 4750 
Q 2613 4750 3031 4423 
Q 3450 4097 3450 3541 
Q 3450 3153 3228 2886 
Q 3006 2619 2597 2516 
z
" transform="scale(0.015625)"/>
       </defs>
       <use xlink:href="#DejaVuSans-33"/>
      </g>
     </g>
    </g>
    <g id="ytick_4">
     <g id="line2d_7">
      <path d="M 71.359141 175.602212 
L 712.950547 175.602212 
" clip-path="url(#pb8c4b9db6a)" style="fill: none; stroke: #b0b0b0; stroke-opacity: 0.3; stroke-width: 0.8; stroke-linecap: square"/>
     </g>
     <g id="line2d_8">
      <g>
       <use xlink:href="#m66b70f7bd6" x="71.359141" y="175.602212" style="stroke: #000000; stroke-width: 0.8"/>
      </g>
     </g>
     <g id="text_4">
      <!-- 4 -->
      <g transform="translate(52.679141 181.680962) scale(0.16 -0.16)">
       <defs>
        <path id="DejaVuSans-34" d="M 2419 4116 
L 825 1625 
L 2419 1625 
L 2419 4116 
z
M 2253 4666 
L 3047 4666 
L 3047 1625 
L 3713 1625 
L 3713 1100 
L 3047 1100 
L 3047 0 
L 2419 0 
L 2419 1100 
L 313 1100 
L 313 1709 
L 2253 4666 
z
" transform="scale(0.015625)"/>
       </defs>
       <use xlink:href="#DejaVuSans-34"/>
      </g>
     </g>
    </g>
    <g id="ytick_5">
     <g id="line2d_9">
      <path d="M 71.359141 110.681409 
L 712.950547 110.681409 
" clip-path="url(#pb8c4b9db6a)" style="fill: none; stroke: #b0b0b0; stroke-opacity: 0.3; stroke-width: 0.8; stroke-linecap: square"/>
     </g>
     <g id="line2d_10">
      <g>
       <use xlink:href="#m66b70f7bd6" x="71.359141" y="110.681409" style="stroke: #000000; stroke-width: 0.8"/>
      </g>
     </g>
     <g id="text_5">
      <!-- 5 -->
      <g transform="translate(52.679141 116.760159) scale(0.16 -0.16)">
       <defs>
        <path id="DejaVuSans-35" d="M 691 4666 
L 3169 4666 
L 3169 4134 
L 1269 4134 
L 1269 2991 
Q 1406 3038 1543 3061 
Q 1681 3084 1819 3084 
Q 2600 3084 3056 2656 
Q 3513 2228 3513 1497 
Q 3513 744 3044 326 
Q 2575 -91 1722 -91 
Q 1428 -91 1123 -41 
Q 819 9 494 109 
L 494 744 
Q 775 591 1075 516 
Q 1375 441 1709 441 
Q 2250 441 2565 725 
Q 2881 1009 2881 1497 
Q 2881 1984 2565 2268 
Q 2250 2553 1709 2553 
Q 1456 2553 1204 2497 
Q 953 2441 691 2322 
L 691 4666 
z
" transform="scale(0.015625)"/>
       </defs>
       <use xlink:href="#DejaVuSans-35"/>
      </g>
     </g>
    </g>
    <g id="text_6">
     <!-- Neurons -->
     <g transform="translate(45.351641 282.207744) rotate(-90) scale(0.16 -0.16)">
      <defs>
       <path id="DejaVuSans-4e" d="M 628 4666 
L 1478 4666 
L 3547 763 
L 3547 4666 
L 4159 4666 
L 4159 0 
L 3309 0 
L 1241 3903 
L 1241 0 
L 628 0 
L 628 4666 
z
" transform="scale(0.015625)"/>
       <path id="DejaVuSans-65" d="M 3597 1894 
L 3597 1613 
L 953 1613 
Q 991 1019 1311 708 
Q 1631 397 2203 397 
Q 2534 397 2845 478 
Q 3156 559 3463 722 
L 3463 178 
Q 3153 47 2828 -22 
Q 2503 -91 2169 -91 
Q 1331 -91 842 396 
Q 353 884 353 1716 
Q 353 2575 817 3079 
Q 1281 3584 2069 3584 
Q 2775 3584 3186 3129 
Q 3597 2675 3597 1894 
z
M 3022 2063 
Q 3016 2534 2758 2815 
Q 2500 3097 2075 3097 
Q 1594 3097 1305 2825 
Q 1016 2553 972 2059 
L 3022 2063 
z
" transform="scale(0.015625)"/>
       <path id="DejaVuSans-75" d="M 544 1381 
L 544 3500 
L 1119 3500 
L 1119 1403 
Q 1119 906 1312 657 
Q 1506 409 1894 409 
Q 2359 409 2629 706 
Q 2900 1003 2900 1516 
L 2900 3500 
L 3475 3500 
L 3475 0 
L 2900 0 
L 2900 538 
Q 2691 219 2414 64 
Q 2138 -91 1772 -91 
Q 1169 -91 856 284 
Q 544 659 544 1381 
z
M 1991 3584 
L 1991 3584 
z
" transform="scale(0.015625)"/>
       <path id="DejaVuSans-72" d="M 2631 2963 
Q 2534 3019 2420 3045 
Q 2306 3072 2169 3072 
Q 1681 3072 1420 2755 
Q 1159 2438 1159 1844 
L 1159 0 
L 581 0 
L 581 3500 
L 1159 3500 
L 1159 2956 
Q 1341 3275 1631 3429 
Q 1922 3584 2338 3584 
Q 2397 3584 2469 3576 
Q 2541 3569 2628 3553 
L 2631 2963 
z
" transform="scale(0.015625)"/>
       <path id="DejaVuSans-6f" d="M 1959 3097 
Q 1497 3097 1228 2736 
Q 959 2375 959 1747 
Q 959 1119 1226 758 
Q 1494 397 1959 397 
Q 2419 397 2687 759 
Q 2956 1122 2956 1747 
Q 2956 2369 2687 2733 
Q 2419 3097 1959 3097 
z
M 1959 3584 
Q 2709 3584 3137 3096 
Q 3566 2609 3566 1747 
Q 3566 888 3137 398 
Q 2709 -91 1959 -91 
Q 1206 -91 779 398 
Q 353 888 353 1747 
Q 353 2609 779 3096 
Q 1206 3584 1959 3584 
z
" transform="scale(0.015625)"/>
       <path id="DejaVuSans-6e" d="M 3513 2113 
L 3513 0 
L 2938 0 
L 2938 2094 
Q 2938 2591 2744 2837 
Q 2550 3084 2163 3084 
Q 1697 3084 1428 2787 
Q 1159 2491 1159 1978 
L 1159 0 
L 581 0 
L 581 3500 
L 1159 3500 
L 1159 2956 
Q 1366 3272 1645 3428 
Q 1925 3584 2291 3584 
Q 2894 3584 3203 3211 
Q 3513 2838 3513 2113 
z
" transform="scale(0.015625)"/>
       <path id="DejaVuSans-73" d="M 2834 3397 
L 2834 2853 
Q 2591 2978 2328 3040 
Q 2066 3103 1784 3103 
Q 1356 3103 1142 2972 
Q 928 2841 928 2578 
Q 928 2378 1081 2264 
Q 1234 2150 1697 2047 
L 1894 2003 
Q 2506 1872 2764 1633 
Q 3022 1394 3022 966 
Q 3022 478 2636 193 
Q 2250 -91 1575 -91 
Q 1294 -91 989 -36 
Q 684 19 347 128 
L 347 722 
Q 666 556 975 473 
Q 1284 391 1588 391 
Q 1994 391 2212 530 
Q 2431 669 2431 922 
Q 2431 1156 2273 1281 
Q 2116 1406 1581 1522 
L 1381 1569 
Q 847 1681 609 1914 
Q 372 2147 372 2553 
Q 372 3047 722 3315 
Q 1072 3584 1716 3584 
Q 2034 3584 2315 3537 
Q 2597 3491 2834 3397 
z
" transform="scale(0.015625)"/>
      </defs>
      <use xlink:href="#DejaVuSans-4e"/>
      <use xlink:href="#DejaVuSans-65" x="74.804688"/>
      <use xlink:href="#DejaVuSans-75" x="136.328125"/>
      <use xlink:href="#DejaVuSans-72" x="199.707031"/>
      <use xlink:href="#DejaVuSans-6f" x="238.570312"/>
      <use xlink:href="#DejaVuSans-6e" x="299.751953"/>
      <use xlink:href="#DejaVuSans-73" x="363.130859"/>
     </g>
    </g>
   </g>
   <g id="line2d_11">
    <path d="M 100.522386 384.370092 
L 102.389207 383.447584 
L 104.83941 382.508715 
L 108.573052 381.34957 
L 118.373863 378.404099 
L 120.707389 377.427676 
L 122.340858 376.529732 
L 123.740974 375.502904 
L 124.791061 374.475243 
L 125.724471 373.269122 
L 126.657882 371.65736 
L 127.591292 369.513554 
L 128.874732 365.823544 
L 130.158171 362.345324 
L 130.974905 360.782323 
L 131.674963 359.929367 
L 132.258345 359.540172 
L 132.841727 359.405797 
L 133.425108 359.48452 
L 134.125166 359.801903 
L 135.058577 360.49876 
L 136.342016 361.765189 
L 139.025571 364.81332 
L 142.992566 369.565275 
L 144.509358 371.779774 
L 145.792798 374.064398 
L 147.542943 377.719903 
L 149.293087 381.226707 
L 150.459851 383.094492 
L 151.509937 384.395658 
L 152.560024 385.364714 
L 153.610111 386.050701 
L 154.776874 386.54879 
L 156.060314 386.855447 
L 157.46043 386.971039 
L 159.093898 386.883122 
L 161.077396 386.54215 
L 163.527598 385.875011 
L 168.194651 384.298466 
L 178.462167 380.747723 
L 183.012543 378.973461 
L 185.112717 377.933976 
L 186.746186 376.895914 
L 188.029625 375.84263 
L 189.196388 374.593026 
L 190.129799 373.282948 
L 191.063209 371.562006 
L 191.99662 369.310045 
L 195.030204 361.270254 
L 195.730262 360.290646 
L 196.313644 359.803427 
L 196.897025 359.57951 
L 197.480407 359.577305 
L 198.180465 359.808125 
L 198.997199 360.316178 
L 200.163962 361.327183 
L 202.14746 363.393757 
L 207.51457 369.382909 
L 209.031362 371.439847 
L 210.314802 373.541633 
L 211.94827 376.711204 
L 214.16512 380.980551 
L 215.331883 382.74811 
L 216.38197 383.97209 
L 217.432057 384.874995 
L 218.482144 385.507137 
L 219.648907 385.95585 
L 220.932347 386.21529 
L 222.449139 386.298552 
L 224.31596 386.180054 
L 226.766163 385.783755 
L 230.0331 385.014571 
L 241.350702 382.139476 
L 246.717813 380.856226 
L 250.101426 379.822819 
L 252.901658 378.739685 
L 255.001832 377.703136 
L 256.518624 376.723524 
L 257.802063 375.625844 
L 258.85215 374.431792 
L 259.785561 373.018168 
L 260.602295 371.380967 
L 261.419029 369.266202 
L 262.702469 365.193692 
L 263.869232 361.780575 
L 264.685966 360.092361 
L 265.386024 359.171757 
L 265.969406 358.746575 
L 266.552787 358.590964 
L 267.136169 358.661297 
L 267.836227 358.982906 
L 268.769637 359.70117 
L 270.169753 361.131684 
L 275.303511 367.002389 
L 277.403685 369.567682 
L 278.803801 371.632266 
L 280.08724 373.961061 
L 281.720709 377.482914 
L 283.58753 381.391919 
L 284.754293 383.332437 
L 285.80438 384.672477 
L 286.854467 385.653164 
L 287.904553 386.329458 
L 288.95464 386.756912 
L 290.121403 387.000749 
L 291.521519 387.057423 
L 293.271664 386.894916 
L 295.838543 386.415367 
L 300.738948 385.222317 
L 305.639354 383.813569 
L 313.223314 381.374305 
L 316.373575 380.117766 
L 318.707101 378.96715 
L 320.573923 377.804747 
L 322.090715 376.60568 
L 323.257478 375.425028 
L 324.307565 374.042767 
L 325.240975 372.415906 
L 326.057709 370.556619 
L 326.99112 367.875723 
L 328.974617 361.950968 
L 329.674675 360.534198 
L 330.374733 359.607046 
L 330.958115 359.181748 
L 331.541496 359.029937 
L 332.124878 359.106206 
L 332.824936 359.435392 
L 333.758346 360.160628 
L 335.158462 361.594246 
L 339.008781 366.042361 
L 341.925689 369.560182 
L 343.325805 371.592989 
L 344.609244 373.856799 
L 346.359389 377.500741 
L 348.109534 380.994126 
L 349.276297 382.839034 
L 350.326384 384.11504 
L 351.376471 385.062948 
L 352.426557 385.735899 
L 353.593321 386.22438 
L 354.87676 386.515187 
L 356.393552 386.612723 
L 358.260373 386.494554 
L 360.710576 386.099481 
L 365.0276 385.144836 
L 373.544971 382.960403 
L 378.212024 381.606793 
L 381.712313 380.384353 
L 384.162516 379.302349 
L 386.146013 378.18476 
L 387.662805 377.085195 
L 388.946245 375.878748 
L 389.996332 374.586153 
L 390.929742 373.06838 
L 391.746477 371.312743 
L 392.563211 369.045203 
L 395.480119 360.260108 
L 396.180177 359.168669 
L 396.763558 358.64222 
L 397.34694 358.421855 
L 397.930322 358.459359 
L 398.630379 358.773732 
L 399.447114 359.409117 
L 400.613877 360.626139 
L 402.947403 363.476055 
L 408.197838 370.172164 
L 409.481277 372.253175 
L 410.764717 374.76355 
L 414.498359 382.476176 
L 415.548446 383.972461 
L 416.598532 385.09632 
L 417.648619 385.901185 
L 418.698706 386.447446 
L 419.865469 386.813818 
L 421.265585 387.00061 
L 422.899054 386.968911 
L 424.765875 386.693474 
L 427.216077 386.079518 
L 433.16657 384.267471 
L 441.100559 381.72545 
L 444.950878 380.275069 
L 447.517757 379.088496 
L 449.501254 377.942218 
L 451.134723 376.738039 
L 452.418162 375.505783 
L 453.468249 374.178094 
L 454.40166 372.611684 
L 455.218394 370.809651 
L 456.151804 368.172218 
L 458.368654 361.55052 
L 459.068712 360.204092 
L 459.76877 359.348078 
L 460.352152 358.975979 
L 460.935533 358.86849 
L 461.518915 358.979454 
L 462.218973 359.338822 
L 463.152383 360.089722 
L 464.552499 361.540823 
L 468.63617 366.263469 
L 471.086373 369.292214 
L 472.486489 371.364189 
L 473.769928 373.670258 
L 475.403397 377.132086 
L 477.270218 380.991498 
L 478.436981 382.912513 
L 479.487068 384.239292 
L 480.537155 385.210782 
L 481.587242 385.88015 
L 482.754005 386.341249 
L 484.037444 386.587486 
L 485.43756 386.627722 
L 487.187705 386.449574 
L 489.637908 385.948939 
L 494.188284 384.736901 
L 503.755742 382.192353 
L 508.422795 380.942618 
L 511.806408 379.805015 
L 514.256611 378.767925 
L 516.240108 377.694193 
L 517.7569 376.630879 
L 518.923663 375.567185 
L 519.97375 374.307516 
L 520.907161 372.80981 
L 521.723895 371.073022 
L 522.657306 368.486915 
L 525.107508 361.081411 
L 525.807566 359.772533 
L 526.390948 359.06053 
L 526.974329 358.662327 
L 527.557711 358.534986 
L 528.141093 358.631827 
L 528.841151 358.980886 
L 529.774561 359.729712 
L 531.174677 361.20571 
L 534.55829 365.249616 
L 537.825227 369.327272 
L 539.225343 371.456153 
L 540.508782 373.840086 
L 542.142251 377.425176 
L 543.892396 381.154555 
L 545.059159 383.138056 
L 546.109246 384.50136 
L 547.159333 385.493687 
L 548.209419 386.169501 
L 549.259506 386.588523 
L 550.426269 386.826634 
L 551.826385 386.888338 
L 553.57653 386.734066 
L 555.79338 386.296954 
L 558.360259 385.558042 
L 562.327254 384.151929 
L 573.178151 379.943658 
L 575.861707 378.592648 
L 577.961881 377.29866 
L 579.478673 376.115176 
L 580.645436 374.942936 
L 581.695523 373.568771 
L 582.628933 371.959067 
L 583.562344 369.846733 
L 584.729107 366.533651 
L 586.129223 362.64175 
L 586.945957 361.014444 
L 587.646015 360.10753 
L 588.229397 359.678216 
L 588.812778 359.509386 
L 589.39616 359.559296 
L 590.096218 359.848686 
L 591.029628 360.517791 
L 592.313068 361.75875 
L 594.996623 364.766878 
L 598.730265 369.194166 
L 600.247057 371.37805 
L 601.530497 373.651162 
L 603.047289 376.852184 
L 605.147463 381.235468 
L 606.314226 383.158483 
L 607.364313 384.494607 
L 608.4144 385.486102 
L 609.464486 386.185781 
L 610.63125 386.685812 
L 611.914689 386.969325 
L 613.314805 387.036477 
L 614.948273 386.884956 
L 616.931771 386.460308 
L 619.381973 385.687665 
L 623.348968 384.167562 
L 632.79975 380.248701 
L 636.183363 378.663593 
L 638.400213 377.391205 
L 639.917005 376.274196 
L 641.083769 375.159703 
L 642.133856 373.840017 
L 643.067266 372.276017 
L 643.884 370.485093 
L 644.817411 367.903344 
L 646.917585 361.86829 
L 647.617642 360.531845 
L 648.3177 359.662134 
L 648.901082 359.268202 
L 649.484464 359.135692 
L 650.067845 359.221961 
L 650.767903 359.553932 
L 651.701314 360.274201 
L 653.101429 361.696759 
L 658.001835 367.270319 
L 660.102009 369.85612 
L 661.502124 371.948844 
L 662.785564 374.311676 
L 664.652385 378.354185 
L 666.285853 381.659775 
L 667.452617 383.526314 
L 668.502703 384.817207 
L 669.55279 385.775988 
L 670.602877 386.453502 
L 671.76964 386.940322 
L 673.05308 387.221637 
L 674.453196 387.295109 
L 676.20334 387.156036 
L 678.42019 386.750333 
L 681.103746 386.027519 
L 683.787301 385.118632 
L 683.787301 385.118632 
" clip-path="url(#pb8c4b9db6a)" style="fill: none; stroke: #1f77b4; stroke-width: 1.5; stroke-linecap: square"/>
   </g>
   <g id="line2d_12">
    <path d="M 100.522386 370.364622 
L 682.737214 370.364622 
L 682.737214 370.364622 
" clip-path="url(#pb8c4b9db6a)" style="fill: none; stroke-dasharray: 2.96,1.28; stroke-dashoffset: 0; stroke: #808080; stroke-opacity: 0.7; stroke-width: 0.8"/>
   </g>
   <g id="line2d_13">
    <path d="M 100.522386 317.08355 
L 103.439294 318.81518 
L 106.006173 320.085866 
L 108.806405 321.216279 
L 112.073342 322.281002 
L 116.390366 323.430662 
L 120.824066 324.390496 
L 124.207679 324.917742 
L 127.941321 325.273798 
L 132.375021 325.461403 
L 139.142248 325.488003 
L 144.159329 325.299786 
L 164.227656 324.140847 
L 169.47809 323.790696 
L 175.778612 323.719526 
L 193.746765 323.572235 
L 200.047286 323.460915 
L 218.132115 323.118085 
L 224.31596 323.033202 
L 231.199863 323.220668 
L 239.83391 323.684669 
L 250.218103 324.231859 
L 275.420187 324.689406 
L 287.204496 324.647158 
L 299.805538 324.172887 
L 311.239817 324.147409 
L 315.673517 323.940015 
L 329.557999 323.040477 
L 336.091873 322.983315 
L 353.476644 323.057317 
L 360.127194 323.408466 
L 377.978671 324.501878 
L 383.929163 324.576159 
L 406.447693 324.255069 
L 416.598532 323.864024 
L 422.315672 323.731754 
L 441.800617 323.564441 
L 450.90137 323.43495 
L 461.05221 323.54976 
L 478.78701 323.93387 
L 483.22071 323.806406 
L 493.721579 323.410153 
L 499.322042 323.497382 
L 513.089848 323.883248 
L 535.375024 324.175704 
L 547.042656 324.493629 
L 551.593033 324.346701 
L 563.72737 323.724727 
L 570.37792 323.265222 
L 576.328412 323.02092 
L 583.095639 322.965306 
L 588.229397 323.176245 
L 594.76327 323.693817 
L 603.630671 324.287527 
L 610.397897 324.537479 
L 615.531655 324.503844 
L 620.198708 324.251834 
L 625.799171 323.739695 
L 630.349547 323.380009 
L 634.549895 323.301202 
L 640.500387 323.415447 
L 653.218106 323.893874 
L 661.735477 324.253831 
L 678.186838 324.628615 
L 682.853891 324.544227 
L 683.787301 324.488041 
L 683.787301 324.488041 
" clip-path="url(#pb8c4b9db6a)" style="fill: none; stroke: #ff7f0e; stroke-width: 1.5; stroke-linecap: square"/>
   </g>
   <g id="line2d_14">
    <path d="M 100.522386 305.443818 
L 682.737214 305.443818 
L 682.737214 305.443818 
" clip-path="url(#pb8c4b9db6a)" style="fill: none; stroke-dasharray: 2.96,1.28; stroke-dashoffset: 0; stroke: #808080; stroke-opacity: 0.7; stroke-width: 0.8"/>
   </g>
   <g id="line2d_15">
    <path d="M 100.522386 253.866477 
L 102.155855 252.809462 
L 104.256029 251.731722 
L 107.522965 250.345994 
L 111.839989 248.488471 
L 113.823487 247.396971 
L 115.340279 246.311739 
L 116.507042 245.209635 
L 117.440453 244.052553 
L 118.373863 242.518264 
L 119.190597 240.741306 
L 120.124008 238.139678 
L 122.340858 231.623303 
L 123.040916 230.294241 
L 123.740974 229.44719 
L 124.324355 229.079982 
L 124.907737 228.978846 
L 125.491118 229.099701 
L 126.191176 229.477295 
L 127.124587 230.266813 
L 128.524703 231.802403 
L 132.491698 236.662473 
L 134.591871 239.476433 
L 135.875311 241.532233 
L 137.042074 243.808476 
L 138.558866 247.344251 
L 140.425687 251.643975 
L 141.59245 253.770914 
L 142.642537 255.234111 
L 143.692624 256.312393 
L 144.742711 257.070305 
L 145.909474 257.615606 
L 147.192914 257.941828 
L 148.593029 258.056924 
L 150.226498 257.963141 
L 152.209995 257.618872 
L 155.010227 256.875154 
L 161.89413 254.760815 
L 172.511675 251.402405 
L 176.945375 249.973833 
L 179.862283 248.791227 
L 182.079133 247.664096 
L 183.712601 246.587501 
L 184.996041 245.468185 
L 186.046128 244.254901 
L 186.979538 242.825308 
L 187.796272 241.188676 
L 188.729683 238.792786 
L 191.296562 231.750488 
L 191.99662 230.608699 
L 192.580001 230.004007 
L 193.163383 229.685819 
L 193.746765 229.614727 
L 194.446823 229.795096 
L 195.263557 230.282555 
L 196.313644 231.199383 
L 198.063788 233.073668 
L 202.847517 238.622524 
L 204.480986 240.84029 
L 205.764425 242.938625 
L 207.164541 245.690176 
L 210.081449 251.613653 
L 211.248212 253.381913 
L 212.298299 254.590894 
L 213.348386 255.477678 
L 214.398473 256.094366 
L 215.565236 256.520917 
L 216.848676 256.738604 
L 218.365468 256.745291 
L 220.232289 256.509897 
L 223.03252 255.904539 
L 228.516307 254.455072 
L 236.100268 252.49355 
L 242.284113 251.137571 
L 247.651224 249.915031 
L 250.684808 249.020152 
L 253.135011 248.073667 
L 255.001832 247.125372 
L 256.401948 246.1744 
L 257.568711 245.109893 
L 258.502121 243.978428 
L 259.435532 242.469538 
L 260.252266 240.717438 
L 261.185677 238.150079 
L 263.402527 231.697088 
L 264.102585 230.366943 
L 264.802642 229.507075 
L 265.386024 229.120318 
L 265.969406 228.992808 
L 266.552787 229.082443 
L 267.252845 229.418617 
L 268.186256 230.14876 
L 269.586371 231.593136 
L 273.203337 235.812899 
L 276.120245 239.400852 
L 277.520361 241.479808 
L 278.687124 243.598311 
L 280.08724 246.652092 
L 282.420766 251.818138 
L 283.58753 253.831636 
L 284.637617 255.226589 
L 285.687703 256.256455 
L 286.73779 256.97242 
L 287.787877 257.434324 
L 288.95464 257.711665 
L 290.23808 257.793762 
L 291.871548 257.65746 
L 293.971722 257.243059 
L 298.055393 256.152378 
L 306.339412 253.741583 
L 316.140222 250.680047 
L 319.05713 249.496683 
L 321.27398 248.366904 
L 323.024125 247.243395 
L 324.424241 246.090074 
L 325.591004 244.837707 
L 326.524415 243.529897 
L 327.457825 241.806818 
L 328.391236 239.530359 
L 329.791352 235.316834 
L 330.841439 232.438902 
L 331.658173 230.841137 
L 332.358231 229.982956 
L 332.941612 229.602128 
L 333.524994 229.483068 
L 334.108375 229.580489 
L 334.808433 229.922049 
L 335.741844 230.651806 
L 337.14196 232.086801 
L 341.342307 236.913764 
L 343.559157 239.669169 
L 344.959273 241.760709 
L 346.242713 244.103415 
L 347.992857 247.858023 
L 349.626326 251.200862 
L 350.793089 253.110609 
L 351.843176 254.433913 
L 352.893263 255.415393 
L 353.94335 256.107646 
L 355.110113 256.602271 
L 356.393552 256.888667 
L 357.910344 256.979231 
L 359.660489 256.855961 
L 362.227368 256.425462 
L 366.777745 255.39456 
L 385.212603 250.947637 
L 388.829569 249.829916 
L 391.863153 248.668794 
L 393.84665 247.680936 
L 395.363443 246.682661 
L 396.646882 245.568036 
L 397.696969 244.360866 
L 398.630379 242.938687 
L 399.447114 241.300677 
L 400.380524 238.870936 
L 403.06408 231.293723 
L 403.764137 230.151871 
L 404.347519 229.5543 
L 404.930901 229.247024 
L 405.514282 229.188996 
L 406.21434 229.386143 
L 407.031074 229.892222 
L 408.081161 230.829373 
L 409.831306 232.737557 
L 414.265006 237.983471 
L 416.015151 240.360415 
L 417.29859 242.469415 
L 418.58203 245.0323 
L 422.198996 252.659323 
L 423.249083 254.202187 
L 424.299169 255.355492 
L 425.349256 256.167052 
L 426.399343 256.699166 
L 427.566106 257.035231 
L 428.849546 257.172771 
L 430.483014 257.103429 
L 432.583188 256.773338 
L 435.500096 256.074368 
L 440.983883 254.475797 
L 457.785273 249.253224 
L 460.352152 248.167621 
L 462.102297 247.205411 
L 463.502412 246.193314 
L 464.669176 245.074308 
L 465.602586 243.89339 
L 466.535997 242.326132 
L 467.352731 240.518759 
L 468.286141 237.907875 
L 470.269639 232.128995 
L 471.086373 230.546785 
L 471.786431 229.699208 
L 472.369813 229.322016 
L 472.953194 229.201827 
L 473.536576 229.294465 
L 474.236634 229.626599 
L 475.170044 230.337998 
L 476.57016 231.737889 
L 480.07045 235.700619 
L 482.987357 239.189047 
L 484.387473 241.191648 
L 485.670913 243.422152 
L 487.071029 246.335482 
L 489.521231 251.492056 
L 490.687994 253.388538 
L 491.738081 254.696549 
L 492.788168 255.664502 
L 493.838255 256.348674 
L 495.005018 256.840638 
L 496.288458 257.129076 
L 497.80525 257.223788 
L 499.672071 257.1064 
L 502.355626 256.701642 
L 506.906003 255.758625 
L 529.891237 250.379149 
L 532.808145 249.401491 
L 535.141672 248.408696 
L 536.891816 247.44 
L 538.291932 246.42747 
L 539.458696 245.311251 
L 540.392106 244.130394 
L 541.20884 242.778888 
L 542.025575 241.011945 
L 542.958985 238.394204 
L 545.292511 231.394193 
L 545.992569 230.07886 
L 546.575951 229.360557 
L 547.159333 228.957811 
L 547.742714 228.829713 
L 548.326096 228.930306 
L 549.026154 229.288908 
L 549.959564 230.056061 
L 551.35968 231.563557 
L 555.326675 236.361389 
L 557.893554 239.657343 
L 559.29367 241.802361 
L 560.577109 244.189258 
L 562.44393 248.254501 
L 563.960722 251.363477 
L 565.127486 253.273162 
L 566.177572 254.589067 
L 567.227659 255.558754 
L 568.277746 256.234475 
L 569.444509 256.703747 
L 570.727949 256.953598 
L 572.128065 256.997 
L 573.878209 256.826475 
L 576.328412 256.346802 
L 580.995465 255.160481 
L 586.945957 253.719743 
L 591.146304 252.910072 
L 603.980699 250.594266 
L 607.364313 249.695548 
L 609.814515 248.820636 
L 611.798013 247.878331 
L 613.314805 246.921167 
L 614.598244 245.845779 
L 615.648331 244.674705 
L 616.581742 243.286608 
L 617.398476 241.676537 
L 618.21521 239.590585 
L 619.49865 235.534862 
L 620.665413 232.086229 
L 621.482147 230.364621 
L 622.182205 229.424328 
L 622.765587 228.993272 
L 623.348968 228.841863 
L 623.93235 228.924997 
L 624.632408 229.269529 
L 625.565818 230.024485 
L 626.965934 231.509847 
L 630.5829 235.825219 
L 633.266455 239.251424 
L 634.666571 241.380824 
L 635.950011 243.76009 
L 637.466803 247.113531 
L 639.4503 251.432542 
L 640.617063 253.431691 
L 641.66715 254.810702 
L 642.717237 255.829253 
L 643.767324 256.5485 
L 644.934087 257.071125 
L 646.217527 257.385366 
L 647.617642 257.492322 
L 649.367787 257.384453 
L 651.81799 256.978627 
L 656.018337 256.025116 
L 668.502703 253.064375 
L 678.303514 250.888339 
L 681.570451 249.966171 
L 683.787301 249.139118 
L 683.787301 249.139118 
" clip-path="url(#pb8c4b9db6a)" style="fill: none; stroke: #2ca02c; stroke-width: 1.5; stroke-linecap: square"/>
   </g>
   <g id="line2d_16">
    <path d="M 100.522386 240.523015 
L 682.737214 240.523015 
L 682.737214 240.523015 
" clip-path="url(#pb8c4b9db6a)" style="fill: none; stroke-dasharray: 2.96,1.28; stroke-dashoffset: 0; stroke: #808080; stroke-opacity: 0.7; stroke-width: 0.8"/>
   </g>
   <g id="line2d_17">
    <path d="M 100.522386 194.000059 
L 101.922502 193.397952 
L 103.555971 192.95066 
L 105.422792 192.672762 
L 107.756318 192.561039 
L 110.673226 192.662717 
L 114.290192 193.020684 
L 120.707389 193.937326 
L 126.541205 194.672175 
L 133.191755 195.212538 
L 139.492277 195.525464 
L 144.042653 195.539487 
L 154.310169 195.277222 
L 187.212891 194.332472 
L 198.64717 193.624478 
L 205.647749 193.296136 
L 211.364889 193.135657 
L 223.615902 192.98739 
L 232.366626 193.370525 
L 241.817408 194.024948 
L 249.518045 194.54341 
L 261.769058 194.996322 
L 274.720129 195.431232 
L 290.23808 195.28476 
L 296.655277 195.060541 
L 307.03947 194.828351 
L 314.856783 194.364435 
L 327.341149 193.356718 
L 335.975197 193.175359 
L 347.526152 193.0424 
L 354.993436 193.10826 
L 361.060605 193.410707 
L 368.877918 194.107185 
L 379.262111 194.856692 
L 385.445955 195.083805 
L 401.78064 195.273802 
L 407.381103 195.064782 
L 434.216656 193.898568 
L 461.868944 194.0462 
L 469.452905 194.043832 
L 483.804092 193.675324 
L 490.221289 193.493655 
L 494.654989 193.598273 
L 502.122274 194.034034 
L 510.289616 194.490831 
L 522.423953 194.819358 
L 533.391527 194.924734 
L 543.075661 194.785244 
L 549.959564 194.458342 
L 555.560027 194.240794 
L 587.996044 193.726062 
L 600.130381 193.97808 
L 612.8481 194.158078 
L 622.415558 194.069371 
L 632.216368 193.967833 
L 640.73374 194.322055 
L 648.3177 194.535873 
L 676.320017 194.823506 
L 683.670625 194.710066 
L 683.787301 194.705236 
L 683.787301 194.705236 
" clip-path="url(#pb8c4b9db6a)" style="fill: none; stroke: #d62728; stroke-width: 1.5; stroke-linecap: square"/>
   </g>
   <g id="line2d_18">
    <path d="M 100.522386 175.602212 
L 682.737214 175.602212 
L 682.737214 175.602212 
" clip-path="url(#pb8c4b9db6a)" style="fill: none; stroke-dasharray: 2.96,1.28; stroke-dashoffset: 0; stroke: #808080; stroke-opacity: 0.7; stroke-width: 0.8"/>
   </g>
   <g id="line2d_19">
    <path d="M 100.522386 135.111407 
L 105.539468 137.771512 
L 110.206521 140.006985 
L 114.406868 141.779903 
L 118.023834 143.073148 
L 121.174095 143.966774 
L 123.740974 144.474123 
L 126.0745 144.714656 
L 128.524703 144.725552 
L 138.208837 144.352463 
L 145.676122 144.128244 
L 151.159908 144.239843 
L 164.344332 144.46725 
L 179.62893 143.871706 
L 184.646012 143.444071 
L 187.679596 142.926569 
L 193.280059 141.914441 
L 196.546996 141.590108 
L 200.747344 141.427617 
L 207.047865 141.388921 
L 210.781507 141.648678 
L 218.482144 142.235864 
L 228.74966 142.811812 
L 233.18336 142.953563 
L 248.584634 143.143637 
L 254.068421 143.089865 
L 263.169174 143.335908 
L 269.469695 143.877836 
L 283.937559 145.125296 
L 286.854467 145.18755 
L 291.054814 145.011097 
L 300.272243 144.356487 
L 308.556262 143.368444 
L 318.707101 142.033469 
L 323.024125 141.655179 
L 326.99112 141.55717 
L 331.774849 141.659234 
L 344.259215 142.309757 
L 348.692915 142.483919 
L 356.393552 142.627992 
L 400.613877 144.245941 
L 408.197838 144.084874 
L 414.731711 143.840997 
L 424.649198 143.051045 
L 431.999806 142.372166 
L 438.417004 142.097642 
L 444.134144 142.089717 
L 449.501254 142.310253 
L 459.652094 143.077637 
L 466.302644 143.479238 
L 470.619668 143.567774 
L 482.870681 143.264987 
L 491.738081 142.512431 
L 498.038603 142.365355 
L 502.822332 142.419592 
L 508.656147 142.722255 
L 517.873577 143.305199 
L 530.357943 144.212879 
L 540.508782 144.3828 
L 544.592454 144.254299 
L 548.209419 143.909226 
L 554.043235 143.329748 
L 574.694944 142.037184 
L 585.312489 142.145439 
L 590.32957 142.446586 
L 605.497492 143.557589 
L 612.381394 143.666092 
L 618.098534 143.579599 
L 624.515731 143.179113 
L 630.5829 142.771538 
L 637.116774 142.570072 
L 642.367208 142.593754 
L 649.951169 142.807385 
L 655.784985 143.111473 
L 666.052501 143.708441 
L 674.686548 144.020886 
L 683.553948 143.95888 
L 683.787301 143.941297 
L 683.787301 143.941297 
" clip-path="url(#pb8c4b9db6a)" style="fill: none; stroke: #9467bd; stroke-width: 1.5; stroke-linecap: square"/>
   </g>
   <g id="line2d_20">
    <path d="M 100.522386 110.681409 
L 682.737214 110.681409 
L 682.737214 110.681409 
" clip-path="url(#pb8c4b9db6a)" style="fill: none; stroke-dasharray: 2.96,1.28; stroke-dashoffset: 0; stroke: #808080; stroke-opacity: 0.7; stroke-width: 0.8"/>
   </g>
   <g id="text_7">
    <!-- Inhibitory Membrane Potentials -->
    <g transform="translate(204.276094 60.422981) scale(0.24 -0.24)">
     <defs>
      <path id="DejaVuSans-49" d="M 628 4666 
L 1259 4666 
L 1259 0 
L 628 0 
L 628 4666 
z
" transform="scale(0.015625)"/>
      <path id="DejaVuSans-68" d="M 3513 2113 
L 3513 0 
L 2938 0 
L 2938 2094 
Q 2938 2591 2744 2837 
Q 2550 3084 2163 3084 
Q 1697 3084 1428 2787 
Q 1159 2491 1159 1978 
L 1159 0 
L 581 0 
L 581 4863 
L 1159 4863 
L 1159 2956 
Q 1366 3272 1645 3428 
Q 1925 3584 2291 3584 
Q 2894 3584 3203 3211 
Q 3513 2838 3513 2113 
z
" transform="scale(0.015625)"/>
      <path id="DejaVuSans-69" d="M 603 3500 
L 1178 3500 
L 1178 0 
L 603 0 
L 603 3500 
z
M 603 4863 
L 1178 4863 
L 1178 4134 
L 603 4134 
L 603 4863 
z
" transform="scale(0.015625)"/>
      <path id="DejaVuSans-62" d="M 3116 1747 
Q 3116 2381 2855 2742 
Q 2594 3103 2138 3103 
Q 1681 3103 1420 2742 
Q 1159 2381 1159 1747 
Q 1159 1113 1420 752 
Q 1681 391 2138 391 
Q 2594 391 2855 752 
Q 3116 1113 3116 1747 
z
M 1159 2969 
Q 1341 3281 1617 3432 
Q 1894 3584 2278 3584 
Q 2916 3584 3314 3078 
Q 3713 2572 3713 1747 
Q 3713 922 3314 415 
Q 2916 -91 2278 -91 
Q 1894 -91 1617 61 
Q 1341 213 1159 525 
L 1159 0 
L 581 0 
L 581 4863 
L 1159 4863 
L 1159 2969 
z
" transform="scale(0.015625)"/>
      <path id="DejaVuSans-74" d="M 1172 4494 
L 1172 3500 
L 2356 3500 
L 2356 3053 
L 1172 3053 
L 1172 1153 
Q 1172 725 1289 603 
Q 1406 481 1766 481 
L 2356 481 
L 2356 0 
L 1766 0 
Q 1100 0 847 248 
Q 594 497 594 1153 
L 594 3053 
L 172 3053 
L 172 3500 
L 594 3500 
L 594 4494 
L 1172 4494 
z
" transform="scale(0.015625)"/>
      <path id="DejaVuSans-79" d="M 2059 -325 
Q 1816 -950 1584 -1140 
Q 1353 -1331 966 -1331 
L 506 -1331 
L 506 -850 
L 844 -850 
Q 1081 -850 1212 -737 
Q 1344 -625 1503 -206 
L 1606 56 
L 191 3500 
L 800 3500 
L 1894 763 
L 2988 3500 
L 3597 3500 
L 2059 -325 
z
" transform="scale(0.015625)"/>
      <path id="DejaVuSans-20" transform="scale(0.015625)"/>
      <path id="DejaVuSans-4d" d="M 628 4666 
L 1569 4666 
L 2759 1491 
L 3956 4666 
L 4897 4666 
L 4897 0 
L 4281 0 
L 4281 4097 
L 3078 897 
L 2444 897 
L 1241 4097 
L 1241 0 
L 628 0 
L 628 4666 
z
" transform="scale(0.015625)"/>
      <path id="DejaVuSans-6d" d="M 3328 2828 
Q 3544 3216 3844 3400 
Q 4144 3584 4550 3584 
Q 5097 3584 5394 3201 
Q 5691 2819 5691 2113 
L 5691 0 
L 5113 0 
L 5113 2094 
Q 5113 2597 4934 2840 
Q 4756 3084 4391 3084 
Q 3944 3084 3684 2787 
Q 3425 2491 3425 1978 
L 3425 0 
L 2847 0 
L 2847 2094 
Q 2847 2600 2669 2842 
Q 2491 3084 2119 3084 
Q 1678 3084 1418 2786 
Q 1159 2488 1159 1978 
L 1159 0 
L 581 0 
L 581 3500 
L 1159 3500 
L 1159 2956 
Q 1356 3278 1631 3431 
Q 1906 3584 2284 3584 
Q 2666 3584 2933 3390 
Q 3200 3197 3328 2828 
z
" transform="scale(0.015625)"/>
      <path id="DejaVuSans-61" d="M 2194 1759 
Q 1497 1759 1228 1600 
Q 959 1441 959 1056 
Q 959 750 1161 570 
Q 1363 391 1709 391 
Q 2188 391 2477 730 
Q 2766 1069 2766 1631 
L 2766 1759 
L 2194 1759 
z
M 3341 1997 
L 3341 0 
L 2766 0 
L 2766 531 
Q 2569 213 2275 61 
Q 1981 -91 1556 -91 
Q 1019 -91 701 211 
Q 384 513 384 1019 
Q 384 1609 779 1909 
Q 1175 2209 1959 2209 
L 2766 2209 
L 2766 2266 
Q 2766 2663 2505 2880 
Q 2244 3097 1772 3097 
Q 1472 3097 1187 3025 
Q 903 2953 641 2809 
L 641 3341 
Q 956 3463 1253 3523 
Q 1550 3584 1831 3584 
Q 2591 3584 2966 3190 
Q 3341 2797 3341 1997 
z
" transform="scale(0.015625)"/>
      <path id="DejaVuSans-50" d="M 1259 4147 
L 1259 2394 
L 2053 2394 
Q 2494 2394 2734 2622 
Q 2975 2850 2975 3272 
Q 2975 3691 2734 3919 
Q 2494 4147 2053 4147 
L 1259 4147 
z
M 628 4666 
L 2053 4666 
Q 2838 4666 3239 4311 
Q 3641 3956 3641 3272 
Q 3641 2581 3239 2228 
Q 2838 1875 2053 1875 
L 1259 1875 
L 1259 0 
L 628 0 
L 628 4666 
z
" transform="scale(0.015625)"/>
      <path id="DejaVuSans-6c" d="M 603 4863 
L 1178 4863 
L 1178 0 
L 603 0 
L 603 4863 
z
" transform="scale(0.015625)"/>
     </defs>
     <use xlink:href="#DejaVuSans-49"/>
     <use xlink:href="#DejaVuSans-6e" x="29.492188"/>
     <use xlink:href="#DejaVuSans-68" x="92.871094"/>
     <use xlink:href="#DejaVuSans-69" x="156.25"/>
     <use xlink:href="#DejaVuSans-62" x="184.033203"/>
     <use xlink:href="#DejaVuSans-69" x="247.509766"/>
     <use xlink:href="#DejaVuSans-74" x="275.292969"/>
     <use xlink:href="#DejaVuSans-6f" x="314.501953"/>
     <use xlink:href="#DejaVuSans-72" x="375.683594"/>
     <use xlink:href="#DejaVuSans-79" x="416.796875"/>
     <use xlink:href="#DejaVuSans-20" x="475.976562"/>
     <use xlink:href="#DejaVuSans-4d" x="507.763672"/>
     <use xlink:href="#DejaVuSans-65" x="594.042969"/>
     <use xlink:href="#DejaVuSans-6d" x="655.566406"/>
     <use xlink:href="#DejaVuSans-62" x="752.978516"/>
     <use xlink:href="#DejaVuSans-72" x="816.455078"/>
     <use xlink:href="#DejaVuSans-61" x="857.568359"/>
     <use xlink:href="#DejaVuSans-6e" x="918.847656"/>
     <use xlink:href="#DejaVuSans-65" x="982.226562"/>
     <use xlink:href="#DejaVuSans-20" x="1043.75"/>
     <use xlink:href="#DejaVuSans-50" x="1075.537109"/>
     <use xlink:href="#DejaVuSans-6f" x="1132.214844"/>
     <use xlink:href="#DejaVuSans-74" x="1193.396484"/>
     <use xlink:href="#DejaVuSans-65" x="1232.605469"/>
     <use xlink:href="#DejaVuSans-6e" x="1294.128906"/>
     <use xlink:href="#DejaVuSans-74" x="1357.507812"/>
     <use xlink:href="#DejaVuSans-69" x="1396.716797"/>
     <use xlink:href="#DejaVuSans-61" x="1424.5"/>
     <use xlink:href="#DejaVuSans-6c" x="1485.779297"/>
     <use xlink:href="#DejaVuSans-73" x="1513.5625"/>
    </g>
   </g>
   <g id="text_8">
    <!-- B -->
    <g transform="translate(7.2 29.995313) scale(0.3 -0.3)">
     <defs>
      <path id="DejaVuSans-42" d="M 1259 2228 
L 1259 519 
L 2272 519 
Q 2781 519 3026 730 
Q 3272 941 3272 1375 
Q 3272 1813 3026 2020 
Q 2781 2228 2272 2228 
L 1259 2228 
z
M 1259 4147 
L 1259 2741 
L 2194 2741 
Q 2656 2741 2882 2914 
Q 3109 3088 3109 3444 
Q 3109 3797 2882 3972 
Q 2656 4147 2194 4147 
L 1259 4147 
z
M 628 4666 
L 2241 4666 
Q 2963 4666 3353 4366 
Q 3744 4066 3744 3513 
Q 3744 3084 3544 2831 
Q 3344 2578 2956 2516 
Q 3422 2416 3680 2098 
Q 3938 1781 3938 1306 
Q 3938 681 3513 340 
Q 3088 0 2303 0 
L 628 0 
L 628 4666 
z
" transform="scale(0.015625)"/>
     </defs>
     <use xlink:href="#DejaVuSans-42"/>
    </g>
   </g>
  </g>
 </g>
 <defs>
  <clipPath id="pb8c4b9db6a">
   <rect x="71.359141" y="96.85065" width="641.591406" height="304.276687"/>
  </clipPath>
 </defs>
</svg>
