<?xml version="1.0" encoding="utf-8" standalone="no"?>
<!DOCTYPE svg PUBLIC "-//W3C//DTD SVG 1.1//EN"
  "http://www.w3.org/Graphics/SVG/1.1/DTD/svg11.dtd">
<svg xmlns:xlink="http://www.w3.org/1999/xlink" width="702pt" height="410.402382pt" viewBox="0 0 702 410.402382" xmlns="http://www.w3.org/2000/svg" version="1.1">
 <metadata>
  <rdf:RDF xmlns:dc="http://purl.org/dc/elements/1.1/" xmlns:cc="http://creativecommons.org/ns#" xmlns:rdf="http://www.w3.org/1999/02/22-rdf-syntax-ns#">
   <cc:Work>
    <dc:type rdf:resource="http://purl.org/dc/dcmitype/StillImage"/>
    <dc:date>2025-10-16T11:45:44.093915</dc:date>
    <dc:format>image/svg+xml</dc:format>
    <dc:creator>
     <cc:Agent>
      <dc:title>Matplotlib v3.8.2, https://matplotlib.org/</dc:title>
     </cc:Agent>
    </dc:creator>
   </cc:Work>
  </rdf:RDF>
 </metadata>
 <defs>
  <style type="text/css">*{stroke-linejoin: round; stroke-linecap: butt}</style>
 </defs>
 <g id="figure_1">
  <g id="patch_1">
   <path d="M 0 410.402382 
L 702 410.402382 
L 702 0 
L 0 0 
z
" style="fill: #ffffff"/>
  </g>
  <g id="axes_1">
   <g id="patch_2">
    <path d="M 75.973125 386.3618 
L 694.8 386.3618 
L 694.8 88.1338 
L 75.973125 88.1338 
z
" style="fill: #ffffff"/>
   </g>
   <g id="matplotlib.axis_1"/>
   <g id="matplotlib.axis_2">
    <g id="ytick_1">
     <g id="line2d_1">
      <defs>
       <path id="mcf32ad56a3" d="M 0 0 
L -5 0 
" style="stroke: #000000; stroke-width: 0.8"/>
      </defs>
      <g>
       <use xlink:href="#mcf32ad56a3" x="75.973125" y="366.229384" style="stroke: #000000; stroke-width: 0.8"/>
      </g>
     </g>
     <g id="text_1">
      <!-- −2.0 -->
      <g transform="translate(28.620625 372.308134) scale(0.16 -0.16)">
       <defs>
        <path id="DejaVuSans-2212" d="M 678 2272 
L 4684 2272 
L 4684 1741 
L 678 1741 
L 678 2272 
z
" transform="scale(0.015625)"/>
        <path id="DejaVuSans-32" d="M 1228 531 
L 3431 531 
L 3431 0 
L 469 0 
L 469 531 
Q 828 903 1448 1529 
Q 2069 2156 2228 2338 
Q 2531 2678 2651 2914 
Q 2772 3150 2772 3378 
Q 2772 3750 2511 3984 
Q 2250 4219 1831 4219 
Q 1534 4219 1204 4116 
Q 875 4013 500 3803 
L 500 4441 
Q 881 4594 1212 4672 
Q 1544 4750 1819 4750 
Q 2544 4750 2975 4387 
Q 3406 4025 3406 3419 
Q 3406 3131 3298 2873 
Q 3191 2616 2906 2266 
Q 2828 2175 2409 1742 
Q 1991 1309 1228 531 
z
" transform="scale(0.015625)"/>
        <path id="DejaVuSans-2e" d="M 684 794 
L 1344 794 
L 1344 0 
L 684 0 
L 684 794 
z
" transform="scale(0.015625)"/>
        <path id="DejaVuSans-30" d="M 2034 4250 
Q 1547 4250 1301 3770 
Q 1056 3291 1056 2328 
Q 1056 1369 1301 889 
Q 1547 409 2034 409 
Q 2525 409 2770 889 
Q 3016 1369 3016 2328 
Q 3016 3291 2770 3770 
Q 2525 4250 2034 4250 
z
M 2034 4750 
Q 2819 4750 3233 4129 
Q 3647 3509 3647 2328 
Q 3647 1150 3233 529 
Q 2819 -91 2034 -91 
Q 1250 -91 836 529 
Q 422 1150 422 2328 
Q 422 3509 836 4129 
Q 1250 4750 2034 4750 
z
" transform="scale(0.015625)"/>
       </defs>
       <use xlink:href="#DejaVuSans-2212"/>
       <use xlink:href="#DejaVuSans-32" x="83.789062"/>
       <use xlink:href="#DejaVuSans-2e" x="147.412109"/>
       <use xlink:href="#DejaVuSans-30" x="179.199219"/>
      </g>
     </g>
    </g>
    <g id="ytick_2">
     <g id="line2d_2">
      <g>
       <use xlink:href="#mcf32ad56a3" x="75.973125" y="332.031774" style="stroke: #000000; stroke-width: 0.8"/>
      </g>
     </g>
     <g id="text_2">
      <!-- −1.5 -->
      <g transform="translate(28.620625 338.110524) scale(0.16 -0.16)">
       <defs>
        <path id="DejaVuSans-31" d="M 794 531 
L 1825 531 
L 1825 4091 
L 703 3866 
L 703 4441 
L 1819 4666 
L 2450 4666 
L 2450 531 
L 3481 531 
L 3481 0 
L 794 0 
L 794 531 
z
" transform="scale(0.015625)"/>
        <path id="DejaVuSans-35" d="M 691 4666 
L 3169 4666 
L 3169 4134 
L 1269 4134 
L 1269 2991 
Q 1406 3038 1543 3061 
Q 1681 3084 1819 3084 
Q 2600 3084 3056 2656 
Q 3513 2228 3513 1497 
Q 3513 744 3044 326 
Q 2575 -91 1722 -91 
Q 1428 -91 1123 -41 
Q 819 9 494 109 
L 494 744 
Q 775 591 1075 516 
Q 1375 441 1709 441 
Q 2250 441 2565 725 
Q 2881 1009 2881 1497 
Q 2881 1984 2565 2268 
Q 2250 2553 1709 2553 
Q 1456 2553 1204 2497 
Q 953 2441 691 2322 
L 691 4666 
z
" transform="scale(0.015625)"/>
       </defs>
       <use xlink:href="#DejaVuSans-2212"/>
       <use xlink:href="#DejaVuSans-31" x="83.789062"/>
       <use xlink:href="#DejaVuSans-2e" x="147.412109"/>
       <use xlink:href="#DejaVuSans-35" x="179.199219"/>
      </g>
     </g>
    </g>
    <g id="ytick_3">
     <g id="line2d_3">
      <g>
       <use xlink:href="#mcf32ad56a3" x="75.973125" y="297.834164" style="stroke: #000000; stroke-width: 0.8"/>
      </g>
     </g>
     <g id="text_3">
      <!-- −1.0 -->
      <g transform="translate(28.620625 303.912914) scale(0.16 -0.16)">
       <use xlink:href="#DejaVuSans-2212"/>
       <use xlink:href="#DejaVuSans-31" x="83.789062"/>
       <use xlink:href="#DejaVuSans-2e" x="147.412109"/>
       <use xlink:href="#DejaVuSans-30" x="179.199219"/>
      </g>
     </g>
    </g>
    <g id="ytick_4">
     <g id="line2d_4">
      <g>
       <use xlink:href="#mcf32ad56a3" x="75.973125" y="263.636554" style="stroke: #000000; stroke-width: 0.8"/>
      </g>
     </g>
     <g id="text_4">
      <!-- −0.5 -->
      <g transform="translate(28.620625 269.715304) scale(0.16 -0.16)">
       <use xlink:href="#DejaVuSans-2212"/>
       <use xlink:href="#DejaVuSans-30" x="83.789062"/>
       <use xlink:href="#DejaVuSans-2e" x="147.412109"/>
       <use xlink:href="#DejaVuSans-35" x="179.199219"/>
      </g>
     </g>
    </g>
    <g id="ytick_5">
     <g id="line2d_5">
      <g>
       <use xlink:href="#mcf32ad56a3" x="75.973125" y="229.438944" style="stroke: #000000; stroke-width: 0.8"/>
      </g>
     </g>
     <g id="text_5">
      <!-- 0.0 -->
      <g transform="translate(42.028125 235.517694) scale(0.16 -0.16)">
       <use xlink:href="#DejaVuSans-30"/>
       <use xlink:href="#DejaVuSans-2e" x="63.623047"/>
       <use xlink:href="#DejaVuSans-30" x="95.410156"/>
      </g>
     </g>
    </g>
    <g id="ytick_6">
     <g id="line2d_6">
      <g>
       <use xlink:href="#mcf32ad56a3" x="75.973125" y="195.241334" style="stroke: #000000; stroke-width: 0.8"/>
      </g>
     </g>
     <g id="text_6">
      <!-- 0.5 -->
      <g transform="translate(42.028125 201.320084) scale(0.16 -0.16)">
       <use xlink:href="#DejaVuSans-30"/>
       <use xlink:href="#DejaVuSans-2e" x="63.623047"/>
       <use xlink:href="#DejaVuSans-35" x="95.410156"/>
      </g>
     </g>
    </g>
    <g id="ytick_7">
     <g id="line2d_7">
      <g>
       <use xlink:href="#mcf32ad56a3" x="75.973125" y="161.043724" style="stroke: #000000; stroke-width: 0.8"/>
      </g>
     </g>
     <g id="text_7">
      <!-- 1.0 -->
      <g transform="translate(42.028125 167.122474) scale(0.16 -0.16)">
       <use xlink:href="#DejaVuSans-31"/>
       <use xlink:href="#DejaVuSans-2e" x="63.623047"/>
       <use xlink:href="#DejaVuSans-30" x="95.410156"/>
      </g>
     </g>
    </g>
    <g id="ytick_8">
     <g id="line2d_8">
      <g>
       <use xlink:href="#mcf32ad56a3" x="75.973125" y="126.846114" style="stroke: #000000; stroke-width: 0.8"/>
      </g>
     </g>
     <g id="text_8">
      <!-- 1.5 -->
      <g transform="translate(42.028125 132.924864) scale(0.16 -0.16)">
       <use xlink:href="#DejaVuSans-31"/>
       <use xlink:href="#DejaVuSans-2e" x="63.623047"/>
       <use xlink:href="#DejaVuSans-35" x="95.410156"/>
      </g>
     </g>
    </g>
    <g id="ytick_9">
     <g id="line2d_9">
      <g>
       <use xlink:href="#mcf32ad56a3" x="75.973125" y="92.648504" style="stroke: #000000; stroke-width: 0.8"/>
      </g>
     </g>
     <g id="text_9">
      <!-- 2.0 -->
      <g transform="translate(42.028125 98.727254) scale(0.16 -0.16)">
       <use xlink:href="#DejaVuSans-32"/>
       <use xlink:href="#DejaVuSans-2e" x="63.623047"/>
       <use xlink:href="#DejaVuSans-30" x="95.410156"/>
      </g>
     </g>
    </g>
    <g id="text_10">
     <!-- y -->
     <g transform="translate(20.877187 242.574675) rotate(-90) scale(0.18 -0.18)">
      <defs>
       <path id="DejaVuSans-79" d="M 2059 -325 
Q 1816 -950 1584 -1140 
Q 1353 -1331 966 -1331 
L 506 -1331 
L 506 -850 
L 844 -850 
Q 1081 -850 1212 -737 
Q 1344 -625 1503 -206 
L 1606 56 
L 191 3500 
L 800 3500 
L 1894 763 
L 2988 3500 
L 3597 3500 
L 2059 -325 
z
" transform="scale(0.015625)"/>
      </defs>
      <use xlink:href="#DejaVuSans-79"/>
     </g>
    </g>
   </g>
   <g id="line2d_10">
    <path d="M 104.101619 268.575427 
L 105.423725 281.066129 
L 106.436401 292.755112 
L 107.561597 308.546831 
L 109.755729 340.2324 
L 110.093288 342.047913 
L 110.290197 342.328016 
L 110.402717 342.209887 
L 110.571497 341.636594 
L 110.824666 339.852091 
L 111.162224 335.686268 
L 111.612303 326.902103 
L 112.203031 310.199318 
L 114.425293 242.783945 
L 115.15667 228.92098 
L 115.888048 219.079423 
L 116.619425 212.053147 
L 117.435192 206.333013 
L 118.419739 201.046702 
L 121.935976 183.46467 
L 122.836133 177.118077 
L 123.68003 169.51799 
L 124.552057 159.59011 
L 125.508474 146.02796 
L 126.60554 127.107259 
L 127.786996 107.498812 
L 128.237074 103.239381 
L 128.490243 102.365473 
L 128.602763 102.409802 
L 128.743412 102.872151 
L 128.968452 104.601531 
L 129.277881 109.04128 
L 129.699829 118.891975 
L 130.318687 139.744354 
L 132.28778 210.733342 
L 133.019157 227.019936 
L 133.694275 237.386642 
L 134.397522 244.857762 
L 135.1289 250.34445 
L 135.944667 254.822815 
L 137.041733 259.556156 
L 139.460905 269.678114 
L 140.501711 275.269976 
L 141.401868 281.32808 
L 142.245765 288.571413 
L 143.117792 298.071519 
L 144.046078 310.789927 
L 145.086885 328.410954 
L 146.49338 352.145785 
L 146.943458 356.374972 
L 147.196627 357.202078 
L 147.309147 357.115649 
L 147.449796 356.562012 
L 147.674836 354.635989 
L 148.012394 349.398527 
L 148.462473 338.359398 
L 149.109461 316.067355 
L 150.909774 250.387048 
L 151.613022 233.914022 
L 152.288139 222.901224 
L 152.963257 215.266905 
L 153.666505 209.672419 
L 154.454142 205.114136 
L 155.466818 200.609004 
L 158.504847 187.88322 
L 159.489394 182.31302 
L 160.389551 175.907669 
L 161.261578 168.001286 
L 162.133605 157.963938 
L 163.033762 144.944565 
L 164.187087 124.679109 
L 165.256024 106.888056 
L 165.706102 102.578723 
L 165.959271 101.70455 
L 166.071791 101.750351 
L 166.21244 102.216037 
L 166.43748 103.953598 
L 166.746908 108.405854 
L 167.168857 118.254271 
L 167.759585 138.187688 
L 169.813068 212.473682 
L 170.516315 227.728481 
L 171.191433 237.904156 
L 171.89468 245.214202 
L 172.626058 250.571286 
L 173.469955 255.098151 
L 174.623281 259.96838 
L 176.845543 269.156243 
L 177.886349 274.601689 
L 178.786506 280.470063 
L 179.630403 287.482508 
L 180.50243 296.69726 
L 181.402587 308.649917 
L 182.387133 324.804237 
L 184.074927 353.138137 
L 184.496876 356.668609 
L 184.721915 357.218707 
L 184.834435 357.061337 
L 185.003214 356.231351 
L 185.256383 353.648238 
L 185.622072 347.15863 
L 186.10028 334.21144 
L 186.831658 307.29324 
L 188.181893 257.038888 
L 188.91327 238.007085 
L 189.588388 225.750153 
L 190.263506 217.245 
L 190.966753 211.077907 
L 191.72626 206.300711 
L 192.654547 201.899737 
L 194.426731 194.882666 
L 195.748836 189.144331 
L 196.761513 183.710161 
L 197.661669 177.674276 
L 198.533696 170.242545 
L 199.405723 160.791218 
L 200.30588 148.485562 
L 201.346686 130.920507 
L 202.809441 106.219578 
L 203.23139 102.427279 
L 203.484559 101.694406 
L 203.597078 101.810116 
L 203.765858 102.535279 
L 204.019027 104.924296 
L 204.356586 110.595867 
L 204.806664 122.370934 
L 205.481782 146.867291 
L 207.085186 206.259804 
L 207.788434 223.365111 
L 208.463551 234.878212 
L 209.138669 242.853077 
L 209.841916 248.69135 
L 210.629554 253.415284 
L 211.6141 257.912715 
L 214.933429 272.074818 
L 215.917975 277.865072 
L 216.790002 284.410901 
L 217.633899 292.493695 
L 218.534056 303.391214 
L 219.490472 317.84479 
L 221.853384 355.759682 
L 222.134683 357.122562 
L 222.247203 357.209748 
L 222.275333 357.185603 
L 222.415982 356.767551 
L 222.641021 355.06358 
L 222.95045 350.667866 
L 223.372399 341.067568 
L 223.963127 321.812295 
L 226.157259 244.026947 
L 226.860506 229.482276 
L 227.535624 219.82784 
L 228.210742 213.117562 
L 228.942119 207.94748 
L 229.786016 203.543659 
L 230.967472 198.645174 
L 233.049085 190.113081 
L 234.089891 184.746086 
L 235.018178 178.770092 
L 235.890205 171.640758 
L 236.762232 162.567526 
L 237.662388 150.717647 
L 238.675065 134.117875 
L 240.390989 105.330673 
L 240.784807 102.188033 
L 241.009847 101.692242 
L 241.122366 101.858001 
L 241.291146 102.662102 
L 241.544315 105.175399 
L 241.881874 111.015572 
L 242.331952 122.998988 
L 243.035199 148.790589 
L 244.554214 205.227388 
L 245.257462 222.632528 
L 245.932579 234.368997 
L 246.607697 242.498706 
L 247.310944 248.439604 
L 248.098582 253.23074 
L 249.054998 257.649798 
L 252.543106 272.641335 
L 253.499523 278.389166 
L 254.34342 284.838376 
L 255.187317 293.033165 
L 256.087473 304.068471 
L 257.04389 318.683993 
L 259.322412 355.494413 
L 259.631841 357.110167 
L 259.744361 357.21313 
L 259.77249 357.193184 
L 259.88501 356.915998 
L 260.081919 355.665216 
L 260.363218 352.199151 
L 260.757037 344.168537 
L 261.291505 328.102747 
L 262.219792 291.913251 
L 263.232468 255.742258 
L 263.963846 237.096282 
L 264.638963 225.114949 
L 265.314081 216.804782 
L 266.017328 210.766858 
L 266.804966 205.922486 
L 267.761382 201.484071 
L 271.36201 186.041332 
L 272.318426 180.19906 
L 273.190453 173.45637 
L 274.06248 164.873166 
L 274.934507 154.020382 
L 275.890924 139.140479 
L 278.056926 103.718708 
L 278.366355 101.895844 
L 278.507004 101.692099 
L 278.535134 101.70299 
L 278.647654 101.926342 
L 278.844563 103.037114 
L 279.125862 106.282105 
L 279.491551 113.441114 
L 279.997889 128.367164 
L 280.898046 163.27522 
L 282.023242 204.205496 
L 282.726489 221.919535 
L 283.401607 233.871707 
L 284.076725 242.15336 
L 284.779972 248.193876 
L 285.567609 253.049971 
L 286.524026 257.50592 
L 290.096523 272.910484 
L 291.05294 278.727558 
L 291.896837 285.268839 
L 292.740734 293.578368 
L 293.640891 304.753798 
L 294.597308 319.52924 
L 296.79144 355.206716 
L 297.128999 357.095219 
L 297.241518 357.214806 
L 297.269648 357.199317 
L 297.382168 356.940699 
L 297.579077 355.72223 
L 297.860376 352.301284 
L 298.254195 344.32963 
L 298.788663 328.32947 
L 299.71695 292.176582 
L 300.729626 255.940978 
L 301.461003 237.235767 
L 302.136121 225.212173 
L 302.811239 216.872064 
L 303.514486 210.814496 
L 304.273994 206.106929 
L 305.20228 201.747672 
L 307.199503 193.829249 
L 308.409089 188.41928 
L 309.393635 182.981243 
L 310.293792 176.753747 
L 311.165819 169.072235 
L 312.037846 159.312523 
L 312.938003 146.629241 
L 314.063199 127.171387 
L 315.272785 106.821152 
L 315.722863 102.543179 
L 315.976032 101.702688 
L 316.088552 101.765263 
L 316.229201 102.252714 
L 316.454241 104.02543 
L 316.763669 108.522895 
L 317.185618 118.418863 
L 317.776346 138.388799 
L 319.801699 211.870591 
L 320.504946 227.305463 
L 321.180064 237.611465 
L 321.855182 244.7635 
L 322.586559 250.245128 
L 323.402326 254.716269 
L 324.499392 259.425191 
L 326.946694 269.568172 
L 327.9875 275.105099 
L 328.887657 281.108315 
L 329.731554 288.298156 
L 330.603581 297.734988 
L 331.531867 310.365667 
L 332.544544 327.375634 
L 334.035429 352.493682 
L 334.457377 356.378096 
L 334.710546 357.208544 
L 334.823066 357.124054 
L 334.963715 356.575112 
L 335.188754 354.662736 
L 335.526313 349.450513 
L 335.976392 338.436107 
L 336.623379 316.141285 
L 338.423693 250.423099 
L 339.126941 233.938372 
L 339.802058 222.917691 
L 340.477176 215.279283 
L 341.180423 209.681035 
L 341.968061 205.120211 
L 342.980737 200.613353 
L 346.018766 187.886927 
L 347.003313 182.320015 
L 347.90347 175.915503 
L 348.775497 168.004136 
L 349.647524 157.962872 
L 350.54768 144.94571 
L 351.701006 124.691086 
L 352.769943 106.902861 
L 353.220021 102.58073 
L 353.47319 101.707635 
L 353.58571 101.754146 
L 353.726359 102.220505 
L 353.951398 103.957896 
L 354.260827 108.405801 
L 354.682776 118.238168 
L 355.273504 138.144076 
L 357.326986 212.431394 
L 358.030234 227.698838 
L 358.705352 237.883489 
L 359.380469 244.954734 
L 360.111847 250.382227 
L 360.927614 254.819952 
L 362.02468 259.511194 
L 364.443851 269.537116 
L 365.484658 275.066738 
L 366.384815 281.059471 
L 367.228712 288.236067 
L 368.100738 297.656548 
L 369.029025 310.267711 
L 370.041702 327.257962 
L 371.532586 352.414543 
L 371.954535 356.340111 
L 372.207704 357.204259 
L 372.320224 357.13736 
L 372.460873 356.611349 
L 372.685912 354.73553 
L 373.023471 349.576264 
L 373.47355 338.624675 
L 374.092407 317.475184 
L 375.977111 249.058053 
L 376.680358 232.982653 
L 377.355476 222.254093 
L 378.030593 214.816972 
L 378.761971 209.164984 
L 379.577738 204.595554 
L 380.618544 200.074167 
L 383.347145 188.760255 
L 384.359821 183.23254 
L 385.259978 177.07148 
L 386.132005 169.476948 
L 387.004032 159.824382 
L 387.904189 147.270748 
L 389.001255 128.446176 
L 390.29523 106.6295 
L 390.717179 102.619605 
L 390.970348 101.713476 
L 391.082867 101.743673 
L 391.223517 102.188595 
L 391.448556 103.89008 
L 391.757985 108.287666 
L 392.179934 118.055648 
L 392.770661 137.89675 
L 394.824144 212.264209 
L 395.527392 227.581619 
L 396.202509 237.802441 
L 396.877627 244.897734 
L 397.609004 250.341339 
L 398.424772 254.788998 
L 399.521838 259.485484 
L 401.941009 269.506108 
L 402.981815 275.028539 
L 403.881972 281.010865 
L 404.725869 288.174198 
L 405.597896 297.578262 
L 406.526183 310.169907 
L 407.538859 327.140498 
L 409.029744 352.335031 
L 409.479823 356.463833 
L 409.732992 357.214712 
L 409.817381 357.149617 
L 409.958031 356.646486 
L 410.18307 354.807208 
L 410.492499 350.231199 
L 410.914447 340.407431 
L 411.505175 320.916937 
L 413.643048 244.825463 
L 414.346295 230.0359 
L 415.021413 220.211271 
L 415.696531 213.387287 
L 416.427908 208.14213 
L 417.271805 203.691645 
L 418.425131 198.87978 
L 420.591133 190.000261 
L 421.63194 184.606156 
L 422.560226 178.594265 
L 423.432253 171.416295 
L 424.30428 162.281755 
L 425.204437 150.358015 
L 426.217114 133.681658 
L 427.904908 105.374034 
L 428.298726 102.205439 
L 428.523765 101.69213 
L 428.636285 101.84838 
L 428.805064 102.637475 
L 429.058234 105.127103 
L 429.395792 110.93503 
L 429.845871 122.878282 
L 430.549118 148.636547 
L 432.068133 205.107493 
L 432.77138 222.550926 
L 433.446498 234.311943 
L 434.121616 242.459117 
L 434.824863 248.41124 
L 435.6125 253.209597 
L 436.568917 257.632705 
L 440.057025 272.618218 
L 441.013441 278.359762 
L 441.857338 284.80122 
L 442.701235 292.986638 
L 443.601392 304.010357 
L 444.557809 318.611652 
L 446.836331 355.459633 
L 447.14576 357.100412 
L 447.258279 357.214318 
L 447.286409 357.197313 
L 447.398929 356.932339 
L 447.595838 355.702787 
L 447.877137 352.266343 
L 448.270956 344.274447 
L 448.805424 328.251846 
L 449.733711 292.086472 
L 450.746387 255.872948 
L 451.477764 237.188011 
L 452.152882 225.178884 
L 452.828 216.849023 
L 453.531247 210.798186 
L 454.290755 206.094882 
L 455.219041 201.738148 
L 457.244394 193.704656 
L 458.45398 188.267918 
L 459.438526 182.793538 
L 460.338683 176.516099 
L 461.21071 168.769348 
L 462.082737 158.929509 
L 462.982894 146.150141 
L 464.10809 126.609934 
L 465.289546 106.792435 
L 465.739624 102.530015 
L 465.992793 101.701218 
L 466.105313 101.769561 
L 466.245962 102.264581 
L 466.471002 104.049938 
L 466.780431 108.565026 
L 467.202379 118.483333 
L 467.793107 138.475355 
L 469.81846 211.92928 
L 470.521707 227.346659 
L 471.196825 237.639952 
L 471.871943 244.783515 
L 472.60332 250.259437 
L 473.419087 254.72705 
L 474.516153 259.434087 
L 476.963455 269.578843 
L 478.004261 275.118212 
L 478.904418 281.125 
L 479.748315 288.319431 
L 480.620342 297.761951 
L 481.548628 310.399348 
L 482.561305 327.415969 
L 484.05219 352.520658 
L 484.474138 356.39088 
L 484.727307 357.209754 
L 484.811697 357.170977 
L 484.952346 356.713618 
L 485.177386 354.947472 
L 485.486815 350.469091 
L 485.908763 340.765778 
L 486.499491 321.400023 
L 488.665493 244.44664 
L 489.368741 229.77322 
L 490.043858 220.029358 
L 490.718976 213.259401 
L 491.450354 208.049879 
L 492.294251 203.621543 
L 493.475706 198.710907 
L 495.585449 190.06057 
L 496.626255 184.680939 
L 497.554542 178.688434 
L 498.426569 171.536153 
L 499.298596 162.433851 
L 500.198753 150.549532 
L 501.211429 133.91366 
L 502.899223 105.519514 
L 503.293042 102.266331 
L 503.518081 101.692441 
L 503.630601 101.815634 
L 503.79938 102.552658 
L 504.052549 104.960889 
L 504.390108 110.660262 
L 504.840186 122.473634 
L 505.515304 147.001829 
L 507.118708 206.372435 
L 507.821956 223.437942 
L 508.497073 234.929439 
L 509.172191 242.888571 
L 509.875439 248.717256 
L 510.663076 253.435195 
L 511.647622 257.929365 
L 514.938821 271.950297 
L 515.923367 277.710368 
L 516.795394 284.21248 
L 517.639291 292.241051 
L 518.539448 303.072009 
L 519.495865 317.450764 
L 521.886906 355.794111 
L 522.168205 357.132193 
L 522.280725 357.20749 
L 522.308855 357.180083 
L 522.449504 356.7456 
L 522.674543 355.016035 
L 522.983972 350.586548 
L 523.405921 340.943679 
L 523.996649 321.640808 
L 526.190781 243.911079 
L 526.894029 229.40212 
L 527.569146 219.7724 
L 528.244264 213.078575 
L 528.975641 207.919208 
L 529.819538 203.52198 
L 531.000994 198.626593 
L 533.082607 190.090669 
L 534.123413 184.718249 
L 535.0517 178.735391 
L 535.923727 171.595914 
L 536.795754 162.509694 
L 537.69591 150.645052 
L 538.708587 134.029504 
L 540.424511 105.277619 
L 540.818329 102.166371 
L 541.043369 101.694005 
L 541.155888 101.87255 
L 541.324668 102.696717 
L 541.577837 105.241069 
L 541.915396 111.121807 
L 542.365474 123.151867 
L 543.068722 148.983633 
L 544.587736 205.363945 
L 545.290984 222.730706 
L 545.966101 234.437179 
L 546.641219 242.546161 
L 547.344466 248.473189 
L 548.132104 253.255171 
L 549.08852 257.669001 
L 552.548498 272.513821 
L 553.504915 278.228773 
L 554.348812 284.634777 
L 555.192709 292.775938 
L 556.092866 303.74538 
L 557.049282 318.284117 
L 559.355934 355.529332 
L 559.665363 357.119242 
L 559.777883 357.21107 
L 559.806012 357.188139 
L 559.946662 356.776525 
L 560.171701 355.08355 
L 560.48113 350.703009 
L 560.903079 341.120729 
L 561.493807 321.881081 
L 563.687939 244.070646 
L 564.391186 229.512656 
L 565.066304 219.848933 
L 565.741422 213.132456 
L 566.472799 207.958172 
L 567.316696 203.551701 
L 568.498152 198.651801 
L 570.579765 190.120732 
L 571.620571 184.755504 
L 572.548858 178.782263 
L 573.420884 171.655563 
L 574.292911 162.5854 
L 575.193068 150.740413 
L 576.205745 134.14524 
L 577.921669 105.349293 
L 578.315487 102.195315 
L 578.540526 101.692447 
L 578.653046 101.854386 
L 578.821825 102.652434 
L 579.074995 105.15604 
L 579.412553 110.982581 
L 579.862632 122.948057 
L 580.565879 148.725219 
L 582.084894 205.173165 
L 582.788141 222.596953 
L 583.463259 234.344011 
L 584.138377 242.481403 
L 584.841624 248.427098 
L 585.629261 253.221259 
L 586.585678 257.641989 
L 590.073786 272.6302 
L 591.030202 278.374813 
L 591.874099 284.820346 
L 592.717996 293.010842 
L 593.618153 304.040784 
L 594.57457 318.649251 
L 596.853092 355.477577 
L 597.162521 357.105384 
L 597.27504 357.213658 
L 597.30317 357.195147 
L 597.41569 356.923894 
L 597.612599 355.683322 
L 597.893898 352.231404 
L 598.287717 344.219349 
L 598.822185 328.17471 
L 599.750472 291.99749 
L 600.763148 255.805857 
L 601.494525 237.140942 
L 602.169643 225.146075 
L 602.844761 216.826295 
L 603.548008 210.782102 
L 604.335645 205.933667 
L 605.292062 201.49295 
L 608.892689 186.053155 
L 609.849106 180.213747 
L 610.721133 173.47519 
L 611.59316 164.897444 
L 612.465187 154.050946 
L 613.421603 139.178148 
L 615.615736 103.499723 
L 615.925165 101.826599 
L 616.065814 101.701323 
L 616.093944 101.728578 
L 616.234594 102.138289 
L 616.459633 103.780704 
L 616.769062 108.095301 
L 617.19101 117.756679 
L 617.753608 136.425988 
L 619.919611 214.130854 
L 620.622858 228.887928 
L 621.297976 238.705225 
L 622.001223 245.77079 
L 622.732601 250.970401 
L 623.576498 255.399006 
L 624.757953 260.329629 
L 626.839566 268.922964 
L 627.880372 274.31199 
L 628.780529 280.101997 
L 629.624426 287.017509 
L 630.496453 296.11292 
L 631.39661 307.923844 
L 632.381157 323.914578 
L 634.15334 353.525579 
L 634.547159 356.695164 
L 634.772198 357.215259 
L 634.884718 357.041148 
L 635.053497 356.184423 
L 635.306666 353.559988 
L 635.672355 347.013849 
L 636.150563 334.008693 
L 636.881941 307.051484 
L 638.232176 256.856173 
L 638.963553 237.879011 
L 639.638671 225.660754 
L 640.313789 217.182722 
L 641.017036 211.034055 
L 641.776543 206.268661 
L 642.70483 201.874945 
L 644.505144 194.747541 
L 645.799119 189.117321 
L 646.811796 183.676275 
L 647.711953 177.631273 
L 648.583979 170.190061 
L 649.456006 160.727176 
L 650.356163 148.403422 
L 651.425099 130.309628 
L 652.831594 106.493512 
L 653.253543 102.554668 
L 653.506712 101.704146 
L 653.619232 101.761786 
L 653.759881 102.242759 
L 653.98492 104.004617 
L 654.294349 108.486818 
L 654.716298 118.363111 
L 655.307026 138.313159 
L 657.332379 211.818888 
L 658.035626 227.269179 
L 658.710744 237.586361 
L 659.385861 244.745861 
L 660.117239 250.232457 
L 660.933006 254.706669 
L 662.030072 259.417205 
L 664.477373 269.55845 
L 665.49005 274.953669 
L 666.418337 281.153879 
L 666.671506 283.118642 
L 666.671506 283.118642 
" clip-path="url(#p053df05af8)" style="fill: none; stroke-dasharray: 11.1,4.8; stroke-dashoffset: 0; stroke: #000000; stroke-opacity: 0.7; stroke-width: 3"/>
   </g>
   <g id="line2d_11">
    <path d="M 104.101619 268.575427 
L 104.692347 271.692557 
L 104.945516 272.279785 
L 105.086166 272.215847 
L 105.451855 271.949807 
L 105.620634 272.122772 
L 106.211362 272.967601 
L 106.436401 272.964458 
L 106.68957 272.590525 
L 107.167779 271.9558 
L 107.449078 271.891221 
L 107.674117 272.079678 
L 107.899156 272.584512 
L 108.152325 273.722491 
L 108.433624 276.104055 
L 109.193131 285.928233 
L 109.50256 292.930196 
L 109.924509 302.120802 
L 110.712146 313.044238 
L 111.668563 326.888219 
L 112.174901 332.43238 
L 112.596849 335.114162 
L 113.384487 338.653106 
L 113.637656 339.625172 
L 113.722045 339.628466 
L 113.834565 339.194977 
L 114.003344 337.232736 
L 114.312773 330.355511 
L 114.734722 315.970841 
L 116.084957 263.862744 
L 117.182023 236.37643 
L 118.588518 215.041508 
L 119.122986 209.909861 
L 119.629325 207.008776 
L 119.966883 205.990797 
L 120.473222 204.904002 
L 120.782651 203.453838 
L 122.470445 193.622361 
L 122.695484 193.35403 
L 123.033043 193.189243 
L 123.286212 192.686157 
L 123.961329 190.673324 
L 124.495797 187.544123 
L 124.945876 185.5369 
L 125.395954 183.543607 
L 125.761643 180.658313 
L 126.183591 175.366405 
L 126.57741 170.833683 
L 126.802449 170.310988 
L 127.140008 169.854829 
L 127.365047 168.963354 
L 127.618216 166.84505 
L 128.462113 155.93602 
L 130.009258 130.374817 
L 131.106324 106.580207 
L 131.387623 105.279382 
L 131.500143 105.237963 
L 131.528273 105.26142 
L 131.922091 105.866561 
L 132.119001 106.562482 
L 132.4003 108.661903 
L 132.794118 113.526303 
L 133.244197 122.144129 
L 133.638015 133.806552 
L 135.916537 215.610678 
L 136.704174 231.859075 
L 137.463682 244.524087 
L 138.335709 254.82963 
L 138.701397 257.298551 
L 138.954566 257.811936 
L 139.207736 257.8281 
L 139.601554 257.847638 
L 139.854723 258.187471 
L 140.361061 259.313524 
L 140.614231 260.831112 
L 141.233088 264.991518 
L 141.626907 266.023531 
L 142.414544 269.223964 
L 142.667713 269.933741 
L 142.949012 271.516693 
L 143.286571 273.205862 
L 143.56787 273.974177 
L 143.989819 276.520352 
L 144.411767 279.885552 
L 145.311924 288.038576 
L 145.818262 291.49868 
L 147.252887 308.490782 
L 149.22198 342.854794 
L 149.700189 350.335179 
L 150.037747 354.298006 
L 150.262787 354.936845 
L 150.459696 354.989345 
L 150.628475 354.759543 
L 150.825385 354.033104 
L 151.106684 351.91908 
L 151.444242 347.535874 
L 151.922451 337.710514 
L 152.344399 324.573933 
L 152.822608 301.333131 
L 153.385206 277.806066 
L 154.510402 243.205197 
L 155.101129 231.682265 
L 156.141936 214.840628 
L 156.676404 209.406806 
L 157.267132 205.373796 
L 157.71721 204.023186 
L 158.195419 202.564767 
L 158.729887 200.078716 
L 159.123705 197.936967 
L 159.264355 197.902252 
L 159.658173 198.21043 
L 159.686303 198.17746 
L 159.826953 197.768343 
L 160.55833 194.781759 
L 160.811499 194.304119 
L 161.261578 192.749394 
L 161.627266 191.004448 
L 162.274254 186.194561 
L 162.696203 184.121675 
L 163.118151 181.905958 
L 163.59636 177.942866 
L 163.962048 173.010267 
L 164.327737 168.944756 
L 164.749685 167.409632 
L 165.030984 165.720964 
L 165.312283 162.511143 
L 167.422026 129.703691 
L 168.406573 111.437359 
L 168.772261 106.719687 
L 169.08169 105.268432 
L 169.25047 105.164746 
L 169.531769 105.507781 
L 169.700548 105.954748 
L 169.925587 107.483093 
L 170.263146 111.610283 
L 170.685095 119.746735 
L 171.078913 131.880348 
L 172.991746 204.033337 
L 173.582474 219.091312 
L 174.79206 241.317689 
L 175.354658 247.88066 
L 176.114165 254.673375 
L 176.423594 255.604167 
L 177.492531 257.371138 
L 177.830089 258.417493 
L 178.111388 260.313631 
L 178.673986 264.139285 
L 179.152195 265.645082 
L 179.742923 268.433897 
L 180.108611 269.192615 
L 180.38991 270.502804 
L 181.486976 277.036129 
L 181.768275 278.323616 
L 182.077704 281.040632 
L 182.724692 287.082094 
L 183.37168 291.037091 
L 183.737369 296.585406 
L 184.103057 300.741141 
L 184.609395 304.823897 
L 185.031344 311.650522 
L 186.719138 340.829356 
L 187.197346 348.661183 
L 187.563035 353.829393 
L 187.788074 354.576492 
L 188.041243 354.765601 
L 188.210023 354.673704 
L 188.378802 354.281496 
L 188.575711 353.156155 
L 188.85701 349.814783 
L 189.335219 340.966805 
L 189.785297 328.881582 
L 190.179116 312.209678 
L 190.966753 277.184365 
L 192.176339 240.660707 
L 192.907716 226.394846 
L 193.695353 214.106315 
L 194.314211 207.59513 
L 194.79242 204.167423 
L 195.158108 203.130937 
L 195.664446 201.847821 
L 196.170785 199.716438 
L 196.705253 196.874863 
L 196.874032 196.917181 
L 197.099071 196.948233 
L 197.239721 196.682866 
L 197.49289 195.565313 
L 197.830449 194.439501 
L 198.308657 193.653466 
L 198.758736 191.894602 
L 199.124424 189.741458 
L 200.080841 183.339561 
L 200.502789 180.787898 
L 200.980998 176.35662 
L 201.909284 166.627213 
L 202.246843 164.801577 
L 202.528142 161.874277 
L 202.921961 154.776965 
L 203.850248 139.221368 
L 204.778534 124.29269 
L 205.284873 117.569963 
L 205.650561 112.869641 
L 206.12877 106.97796 
L 206.438198 105.259602 
L 206.578848 105.155475 
L 206.775757 105.438413 
L 207.057056 106.12662 
L 207.253966 107.488115 
L 207.591524 111.827456 
L 208.013473 120.353246 
L 208.407292 133.062029 
L 209.870046 190.3111 
L 210.742073 215.704438 
L 211.55784 231.460245 
L 212.289218 243.087804 
L 212.851816 248.41375 
L 213.555063 254.404203 
L 213.864492 255.354443 
L 214.314571 255.875003 
L 214.680259 256.450756 
L 215.242857 257.840879 
L 215.496027 259.423241 
L 216.143014 263.884261 
L 216.536833 265.039117 
L 217.26821 268.285938 
L 217.549509 268.881189 
L 217.830808 270.122214 
L 219.406083 280.312946 
L 220.24998 288.031592 
L 220.700058 291.340358 
L 222.162813 309.204673 
L 224.188166 344.374162 
L 225.032063 355.155632 
L 225.285232 355.466266 
L 225.482141 355.421244 
L 225.650921 355.075754 
L 225.84783 354.105661 
L 226.100999 351.629212 
L 226.494818 345.077877 
L 227.001156 332.869131 
L 227.423104 316.849763 
L 228.463911 272.215035 
L 229.532847 239.329764 
L 230.207965 226.374147 
L 231.023732 213.789254 
L 231.5582 208.411827 
L 232.092668 205.009238 
L 232.458357 204.041063 
L 232.936565 202.857191 
L 233.414773 200.798343 
L 233.780462 198.192207 
L 234.033631 197.159276 
L 234.23054 197.107048 
L 234.42745 197.051998 
L 234.596229 196.660626 
L 235.271347 194.579808 
L 235.524516 194.284706 
L 235.805815 193.479074 
L 236.368413 191.012732 
L 236.931011 186.859446 
L 237.352959 184.458221 
L 237.859298 182.018275 
L 238.365636 178.125904 
L 238.703195 174.082448 
L 239.153273 168.968613 
L 239.94091 165.012622 
L 240.250339 160.530186 
L 241.488055 140.268046 
L 242.022523 132.286018 
L 243.316498 109.169009 
L 243.654057 105.60779 
L 243.907226 104.702288 
L 244.047876 104.731567 
L 244.357305 105.206866 
L 244.526084 105.881131 
L 244.779253 108.037414 
L 245.144942 113.179656 
L 245.566891 122.479199 
L 245.960709 136.537996 
L 247.029645 179.097314 
L 247.986062 209.186015 
L 248.60492 223.15969 
L 249.701986 242.843504 
L 250.517753 252.39734 
L 250.911572 255.643148 
L 251.192871 256.560596 
L 251.44604 256.724934 
L 251.867988 256.894259 
L 252.149287 257.337049 
L 252.655626 258.559119 
L 252.908795 260.157868 
L 253.527652 264.455961 
L 253.949601 265.735975 
L 254.596589 268.674184 
L 254.906018 269.324629 
L 255.187317 270.61987 
L 256.762591 281.081774 
L 257.550228 288.27636 
L 258.056566 291.878809 
L 259.631841 311.434327 
L 261.235245 340.690553 
L 261.685324 346.686002 
L 262.332311 355.635889 
L 262.557351 355.935761 
L 262.78239 355.876249 
L 262.979299 355.553678 
L 263.176208 354.669016 
L 263.401248 352.400193 
L 263.823196 345.32101 
L 264.357664 332.825796 
L 264.751483 318.260504 
L 265.932939 267.769534 
L 266.804966 241.444527 
L 267.395694 229.803451 
L 268.38024 214.076812 
L 268.886578 209.040969 
L 269.477306 205.354744 
L 269.871125 204.258117 
L 270.405593 202.882423 
L 270.940061 200.675037 
L 271.502659 197.863069 
L 271.643309 197.943522 
L 271.924608 198.121505 
L 272.065257 197.859057 
L 272.262166 196.837027 
L 272.627855 195.127073 
L 273.218583 194.124888 
L 273.837441 191.739647 
L 274.231259 189.101372 
L 274.878247 184.962998 
L 275.440845 182.384063 
L 275.890924 178.911426 
L 276.228482 174.815406 
L 276.678561 169.516583 
L 277.04425 168.352668 
L 277.325549 167.004113 
L 277.606848 164.312963 
L 278.619524 149.813192 
L 279.210252 141.209936 
L 279.60407 135.779238 
L 280.532357 117.199051 
L 281.038695 107.827368 
L 281.348124 105.810018 
L 281.573164 105.359741 
L 281.741943 105.48801 
L 282.023242 105.961124 
L 282.220151 107.026521 
L 282.52958 110.201524 
L 282.923399 116.572948 
L 283.345347 127.162929 
L 283.795426 145.280853 
L 284.779972 183.580378 
L 285.708259 213.179501 
L 286.439636 228.339076 
L 287.283533 242.935843 
L 288.043041 251.728949 
L 288.464989 255.019151 
L 288.746288 255.925387 
L 289.083847 256.253049 
L 289.449536 256.641858 
L 289.871484 257.535328 
L 290.209043 258.528222 
L 290.490342 260.37182 
L 291.05294 264.180773 
L 291.559278 265.788034 
L 292.093746 268.375674 
L 292.515695 269.210756 
L 292.796994 270.549335 
L 293.86593 276.985048 
L 294.175359 278.421533 
L 294.484788 281.191327 
L 295.103646 286.899264 
L 295.806893 291.32982 
L 296.79144 302.40175 
L 297.072739 305.454664 
L 298.141675 322.503701 
L 299.013702 338.995082 
L 299.435651 344.897721 
L 300.054508 353.704165 
L 300.279548 354.205458 
L 300.504587 354.294182 
L 300.673366 354.086419 
L 300.870276 353.378668 
L 301.123445 351.403226 
L 301.461003 346.530893 
L 301.967342 335.639833 
L 302.38929 321.648195 
L 303.992694 257.561017 
L 304.752202 238.014356 
L 305.849268 218.63906 
L 306.468126 211.041095 
L 307.171373 204.920054 
L 307.565192 203.522811 
L 308.09966 201.75365 
L 308.577868 199.350184 
L 308.971687 197.163112 
L 309.112336 197.163369 
L 309.534285 197.602953 
L 309.562415 197.572329 
L 309.703064 197.179627 
L 310.462572 194.182027 
L 310.715741 193.589389 
L 311.165819 191.737446 
L 311.559638 189.324198 
L 312.459795 183.315228 
L 312.853613 180.944679 
L 313.388081 176.067042 
L 314.260108 166.741771 
L 314.597667 165.092981 
L 314.878966 162.488758 
L 315.216525 156.812545 
L 316.060422 141.955894 
L 318.535853 106.454083 
L 318.817152 105.059788 
L 318.957802 104.988161 
L 319.182841 105.342138 
L 319.43601 105.954911 
L 319.632919 107.279112 
L 319.970478 111.605131 
L 320.392427 120.184244 
L 320.786245 133.089995 
L 322.16461 187.225609 
L 323.092897 215.059977 
L 323.796145 228.808268 
L 324.640042 242.742615 
L 325.14638 247.574502 
L 326.018407 254.556609 
L 326.327836 255.267151 
L 327.256122 256.813233 
L 327.621811 257.841623 
L 327.87498 259.483329 
L 328.493838 263.774916 
L 328.915787 264.996161 
L 329.619034 268.155701 
L 329.928463 268.782412 
L 330.209762 270.011019 
L 331.785037 280.169704 
L 332.657063 288.141703 
L 333.050882 290.929719 
L 333.416571 295.956905 
L 333.922909 301.840946 
L 334.344857 305.984273 
L 334.823066 314.470022 
L 335.751353 332.576882 
L 336.088911 338.503394 
L 336.623379 345.413844 
L 337.354757 355.223011 
L 337.607926 355.639077 
L 337.832965 355.663993 
L 338.001745 355.378104 
L 338.198654 354.471444 
L 338.451823 351.985008 
L 338.845642 345.416885 
L 339.35198 333.357035 
L 339.773928 317.54663 
L 340.842865 271.837291 
L 341.911801 239.104105 
L 342.586918 226.110545 
L 343.374556 213.898286 
L 343.937154 208.153965 
L 344.471622 204.777032 
L 344.83731 203.86558 
L 345.287389 202.826866 
L 345.765597 200.85916 
L 346.075026 198.72436 
L 346.384455 197.099021 
L 346.581364 196.968062 
L 346.778274 196.870083 
L 346.947053 196.45203 
L 347.537781 194.551598 
L 347.84721 194.275799 
L 348.100379 193.612173 
L 348.634847 191.33644 
L 349.056796 188.329543 
L 349.675653 184.299508 
L 350.181992 181.726565 
L 350.68833 177.610006 
L 351.054019 172.92259 
L 351.447837 168.569629 
L 352.263604 164.216684 
L 352.573033 159.468253 
L 353.641969 141.571806 
L 354.513996 128.015614 
L 355.723582 108.583435 
L 356.061141 105.584227 
L 356.28618 104.97876 
L 356.42683 105.069409 
L 356.736259 105.62501 
L 356.933168 106.649356 
L 357.242597 109.948208 
L 357.636415 116.657702 
L 358.058364 128.061786 
L 358.620962 151.972703 
L 359.858678 196.521367 
L 360.646315 217.553731 
L 361.799641 239.433853 
L 362.362239 246.565022 
L 363.403045 256.026117 
L 363.656214 256.445028 
L 364.387592 257.055045 
L 364.95019 258.343879 
L 365.203359 259.846889 
L 365.878476 264.474351 
L 366.244165 265.587959 
L 366.975542 268.803109 
L 367.256841 269.489674 
L 367.53814 270.909208 
L 369.197805 282.55393 
L 369.844792 288.420197 
L 370.351131 292.184723 
L 371.982665 313.072204 
L 373.44542 340.089489 
L 373.839238 344.918006 
L 374.711265 356.063874 
L 374.936304 356.177246 
L 375.161344 356.046874 
L 375.330123 355.689627 
L 375.498902 354.790949 
L 375.752071 351.89219 
L 376.25841 342.795674 
L 376.736618 330.630075 
L 377.130437 314.805793 
L 378.058723 273.793507 
L 379.183919 239.176647 
L 379.802777 227.370221 
L 380.674804 213.792246 
L 381.181142 208.788256 
L 381.77187 205.268977 
L 382.137559 204.311505 
L 382.672027 203.085861 
L 383.206495 200.982266 
L 383.853483 197.825674 
L 383.881613 197.832859 
L 384.275431 197.969861 
L 384.416081 197.59238 
L 385.119328 194.966579 
L 385.372498 194.605479 
L 385.710056 193.550925 
L 386.244524 191.275877 
L 386.807122 187.232576 
L 387.229071 184.956097 
L 387.735409 182.748741 
L 388.185488 179.493783 
L 388.551176 175.358761 
L 389.029385 169.771885 
L 389.423203 168.595997 
L 389.676372 167.375078 
L 389.957671 164.710451 
L 390.998478 150.01219 
L 391.589206 141.532377 
L 391.983024 136.158596 
L 392.770661 120.383381 
L 393.445779 107.335281 
L 393.783338 105.508703 
L 393.952117 105.376407 
L 394.233416 105.666266 
L 394.402196 106.103563 
L 394.627235 107.553113 
L 394.992924 111.788255 
L 395.414872 119.517634 
L 395.808691 130.766088 
L 398.284122 217.960929 
L 399.465578 240.415437 
L 400.084436 248.379906 
L 400.759553 255.036538 
L 401.068982 256.165421 
L 401.350281 256.416314 
L 401.80036 256.737348 
L 402.137918 257.377239 
L 402.587997 258.623942 
L 402.869296 260.513331 
L 403.403764 264.153525 
L 403.938232 265.863677 
L 404.44457 268.305021 
L 404.894649 269.169316 
L 405.147818 270.344898 
L 406.976261 282.492935 
L 407.538859 287.125837 
L 408.101457 290.347097 
L 408.439016 294.991634 
L 408.889095 300.308647 
L 409.423563 305.012312 
L 409.986161 314.576309 
L 410.745668 327.785422 
L 411.139487 336.086751 
L 411.898994 345.933717 
L 412.405332 353.109403 
L 412.658501 353.841875 
L 412.883541 353.942325 
L 413.02419 353.7566 
L 413.221099 353.032436 
L 413.502398 350.934246 
L 413.811827 346.871613 
L 414.261906 337.641373 
L 414.683854 324.705031 
L 415.133933 302.810452 
L 415.668401 279.406131 
L 416.793597 245.715776 
L 417.412455 233.030967 
L 418.397001 216.465583 
L 419.015859 209.558872 
L 419.550327 205.14454 
L 419.972276 203.645907 
L 420.506744 201.811212 
L 420.956822 199.524026 
L 421.350641 197.381547 
L 421.49129 197.40298 
L 421.913239 197.887003 
L 421.941369 197.855058 
L 422.082018 197.434189 
L 422.841525 194.234363 
L 423.094695 193.62793 
L 423.601033 191.554562 
L 423.994851 189.034041 
L 424.810618 183.615984 
L 425.232567 181.232382 
L 425.767035 176.59904 
L 426.160854 170.904935 
L 426.470283 167.778457 
L 427.22979 163.528044 
L 427.539219 159.005893 
L 428.720675 138.959841 
L 429.395792 128.284911 
L 430.12717 116.964643 
L 431.224236 105.152875 
L 431.364885 105.05148 
L 431.393015 105.072401 
L 431.702444 105.57044 
L 431.871224 106.08918 
L 432.068133 107.536203 
L 432.405692 111.998236 
L 432.82764 120.797326 
L 433.193329 132.952946 
L 434.599824 188.017311 
L 435.499981 215.006461 
L 436.203228 228.790303 
L 437.047125 242.754556 
L 437.581593 247.909655 
L 438.341101 254.224784 
L 438.65053 255.117192 
L 439.803856 257.224054 
L 440.057025 258.145708 
L 440.366454 260.455887 
L 440.844662 263.723089 
L 441.37913 265.445129 
L 441.913598 268.035553 
L 442.363677 268.942898 
L 442.644976 270.309444 
L 444.389029 282.494928 
L 444.979757 287.788337 
L 445.486096 291.404945 
L 445.964304 298.351029 
L 446.386252 302.508713 
L 446.723811 305.856355 
L 447.17389 313.766038 
L 448.917943 344.076646 
L 449.78997 355.574649 
L 450.04314 355.864777 
L 450.240049 355.867289 
L 450.408828 355.56674 
L 450.605738 354.56767 
L 450.858907 351.808912 
L 451.308985 343.851434 
L 451.787193 331.859241 
L 452.209142 315.093492 
L 453.109299 275.771883 
L 454.290755 239.282198 
L 454.965872 226.206062 
L 455.781639 213.565305 
L 456.344237 207.849739 
L 456.850576 204.611776 
L 457.216264 203.712831 
L 457.694473 202.660393 
L 458.172681 200.739176 
L 458.48211 198.580262 
L 458.763409 197.109365 
L 458.960318 196.949967 
L 459.157227 196.851355 
L 459.326007 196.440057 
L 459.944865 194.498042 
L 460.226164 194.253385 
L 460.479333 193.585398 
L 461.013801 191.238857 
L 461.435749 188.156505 
L 462.026477 184.203983 
L 462.532815 181.533257 
L 463.011024 177.518134 
L 463.376713 172.81393 
L 463.770531 168.253585 
L 464.16435 166.756411 
L 464.445649 165.113328 
L 464.726948 161.898574 
L 468.411965 105.87403 
L 468.637004 105.175802 
L 468.749524 105.210396 
L 469.058952 105.72431 
L 469.227732 106.390031 
L 469.480901 108.644895 
L 469.87472 114.524452 
L 470.296668 124.580813 
L 470.690487 139.939107 
L 471.534384 173.999969 
L 472.46267 204.476869 
L 473.137788 220.570961 
L 474.347374 242.245265 
L 474.938102 248.600099 
L 475.641349 255.245708 
L 475.922648 256.092596 
L 476.260207 256.362767 
L 476.625896 256.701928 
L 477.104104 257.61829 
L 477.357273 258.409016 
L 477.638572 260.329924 
L 478.20117 264.261117 
L 478.651249 265.73377 
L 479.270106 268.633703 
L 479.607665 269.388845 
L 479.888964 270.759488 
L 481.520499 281.929306 
L 482.195616 288.195825 
L 482.758214 292.567828 
L 483.770891 304.166142 
L 484.05219 307.535495 
L 485.121126 326.489798 
L 485.683724 338.689217 
L 486.161932 344.05292 
L 487.090219 355.807068 
L 487.315258 355.932825 
L 487.540297 355.80357 
L 487.709077 355.444326 
L 487.905986 354.363029 
L 488.159155 351.377763 
L 488.665493 342.099827 
L 489.143702 329.484775 
L 489.56565 311.738676 
L 490.353287 276.572538 
L 491.534743 239.677817 
L 492.125471 228.218075 
L 493.025628 214.086219 
L 493.531966 208.931456 
L 494.122694 205.294943 
L 494.488383 204.316923 
L 495.050981 203.003767 
L 495.585449 200.783135 
L 496.204307 197.717228 
L 496.401216 197.844716 
L 496.598125 197.852991 
L 496.738775 197.536925 
L 496.991944 196.171627 
L 497.273243 195.092906 
L 497.892101 194.079633 
L 498.510959 191.658652 
L 498.932907 188.809718 
L 499.551765 184.994311 
L 500.114363 182.510223 
L 500.592571 178.957309 
L 500.93013 174.980177 
L 501.380209 169.786883 
L 501.745897 168.691811 
L 501.999066 167.56203 
L 502.280365 165.06228 
L 503.124262 153.352991 
L 504.896446 124.627581 
L 505.937252 106.062062 
L 506.190422 105.191 
L 506.331071 105.217221 
L 506.66863 105.701856 
L 506.865539 106.646095 
L 507.174968 109.626248 
L 507.568787 115.70217 
L 507.990735 125.713386 
L 508.412684 141.841356 
L 509.3691 179.428381 
L 510.381777 212.122382 
L 511.085024 227.104478 
L 511.985181 243.035748 
L 512.744688 252.201682 
L 513.138507 255.381436 
L 513.419806 256.33049 
L 513.672975 256.516084 
L 514.151183 256.725986 
L 514.460612 257.263159 
L 514.938821 258.519639 
L 515.22012 260.388707 
L 515.782718 264.187781 
L 516.260926 265.638245 
L 516.823524 268.275318 
L 517.217343 268.984981 
L 517.470512 270.047338 
L 519.073916 279.801259 
L 519.974073 287.415709 
L 520.396021 289.760159 
L 520.67732 293.08632 
L 521.268048 300.28413 
L 521.802516 305.440746 
L 523.012102 325.523325 
L 523.54657 336.660934 
L 524.221688 345.457709 
L 524.756156 352.98173 
L 525.009325 353.787452 
L 525.206234 353.905977 
L 525.346884 353.735809 
L 525.543793 352.987013 
L 525.853222 350.581442 
L 526.190781 346.24701 
L 526.61273 337.441869 
L 527.034678 324.214827 
L 527.484756 302.028775 
L 528.019225 278.967355 
L 529.088161 247.109643 
L 529.707019 234.388105 
L 530.747825 216.847001 
L 531.366683 210.02136 
L 531.901151 205.620196 
L 532.323099 204.066124 
L 532.885697 202.010078 
L 533.307646 199.77105 
L 533.673335 197.786613 
L 533.785854 197.768525 
L 533.813984 197.797406 
L 534.235933 198.382771 
L 534.292192 198.312897 
L 534.432842 197.810924 
L 535.136089 194.465502 
L 535.417388 193.841755 
L 535.895597 191.962507 
L 536.261286 189.852172 
L 537.273962 183.258647 
L 537.667781 180.84178 
L 538.202249 175.998493 
L 538.989886 167.351356 
L 539.383705 165.625537 
L 539.665004 163.169566 
L 540.002562 157.791028 
L 541.015239 140.742587 
L 541.831006 127.919274 
L 542.562383 116.263178 
L 543.46254 105.470243 
L 543.687579 104.9562 
L 543.828229 105.079397 
L 544.193918 105.813026 
L 544.390827 107.055816 
L 544.700256 110.804456 
L 545.094074 118.297421 
L 545.487893 130.172206 
L 547.456986 203.890611 
L 548.075844 219.531379 
L 549.2573 240.795423 
L 549.763638 246.448861 
L 550.804444 254.661689 
L 551.142003 255.315818 
L 551.704601 256.286804 
L 552.323459 257.98395 
L 552.604758 259.846188 
L 553.167356 263.83936 
L 553.701824 265.587837 
L 554.208162 268.10166 
L 554.7145 269.190091 
L 554.995799 270.702052 
L 555.924086 276.61553 
L 556.289775 278.317285 
L 556.599204 281.145586 
L 557.274321 287.527161 
L 557.836919 291.350269 
L 558.230738 297.332725 
L 558.624557 301.652628 
L 559.046505 305.322694 
L 559.440324 311.866112 
L 561.099988 341.403792 
L 561.578196 349.12938 
L 561.972015 354.866254 
L 562.197054 355.610401 
L 562.478353 355.82534 
L 562.647132 355.772204 
L 562.787782 355.475317 
L 562.956561 354.544922 
L 563.20973 351.648976 
L 563.687939 343.078244 
L 564.166147 330.84313 
L 564.588096 313.57326 
L 565.431993 276.484649 
L 566.641578 239.319768 
L 567.344826 225.709317 
L 568.160593 213.181673 
L 568.723191 207.46941 
L 569.201399 204.334559 
L 569.538958 203.478311 
L 570.073426 202.33536 
L 570.551635 200.455655 
L 570.917323 197.865735 
L 571.170492 196.949142 
L 571.395532 196.885487 
L 571.564311 196.726501 
L 571.76122 196.075173 
L 572.211299 194.487317 
L 572.661377 194.014631 
L 572.970806 192.960937 
L 573.477144 190.402776 
L 575.474367 175.615281 
L 576.233875 167.188407 
L 576.655823 165.245685 
L 576.937122 162.567275 
L 577.302811 156.213332 
L 578.174838 141.453746 
L 580.622139 106.758382 
L 580.903438 105.324184 
L 581.044088 105.256292 
L 581.269127 105.594329 
L 581.494166 106.179438 
L 581.691075 107.52708 
L 582.028634 111.814802 
L 582.450583 120.216001 
L 582.844401 132.917943 
L 584.335286 191.087616 
L 585.179183 215.105423 
L 586.10747 233.275871 
L 586.782587 243.618483 
L 587.739004 253.188466 
L 588.104693 255.329251 
L 588.385992 255.851858 
L 589.117369 256.691408 
L 589.679967 258.080086 
L 589.933136 259.703246 
L 590.551994 264.073276 
L 590.973943 265.410518 
L 591.64906 268.515516 
L 591.958489 269.215644 
L 592.239788 270.559111 
L 593.899452 281.816713 
L 594.57457 287.97003 
L 595.137168 292.35163 
L 596.149844 303.923661 
L 596.459273 307.80511 
L 597.612599 328.801394 
L 598.034548 337.949749 
L 598.737795 346.709973 
L 599.328523 354.931187 
L 599.553562 355.456287 
L 599.778602 355.51601 
L 599.947381 355.363078 
L 600.14429 354.798353 
L 600.369329 353.214916 
L 600.678758 348.976008 
L 601.213226 338.038123 
L 601.663305 324.050961 
L 602.169643 299.666906 
L 602.732241 276.516357 
L 603.913697 239.651582 
L 604.532555 227.714633 
L 605.376452 214.46893 
L 605.91092 208.92775 
L 606.473518 205.319576 
L 606.839207 204.2938 
L 607.401805 202.91636 
L 607.908143 200.733892 
L 608.555131 197.509163 
L 608.977079 197.510618 
L 609.145859 196.942405 
L 609.652197 194.903427 
L 610.074145 194.371425 
L 610.411704 193.269011 
L 610.918042 191.02378 
L 613.084045 176.929254 
L 613.843552 169.064178 
L 614.237371 167.695855 
L 614.49054 165.819135 
L 614.828098 161.179123 
L 616.234594 140.277944 
L 616.628412 134.521829 
L 618.231816 105.621619 
L 618.484986 104.86679 
L 618.625635 104.930223 
L 618.963194 105.472991 
L 619.160103 106.478845 
L 619.469532 109.583468 
L 619.863351 115.872583 
L 620.285299 126.263395 
L 620.707248 142.951573 
L 621.607405 178.185958 
L 622.676341 212.221532 
L 623.379588 227.240229 
L 624.251615 242.72438 
L 625.011123 252.03703 
L 625.433071 255.600034 
L 625.71437 256.559144 
L 625.939409 256.708695 
L 626.473877 256.841941 
L 626.783306 257.364658 
L 627.233385 258.490115 
L 627.486554 260.098116 
L 628.105412 264.295589 
L 628.52736 265.511815 
L 629.174348 268.38123 
L 629.483777 268.937472 
L 629.736946 269.930774 
L 631.115311 277.966841 
L 631.481 281.11237 
L 632.156117 286.92233 
L 632.859365 291.927338 
L 633.731392 301.833111 
L 634.040821 305.15705 
L 634.547159 314.245356 
L 635.475446 331.419686 
L 635.841134 337.570602 
L 636.488122 346.080298 
L 637.02259 353.370164 
L 637.275759 354.138616 
L 637.472669 354.2209 
L 637.613318 354.005945 
L 637.810227 353.170219 
L 638.119656 350.600138 
L 638.485345 345.693275 
L 638.935423 335.87809 
L 639.357372 321.56755 
L 640.876387 259.726428 
L 641.607764 240.71922 
L 642.6767 221.384894 
L 643.323688 212.77872 
L 644.111325 205.920454 
L 644.505144 204.352329 
L 645.208391 201.994177 
L 645.60221 200.023332 
L 645.996029 197.919645 
L 646.136678 197.923713 
L 646.530497 198.363529 
L 646.586757 198.290547 
L 646.727406 197.788606 
L 647.402524 194.651607 
L 647.683823 194.100546 
L 648.162031 192.395225 
L 648.52772 190.50793 
L 649.906085 181.894218 
L 650.384293 178.082019 
L 650.721852 173.900767 
L 651.17193 168.431275 
L 652.015827 163.522521 
L 652.409646 157.337401 
L 653.759881 136.594621 
L 654.23809 127.912776 
L 655.053857 114.50318 
L 655.644585 106.425742 
L 655.925884 105.11956 
L 656.066533 105.021687 
L 656.094663 105.04022 
L 656.404092 105.478014 
L 656.572871 106.032278 
L 656.79791 107.799516 
L 657.163599 112.821634 
L 657.585548 122.025604 
L 657.951236 134.874412 
L 659.104562 180.645973 
L 660.089109 212.132272 
L 660.707967 225.141057 
L 661.748773 243.035524 
L 662.395761 249.733761 
L 662.902099 253.990551 
L 663.211528 255.143817 
L 663.661606 255.792718 
L 664.055425 256.544468 
L 664.646153 258.22942 
L 664.927452 260.129309 
L 665.49005 264.035232 
L 665.996388 265.693953 
L 666.530856 268.311144 
L 666.671506 268.537147 
L 666.671506 268.537147 
" clip-path="url(#p053df05af8)" style="fill: none; stroke: #2ca02c; stroke-opacity: 0.8; stroke-width: 3; stroke-linecap: square"/>
   </g>
   <g id="line2d_12">
    <path d="M 104.101619 372.805982 
L 132.23152 372.805982 
" clip-path="url(#p053df05af8)" style="fill: none; stroke: #000000; stroke-width: 5; stroke-linecap: square"/>
   </g>
   <g id="patch_3">
    <path d="M 75.973125 386.3618 
L 75.973125 88.1338 
" style="fill: none; stroke: #000000; stroke-width: 0.8; stroke-linejoin: miter; stroke-linecap: square"/>
   </g>
   <g id="text_11">
    <!-- 100ms -->
    <g transform="translate(90.93657 399.874882) scale(0.16 -0.16)">
     <defs>
      <path id="DejaVuSans-6d" d="M 3328 2828 
Q 3544 3216 3844 3400 
Q 4144 3584 4550 3584 
Q 5097 3584 5394 3201 
Q 5691 2819 5691 2113 
L 5691 0 
L 5113 0 
L 5113 2094 
Q 5113 2597 4934 2840 
Q 4756 3084 4391 3084 
Q 3944 3084 3684 2787 
Q 3425 2491 3425 1978 
L 3425 0 
L 2847 0 
L 2847 2094 
Q 2847 2600 2669 2842 
Q 2491 3084 2119 3084 
Q 1678 3084 1418 2786 
Q 1159 2488 1159 1978 
L 1159 0 
L 581 0 
L 581 3500 
L 1159 3500 
L 1159 2956 
Q 1356 3278 1631 3431 
Q 1906 3584 2284 3584 
Q 2666 3584 2933 3390 
Q 3200 3197 3328 2828 
z
" transform="scale(0.015625)"/>
      <path id="DejaVuSans-73" d="M 2834 3397 
L 2834 2853 
Q 2591 2978 2328 3040 
Q 2066 3103 1784 3103 
Q 1356 3103 1142 2972 
Q 928 2841 928 2578 
Q 928 2378 1081 2264 
Q 1234 2150 1697 2047 
L 1894 2003 
Q 2506 1872 2764 1633 
Q 3022 1394 3022 966 
Q 3022 478 2636 193 
Q 2250 -91 1575 -91 
Q 1294 -91 989 -36 
Q 684 19 347 128 
L 347 722 
Q 666 556 975 473 
Q 1284 391 1588 391 
Q 1994 391 2212 530 
Q 2431 669 2431 922 
Q 2431 1156 2273 1281 
Q 2116 1406 1581 1522 
L 1381 1569 
Q 847 1681 609 1914 
Q 372 2147 372 2553 
Q 372 3047 722 3315 
Q 1072 3584 1716 3584 
Q 2034 3584 2315 3537 
Q 2597 3491 2834 3397 
z
" transform="scale(0.015625)"/>
     </defs>
     <use xlink:href="#DejaVuSans-31"/>
     <use xlink:href="#DejaVuSans-30" x="63.623047"/>
     <use xlink:href="#DejaVuSans-30" x="127.246094"/>
     <use xlink:href="#DejaVuSans-6d" x="190.869141"/>
     <use xlink:href="#DejaVuSans-73" x="288.28125"/>
    </g>
   </g>
   <g id="text_12">
    <!-- True vs Generated  -->
    <g transform="translate(271.446563 25.43625) scale(0.24 -0.24)">
     <defs>
      <path id="DejaVuSans-54" d="M -19 4666 
L 3928 4666 
L 3928 4134 
L 2272 4134 
L 2272 0 
L 1638 0 
L 1638 4134 
L -19 4134 
L -19 4666 
z
" transform="scale(0.015625)"/>
      <path id="DejaVuSans-72" d="M 2631 2963 
Q 2534 3019 2420 3045 
Q 2306 3072 2169 3072 
Q 1681 3072 1420 2755 
Q 1159 2438 1159 1844 
L 1159 0 
L 581 0 
L 581 3500 
L 1159 3500 
L 1159 2956 
Q 1341 3275 1631 3429 
Q 1922 3584 2338 3584 
Q 2397 3584 2469 3576 
Q 2541 3569 2628 3553 
L 2631 2963 
z
" transform="scale(0.015625)"/>
      <path id="DejaVuSans-75" d="M 544 1381 
L 544 3500 
L 1119 3500 
L 1119 1403 
Q 1119 906 1312 657 
Q 1506 409 1894 409 
Q 2359 409 2629 706 
Q 2900 1003 2900 1516 
L 2900 3500 
L 3475 3500 
L 3475 0 
L 2900 0 
L 2900 538 
Q 2691 219 2414 64 
Q 2138 -91 1772 -91 
Q 1169 -91 856 284 
Q 544 659 544 1381 
z
M 1991 3584 
L 1991 3584 
z
" transform="scale(0.015625)"/>
      <path id="DejaVuSans-65" d="M 3597 1894 
L 3597 1613 
L 953 1613 
Q 991 1019 1311 708 
Q 1631 397 2203 397 
Q 2534 397 2845 478 
Q 3156 559 3463 722 
L 3463 178 
Q 3153 47 2828 -22 
Q 2503 -91 2169 -91 
Q 1331 -91 842 396 
Q 353 884 353 1716 
Q 353 2575 817 3079 
Q 1281 3584 2069 3584 
Q 2775 3584 3186 3129 
Q 3597 2675 3597 1894 
z
M 3022 2063 
Q 3016 2534 2758 2815 
Q 2500 3097 2075 3097 
Q 1594 3097 1305 2825 
Q 1016 2553 972 2059 
L 3022 2063 
z
" transform="scale(0.015625)"/>
      <path id="DejaVuSans-20" transform="scale(0.015625)"/>
      <path id="DejaVuSans-76" d="M 191 3500 
L 800 3500 
L 1894 563 
L 2988 3500 
L 3597 3500 
L 2284 0 
L 1503 0 
L 191 3500 
z
" transform="scale(0.015625)"/>
      <path id="DejaVuSans-47" d="M 3809 666 
L 3809 1919 
L 2778 1919 
L 2778 2438 
L 4434 2438 
L 4434 434 
Q 4069 175 3628 42 
Q 3188 -91 2688 -91 
Q 1594 -91 976 548 
Q 359 1188 359 2328 
Q 359 3472 976 4111 
Q 1594 4750 2688 4750 
Q 3144 4750 3555 4637 
Q 3966 4525 4313 4306 
L 4313 3634 
Q 3963 3931 3569 4081 
Q 3175 4231 2741 4231 
Q 1884 4231 1454 3753 
Q 1025 3275 1025 2328 
Q 1025 1384 1454 906 
Q 1884 428 2741 428 
Q 3075 428 3337 486 
Q 3600 544 3809 666 
z
" transform="scale(0.015625)"/>
      <path id="DejaVuSans-6e" d="M 3513 2113 
L 3513 0 
L 2938 0 
L 2938 2094 
Q 2938 2591 2744 2837 
Q 2550 3084 2163 3084 
Q 1697 3084 1428 2787 
Q 1159 2491 1159 1978 
L 1159 0 
L 581 0 
L 581 3500 
L 1159 3500 
L 1159 2956 
Q 1366 3272 1645 3428 
Q 1925 3584 2291 3584 
Q 2894 3584 3203 3211 
Q 3513 2838 3513 2113 
z
" transform="scale(0.015625)"/>
      <path id="DejaVuSans-61" d="M 2194 1759 
Q 1497 1759 1228 1600 
Q 959 1441 959 1056 
Q 959 750 1161 570 
Q 1363 391 1709 391 
Q 2188 391 2477 730 
Q 2766 1069 2766 1631 
L 2766 1759 
L 2194 1759 
z
M 3341 1997 
L 3341 0 
L 2766 0 
L 2766 531 
Q 2569 213 2275 61 
Q 1981 -91 1556 -91 
Q 1019 -91 701 211 
Q 384 513 384 1019 
Q 384 1609 779 1909 
Q 1175 2209 1959 2209 
L 2766 2209 
L 2766 2266 
Q 2766 2663 2505 2880 
Q 2244 3097 1772 3097 
Q 1472 3097 1187 3025 
Q 903 2953 641 2809 
L 641 3341 
Q 956 3463 1253 3523 
Q 1550 3584 1831 3584 
Q 2591 3584 2966 3190 
Q 3341 2797 3341 1997 
z
" transform="scale(0.015625)"/>
      <path id="DejaVuSans-74" d="M 1172 4494 
L 1172 3500 
L 2356 3500 
L 2356 3053 
L 1172 3053 
L 1172 1153 
Q 1172 725 1289 603 
Q 1406 481 1766 481 
L 2356 481 
L 2356 0 
L 1766 0 
Q 1100 0 847 248 
Q 594 497 594 1153 
L 594 3053 
L 172 3053 
L 172 3500 
L 594 3500 
L 594 4494 
L 1172 4494 
z
" transform="scale(0.015625)"/>
      <path id="DejaVuSans-64" d="M 2906 2969 
L 2906 4863 
L 3481 4863 
L 3481 0 
L 2906 0 
L 2906 525 
Q 2725 213 2448 61 
Q 2172 -91 1784 -91 
Q 1150 -91 751 415 
Q 353 922 353 1747 
Q 353 2572 751 3078 
Q 1150 3584 1784 3584 
Q 2172 3584 2448 3432 
Q 2725 3281 2906 2969 
z
M 947 1747 
Q 947 1113 1208 752 
Q 1469 391 1925 391 
Q 2381 391 2643 752 
Q 2906 1113 2906 1747 
Q 2906 2381 2643 2742 
Q 2381 3103 1925 3103 
Q 1469 3103 1208 2742 
Q 947 2381 947 1747 
z
" transform="scale(0.015625)"/>
     </defs>
     <use xlink:href="#DejaVuSans-54"/>
     <use xlink:href="#DejaVuSans-72" x="46.333984"/>
     <use xlink:href="#DejaVuSans-75" x="87.447266"/>
     <use xlink:href="#DejaVuSans-65" x="150.826172"/>
     <use xlink:href="#DejaVuSans-20" x="212.349609"/>
     <use xlink:href="#DejaVuSans-76" x="244.136719"/>
     <use xlink:href="#DejaVuSans-73" x="303.316406"/>
     <use xlink:href="#DejaVuSans-20" x="355.416016"/>
     <use xlink:href="#DejaVuSans-47" x="387.203125"/>
     <use xlink:href="#DejaVuSans-65" x="464.693359"/>
     <use xlink:href="#DejaVuSans-6e" x="526.216797"/>
     <use xlink:href="#DejaVuSans-65" x="589.595703"/>
     <use xlink:href="#DejaVuSans-72" x="651.119141"/>
     <use xlink:href="#DejaVuSans-61" x="692.232422"/>
     <use xlink:href="#DejaVuSans-74" x="753.511719"/>
     <use xlink:href="#DejaVuSans-65" x="792.720703"/>
     <use xlink:href="#DejaVuSans-64" x="854.244141"/>
     <use xlink:href="#DejaVuSans-20" x="917.720703"/>
    </g>
    <!--  of y Variable over Time -->
    <g transform="translate(242.937188 52.311) scale(0.24 -0.24)">
     <defs>
      <path id="DejaVuSans-6f" d="M 1959 3097 
Q 1497 3097 1228 2736 
Q 959 2375 959 1747 
Q 959 1119 1226 758 
Q 1494 397 1959 397 
Q 2419 397 2687 759 
Q 2956 1122 2956 1747 
Q 2956 2369 2687 2733 
Q 2419 3097 1959 3097 
z
M 1959 3584 
Q 2709 3584 3137 3096 
Q 3566 2609 3566 1747 
Q 3566 888 3137 398 
Q 2709 -91 1959 -91 
Q 1206 -91 779 398 
Q 353 888 353 1747 
Q 353 2609 779 3096 
Q 1206 3584 1959 3584 
z
" transform="scale(0.015625)"/>
      <path id="DejaVuSans-66" d="M 2375 4863 
L 2375 4384 
L 1825 4384 
Q 1516 4384 1395 4259 
Q 1275 4134 1275 3809 
L 1275 3500 
L 2222 3500 
L 2222 3053 
L 1275 3053 
L 1275 0 
L 697 0 
L 697 3053 
L 147 3053 
L 147 3500 
L 697 3500 
L 697 3744 
Q 697 4328 969 4595 
Q 1241 4863 1831 4863 
L 2375 4863 
z
" transform="scale(0.015625)"/>
      <path id="DejaVuSans-56" d="M 1831 0 
L 50 4666 
L 709 4666 
L 2188 738 
L 3669 4666 
L 4325 4666 
L 2547 0 
L 1831 0 
z
" transform="scale(0.015625)"/>
      <path id="DejaVuSans-69" d="M 603 3500 
L 1178 3500 
L 1178 0 
L 603 0 
L 603 3500 
z
M 603 4863 
L 1178 4863 
L 1178 4134 
L 603 4134 
L 603 4863 
z
" transform="scale(0.015625)"/>
      <path id="DejaVuSans-62" d="M 3116 1747 
Q 3116 2381 2855 2742 
Q 2594 3103 2138 3103 
Q 1681 3103 1420 2742 
Q 1159 2381 1159 1747 
Q 1159 1113 1420 752 
Q 1681 391 2138 391 
Q 2594 391 2855 752 
Q 3116 1113 3116 1747 
z
M 1159 2969 
Q 1341 3281 1617 3432 
Q 1894 3584 2278 3584 
Q 2916 3584 3314 3078 
Q 3713 2572 3713 1747 
Q 3713 922 3314 415 
Q 2916 -91 2278 -91 
Q 1894 -91 1617 61 
Q 1341 213 1159 525 
L 1159 0 
L 581 0 
L 581 4863 
L 1159 4863 
L 1159 2969 
z
" transform="scale(0.015625)"/>
      <path id="DejaVuSans-6c" d="M 603 4863 
L 1178 4863 
L 1178 0 
L 603 0 
L 603 4863 
z
" transform="scale(0.015625)"/>
     </defs>
     <use xlink:href="#DejaVuSans-20"/>
     <use xlink:href="#DejaVuSans-6f" x="31.787109"/>
     <use xlink:href="#DejaVuSans-66" x="92.96875"/>
     <use xlink:href="#DejaVuSans-20" x="128.173828"/>
     <use xlink:href="#DejaVuSans-79" x="159.960938"/>
     <use xlink:href="#DejaVuSans-20" x="219.140625"/>
     <use xlink:href="#DejaVuSans-56" x="250.927734"/>
     <use xlink:href="#DejaVuSans-61" x="311.585938"/>
     <use xlink:href="#DejaVuSans-72" x="372.865234"/>
     <use xlink:href="#DejaVuSans-69" x="413.978516"/>
     <use xlink:href="#DejaVuSans-61" x="441.761719"/>
     <use xlink:href="#DejaVuSans-62" x="503.041016"/>
     <use xlink:href="#DejaVuSans-6c" x="566.517578"/>
     <use xlink:href="#DejaVuSans-65" x="594.300781"/>
     <use xlink:href="#DejaVuSans-20" x="655.824219"/>
     <use xlink:href="#DejaVuSans-6f" x="687.611328"/>
     <use xlink:href="#DejaVuSans-76" x="748.792969"/>
     <use xlink:href="#DejaVuSans-65" x="807.972656"/>
     <use xlink:href="#DejaVuSans-72" x="869.496094"/>
     <use xlink:href="#DejaVuSans-20" x="910.609375"/>
     <use xlink:href="#DejaVuSans-54" x="942.396484"/>
     <use xlink:href="#DejaVuSans-69" x="1000.355469"/>
     <use xlink:href="#DejaVuSans-6d" x="1028.138672"/>
     <use xlink:href="#DejaVuSans-65" x="1125.550781"/>
    </g>
   </g>
   <g id="legend_1">
    <g id="patch_4">
     <path d="M 529.104375 377.3618 
L 682.2 377.3618 
Q 685.8 377.3618 685.8 373.7618 
L 685.8 322.72055 
Q 685.8 319.12055 682.2 319.12055 
L 529.104375 319.12055 
Q 525.504375 319.12055 525.504375 322.72055 
L 525.504375 373.7618 
Q 525.504375 377.3618 529.104375 377.3618 
z
" style="fill: #ffffff; opacity: 0.8; stroke: #cccccc; stroke-linejoin: miter"/>
    </g>
    <g id="line2d_13">
     <path d="M 532.704375 333.697738 
L 550.704375 333.697738 
L 568.704375 333.697738 
" style="fill: none; stroke-dasharray: 11.1,4.8; stroke-dashoffset: 0; stroke: #000000; stroke-opacity: 0.7; stroke-width: 3"/>
    </g>
    <g id="text_13">
     <!-- True -->
     <g transform="translate(583.104375 339.997738) scale(0.18 -0.18)">
      <use xlink:href="#DejaVuSans-54"/>
      <use xlink:href="#DejaVuSans-72" x="46.333984"/>
      <use xlink:href="#DejaVuSans-75" x="87.447266"/>
      <use xlink:href="#DejaVuSans-65" x="150.826172"/>
     </g>
    </g>
    <g id="line2d_14">
     <path d="M 532.704375 360.118363 
L 550.704375 360.118363 
L 568.704375 360.118363 
" style="fill: none; stroke: #2ca02c; stroke-opacity: 0.8; stroke-width: 3; stroke-linecap: square"/>
    </g>
    <g id="text_14">
     <!-- Generated -->
     <g transform="translate(583.104375 366.418363) scale(0.18 -0.18)">
      <use xlink:href="#DejaVuSans-47"/>
      <use xlink:href="#DejaVuSans-65" x="77.490234"/>
      <use xlink:href="#DejaVuSans-6e" x="139.013672"/>
      <use xlink:href="#DejaVuSans-65" x="202.392578"/>
      <use xlink:href="#DejaVuSans-72" x="263.916016"/>
      <use xlink:href="#DejaVuSans-61" x="305.029297"/>
      <use xlink:href="#DejaVuSans-74" x="366.308594"/>
      <use xlink:href="#DejaVuSans-65" x="405.517578"/>
      <use xlink:href="#DejaVuSans-64" x="467.041016"/>
     </g>
    </g>
   </g>
  </g>
 </g>
 <defs>
  <clipPath id="p053df05af8">
   <rect x="75.973125" y="88.1338" width="618.826875" height="298.228"/>
  </clipPath>
 </defs>
</svg>
