<?xml version="1.0" encoding="utf-8" standalone="no"?>
<!DOCTYPE svg PUBLIC "-//W3C//DTD SVG 1.1//EN"
  "http://www.w3.org/Graphics/SVG/1.1/DTD/svg11.dtd">
<svg xmlns:xlink="http://www.w3.org/1999/xlink" width="702pt" height="410.402382pt" viewBox="0 0 702 410.402382" xmlns="http://www.w3.org/2000/svg" version="1.1">
 <metadata>
  <rdf:RDF xmlns:dc="http://purl.org/dc/elements/1.1/" xmlns:cc="http://creativecommons.org/ns#" xmlns:rdf="http://www.w3.org/1999/02/22-rdf-syntax-ns#">
   <cc:Work>
    <dc:type rdf:resource="http://purl.org/dc/dcmitype/StillImage"/>
    <dc:date>2025-10-16T11:45:40.210078</dc:date>
    <dc:format>image/svg+xml</dc:format>
    <dc:creator>
     <cc:Agent>
      <dc:title>Matplotlib v3.8.2, https://matplotlib.org/</dc:title>
     </cc:Agent>
    </dc:creator>
   </cc:Work>
  </rdf:RDF>
 </metadata>
 <defs>
  <style type="text/css">*{stroke-linejoin: round; stroke-linecap: butt}</style>
 </defs>
 <g id="figure_1">
  <g id="patch_1">
   <path d="M 0 410.402382 
L 702 410.402382 
L 702 0 
L 0 0 
z
" style="fill: #ffffff"/>
  </g>
  <g id="axes_1">
   <g id="patch_2">
    <path d="M 75.973125 386.3618 
L 694.8 386.3618 
L 694.8 88.1338 
L 75.973125 88.1338 
z
" style="fill: #ffffff"/>
   </g>
   <g id="matplotlib.axis_1"/>
   <g id="matplotlib.axis_2">
    <g id="ytick_1">
     <g id="line2d_1">
      <defs>
       <path id="ma5310ebcfb" d="M 0 0 
L -5 0 
" style="stroke: #000000; stroke-width: 0.8"/>
      </defs>
      <g>
       <use xlink:href="#ma5310ebcfb" x="75.973125" y="363.874082" style="stroke: #000000; stroke-width: 0.8"/>
      </g>
     </g>
     <g id="text_1">
      <!-- −1.5 -->
      <g transform="translate(28.620625 369.952832) scale(0.16 -0.16)">
       <defs>
        <path id="DejaVuSans-2212" d="M 678 2272 
L 4684 2272 
L 4684 1741 
L 678 1741 
L 678 2272 
z
" transform="scale(0.015625)"/>
        <path id="DejaVuSans-31" d="M 794 531 
L 1825 531 
L 1825 4091 
L 703 3866 
L 703 4441 
L 1819 4666 
L 2450 4666 
L 2450 531 
L 3481 531 
L 3481 0 
L 794 0 
L 794 531 
z
" transform="scale(0.015625)"/>
        <path id="DejaVuSans-2e" d="M 684 794 
L 1344 794 
L 1344 0 
L 684 0 
L 684 794 
z
" transform="scale(0.015625)"/>
        <path id="DejaVuSans-35" d="M 691 4666 
L 3169 4666 
L 3169 4134 
L 1269 4134 
L 1269 2991 
Q 1406 3038 1543 3061 
Q 1681 3084 1819 3084 
Q 2600 3084 3056 2656 
Q 3513 2228 3513 1497 
Q 3513 744 3044 326 
Q 2575 -91 1722 -91 
Q 1428 -91 1123 -41 
Q 819 9 494 109 
L 494 744 
Q 775 591 1075 516 
Q 1375 441 1709 441 
Q 2250 441 2565 725 
Q 2881 1009 2881 1497 
Q 2881 1984 2565 2268 
Q 2250 2553 1709 2553 
Q 1456 2553 1204 2497 
Q 953 2441 691 2322 
L 691 4666 
z
" transform="scale(0.015625)"/>
       </defs>
       <use xlink:href="#DejaVuSans-2212"/>
       <use xlink:href="#DejaVuSans-31" x="83.789062"/>
       <use xlink:href="#DejaVuSans-2e" x="147.412109"/>
       <use xlink:href="#DejaVuSans-35" x="179.199219"/>
      </g>
     </g>
    </g>
    <g id="ytick_2">
     <g id="line2d_2">
      <g>
       <use xlink:href="#ma5310ebcfb" x="75.973125" y="319.36834" style="stroke: #000000; stroke-width: 0.8"/>
      </g>
     </g>
     <g id="text_2">
      <!-- −1.0 -->
      <g transform="translate(28.620625 325.44709) scale(0.16 -0.16)">
       <defs>
        <path id="DejaVuSans-30" d="M 2034 4250 
Q 1547 4250 1301 3770 
Q 1056 3291 1056 2328 
Q 1056 1369 1301 889 
Q 1547 409 2034 409 
Q 2525 409 2770 889 
Q 3016 1369 3016 2328 
Q 3016 3291 2770 3770 
Q 2525 4250 2034 4250 
z
M 2034 4750 
Q 2819 4750 3233 4129 
Q 3647 3509 3647 2328 
Q 3647 1150 3233 529 
Q 2819 -91 2034 -91 
Q 1250 -91 836 529 
Q 422 1150 422 2328 
Q 422 3509 836 4129 
Q 1250 4750 2034 4750 
z
" transform="scale(0.015625)"/>
       </defs>
       <use xlink:href="#DejaVuSans-2212"/>
       <use xlink:href="#DejaVuSans-31" x="83.789062"/>
       <use xlink:href="#DejaVuSans-2e" x="147.412109"/>
       <use xlink:href="#DejaVuSans-30" x="179.199219"/>
      </g>
     </g>
    </g>
    <g id="ytick_3">
     <g id="line2d_3">
      <g>
       <use xlink:href="#ma5310ebcfb" x="75.973125" y="274.862598" style="stroke: #000000; stroke-width: 0.8"/>
      </g>
     </g>
     <g id="text_3">
      <!-- −0.5 -->
      <g transform="translate(28.620625 280.941348) scale(0.16 -0.16)">
       <use xlink:href="#DejaVuSans-2212"/>
       <use xlink:href="#DejaVuSans-30" x="83.789062"/>
       <use xlink:href="#DejaVuSans-2e" x="147.412109"/>
       <use xlink:href="#DejaVuSans-35" x="179.199219"/>
      </g>
     </g>
    </g>
    <g id="ytick_4">
     <g id="line2d_4">
      <g>
       <use xlink:href="#ma5310ebcfb" x="75.973125" y="230.356855" style="stroke: #000000; stroke-width: 0.8"/>
      </g>
     </g>
     <g id="text_4">
      <!-- 0.0 -->
      <g transform="translate(42.028125 236.435605) scale(0.16 -0.16)">
       <use xlink:href="#DejaVuSans-30"/>
       <use xlink:href="#DejaVuSans-2e" x="63.623047"/>
       <use xlink:href="#DejaVuSans-30" x="95.410156"/>
      </g>
     </g>
    </g>
    <g id="ytick_5">
     <g id="line2d_5">
      <g>
       <use xlink:href="#ma5310ebcfb" x="75.973125" y="185.851113" style="stroke: #000000; stroke-width: 0.8"/>
      </g>
     </g>
     <g id="text_5">
      <!-- 0.5 -->
      <g transform="translate(42.028125 191.929863) scale(0.16 -0.16)">
       <use xlink:href="#DejaVuSans-30"/>
       <use xlink:href="#DejaVuSans-2e" x="63.623047"/>
       <use xlink:href="#DejaVuSans-35" x="95.410156"/>
      </g>
     </g>
    </g>
    <g id="ytick_6">
     <g id="line2d_6">
      <g>
       <use xlink:href="#ma5310ebcfb" x="75.973125" y="141.345371" style="stroke: #000000; stroke-width: 0.8"/>
      </g>
     </g>
     <g id="text_6">
      <!-- 1.0 -->
      <g transform="translate(42.028125 147.424121) scale(0.16 -0.16)">
       <use xlink:href="#DejaVuSans-31"/>
       <use xlink:href="#DejaVuSans-2e" x="63.623047"/>
       <use xlink:href="#DejaVuSans-30" x="95.410156"/>
      </g>
     </g>
    </g>
    <g id="ytick_7">
     <g id="line2d_7">
      <g>
       <use xlink:href="#ma5310ebcfb" x="75.973125" y="96.839629" style="stroke: #000000; stroke-width: 0.8"/>
      </g>
     </g>
     <g id="text_7">
      <!-- 1.5 -->
      <g transform="translate(42.028125 102.918379) scale(0.16 -0.16)">
       <use xlink:href="#DejaVuSans-31"/>
       <use xlink:href="#DejaVuSans-2e" x="63.623047"/>
       <use xlink:href="#DejaVuSans-35" x="95.410156"/>
      </g>
     </g>
    </g>
    <g id="text_8">
     <!-- x -->
     <g transform="translate(20.877187 242.574675) rotate(-90) scale(0.18 -0.18)">
      <defs>
       <path id="DejaVuSans-78" d="M 3513 3500 
L 2247 1797 
L 3578 0 
L 2900 0 
L 1881 1375 
L 863 0 
L 184 0 
L 1544 1831 
L 300 3500 
L 978 3500 
L 1906 2253 
L 2834 3500 
L 3513 3500 
z
" transform="scale(0.015625)"/>
      </defs>
      <use xlink:href="#DejaVuSans-78"/>
     </g>
    </g>
   </g>
   <g id="line2d_8">
    <path d="M 104.101619 171.103739 
L 105.086166 181.016303 
L 106.098842 193.540701 
L 107.111519 208.915861 
L 108.152325 228.211289 
L 109.249391 252.862102 
L 112.54059 330.416874 
L 113.215707 339.510068 
L 113.778305 344.462427 
L 114.284643 347.142296 
L 114.706592 348.300036 
L 115.016021 348.624503 
L 115.26919 348.606052 
L 115.550489 348.325336 
L 115.916178 347.604147 
L 116.422516 346.044633 
L 117.097633 343.159718 
L 117.96966 338.387492 
L 119.066727 331.065799 
L 120.304442 321.254726 
L 121.598418 309.157527 
L 122.836133 295.463707 
L 123.961329 280.519511 
L 125.058395 262.863665 
L 126.127332 241.877051 
L 127.196268 216.322576 
L 128.574633 177.39349 
L 130.037388 137.582419 
L 130.796895 122.53147 
L 131.415753 114.152025 
L 131.950221 109.568734 
L 132.428429 107.187322 
L 132.822248 106.224101 
L 133.103547 105.996084 
L 133.356716 106.069128 
L 133.638015 106.413824 
L 134.031834 107.284587 
L 134.566302 109.067231 
L 135.297679 112.373379 
L 136.282226 117.959051 
L 137.491812 126.195953 
L 138.842047 136.991272 
L 140.164152 149.368529 
L 141.429998 163.326836 
L 142.583324 178.541319 
L 143.68039 196.045541 
L 144.749326 216.836913 
L 145.818262 242.182007 
L 147.168497 280.220984 
L 148.715642 322.781932 
L 149.503279 338.488734 
L 150.122137 346.842903 
L 150.656605 351.45072 
L 151.134813 353.836169 
L 151.528632 354.787038 
L 151.809931 355.010513 
L 152.0631 354.934779 
L 152.344399 354.58412 
L 152.738218 353.696458 
L 153.300816 351.790601 
L 154.032193 348.452841 
L 155.01674 342.843705 
L 156.226326 334.603076 
L 157.576561 323.830266 
L 158.926796 311.215228 
L 160.192642 297.254255 
L 161.345967 282.076741 
L 162.443034 264.650056 
L 163.51197 243.959115 
L 164.580906 218.660294 
L 165.903011 181.50381 
L 167.506416 137.321628 
L 168.265923 122.203972 
L 168.884781 113.778006 
L 169.419249 109.156618 
L 169.869327 106.900571 
L 170.263146 105.900685 
L 170.572575 105.643141 
L 170.825744 105.725612 
L 171.135173 106.130948 
L 171.557121 107.128937 
L 172.119719 109.104677 
L 172.879227 112.661566 
L 173.891903 118.555865 
L 175.129619 127.154977 
L 176.479854 138.142615 
L 177.801959 150.733902 
L 179.039675 164.615309 
L 180.193001 180.10447 
L 181.290067 197.958883 
L 182.359003 219.183741 
L 183.42794 245.027543 
L 184.862565 285.926189 
L 186.24093 323.350855 
L 187.000437 338.431155 
L 187.619295 346.803019 
L 188.153763 351.424941 
L 188.631971 353.81865 
L 189.02579 354.774967 
L 189.307089 355.001738 
L 189.560258 354.928427 
L 189.841557 354.580125 
L 190.235376 353.695636 
L 190.769844 351.903774 
L 191.501221 348.601674 
L 192.485768 343.027636 
L 193.695353 334.821418 
L 195.045589 324.086609 
L 196.395824 311.516972 
L 197.661669 297.615267 
L 198.843125 282.103808 
L 199.940191 264.678165 
L 201.009128 243.98848 
L 202.078064 218.702233 
L 203.400169 181.553751 
L 205.003574 137.360778 
L 205.763081 122.225667 
L 206.381939 113.789537 
L 206.916407 109.149077 
L 207.366485 106.879999 
L 207.760304 105.874149 
L 208.069733 105.612118 
L 208.322902 105.691229 
L 208.632331 106.093251 
L 209.054279 107.088358 
L 209.616877 109.060582 
L 210.376385 112.612819 
L 211.389061 118.502345 
L 212.626777 127.095679 
L 213.977012 138.075598 
L 215.299117 150.655978 
L 216.536833 164.52196 
L 217.690159 179.994296 
L 218.787225 197.829097 
L 219.856161 219.02868 
L 220.925097 244.840486 
L 222.359722 285.717445 
L 223.738087 323.186403 
L 224.525725 338.773831 
L 225.144583 347.029636 
L 225.679051 351.564787 
L 226.157259 353.894509 
L 226.522948 354.768954 
L 226.804247 355.00496 
L 227.057416 354.93894 
L 227.338715 354.597629 
L 227.732533 353.721039 
L 228.267002 351.937567 
L 228.998379 348.644236 
L 229.982925 343.078696 
L 231.192511 334.881156 
L 232.542746 324.156096 
L 233.892982 311.598443 
L 235.158827 297.710703 
L 236.340283 282.219067 
L 237.437349 264.8197 
L 238.506285 244.163238 
L 239.547092 219.638571 
L 240.869197 182.624005 
L 242.500731 137.548603 
L 243.260239 122.360528 
L 243.907226 113.574964 
L 244.441694 109.02447 
L 244.891773 106.817332 
L 245.285591 105.853699 
L 245.566891 105.624049 
L 245.82006 105.69596 
L 246.101359 106.042054 
L 246.495177 106.918971 
L 247.029645 108.704886 
L 247.761023 112.005821 
L 248.745569 117.581494 
L 249.955155 125.797745 
L 251.30539 136.554814 
L 252.655626 149.158394 
L 253.921471 163.08477 
L 255.074797 178.263355 
L 256.171863 195.724508 
L 257.240799 216.458644 
L 258.309736 241.732095 
L 259.631841 278.886374 
L 261.235245 323.041256 
L 262.022882 338.672078 
L 262.64174 346.962323 
L 263.176208 351.523216 
L 263.654417 353.871862 
L 264.048235 354.798372 
L 264.329534 355.007315 
L 264.582703 354.92006 
L 264.892132 354.508383 
L 265.314081 353.497336 
L 265.876679 351.512002 
L 266.636186 347.950239 
L 267.648863 342.055495 
L 268.886578 333.464838 
L 270.236814 322.499183 
L 271.558919 309.938784 
L 272.824764 295.739823 
L 273.97809 280.257273 
L 275.075156 262.43628 
L 276.144093 241.249538 
L 277.213029 215.387145 
L 278.647654 174.477932 
L 280.026019 137.032043 
L 280.785526 121.995076 
L 281.404384 113.637665 
L 281.938852 109.060459 
L 282.388931 106.835029 
L 282.782749 105.85894 
L 283.064048 105.621708 
L 283.317217 105.68768 
L 283.598516 106.028127 
L 283.992335 106.898638 
L 284.526803 108.677548 
L 285.258181 111.971249 
L 286.242727 117.539795 
L 287.452313 125.748903 
L 288.802548 136.497888 
L 290.152783 149.091658 
L 291.418629 163.005418 
L 292.571955 178.16817 
L 293.669021 195.60939 
L 294.737957 216.31846 
L 295.806893 241.562374 
L 297.128999 278.69325 
L 298.732403 322.889082 
L 299.52004 338.565458 
L 300.138898 346.892475 
L 300.673366 351.480703 
L 301.151575 353.84983 
L 301.545393 354.789867 
L 301.826692 355.006896 
L 302.079861 354.925985 
L 302.36116 354.570368 
L 302.754979 353.677327 
L 303.317577 351.765523 
L 304.077084 348.277275 
L 305.061631 342.630793 
L 306.271216 334.35245 
L 307.621452 323.537441 
L 308.971687 310.870951 
L 310.237532 296.847683 
L 311.390858 281.588138 
L 312.487925 264.05354 
L 313.556861 243.226788 
L 314.625797 217.777182 
L 315.976032 179.667821 
L 317.495047 137.842956 
L 318.254554 122.568703 
L 318.901542 113.70992 
L 319.43601 109.104603 
L 319.886088 106.859875 
L 320.279907 105.870118 
L 320.561206 105.62465 
L 320.814375 105.684204 
L 321.095674 106.018531 
L 321.489493 106.881968 
L 322.023961 108.653194 
L 322.755338 111.939163 
L 323.739885 117.500148 
L 324.949471 125.701822 
L 326.299706 136.442618 
L 327.649941 149.026694 
L 328.915787 162.928324 
L 330.069113 178.075409 
L 331.166179 195.496621 
L 332.235115 216.180677 
L 333.304051 241.395397 
L 334.626156 278.50297 
L 336.257691 323.391342 
L 337.017198 338.460026 
L 337.636056 346.823061 
L 338.170524 351.438137 
L 338.648732 353.827272 
L 339.042551 354.780543 
L 339.32385 355.005482 
L 339.577019 354.93077 
L 339.858318 354.581109 
L 340.252137 353.694939 
L 340.786605 351.901283 
L 341.517982 348.59746 
L 342.502529 343.021706 
L 343.712114 334.813961 
L 345.06235 324.077569 
L 346.412585 311.50619 
L 347.67843 297.601616 
L 348.859886 282.087634 
L 349.956952 264.659773 
L 351.025889 243.96739 
L 352.094825 218.674958 
L 353.41693 181.522096 
L 355.020335 137.335683 
L 355.779842 122.209422 
L 356.3987 113.779317 
L 356.933168 109.146316 
L 357.383246 106.882542 
L 357.777065 105.879488 
L 358.086494 105.61945 
L 358.339663 105.700019 
L 358.649092 106.103517 
L 359.07104 107.100055 
L 359.633638 109.073911 
L 360.393146 112.62804 
L 361.405822 118.519475 
L 362.643538 127.114959 
L 363.993773 138.09759 
L 365.315878 150.68158 
L 366.553594 164.552488 
L 367.70692 180.030577 
L 368.803986 197.87233 
L 369.872922 219.080755 
L 370.941858 244.903295 
L 372.376483 285.78756 
L 373.754849 323.241481 
L 374.514356 338.353633 
L 375.133214 346.753019 
L 375.667682 351.395184 
L 376.14589 353.804567 
L 376.539709 354.771241 
L 376.821008 355.004186 
L 377.074177 354.935752 
L 377.355476 354.592124 
L 377.749294 353.712905 
L 378.283763 351.926644 
L 379.01514 348.630407 
L 379.999686 343.062048 
L 381.209272 334.861645 
L 382.559507 324.133378 
L 383.909743 311.571797 
L 385.175588 297.679404 
L 386.357044 282.181302 
L 387.45411 264.773457 
L 388.523046 244.106285 
L 389.591983 218.843413 
L 390.914088 181.714347 
L 392.517492 137.487086 
L 393.277 122.316481 
L 393.923987 113.546189 
L 394.458456 109.005923 
L 394.908534 106.805813 
L 395.302353 105.847379 
L 395.583652 105.620827 
L 395.836821 105.695135 
L 396.11812 106.043523 
L 396.511938 106.923149 
L 397.046406 108.711986 
L 397.777784 112.015778 
L 398.76233 117.594231 
L 399.971916 125.813162 
L 401.322151 136.573097 
L 402.672387 149.179964 
L 403.938232 163.110308 
L 405.091558 178.29423 
L 406.188624 195.762327 
L 407.25756 216.505066 
L 408.326497 241.788402 
L 409.648602 278.950491 
L 411.252006 323.091578 
L 412.039644 338.707352 
L 412.658501 346.985613 
L 413.192969 351.537558 
L 413.671178 353.8796 
L 414.036866 354.761665 
L 414.318165 355.002617 
L 414.571335 354.940463 
L 414.852634 354.60287 
L 415.246452 353.730611 
L 415.78092 351.951747 
L 416.512298 348.663094 
L 417.496844 343.102121 
L 418.70643 334.909038 
L 420.056665 324.18886 
L 421.4069 311.637019 
L 422.672746 297.75675 
L 423.854202 282.274416 
L 424.951268 264.886425 
L 426.020204 244.244259 
L 427.061011 219.737069 
L 428.383116 182.737145 
L 430.01465 137.638066 
L 430.774157 122.42335 
L 431.421145 113.615477 
L 431.955613 109.047539 
L 432.405692 106.828468 
L 432.79951 105.85674 
L 433.080809 105.622157 
L 433.333978 105.690202 
L 433.615277 106.032621 
L 434.009096 106.905379 
L 434.543564 108.686741 
L 435.274942 111.982961 
L 436.259488 117.553985 
L 437.469074 125.765566 
L 438.819309 136.517336 
L 440.169544 149.114467 
L 441.43539 163.032527 
L 442.588716 178.200707 
L 443.685782 195.648781 
L 444.754718 216.366461 
L 445.823654 241.6205 
L 447.14576 278.759417 
L 448.749164 322.941248 
L 449.536801 338.602032 
L 450.155659 346.916461 
L 450.690127 351.495327 
L 451.168336 353.857446 
L 451.562154 354.792851 
L 451.843453 355.007113 
L 452.096622 354.92403 
L 452.406051 354.516725 
L 452.828 353.510482 
L 453.390598 351.530153 
L 454.150105 347.973401 
L 455.162781 342.08356 
L 456.400497 333.497866 
L 457.750732 322.537771 
L 459.072838 309.984059 
L 460.338683 295.793576 
L 461.492009 280.321956 
L 462.589075 262.515078 
L 463.658012 241.346026 
L 464.726948 215.503402 
L 466.161573 174.607862 
L 467.539938 137.133971 
L 468.299445 122.06709 
L 468.918303 113.685261 
L 469.452771 109.089579 
L 469.902849 106.851467 
L 470.296668 105.866385 
L 470.577967 105.623736 
L 470.831136 105.685487 
L 471.112435 106.021909 
L 471.506254 106.887765 
L 472.040722 108.661619 
L 472.772099 111.950236 
L 473.756646 117.513811 
L 474.966232 125.718033 
L 476.316467 136.46164 
L 477.666702 149.049049 
L 478.932548 162.954854 
L 480.085874 178.107322 
L 481.18294 195.535403 
L 482.251876 216.228051 
L 483.320812 241.452809 
L 484.642918 278.568411 
L 486.274452 323.44253 
L 487.033959 338.496333 
L 487.652817 346.846968 
L 488.187285 351.452801 
L 488.665493 353.835044 
L 489.059312 354.783754 
L 489.340611 355.005968 
L 489.59378 354.929119 
L 489.875079 354.577407 
L 490.268898 353.688869 
L 490.831496 351.782082 
L 491.562873 348.443093 
L 492.54742 342.83295 
L 493.757005 334.590972 
L 495.107241 323.816575 
L 496.457476 311.199294 
L 497.723321 297.237508 
L 498.876647 282.055786 
L 499.973713 264.621143 
L 501.04265 243.920221 
L 502.111586 218.617722 
L 503.433691 181.456803 
L 505.037096 137.28434 
L 505.796603 122.173184 
L 506.415461 113.755358 
L 506.949929 109.131886 
L 507.400007 106.874671 
L 507.793826 105.8762 
L 508.103255 105.619189 
L 508.356424 105.701889 
L 508.665853 106.1076 
L 509.087801 107.106587 
L 509.650399 109.083032 
L 510.409907 112.63972 
L 511.422583 118.533682 
L 512.660299 127.131706 
L 514.010534 138.117184 
L 515.332639 150.704545 
L 516.570355 164.579756 
L 517.723681 180.063439 
L 518.820747 197.91228 
L 519.889683 219.129512 
L 520.958619 244.962147 
L 522.393244 285.853329 
L 523.77161 323.292991 
L 524.531117 338.390222 
L 525.149975 346.777119 
L 525.684443 351.409975 
L 526.162651 353.812398 
L 526.55647 354.774464 
L 526.837769 355.004657 
L 527.090938 354.934065 
L 527.372237 354.588363 
L 527.766055 353.706754 
L 528.300524 351.91795 
L 529.031901 348.619106 
L 530.016448 343.048206 
L 531.226033 334.845281 
L 532.576269 324.114226 
L 533.926504 311.549282 
L 535.192349 297.652709 
L 536.373805 282.149159 
L 537.470871 264.734449 
L 538.539807 244.05863 
L 539.608744 218.785608 
L 540.930849 181.648356 
L 542.534253 137.435076 
L 543.293761 122.279689 
L 543.940748 113.522356 
L 544.475217 108.991602 
L 544.925295 106.798002 
L 545.319114 105.844141 
L 545.600413 105.620348 
L 545.853582 105.696809 
L 546.134881 106.047248 
L 546.528699 106.929236 
L 547.063167 108.720643 
L 547.794545 112.027038 
L 548.779091 117.608046 
L 549.988677 125.829504 
L 551.338912 136.592247 
L 552.689148 149.202459 
L 553.954993 163.137025 
L 555.108319 178.32636 
L 556.205385 195.801345 
L 557.274321 216.552701 
L 558.343258 241.846102 
L 559.665363 279.016115 
L 561.268767 323.143128 
L 562.056405 338.743428 
L 562.675262 347.009283 
L 563.20973 351.551996 
L 563.687939 353.887159 
L 564.053628 354.764976 
L 564.334927 355.003173 
L 564.588096 354.938858 
L 564.869395 354.599189 
L 565.263213 353.724535 
L 565.797681 351.943127 
L 566.529059 348.651864 
L 567.513605 343.088352 
L 568.723191 334.892753 
L 570.073426 324.169795 
L 571.423662 311.614607 
L 572.689507 297.730174 
L 573.870963 282.242424 
L 574.968029 264.847611 
L 576.036965 244.196854 
L 577.077772 219.679794 
L 578.399877 182.671452 
L 580.031411 137.586135 
L 580.790918 122.386573 
L 581.437906 113.59162 
L 581.972374 109.033198 
L 582.422453 106.82065 
L 582.816271 105.853496 
L 583.09757 105.621675 
L 583.350739 105.691875 
L 583.632038 106.036349 
L 584.025857 106.911469 
L 584.560325 108.695403 
L 585.291703 111.994228 
L 586.276249 117.567806 
L 587.485835 125.781914 
L 588.83607 136.536489 
L 590.186305 149.136964 
L 591.452151 163.059242 
L 592.605477 178.232827 
L 593.702543 195.687778 
L 594.771479 216.414064 
L 595.840415 241.678169 
L 597.162521 278.825064 
L 598.765925 322.992936 
L 599.553562 338.638264 
L 600.17242 346.940261 
L 600.706888 351.509871 
L 601.185097 353.865086 
L 601.578915 354.795929 
L 601.860214 355.007463 
L 602.113383 354.922243 
L 602.422812 354.512697 
L 602.844761 353.503982 
L 603.407359 351.521082 
L 604.166866 347.96176 
L 605.179543 342.069406 
L 606.417258 333.481179 
L 607.767493 322.518255 
L 609.089599 309.961151 
L 610.355444 295.766323 
L 611.50877 280.289188 
L 612.605836 262.475238 
L 613.674773 241.297303 
L 614.743709 215.444614 
L 616.178334 174.54212 
L 617.556699 137.082357 
L 618.316206 122.030706 
L 618.935064 113.661246 
L 619.469532 109.075102 
L 619.919611 106.84354 
L 620.313429 105.863051 
L 620.594728 105.623176 
L 620.847897 105.687092 
L 621.129196 106.025577 
L 621.523015 106.893807 
L 622.057483 108.670243 
L 622.78886 111.961475 
L 623.773407 117.52761 
L 624.982993 125.734362 
L 626.333228 136.480773 
L 627.683463 149.071521 
L 628.949309 162.981535 
L 630.102635 178.139398 
L 631.199701 195.574345 
L 632.268637 216.275591 
L 633.337573 241.510409 
L 634.659679 278.634038 
L 636.291213 323.493831 
L 637.05072 338.532697 
L 637.669578 346.870886 
L 638.204046 351.467447 
L 638.682254 353.842769 
L 639.076073 354.786902 
L 639.357372 355.00638 
L 639.610541 354.927387 
L 639.89184 354.573614 
L 640.285659 353.682702 
L 640.848257 351.773271 
L 641.607764 348.287389 
L 642.592311 342.643138 
L 643.801896 334.367026 
L 645.152132 323.554511 
L 646.502367 310.89104 
L 647.768212 296.871578 
L 648.921538 281.616799 
L 650.018604 264.088287 
L 651.087541 243.269193 
L 652.156477 217.828616 
L 653.506712 179.726262 
L 655.025727 137.889257 
L 655.785234 122.601507 
L 656.432222 113.731231 
L 656.96669 109.117313 
L 657.416768 106.86667 
L 657.810587 105.872805 
L 658.091886 105.624848 
L 658.345055 105.682458 
L 658.626354 106.014931 
L 659.020173 106.876246 
L 659.554641 108.645162 
L 660.286018 111.928778 
L 661.242435 117.313552 
L 662.452021 125.480902 
L 663.802256 136.183757 
L 665.152491 148.724293 
L 666.418337 162.603025 
L 666.671506 165.685989 
L 666.671506 165.685989 
" clip-path="url(#p05f61ba08a)" style="fill: none; stroke-dasharray: 11.1,4.8; stroke-dashoffset: 0; stroke: #000000; stroke-opacity: 0.7; stroke-width: 3"/>
   </g>
   <g id="line2d_9">
    <path d="M 104.101619 171.103739 
L 104.326659 170.319862 
L 104.467308 170.396384 
L 104.889257 171.031186 
L 105.114296 172.000777 
L 106.070712 176.834595 
L 106.408271 177.120869 
L 106.60518 178.339038 
L 108.039805 189.521372 
L 108.377364 190.455368 
L 108.602403 191.026308 
L 108.827443 192.52292 
L 109.361911 198.148586 
L 110.852796 218.524057 
L 112.765629 264.017438 
L 113.834565 296.534787 
L 114.453423 313.549604 
L 114.903501 324.771257 
L 115.634879 344.617448 
L 115.972437 347.304842 
L 116.619425 351.330707 
L 116.956984 353.337713 
L 117.182023 353.504624 
L 117.491452 353.551164 
L 117.885271 353.327229 
L 118.08218 353.415502 
L 118.1947 353.116219 
L 118.419739 351.527297 
L 119.573065 342.40131 
L 121.485898 331.827601 
L 121.907847 330.132431 
L 123.62377 317.911848 
L 124.327018 315.058652 
L 124.805226 310.950037 
L 126.183591 295.82793 
L 127.055618 284.106048 
L 127.927645 270.094706 
L 129.47479 242.272058 
L 130.037388 228.231645 
L 130.825025 205.004481 
L 131.528273 186.048664 
L 132.456559 162.596368 
L 133.159807 146.251254 
L 134.566302 118.161194 
L 135.832147 105.741459 
L 136.057187 105.306472 
L 136.507265 105.046173 
L 136.760434 104.760355 
L 136.788564 104.787997 
L 136.901084 105.140388 
L 137.182383 107.197913 
L 137.548071 109.393328 
L 137.688721 109.550138 
L 137.716851 109.527929 
L 137.88563 109.140925 
L 138.110669 108.800386 
L 138.223189 108.997262 
L 138.420098 109.996521 
L 138.813917 113.381737 
L 139.432775 118.799223 
L 139.629684 119.192477 
L 139.939113 119.298629 
L 140.107892 120.07893 
L 140.72675 123.460495 
L 140.951789 125.136683 
L 141.683167 131.417978 
L 142.076985 132.893713 
L 142.414544 136.839327 
L 143.56787 150.714509 
L 144.411767 158.237583 
L 145.733873 175.331399 
L 147.365407 202.201965 
L 149.897098 262.308837 
L 152.20375 327.726292 
L 153.244556 344.492451 
L 153.694634 349.265001 
L 154.200973 354.493802 
L 154.93235 358.835461 
L 155.073 358.782968 
L 155.326169 358.209126 
L 155.635598 357.794278 
L 155.776247 357.329262 
L 156.057546 355.105176 
L 156.479495 352.279128 
L 156.845183 351.305018 
L 157.042093 350.733106 
L 157.267132 349.031867 
L 157.88599 343.895678 
L 158.336068 342.3183 
L 158.617367 341.867471 
L 158.983056 341.808251 
L 159.151835 340.946595 
L 159.489394 337.627264 
L 161.120928 320.656706 
L 162.696203 307.548401 
L 164.468386 283.922043 
L 166.015531 260.00415 
L 167.056337 240.455981 
L 168.265923 210.758959 
L 169.2786 183.051588 
L 170.038107 161.084927 
L 170.910134 139.07447 
L 171.697771 120.794419 
L 172.147849 116.187613 
L 172.597928 111.394255 
L 173.273045 104.703353 
L 173.554344 103.700794 
L 173.976293 102.668069 
L 174.285722 101.919866 
L 174.398241 102.189619 
L 174.651411 103.77748 
L 175.073359 106.141451 
L 175.270268 106.379562 
L 175.495308 106.499551 
L 175.664087 106.966382 
L 175.917256 108.624159 
L 176.929933 116.14067 
L 177.239361 116.706395 
L 177.492531 117.930458 
L 178.645856 126.569634 
L 179.095935 130.266611 
L 179.630403 132.662446 
L 181.768275 156.406688 
L 182.584043 166.69626 
L 183.146641 174.097303 
L 184.693785 197.914505 
L 185.790851 222.470264 
L 187.900594 277.893247 
L 188.716361 300.814048 
L 189.869687 329.798163 
L 190.854233 346.071271 
L 191.304312 351.47248 
L 191.670001 355.139078 
L 192.288858 358.143051 
L 192.429508 358.081433 
L 192.626417 357.716266 
L 193.076496 356.729486 
L 193.217145 356.575043 
L 193.357795 355.982281 
L 194.117302 351.769047 
L 194.53925 351.24965 
L 194.70803 350.341603 
L 195.805096 342.339915 
L 196.142655 341.436728 
L 196.255174 341.484584 
L 196.452084 341.657978 
L 196.480214 341.630326 
L 196.592733 341.277574 
L 196.817772 339.460472 
L 198.505566 322.456723 
L 199.940191 311.180646 
L 200.615309 302.452311 
L 201.318557 293.265242 
L 202.725052 271.805373 
L 204.159677 244.800137 
L 205.706821 209.3597 
L 208.210382 139.997913 
L 209.082409 121.416213 
L 209.560617 117.019642 
L 209.954436 112.726964 
L 210.742073 104.236533 
L 211.051502 103.089304 
L 211.58597 102.04932 
L 211.67036 102.131343 
L 211.81101 102.782296 
L 212.711166 108.52484 
L 212.992465 108.781116 
L 213.161245 109.406847 
L 213.526933 111.991272 
L 214.286441 117.276322 
L 214.792779 118.671562 
L 215.102208 120.868017 
L 215.496027 123.21328 
L 215.749196 124.623132 
L 216.733742 132.115015 
L 216.874392 132.506284 
L 217.071301 134.037547 
L 217.690159 141.950607 
L 218.393406 149.64943 
L 219.012264 154.769448 
L 220.925097 180.446742 
L 222.247203 202.226185 
L 224.356945 250.882071 
L 226.326038 308.887132 
L 226.804247 322.147879 
L 228.013832 344.379062 
L 228.68895 350.900845 
L 229.054639 353.801148 
L 229.814146 356.682469 
L 230.011055 356.547242 
L 230.376744 356.207308 
L 230.629913 356.354196 
L 230.742433 356.002293 
L 231.051862 353.792607 
L 231.44568 351.631667 
L 232.120798 349.064729 
L 232.964695 342.395081 
L 233.414773 341.188951 
L 233.555423 341.198596 
L 233.808592 341.52828 
L 233.864852 341.460178 
L 234.005501 340.841175 
L 234.2868 338.059195 
L 235.046308 330.204872 
L 235.552646 325.106734 
L 236.115244 320.843374 
L 236.734102 316.31797 
L 237.493609 308.996388 
L 239.744001 278.53266 
L 240.728548 262.136899 
L 241.853744 240.275379 
L 243.119589 209.264965 
L 244.413565 171.54252 
L 245.229332 149.925152 
L 246.776476 118.067446 
L 247.423464 111.052358 
L 248.042322 104.409609 
L 248.295491 103.505563 
L 248.52053 103.427201 
L 248.801829 103.332243 
L 249.054998 103.219607 
L 249.167518 103.560103 
L 249.420687 105.458219 
L 249.870765 108.48751 
L 250.039545 108.670157 
L 250.264584 108.373283 
L 250.405233 108.301425 
L 250.433363 108.326785 
L 250.574013 108.733112 
L 250.855312 110.603863 
L 251.867988 117.929004 
L 252.121157 118.257043 
L 252.318067 119.138106 
L 253.471393 127.378966 
L 253.921471 131.010739 
L 254.455939 133.508557 
L 255.102927 141.826596 
L 255.749915 148.782708 
L 256.396902 153.845236 
L 257.972177 174.740414 
L 259.603711 201.320603 
L 262.079142 261.459992 
L 264.273275 324.766228 
L 265.370341 343.683861 
L 265.932939 348.87597 
L 266.495537 354.248497 
L 267.226914 358.053102 
L 267.367564 358.090622 
L 267.592603 357.724416 
L 267.845772 357.513755 
L 267.986421 357.343099 
L 268.155201 356.486961 
L 268.942838 351.315809 
L 269.449176 349.377997 
L 270.377463 342.382783 
L 270.827541 341.287198 
L 270.996321 341.269647 
L 271.22136 341.330862 
L 271.36201 340.908428 
L 271.587049 339.210679 
L 272.768505 326.367872 
L 273.443622 320.016703 
L 274.990767 307.313744 
L 276.397262 289.16717 
L 277.747497 269.337794 
L 279.519681 238.283289 
L 280.701137 208.103722 
L 281.460644 187.417477 
L 282.50145 158.84336 
L 283.598516 131.14327 
L 284.104855 120.576257 
L 284.583063 115.379394 
L 285.877038 103.786701 
L 286.411506 102.499821 
L 286.636546 102.016713 
L 286.664676 102.038635 
L 286.777195 102.368542 
L 287.142884 104.63695 
L 287.480443 106.027298 
L 287.649222 106.095463 
L 287.874261 106.147287 
L 288.014911 106.506894 
L 288.23995 107.891904 
L 288.858808 113.739327 
L 289.224497 116.122323 
L 289.505796 116.593579 
L 289.702705 117.141807 
L 289.955874 118.621839 
L 290.462212 121.703102 
L 290.687251 123.112306 
L 291.671798 131.059051 
L 291.840577 131.559571 
L 292.037487 133.170427 
L 293.472112 147.832775 
L 293.753411 150.779358 
L 296.8477 193.53614 
L 297.410298 205.019893 
L 299.041832 241.362832 
L 299.60443 255.923854 
L 301.826692 320.846356 
L 303.092538 343.730857 
L 303.655136 349.873775 
L 304.105214 354.619999 
L 304.667812 357.545992 
L 304.808462 357.502593 
L 305.005371 357.165789 
L 305.511709 356.11928 
L 305.652359 355.838332 
L 305.849268 354.6445 
L 306.327476 351.674694 
L 306.552515 351.386383 
L 306.861944 351.266022 
L 307.002594 350.778023 
L 307.255763 348.665978 
L 307.790231 344.297251 
L 308.296569 342.354038 
L 308.521609 341.992373 
L 308.662258 342.161692 
L 308.831037 342.313843 
L 308.943557 342.036483 
L 309.140466 340.635067 
L 309.815584 333.006557 
L 310.659481 324.478744 
L 311.222079 320.41574 
L 311.756547 316.336285 
L 312.572314 308.519355 
L 314.428888 282.563862 
L 315.554084 264.13269 
L 316.65115 242.951309 
L 318.198294 205.997726 
L 321.095674 126.759921 
L 321.517623 120.413081 
L 322.052091 115.83381 
L 322.586559 109.421395 
L 323.064767 104.637194 
L 323.374196 103.380385 
L 323.993054 101.956389 
L 324.077444 102.096242 
L 324.246223 103.070395 
L 324.977601 108.23951 
L 325.2589 108.481823 
L 325.427679 108.833598 
L 325.652718 110.055688 
L 326.749784 117.24589 
L 327.002953 117.796303 
L 327.256122 118.998497 
L 328.409448 127.393652 
L 328.887657 131.409224 
L 329.168956 132.084476 
L 329.309605 132.706153 
L 329.562774 135.267754 
L 330.82862 149.672706 
L 331.250568 152.951116 
L 331.897556 161.713183 
L 334.119818 192.384502 
L 334.738676 204.816831 
L 336.904678 256.311359 
L 339.1832 322.608004 
L 340.392786 344.717627 
L 341.124164 352.000367 
L 341.433592 354.128678 
L 342.13684 356.713166 
L 342.16497 356.703033 
L 342.361879 356.496161 
L 342.755698 355.937121 
L 342.980737 355.966089 
L 343.121387 355.469367 
L 344.105933 350.52061 
L 344.359102 349.726759 
L 344.584141 347.924779 
L 345.202999 342.636959 
L 345.653078 341.08075 
L 345.878117 340.721335 
L 346.018766 340.898506 
L 346.187546 341.118409 
L 346.215676 341.097176 
L 346.328195 340.749963 
L 346.525105 339.17944 
L 348.100379 323.5018 
L 349.788173 309.836599 
L 351.588487 285.894388 
L 352.657423 269.092776 
L 354.007658 243.822137 
L 355.273504 215.212611 
L 358.424053 128.516486 
L 358.846001 121.07613 
L 359.352339 115.985601 
L 359.830548 110.118463 
L 360.393146 103.965263 
L 360.646315 103.066395 
L 360.899484 102.927253 
L 361.208913 102.718895 
L 361.349562 102.675401 
L 361.377692 102.709536 
L 361.518342 103.237168 
L 361.8559 106.070867 
L 362.221589 108.311845 
L 362.390369 108.476719 
L 362.784187 108.381103 
L 362.952967 108.996223 
L 363.290525 111.425154 
L 364.078163 117.330852 
L 364.556371 118.503558 
L 364.89393 120.950899 
L 365.259618 122.860327 
L 365.484658 124.216147 
L 366.412944 131.425724 
L 366.581724 131.894423 
L 366.778633 133.453464 
L 367.453751 142.116202 
L 368.072609 148.635237 
L 368.691466 153.571143 
L 370.37926 176.286648 
L 371.954535 202.562941 
L 374.711265 271.252302 
L 376.595968 324.91111 
L 377.693035 343.914979 
L 378.255633 348.993264 
L 378.790101 353.870046 
L 379.549608 357.429578 
L 379.746517 357.443946 
L 380.168466 357.348765 
L 380.280986 357.291986 
L 380.421635 356.764089 
L 380.815454 353.657401 
L 381.209272 351.526374 
L 381.8 348.966004 
L 382.587637 342.457792 
L 383.037716 341.194681 
L 383.262755 340.983203 
L 383.572184 341.055581 
L 383.712833 340.532979 
L 383.966003 338.394142 
L 385.878836 319.070287 
L 387.060292 309.839008 
L 387.51037 304.650342 
L 388.635566 290.284576 
L 390.098321 269.066442 
L 391.898635 237.592986 
L 393.023831 208.60146 
L 393.783338 187.53164 
L 394.852274 158.768992 
L 395.89308 132.843682 
L 396.455678 120.663702 
L 396.990147 114.590764 
L 398.087213 104.150531 
L 398.368512 103.584944 
L 398.677941 102.936527 
L 398.98737 102.29175 
L 399.099889 102.570437 
L 399.381188 104.293917 
L 399.775007 106.15185 
L 399.943786 106.273982 
L 400.253215 106.247985 
L 400.393865 106.650513 
L 400.647034 108.35587 
L 401.77223 116.934935 
L 401.997269 117.286031 
L 402.194178 118.108543 
L 403.178725 124.675391 
L 403.853842 130.869549 
L 404.38831 133.386413 
L 406.019845 150.097167 
L 406.385533 154.69133 
L 407.42634 168.03262 
L 408.073328 176.866985 
L 409.564212 200.227975 
L 410.970707 232.176386 
L 412.067773 257.98193 
L 414.261906 321.858825 
L 415.527751 344.336469 
L 416.00596 349.733858 
L 416.512298 355.121453 
L 417.018636 358.047542 
L 417.159285 358.055712 
L 417.356195 357.768472 
L 418.171962 355.485909 
L 418.73456 352.061879 
L 418.987729 351.78612 
L 419.240898 351.632346 
L 419.381548 351.097297 
L 419.634717 348.904216 
L 420.169185 344.570197 
L 420.675523 342.634253 
L 420.900562 342.306342 
L 421.069342 342.512343 
L 421.181861 342.581379 
L 421.209991 342.556379 
L 421.322511 342.225422 
L 421.51942 340.769434 
L 422.222668 332.750079 
L 423.038435 324.442433 
L 423.629163 320.082364 
L 424.191761 315.699954 
L 424.951268 308.40526 
L 426.892231 281.374529 
L 428.017427 263.063199 
L 429.086363 242.421977 
L 430.605378 205.960648 
L 433.530888 125.974166 
L 433.952836 119.88998 
L 435.6125 103.896546 
L 436.259488 101.942998 
L 436.400138 101.741357 
L 436.428268 101.760457 
L 436.540787 102.107713 
L 436.793956 104.071925 
L 437.272165 107.525475 
L 437.497204 107.92847 
L 437.750373 108.221737 
L 437.947282 109.028459 
L 438.397361 112.473403 
L 438.959959 116.504797 
L 439.297517 117.159877 
L 439.550687 118.082429 
L 439.860115 120.258617 
L 440.253934 122.570625 
L 440.507103 124.044938 
L 441.46352 131.621688 
L 441.632299 132.057269 
L 441.829208 133.566822 
L 442.476196 141.709026 
L 443.095054 148.231106 
L 443.657652 152.810881 
L 445.823654 182.101267 
L 446.808201 197.748326 
L 447.933397 222.821061 
L 448.692904 240.532329 
L 449.283632 256.316612 
L 451.449635 320.308463 
L 452.68735 343.950579 
L 453.868806 354.635098 
L 454.459534 356.898275 
L 454.515794 356.878029 
L 454.712703 356.64254 
L 455.190911 355.881402 
L 455.331561 355.861942 
L 455.44408 355.558138 
L 455.69725 353.91702 
L 456.147328 351.372716 
L 456.541147 350.433717 
L 456.738056 349.77679 
L 456.963095 347.97116 
L 457.581953 342.592637 
L 458.060161 340.860752 
L 458.2852 340.503608 
L 458.42585 340.684111 
L 458.594629 340.867427 
L 458.622759 340.834193 
L 458.735279 340.430816 
L 458.960318 338.463792 
L 459.888605 329.088107 
L 460.985671 320.149139 
L 461.463879 316.612595 
L 462.167127 309.810968 
L 464.10809 283.710359 
L 465.064507 268.257476 
L 466.189703 247.125667 
L 467.399288 221.180637 
L 467.877497 208.128469 
L 469.81846 152.145651 
L 471.224955 120.951366 
L 471.787553 115.414517 
L 472.997139 102.921491 
L 473.278438 102.655389 
L 473.728516 102.374505 
L 473.756646 102.426807 
L 473.897295 103.061917 
L 474.769322 108.389507 
L 475.106881 108.382398 
L 475.275661 108.931644 
L 475.613219 111.182311 
L 476.457116 117.19831 
L 476.822805 118.05675 
L 477.075974 119.583216 
L 477.582312 122.789138 
L 477.835482 124.222025 
L 478.763768 131.495088 
L 478.960678 132.059179 
L 479.157587 133.707799 
L 480.029614 144.828287 
L 480.507822 149.232461 
L 480.957901 152.651796 
L 481.492369 159.828898 
L 484.02406 196.215966 
L 485.008606 218.044015 
L 487.174609 273.661863 
L 488.890533 323.269653 
L 490.071988 344.111548 
L 490.634586 349.230621 
L 491.140925 353.782038 
L 491.928562 357.244523 
L 492.125471 357.207649 
L 492.35051 357.180337 
L 492.659939 357.347216 
L 492.800589 356.806013 
L 493.813265 351.098676 
L 494.038304 350.214664 
L 494.291473 347.930127 
L 494.825942 343.202631 
L 495.19163 341.871917 
L 495.557319 341.18721 
L 495.697969 341.249306 
L 495.894878 341.343043 
L 496.007397 341.070712 
L 496.204307 339.774452 
L 496.738775 333.857591 
L 497.863971 322.221127 
L 499.889324 304.463472 
L 500.761351 293.473839 
L 502.392885 270.155995 
L 504.277588 236.852138 
L 505.430914 206.565594 
L 506.162292 186.237009 
L 508.328294 130.23291 
L 508.806502 120.499189 
L 509.3691 114.129886 
L 510.353647 104.458579 
L 510.606816 103.786446 
L 511.028764 103.184665 
L 511.310063 102.688495 
L 511.338193 102.711945 
L 511.450713 103.049141 
L 511.760142 105.115357 
L 512.097701 106.748601 
L 512.26648 106.908764 
L 512.632169 106.816172 
L 512.772818 107.254512 
L 513.025987 109.012797 
L 514.151183 117.662881 
L 514.404353 118.008545 
L 514.601262 118.91796 
L 515.698328 126.827831 
L 516.176536 131.028756 
L 516.457835 131.824454 
L 516.598485 132.442502 
L 516.851654 135.00771 
L 518.08937 149.180605 
L 518.623838 153.383907 
L 520.142852 172.883336 
L 521.802516 198.076469 
L 522.955842 222.942305 
L 523.799739 241.382813 
L 524.390467 256.656758 
L 526.753379 324.864984 
L 527.934835 344.907744 
L 528.413043 350.629225 
L 528.863122 355.247767 
L 529.34133 358.476374 
L 529.510109 358.572117 
L 529.678889 358.375994 
L 530.410266 356.578799 
L 531.254163 351.976524 
L 531.619852 351.541887 
L 531.788631 350.612141 
L 532.716918 343.792613 
L 533.138867 342.600924 
L 533.279516 342.608299 
L 533.532685 342.797206 
L 533.645205 342.48727 
L 533.842114 341.104572 
L 534.460972 334.207955 
L 535.248609 325.642972 
L 535.839337 320.754804 
L 536.683234 314.236772 
L 537.273962 308.582066 
L 538.708587 289.124031 
L 540.227602 265.546353 
L 541.155888 248.668471 
L 541.802876 234.330114 
L 543.940748 178.56459 
L 545.628542 132.093389 
L 546.078621 122.376964 
L 546.500569 117.847639 
L 546.978778 113.521706 
L 547.878935 104.271921 
L 548.188363 103.323807 
L 548.582182 102.069693 
L 548.779091 101.69607 
L 548.891611 101.998271 
L 549.11665 103.615058 
L 549.622988 107.11953 
L 549.848028 107.479869 
L 550.073067 107.737472 
L 550.241846 108.346596 
L 550.579405 110.773129 
L 551.367042 116.312876 
L 551.788991 117.169883 
L 552.04216 118.56611 
L 552.632888 122.161476 
L 552.857927 123.671378 
L 553.729954 130.894145 
L 553.983123 131.604456 
L 554.208162 133.603461 
L 555.558397 147.905046 
L 555.839696 150.414993 
L 556.599204 161.065737 
L 558.962115 194.034072 
L 559.552843 206.690979 
L 561.915755 265.362178 
L 564.138017 327.132734 
L 565.206953 345.587856 
L 565.741422 351.360747 
L 566.13524 354.72492 
L 566.782228 357.279613 
L 566.810358 357.271782 
L 567.007267 357.04303 
L 567.879294 355.036427 
L 568.498152 351.445582 
L 568.9201 350.612374 
L 569.08888 350.00481 
L 569.313919 348.142272 
L 569.932777 342.769458 
L 570.439115 340.858227 
L 570.664154 340.559549 
L 570.945453 340.846958 
L 571.001713 340.745846 
L 571.142363 340.032182 
L 571.423662 337.088862 
L 572.070649 330.226699 
L 572.380078 327.627578 
L 573.055196 321.750678 
L 574.039742 314.633231 
L 574.517951 309.674219 
L 576.571433 281.699909 
L 577.52785 265.817456 
L 578.512397 246.861875 
L 579.947021 215.643216 
L 581.522296 169.410543 
L 582.281803 148.802503 
L 583.603909 120.433953 
L 585.263573 103.210301 
L 585.516742 102.707446 
L 586.05121 102.216327 
L 586.16373 102.531993 
L 586.388769 104.222802 
L 586.923237 108.246312 
L 587.120146 108.542061 
L 587.429575 108.659833 
L 587.598354 109.223722 
L 587.964043 111.679659 
L 588.77981 117.289204 
L 589.145499 118.199373 
L 589.398668 119.693496 
L 589.961266 123.217716 
L 590.186305 124.566522 
L 591.114592 131.767802 
L 591.311501 132.336816 
L 591.508411 134.00444 
L 593.224335 152.206935 
L 593.618153 157.024205 
L 596.487403 198.563253 
L 597.640729 224.918074 
L 598.231457 238.289729 
L 598.850315 253.39607 
L 601.550785 328.769926 
L 602.507202 344.766108 
L 603.01354 349.552336 
L 603.491748 353.772138 
L 604.279386 357.077495 
L 604.476295 357.009638 
L 604.701334 356.913162 
L 604.898243 357.225264 
L 605.010763 357.276706 
L 605.038893 357.23805 
L 605.179543 356.666054 
L 606.079699 351.519031 
L 606.389128 350.465083 
L 606.642297 348.253454 
L 607.204895 343.335566 
L 607.598714 341.951605 
L 607.908143 341.43346 
L 608.048792 341.52742 
L 608.245702 341.653373 
L 608.358221 341.364754 
L 608.555131 340.002673 
L 609.117729 333.595404 
L 610.130405 323.320278 
L 610.777393 318.58884 
L 611.42438 313.402413 
L 612.015108 307.646288 
L 614.209241 278.289106 
L 615.334437 260.322793 
L 616.487763 238.72828 
L 617.612959 210.306474 
L 618.569375 183.021824 
L 621.297976 118.058119 
L 622.648211 104.460542 
L 622.90138 103.845613 
L 623.379588 103.423901 
L 623.604628 103.177131 
L 623.717147 103.448136 
L 623.942186 104.922513 
L 624.392265 107.681998 
L 624.532914 107.823867 
L 624.561044 107.809754 
L 624.926733 107.521623 
L 624.954863 107.556661 
L 625.095512 107.989101 
L 625.348681 109.728891 
L 625.967539 115.845917 
L 626.305098 118.006189 
L 626.530137 118.322492 
L 626.698917 118.50585 
L 626.867696 119.152983 
L 627.852243 125.506083 
L 628.52736 131.47133 
L 628.977439 133.309781 
L 629.371257 138.138007 
L 630.327674 149.427321 
L 631.199701 157.160535 
L 633.984561 196.178302 
L 635.081627 219.345758 
L 636.99446 266.51463 
L 639.132333 327.402434 
L 640.257529 345.698465 
L 640.735737 351.557082 
L 641.157686 355.694543 
L 641.720284 359.556245 
L 641.889063 359.607379 
L 642.057842 359.326591 
L 642.479791 358.545261 
L 642.62044 358.19964 
L 642.81735 356.885181 
L 643.351818 353.184183 
L 643.689377 352.444087 
L 643.914416 351.914556 
L 644.111325 350.573443 
L 644.870833 344.524316 
L 645.349041 342.944296 
L 645.54595 342.783571 
L 645.799119 342.829909 
L 645.939769 342.381573 
L 646.164808 340.655589 
L 646.896185 332.266164 
L 647.852602 322.46049 
L 649.709175 306.117816 
L 652.915984 259.137831 
L 654.01305 237.310952 
L 656.319702 177.360094 
L 657.726197 138.722238 
L 658.513834 120.822337 
L 658.963913 116.527249 
L 659.357731 112.514426 
L 660.145369 104.521788 
L 660.426668 103.563891 
L 660.820486 102.486769 
L 661.101785 101.706341 
L 661.129915 101.721388 
L 661.242435 102.068112 
L 661.523734 104.092075 
L 661.945682 106.555174 
L 662.170722 106.827579 
L 662.367631 107.0346 
L 662.53641 107.606967 
L 662.845839 109.803518 
L 663.689736 115.9974 
L 664.139815 116.958395 
L 664.421114 118.678183 
L 664.899322 121.535162 
L 665.124361 122.879554 
L 666.108908 130.639757 
L 666.277687 131.147143 
L 666.474596 132.760428 
L 666.671506 135.0685 
L 666.671506 135.0685 
" clip-path="url(#p05f61ba08a)" style="fill: none; stroke: #2ca02c; stroke-opacity: 0.8; stroke-width: 3; stroke-linecap: square"/>
   </g>
   <g id="line2d_10">
    <path d="M 104.101619 372.805982 
L 132.23152 372.805982 
" clip-path="url(#p05f61ba08a)" style="fill: none; stroke: #000000; stroke-width: 5; stroke-linecap: square"/>
   </g>
   <g id="patch_3">
    <path d="M 75.973125 386.3618 
L 75.973125 88.1338 
" style="fill: none; stroke: #000000; stroke-width: 0.8; stroke-linejoin: miter; stroke-linecap: square"/>
   </g>
   <g id="text_9">
    <!-- 100ms -->
    <g transform="translate(90.93657 399.874882) scale(0.16 -0.16)">
     <defs>
      <path id="DejaVuSans-6d" d="M 3328 2828 
Q 3544 3216 3844 3400 
Q 4144 3584 4550 3584 
Q 5097 3584 5394 3201 
Q 5691 2819 5691 2113 
L 5691 0 
L 5113 0 
L 5113 2094 
Q 5113 2597 4934 2840 
Q 4756 3084 4391 3084 
Q 3944 3084 3684 2787 
Q 3425 2491 3425 1978 
L 3425 0 
L 2847 0 
L 2847 2094 
Q 2847 2600 2669 2842 
Q 2491 3084 2119 3084 
Q 1678 3084 1418 2786 
Q 1159 2488 1159 1978 
L 1159 0 
L 581 0 
L 581 3500 
L 1159 3500 
L 1159 2956 
Q 1356 3278 1631 3431 
Q 1906 3584 2284 3584 
Q 2666 3584 2933 3390 
Q 3200 3197 3328 2828 
z
" transform="scale(0.015625)"/>
      <path id="DejaVuSans-73" d="M 2834 3397 
L 2834 2853 
Q 2591 2978 2328 3040 
Q 2066 3103 1784 3103 
Q 1356 3103 1142 2972 
Q 928 2841 928 2578 
Q 928 2378 1081 2264 
Q 1234 2150 1697 2047 
L 1894 2003 
Q 2506 1872 2764 1633 
Q 3022 1394 3022 966 
Q 3022 478 2636 193 
Q 2250 -91 1575 -91 
Q 1294 -91 989 -36 
Q 684 19 347 128 
L 347 722 
Q 666 556 975 473 
Q 1284 391 1588 391 
Q 1994 391 2212 530 
Q 2431 669 2431 922 
Q 2431 1156 2273 1281 
Q 2116 1406 1581 1522 
L 1381 1569 
Q 847 1681 609 1914 
Q 372 2147 372 2553 
Q 372 3047 722 3315 
Q 1072 3584 1716 3584 
Q 2034 3584 2315 3537 
Q 2597 3491 2834 3397 
z
" transform="scale(0.015625)"/>
     </defs>
     <use xlink:href="#DejaVuSans-31"/>
     <use xlink:href="#DejaVuSans-30" x="63.623047"/>
     <use xlink:href="#DejaVuSans-30" x="127.246094"/>
     <use xlink:href="#DejaVuSans-6d" x="190.869141"/>
     <use xlink:href="#DejaVuSans-73" x="288.28125"/>
    </g>
   </g>
   <g id="text_10">
    <!-- True vs Generated  -->
    <g transform="translate(271.446563 25.43625) scale(0.24 -0.24)">
     <defs>
      <path id="DejaVuSans-54" d="M -19 4666 
L 3928 4666 
L 3928 4134 
L 2272 4134 
L 2272 0 
L 1638 0 
L 1638 4134 
L -19 4134 
L -19 4666 
z
" transform="scale(0.015625)"/>
      <path id="DejaVuSans-72" d="M 2631 2963 
Q 2534 3019 2420 3045 
Q 2306 3072 2169 3072 
Q 1681 3072 1420 2755 
Q 1159 2438 1159 1844 
L 1159 0 
L 581 0 
L 581 3500 
L 1159 3500 
L 1159 2956 
Q 1341 3275 1631 3429 
Q 1922 3584 2338 3584 
Q 2397 3584 2469 3576 
Q 2541 3569 2628 3553 
L 2631 2963 
z
" transform="scale(0.015625)"/>
      <path id="DejaVuSans-75" d="M 544 1381 
L 544 3500 
L 1119 3500 
L 1119 1403 
Q 1119 906 1312 657 
Q 1506 409 1894 409 
Q 2359 409 2629 706 
Q 2900 1003 2900 1516 
L 2900 3500 
L 3475 3500 
L 3475 0 
L 2900 0 
L 2900 538 
Q 2691 219 2414 64 
Q 2138 -91 1772 -91 
Q 1169 -91 856 284 
Q 544 659 544 1381 
z
M 1991 3584 
L 1991 3584 
z
" transform="scale(0.015625)"/>
      <path id="DejaVuSans-65" d="M 3597 1894 
L 3597 1613 
L 953 1613 
Q 991 1019 1311 708 
Q 1631 397 2203 397 
Q 2534 397 2845 478 
Q 3156 559 3463 722 
L 3463 178 
Q 3153 47 2828 -22 
Q 2503 -91 2169 -91 
Q 1331 -91 842 396 
Q 353 884 353 1716 
Q 353 2575 817 3079 
Q 1281 3584 2069 3584 
Q 2775 3584 3186 3129 
Q 3597 2675 3597 1894 
z
M 3022 2063 
Q 3016 2534 2758 2815 
Q 2500 3097 2075 3097 
Q 1594 3097 1305 2825 
Q 1016 2553 972 2059 
L 3022 2063 
z
" transform="scale(0.015625)"/>
      <path id="DejaVuSans-20" transform="scale(0.015625)"/>
      <path id="DejaVuSans-76" d="M 191 3500 
L 800 3500 
L 1894 563 
L 2988 3500 
L 3597 3500 
L 2284 0 
L 1503 0 
L 191 3500 
z
" transform="scale(0.015625)"/>
      <path id="DejaVuSans-47" d="M 3809 666 
L 3809 1919 
L 2778 1919 
L 2778 2438 
L 4434 2438 
L 4434 434 
Q 4069 175 3628 42 
Q 3188 -91 2688 -91 
Q 1594 -91 976 548 
Q 359 1188 359 2328 
Q 359 3472 976 4111 
Q 1594 4750 2688 4750 
Q 3144 4750 3555 4637 
Q 3966 4525 4313 4306 
L 4313 3634 
Q 3963 3931 3569 4081 
Q 3175 4231 2741 4231 
Q 1884 4231 1454 3753 
Q 1025 3275 1025 2328 
Q 1025 1384 1454 906 
Q 1884 428 2741 428 
Q 3075 428 3337 486 
Q 3600 544 3809 666 
z
" transform="scale(0.015625)"/>
      <path id="DejaVuSans-6e" d="M 3513 2113 
L 3513 0 
L 2938 0 
L 2938 2094 
Q 2938 2591 2744 2837 
Q 2550 3084 2163 3084 
Q 1697 3084 1428 2787 
Q 1159 2491 1159 1978 
L 1159 0 
L 581 0 
L 581 3500 
L 1159 3500 
L 1159 2956 
Q 1366 3272 1645 3428 
Q 1925 3584 2291 3584 
Q 2894 3584 3203 3211 
Q 3513 2838 3513 2113 
z
" transform="scale(0.015625)"/>
      <path id="DejaVuSans-61" d="M 2194 1759 
Q 1497 1759 1228 1600 
Q 959 1441 959 1056 
Q 959 750 1161 570 
Q 1363 391 1709 391 
Q 2188 391 2477 730 
Q 2766 1069 2766 1631 
L 2766 1759 
L 2194 1759 
z
M 3341 1997 
L 3341 0 
L 2766 0 
L 2766 531 
Q 2569 213 2275 61 
Q 1981 -91 1556 -91 
Q 1019 -91 701 211 
Q 384 513 384 1019 
Q 384 1609 779 1909 
Q 1175 2209 1959 2209 
L 2766 2209 
L 2766 2266 
Q 2766 2663 2505 2880 
Q 2244 3097 1772 3097 
Q 1472 3097 1187 3025 
Q 903 2953 641 2809 
L 641 3341 
Q 956 3463 1253 3523 
Q 1550 3584 1831 3584 
Q 2591 3584 2966 3190 
Q 3341 2797 3341 1997 
z
" transform="scale(0.015625)"/>
      <path id="DejaVuSans-74" d="M 1172 4494 
L 1172 3500 
L 2356 3500 
L 2356 3053 
L 1172 3053 
L 1172 1153 
Q 1172 725 1289 603 
Q 1406 481 1766 481 
L 2356 481 
L 2356 0 
L 1766 0 
Q 1100 0 847 248 
Q 594 497 594 1153 
L 594 3053 
L 172 3053 
L 172 3500 
L 594 3500 
L 594 4494 
L 1172 4494 
z
" transform="scale(0.015625)"/>
      <path id="DejaVuSans-64" d="M 2906 2969 
L 2906 4863 
L 3481 4863 
L 3481 0 
L 2906 0 
L 2906 525 
Q 2725 213 2448 61 
Q 2172 -91 1784 -91 
Q 1150 -91 751 415 
Q 353 922 353 1747 
Q 353 2572 751 3078 
Q 1150 3584 1784 3584 
Q 2172 3584 2448 3432 
Q 2725 3281 2906 2969 
z
M 947 1747 
Q 947 1113 1208 752 
Q 1469 391 1925 391 
Q 2381 391 2643 752 
Q 2906 1113 2906 1747 
Q 2906 2381 2643 2742 
Q 2381 3103 1925 3103 
Q 1469 3103 1208 2742 
Q 947 2381 947 1747 
z
" transform="scale(0.015625)"/>
     </defs>
     <use xlink:href="#DejaVuSans-54"/>
     <use xlink:href="#DejaVuSans-72" x="46.333984"/>
     <use xlink:href="#DejaVuSans-75" x="87.447266"/>
     <use xlink:href="#DejaVuSans-65" x="150.826172"/>
     <use xlink:href="#DejaVuSans-20" x="212.349609"/>
     <use xlink:href="#DejaVuSans-76" x="244.136719"/>
     <use xlink:href="#DejaVuSans-73" x="303.316406"/>
     <use xlink:href="#DejaVuSans-20" x="355.416016"/>
     <use xlink:href="#DejaVuSans-47" x="387.203125"/>
     <use xlink:href="#DejaVuSans-65" x="464.693359"/>
     <use xlink:href="#DejaVuSans-6e" x="526.216797"/>
     <use xlink:href="#DejaVuSans-65" x="589.595703"/>
     <use xlink:href="#DejaVuSans-72" x="651.119141"/>
     <use xlink:href="#DejaVuSans-61" x="692.232422"/>
     <use xlink:href="#DejaVuSans-74" x="753.511719"/>
     <use xlink:href="#DejaVuSans-65" x="792.720703"/>
     <use xlink:href="#DejaVuSans-64" x="854.244141"/>
     <use xlink:href="#DejaVuSans-20" x="917.720703"/>
    </g>
    <!--  of x Variable over Time -->
    <g transform="translate(242.937188 52.311) scale(0.24 -0.24)">
     <defs>
      <path id="DejaVuSans-6f" d="M 1959 3097 
Q 1497 3097 1228 2736 
Q 959 2375 959 1747 
Q 959 1119 1226 758 
Q 1494 397 1959 397 
Q 2419 397 2687 759 
Q 2956 1122 2956 1747 
Q 2956 2369 2687 2733 
Q 2419 3097 1959 3097 
z
M 1959 3584 
Q 2709 3584 3137 3096 
Q 3566 2609 3566 1747 
Q 3566 888 3137 398 
Q 2709 -91 1959 -91 
Q 1206 -91 779 398 
Q 353 888 353 1747 
Q 353 2609 779 3096 
Q 1206 3584 1959 3584 
z
" transform="scale(0.015625)"/>
      <path id="DejaVuSans-66" d="M 2375 4863 
L 2375 4384 
L 1825 4384 
Q 1516 4384 1395 4259 
Q 1275 4134 1275 3809 
L 1275 3500 
L 2222 3500 
L 2222 3053 
L 1275 3053 
L 1275 0 
L 697 0 
L 697 3053 
L 147 3053 
L 147 3500 
L 697 3500 
L 697 3744 
Q 697 4328 969 4595 
Q 1241 4863 1831 4863 
L 2375 4863 
z
" transform="scale(0.015625)"/>
      <path id="DejaVuSans-56" d="M 1831 0 
L 50 4666 
L 709 4666 
L 2188 738 
L 3669 4666 
L 4325 4666 
L 2547 0 
L 1831 0 
z
" transform="scale(0.015625)"/>
      <path id="DejaVuSans-69" d="M 603 3500 
L 1178 3500 
L 1178 0 
L 603 0 
L 603 3500 
z
M 603 4863 
L 1178 4863 
L 1178 4134 
L 603 4134 
L 603 4863 
z
" transform="scale(0.015625)"/>
      <path id="DejaVuSans-62" d="M 3116 1747 
Q 3116 2381 2855 2742 
Q 2594 3103 2138 3103 
Q 1681 3103 1420 2742 
Q 1159 2381 1159 1747 
Q 1159 1113 1420 752 
Q 1681 391 2138 391 
Q 2594 391 2855 752 
Q 3116 1113 3116 1747 
z
M 1159 2969 
Q 1341 3281 1617 3432 
Q 1894 3584 2278 3584 
Q 2916 3584 3314 3078 
Q 3713 2572 3713 1747 
Q 3713 922 3314 415 
Q 2916 -91 2278 -91 
Q 1894 -91 1617 61 
Q 1341 213 1159 525 
L 1159 0 
L 581 0 
L 581 4863 
L 1159 4863 
L 1159 2969 
z
" transform="scale(0.015625)"/>
      <path id="DejaVuSans-6c" d="M 603 4863 
L 1178 4863 
L 1178 0 
L 603 0 
L 603 4863 
z
" transform="scale(0.015625)"/>
     </defs>
     <use xlink:href="#DejaVuSans-20"/>
     <use xlink:href="#DejaVuSans-6f" x="31.787109"/>
     <use xlink:href="#DejaVuSans-66" x="92.96875"/>
     <use xlink:href="#DejaVuSans-20" x="128.173828"/>
     <use xlink:href="#DejaVuSans-78" x="159.960938"/>
     <use xlink:href="#DejaVuSans-20" x="219.140625"/>
     <use xlink:href="#DejaVuSans-56" x="250.927734"/>
     <use xlink:href="#DejaVuSans-61" x="311.585938"/>
     <use xlink:href="#DejaVuSans-72" x="372.865234"/>
     <use xlink:href="#DejaVuSans-69" x="413.978516"/>
     <use xlink:href="#DejaVuSans-61" x="441.761719"/>
     <use xlink:href="#DejaVuSans-62" x="503.041016"/>
     <use xlink:href="#DejaVuSans-6c" x="566.517578"/>
     <use xlink:href="#DejaVuSans-65" x="594.300781"/>
     <use xlink:href="#DejaVuSans-20" x="655.824219"/>
     <use xlink:href="#DejaVuSans-6f" x="687.611328"/>
     <use xlink:href="#DejaVuSans-76" x="748.792969"/>
     <use xlink:href="#DejaVuSans-65" x="807.972656"/>
     <use xlink:href="#DejaVuSans-72" x="869.496094"/>
     <use xlink:href="#DejaVuSans-20" x="910.609375"/>
     <use xlink:href="#DejaVuSans-54" x="942.396484"/>
     <use xlink:href="#DejaVuSans-69" x="1000.355469"/>
     <use xlink:href="#DejaVuSans-6d" x="1028.138672"/>
     <use xlink:href="#DejaVuSans-65" x="1125.550781"/>
    </g>
   </g>
   <g id="legend_1">
    <g id="patch_4">
     <path d="M 529.104375 377.3618 
L 682.2 377.3618 
Q 685.8 377.3618 685.8 373.7618 
L 685.8 322.72055 
Q 685.8 319.12055 682.2 319.12055 
L 529.104375 319.12055 
Q 525.504375 319.12055 525.504375 322.72055 
L 525.504375 373.7618 
Q 525.504375 377.3618 529.104375 377.3618 
z
" style="fill: #ffffff; opacity: 0.8; stroke: #cccccc; stroke-linejoin: miter"/>
    </g>
    <g id="line2d_11">
     <path d="M 532.704375 333.697738 
L 550.704375 333.697738 
L 568.704375 333.697738 
" style="fill: none; stroke-dasharray: 11.1,4.8; stroke-dashoffset: 0; stroke: #000000; stroke-opacity: 0.7; stroke-width: 3"/>
    </g>
    <g id="text_11">
     <!-- True -->
     <g transform="translate(583.104375 339.997738) scale(0.18 -0.18)">
      <use xlink:href="#DejaVuSans-54"/>
      <use xlink:href="#DejaVuSans-72" x="46.333984"/>
      <use xlink:href="#DejaVuSans-75" x="87.447266"/>
      <use xlink:href="#DejaVuSans-65" x="150.826172"/>
     </g>
    </g>
    <g id="line2d_12">
     <path d="M 532.704375 360.118363 
L 550.704375 360.118363 
L 568.704375 360.118363 
" style="fill: none; stroke: #2ca02c; stroke-opacity: 0.8; stroke-width: 3; stroke-linecap: square"/>
    </g>
    <g id="text_12">
     <!-- Generated -->
     <g transform="translate(583.104375 366.418363) scale(0.18 -0.18)">
      <use xlink:href="#DejaVuSans-47"/>
      <use xlink:href="#DejaVuSans-65" x="77.490234"/>
      <use xlink:href="#DejaVuSans-6e" x="139.013672"/>
      <use xlink:href="#DejaVuSans-65" x="202.392578"/>
      <use xlink:href="#DejaVuSans-72" x="263.916016"/>
      <use xlink:href="#DejaVuSans-61" x="305.029297"/>
      <use xlink:href="#DejaVuSans-74" x="366.308594"/>
      <use xlink:href="#DejaVuSans-65" x="405.517578"/>
      <use xlink:href="#DejaVuSans-64" x="467.041016"/>
     </g>
    </g>
   </g>
  </g>
 </g>
 <defs>
  <clipPath id="p05f61ba08a">
   <rect x="75.973125" y="88.1338" width="618.826875" height="298.228"/>
  </clipPath>
 </defs>
</svg>
