<?xml version="1.0" encoding="utf-8" standalone="no"?>
<!DOCTYPE svg PUBLIC "-//W3C//DTD SVG 1.1//EN"
  "http://www.w3.org/Graphics/SVG/1.1/DTD/svg11.dtd">
<svg xmlns:xlink="http://www.w3.org/1999/xlink" width="702pt" height="414.496077pt" viewBox="0 0 702 414.496077" xmlns="http://www.w3.org/2000/svg" version="1.1">
 <metadata>
  <rdf:RDF xmlns:dc="http://purl.org/dc/elements/1.1/" xmlns:cc="http://creativecommons.org/ns#" xmlns:rdf="http://www.w3.org/1999/02/22-rdf-syntax-ns#">
   <cc:Work>
    <dc:type rdf:resource="http://purl.org/dc/dcmitype/StillImage"/>
    <dc:date>2025-10-16T11:46:51.054124</dc:date>
    <dc:format>image/svg+xml</dc:format>
    <dc:creator>
     <cc:Agent>
      <dc:title>Matplotlib v3.8.2, https://matplotlib.org/</dc:title>
     </cc:Agent>
    </dc:creator>
   </cc:Work>
  </rdf:RDF>
 </metadata>
 <defs>
  <style type="text/css">*{stroke-linejoin: round; stroke-linecap: butt}</style>
 </defs>
 <g id="figure_1">
  <g id="patch_1">
   <path d="M 0 414.496077 
L 702 414.496077 
L 702 0 
L 0 0 
z
" style="fill: #ffffff"/>
  </g>
  <g id="axes_1">
   <g id="patch_2">
    <path d="M 47.300625 390.257738 
L 694.8 390.257738 
L 694.8 48.522987 
L 47.300625 48.522987 
z
" style="fill: #ffffff"/>
   </g>
   <g id="matplotlib.axis_1"/>
   <g id="matplotlib.axis_2">
    <g id="ytick_1">
     <g id="line2d_1">
      <path d="M 47.300625 308.837554 
L 694.8 308.837554 
" clip-path="url(#p9c7a0461c1)" style="fill: none; stroke: #b0b0b0; stroke-opacity: 0.3; stroke-width: 0.8; stroke-linecap: square"/>
     </g>
     <g id="line2d_2">
      <defs>
       <path id="mf65e3940fc" d="M 0 0 
L -5 0 
" style="stroke: #000000; stroke-width: 0.8"/>
      </defs>
      <g>
       <use xlink:href="#mf65e3940fc" x="47.300625" y="308.837554" style="stroke: #000000; stroke-width: 0.8"/>
      </g>
     </g>
     <g id="text_1">
      <!-- 1 -->
      <g transform="translate(28.620625 314.916304) scale(0.16 -0.16)">
       <defs>
        <path id="DejaVuSans-31" d="M 794 531 
L 1825 531 
L 1825 4091 
L 703 3866 
L 703 4441 
L 1819 4666 
L 2450 4666 
L 2450 531 
L 3481 531 
L 3481 0 
L 794 0 
L 794 531 
z
" transform="scale(0.015625)"/>
       </defs>
       <use xlink:href="#DejaVuSans-31"/>
      </g>
     </g>
    </g>
    <g id="ytick_2">
     <g id="line2d_3">
      <path d="M 47.300625 196.817538 
L 694.8 196.817538 
" clip-path="url(#p9c7a0461c1)" style="fill: none; stroke: #b0b0b0; stroke-opacity: 0.3; stroke-width: 0.8; stroke-linecap: square"/>
     </g>
     <g id="line2d_4">
      <g>
       <use xlink:href="#mf65e3940fc" x="47.300625" y="196.817538" style="stroke: #000000; stroke-width: 0.8"/>
      </g>
     </g>
     <g id="text_2">
      <!-- 2 -->
      <g transform="translate(28.620625 202.896288) scale(0.16 -0.16)">
       <defs>
        <path id="DejaVuSans-32" d="M 1228 531 
L 3431 531 
L 3431 0 
L 469 0 
L 469 531 
Q 828 903 1448 1529 
Q 2069 2156 2228 2338 
Q 2531 2678 2651 2914 
Q 2772 3150 2772 3378 
Q 2772 3750 2511 3984 
Q 2250 4219 1831 4219 
Q 1534 4219 1204 4116 
Q 875 4013 500 3803 
L 500 4441 
Q 881 4594 1212 4672 
Q 1544 4750 1819 4750 
Q 2544 4750 2975 4387 
Q 3406 4025 3406 3419 
Q 3406 3131 3298 2873 
Q 3191 2616 2906 2266 
Q 2828 2175 2409 1742 
Q 1991 1309 1228 531 
z
" transform="scale(0.015625)"/>
       </defs>
       <use xlink:href="#DejaVuSans-32"/>
      </g>
     </g>
    </g>
    <g id="ytick_3">
     <g id="line2d_5">
      <path d="M 47.300625 84.797522 
L 694.8 84.797522 
" clip-path="url(#p9c7a0461c1)" style="fill: none; stroke: #b0b0b0; stroke-opacity: 0.3; stroke-width: 0.8; stroke-linecap: square"/>
     </g>
     <g id="line2d_6">
      <g>
       <use xlink:href="#mf65e3940fc" x="47.300625" y="84.797522" style="stroke: #000000; stroke-width: 0.8"/>
      </g>
     </g>
     <g id="text_3">
      <!-- 3 -->
      <g transform="translate(28.620625 90.876272) scale(0.16 -0.16)">
       <defs>
        <path id="DejaVuSans-33" d="M 2597 2516 
Q 3050 2419 3304 2112 
Q 3559 1806 3559 1356 
Q 3559 666 3084 287 
Q 2609 -91 1734 -91 
Q 1441 -91 1130 -33 
Q 819 25 488 141 
L 488 750 
Q 750 597 1062 519 
Q 1375 441 1716 441 
Q 2309 441 2620 675 
Q 2931 909 2931 1356 
Q 2931 1769 2642 2001 
Q 2353 2234 1838 2234 
L 1294 2234 
L 1294 2753 
L 1863 2753 
Q 2328 2753 2575 2939 
Q 2822 3125 2822 3475 
Q 2822 3834 2567 4026 
Q 2313 4219 1838 4219 
Q 1578 4219 1281 4162 
Q 984 4106 628 3988 
L 628 4550 
Q 988 4650 1302 4700 
Q 1616 4750 1894 4750 
Q 2613 4750 3031 4423 
Q 3450 4097 3450 3541 
Q 3450 3153 3228 2886 
Q 3006 2619 2597 2516 
z
" transform="scale(0.015625)"/>
       </defs>
       <use xlink:href="#DejaVuSans-33"/>
      </g>
     </g>
    </g>
    <g id="text_4">
     <!-- Neurons -->
     <g transform="translate(20.877188 256.761456) rotate(-90) scale(0.18 -0.18)">
      <defs>
       <path id="DejaVuSans-4e" d="M 628 4666 
L 1478 4666 
L 3547 763 
L 3547 4666 
L 4159 4666 
L 4159 0 
L 3309 0 
L 1241 3903 
L 1241 0 
L 628 0 
L 628 4666 
z
" transform="scale(0.015625)"/>
       <path id="DejaVuSans-65" d="M 3597 1894 
L 3597 1613 
L 953 1613 
Q 991 1019 1311 708 
Q 1631 397 2203 397 
Q 2534 397 2845 478 
Q 3156 559 3463 722 
L 3463 178 
Q 3153 47 2828 -22 
Q 2503 -91 2169 -91 
Q 1331 -91 842 396 
Q 353 884 353 1716 
Q 353 2575 817 3079 
Q 1281 3584 2069 3584 
Q 2775 3584 3186 3129 
Q 3597 2675 3597 1894 
z
M 3022 2063 
Q 3016 2534 2758 2815 
Q 2500 3097 2075 3097 
Q 1594 3097 1305 2825 
Q 1016 2553 972 2059 
L 3022 2063 
z
" transform="scale(0.015625)"/>
       <path id="DejaVuSans-75" d="M 544 1381 
L 544 3500 
L 1119 3500 
L 1119 1403 
Q 1119 906 1312 657 
Q 1506 409 1894 409 
Q 2359 409 2629 706 
Q 2900 1003 2900 1516 
L 2900 3500 
L 3475 3500 
L 3475 0 
L 2900 0 
L 2900 538 
Q 2691 219 2414 64 
Q 2138 -91 1772 -91 
Q 1169 -91 856 284 
Q 544 659 544 1381 
z
M 1991 3584 
L 1991 3584 
z
" transform="scale(0.015625)"/>
       <path id="DejaVuSans-72" d="M 2631 2963 
Q 2534 3019 2420 3045 
Q 2306 3072 2169 3072 
Q 1681 3072 1420 2755 
Q 1159 2438 1159 1844 
L 1159 0 
L 581 0 
L 581 3500 
L 1159 3500 
L 1159 2956 
Q 1341 3275 1631 3429 
Q 1922 3584 2338 3584 
Q 2397 3584 2469 3576 
Q 2541 3569 2628 3553 
L 2631 2963 
z
" transform="scale(0.015625)"/>
       <path id="DejaVuSans-6f" d="M 1959 3097 
Q 1497 3097 1228 2736 
Q 959 2375 959 1747 
Q 959 1119 1226 758 
Q 1494 397 1959 397 
Q 2419 397 2687 759 
Q 2956 1122 2956 1747 
Q 2956 2369 2687 2733 
Q 2419 3097 1959 3097 
z
M 1959 3584 
Q 2709 3584 3137 3096 
Q 3566 2609 3566 1747 
Q 3566 888 3137 398 
Q 2709 -91 1959 -91 
Q 1206 -91 779 398 
Q 353 888 353 1747 
Q 353 2609 779 3096 
Q 1206 3584 1959 3584 
z
" transform="scale(0.015625)"/>
       <path id="DejaVuSans-6e" d="M 3513 2113 
L 3513 0 
L 2938 0 
L 2938 2094 
Q 2938 2591 2744 2837 
Q 2550 3084 2163 3084 
Q 1697 3084 1428 2787 
Q 1159 2491 1159 1978 
L 1159 0 
L 581 0 
L 581 3500 
L 1159 3500 
L 1159 2956 
Q 1366 3272 1645 3428 
Q 1925 3584 2291 3584 
Q 2894 3584 3203 3211 
Q 3513 2838 3513 2113 
z
" transform="scale(0.015625)"/>
       <path id="DejaVuSans-73" d="M 2834 3397 
L 2834 2853 
Q 2591 2978 2328 3040 
Q 2066 3103 1784 3103 
Q 1356 3103 1142 2972 
Q 928 2841 928 2578 
Q 928 2378 1081 2264 
Q 1234 2150 1697 2047 
L 1894 2003 
Q 2506 1872 2764 1633 
Q 3022 1394 3022 966 
Q 3022 478 2636 193 
Q 2250 -91 1575 -91 
Q 1294 -91 989 -36 
Q 684 19 347 128 
L 347 722 
Q 666 556 975 473 
Q 1284 391 1588 391 
Q 1994 391 2212 530 
Q 2431 669 2431 922 
Q 2431 1156 2273 1281 
Q 2116 1406 1581 1522 
L 1381 1569 
Q 847 1681 609 1914 
Q 372 2147 372 2553 
Q 372 3047 722 3315 
Q 1072 3584 1716 3584 
Q 2034 3584 2315 3537 
Q 2597 3491 2834 3397 
z
" transform="scale(0.015625)"/>
      </defs>
      <use xlink:href="#DejaVuSans-4e"/>
      <use xlink:href="#DejaVuSans-65" x="74.804688"/>
      <use xlink:href="#DejaVuSans-75" x="136.328125"/>
      <use xlink:href="#DejaVuSans-72" x="199.707031"/>
      <use xlink:href="#DejaVuSans-6f" x="238.570312"/>
      <use xlink:href="#DejaVuSans-6e" x="299.751953"/>
      <use xlink:href="#DejaVuSans-73" x="363.130859"/>
     </g>
    </g>
   </g>
   <g id="line2d_7">
    <path d="M 76.732415 347.892168 
L 77.527113 349.066811 
L 78.380677 349.935243 
L 79.234242 350.494101 
L 80.352706 350.947857 
L 81.38287 351.148272 
L 82.8251 351.310067 
L 83.855264 352.074066 
L 85.209194 352.738392 
L 85.680126 353.03052 
L 86.680857 353.999701 
L 87.446122 354.442367 
L 88.15252 354.608395 
L 88.476286 354.599007 
L 89.329851 350.965404 
L 90.153982 348.430194 
L 90.94868 346.649968 
L 91.507912 345.362953 
L 92.332043 341.766995 
L 93.185608 338.989953 
L 94.127472 336.676556 
L 96.099501 332.683395 
L 97.394564 330.770546 
L 98.954527 328.783083 
L 101.191455 325.882712 
L 102.103886 324.146274 
L 102.928017 322.109174 
L 103.457816 320.221898 
L 103.958182 317.5085 
L 104.370247 313.945446 
L 104.75288 308.488151 
L 105.93021 288.769931 
L 106.136243 288.288378 
L 106.253976 288.368448 
L 106.430576 288.887351 
L 106.754341 290.712832 
L 107.46074 296.404834 
L 108.873536 309.546755 
L 109.226735 314.890536 
L 110.492366 338.234454 
L 110.963298 342.34617 
L 111.43423 344.6635 
L 111.875729 345.817277 
L 112.081762 346.348205 
L 112.640994 348.504761 
L 113.229659 349.908002 
L 113.877191 350.871981 
L 114.613022 351.576262 
L 116.172985 352.581144 
L 117.262016 352.951546 
L 118.645379 353.138613 
L 121.17664 353.657302 
L 122.26567 354.176152 
L 123.384134 354.450533 
L 123.8845 354.612067 
L 124.738064 355.492992 
L 125.679929 356.149306 
L 126.59236 356.519708 
L 126.768959 356.498442 
L 127.828557 354.68343 
L 129.12362 352.822675 
L 129.712285 351.959249 
L 130.47755 347.206896 
L 131.272248 343.614417 
L 132.09638 340.860003 
L 134.421607 334.600417 
L 135.392905 332.81706 
L 136.982301 330.477603 
L 139.807894 326.992254 
L 140.867491 325.490022 
L 141.66219 324.004182 
L 142.456888 321.866348 
L 143.01612 319.723439 
L 143.487052 316.984363 
L 143.899117 313.124746 
L 144.28175 307.183068 
L 145.311914 288.911989 
L 145.54738 288.044324 
L 145.665113 288.048383 
L 145.812279 288.381201 
L 146.077179 289.668456 
L 146.577544 293.440231 
L 147.578275 302.792784 
L 148.284673 312.241017 
L 148.961638 325.302501 
L 149.579737 335.227773 
L 150.080102 339.881995 
L 151.375166 347.905482 
L 151.875531 349.221154 
L 152.40533 350.0459 
L 153.023428 350.597627 
L 153.406061 350.979439 
L 154.112459 351.754842 
L 154.877724 352.248841 
L 155.878455 352.63954 
L 158.468582 353.266042 
L 159.498746 353.57804 
L 160.470044 353.885365 
L 162.442072 354.469822 
L 163.354503 355.002066 
L 164.472967 355.382863 
L 165.94463 355.632206 
L 166.886495 355.600598 
L 167.534026 355.366078 
L 167.946092 355.155728 
L 168.74079 350.327245 
L 169.506055 346.982051 
L 170.330186 344.379471 
L 171.124884 341.949221 
L 171.949016 338.881894 
L 172.920313 336.136234 
L 173.921044 333.951347 
L 174.921775 332.080009 
L 176.334571 329.960436 
L 179.984296 324.779926 
L 180.867294 322.711859 
L 181.514825 320.660524 
L 182.015191 318.33129 
L 182.427257 315.367902 
L 182.780456 311.257875 
L 183.192521 303.339035 
L 183.840053 290.77629 
L 184.163819 288.325836 
L 184.340419 288.037914 
L 184.458152 288.17252 
L 184.664184 288.898875 
L 185.046817 291.330594 
L 185.812082 297.967485 
L 187.018845 310.758849 
L 187.578077 319.784326 
L 188.431642 333.351594 
L 189.520673 344.681594 
L 190.021038 346.955324 
L 190.49197 348.170428 
L 190.992336 348.87288 
L 191.728167 349.740471 
L 192.434565 350.889181 
L 193.170397 351.685176 
L 193.906229 352.158515 
L 195.583924 352.886706 
L 196.496356 353.028791 
L 197.791419 353.291641 
L 199.145349 353.628925 
L 200.499279 353.905837 
L 201.441143 354.510284 
L 202.500741 354.887483 
L 203.442605 355.239283 
L 204.29617 355.962453 
L 205.208601 356.449921 
L 205.944432 356.610701 
L 206.209332 356.593014 
L 207.033463 352.609113 
L 207.857594 349.658278 
L 208.652293 347.60683 
L 209.240958 346.116496 
L 210.065089 342.166955 
L 210.88922 339.248196 
L 211.831085 336.731667 
L 213.538214 332.995073 
L 214.715544 331.139926 
L 216.304941 329.057664 
L 218.953934 325.566179 
L 219.895798 323.639616 
L 220.690496 321.516418 
L 221.161429 319.633188 
L 221.632361 316.679989 
L 222.014993 312.833366 
L 222.397626 306.550978 
L 223.310057 289.708197 
L 223.574956 288.294054 
L 223.722122 288.181147 
L 223.869289 288.448918 
L 224.134188 289.677951 
L 224.634553 293.376013 
L 226.165083 307.053603 
L 226.724315 313.893045 
L 227.048081 320.307756 
L 227.842779 335.807436 
L 228.343144 341.394517 
L 228.814077 344.41373 
L 229.285009 346.076088 
L 229.726508 346.87717 
L 229.785374 347.041556 
L 230.344606 348.976051 
L 230.933271 350.262265 
L 231.610236 351.209405 
L 232.346068 351.864704 
L 233.964897 352.787841 
L 234.995062 353.074574 
L 236.731624 353.38652 
L 238.350453 353.656748 
L 238.733086 353.776926 
L 239.733817 354.338821 
L 240.793414 354.683029 
L 241.676412 354.973435 
L 242.55941 355.812116 
L 243.442408 356.356324 
L 244.413705 356.695518 
L 244.502005 356.626625 
L 245.502736 354.265575 
L 246.474033 352.471943 
L 247.386465 351.18649 
L 247.415898 351.152425 
L 248.181163 346.479433 
L 248.975861 342.92566 
L 249.799992 340.198922 
L 251.772021 334.986963 
L 252.772751 333.082975 
L 254.156115 331.024769 
L 255.980977 328.772653 
L 258.159038 326.079721 
L 259.189202 324.368187 
L 260.042767 322.196508 
L 260.631432 320.079339 
L 261.102364 317.539101 
L 261.51443 314.044865 
L 261.897062 308.699248 
L 262.456294 296.693651 
L 262.897793 289.811329 
L 263.192126 288.13935 
L 263.339292 288.036859 
L 263.486459 288.316996 
L 263.751358 289.539805 
L 264.22229 293.025541 
L 265.281888 302.842059 
L 265.988286 312.539228 
L 266.753551 327.572184 
L 267.312783 336.082959 
L 267.783715 340.310727 
L 269.078778 348.08897 
L 269.608577 349.463346 
L 270.167809 350.308777 
L 270.815341 350.870432 
L 271.139107 351.200392 
L 271.816072 351.889823 
L 272.640203 352.38294 
L 273.640934 352.735467 
L 275.966161 353.217868 
L 277.261225 353.56904 
L 278.320822 353.875704 
L 280.086818 354.373655 
L 280.999249 354.974036 
L 282.08828 355.401492 
L 283.000711 355.555916 
L 284.207475 355.462012 
L 284.913873 355.211781 
L 285.679138 354.739062 
L 286.473836 349.795689 
L 287.239101 346.382438 
L 288.063232 343.710257 
L 288.887363 341.150435 
L 289.711495 338.210383 
L 290.682792 335.566052 
L 291.683523 333.487489 
L 292.74312 331.647051 
L 294.155917 329.636272 
L 297.216976 325.422352 
L 297.835075 324.194334 
L 298.659206 322.047379 
L 299.247871 319.896839 
L 299.718803 317.312273 
L 300.130869 313.704249 
L 300.484068 308.614024 
L 301.661399 288.514418 
L 301.867431 288.036031 
L 301.985165 288.134876 
L 302.191197 288.81317 
L 302.544397 290.979375 
L 303.368528 297.875638 
L 304.575292 311.157868 
L 305.163957 321.090704 
L 305.929222 333.365815 
L 306.841653 342.873025 
L 307.342018 345.932113 
L 307.842384 347.694905 
L 308.342749 348.680424 
L 308.872548 349.236751 
L 309.34348 349.685934 
L 310.049878 350.817497 
L 310.78571 351.602782 
L 311.550975 352.086745 
L 313.49357 352.93918 
L 318.379491 354.11234 
L 319.262489 354.663747 
L 320.35152 355.054359 
L 321.205084 355.386562 
L 322.088082 356.006033 
L 323.000513 356.391879 
L 323.706911 356.457887 
L 323.942378 356.409452 
L 324.737076 352.284842 
L 325.561207 349.123538 
L 326.326472 347.012445 
L 327.003437 345.192585 
L 327.827568 341.44028 
L 328.651699 338.658591 
L 329.622997 336.148459 
L 331.359559 332.485925 
L 332.684056 330.469978 
L 334.862118 327.689738 
L 336.098315 326.096647 
L 337.040179 324.332279 
L 337.923177 322.1915 
L 338.511842 320.205326 
L 338.923908 318.045658 
L 339.335973 314.651516 
L 339.718606 309.473236 
L 340.218971 298.863127 
L 340.689903 290.618848 
L 340.984236 288.441627 
L 341.190269 288.127825 
L 341.308002 288.302119 
L 341.543468 289.230891 
L 341.9261 291.885218 
L 343.191731 302.927284 
L 343.956995 310.899278 
L 344.516227 319.40007 
L 344.928293 328.362357 
L 345.487525 337.701703 
L 345.98789 342.64147 
L 346.458823 345.296772 
L 346.929755 346.7617 
L 347.371254 347.472244 
L 347.547853 347.8088 
L 348.136518 349.534268 
L 348.754617 350.694435 
L 349.461015 351.569745 
L 350.167414 352.110795 
L 352.051142 353.02385 
L 352.93414 353.160967 
L 353.876004 353.341798 
L 355.700867 353.731249 
L 356.495565 353.904408 
L 357.496296 354.445625 
L 358.467593 354.742454 
L 359.409458 355.048898 
L 360.263022 355.896078 
L 361.14602 356.466834 
L 362.029018 356.797735 
L 362.235051 356.726285 
L 363.176915 353.934334 
L 364.089346 351.880662 
L 364.942911 350.441901 
L 365.178377 349.964962 
L 365.943642 345.504183 
L 366.767773 341.978373 
L 367.591904 339.382909 
L 369.4462 334.680733 
L 370.417497 332.89721 
L 371.771427 330.93803 
L 373.714023 328.60559 
L 375.362285 326.631427 
L 376.392449 325.044919 
L 377.187148 323.443375 
L 377.893546 321.382038 
L 378.423344 319.141366 
L 378.864843 316.292568 
L 379.247476 312.370989 
L 379.630108 305.974386 
L 380.513106 289.632801 
L 380.778005 288.182309 
L 380.925172 288.058652 
L 381.072338 288.321242 
L 381.307804 289.35153 
L 381.749303 292.504155 
L 382.926633 303.095862 
L 383.603599 312.73436 
L 385.222428 339.508409 
L 385.69336 342.44402 
L 385.86996 343.681025 
L 386.399758 346.92479 
L 386.929557 348.828825 
L 387.459356 349.958379 
L 388.048021 350.701686 
L 389.637417 352.073211 
L 390.579281 352.541349 
L 391.786045 352.864999 
L 393.228275 353.115724 
L 394.964837 353.524906 
L 396.142168 353.857616 
L 397.790431 354.331603 
L 398.673428 355.00489 
L 399.703593 355.494795 
L 400.557157 355.687531 
L 402.087687 355.2114 
L 402.911818 354.717476 
L 403.412183 354.345739 
L 404.177448 349.478896 
L 404.942713 345.977256 
L 405.766844 343.231529 
L 406.738142 340.164843 
L 407.62114 337.264652 
L 408.592437 334.817911 
L 409.652035 332.778988 
L 410.888232 330.847571 
L 413.095726 327.919451 
L 414.891155 325.434297 
L 415.538687 324.151214 
L 416.362818 321.973893 
L 416.951484 319.773596 
L 417.422416 317.103612 
L 417.834482 313.343742 
L 418.217114 307.483062 
L 419.247278 289.006066 
L 419.482744 288.073155 
L 419.600477 288.048544 
L 419.747644 288.350807 
L 420.012543 289.596225 
L 420.512908 293.303448 
L 421.454773 302.058697 
L 422.249471 311.442672 
L 422.838136 321.645382 
L 423.573968 333.549678 
L 424.339232 341.458214 
L 424.839598 345.145219 
L 425.339963 347.302396 
L 425.840329 348.535181 
L 426.340694 349.220914 
L 426.899926 349.632292 
L 427.047092 349.831257 
L 427.753491 350.918893 
L 428.489322 351.662928 
L 429.313454 352.149381 
L 431.432648 353.028777 
L 433.43411 353.537338 
L 434.552574 353.8034 
L 435.994804 354.126188 
L 436.848368 354.705811 
L 437.907966 355.1289 
L 439.085296 355.583919 
L 440.056594 356.09298 
L 440.880725 356.306588 
L 441.46939 356.261799 
L 441.675423 356.198889 
L 442.470121 351.88593 
L 443.264819 348.706391 
L 444.030084 346.501414 
L 444.765916 344.436285 
L 445.590047 340.844606 
L 446.443612 338.089004 
L 447.444343 335.599056 
L 449.298638 331.860939 
L 450.711435 329.784767 
L 452.948362 326.949609 
L 453.772494 325.788741 
L 454.684925 324.007714 
L 455.509056 321.926874 
L 456.097721 319.822745 
L 456.53922 317.37364 
L 456.951286 313.539149 
L 457.333918 307.616947 
L 458.393516 288.920482 
L 458.628982 288.106299 
L 458.746715 288.129227 
L 458.923315 288.586155 
L 459.217647 290.15738 
L 459.718013 294.195216 
L 461.277975 308.842281 
L 461.837207 316.619569 
L 462.631905 331.549855 
L 463.161704 339.377708 
L 463.66207 343.715124 
L 464.133002 346.039852 
L 464.603934 347.325331 
L 465.045433 347.952314 
L 465.280899 348.294926 
L 465.869564 349.831998 
L 466.517096 350.937014 
L 467.252928 351.770032 
L 467.959326 352.245596 
L 469.754755 353.034259 
L 470.667186 353.145236 
L 471.579617 353.329779 
L 473.257313 353.705857 
L 474.22861 353.901991 
L 475.229341 354.447648 
L 476.200639 354.739222 
L 477.11307 355.017516 
L 477.966635 355.899149 
L 478.849633 356.497147 
L 479.673764 356.821391 
L 479.938663 356.863128 
L 480.851094 353.700942 
L 481.763525 351.339325 
L 482.587657 349.770504 
L 482.911423 349.13824 
L 483.706121 344.685847 
L 484.530252 341.299384 
L 485.383817 338.722763 
L 487.208679 334.265783 
L 488.179976 332.56293 
L 489.56334 330.624495 
L 491.682534 328.149397 
L 492.565532 327.077091 
L 493.62513 325.535773 
L 494.655294 323.632104 
L 495.391125 321.494177 
L 495.920924 319.266986 
L 496.362423 316.449028 
L 496.745055 312.585365 
L 497.127688 306.281524 
L 498.040119 289.569878 
L 498.305018 288.199041 
L 498.452185 288.10893 
L 498.599351 288.397519 
L 498.86425 289.627901 
L 499.364616 293.360415 
L 500.659679 305.138704 
L 501.248344 314.38729 
L 502.572841 338.036002 
L 503.043773 341.844861 
L 504.073938 347.271716 
L 504.603736 349.051667 
L 505.162968 350.17654 
L 505.781067 350.918412 
L 507.134997 352.016224 
L 508.047428 352.478086 
L 509.136459 352.773726 
L 512.432984 353.397597 
L 513.522014 353.768159 
L 514.905378 354.039295 
L 515.346877 354.170036 
L 516.200441 354.987437 
L 517.142306 355.578724 
L 518.143037 355.956918 
L 518.319636 355.898041 
L 520.350531 354.532051 
L 521.145229 353.836444 
L 521.910494 348.921962 
L 522.675759 345.383345 
L 523.49989 342.586065 
L 524.677221 338.846366 
L 525.619085 336.063282 
L 526.560949 333.945832 
L 527.679413 332.008566 
L 529.062777 330.052411 
L 532.535901 325.419868 
L 533.212866 324.08538 
L 534.036998 321.853208 
L 534.59623 319.702254 
L 535.067162 316.962997 
L 535.479228 313.086027 
L 535.86186 307.102291 
L 536.833158 289.290009 
L 537.098057 288.081073 
L 537.21579 288.034188 
L 537.245223 288.062218 
L 537.39239 288.40879 
L 537.657289 289.710547 
L 538.187088 293.716722 
L 539.128952 302.543388 
L 539.864783 311.658196 
L 540.482882 322.804628 
L 541.159847 333.860962 
L 541.660212 338.676799 
L 541.954545 341.455343 
L 542.45491 345.195229 
L 542.955276 347.406409 
L 543.455641 348.688517 
L 543.98544 349.453204 
L 544.574105 349.913597 
L 544.780138 350.130717 
L 545.51597 351.162854 
L 546.222368 351.789769 
L 547.164232 352.28308 
L 549.754359 353.194332 
L 551.108289 353.605109 
L 552.138453 353.889932 
L 553.786716 354.307854 
L 554.610847 354.835036 
L 555.641012 355.232372 
L 557.259841 355.808864 
L 558.231139 356.082551 
L 558.908104 356.065204 
L 559.408469 355.897313 
L 560.203167 351.377857 
L 560.968432 348.186286 
L 561.76313 345.799123 
L 562.528395 343.568286 
L 563.352526 340.161157 
L 564.235524 337.440949 
L 565.236255 335.050688 
L 567.149417 331.350256 
L 568.62108 329.22462 
L 571.858739 324.614819 
L 572.741736 322.553276 
L 573.389268 320.480641 
L 573.889634 318.094346 
L 574.272266 315.189909 
L 574.654898 310.311783 
L 575.096397 301.281104 
L 575.655629 290.77004 
L 575.979395 288.332887 
L 576.155995 288.0508 
L 576.273728 288.188665 
L 576.479761 288.91932 
L 576.862393 291.355178 
L 577.539358 297.302225 
L 578.834422 310.21462 
L 579.393654 318.708669 
L 580.71815 340.00686 
L 581.218516 344.174142 
L 581.689448 346.429016 
L 582.16038 347.698364 
L 582.631312 348.368292 
L 583.072811 348.94286 
L 583.69091 350.276707 
L 584.397308 351.291184 
L 585.13314 351.976503 
L 586.075004 352.490318 
L 587.075735 352.897102 
L 587.958733 353.051566 
L 589.19493 353.245517 
L 590.813759 353.634981 
L 591.961656 353.862918 
L 592.932954 354.418203 
L 593.904251 354.724814 
L 594.875549 355.054934 
L 595.729114 355.916416 
L 596.641545 356.515709 
L 597.436243 356.79216 
L 597.671709 356.817639 
L 598.58414 353.216506 
L 599.467138 350.64518 
L 600.261836 348.960714 
L 600.644468 348.191601 
L 601.439166 343.926122 
L 602.263298 340.665665 
L 603.116862 338.168025 
L 604.853425 334.032672 
L 605.854156 332.304166 
L 607.237519 330.384574 
L 609.32728 327.937038 
L 610.063112 327.014582 
L 611.122709 325.388006 
L 612.152874 323.353737 
L 612.682672 321.905041 
L 613.241904 319.679626 
L 613.712836 316.820117 
L 614.124902 312.767765 
L 614.507534 306.531521 
L 615.449399 289.501213 
L 615.714298 288.236138 
L 615.832031 288.166952 
L 615.861464 288.18968 
L 616.008631 288.511401 
L 616.27353 289.778051 
L 616.773896 293.518818 
L 618.304425 307.281152 
L 618.834224 316.560579 
L 619.893821 336.641422 
L 620.394187 341.501881 
L 620.865119 344.040016 
L 622.483948 349.787183 
L 623.072614 350.704471 
L 623.779012 351.388741 
L 625.280108 352.368164 
L 626.280839 352.707531 
L 627.517036 352.896181 
L 630.372062 353.515057 
L 631.725992 354.004027 
L 632.962189 354.202372 
L 633.079922 354.317302 
L 633.904054 355.177802 
L 634.845918 355.840459 
L 635.787782 356.245921 
L 635.993815 356.212764 
L 637.377179 354.699214 
L 638.907708 352.887447 
L 639.672973 348.063458 
L 640.467671 344.45512 
L 641.291802 341.696106 
L 644.058529 334.105424 
L 645.118126 332.253649 
L 646.50149 330.259375 
L 650.56328 324.805612 
L 651.063645 323.690821 
L 651.82891 321.519836 
L 652.388142 319.209878 
L 652.829641 316.409066 
L 653.212273 312.543013 
L 653.594906 306.238498 
L 654.477903 289.673384 
L 654.742803 288.166338 
L 654.889969 288.017429 
L 654.919402 288.037179 
L 655.066569 288.34783 
L 655.331468 289.60592 
L 655.831834 293.342121 
L 656.803131 302.416526 
L 657.538963 311.85646 
L 658.186494 323.959347 
L 658.834026 334.519432 
L 659.334392 339.286228 
L 659.834757 343.502652 
L 660.335123 346.52286 
L 660.835488 348.310263 
L 661.335853 349.353958 
L 661.895085 350.024333 
L 662.807516 350.957172 
L 663.513915 351.708665 
L 664.308613 352.205948 
L 665.309344 352.584609 
L 665.36821 352.600968 
L 665.36821 352.600968 
" clip-path="url(#p9c7a0461c1)" style="fill: none; stroke: #1f77b4; stroke-width: 3; stroke-linecap: square"/>
   </g>
   <g id="line2d_8">
    <path d="M 76.732415 308.837554 
L 665.36821 308.837554 
L 665.36821 308.837554 
" clip-path="url(#p9c7a0461c1)" style="fill: none; stroke-dasharray: 2.96,1.28; stroke-dashoffset: 0; stroke: #808080; stroke-opacity: 0.7; stroke-width: 0.8"/>
   </g>
   <g id="line2d_9">
    <path d="M 76.732415 224.352621 
L 77.527113 225.821755 
L 78.380677 226.931351 
L 79.234242 227.686737 
L 79.822907 228.23797 
L 80.705905 229.411664 
L 81.500603 230.130781 
L 82.6485 230.999554 
L 83.560931 234.243973 
L 84.414496 236.472447 
L 85.209194 237.983592 
L 85.562393 238.651457 
L 86.357091 243.257766 
L 87.092923 246.319665 
L 87.769888 248.241681 
L 88.41742 249.451338 
L 88.594019 249.875963 
L 89.241551 251.362257 
L 89.947949 252.476153 
L 90.86038 253.435332 
L 91.478479 253.864177 
L 92.538076 253.732027 
L 93.627107 253.790998 
L 94.451238 253.852812 
L 95.18707 253.19296 
L 96.011201 252.724187 
L 96.894199 252.513784 
L 97.394564 252.333588 
L 98.189262 251.357396 
L 99.366593 250.3127 
L 100.33789 249.435674 
L 101.073722 247.21544 
L 101.838987 245.599987 
L 102.574818 244.545636 
L 103.22235 243.744353 
L 104.017048 239.299759 
L 104.782313 236.204876 
L 105.635878 233.653774 
L 106.224543 231.910085 
L 107.048674 227.263354 
L 107.961105 223.398824 
L 108.961836 220.074495 
L 112.376094 209.49339 
L 112.905893 207.123393 
L 113.347392 204.08234 
L 113.730024 199.788697 
L 114.112657 192.768978 
L 114.877922 177.913701 
L 115.142821 176.144719 
L 115.319421 175.907155 
L 115.437154 176.061525 
L 115.643186 176.798175 
L 116.025819 179.193825 
L 117.173716 188.55184 
L 118.027281 196.363374 
L 118.557079 204.519704 
L 119.73441 224.409428 
L 120.234775 228.689463 
L 120.705707 230.925641 
L 120.970607 232.143817 
L 121.500405 234.743473 
L 122.030204 236.29619 
L 122.560003 237.185354 
L 123.089802 237.67146 
L 123.7079 237.928174 
L 123.7962 237.947764 
L 124.532031 242.262132 
L 125.267863 245.299046 
L 126.003694 247.439757 
L 126.710093 248.86401 
L 126.798392 249.154042 
L 127.475357 251.448082 
L 128.093456 252.825703 
L 128.770421 253.812551 
L 129.447386 254.408599 
L 129.830018 254.550764 
L 131.890347 254.520918 
L 132.773345 254.447351 
L 133.568043 253.813112 
L 134.362741 253.454655 
L 135.157439 253.315054 
L 135.657804 253.206501 
L 136.393636 252.494007 
L 137.188334 252.017182 
L 138.571697 251.25369 
L 139.307529 249.45031 
L 140.072793 248.126972 
L 140.838058 247.24176 
L 141.48559 246.574243 
L 142.221421 242.891257 
L 143.01612 240.035354 
L 143.810818 237.956858 
L 144.458349 236.375511 
L 145.253047 231.251421 
L 146.077179 227.313137 
L 146.960177 224.140428 
L 151.404599 209.841191 
L 151.934398 207.261379 
L 152.375897 203.974815 
L 152.758529 199.322395 
L 153.170595 191.08693 
L 153.788693 178.997017 
L 154.112459 176.33656 
L 154.318492 175.930925 
L 154.436225 176.053406 
L 154.642258 176.743879 
L 155.02489 179.07527 
L 156.084488 187.597175 
L 156.673153 193.28059 
L 157.291251 200.940759 
L 157.99765 213.435053 
L 158.615748 222.619694 
L 159.145547 227.368796 
L 159.645912 231.227384 
L 160.116844 233.360805 
L 160.587777 234.565908 
L 161.029276 235.15584 
L 161.470774 235.40617 
L 161.97114 235.439034 
L 162.05944 235.425974 
L 162.765838 239.064705 
L 163.501669 241.717135 
L 164.208068 243.46861 
L 164.943899 244.717313 
L 165.032199 244.968939 
L 165.768031 248.591365 
L 166.444996 250.928605 
L 167.092527 252.425235 
L 167.710626 253.29728 
L 168.299291 253.793228 
L 169.300022 254.25949 
L 170.712819 254.738278 
L 170.977718 254.680549 
L 171.713549 254.097962 
L 172.478814 253.794323 
L 173.420679 253.651076 
L 173.950477 253.528461 
L 174.656876 253.020108 
L 175.451574 252.721236 
L 176.540604 252.546741 
L 176.805504 252.449339 
L 177.688501 250.720419 
L 178.424333 249.734532 
L 179.248464 248.99238 
L 179.74883 248.566046 
L 180.484661 245.379115 
L 181.220493 243.128488 
L 182.044624 241.326175 
L 182.721589 239.851552 
L 183.486854 234.856367 
L 184.310985 230.888411 
L 185.16455 227.853887 
L 185.870948 225.351447 
L 186.842246 221.463694 
L 188.313909 216.702334 
L 189.22634 214.285104 
L 190.109338 211.623299 
L 190.75687 208.975516 
L 191.257235 205.964241 
L 191.728167 201.623072 
L 192.1108 195.884052 
L 193.19983 176.720002 
L 193.435296 175.901332 
L 193.553029 175.912656 
L 193.700196 176.240466 
L 193.965095 177.484883 
L 194.465461 181.116269 
L 196.378623 199.702926 
L 196.967288 209.11756 
L 197.968019 224.972799 
L 198.468384 229.464345 
L 198.939316 231.897012 
L 199.380815 233.141936 
L 199.792881 233.733203 
L 200.204946 233.955891 
L 200.32268 233.969165 
L 200.970211 236.901118 
L 201.617743 238.852286 
L 202.294708 240.221667 
L 202.971673 241.129554 
L 203.295439 241.610572 
L 204.03127 245.815211 
L 204.796535 248.942263 
L 205.4735 250.852248 
L 206.091599 251.99834 
L 207.739861 254.114294 
L 208.858325 254.798824 
L 209.240958 254.880349 
L 210.388855 254.326219 
L 211.124686 254.195672 
L 212.24315 254.0534 
L 213.037848 253.411936 
L 213.77368 253.098161 
L 214.715544 252.959695 
L 215.098177 252.853185 
L 215.922308 251.747141 
L 216.981906 250.68236 
L 217.806037 250.183127 
L 218.01207 249.977999 
L 218.747901 247.388679 
L 219.513166 245.49114 
L 220.248998 244.238391 
L 220.955396 243.222432 
L 221.750094 238.373724 
L 222.515359 235.026601 
L 223.368923 232.268315 
L 223.987022 230.274161 
L 224.811153 225.938788 
L 225.753017 222.16075 
L 226.900915 218.512966 
L 229.343875 211.285047 
L 230.256306 207.297193 
L 230.697805 204.361555 
L 231.080438 200.257176 
L 231.46307 193.509635 
L 232.287201 177.679314 
L 232.581534 175.830851 
L 232.699267 175.65012 
L 232.7287 175.679392 
L 232.9053 176.135398 
L 233.199633 177.696728 
L 233.817731 182.501087 
L 235.554293 197.962161 
L 235.907493 203.242037 
L 237.290856 225.794553 
L 237.791221 229.497863 
L 238.23272 231.302646 
L 238.762519 233.120743 
L 239.321751 235.498512 
L 239.880983 236.938268 
L 240.440215 237.802768 
L 241.02888 238.32103 
L 241.558679 238.779587 
L 242.29451 243.126285 
L 243.030342 246.210017 
L 243.766173 248.39529 
L 244.443138 249.77665 
L 244.560871 250.142358 
L 245.208403 252.029307 
L 245.855935 253.258527 
L 246.503467 254.069078 
L 247.298165 254.677064 
L 247.563064 254.717913 
L 249.270193 254.484462 
L 250.153191 254.519342 
L 250.447524 254.4571 
L 251.242222 253.770913 
L 252.066353 253.362553 
L 252.861051 253.211081 
L 253.39085 253.092352 
L 254.156115 252.306466 
L 255.009679 251.758358 
L 256.304743 250.948288 
L 257.040574 249.076029 
L 257.805839 247.700558 
L 258.600537 246.74218 
L 259.218636 246.081379 
L 259.954467 242.361057 
L 260.749165 239.45664 
L 261.51443 237.422825 
L 262.191395 235.742273 
L 262.986093 230.672506 
L 263.839658 226.643937 
L 264.752089 223.407063 
L 269.078778 209.507359 
L 269.608577 206.832133 
L 270.050076 203.342938 
L 270.432708 198.321619 
L 270.874207 188.960574 
L 271.404006 178.924265 
L 271.727772 176.316236 
L 271.933805 175.936533 
L 272.051538 176.070819 
L 272.25757 176.777103 
L 272.640203 179.12524 
L 273.729234 187.897449 
L 274.317899 193.51081 
L 274.906564 200.934522 
L 275.612962 213.558642 
L 276.231061 222.800398 
L 276.731426 227.271634 
L 277.820457 233.669532 
L 278.291389 234.822688 
L 278.762321 235.418429 
L 279.233253 235.659506 
L 279.763052 235.67983 
L 279.792485 235.675464 
L 280.498884 239.394945 
L 281.234715 242.123933 
L 281.941114 243.930479 
L 282.676945 245.224865 
L 282.765245 245.473754 
L 283.501076 248.952118 
L 284.178041 251.150332 
L 284.79614 252.459821 
L 285.414238 253.246268 
L 285.944037 253.61454 
L 287.062501 253.975441 
L 288.445864 254.273712 
L 288.710764 254.19666 
L 289.387729 253.657085 
L 290.152993 253.352565 
L 291.035991 253.232487 
L 291.712956 253.1193 
L 292.419355 252.673563 
L 293.272919 252.414485 
L 294.597416 252.071465 
L 295.450981 250.393437 
L 296.216245 249.374193 
L 296.98151 248.697207 
L 297.481876 248.26461 
L 298.217707 244.952914 
L 298.953539 242.610199 
L 299.77767 240.713876 
L 300.454635 239.199432 
L 301.2199 234.199065 
L 302.044031 230.21499 
L 302.897596 227.167193 
L 303.633427 224.582427 
L 304.604725 220.864027 
L 306.311854 215.466584 
L 307.371451 212.624716 
L 308.107283 210.007005 
L 308.666515 207.150568 
L 309.108014 203.64559 
L 309.549513 198.122647 
L 309.991012 189.150144 
L 310.550244 178.698665 
L 310.874009 176.225884 
L 311.080042 175.913778 
L 311.197775 176.079072 
L 311.433241 176.971909 
L 311.845307 179.651861 
L 312.581139 186.03029 
L 313.876202 198.819343 
L 314.435434 207.462674 
L 315.495032 224.323523 
L 315.995397 229.16363 
L 316.466329 231.830763 
L 316.907828 233.228642 
L 317.349327 233.954489 
L 317.761393 234.232022 
L 318.085159 234.430433 
L 318.73269 237.398067 
L 319.380222 239.414241 
L 320.08662 240.916547 
L 320.763585 241.869436 
L 321.028485 242.312703 
L 321.764316 246.423184 
L 322.500148 249.380229 
L 323.177113 251.25341 
L 323.795211 252.357277 
L 325.178575 254.008344 
L 326.238172 254.655337 
L 326.94457 254.905909 
L 328.033601 254.289496 
L 328.769432 254.124095 
L 330.035063 253.896359 
L 330.800327 253.318806 
L 331.565592 253.025957 
L 332.654623 252.89115 
L 332.831223 252.787364 
L 333.71422 251.515692 
L 334.626651 250.531689 
L 335.480216 249.966889 
L 335.745115 249.725479 
L 336.480947 247.036098 
L 337.246212 245.05873 
L 337.982043 243.758802 
L 338.688442 242.67164 
L 339.453706 237.761278 
L 340.218971 234.225665 
L 341.072536 231.290107 
L 341.749501 229.016177 
L 342.603065 224.818349 
L 343.574363 221.134629 
L 344.869426 217.194809 
L 346.517689 212.543271 
L 347.224087 209.796202 
L 347.989352 205.782068 
L 348.401418 202.254789 
L 348.78405 196.798148 
L 349.431582 182.806863 
L 349.814214 177.343866 
L 350.079114 175.854941 
L 350.22628 175.702307 
L 350.255713 175.720094 
L 350.40288 176.015481 
L 350.579479 176.906048 
L 351.079845 180.637481 
L 352.904707 196.753867 
L 353.405072 203.291366 
L 354.788436 225.889112 
L 355.288801 229.61547 
L 355.7303 231.442675 
L 356.171799 232.390609 
L 356.348398 232.741428 
L 356.90763 235.333285 
L 357.466862 236.972841 
L 358.055528 238.052979 
L 358.673626 238.740461 
L 359.291725 239.34368 
L 360.027556 243.763115 
L 360.763388 246.913296 
L 361.499219 249.153 
L 362.146751 250.490519 
L 362.32335 250.955085 
L 362.941449 252.488198 
L 363.647847 253.634945 
L 364.295379 254.291285 
L 365.148944 254.863564 
L 366.56174 254.480215 
L 367.474171 254.393255 
L 368.210003 254.334819 
L 368.975268 253.684648 
L 369.799399 253.281335 
L 370.62353 253.139812 
L 371.123896 253.018639 
L 371.88916 252.178657 
L 372.860458 251.487676 
L 374.037789 250.67794 
L 374.803053 248.653273 
L 375.538885 247.288699 
L 376.333583 246.279737 
L 376.951681 245.595621 
L 377.687513 241.766197 
L 378.482211 238.753601 
L 379.247476 236.659347 
L 379.924441 234.916245 
L 380.719139 229.953856 
L 381.572703 225.988718 
L 382.514568 222.674846 
L 386.723524 209.233271 
L 387.253323 206.495657 
L 387.665389 203.164852 
L 388.048021 198.082118 
L 388.48952 188.682814 
L 389.019319 178.718509 
L 389.343084 176.254114 
L 389.549117 175.945854 
L 389.66685 176.112857 
L 389.902316 177.008685 
L 390.314382 179.695528 
L 391.668312 190.755969 
L 392.404144 199.298198 
L 392.963376 208.863784 
L 393.758074 222.051943 
L 394.258439 226.94345 
L 395.141437 232.540025 
L 395.641802 234.357748 
L 396.112735 235.315858 
L 396.583667 235.801083 
L 397.084032 235.996196 
L 397.525531 236.000416 
L 398.261363 239.985665 
L 398.997194 242.785415 
L 399.703593 244.645015 
L 400.439424 245.985633 
L 400.498291 246.186461 
L 401.204689 249.356859 
L 401.881654 251.42713 
L 402.470319 252.596471 
L 403.117851 253.38842 
L 403.618216 253.699364 
L 405.178179 254.091766 
L 406.384943 254.256485 
L 407.061908 253.730077 
L 407.856606 253.412283 
L 408.739604 253.290496 
L 409.475435 253.154341 
L 410.181834 252.690202 
L 411.064831 252.393146 
L 412.301028 252.0591 
L 413.095726 250.389404 
L 413.860991 249.289823 
L 414.596823 248.576035 
L 415.214921 248.037982 
L 415.950753 244.621072 
L 416.686584 242.196965 
L 417.510716 240.221961 
L 418.187681 238.676976 
L 418.982379 233.526018 
L 419.80651 229.585892 
L 420.660075 226.559848 
L 421.366473 224.096494 
L 422.337771 220.476339 
L 424.074333 215.028658 
L 425.075064 212.280855 
L 425.781462 209.687422 
L 426.311261 206.885388 
L 426.75276 203.238939 
L 427.164825 197.748273 
L 427.635758 187.965767 
L 428.165556 178.450097 
L 428.459889 176.267147 
L 428.665922 175.927399 
L 428.783655 176.079846 
L 428.989688 176.80998 
L 429.37232 179.179857 
L 430.137585 185.580453 
L 431.491515 199.126308 
L 432.050747 207.951291 
L 432.992611 222.869545 
L 433.52241 228.588147 
L 434.022775 231.713477 
L 434.493708 233.332041 
L 434.935206 234.123482 
L 435.347272 234.449021 
L 435.818204 234.674554 
L 436.495169 237.847771 
L 437.172134 240.004106 
L 437.878533 241.548917 
L 438.584931 242.570512 
L 438.76153 242.92571 
L 439.526795 247.081114 
L 440.262627 249.921125 
L 440.939592 251.69235 
L 441.528257 252.664041 
L 442.705587 253.951003 
L 443.765185 254.570033 
L 444.648183 254.90894 
L 445.678347 254.239513 
L 446.414178 254.037242 
L 447.826975 253.728422 
L 448.562806 253.222205 
L 449.328071 252.962126 
L 450.623135 252.622938 
L 451.564999 251.190927 
L 452.359697 250.318188 
L 453.242695 249.706356 
L 453.478161 249.475121 
L 454.213993 246.692744 
L 454.949824 244.714655 
L 455.685656 243.345501 
L 456.421487 242.144444 
L 457.186752 237.114338 
L 457.98145 233.359897 
L 458.805581 230.450752 
L 459.51198 228.010447 
L 460.394978 223.902623 
L 461.395708 220.28399 
L 462.690772 216.447102 
L 463.985835 212.836708 
L 464.721667 210.103834 
L 465.339766 206.897407 
L 465.781264 203.799119 
L 466.163897 199.401637 
L 466.575962 191.59491 
L 467.252928 178.437224 
L 467.576693 176.029903 
L 467.753293 175.74787 
L 467.871026 175.878524 
L 468.077059 176.583232 
L 468.341958 178.31095 
L 469.489855 188.104754 
L 470.52002 197.818153 
L 471.049818 205.268226 
L 472.492048 227.43634 
L 472.96298 230.423524 
L 473.404479 231.974357 
L 473.816545 232.721143 
L 474.081444 233.102181 
L 474.670109 235.731937 
L 475.258775 237.411261 
L 475.876873 238.525664 
L 476.553838 239.284976 
L 477.02477 239.812559 
L 477.760602 244.240755 
L 478.496433 247.408363 
L 479.232265 249.656252 
L 479.879797 250.976732 
L 480.115263 251.560241 
L 480.733361 252.870919 
L 481.43976 253.859903 
L 482.175591 254.481177 
L 482.940856 254.890071 
L 484.324219 254.42449 
L 485.118917 254.336795 
L 485.943049 254.269706 
L 486.708313 253.628855 
L 487.503011 253.246188 
L 488.327143 253.109031 
L 488.856941 252.979819 
L 489.592773 252.122971 
L 490.65237 251.284097 
L 491.653101 250.697664 
L 491.741401 250.575209 
L 492.506666 248.407669 
L 493.242497 246.952356 
L 494.037195 245.867972 
L 494.684727 245.120932 
L 495.449992 241.0075 
L 496.24469 237.896726 
L 497.039388 235.66689 
L 497.657487 234.001815 
L 498.452185 229.180323 
L 499.305749 225.306832 
L 500.277047 221.936166 
L 504.162237 209.784183 
L 504.721469 207.228127 
L 505.162968 204.106377 
L 505.545601 199.701003 
L 505.928233 192.507403 
L 506.664065 178.182887 
L 506.958397 176.192019 
L 507.134997 175.94289 
L 507.25273 176.089515 
L 507.458763 176.812945 
L 507.841395 179.182635 
L 508.959859 188.228757 
L 509.666257 194.828192 
L 510.225489 202.598436 
L 511.697152 225.805156 
L 512.168084 229.060379 
L 513.463148 235.009161 
L 513.93408 235.823264 
L 514.405012 236.233907 
L 514.934811 236.405958 
L 515.258577 236.409123 
L 515.994408 240.555553 
L 516.73024 243.475714 
L 517.466072 245.495053 
L 518.407936 247.887271 
L 519.084901 250.481906 
L 519.732433 252.149946 
L 520.321098 253.093354 
L 520.939196 253.711329 
L 521.351262 253.88135 
L 524.088555 254.21617 
L 524.76552 253.683633 
L 525.589652 253.339505 
L 526.502083 253.216035 
L 527.179048 253.111208 
L 527.885446 252.599409 
L 528.739011 252.26097 
L 530.034074 251.834876 
L 530.799339 250.156727 
L 531.564604 249.000272 
L 532.300435 248.254822 
L 532.947967 247.667921 
L 533.683799 244.123348 
L 534.449063 241.509804 
L 535.273195 239.458496 
L 535.920726 237.936293 
L 536.715424 232.783879 
L 537.539556 228.838825 
L 538.39312 225.796009 
L 539.187818 223.024649 
L 540.247416 219.321633 
L 541.983978 214.033505 
L 542.866976 211.420054 
L 543.514508 208.792181 
L 544.014873 205.768928 
L 544.426939 201.783946 
L 544.839005 195.174857 
L 545.839736 177.12716 
L 546.104635 175.98466 
L 546.222368 175.948819 
L 546.251801 175.97793 
L 546.428401 176.424028 
L 546.722733 177.943613 
L 547.340832 182.614622 
L 548.370996 191.93861 
L 549.047961 199.489852 
L 549.636626 209.103606 
L 550.431324 221.611133 
L 551.255456 229.966235 
L 551.726388 232.466619 
L 552.19732 233.856646 
L 552.638819 234.52634 
L 553.050885 234.786873 
L 553.55125 234.98483 
L 554.228215 238.265799 
L 554.934613 240.625553 
L 555.641012 242.247469 
L 556.376843 243.375146 
L 556.494576 243.665646 
L 557.259841 247.699997 
L 557.966239 250.344268 
L 558.643204 252.055374 
L 559.231869 252.973904 
L 560.085434 253.846456 
L 560.997865 254.371008 
L 562.322362 254.913039 
L 562.440095 254.842264 
L 563.352526 254.180876 
L 564.088358 253.943592 
L 565.147955 253.843732 
L 565.383421 253.758708 
L 566.119253 253.214259 
L 566.884517 252.925042 
L 568.032415 252.768629 
L 568.267881 252.697987 
L 569.209745 251.081413 
L 569.97501 250.151078 
L 570.828574 249.474614 
L 571.211207 249.150396 
L 571.947038 246.230595 
L 572.68287 244.164491 
L 573.448135 242.661905 
L 574.154533 241.421401 
L 574.919798 236.331337 
L 575.743929 232.370044 
L 576.56806 229.427969 
L 577.274459 226.9456 
L 578.18689 222.942563 
L 579.246487 219.288636 
L 580.423818 215.873929 
L 581.571715 212.674058 
L 582.307546 209.936684 
L 582.837345 207.130324 
L 583.42601 202.617692 
L 583.808643 197.476856 
L 584.309008 186.833923 
L 584.77994 178.46249 
L 585.074273 176.185502 
L 585.280306 175.800137 
L 585.398039 175.933569 
L 585.604072 176.640947 
L 585.957271 178.854665 
L 587.7527 194.827283 
L 588.311932 201.520168 
L 588.93003 212.011802 
L 589.606995 223.268196 
L 590.107361 228.273852 
L 590.578293 231.013002 
L 591.019792 232.422151 
L 591.431858 233.093648 
L 591.843923 233.654122 
L 592.432588 236.190614 
L 593.050687 237.933155 
L 593.698219 239.107263 
L 594.375184 239.898384 
L 594.757816 240.384357 
L 595.493648 244.760005 
L 596.258912 248.006748 
L 596.965311 250.114142 
L 597.612842 251.393024 
L 597.877742 251.986068 
L 598.525274 253.176121 
L 599.202239 253.989248 
L 600.055803 254.618828 
L 600.703335 254.895185 
L 601.968965 254.400626 
L 602.73423 254.293208 
L 603.676094 254.212711 
L 604.441359 253.574238 
L 605.177191 253.220482 
L 606.001322 253.076354 
L 606.560554 252.975746 
L 607.296385 252.061624 
L 608.414849 251.073801 
L 609.268414 250.551626 
L 609.474447 250.369907 
L 610.239712 248.021797 
L 610.975543 246.448156 
L 611.740808 245.308286 
L 612.417773 244.472097 
L 613.183038 240.176665 
L 613.948302 237.029635 
L 614.772434 234.583454 
L 615.419966 232.670078 
L 616.244097 227.913472 
L 617.097661 224.220004 
L 618.098392 220.85074 
L 621.188885 211.372207 
L 622.483948 205.738642 
L 622.896014 202.070025 
L 623.278646 196.378304 
L 624.426544 176.403944 
L 624.632576 175.920696 
L 624.750309 176.008724 
L 624.926909 176.530378 
L 625.250675 178.333972 
L 625.986506 184.123551 
L 627.340436 196.203876 
L 627.870235 204.201509 
L 629.106432 224.657355 
L 629.606798 228.710989 
L 630.519229 233.413766 
L 631.019594 235.183455 
L 631.51996 236.213329 
L 632.020325 236.767179 
L 632.550124 237.040665 
L 632.991623 237.107328 
L 633.727454 241.366624 
L 634.433852 244.264364 
L 635.169684 246.389746 
L 635.905516 247.870392 
L 635.993815 248.189535 
L 636.67078 250.762964 
L 637.318312 252.420094 
L 637.965844 253.459302 
L 638.583942 254.07725 
L 639.025441 254.287733 
L 642.027634 254.359043 
L 642.792899 253.826318 
L 643.587597 253.525483 
L 644.470595 253.422352 
L 644.853227 253.333629 
L 645.559625 252.689 
L 646.383757 252.234729 
L 647.76712 251.589299 
L 648.502951 249.865333 
L 649.297649 248.573711 
L 650.033481 247.776541 
L 650.681013 247.142368 
L 651.416844 243.509179 
L 652.182109 240.806338 
L 653.00624 238.678739 
L 653.653772 237.126544 
L 654.44847 231.984025 
L 655.272602 228.038076 
L 656.126166 224.972238 
L 657.15633 221.409838 
L 658.627993 216.668255 
L 660.835488 209.663144 
L 661.365287 206.932127 
L 661.806786 203.389356 
L 662.189418 198.298477 
L 662.689783 187.731354 
L 663.190149 178.670515 
L 663.513915 176.231546 
L 663.719948 175.936159 
L 663.867114 176.184701 
L 664.10258 177.167355 
L 664.544079 180.152256 
L 665.36821 186.847678 
L 665.36821 186.847678 
" clip-path="url(#p9c7a0461c1)" style="fill: none; stroke: #ff7f0e; stroke-width: 3; stroke-linecap: square"/>
   </g>
   <g id="line2d_10">
    <path d="M 76.732415 196.817538 
L 665.36821 196.817538 
L 665.36821 196.817538 
" clip-path="url(#p9c7a0461c1)" style="fill: none; stroke-dasharray: 2.96,1.28; stroke-dashoffset: 0; stroke: #808080; stroke-opacity: 0.7; stroke-width: 0.8"/>
   </g>
   <g id="line2d_11">
    <path d="M 76.732415 117.174836 
L 77.585979 119.118806 
L 78.410111 120.472163 
L 79.175375 121.335781 
L 80.735338 122.601804 
L 81.588903 123.006318 
L 82.677934 123.443549 
L 83.619798 125.104552 
L 84.561662 126.326907 
L 85.297494 126.966289 
L 85.591826 127.282667 
L 86.445391 129.424915 
L 87.210656 130.819989 
L 87.887621 131.626347 
L 88.446853 131.977766 
L 88.505719 131.907525 
L 89.41815 129.744152 
L 90.212849 128.445198 
L 91.007547 127.571644 
L 91.449045 127.050898 
L 92.21431 123.581147 
L 92.979575 121.063043 
L 93.74484 119.253866 
L 95.981768 115.019582 
L 96.982499 113.792151 
L 97.865496 112.698873 
L 99.24886 111.117807 
L 100.632223 109.534577 
L 101.95672 107.572313 
L 102.898584 106.540863 
L 103.340083 105.998431 
L 106.401142 100.064044 
L 107.078107 97.386922 
L 107.607906 94.399938 
L 108.049405 90.540949 
L 108.432037 85.011824 
L 109.579935 65.677914 
L 109.785967 65.225539 
L 109.9037 65.320271 
L 110.109733 65.965876 
L 110.462932 68.023166 
L 111.34593 75.004734 
L 112.140628 82.34835 
L 112.670427 90.950137 
L 113.994924 115.26158 
L 114.495289 119.58181 
L 114.966221 121.896962 
L 115.437154 123.456262 
L 115.908086 124.28249 
L 116.349585 124.639411 
L 116.84995 124.745868 
L 117.468049 124.630624 
L 118.086147 124.505285 
L 119.175178 124.748165 
L 120.735141 124.869765 
L 120.91174 124.973684 
L 121.853605 126.349315 
L 122.736602 127.260954 
L 123.7079 127.958638 
L 123.825633 128.110925 
L 124.590898 130.334337 
L 125.326729 131.803873 
L 126.062561 132.788931 
L 126.739526 133.349471 
L 127.445924 133.511186 
L 128.005156 133.430876 
L 129.359086 132.889886 
L 129.682852 132.775951 
L 130.418684 128.397392 
L 131.183948 125.128722 
L 131.949213 122.774149 
L 133.244277 119.166158 
L 134.038975 117.09952 
L 134.833673 115.647078 
L 136.393636 113.469336 
L 137.5121 112.191161 
L 139.042629 110.453427 
L 140.484859 108.70875 
L 141.809356 107.115665 
L 143.281019 104.766086 
L 144.664382 102.492864 
L 145.54738 99.794296 
L 146.194912 97.107506 
L 146.72471 93.934904 
L 147.136776 90.117553 
L 147.548842 84.054862 
L 148.667306 65.426808 
L 148.902772 64.776263 
L 149.020505 64.852781 
L 149.197104 65.359639 
L 149.52087 67.137433 
L 150.256702 72.822505 
L 150.521601 75.8515 
L 151.404599 87.342387 
L 151.993264 98.965184 
L 152.699663 111.715498 
L 153.200028 117.056815 
L 153.876993 121.598291 
L 154.347925 123.184912 
L 154.789424 123.95914 
L 155.230923 124.313925 
L 155.672422 124.397039 
L 156.584853 124.462873 
L 157.320685 124.519974 
L 159.292713 124.594863 
L 160.205144 125.47512 
L 161.294175 126.21535 
L 162.118306 126.757542 
L 162.942438 128.68108 
L 163.707702 129.946863 
L 164.443534 130.742377 
L 165.120499 131.432877 
L 165.85633 132.914537 
L 166.533295 133.794047 
L 167.092527 134.207054 
L 167.651759 134.336292 
L 167.946092 134.344598 
L 168.711357 130.523534 
L 169.447188 127.948329 
L 170.241886 125.975568 
L 171.007151 124.183939 
L 171.742983 121.085317 
L 172.537681 118.665817 
L 173.332379 116.901883 
L 175.010075 114.066733 
L 176.069672 112.79422 
L 177.188136 111.484289 
L 178.3066 110.067368 
L 180.190329 107.846761 
L 181.161626 106.459218 
L 182.986489 103.958928 
L 184.310985 100.587033 
L 185.017384 98.141333 
L 185.606049 95.254636 
L 186.076981 91.854752 
L 186.459613 87.393399 
L 186.871679 79.594978 
L 187.548644 66.68562 
L 187.842977 64.523742 
L 188.04901 64.218447 
L 188.196176 64.47452 
L 188.431642 65.486981 
L 188.667108 67.422698 
L 190.550837 88.281669 
L 191.168935 99.745608 
L 191.963633 113.327892 
L 192.463999 118.467913 
L 192.964364 121.492315 
L 193.435296 123.072366 
L 193.876795 123.835938 
L 194.318294 124.178811 
L 195.731091 124.646088 
L 196.614089 124.433175 
L 197.467653 124.298621 
L 198.438951 124.920803 
L 199.616281 125.397134 
L 200.381546 125.763696 
L 201.205677 127.425153 
L 202.059242 128.664121 
L 202.85394 129.455362 
L 203.324872 129.924589 
L 204.060704 131.96735 
L 204.796535 133.379384 
L 205.444067 134.183765 
L 206.032732 134.598722 
L 206.209332 134.655796 
L 207.062896 131.940295 
L 207.887028 130.022873 
L 208.622859 128.852463 
L 209.182091 128.034595 
L 209.947356 124.081275 
L 210.712621 121.242304 
L 211.507319 119.147089 
L 213.332181 115.304686 
L 214.185746 114.110667 
L 217.158505 110.68119 
L 218.218102 109.560804 
L 219.513166 107.541065 
L 220.425597 106.493083 
L 221.073129 105.708119 
L 223.839855 99.673017 
L 224.193055 98.347463 
L 224.78172 95.418782 
L 225.252652 91.869842 
L 225.635284 87.204255 
L 226.04735 79.095278 
L 226.694882 66.566905 
L 226.930348 64.936109 
L 227.077514 64.772925 
L 227.106947 64.789297 
L 227.254114 65.082386 
L 227.519013 66.311045 
L 228.019379 69.970688 
L 229.491042 82.916769 
L 229.903107 88.311394 
L 230.521206 101.063177 
L 231.168738 112.616187 
L 231.669103 117.98803 
L 232.169468 121.126981 
L 232.610967 122.66884 
L 233.346799 124.193099 
L 233.788298 124.573977 
L 234.288663 124.71008 
L 234.906762 124.63447 
L 235.848626 124.450214 
L 236.908224 124.804705 
L 238.291587 125.023841 
L 238.644786 125.170146 
L 239.527784 126.615938 
L 240.440215 127.680692 
L 241.382079 128.437773 
L 241.558679 128.629962 
L 242.29451 130.764384 
L 243.030342 132.243667 
L 243.766173 133.223945 
L 244.443138 133.770811 
L 244.590305 133.741539 
L 245.414436 133.289593 
L 247.327598 132.093116 
L 247.415898 132.056981 
L 248.151729 127.657723 
L 248.916994 124.362292 
L 249.682259 122.00155 
L 252.213519 115.849068 
L 253.037651 114.70128 
L 254.156115 113.213022 
L 255.451178 111.79936 
L 256.716808 110.373438 
L 258.217905 108.513811 
L 259.601268 106.817528 
L 261.308397 104.102668 
L 262.309128 102.466424 
L 263.192126 99.742003 
L 263.839658 97.019211 
L 264.369456 93.795437 
L 264.781522 89.885116 
L 265.193588 83.529469 
L 266.253185 65.695808 
L 266.488651 64.891293 
L 266.606384 64.904166 
L 266.753551 65.231762 
L 267.01845 66.469769 
L 267.548249 70.261615 
L 268.225214 76.518844 
L 269.049345 87.502713 
L 269.63801 99.304157 
L 270.314975 111.641517 
L 270.815341 117.102592 
L 271.433439 121.291099 
L 271.904371 123.038287 
L 272.34587 123.907808 
L 272.787369 124.324101 
L 273.228868 124.447597 
L 273.817533 124.354788 
L 274.052999 124.38924 
L 274.671098 124.507101 
L 275.966161 124.474785 
L 276.908026 124.485361 
L 277.791024 125.39684 
L 278.880054 126.196093 
L 279.880785 126.920485 
L 280.704917 128.888171 
L 281.470181 130.168536 
L 282.206013 130.970861 
L 282.882978 131.692502 
L 283.589376 132.988651 
L 284.236908 133.743516 
L 284.79614 134.086656 
L 285.414238 134.169663 
L 285.679138 134.149445 
L 286.444403 130.187926 
L 287.180234 127.522609 
L 287.974932 125.46174 
L 288.76963 123.49432 
L 289.505462 120.545448 
L 290.329593 118.15538 
L 291.094858 116.569801 
L 292.801987 113.861671 
L 293.891018 112.628606 
L 294.832882 111.54342 
L 295.951346 110.076583 
L 297.393576 108.586563 
L 297.599609 108.260088 
L 298.570906 106.710831 
L 300.101436 104.755403 
L 300.513501 104.145828 
L 301.867431 100.656526 
L 302.603263 98.072935 
L 303.162495 95.301588 
L 303.66286 91.643601 
L 304.045493 87.118577 
L 304.457559 79.258194 
L 305.10509 66.93304 
L 305.399423 64.667723 
L 305.605456 64.299104 
L 305.723189 64.446183 
L 305.929222 65.183662 
L 306.282421 67.376093 
L 308.225016 90.256299 
L 309.843845 116.898358 
L 310.344211 120.588768 
L 310.815143 122.579637 
L 311.256642 123.588278 
L 311.698141 124.079458 
L 312.13964 124.250948 
L 312.316239 124.365391 
L 312.875471 124.598281 
L 313.49357 124.616683 
L 314.906366 124.307114 
L 315.200699 124.339751 
L 316.142563 125.007977 
L 317.29046 125.538791 
L 318.114592 125.95519 
L 318.938723 127.693672 
L 319.792288 128.985975 
L 320.557553 129.767788 
L 321.057918 130.258594 
L 321.793749 132.206357 
L 322.500148 133.501331 
L 323.14768 134.265116 
L 323.706911 134.621423 
L 323.942378 134.678017 
L 324.766509 131.68083 
L 325.531774 129.650354 
L 326.267605 128.300069 
L 326.94457 127.105142 
L 327.709835 123.328439 
L 328.445667 120.713439 
L 329.269798 118.603749 
L 331.035794 115.021772 
L 331.948225 113.780774 
L 335.15645 110.154462 
L 335.892282 109.370806 
L 337.128479 107.443422 
L 338.099776 106.340502 
L 338.806175 105.477418 
L 341.278569 99.809253 
L 341.837801 97.811387 
L 342.397032 94.856585 
L 342.838531 91.307886 
L 343.221164 86.31692 
L 343.662663 77.154192 
L 344.221895 66.646226 
L 344.516227 64.381471 
L 344.545661 64.275815 
L 344.63396 64.35041 
L 344.81056 64.875269 
L 345.134326 66.765022 
L 345.870157 72.848865 
L 347.135788 84.770841 
L 347.577287 91.16038 
L 348.931217 115.54193 
L 349.431582 119.750148 
L 349.902514 122.033893 
L 350.344013 123.203875 
L 351.138711 124.449733 
L 351.609643 124.705058 
L 352.168875 124.751637 
L 352.84584 124.577503 
L 353.493372 124.45211 
L 354.494103 124.869204 
L 355.759733 125.149046 
L 356.348398 125.297488 
L 357.201963 126.770228 
L 358.084961 127.867699 
L 358.997392 128.652663 
L 359.291725 128.922758 
L 360.027556 131.10739 
L 360.733954 132.568486 
L 361.440353 133.557417 
L 362.087884 134.11307 
L 362.264484 134.111894 
L 364.442545 131.763651 
L 365.178377 131.101755 
L 365.943642 126.649269 
L 366.708906 123.458612 
L 367.444738 121.265006 
L 369.740532 115.842284 
L 370.564664 114.67735 
L 373.655156 111.153595 
L 374.243821 110.482672 
L 375.715484 108.551762 
L 376.833948 107.397297 
L 377.039981 107.106104 
L 378.599944 104.459269 
L 380.10104 101.869214 
L 380.925172 99.162233 
L 381.54327 96.348635 
L 382.043636 93.007348 
L 382.455701 88.597166 
L 382.867767 81.321815 
L 383.691898 66.739383 
L 383.986231 65.110616 
L 384.133397 64.993397 
L 384.280564 65.24346 
L 384.51603 66.22048 
L 384.986962 69.397756 
L 385.86996 76.96179 
L 386.664658 87.810145 
L 387.282756 100.460626 
L 387.930288 112.087081 
L 388.430653 117.463332 
L 388.989885 121.127889 
L 389.460818 122.960461 
L 389.902316 123.881608 
L 390.343815 124.331899 
L 390.785314 124.478204 
L 391.344546 124.411648 
L 391.815478 124.376982 
L 392.55131 124.489741 
L 394.08184 124.474518 
L 394.641072 124.526812 
L 395.553503 125.488608 
L 396.6131 126.293309 
L 397.584398 126.955712 
L 398.408529 129.064228 
L 399.144361 130.383853 
L 399.880192 131.256659 
L 400.67489 132.129626 
L 401.351855 133.168553 
L 401.999387 133.773802 
L 402.529186 133.988024 
L 403.235584 134.00055 
L 403.412183 133.968555 
L 404.148015 129.986951 
L 404.883847 127.180751 
L 405.678545 125.003597 
L 406.532109 122.818483 
L 407.297374 119.92551 
L 408.121505 117.663906 
L 408.88677 116.184649 
L 410.652766 113.557818 
L 411.77123 112.374028 
L 412.507061 111.526648 
L 413.596092 110.076155 
L 415.038322 108.547863 
L 415.332654 108.137126 
L 416.303952 106.564259 
L 417.893348 104.464797 
L 418.246547 103.907676 
L 419.512177 100.572878 
L 420.218576 98.051248 
L 420.777808 95.243045 
L 421.278173 91.498792 
L 421.660806 86.939048 
L 422.072871 79.052385 
L 422.720403 66.896237 
L 423.014736 64.709334 
L 423.220768 64.379227 
L 423.338501 64.542491 
L 423.544534 65.299386 
L 423.927167 67.721343 
L 424.192066 70.419083 
L 425.781462 89.533056 
L 427.488591 117.299026 
L 427.988957 120.827695 
L 428.459889 122.717742 
L 428.901388 123.665383 
L 429.342887 124.120561 
L 429.784386 124.268709 
L 430.078718 124.391404 
L 430.667384 124.605012 
L 431.314915 124.596732 
L 432.992611 124.453633 
L 433.934476 125.160851 
L 435.141239 125.759316 
L 435.847638 126.15069 
L 436.671769 127.946807 
L 437.4959 129.238095 
L 438.231732 130.013952 
L 438.790964 130.548613 
L 439.526795 132.407385 
L 440.233194 133.631264 
L 440.880725 134.33907 
L 441.410524 134.622865 
L 441.675423 134.670325 
L 442.470121 131.494758 
L 443.205953 129.356517 
L 443.941784 127.866443 
L 444.677616 126.51079 
L 445.442881 122.830261 
L 446.178712 120.291191 
L 447.002844 118.219532 
L 448.68054 114.891225 
L 449.592971 113.640211 
L 452.74233 110.030645 
L 453.654761 109.058647 
L 454.832091 107.261542 
L 455.921122 106.055558 
L 456.509787 105.332689 
L 458.746715 100.050423 
L 459.42368 97.676433 
L 459.982912 94.696767 
L 460.424411 91.090646 
L 460.807043 85.992502 
L 461.277975 76.053436 
L 461.778341 66.804843 
L 462.102107 64.341116 
L 462.278706 64.056385 
L 462.543606 65.454077 
L 463.102838 69.973679 
L 464.6628 84.836836 
L 465.192599 92.622677 
L 465.751831 104.425403 
L 466.340496 113.950154 
L 466.840862 118.821897 
L 467.311794 121.528584 
L 467.782726 123.033587 
L 468.312525 123.942315 
L 468.783457 124.483866 
L 469.283823 124.713979 
L 469.872488 124.730538 
L 470.667186 124.500104 
L 471.226418 124.423186 
L 472.256582 124.895511 
L 473.492779 125.208845 
L 474.110877 125.442777 
L 474.964442 126.94356 
L 475.84744 128.058311 
L 476.730438 128.827331 
L 477.02477 129.096251 
L 477.760602 131.309914 
L 478.467 132.790373 
L 479.173398 133.792337 
L 479.82093 134.343477 
L 479.938663 134.407361 
L 479.968096 134.355629 
L 481.35146 132.14979 
L 482.234458 131.129905 
L 482.911423 130.431767 
L 483.676687 126.060766 
L 484.441952 122.924993 
L 485.177784 120.77922 
L 487.326412 115.809567 
L 488.150543 114.630585 
L 491.093869 111.235748 
L 492.065167 110.162581 
L 493.53683 108.192518 
L 494.508128 107.19472 
L 494.773027 106.854625 
L 496.627322 103.599816 
L 497.716353 101.645511 
L 498.511051 98.982063 
L 499.12915 96.094966 
L 499.629515 92.615707 
L 500.012147 88.368175 
L 500.39478 81.50113 
L 501.130611 67.697493 
L 501.454377 65.372218 
L 501.630977 65.093978 
L 501.74871 65.21953 
L 501.954743 65.907493 
L 502.337375 68.213752 
L 503.367539 76.410998 
L 503.691305 79.904626 
L 504.309404 89.043691 
L 505.928233 116.961228 
L 506.428598 120.373531 
L 506.899531 122.542166 
L 507.34103 123.663594 
L 507.782529 124.239731 
L 508.224027 124.470298 
L 508.724393 124.47337 
L 509.813424 124.389267 
L 510.990754 124.508303 
L 512.403551 124.633909 
L 513.345415 125.663169 
L 514.346146 126.457401 
L 515.317443 127.149797 
L 516.112141 129.333762 
L 516.847973 130.746063 
L 517.583805 131.687908 
L 518.878868 133.157603 
L 519.5264 133.693733 
L 520.056199 133.866264 
L 520.79203 133.834749 
L 521.145229 133.7464 
L 521.881061 129.616436 
L 522.616892 126.690879 
L 523.382157 124.481676 
L 524.353455 121.84296 
L 525.148153 119.088172 
L 525.942851 117.091535 
L 526.708116 115.748033 
L 528.739011 112.967873 
L 530.593306 110.85033 
L 531.829503 109.339692 
L 533.271733 107.586094 
L 534.41963 105.787841 
L 536.185626 103.047502 
L 537.156923 100.320918 
L 537.863322 97.655361 
L 538.422554 94.622653 
L 538.893486 90.699913 
L 539.276118 85.731061 
L 539.74705 76.129927 
L 540.276849 66.869315 
L 540.571182 64.796428 
L 540.747781 64.510122 
L 540.865514 64.63952 
L 541.071547 65.347487 
L 541.45418 67.712049 
L 541.895679 71.718197 
L 543.308475 89.252732 
L 545.015604 117.126121 
L 545.51597 120.735206 
L 545.986902 122.672846 
L 546.428401 123.649332 
L 546.8699 124.123392 
L 547.311399 124.283879 
L 547.929497 124.434724 
L 548.547596 124.581642 
L 549.460027 124.509879 
L 550.66679 124.441027 
L 551.579222 125.236835 
L 552.697685 125.898143 
L 553.580683 126.407778 
L 554.404815 128.246547 
L 555.228946 129.557705 
L 555.964777 130.324803 
L 556.553443 130.929063 
L 557.289274 132.658063 
L 557.966239 133.738335 
L 558.613771 134.374377 
L 559.114136 134.580427 
L 559.408469 134.620916 
L 560.203167 131.140107 
L 560.938999 128.844424 
L 561.704263 127.17808 
L 562.440095 125.639239 
L 563.20536 122.125794 
L 563.970625 119.622699 
L 564.794756 117.64481 
L 566.501885 114.449774 
L 567.532049 113.129054 
L 569.092012 111.236362 
L 570.181043 110.014647 
L 571.446673 108.645987 
L 572.50627 107.062517 
L 573.801334 105.622093 
L 574.242833 105.032575 
L 576.214861 100.20944 
L 576.92126 97.709764 
L 577.451058 95.010475 
L 577.892557 91.635055 
L 578.27519 86.93376 
L 578.687255 78.804405 
L 579.305354 66.860395 
L 579.62912 64.390899 
L 579.805719 64.10072 
L 579.923452 64.2357 
L 580.041185 64.692268 
L 580.659284 70.131361 
L 582.24868 86.217675 
L 582.778479 94.832415 
L 583.985242 115.657307 
L 584.485608 119.844693 
L 584.95654 122.134847 
L 585.398039 123.321629 
L 585.839538 123.920708 
L 586.869702 124.673917 
L 587.4878 124.677496 
L 588.400232 124.408283 
L 588.93003 124.328053 
L 589.930761 124.854514 
L 591.137525 125.227353 
L 591.843923 125.515449 
L 592.697488 127.078568 
L 593.551052 128.202613 
L 594.404617 128.983331 
L 594.757816 129.290976 
L 595.493648 131.490351 
L 596.229479 133.015118 
L 596.906444 133.954239 
L 597.524543 134.468468 
L 597.671709 134.542502 
L 597.701142 134.471727 
L 598.790173 132.141991 
L 599.673171 130.762087 
L 600.467869 129.941735 
L 600.615035 129.819147 
L 601.3803 125.524556 
L 602.145565 122.439208 
L 602.910829 120.258955 
L 604.912291 115.738605 
L 605.736423 114.543598 
L 608.503149 111.304226 
L 609.915946 109.716243 
L 611.328742 107.751788 
L 612.21174 106.85158 
L 612.506073 106.477993 
L 614.743001 102.378689 
L 615.449399 100.863564 
L 616.18523 98.17624 
L 616.744462 95.297262 
L 617.215395 91.636764 
L 617.598027 86.786334 
L 618.039526 77.761711 
L 618.569325 67.91476 
L 618.89309 65.48228 
L 619.099123 65.158396 
L 619.216856 65.312873 
L 619.422889 66.041432 
L 619.805522 68.396646 
L 620.865119 76.90728 
L 621.394918 82.192805 
L 621.924716 90.71316 
L 623.278646 115.325491 
L 623.779012 119.522919 
L 624.279377 121.965681 
L 624.750309 123.420928 
L 625.191808 124.135892 
L 625.633307 124.462046 
L 626.104239 124.535011 
L 626.722338 124.397894 
L 627.28157 124.288259 
L 628.311734 124.511481 
L 630.195463 124.845514 
L 631.16676 126.02853 
L 632.108625 126.845517 
L 633.050489 127.579229 
L 633.845187 129.852211 
L 634.551586 131.247979 
L 635.287417 132.234106 
L 636.317581 133.178996 
L 636.994546 133.59665 
L 637.524345 133.682702 
L 638.319043 133.553891 
L 638.878275 133.382909 
L 639.614106 129.103115 
L 640.379371 125.938979 
L 641.174069 123.578316 
L 642.1748 120.795352 
L 642.998932 118.219372 
L 643.764196 116.509708 
L 644.588328 115.219248 
L 647.413921 111.735021 
L 648.002586 111.01533 
L 649.179916 109.514066 
L 650.533846 108.10302 
L 650.769313 107.776787 
L 651.858343 105.962108 
L 653.977538 102.512708 
L 654.860536 99.865285 
L 655.508068 97.244196 
L 656.037866 94.167902 
L 656.479365 90.175962 
L 656.920864 83.819942 
L 658.009895 65.392249 
L 658.245361 64.663156 
L 658.363094 64.710082 
L 658.539694 65.184383 
L 658.863459 66.933734 
L 659.510991 72.017269 
L 660.864921 89.396233 
L 662.483751 116.38274 
L 662.984116 120.322333 
L 663.455048 122.461028 
L 663.896547 123.559487 
L 664.338046 124.110493 
L 664.779545 124.321643 
L 665.27991 124.303269 
L 665.36821 124.282704 
L 665.36821 124.282704 
" clip-path="url(#p9c7a0461c1)" style="fill: none; stroke: #2ca02c; stroke-width: 3; stroke-linecap: square"/>
   </g>
   <g id="line2d_12">
    <path d="M 76.732415 84.797522 
L 665.36821 84.797522 
L 665.36821 84.797522 
" clip-path="url(#p9c7a0461c1)" style="fill: none; stroke-dasharray: 2.96,1.28; stroke-dashoffset: 0; stroke: #808080; stroke-opacity: 0.7; stroke-width: 0.8"/>
   </g>
   <g id="line2d_13">
    <path d="M 76.732415 374.72434 
L 106.165676 374.72434 
" clip-path="url(#p9c7a0461c1)" style="fill: none; stroke: #000000; stroke-width: 5; stroke-linecap: square"/>
   </g>
   <g id="text_5">
    <!-- 100ms -->
    <g transform="translate(64.219045 403.968577) scale(0.16 -0.16)">
     <defs>
      <path id="DejaVuSans-30" d="M 2034 4250 
Q 1547 4250 1301 3770 
Q 1056 3291 1056 2328 
Q 1056 1369 1301 889 
Q 1547 409 2034 409 
Q 2525 409 2770 889 
Q 3016 1369 3016 2328 
Q 3016 3291 2770 3770 
Q 2525 4250 2034 4250 
z
M 2034 4750 
Q 2819 4750 3233 4129 
Q 3647 3509 3647 2328 
Q 3647 1150 3233 529 
Q 2819 -91 2034 -91 
Q 1250 -91 836 529 
Q 422 1150 422 2328 
Q 422 3509 836 4129 
Q 1250 4750 2034 4750 
z
" transform="scale(0.015625)"/>
      <path id="DejaVuSans-6d" d="M 3328 2828 
Q 3544 3216 3844 3400 
Q 4144 3584 4550 3584 
Q 5097 3584 5394 3201 
Q 5691 2819 5691 2113 
L 5691 0 
L 5113 0 
L 5113 2094 
Q 5113 2597 4934 2840 
Q 4756 3084 4391 3084 
Q 3944 3084 3684 2787 
Q 3425 2491 3425 1978 
L 3425 0 
L 2847 0 
L 2847 2094 
Q 2847 2600 2669 2842 
Q 2491 3084 2119 3084 
Q 1678 3084 1418 2786 
Q 1159 2488 1159 1978 
L 1159 0 
L 581 0 
L 581 3500 
L 1159 3500 
L 1159 2956 
Q 1356 3278 1631 3431 
Q 1906 3584 2284 3584 
Q 2666 3584 2933 3390 
Q 3200 3197 3328 2828 
z
" transform="scale(0.015625)"/>
     </defs>
     <use xlink:href="#DejaVuSans-31"/>
     <use xlink:href="#DejaVuSans-30" x="63.623047"/>
     <use xlink:href="#DejaVuSans-30" x="127.246094"/>
     <use xlink:href="#DejaVuSans-6d" x="190.869141"/>
     <use xlink:href="#DejaVuSans-73" x="288.28125"/>
    </g>
   </g>
   <g id="text_6">
    <!-- Inhibitory Membrane Potentials -->
    <g transform="translate(183.171563 25.43625) scale(0.24 -0.24)">
     <defs>
      <path id="DejaVuSans-49" d="M 628 4666 
L 1259 4666 
L 1259 0 
L 628 0 
L 628 4666 
z
" transform="scale(0.015625)"/>
      <path id="DejaVuSans-68" d="M 3513 2113 
L 3513 0 
L 2938 0 
L 2938 2094 
Q 2938 2591 2744 2837 
Q 2550 3084 2163 3084 
Q 1697 3084 1428 2787 
Q 1159 2491 1159 1978 
L 1159 0 
L 581 0 
L 581 4863 
L 1159 4863 
L 1159 2956 
Q 1366 3272 1645 3428 
Q 1925 3584 2291 3584 
Q 2894 3584 3203 3211 
Q 3513 2838 3513 2113 
z
" transform="scale(0.015625)"/>
      <path id="DejaVuSans-69" d="M 603 3500 
L 1178 3500 
L 1178 0 
L 603 0 
L 603 3500 
z
M 603 4863 
L 1178 4863 
L 1178 4134 
L 603 4134 
L 603 4863 
z
" transform="scale(0.015625)"/>
      <path id="DejaVuSans-62" d="M 3116 1747 
Q 3116 2381 2855 2742 
Q 2594 3103 2138 3103 
Q 1681 3103 1420 2742 
Q 1159 2381 1159 1747 
Q 1159 1113 1420 752 
Q 1681 391 2138 391 
Q 2594 391 2855 752 
Q 3116 1113 3116 1747 
z
M 1159 2969 
Q 1341 3281 1617 3432 
Q 1894 3584 2278 3584 
Q 2916 3584 3314 3078 
Q 3713 2572 3713 1747 
Q 3713 922 3314 415 
Q 2916 -91 2278 -91 
Q 1894 -91 1617 61 
Q 1341 213 1159 525 
L 1159 0 
L 581 0 
L 581 4863 
L 1159 4863 
L 1159 2969 
z
" transform="scale(0.015625)"/>
      <path id="DejaVuSans-74" d="M 1172 4494 
L 1172 3500 
L 2356 3500 
L 2356 3053 
L 1172 3053 
L 1172 1153 
Q 1172 725 1289 603 
Q 1406 481 1766 481 
L 2356 481 
L 2356 0 
L 1766 0 
Q 1100 0 847 248 
Q 594 497 594 1153 
L 594 3053 
L 172 3053 
L 172 3500 
L 594 3500 
L 594 4494 
L 1172 4494 
z
" transform="scale(0.015625)"/>
      <path id="DejaVuSans-79" d="M 2059 -325 
Q 1816 -950 1584 -1140 
Q 1353 -1331 966 -1331 
L 506 -1331 
L 506 -850 
L 844 -850 
Q 1081 -850 1212 -737 
Q 1344 -625 1503 -206 
L 1606 56 
L 191 3500 
L 800 3500 
L 1894 763 
L 2988 3500 
L 3597 3500 
L 2059 -325 
z
" transform="scale(0.015625)"/>
      <path id="DejaVuSans-20" transform="scale(0.015625)"/>
      <path id="DejaVuSans-4d" d="M 628 4666 
L 1569 4666 
L 2759 1491 
L 3956 4666 
L 4897 4666 
L 4897 0 
L 4281 0 
L 4281 4097 
L 3078 897 
L 2444 897 
L 1241 4097 
L 1241 0 
L 628 0 
L 628 4666 
z
" transform="scale(0.015625)"/>
      <path id="DejaVuSans-61" d="M 2194 1759 
Q 1497 1759 1228 1600 
Q 959 1441 959 1056 
Q 959 750 1161 570 
Q 1363 391 1709 391 
Q 2188 391 2477 730 
Q 2766 1069 2766 1631 
L 2766 1759 
L 2194 1759 
z
M 3341 1997 
L 3341 0 
L 2766 0 
L 2766 531 
Q 2569 213 2275 61 
Q 1981 -91 1556 -91 
Q 1019 -91 701 211 
Q 384 513 384 1019 
Q 384 1609 779 1909 
Q 1175 2209 1959 2209 
L 2766 2209 
L 2766 2266 
Q 2766 2663 2505 2880 
Q 2244 3097 1772 3097 
Q 1472 3097 1187 3025 
Q 903 2953 641 2809 
L 641 3341 
Q 956 3463 1253 3523 
Q 1550 3584 1831 3584 
Q 2591 3584 2966 3190 
Q 3341 2797 3341 1997 
z
" transform="scale(0.015625)"/>
      <path id="DejaVuSans-50" d="M 1259 4147 
L 1259 2394 
L 2053 2394 
Q 2494 2394 2734 2622 
Q 2975 2850 2975 3272 
Q 2975 3691 2734 3919 
Q 2494 4147 2053 4147 
L 1259 4147 
z
M 628 4666 
L 2053 4666 
Q 2838 4666 3239 4311 
Q 3641 3956 3641 3272 
Q 3641 2581 3239 2228 
Q 2838 1875 2053 1875 
L 1259 1875 
L 1259 0 
L 628 0 
L 628 4666 
z
" transform="scale(0.015625)"/>
      <path id="DejaVuSans-6c" d="M 603 4863 
L 1178 4863 
L 1178 0 
L 603 0 
L 603 4863 
z
" transform="scale(0.015625)"/>
     </defs>
     <use xlink:href="#DejaVuSans-49"/>
     <use xlink:href="#DejaVuSans-6e" x="29.492188"/>
     <use xlink:href="#DejaVuSans-68" x="92.871094"/>
     <use xlink:href="#DejaVuSans-69" x="156.25"/>
     <use xlink:href="#DejaVuSans-62" x="184.033203"/>
     <use xlink:href="#DejaVuSans-69" x="247.509766"/>
     <use xlink:href="#DejaVuSans-74" x="275.292969"/>
     <use xlink:href="#DejaVuSans-6f" x="314.501953"/>
     <use xlink:href="#DejaVuSans-72" x="375.683594"/>
     <use xlink:href="#DejaVuSans-79" x="416.796875"/>
     <use xlink:href="#DejaVuSans-20" x="475.976562"/>
     <use xlink:href="#DejaVuSans-4d" x="507.763672"/>
     <use xlink:href="#DejaVuSans-65" x="594.042969"/>
     <use xlink:href="#DejaVuSans-6d" x="655.566406"/>
     <use xlink:href="#DejaVuSans-62" x="752.978516"/>
     <use xlink:href="#DejaVuSans-72" x="816.455078"/>
     <use xlink:href="#DejaVuSans-61" x="857.568359"/>
     <use xlink:href="#DejaVuSans-6e" x="918.847656"/>
     <use xlink:href="#DejaVuSans-65" x="982.226562"/>
     <use xlink:href="#DejaVuSans-20" x="1043.75"/>
     <use xlink:href="#DejaVuSans-50" x="1075.537109"/>
     <use xlink:href="#DejaVuSans-6f" x="1132.214844"/>
     <use xlink:href="#DejaVuSans-74" x="1193.396484"/>
     <use xlink:href="#DejaVuSans-65" x="1232.605469"/>
     <use xlink:href="#DejaVuSans-6e" x="1294.128906"/>
     <use xlink:href="#DejaVuSans-74" x="1357.507812"/>
     <use xlink:href="#DejaVuSans-69" x="1396.716797"/>
     <use xlink:href="#DejaVuSans-61" x="1424.5"/>
     <use xlink:href="#DejaVuSans-6c" x="1485.779297"/>
     <use xlink:href="#DejaVuSans-73" x="1513.5625"/>
    </g>
   </g>
  </g>
 </g>
 <defs>
  <clipPath id="p9c7a0461c1">
   <rect x="47.300625" y="48.522987" width="647.499375" height="341.73475"/>
  </clipPath>
 </defs>
</svg>
