<?xml version="1.0" encoding="utf-8" standalone="no"?>
<!DOCTYPE svg PUBLIC "-//W3C//DTD SVG 1.1//EN"
  "http://www.w3.org/Graphics/SVG/1.1/DTD/svg11.dtd">
<svg xmlns:xlink="http://www.w3.org/1999/xlink" width="702pt" height="414.496077pt" viewBox="0 0 702 414.496077" xmlns="http://www.w3.org/2000/svg" version="1.1">
 <metadata>
  <rdf:RDF xmlns:dc="http://purl.org/dc/elements/1.1/" xmlns:cc="http://creativecommons.org/ns#" xmlns:rdf="http://www.w3.org/1999/02/22-rdf-syntax-ns#">
   <cc:Work>
    <dc:type rdf:resource="http://purl.org/dc/dcmitype/StillImage"/>
    <dc:date>2025-10-16T11:46:50.903812</dc:date>
    <dc:format>image/svg+xml</dc:format>
    <dc:creator>
     <cc:Agent>
      <dc:title>Matplotlib v3.8.2, https://matplotlib.org/</dc:title>
     </cc:Agent>
    </dc:creator>
   </cc:Work>
  </rdf:RDF>
 </metadata>
 <defs>
  <style type="text/css">*{stroke-linejoin: round; stroke-linecap: butt}</style>
 </defs>
 <g id="figure_1">
  <g id="patch_1">
   <path d="M 0 414.496077 
L 702 414.496077 
L 702 0 
L 0 0 
z
" style="fill: #ffffff"/>
  </g>
  <g id="axes_1">
   <g id="patch_2">
    <path d="M 47.300625 390.257738 
L 694.8 390.257738 
L 694.8 48.522988 
L 47.300625 48.522988 
z
" style="fill: #ffffff"/>
   </g>
   <g id="matplotlib.axis_1"/>
   <g id="matplotlib.axis_2">
    <g id="ytick_1">
     <g id="line2d_1">
      <path d="M 47.300625 312.654704 
L 694.8 312.654704 
" clip-path="url(#p33b1527c19)" style="fill: none; stroke: #b0b0b0; stroke-opacity: 0.3; stroke-width: 0.8; stroke-linecap: square"/>
     </g>
     <g id="line2d_2">
      <defs>
       <path id="m08b9ba7116" d="M 0 0 
L -5 0 
" style="stroke: #000000; stroke-width: 0.8"/>
      </defs>
      <g>
       <use xlink:href="#m08b9ba7116" x="47.300625" y="312.654704" style="stroke: #000000; stroke-width: 0.8"/>
      </g>
     </g>
     <g id="text_1">
      <!-- 1 -->
      <g transform="translate(28.620625 318.733454) scale(0.16 -0.16)">
       <defs>
        <path id="DejaVuSans-31" d="M 794 531 
L 1825 531 
L 1825 4091 
L 703 3866 
L 703 4441 
L 1819 4666 
L 2450 4666 
L 2450 531 
L 3481 531 
L 3481 0 
L 794 0 
L 794 531 
z
" transform="scale(0.015625)"/>
       </defs>
       <use xlink:href="#DejaVuSans-31"/>
      </g>
     </g>
    </g>
    <g id="ytick_2">
     <g id="line2d_3">
      <path d="M 47.300625 199.496921 
L 694.8 199.496921 
" clip-path="url(#p33b1527c19)" style="fill: none; stroke: #b0b0b0; stroke-opacity: 0.3; stroke-width: 0.8; stroke-linecap: square"/>
     </g>
     <g id="line2d_4">
      <g>
       <use xlink:href="#m08b9ba7116" x="47.300625" y="199.496921" style="stroke: #000000; stroke-width: 0.8"/>
      </g>
     </g>
     <g id="text_2">
      <!-- 2 -->
      <g transform="translate(28.620625 205.575671) scale(0.16 -0.16)">
       <defs>
        <path id="DejaVuSans-32" d="M 1228 531 
L 3431 531 
L 3431 0 
L 469 0 
L 469 531 
Q 828 903 1448 1529 
Q 2069 2156 2228 2338 
Q 2531 2678 2651 2914 
Q 2772 3150 2772 3378 
Q 2772 3750 2511 3984 
Q 2250 4219 1831 4219 
Q 1534 4219 1204 4116 
Q 875 4013 500 3803 
L 500 4441 
Q 881 4594 1212 4672 
Q 1544 4750 1819 4750 
Q 2544 4750 2975 4387 
Q 3406 4025 3406 3419 
Q 3406 3131 3298 2873 
Q 3191 2616 2906 2266 
Q 2828 2175 2409 1742 
Q 1991 1309 1228 531 
z
" transform="scale(0.015625)"/>
       </defs>
       <use xlink:href="#DejaVuSans-32"/>
      </g>
     </g>
    </g>
    <g id="ytick_3">
     <g id="line2d_5">
      <path d="M 47.300625 86.339137 
L 694.8 86.339137 
" clip-path="url(#p33b1527c19)" style="fill: none; stroke: #b0b0b0; stroke-opacity: 0.3; stroke-width: 0.8; stroke-linecap: square"/>
     </g>
     <g id="line2d_6">
      <g>
       <use xlink:href="#m08b9ba7116" x="47.300625" y="86.339137" style="stroke: #000000; stroke-width: 0.8"/>
      </g>
     </g>
     <g id="text_3">
      <!-- 3 -->
      <g transform="translate(28.620625 92.417887) scale(0.16 -0.16)">
       <defs>
        <path id="DejaVuSans-33" d="M 2597 2516 
Q 3050 2419 3304 2112 
Q 3559 1806 3559 1356 
Q 3559 666 3084 287 
Q 2609 -91 1734 -91 
Q 1441 -91 1130 -33 
Q 819 25 488 141 
L 488 750 
Q 750 597 1062 519 
Q 1375 441 1716 441 
Q 2309 441 2620 675 
Q 2931 909 2931 1356 
Q 2931 1769 2642 2001 
Q 2353 2234 1838 2234 
L 1294 2234 
L 1294 2753 
L 1863 2753 
Q 2328 2753 2575 2939 
Q 2822 3125 2822 3475 
Q 2822 3834 2567 4026 
Q 2313 4219 1838 4219 
Q 1578 4219 1281 4162 
Q 984 4106 628 3988 
L 628 4550 
Q 988 4650 1302 4700 
Q 1616 4750 1894 4750 
Q 2613 4750 3031 4423 
Q 3450 4097 3450 3541 
Q 3450 3153 3228 2886 
Q 3006 2619 2597 2516 
z
" transform="scale(0.015625)"/>
       </defs>
       <use xlink:href="#DejaVuSans-33"/>
      </g>
     </g>
    </g>
    <g id="text_4">
     <!-- Neurons -->
     <g transform="translate(20.877188 256.761456) rotate(-90) scale(0.18 -0.18)">
      <defs>
       <path id="DejaVuSans-4e" d="M 628 4666 
L 1478 4666 
L 3547 763 
L 3547 4666 
L 4159 4666 
L 4159 0 
L 3309 0 
L 1241 3903 
L 1241 0 
L 628 0 
L 628 4666 
z
" transform="scale(0.015625)"/>
       <path id="DejaVuSans-65" d="M 3597 1894 
L 3597 1613 
L 953 1613 
Q 991 1019 1311 708 
Q 1631 397 2203 397 
Q 2534 397 2845 478 
Q 3156 559 3463 722 
L 3463 178 
Q 3153 47 2828 -22 
Q 2503 -91 2169 -91 
Q 1331 -91 842 396 
Q 353 884 353 1716 
Q 353 2575 817 3079 
Q 1281 3584 2069 3584 
Q 2775 3584 3186 3129 
Q 3597 2675 3597 1894 
z
M 3022 2063 
Q 3016 2534 2758 2815 
Q 2500 3097 2075 3097 
Q 1594 3097 1305 2825 
Q 1016 2553 972 2059 
L 3022 2063 
z
" transform="scale(0.015625)"/>
       <path id="DejaVuSans-75" d="M 544 1381 
L 544 3500 
L 1119 3500 
L 1119 1403 
Q 1119 906 1312 657 
Q 1506 409 1894 409 
Q 2359 409 2629 706 
Q 2900 1003 2900 1516 
L 2900 3500 
L 3475 3500 
L 3475 0 
L 2900 0 
L 2900 538 
Q 2691 219 2414 64 
Q 2138 -91 1772 -91 
Q 1169 -91 856 284 
Q 544 659 544 1381 
z
M 1991 3584 
L 1991 3584 
z
" transform="scale(0.015625)"/>
       <path id="DejaVuSans-72" d="M 2631 2963 
Q 2534 3019 2420 3045 
Q 2306 3072 2169 3072 
Q 1681 3072 1420 2755 
Q 1159 2438 1159 1844 
L 1159 0 
L 581 0 
L 581 3500 
L 1159 3500 
L 1159 2956 
Q 1341 3275 1631 3429 
Q 1922 3584 2338 3584 
Q 2397 3584 2469 3576 
Q 2541 3569 2628 3553 
L 2631 2963 
z
" transform="scale(0.015625)"/>
       <path id="DejaVuSans-6f" d="M 1959 3097 
Q 1497 3097 1228 2736 
Q 959 2375 959 1747 
Q 959 1119 1226 758 
Q 1494 397 1959 397 
Q 2419 397 2687 759 
Q 2956 1122 2956 1747 
Q 2956 2369 2687 2733 
Q 2419 3097 1959 3097 
z
M 1959 3584 
Q 2709 3584 3137 3096 
Q 3566 2609 3566 1747 
Q 3566 888 3137 398 
Q 2709 -91 1959 -91 
Q 1206 -91 779 398 
Q 353 888 353 1747 
Q 353 2609 779 3096 
Q 1206 3584 1959 3584 
z
" transform="scale(0.015625)"/>
       <path id="DejaVuSans-6e" d="M 3513 2113 
L 3513 0 
L 2938 0 
L 2938 2094 
Q 2938 2591 2744 2837 
Q 2550 3084 2163 3084 
Q 1697 3084 1428 2787 
Q 1159 2491 1159 1978 
L 1159 0 
L 581 0 
L 581 3500 
L 1159 3500 
L 1159 2956 
Q 1366 3272 1645 3428 
Q 1925 3584 2291 3584 
Q 2894 3584 3203 3211 
Q 3513 2838 3513 2113 
z
" transform="scale(0.015625)"/>
       <path id="DejaVuSans-73" d="M 2834 3397 
L 2834 2853 
Q 2591 2978 2328 3040 
Q 2066 3103 1784 3103 
Q 1356 3103 1142 2972 
Q 928 2841 928 2578 
Q 928 2378 1081 2264 
Q 1234 2150 1697 2047 
L 1894 2003 
Q 2506 1872 2764 1633 
Q 3022 1394 3022 966 
Q 3022 478 2636 193 
Q 2250 -91 1575 -91 
Q 1294 -91 989 -36 
Q 684 19 347 128 
L 347 722 
Q 666 556 975 473 
Q 1284 391 1588 391 
Q 1994 391 2212 530 
Q 2431 669 2431 922 
Q 2431 1156 2273 1281 
Q 2116 1406 1581 1522 
L 1381 1569 
Q 847 1681 609 1914 
Q 372 2147 372 2553 
Q 372 3047 722 3315 
Q 1072 3584 1716 3584 
Q 2034 3584 2315 3537 
Q 2597 3491 2834 3397 
z
" transform="scale(0.015625)"/>
      </defs>
      <use xlink:href="#DejaVuSans-4e"/>
      <use xlink:href="#DejaVuSans-65" x="74.804688"/>
      <use xlink:href="#DejaVuSans-75" x="136.328125"/>
      <use xlink:href="#DejaVuSans-72" x="199.707031"/>
      <use xlink:href="#DejaVuSans-6f" x="238.570312"/>
      <use xlink:href="#DejaVuSans-6e" x="299.751953"/>
      <use xlink:href="#DejaVuSans-73" x="363.130859"/>
     </g>
    </g>
   </g>
   <g id="line2d_7">
    <path d="M 76.732415 349.070079 
L 78.145211 348.601098 
L 80.794205 347.811823 
L 82.707367 347.245171 
L 83.884697 346.921222 
L 85.62126 346.66443 
L 86.680857 346.870906 
L 87.917054 347.090771 
L 88.535153 347.216425 
L 89.241551 348.392396 
L 90.036249 349.321158 
L 91.12528 350.203733 
L 91.507912 350.552813 
L 92.332043 351.900883 
L 93.185608 352.879961 
L 94.127472 353.635937 
L 95.834601 354.613559 
L 97.777197 355.422994 
L 99.278293 355.768688 
L 101.897853 356.368234 
L 103.869882 356.810472 
L 105.783044 356.676387 
L 106.283409 356.476898 
L 107.401873 355.684521 
L 109.167869 354.611347 
L 109.992 352.64252 
L 110.727832 351.464202 
L 111.493097 350.636516 
L 112.317228 349.80655 
L 113.082493 348.911591 
L 113.936057 348.252591 
L 115.113388 347.679626 
L 117.909548 346.411927 
L 119.263478 346.215541 
L 121.353239 346.159074 
L 123.089802 346.246695 
L 124.561465 346.29556 
L 126.857259 346.58004 
L 127.651957 347.415213 
L 128.358355 347.851819 
L 129.30022 348.182891 
L 129.712285 348.348123 
L 130.56585 350.244768 
L 131.360548 351.479162 
L 132.243546 352.41707 
L 134.80424 354.649596 
L 135.834404 355.247145 
L 137.747566 355.934555 
L 138.924896 356.095673 
L 140.632025 356.313662 
L 143.751951 356.777922 
L 144.693815 356.745231 
L 147.342809 355.890147 
L 148.16694 354.200309 
L 149.108805 352.734841 
L 149.844636 351.988571 
L 150.403868 351.395945 
L 151.110266 350.093713 
L 151.846098 349.179978 
L 152.670229 348.509916 
L 153.788693 347.922382 
L 157.173518 346.466398 
L 158.762914 346.124184 
L 159.616479 346.101198 
L 165.061632 346.454095 
L 166.091796 347.00661 
L 167.033661 347.244928 
L 168.034392 347.440175 
L 168.82909 349.013761 
L 169.741521 350.330156 
L 170.565652 351.157883 
L 171.095451 351.723941 
L 172.066749 353.005346 
L 172.949746 353.815934 
L 174.598009 354.979406 
L 176.216838 355.795896 
L 177.04097 356.023679 
L 178.836399 356.258598 
L 182.015191 356.770604 
L 183.604587 356.805488 
L 184.664184 356.611469 
L 185.694349 356.235707 
L 186.60678 354.993456 
L 187.725244 353.887192 
L 188.696541 352.844807 
L 189.432373 351.186467 
L 190.168204 350.047653 
L 190.933469 349.27951 
L 192.611165 348.089159 
L 195.260159 346.858192 
L 197.585386 346.158211 
L 200.734745 346.210597 
L 202.265275 346.264744 
L 203.589772 346.376207 
L 204.973135 346.707555 
L 206.032732 346.756536 
L 206.238765 346.801968 
L 207.00403 348.154435 
L 207.769295 349.093146 
L 208.799459 349.985926 
L 209.240958 350.406399 
L 210.006223 351.758312 
L 210.97752 352.969511 
L 211.860518 353.75223 
L 214.068013 355.218655 
L 215.30421 355.760959 
L 216.717006 355.989632 
L 219.424866 356.446439 
L 221.89726 356.839664 
L 223.457223 356.737784 
L 223.987022 356.511425 
L 224.899453 355.717806 
L 226.253383 354.910327 
L 226.842048 354.509103 
L 227.607313 352.555742 
L 228.343144 351.284421 
L 229.108409 350.387608 
L 231.934002 347.950468 
L 235.70146 346.276554 
L 237.438022 346.109123 
L 239.145151 346.104961 
L 240.616814 346.162271 
L 242.029611 346.213376 
L 244.148806 346.440505 
L 244.531438 346.523809 
L 245.296703 347.468975 
L 246.091401 348.07542 
L 246.974399 348.485365 
L 247.445331 348.71559 
L 248.240029 350.478621 
L 249.034727 351.71145 
L 250.035458 352.795342 
L 251.86032 354.342171 
L 253.243684 355.227073 
L 254.008948 355.51856 
L 255.657211 355.99028 
L 257.334907 356.17611 
L 259.100903 356.4868 
L 260.307666 356.681978 
L 261.897062 356.798001 
L 262.397428 356.704209 
L 265.134721 355.612534 
L 265.988286 353.840532 
L 266.84185 352.512953 
L 267.607115 351.744688 
L 268.136914 351.18758 
L 268.843312 349.945113 
L 269.608577 349.042763 
L 270.462142 348.391519 
L 271.757205 347.753022 
L 274.200166 346.64433 
L 276.083894 346.196689 
L 277.231792 346.120636 
L 282.941844 346.581834 
L 283.854275 347.055914 
L 284.737273 347.245185 
L 285.767437 347.387492 
L 286.562136 348.925978 
L 287.445133 350.170421 
L 288.269265 350.962299 
L 288.828497 351.518227 
L 289.799794 352.753754 
L 290.800525 353.652718 
L 292.331055 354.769018 
L 293.920451 355.597763 
L 294.774015 355.850104 
L 296.657744 356.168927 
L 299.247871 356.641078 
L 300.601801 356.753324 
L 301.926298 356.6078 
L 303.397961 356.165615 
L 304.280959 354.854966 
L 305.428856 353.622178 
L 306.223554 352.992261 
L 306.341287 352.796927 
L 307.106552 351.069716 
L 307.842384 349.94282 
L 308.607648 349.179607 
L 310.049878 348.181137 
L 312.404539 347.024389 
L 314.876933 346.16851 
L 315.583331 346.117992 
L 319.910021 346.262734 
L 321.263951 346.387822 
L 322.588448 346.787878 
L 323.618612 346.880645 
L 323.971811 346.915394 
L 324.766509 348.374677 
L 325.561207 349.379662 
L 326.591371 350.315595 
L 326.974003 350.694277 
L 327.739268 351.976545 
L 328.739999 353.181929 
L 329.622997 353.918474 
L 331.801058 355.337713 
L 333.007822 355.852323 
L 334.626651 356.069948 
L 339.836339 356.858488 
L 340.895936 356.777308 
L 341.661201 356.533089 
L 342.514766 355.682376 
L 343.750963 354.819597 
L 344.575094 354.230553 
L 345.310925 352.340315 
L 346.046757 351.042798 
L 346.782588 350.161646 
L 349.137249 348.096356 
L 351.020978 347.16271 
L 353.522805 346.204932 
L 356.201232 346.015931 
L 357.113663 346.117844 
L 358.673626 346.138847 
L 359.733223 346.225307 
L 361.440353 346.460314 
L 362.293917 346.613864 
L 363.029749 347.601198 
L 363.883313 348.338957 
L 364.884044 348.869329 
L 365.20781 349.135341 
L 366.002508 350.82147 
L 366.767773 351.952615 
L 367.82737 353.090592 
L 369.505066 354.432314 
L 370.858996 355.266516 
L 371.653694 355.563379 
L 373.24309 355.971853 
L 378.74711 356.755779 
L 379.983307 356.722528 
L 382.602868 355.668003 
L 382.838334 355.521595 
L 383.721332 353.586836 
L 384.51603 352.316452 
L 385.281294 351.517836 
L 385.899393 350.871097 
L 386.605791 349.72475 
L 387.371056 348.889064 
L 388.224621 348.283441 
L 390.520415 347.16785 
L 392.109811 346.544596 
L 393.434308 346.26007 
L 394.876538 346.142556 
L 400.292258 346.449866 
L 400.58659 346.542991 
L 401.440155 347.054262 
L 402.323153 347.30091 
L 403.29445 347.292276 
L 403.441617 347.351778 
L 404.236315 348.975599 
L 405.119313 350.290417 
L 405.972877 351.157182 
L 406.590976 351.794006 
L 407.53284 352.960318 
L 408.710171 353.992578 
L 409.887501 354.8124 
L 411.59463 355.641631 
L 412.477628 355.878223 
L 414.155324 356.142737 
L 417.422416 356.713638 
L 418.894079 356.717941 
L 420.100843 356.439317 
L 421.16044 356.04819 
L 422.043438 354.667233 
L 423.250202 353.290769 
L 424.192066 352.253524 
L 424.927898 350.720353 
L 425.634296 349.721998 
L 426.428994 348.987213 
L 427.93009 348.040597 
L 431.638681 346.392718 
L 432.904311 346.07664 
L 438.732097 346.284236 
L 439.879994 346.74366 
L 440.880725 346.947756 
L 441.763723 347.126842 
L 442.558421 348.587804 
L 443.411986 349.673436 
L 444.35385 350.543438 
L 444.736483 350.955325 
L 445.501747 352.167475 
L 446.502478 353.333288 
L 447.444343 354.081858 
L 449.534104 355.435478 
L 450.711435 355.929853 
L 456.833553 356.847366 
L 458.717282 356.730898 
L 459.42368 356.455194 
L 460.277245 355.545168 
L 461.395708 354.686166 
L 462.30814 353.990251 
L 463.014538 352.177457 
L 463.779803 350.817099 
L 464.515634 349.945343 
L 466.605396 348.153781 
L 468.253658 347.292533 
L 471.049818 346.220154 
L 471.69735 346.15444 
L 474.287477 346.079284 
L 475.67084 346.179747 
L 477.466269 346.27188 
L 479.026232 346.506994 
L 480.026963 346.675538 
L 480.733361 347.695328 
L 481.557493 348.493931 
L 482.558223 349.112989 
L 482.940856 349.421601 
L 483.706121 350.996482 
L 484.500819 352.136314 
L 485.530983 353.228421 
L 487.208679 354.526633 
L 488.533176 355.318417 
L 489.327874 355.609917 
L 490.82897 355.961938 
L 497.068821 356.806567 
L 497.716353 356.69741 
L 499.511782 355.811483 
L 500.571379 355.346799 
L 501.483811 353.257126 
L 502.219642 352.073602 
L 503.01434 351.228541 
L 503.661872 350.552894 
L 504.397703 349.466447 
L 505.192401 348.686048 
L 506.045966 348.149208 
L 509.78399 346.520565 
L 511.049621 346.273289 
L 512.609583 346.162925 
L 517.642671 346.439082 
L 518.319636 346.556089 
L 519.084901 347.098123 
L 519.909032 347.407921 
L 520.850897 347.470634 
L 521.174662 347.52814 
L 521.998794 349.239116 
L 522.822925 350.479148 
L 523.647056 351.319433 
L 524.324021 351.995747 
L 525.236453 353.065428 
L 526.678682 354.301042 
L 527.56168 354.862419 
L 529.357109 355.675112 
L 530.26954 355.877939 
L 531.80007 356.118429 
L 535.361494 356.727263 
L 536.421092 356.711305 
L 537.657289 356.398477 
L 538.893486 355.936241 
L 539.717617 354.512678 
L 540.865514 353.043251 
L 541.601346 352.425542 
L 541.807379 352.182812 
L 542.54321 350.638148 
L 543.249609 349.633628 
L 544.044307 348.889873 
L 545.25107 348.136433 
L 547.95893 346.846018 
L 550.431324 346.07693 
L 551.049423 346.063292 
L 556.465143 346.319093 
L 557.61304 346.847407 
L 558.554904 347.067259 
L 559.349603 347.058598 
L 559.437902 347.12154 
L 560.203167 348.618735 
L 561.056732 349.798537 
L 561.969163 350.713756 
L 562.498962 351.260632 
L 563.323093 352.477489 
L 564.264957 353.506884 
L 565.589454 354.518674 
L 566.884517 355.338489 
L 568.267881 355.987487 
L 575.037531 356.859904 
L 576.038262 356.781666 
L 577.097859 356.488189 
L 577.921991 355.486954 
L 578.922721 354.601175 
L 580.070619 353.610132 
L 580.80645 351.795125 
L 581.571715 350.48971 
L 582.307546 349.668256 
L 584.250142 348.112685 
L 586.22217 347.128757 
L 588.93003 346.19671 
L 591.843923 346.105683 
L 593.197853 346.227027 
L 595.199315 346.33615 
L 596.700411 346.585577 
L 597.760009 346.762262 
L 598.466407 347.853276 
L 599.261105 348.698647 
L 600.291269 349.426167 
L 600.673902 349.747 
L 601.439166 351.25146 
L 602.263298 352.381242 
L 603.234595 353.376238 
L 605.059458 354.731025 
L 606.442821 355.496943 
L 607.119786 355.702563 
L 608.473716 355.96987 
L 612.094007 356.592098 
L 613.065305 356.76301 
L 614.860734 356.798433 
L 615.478832 356.623974 
L 616.773896 355.820022 
L 618.333858 355.011228 
L 619.187423 352.965174 
L 619.893821 351.805195 
L 620.688519 350.926606 
L 621.483217 350.095197 
L 622.248482 349.116105 
L 623.072614 348.420373 
L 623.955611 347.960423 
L 628.076268 346.34071 
L 630.107163 346.149368 
L 635.081384 346.42141 
L 636.023249 346.544009 
L 636.788513 347.225976 
L 637.524345 347.619942 
L 638.525076 347.840029 
L 638.907708 347.950737 
L 639.761273 349.819486 
L 640.555971 351.066182 
L 641.350669 351.914156 
L 642.2631 352.875091 
L 643.146098 353.731119 
L 644.79436 354.977761 
L 646.766389 355.79823 
L 647.825986 356.033088 
L 649.091617 356.154109 
L 652.064376 356.691246 
L 653.624339 356.82579 
L 654.831103 356.524071 
L 656.626532 355.826032 
L 657.450663 354.278723 
L 658.480827 352.816034 
L 659.216659 352.143463 
L 659.569858 351.748863 
L 660.305689 350.306024 
L 661.041521 349.3432 
L 661.836219 348.660661 
L 662.984116 348.009511 
L 665.36821 346.854894 
L 665.36821 346.854894 
" clip-path="url(#p33b1527c19)" style="fill: none; stroke: #1f77b4; stroke-width: 3; stroke-linecap: square"/>
   </g>
   <g id="line2d_8">
    <path d="M 76.732415 312.654704 
L 665.36821 312.654704 
L 665.36821 312.654704 
" clip-path="url(#p33b1527c19)" style="fill: none; stroke-dasharray: 2.96,1.28; stroke-dashoffset: 0; stroke: #808080; stroke-opacity: 0.7; stroke-width: 0.8"/>
   </g>
   <g id="line2d_9">
    <path d="M 76.732415 246.809701 
L 77.615413 244.835775 
L 78.49841 243.403734 
L 79.528575 242.145518 
L 81.500603 240.301671 
L 82.7368 239.31234 
L 83.531498 237.865852 
L 84.414496 236.712126 
L 85.680126 235.1564 
L 86.445391 233.25699 
L 87.298956 231.754534 
L 88.387986 230.298657 
L 88.564586 230.232599 
L 90.183415 230.763301 
L 91.478479 231.247735 
L 92.273177 233.777467 
L 93.067875 235.592406 
L 93.921439 237.002743 
L 94.568971 238.060397 
L 95.393103 239.669366 
L 96.2761 240.861578 
L 97.159098 241.713167 
L 97.512297 242.12867 
L 98.336429 243.083049 
L 99.366593 243.912718 
L 100.367324 244.715867 
L 101.309188 246.262258 
L 102.368785 247.563276 
L 103.369516 248.804967 
L 104.075915 250.19743 
L 104.841179 251.215372 
L 105.547578 251.804214 
L 106.283409 252.378136 
L 106.960374 253.409635 
L 107.755072 254.241867 
L 108.490904 254.692603 
L 109.079569 254.929249 
L 109.844834 253.276736 
L 110.521799 252.331071 
L 111.228197 251.725759 
L 111.905162 251.439297 
L 112.052328 251.310783 
L 112.758727 249.291532 
L 113.465125 247.937136 
L 114.171523 247.042731 
L 115.613753 245.431119 
L 116.526184 244.438551 
L 117.438615 243.757724 
L 118.086147 243.241402 
L 118.910278 242.298151 
L 119.763843 241.651777 
L 120.970607 240.819113 
L 121.824171 239.327745 
L 122.883769 237.926191 
L 123.913933 236.649953 
L 124.855797 233.889511 
L 125.738795 231.951386 
L 126.680659 230.401487 
L 129.241353 226.912627 
L 129.682852 226.512638 
L 130.624716 229.809583 
L 131.419415 231.815803 
L 132.243546 233.289904 
L 132.743911 234.249113 
L 133.568043 236.590195 
L 134.421607 238.37423 
L 135.363472 239.822809 
L 135.952137 240.764697 
L 136.805701 241.967794 
L 137.600399 242.753623 
L 138.836596 243.855901 
L 139.866761 245.156379 
L 141.014658 246.230099 
L 141.544456 246.795685 
L 142.427454 248.680244 
L 143.163286 249.77517 
L 144.01685 250.607429 
L 144.487783 251.112299 
L 145.194181 252.662494 
L 145.841713 253.578266 
L 146.636411 254.283495 
L 147.342809 254.662117 
L 148.284673 253.93142 
L 149.197104 253.460045 
L 150.021236 253.308099 
L 150.315568 253.185022 
L 150.992533 251.039294 
L 151.669498 249.597567 
L 152.346463 248.656839 
L 153.052862 248.048263 
L 153.317761 247.772457 
L 154.112459 246.533639 
L 155.11319 245.381383 
L 156.084488 244.61154 
L 156.319954 244.33939 
L 157.202952 243.271375 
L 158.085949 242.551875 
L 158.99838 242.094393 
L 159.204413 241.898634 
L 160.146278 240.525542 
L 161.088142 239.52136 
L 162.177173 238.37659 
L 163.030737 236.280652 
L 164.060901 234.352172 
L 165.267665 232.212393 
L 166.150663 229.99706 
L 167.151394 228.065491 
L 167.946092 226.798615 
L 168.91739 228.803445 
L 169.859254 230.262559 
L 170.653952 231.101482 
L 170.918851 231.40196 
L 171.772416 234.315696 
L 172.596547 236.384467 
L 173.479545 238.002784 
L 174.274243 239.429429 
L 175.157241 240.878426 
L 176.040239 241.907159 
L 177.541335 243.510678 
L 178.748099 244.753368 
L 179.866563 245.85346 
L 180.778994 247.550097 
L 181.661992 248.761828 
L 182.427257 249.445474 
L 182.721589 249.780188 
L 183.486854 251.620258 
L 184.163819 252.720283 
L 184.781918 253.344521 
L 185.576616 253.810946 
L 186.989412 254.343334 
L 188.166743 254.521233 
L 188.578808 254.474938 
L 189.285207 252.23129 
L 189.962172 250.784775 
L 190.609703 249.896858 
L 191.286668 249.330166 
L 191.551568 249.064734 
L 192.257966 247.597242 
L 193.023231 246.522564 
L 194.112261 245.417211 
L 194.671493 244.818832 
L 195.525058 243.819843 
L 196.496356 243.036969 
L 197.673686 242.164107 
L 198.527251 241.201135 
L 199.675148 240.255078 
L 200.381546 239.709295 
L 201.264544 237.732091 
L 202.147542 236.278426 
L 203.413172 234.335256 
L 204.29617 231.677671 
L 205.179168 229.689999 
L 206.179899 227.948213 
L 206.209332 227.902187 
L 206.297632 227.960327 
L 207.445529 228.55907 
L 208.976058 229.088828 
L 209.152658 229.124359 
L 209.976789 232.197501 
L 210.830354 234.491977 
L 211.683918 236.178213 
L 212.390317 237.555446 
L 213.243881 239.289719 
L 214.156312 240.657145 
L 216.098908 242.928824 
L 217.305671 243.928582 
L 218.100369 244.653573 
L 219.012801 246.265226 
L 220.042965 247.620903 
L 221.102562 248.975892 
L 221.838394 250.538875 
L 222.603658 251.678708 
L 223.280623 252.315464 
L 224.134188 253.033346 
L 224.928886 253.982087 
L 225.635284 254.521894 
L 226.606582 254.961718 
L 226.842048 254.928993 
L 227.548446 253.157692 
L 228.225411 252.039712 
L 228.902376 251.329358 
L 229.549908 250.96034 
L 229.785374 250.79504 
L 230.462339 248.975501 
L 231.168738 247.690819 
L 231.904569 246.810335 
L 233.111333 245.505553 
L 233.994331 244.450111 
L 234.877328 243.713236 
L 235.936926 242.850275 
L 236.761057 241.958878 
L 237.702922 241.27878 
L 238.674219 240.58244 
L 239.58665 238.850974 
L 240.528515 237.506264 
L 241.646979 236.053179 
L 242.55941 233.315655 
L 243.501274 231.202734 
L 244.443138 229.643096 
L 245.208403 228.714833 
L 246.474033 227.453137 
L 247.415898 226.773254 
L 248.298896 230.102089 
L 249.093594 232.270182 
L 249.976592 233.998182 
L 250.50639 235.066277 
L 251.330522 237.244932 
L 252.184086 238.909936 
L 253.125951 240.265897 
L 253.655749 241.075804 
L 254.538747 242.265453 
L 255.333445 242.98923 
L 256.481342 243.956586 
L 257.45264 245.246947 
L 258.541671 246.326252 
L 259.277502 247.071707 
L 260.1605 248.947699 
L 260.866898 249.98029 
L 261.720463 250.807639 
L 262.220828 251.30795 
L 262.927227 252.810028 
L 263.574758 253.692981 
L 264.39889 254.415827 
L 265.075855 254.756382 
L 265.988286 253.871257 
L 266.812417 253.340299 
L 267.577682 253.121055 
L 268.048614 252.967005 
L 268.725579 250.827658 
L 269.402544 249.38349 
L 270.079509 248.438175 
L 270.785907 247.820884 
L 271.08024 247.497798 
L 271.933805 246.231678 
L 272.875669 245.195889 
L 273.846967 244.459878 
L 274.052999 244.209621 
L 274.935997 243.15194 
L 275.818995 242.444755 
L 276.731426 241.997174 
L 276.937459 241.800754 
L 277.879323 240.416358 
L 278.850621 239.383848 
L 279.880785 238.33712 
L 280.73435 236.164805 
L 281.764514 234.159286 
L 283.089011 231.727744 
L 284.030875 229.506515 
L 285.090472 227.556075 
L 285.679138 226.650001 
L 285.708571 226.723384 
L 286.679869 228.833472 
L 287.562866 230.263166 
L 288.357564 231.137742 
L 288.651897 231.465225 
L 289.505462 234.309464 
L 290.329593 236.331912 
L 291.212591 237.931681 
L 292.007289 239.354859 
L 292.890287 240.780102 
L 293.773285 241.790165 
L 294.980048 243.059456 
L 296.069079 244.355645 
L 297.246409 245.413798 
L 297.540742 245.775599 
L 298.453173 247.577845 
L 299.306738 248.817769 
L 300.072003 249.545714 
L 300.454635 249.952677 
L 301.190466 251.718717 
L 301.867431 252.816692 
L 302.514963 253.456915 
L 303.368528 253.960261 
L 304.280959 254.171492 
L 306.282421 254.394662 
L 306.988819 252.100388 
L 307.636351 250.678559 
L 308.283882 249.749782 
L 308.960848 249.149893 
L 309.284613 248.850831 
L 309.991012 247.450936 
L 310.78571 246.376217 
L 311.845307 245.317456 
L 312.375106 244.760504 
L 313.199237 243.771403 
L 314.141102 242.982485 
L 315.082966 242.488191 
L 315.200699 242.340562 
L 316.054264 241.257507 
L 317.143294 240.248415 
L 318.144025 239.398821 
L 318.99759 237.434365 
L 319.910021 235.886598 
L 321.175651 233.845413 
L 322.058649 231.274336 
L 322.97108 229.290806 
L 323.942378 227.637929 
L 325.001975 228.588895 
L 326.238172 229.374804 
L 326.915137 229.771624 
L 327.709835 232.675702 
L 328.5634 234.955906 
L 329.387531 236.572267 
L 330.182229 238.100542 
L 331.035794 239.735478 
L 331.948225 241.026581 
L 334.096853 243.383311 
L 335.597949 244.562748 
L 335.803982 244.828153 
L 336.716413 246.462428 
L 337.746577 247.843061 
L 338.629575 248.705118 
L 338.717875 248.89188 
L 339.48314 250.667821 
L 340.218971 251.869718 
L 340.895936 252.578724 
L 341.543468 252.945907 
L 341.720067 253.130551 
L 342.514766 254.009834 
L 343.250597 254.51836 
L 344.251328 254.924824 
L 344.575094 254.895728 
L 345.281492 252.973938 
L 345.958457 251.748016 
L 346.605989 250.99405 
L 347.253521 250.563777 
L 347.51842 250.374763 
L 348.195385 248.634191 
L 348.901783 247.401456 
L 349.667048 246.516103 
L 350.785512 245.304115 
L 351.697943 244.205264 
L 352.610374 243.450839 
L 353.669972 242.604807 
L 354.494103 241.724485 
L 355.5537 240.949367 
L 356.436698 240.247673 
L 357.378563 238.420269 
L 358.26156 237.151734 
L 359.380024 235.645932 
L 360.263022 232.909825 
L 361.175453 230.778841 
L 362.146751 229.099754 
L 362.470517 228.798737 
L 364.207079 227.591255 
L 365.148944 227.149786 
L 366.002508 230.475585 
L 366.797206 232.714403 
L 367.709637 234.585121 
L 368.298303 235.811812 
L 369.151867 237.88985 
L 370.034865 239.465662 
L 370.947296 240.667033 
L 371.329928 241.250924 
L 372.212926 242.419368 
L 373.037058 243.14135 
L 374.155522 244.054762 
L 375.126819 245.40878 
L 376.186417 246.507726 
L 377.010548 247.356091 
L 377.864113 249.202245 
L 378.570511 250.237858 
L 379.394642 251.050099 
L 379.953874 251.564735 
L 380.630839 252.940727 
L 381.278371 253.78966 
L 382.102502 254.505586 
L 382.8089 254.841352 
L 383.691898 253.755248 
L 384.42773 253.156235 
L 385.163561 252.847704 
L 385.78166 252.641477 
L 386.458625 250.530485 
L 387.13559 249.099968 
L 387.812555 248.159308 
L 388.518953 247.539076 
L 388.813286 247.225567 
L 389.725717 245.932266 
L 390.638148 244.985467 
L 391.580012 244.31086 
L 391.756612 244.104134 
L 392.610177 243.066255 
L 393.493174 242.347307 
L 394.435039 241.877118 
L 394.670505 241.666359 
L 395.612369 240.267502 
L 396.6131 239.200607 
L 397.613831 238.162108 
L 398.467396 235.89252 
L 399.468126 233.841367 
L 400.409991 232.400247 
L 400.58659 231.992677 
L 401.528455 229.737023 
L 402.558619 227.822114 
L 403.412183 226.534815 
L 404.383481 228.902228 
L 405.237046 230.447742 
L 406.031744 231.442293 
L 406.414376 231.96849 
L 407.267941 234.747116 
L 408.092072 236.711559 
L 408.97507 238.269943 
L 409.799201 239.713706 
L 410.652766 241.004674 
L 411.565197 241.977736 
L 412.565928 242.960227 
L 413.625525 244.301039 
L 414.743989 245.368649 
L 415.273788 245.927274 
L 416.186219 247.775627 
L 417.01035 248.995749 
L 417.775615 249.737224 
L 418.187681 250.16894 
L 418.923512 251.909728 
L 419.600477 252.978403 
L 420.248009 253.595964 
L 421.101574 254.088572 
L 422.396637 254.156195 
L 424.0449 254.09904 
L 424.751298 251.840042 
L 425.39883 250.45145 
L 426.075795 249.509292 
L 426.75276 248.93568 
L 427.017659 248.678733 
L 427.724057 247.330596 
L 428.548189 246.242631 
L 429.54892 245.254933 
L 430.108152 244.674117 
L 430.961716 243.646369 
L 431.874147 242.881516 
L 432.816012 242.387829 
L 432.933745 242.236828 
L 433.787309 241.117797 
L 434.846907 240.092355 
L 435.877071 239.176852 
L 436.730635 237.164913 
L 437.643066 235.570648 
L 438.93813 233.402501 
L 439.821128 230.909945 
L 440.792425 228.865388 
L 441.675423 227.387146 
L 441.704857 227.427129 
L 442.735021 228.639022 
L 443.853485 229.594858 
L 444.677616 230.275698 
L 445.472314 233.119681 
L 446.325879 235.376008 
L 447.15001 236.965134 
L 447.944708 238.483157 
L 448.827706 240.107773 
L 449.710704 241.302238 
L 452.153664 243.868554 
L 453.654761 245.289655 
L 454.567192 246.861649 
L 455.597356 248.199264 
L 456.568654 249.39443 
L 457.363352 251.187179 
L 458.06975 252.279312 
L 458.717282 252.907139 
L 460.071212 253.984569 
L 460.807043 254.462096 
L 461.837207 254.853384 
L 462.278706 254.946097 
L 462.955671 252.950871 
L 463.632636 251.595707 
L 464.280168 250.757499 
L 464.957133 250.246208 
L 465.280899 249.946985 
L 465.987297 248.245263 
L 466.693696 247.098092 
L 467.517827 246.195742 
L 468.518558 245.098914 
L 469.430989 244.028053 
L 470.372853 243.274586 
L 471.403017 242.468038 
L 472.227149 241.589199 
L 473.375046 240.731486 
L 474.140311 240.149132 
L 475.082175 238.263306 
L 475.965173 236.96423 
L 477.11307 235.381458 
L 477.996068 232.607715 
L 478.879066 230.516849 
L 479.879797 228.747464 
L 480.115263 228.57952 
L 482.52879 227.630887 
L 482.881989 227.543233 
L 483.735554 230.869099 
L 484.530252 233.099487 
L 485.41325 234.933581 
L 486.060782 236.266583 
L 486.914346 238.247685 
L 487.826777 239.79699 
L 488.739208 240.928661 
L 489.033541 241.389596 
L 489.887106 242.507548 
L 490.74067 243.245826 
L 491.888567 244.209189 
L 492.830432 245.578909 
L 493.860596 246.69821 
L 494.743594 247.637266 
L 495.567725 249.465195 
L 496.274123 250.516726 
L 497.039388 251.296781 
L 497.716353 251.918847 
L 498.393318 253.167769 
L 499.099716 254.004101 
L 499.864981 254.605569 
L 500.541946 254.901663 
L 501.395511 253.602304 
L 502.101909 252.903497 
L 502.837741 252.502185 
L 503.544139 252.142165 
L 504.221104 250.11246 
L 504.898069 248.73582 
L 505.604467 247.795389 
L 506.340299 247.181713 
L 506.546332 246.936691 
L 507.517629 245.62561 
L 508.459494 244.719374 
L 509.813424 243.50392 
L 510.637555 242.628535 
L 511.491119 242.029792 
L 512.462417 241.386952 
L 513.374848 240.027848 
L 514.463879 238.857975 
L 515.346877 237.906523 
L 516.229875 235.442066 
L 517.201172 233.354573 
L 518.143037 231.857162 
L 518.349069 231.403606 
L 519.3498 229.220431 
L 520.497697 227.277598 
L 521.145229 226.394929 
L 522.116527 229.038688 
L 522.940658 230.684644 
L 523.705923 231.747169 
L 524.147422 232.378772 
L 525.000986 235.089722 
L 525.854551 237.066103 
L 526.766982 238.627386 
L 527.56168 240.000559 
L 528.415245 241.23475 
L 529.298243 242.13644 
L 530.26954 243.062585 
L 531.329138 244.436649 
L 532.447602 245.520608 
L 533.006834 246.112444 
L 533.919265 248.024953 
L 534.713963 249.225946 
L 535.479228 249.982597 
L 535.920726 250.438622 
L 536.656558 252.15034 
L 537.30409 253.147116 
L 537.981055 253.780338 
L 538.805186 254.270343 
L 541.130414 253.868195 
L 541.777945 253.787043 
L 542.484344 251.545513 
L 543.161309 250.124601 
L 543.838274 249.20752 
L 544.515239 248.647613 
L 544.750705 248.416309 
L 545.486536 247.10141 
L 546.428401 245.916496 
L 547.370265 245.053144 
L 547.811764 244.592803 
L 548.665329 243.548233 
L 549.548326 242.797612 
L 550.460758 242.307432 
L 550.66679 242.116947 
L 551.549788 240.9055 
L 552.550519 239.884779 
L 553.610117 238.890916 
L 554.463681 236.844781 
L 555.434979 235.108688 
L 556.700609 232.91916 
L 557.554174 230.594144 
L 558.554904 228.541223 
L 559.408469 227.125963 
L 559.437902 227.177183 
L 560.438633 228.689324 
L 561.468797 229.841378 
L 562.292929 230.454636 
L 562.381228 230.611356 
L 563.175927 233.453342 
L 564.029491 235.721379 
L 564.883056 237.362318 
L 565.73662 238.964002 
L 566.619618 240.508235 
L 567.473183 241.596497 
L 570.445942 244.59198 
L 571.299507 245.385497 
L 572.211938 247.018491 
L 573.183235 248.326617 
L 573.9485 249.023739 
L 574.183966 249.315071 
L 574.978664 251.244603 
L 575.685063 252.418537 
L 576.332594 253.095681 
L 577.038993 253.497087 
L 577.303892 253.727662 
L 578.09859 254.276197 
L 579.158187 254.686763 
L 580.011752 254.854207 
L 580.688717 252.754748 
L 581.365682 251.318795 
L 582.013214 250.434318 
L 582.690179 249.880967 
L 583.013945 249.577981 
L 583.720343 247.968054 
L 584.426741 246.878942 
L 585.339172 245.904747 
L 586.281037 244.871616 
L 587.164035 243.877578 
L 588.135332 243.13184 
L 589.077197 242.439372 
L 589.901328 241.525961 
L 591.049225 240.620791 
L 591.873356 239.98943 
L 592.815221 238.051899 
L 593.727652 236.686401 
L 594.846116 235.096669 
L 595.69968 232.408125 
L 596.582678 230.311647 
L 597.612842 228.473466 
L 597.789442 228.376085 
L 600.644468 228.191158 
L 601.4686 231.340016 
L 602.263298 233.536923 
L 603.146296 235.352712 
L 603.823261 236.727288 
L 604.676825 238.615542 
L 605.589256 240.097387 
L 607.502418 242.54486 
L 608.355983 243.29888 
L 609.59218 244.340037 
L 610.534044 245.816243 
L 611.564208 247.016643 
L 612.506073 248.111339 
L 613.271337 249.798668 
L 614.036602 250.932916 
L 614.772434 251.656315 
L 615.478832 252.29183 
L 616.126364 253.351576 
L 616.950495 254.246817 
L 617.656893 254.710936 
L 618.274992 254.96737 
L 619.06969 253.451695 
L 619.746655 252.613041 
L 620.453053 252.090918 
L 621.130018 251.8543 
L 621.247751 251.735795 
L 621.924716 249.745938 
L 622.601681 248.393485 
L 623.30808 247.462146 
L 624.073344 246.81859 
L 624.308811 246.534125 
L 625.280108 245.279038 
L 626.251406 244.402466 
L 627.428736 243.41489 
L 628.252868 242.497701 
L 629.106432 241.869416 
L 630.195463 241.113763 
L 631.049027 239.75412 
L 632.167491 238.439613 
L 633.079922 237.415655 
L 633.992354 234.768996 
L 634.904785 232.744741 
L 635.846649 231.198121 
L 636.170415 230.561067 
L 637.171146 228.697526 
L 638.348476 226.977458 
L 638.878275 226.365765 
L 639.849573 229.416379 
L 640.644271 231.23291 
L 641.409535 232.462488 
L 641.909901 233.315453 
L 642.734032 235.822442 
L 643.587597 237.724941 
L 644.500028 239.227182 
L 645.235859 240.451458 
L 646.089424 241.670257 
L 646.913555 242.504284 
L 648.032019 243.5316 
L 649.091617 244.864292 
L 650.239514 245.935463 
L 650.739879 246.473881 
L 651.65231 248.41005 
L 652.417575 249.554145 
L 653.241707 250.356795 
L 653.653772 250.778057 
L 654.36017 252.395591 
L 655.007702 253.367736 
L 655.7141 254.018913 
L 656.538232 254.49644 
L 657.656696 253.930962 
L 658.716293 253.603734 
L 659.510991 253.461839 
L 660.187956 251.31031 
L 660.864921 249.871943 
L 661.541886 248.937069 
L 662.248285 248.339864 
L 662.513184 248.056437 
L 663.249015 246.838771 
L 664.249746 245.630682 
L 665.221044 244.80947 
L 665.36821 244.711699 
L 665.36821 244.711699 
" clip-path="url(#p33b1527c19)" style="fill: none; stroke: #ff7f0e; stroke-width: 3; stroke-linecap: square"/>
   </g>
   <g id="line2d_10">
    <path d="M 76.732415 199.496921 
L 665.36821 199.496921 
L 665.36821 199.496921 
" clip-path="url(#p33b1527c19)" style="fill: none; stroke-dasharray: 2.96,1.28; stroke-dashoffset: 0; stroke: #808080; stroke-opacity: 0.7; stroke-width: 0.8"/>
   </g>
   <g id="line2d_11">
    <path d="M 76.732415 136.873078 
L 77.556546 132.920748 
L 78.380677 130.0227 
L 79.263675 127.703754 
L 81.736069 122.371344 
L 82.707367 120.58453 
L 83.619798 117.174098 
L 84.620529 114.271706 
L 85.768426 111.058598 
L 87.034056 105.869985 
L 88.211387 100.809549 
L 88.800052 97.348397 
L 89.270984 93.114784 
L 89.653617 87.468124 
L 90.153982 75.784768 
L 90.624914 66.876869 
L 90.919247 64.59742 
L 91.12528 64.281174 
L 91.243013 64.466114 
L 91.449045 65.319026 
L 92.008277 69.865135 
L 94.215772 90.386217 
L 94.686704 97.860781 
L 95.510836 110.721037 
L 96.011201 115.299333 
L 96.482133 117.740709 
L 96.894199 118.852186 
L 97.276831 119.310073 
L 97.394564 119.50683 
L 97.80663 120.059142 
L 98.218696 120.257653 
L 98.660195 120.210305 
L 99.24886 119.900075 
L 100.249591 119.104331 
L 100.308457 119.25884 
L 101.073722 120.931668 
L 101.838987 122.084099 
L 102.869151 123.196764 
L 103.22235 123.661017 
L 103.987615 127.755445 
L 104.723446 130.537592 
L 105.429845 132.422339 
L 106.253976 134.437773 
L 106.989808 137.877773 
L 107.725639 140.331344 
L 108.373171 141.775013 
L 109.079569 142.843864 
L 110.109733 142.59617 
L 110.992731 142.663941 
L 111.964029 142.93856 
L 112.022895 142.960736 
L 112.052328 142.855357 
L 112.758727 140.769266 
L 113.435692 139.443927 
L 114.112657 138.596654 
L 114.936788 137.954825 
L 115.025088 137.779759 
L 115.878652 135.869867 
L 116.702784 134.56773 
L 117.644648 133.515741 
L 117.938981 133.148936 
L 118.704246 130.648287 
L 119.46951 128.855214 
L 120.293642 127.464181 
L 120.91174 126.429539 
L 121.735872 122.889177 
L 122.648303 119.943106 
L 123.6196 117.553826 
L 123.855066 116.855612 
L 124.88523 111.823639 
L 126.150861 106.78886 
L 127.092725 102.839821 
L 127.85799 98.413768 
L 128.328922 94.402758 
L 128.711554 89.255882 
L 129.12362 80.240364 
L 129.741719 67.046675 
L 130.036051 64.817056 
L 130.212651 64.519721 
L 130.330384 64.661037 
L 130.536417 65.410322 
L 130.919049 67.886205 
L 132.361279 79.796075 
L 132.949944 85.465344 
L 133.509176 93.09625 
L 134.80424 112.524146 
L 135.275172 115.963176 
L 135.834404 118.381242 
L 136.275903 119.49531 
L 136.658535 119.931991 
L 137.011734 120.039583 
L 137.394367 119.921415 
L 137.924165 119.502621 
L 138.512831 118.855802 
L 138.60113 118.979419 
L 139.278095 119.706609 
L 139.984494 120.136545 
L 140.808625 120.378222 
L 141.456157 120.45093 
L 142.309721 124.531411 
L 143.045553 127.074416 
L 143.781384 128.82346 
L 144.458349 130.326347 
L 145.194181 134.624871 
L 145.930012 137.69286 
L 146.695277 139.943927 
L 147.342809 141.226127 
L 148.07864 142.223322 
L 148.843905 142.892992 
L 150.286135 143.928335 
L 150.9631 142.320176 
L 151.640065 141.270534 
L 152.287597 140.655766 
L 152.964562 140.322117 
L 153.258895 140.172978 
L 153.994726 138.435374 
L 154.907157 136.853546 
L 155.760722 135.826081 
L 156.231654 135.252644 
L 157.085218 132.80374 
L 157.850483 131.224718 
L 158.645181 130.072125 
L 159.17498 129.288576 
L 159.999111 126.028956 
L 160.823243 123.616663 
L 161.735674 121.630152 
L 162.118306 120.709847 
L 163.030737 116.216238 
L 164.090335 112.103572 
L 165.620864 106.408808 
L 166.768762 100.776257 
L 167.357427 96.817317 
L 167.798926 92.266081 
L 168.210991 85.353894 
L 169.241155 65.425889 
L 169.476622 64.44963 
L 169.594355 64.423433 
L 169.741521 64.732909 
L 170.00642 66.000297 
L 170.536219 69.962178 
L 171.419217 78.198464 
L 172.449381 89.160161 
L 173.067479 98.845916 
L 173.832744 110.121215 
L 174.362543 115.223603 
L 174.833475 117.781312 
L 175.245541 118.969113 
L 175.628173 119.47664 
L 175.981372 119.59988 
L 176.334571 119.486812 
L 176.893803 119.239604 
L 177.394169 119.561732 
L 177.982834 119.65721 
L 178.748099 119.546894 
L 179.719397 119.212517 
L 179.74883 119.337699 
L 180.572961 122.325183 
L 181.397092 124.536105 
L 182.103491 125.858072 
L 182.692156 126.796722 
L 183.486854 131.768559 
L 184.222686 135.010886 
L 184.958517 137.302799 
L 186.901112 142.026376 
L 187.607511 143.055675 
L 188.549375 144.00447 
L 189.22634 142.816723 
L 189.873872 142.08233 
L 190.521403 141.670254 
L 191.227802 141.476114 
L 191.522134 141.36345 
L 192.199099 139.493109 
L 192.905498 138.164829 
L 193.876795 136.859481 
L 194.55376 135.950777 
L 195.348458 134.003952 
L 196.290323 132.3158 
L 197.085021 131.31642 
L 197.408787 130.912734 
L 198.203485 128.113536 
L 199.057049 125.921742 
L 199.881181 124.366084 
L 200.381546 123.380868 
L 201.264544 119.183461 
L 202.206408 115.751284 
L 203.707505 110.555899 
L 206.238765 98.293657 
L 206.709697 94.43373 
L 207.09233 89.492109 
L 207.504395 80.784421 
L 208.151927 67.017321 
L 208.44626 64.54875 
L 208.652293 64.147142 
L 208.770026 64.298602 
L 208.976058 65.067528 
L 209.270391 67.112341 
L 211.536752 88.205215 
L 212.125417 96.456879 
L 213.067282 111.019559 
L 213.567647 115.381942 
L 214.038579 117.684782 
L 214.450645 118.712705 
L 214.803844 119.095536 
L 215.21591 119.43307 
L 215.627975 119.770225 
L 216.040041 119.825532 
L 216.540407 119.653919 
L 217.423404 119.057064 
L 217.982636 118.609457 
L 218.01207 118.701374 
L 218.777334 120.720018 
L 219.542599 122.14356 
L 220.513897 123.456301 
L 220.955396 124.080107 
L 221.691227 128.379845 
L 222.456492 131.585265 
L 223.16289 133.688487 
L 224.075322 136.202275 
L 224.840586 139.274796 
L 225.517551 141.159381 
L 226.253383 142.530531 
L 226.812615 143.237972 
L 227.548446 142.742693 
L 228.254845 142.544209 
L 229.078976 142.53563 
L 229.785374 142.579632 
L 230.462339 140.64867 
L 231.139304 139.36218 
L 231.816269 138.536841 
L 232.846433 137.403214 
L 233.641131 135.568891 
L 234.465263 134.203919 
L 235.495427 132.960839 
L 235.672027 132.706158 
L 236.437291 130.209259 
L 237.231989 128.346607 
L 238.085554 126.895303 
L 238.644786 125.917641 
L 239.468917 122.205234 
L 240.381348 119.089115 
L 241.352646 116.545759 
L 241.617545 115.663278 
L 242.677143 110.57322 
L 245.17897 99.342787 
L 245.708769 95.250058 
L 246.120834 90.178507 
L 246.503467 82.425089 
L 247.239298 66.595263 
L 247.504198 64.567798 
L 247.651364 64.354988 
L 247.680797 64.366022 
L 247.827963 64.648734 
L 248.092863 65.901042 
L 248.593228 69.654888 
L 250.565257 86.976271 
L 251.124489 95.177754 
L 252.184086 111.446042 
L 252.684452 115.551316 
L 253.125951 117.570688 
L 253.832349 119.486299 
L 254.244414 119.948205 
L 254.627047 120.048459 
L 255.039113 119.904904 
L 255.627778 119.431262 
L 256.245876 118.772086 
L 256.304743 118.865703 
L 257.011141 119.755495 
L 257.746973 120.316521 
L 258.541671 120.655107 
L 259.189202 120.820487 
L 260.042767 124.997498 
L 260.778599 127.578248 
L 261.543863 129.435881 
L 262.191395 130.881492 
L 262.927227 135.098162 
L 263.663058 138.110655 
L 264.39889 140.251109 
L 265.046421 141.506438 
L 265.635087 142.208591 
L 266.400351 142.806903 
L 268.019181 143.869386 
L 268.048614 143.780383 
L 268.725579 142.10796 
L 269.402544 141.00347 
L 270.050076 140.355679 
L 270.727041 139.993757 
L 270.99194 139.843242 
L 271.757205 138.080466 
L 272.640203 136.577066 
L 273.523201 135.539241 
L 273.9647 134.995616 
L 274.818264 132.487143 
L 275.583529 130.888939 
L 276.378227 129.719672 
L 276.908026 128.925899 
L 277.732157 125.659939 
L 278.556288 123.24689 
L 279.498153 121.187643 
L 279.851352 120.317735 
L 280.763783 115.805727 
L 281.852814 111.543544 
L 283.35391 105.910319 
L 284.413507 100.632676 
L 285.002173 96.602322 
L 285.443672 91.916273 
L 285.826304 85.317176 
L 286.856468 65.465629 
L 287.091934 64.501456 
L 287.209667 64.479253 
L 287.356834 64.792127 
L 287.621733 66.06216 
L 288.151532 70.022611 
L 289.152263 79.232701 
L 290.064694 89.088181 
L 290.682792 98.791823 
L 291.448057 110.115307 
L 292.066155 115.728163 
L 292.537088 118.035157 
L 292.949153 119.07398 
L 293.331786 119.489267 
L 293.684985 119.553908 
L 294.067617 119.376063 
L 294.626849 119.093783 
L 295.127215 119.460183 
L 295.71588 119.617201 
L 296.451711 119.576139 
L 297.481876 119.444185 
L 298.306007 122.643588 
L 299.100705 124.928001 
L 299.807103 126.337946 
L 300.425202 127.374881 
L 301.190466 132.160833 
L 301.926298 135.412548 
L 302.66213 137.714605 
L 304.192659 141.400141 
L 304.957924 142.674355 
L 305.782055 143.572483 
L 306.282421 144.037033 
L 306.311854 143.970692 
L 307.018252 142.673735 
L 307.665784 141.923208 
L 308.342749 141.480106 
L 309.019714 141.290364 
L 309.25518 141.178158 
L 309.961578 139.275039 
L 310.69741 137.92612 
L 311.668708 136.617534 
L 312.257373 135.856621 
L 313.052071 133.872186 
L 313.993935 132.141597 
L 314.788633 131.135202 
L 315.141832 130.697739 
L 315.93653 127.797155 
L 316.790095 125.513389 
L 317.614226 123.89541 
L 318.114592 122.868646 
L 318.99759 118.606462 
L 319.968887 115.002025 
L 321.469984 109.720281 
L 323.648045 99.283082 
L 324.207277 95.025161 
L 324.619343 90.029475 
L 325.001975 82.390044 
L 325.737807 66.780501 
L 326.032139 64.509253 
L 326.208739 64.198888 
L 326.326472 64.335482 
L 326.532505 65.082528 
L 326.885704 67.344036 
L 329.269798 90.654766 
L 329.946763 101.299055 
L 330.623728 111.172583 
L 331.124093 115.503293 
L 331.595026 117.789487 
L 332.007091 118.810747 
L 332.36029 119.191258 
L 332.713489 119.258975 
L 332.831223 119.328068 
L 333.243288 119.692499 
L 333.655354 119.781448 
L 334.155719 119.654189 
L 335.038717 119.14194 
L 335.715682 118.651895 
L 335.745115 118.749801 
L 336.539813 120.981309 
L 337.334512 122.563379 
L 338.217509 123.870346 
L 338.688442 124.555638 
L 339.424273 129.033275 
L 340.189538 132.409875 
L 340.895936 134.604853 
L 341.896667 137.483234 
L 342.632499 140.093255 
L 343.309464 141.718897 
L 344.045295 142.922345 
L 344.545661 143.48348 
L 344.575094 143.448003 
L 345.252059 142.815644 
L 345.958457 142.466779 
L 346.664855 142.344241 
L 347.547853 142.22637 
L 348.224818 140.331884 
L 348.901783 139.066815 
L 349.608182 138.20929 
L 350.550046 137.124009 
L 351.344744 135.195853 
L 352.168875 133.757931 
L 353.169606 132.470362 
L 353.434506 132.044338 
L 354.19977 129.585452 
L 354.994468 127.737801 
L 355.877466 126.230974 
L 356.377832 125.332684 
L 357.231396 121.434743 
L 358.143827 118.272032 
L 359.144558 115.599851 
L 359.350591 114.848056 
L 360.410188 109.778394 
L 362.647116 99.603484 
L 363.176915 95.681181 
L 363.588981 90.912684 
L 363.971613 83.614644 
L 364.825178 65.866617 
L 365.090077 64.216559 
L 365.148944 64.092321 
L 365.20781 64.135919 
L 365.354976 64.506501 
L 365.619876 65.886365 
L 366.179108 70.292508 
L 368.239436 88.902512 
L 368.828101 98.258963 
L 369.622799 110.455295 
L 370.123165 114.982357 
L 370.594097 117.382537 
L 371.006163 118.459913 
L 371.241629 119.062757 
L 371.653694 119.738363 
L 372.036327 119.989564 
L 372.418959 119.978098 
L 372.919325 119.707013 
L 373.714023 118.973969 
L 373.978922 118.700862 
L 374.008355 118.754496 
L 374.714754 119.800765 
L 375.480018 120.526147 
L 376.274716 120.977963 
L 376.922248 121.244704 
L 377.746379 125.468928 
L 378.482211 128.160561 
L 379.247476 130.121361 
L 379.953874 131.824891 
L 380.719139 135.983584 
L 381.45497 138.813564 
L 382.161369 140.74253 
L 382.8089 141.898334 
L 383.544732 142.486312 
L 385.752227 143.736515 
L 386.429192 141.934485 
L 387.106157 140.731414 
L 387.753688 140.015556 
L 388.430653 139.597706 
L 388.754419 139.345319 
L 389.578551 137.522785 
L 390.402682 136.183443 
L 391.28568 135.180691 
L 391.697745 134.66043 
L 392.521877 132.157595 
L 393.287142 130.510047 
L 394.08184 129.300744 
L 394.641072 128.454631 
L 395.465203 125.183356 
L 396.289334 122.770578 
L 397.231199 120.689532 
L 397.584398 119.809884 
L 398.526262 115.125858 
L 399.615293 110.813602 
L 401.086956 105.199721 
L 402.058253 100.2247 
L 402.617485 96.257666 
L 403.029551 91.768213 
L 403.412183 84.944974 
L 404.383481 65.829386 
L 404.64838 64.56688 
L 404.766113 64.516484 
L 404.795547 64.544704 
L 404.942713 64.895942 
L 405.207612 66.211191 
L 405.766844 70.444399 
L 406.914742 80.9157 
L 407.680006 89.520869 
L 408.327538 99.924209 
L 409.033936 110.254545 
L 409.622602 115.509175 
L 410.093534 117.931072 
L 410.505599 119.040553 
L 410.888232 119.50308 
L 411.241431 119.601013 
L 411.624063 119.451388 
L 412.153862 118.962099 
L 412.242162 118.859741 
L 412.301028 118.929778 
L 412.830827 119.370182 
L 413.448926 119.592515 
L 414.184757 119.611454 
L 415.214921 119.562164 
L 416.068486 123.039908 
L 416.863184 125.413729 
L 417.569582 126.861769 
L 418.158247 127.901185 
L 418.923512 132.638306 
L 419.659344 135.85047 
L 420.395175 138.124631 
L 421.660806 141.078876 
L 422.42607 142.413118 
L 423.161902 143.25853 
L 424.015466 144.042267 
L 424.0449 143.972985 
L 424.751298 142.614867 
L 425.39883 141.831291 
L 426.075795 141.357703 
L 426.75276 141.149884 
L 426.988226 141.034523 
L 427.694624 139.163562 
L 428.459889 137.768779 
L 429.401753 136.495859 
L 429.990419 135.730413 
L 430.785117 133.715034 
L 431.697548 131.997961 
L 432.492246 130.974138 
L 432.874878 130.500361 
L 433.669576 127.514038 
L 434.523141 125.153113 
L 435.376705 123.427811 
L 435.847638 122.416992 
L 436.730635 118.104493 
L 437.701933 114.434658 
L 439.291329 108.711728 
L 441.086758 100.158116 
L 441.64599 96.232711 
L 442.116922 91.197258 
L 442.499555 84.282507 
L 443.411986 65.824206 
L 443.676885 64.364943 
L 443.824051 64.265607 
L 443.971218 64.560244 
L 444.236117 65.816085 
L 444.677616 69.16684 
L 447.032277 93.643032 
L 448.445073 113.747613 
L 448.916006 116.853372 
L 449.357505 118.446208 
L 449.740137 119.117713 
L 450.093336 119.339642 
L 450.446535 119.29456 
L 450.564268 119.338616 
L 451.005767 119.674153 
L 451.447266 119.735314 
L 452.035931 119.564403 
L 453.036662 119.009554 
L 453.448728 118.73758 
L 453.478161 118.840639 
L 454.272859 121.193957 
L 455.126424 123.005753 
L 455.950555 124.284473 
L 456.421487 124.981527 
L 457.186752 129.732029 
L 457.952017 133.164556 
L 458.687848 135.461919 
L 459.659146 138.250811 
L 460.365544 140.541888 
L 461.071943 142.083166 
L 461.778341 143.133752 
L 462.278706 143.661379 
L 462.30814 143.618402 
L 462.955671 142.870681 
L 463.66207 142.39194 
L 464.339035 142.188654 
L 465.163166 142.192728 
L 465.251466 142.099596 
L 465.928431 140.174381 
L 466.605396 138.881119 
L 467.341227 137.95175 
L 468.283092 136.806495 
L 469.07779 134.857645 
L 469.901921 133.39957 
L 470.843785 132.155599 
L 471.167551 131.668468 
L 471.932816 129.187216 
L 472.756947 127.252909 
L 473.639945 125.731001 
L 474.110877 124.865517 
L 474.964442 120.931587 
L 475.876873 117.729216 
L 476.907037 114.93366 
L 477.083637 114.251526 
L 478.172667 109.084523 
L 480.174129 99.918328 
L 480.733361 95.916761 
L 481.145427 91.316909 
L 481.528059 84.288793 
L 482.44049 65.601927 
L 482.70539 64.158797 
L 482.823123 64.057923 
L 482.852556 64.076026 
L 482.940856 64.318324 
L 483.235188 65.976826 
L 483.88272 71.327581 
L 485.913615 90.129297 
L 486.59058 101.346052 
L 487.267545 111.10689 
L 487.767911 115.368345 
L 488.20941 117.496226 
L 488.621475 118.527576 
L 489.622206 119.928564 
L 490.004839 119.959806 
L 490.475771 119.755603 
L 491.211602 119.149359 
L 491.711968 118.667489 
L 491.741401 118.728191 
L 492.447799 119.926055 
L 493.213064 120.792186 
L 494.007762 121.361927 
L 494.655294 121.730001 
L 495.479425 126.146638 
L 496.185823 128.829584 
L 496.951088 130.895845 
L 497.716353 132.849874 
L 498.452185 136.636123 
L 499.188016 139.33477 
L 499.864981 141.079389 
L 500.541946 142.217251 
L 501.307211 142.559371 
L 502.808307 143.18825 
L 503.485272 143.534227 
L 503.514706 143.436537 
L 504.191671 141.580576 
L 504.868636 140.340382 
L 505.516167 139.597221 
L 506.193132 139.151394 
L 506.487465 138.898764 
L 507.34103 137.042911 
L 508.135728 135.788418 
L 508.989292 134.831098 
L 509.430791 134.270018 
L 510.225489 131.774225 
L 510.990754 130.067404 
L 511.785452 128.808864 
L 512.374117 127.899782 
L 513.198249 124.610108 
L 514.051813 122.106518 
L 514.993678 120.004915 
L 515.317443 119.167678 
L 516.259308 114.439029 
L 517.377772 109.939674 
L 518.790568 104.431874 
L 519.673566 99.750411 
L 520.203365 95.81845 
L 520.61543 91.064845 
L 520.998063 83.800259 
L 521.822194 66.724924 
L 522.116527 64.754573 
L 522.263693 64.556628 
L 522.293126 64.56885 
L 522.440293 64.850213 
L 522.705192 66.078212 
L 523.205557 69.755601 
L 524.559488 81.792919 
L 525.265886 90.001903 
L 525.972284 101.600463 
L 526.619816 110.746398 
L 527.149615 115.259107 
L 527.620547 117.820027 
L 528.062046 119.076273 
L 528.444678 119.566318 
L 528.797877 119.687292 
L 529.18051 119.560302 
L 529.710308 119.098558 
L 529.975208 118.792185 
L 530.034074 118.864705 
L 530.593306 119.361602 
L 531.240838 119.642183 
L 532.006103 119.716078 
L 532.947967 119.766205 
L 533.801532 123.481229 
L 534.566796 125.919827 
L 535.243761 127.41168 
L 535.920726 128.831472 
L 536.656558 133.291843 
L 537.39239 136.458952 
L 538.128221 138.702033 
L 539.011219 140.647807 
L 539.74705 141.993407 
L 540.453449 142.867821 
L 541.748512 144.015531 
L 542.425477 142.603347 
L 543.073009 141.73762 
L 543.749974 141.196558 
L 544.426939 140.942336 
L 544.721272 140.812324 
L 545.42767 139.004467 
L 546.251801 137.518306 
L 547.105366 136.381711 
L 547.723464 135.581058 
L 548.547596 133.425793 
L 549.40116 131.772768 
L 550.195858 130.71738 
L 550.607924 130.200922 
L 551.402622 127.113698 
L 552.256187 124.663607 
L 553.139184 122.81199 
L 553.580683 121.817817 
L 554.463681 117.473294 
L 555.464412 113.63932 
L 557.083241 107.711566 
L 558.554904 100.66095 
L 559.14357 96.683502 
L 559.614502 91.812593 
L 559.997134 85.3233 
L 561.027298 65.316247 
L 561.262765 64.351373 
L 561.380498 64.331867 
L 561.527664 64.64984 
L 561.792563 65.931582 
L 562.322362 69.914129 
L 562.94046 75.980824 
L 564.264957 89.506678 
L 564.912489 99.554058 
L 565.73662 111.495009 
L 566.236986 115.762372 
L 566.707918 118.008799 
L 567.119984 119.011254 
L 567.473183 119.383213 
L 567.826382 119.447665 
L 568.209014 119.266691 
L 568.297314 119.310666 
L 568.738813 119.623972 
L 569.209745 119.693146 
L 569.88671 119.533782 
L 570.916874 119.040149 
L 571.181774 118.892385 
L 571.211207 119.00281 
L 572.005905 121.529466 
L 572.888903 123.576033 
L 573.654168 124.834573 
L 574.154533 125.58375 
L 574.919798 130.424685 
L 575.655629 133.790359 
L 576.391461 136.153389 
L 577.804257 140.23136 
L 578.481222 141.805904 
L 579.217054 142.990278 
L 580.011752 143.836121 
L 580.688717 142.882147 
L 581.395115 142.270157 
L 582.042647 141.992571 
L 582.807912 141.910312 
L 582.984511 141.818962 
L 583.661476 139.907613 
L 584.338441 138.615971 
L 585.13314 137.584351 
L 586.016137 136.459842 
L 586.810835 134.511722 
L 587.6644 132.996208 
L 588.517965 131.864496 
L 588.900597 131.31499 
L 589.695295 128.697549 
L 590.519426 126.730354 
L 591.372991 125.224094 
L 591.843923 124.340535 
L 592.726921 120.252392 
L 593.668785 116.943185 
L 595.052149 112.394459 
L 596.317779 106.717609 
L 597.583409 100.863993 
L 598.172074 97.097574 
L 598.613573 92.832423 
L 598.996206 86.799964 
L 600.173536 64.592025 
L 600.379569 64.074326 
L 600.497302 64.175497 
L 600.644468 64.670911 
L 601.056534 67.687505 
L 603.175729 86.537 
L 603.705528 93.297351 
L 605.000591 112.651622 
L 605.500956 116.265178 
L 605.942455 117.996793 
L 606.325088 118.743165 
L 607.443552 119.928618 
L 607.855617 119.867349 
L 608.414849 119.539501 
L 609.445013 118.646472 
L 609.50388 118.788624 
L 610.239712 120.24902 
L 611.004976 121.29073 
L 611.917407 122.121681 
L 612.38834 122.479205 
L 613.183038 126.906769 
L 613.918869 129.782263 
L 614.684134 131.909065 
L 615.449399 133.855594 
L 616.18523 137.412279 
L 616.950495 140.038731 
L 617.598027 141.540485 
L 618.274992 142.598679 
L 620.158721 142.831912 
L 621.218318 143.237567 
L 621.247751 143.136612 
L 621.95415 141.142007 
L 622.601681 139.924367 
L 623.249213 139.144326 
L 623.955611 138.638066 
L 624.220511 138.378691 
L 625.103509 136.459681 
L 625.92764 135.19213 
L 626.810638 134.228308 
L 627.134404 133.83795 
L 627.899668 131.33571 
L 628.664933 129.546522 
L 629.489065 128.175696 
L 630.107163 127.182683 
L 630.931294 123.790273 
L 631.814292 121.101527 
L 632.756157 118.906198 
L 633.050489 118.107083 
L 634.05122 113.13557 
L 635.199117 108.540493 
L 636.376448 103.857034 
L 637.230012 99.176138 
L 637.730378 95.240831 
L 638.142443 90.121581 
L 638.525076 82.301526 
L 639.231474 67.228351 
L 639.525807 64.913937 
L 639.73184 64.574866 
L 639.849573 64.747855 
L 640.055605 65.534614 
L 640.438238 68.036018 
L 641.851034 79.721667 
L 642.704599 89.265972 
L 643.322697 99.264413 
L 644.058529 110.334807 
L 644.558894 114.786571 
L 645.14756 117.960479 
L 645.589059 119.242302 
L 645.971691 119.760836 
L 646.32489 119.91146 
L 646.707522 119.817654 
L 647.207888 119.428834 
L 647.708253 118.87118 
L 647.796553 118.982926 
L 648.414652 119.562191 
L 649.091617 119.898726 
L 649.915748 120.044061 
L 650.681013 120.188317 
L 651.534577 124.091978 
L 652.299842 126.626 
L 653.00624 128.222801 
L 653.653772 129.641164 
L 654.389604 134.017846 
L 655.125435 137.132562 
L 655.861267 139.340085 
L 656.567665 140.808062 
L 657.303497 142.018282 
L 658.009895 142.794196 
L 659.481558 143.977923 
L 660.158523 142.476492 
L 660.806055 141.547068 
L 661.453586 140.974333 
L 662.130551 140.674624 
L 662.454317 140.529666 
L 663.160716 138.794517 
L 664.073147 137.17848 
L 664.897278 136.143137 
L 665.36821 135.694477 
L 665.36821 135.694477 
" clip-path="url(#p33b1527c19)" style="fill: none; stroke: #2ca02c; stroke-width: 3; stroke-linecap: square"/>
   </g>
   <g id="line2d_12">
    <path d="M 76.732415 86.339137 
L 665.36821 86.339137 
L 665.36821 86.339137 
" clip-path="url(#p33b1527c19)" style="fill: none; stroke-dasharray: 2.96,1.28; stroke-dashoffset: 0; stroke: #808080; stroke-opacity: 0.7; stroke-width: 0.8"/>
   </g>
   <g id="line2d_13">
    <path d="M 76.732415 374.72434 
L 106.165676 374.72434 
" clip-path="url(#p33b1527c19)" style="fill: none; stroke: #000000; stroke-width: 5; stroke-linecap: square"/>
   </g>
   <g id="text_5">
    <!-- 100ms -->
    <g transform="translate(64.219045 403.968577) scale(0.16 -0.16)">
     <defs>
      <path id="DejaVuSans-30" d="M 2034 4250 
Q 1547 4250 1301 3770 
Q 1056 3291 1056 2328 
Q 1056 1369 1301 889 
Q 1547 409 2034 409 
Q 2525 409 2770 889 
Q 3016 1369 3016 2328 
Q 3016 3291 2770 3770 
Q 2525 4250 2034 4250 
z
M 2034 4750 
Q 2819 4750 3233 4129 
Q 3647 3509 3647 2328 
Q 3647 1150 3233 529 
Q 2819 -91 2034 -91 
Q 1250 -91 836 529 
Q 422 1150 422 2328 
Q 422 3509 836 4129 
Q 1250 4750 2034 4750 
z
" transform="scale(0.015625)"/>
      <path id="DejaVuSans-6d" d="M 3328 2828 
Q 3544 3216 3844 3400 
Q 4144 3584 4550 3584 
Q 5097 3584 5394 3201 
Q 5691 2819 5691 2113 
L 5691 0 
L 5113 0 
L 5113 2094 
Q 5113 2597 4934 2840 
Q 4756 3084 4391 3084 
Q 3944 3084 3684 2787 
Q 3425 2491 3425 1978 
L 3425 0 
L 2847 0 
L 2847 2094 
Q 2847 2600 2669 2842 
Q 2491 3084 2119 3084 
Q 1678 3084 1418 2786 
Q 1159 2488 1159 1978 
L 1159 0 
L 581 0 
L 581 3500 
L 1159 3500 
L 1159 2956 
Q 1356 3278 1631 3431 
Q 1906 3584 2284 3584 
Q 2666 3584 2933 3390 
Q 3200 3197 3328 2828 
z
" transform="scale(0.015625)"/>
     </defs>
     <use xlink:href="#DejaVuSans-31"/>
     <use xlink:href="#DejaVuSans-30" x="63.623047"/>
     <use xlink:href="#DejaVuSans-30" x="127.246094"/>
     <use xlink:href="#DejaVuSans-6d" x="190.869141"/>
     <use xlink:href="#DejaVuSans-73" x="288.28125"/>
    </g>
   </g>
   <g id="text_6">
    <!-- Excitatory Membrane Potentials -->
    <g transform="translate(179.742188 25.43625) scale(0.24 -0.24)">
     <defs>
      <path id="DejaVuSans-45" d="M 628 4666 
L 3578 4666 
L 3578 4134 
L 1259 4134 
L 1259 2753 
L 3481 2753 
L 3481 2222 
L 1259 2222 
L 1259 531 
L 3634 531 
L 3634 0 
L 628 0 
L 628 4666 
z
" transform="scale(0.015625)"/>
      <path id="DejaVuSans-78" d="M 3513 3500 
L 2247 1797 
L 3578 0 
L 2900 0 
L 1881 1375 
L 863 0 
L 184 0 
L 1544 1831 
L 300 3500 
L 978 3500 
L 1906 2253 
L 2834 3500 
L 3513 3500 
z
" transform="scale(0.015625)"/>
      <path id="DejaVuSans-63" d="M 3122 3366 
L 3122 2828 
Q 2878 2963 2633 3030 
Q 2388 3097 2138 3097 
Q 1578 3097 1268 2742 
Q 959 2388 959 1747 
Q 959 1106 1268 751 
Q 1578 397 2138 397 
Q 2388 397 2633 464 
Q 2878 531 3122 666 
L 3122 134 
Q 2881 22 2623 -34 
Q 2366 -91 2075 -91 
Q 1284 -91 818 406 
Q 353 903 353 1747 
Q 353 2603 823 3093 
Q 1294 3584 2113 3584 
Q 2378 3584 2631 3529 
Q 2884 3475 3122 3366 
z
" transform="scale(0.015625)"/>
      <path id="DejaVuSans-69" d="M 603 3500 
L 1178 3500 
L 1178 0 
L 603 0 
L 603 3500 
z
M 603 4863 
L 1178 4863 
L 1178 4134 
L 603 4134 
L 603 4863 
z
" transform="scale(0.015625)"/>
      <path id="DejaVuSans-74" d="M 1172 4494 
L 1172 3500 
L 2356 3500 
L 2356 3053 
L 1172 3053 
L 1172 1153 
Q 1172 725 1289 603 
Q 1406 481 1766 481 
L 2356 481 
L 2356 0 
L 1766 0 
Q 1100 0 847 248 
Q 594 497 594 1153 
L 594 3053 
L 172 3053 
L 172 3500 
L 594 3500 
L 594 4494 
L 1172 4494 
z
" transform="scale(0.015625)"/>
      <path id="DejaVuSans-61" d="M 2194 1759 
Q 1497 1759 1228 1600 
Q 959 1441 959 1056 
Q 959 750 1161 570 
Q 1363 391 1709 391 
Q 2188 391 2477 730 
Q 2766 1069 2766 1631 
L 2766 1759 
L 2194 1759 
z
M 3341 1997 
L 3341 0 
L 2766 0 
L 2766 531 
Q 2569 213 2275 61 
Q 1981 -91 1556 -91 
Q 1019 -91 701 211 
Q 384 513 384 1019 
Q 384 1609 779 1909 
Q 1175 2209 1959 2209 
L 2766 2209 
L 2766 2266 
Q 2766 2663 2505 2880 
Q 2244 3097 1772 3097 
Q 1472 3097 1187 3025 
Q 903 2953 641 2809 
L 641 3341 
Q 956 3463 1253 3523 
Q 1550 3584 1831 3584 
Q 2591 3584 2966 3190 
Q 3341 2797 3341 1997 
z
" transform="scale(0.015625)"/>
      <path id="DejaVuSans-79" d="M 2059 -325 
Q 1816 -950 1584 -1140 
Q 1353 -1331 966 -1331 
L 506 -1331 
L 506 -850 
L 844 -850 
Q 1081 -850 1212 -737 
Q 1344 -625 1503 -206 
L 1606 56 
L 191 3500 
L 800 3500 
L 1894 763 
L 2988 3500 
L 3597 3500 
L 2059 -325 
z
" transform="scale(0.015625)"/>
      <path id="DejaVuSans-20" transform="scale(0.015625)"/>
      <path id="DejaVuSans-4d" d="M 628 4666 
L 1569 4666 
L 2759 1491 
L 3956 4666 
L 4897 4666 
L 4897 0 
L 4281 0 
L 4281 4097 
L 3078 897 
L 2444 897 
L 1241 4097 
L 1241 0 
L 628 0 
L 628 4666 
z
" transform="scale(0.015625)"/>
      <path id="DejaVuSans-62" d="M 3116 1747 
Q 3116 2381 2855 2742 
Q 2594 3103 2138 3103 
Q 1681 3103 1420 2742 
Q 1159 2381 1159 1747 
Q 1159 1113 1420 752 
Q 1681 391 2138 391 
Q 2594 391 2855 752 
Q 3116 1113 3116 1747 
z
M 1159 2969 
Q 1341 3281 1617 3432 
Q 1894 3584 2278 3584 
Q 2916 3584 3314 3078 
Q 3713 2572 3713 1747 
Q 3713 922 3314 415 
Q 2916 -91 2278 -91 
Q 1894 -91 1617 61 
Q 1341 213 1159 525 
L 1159 0 
L 581 0 
L 581 4863 
L 1159 4863 
L 1159 2969 
z
" transform="scale(0.015625)"/>
      <path id="DejaVuSans-50" d="M 1259 4147 
L 1259 2394 
L 2053 2394 
Q 2494 2394 2734 2622 
Q 2975 2850 2975 3272 
Q 2975 3691 2734 3919 
Q 2494 4147 2053 4147 
L 1259 4147 
z
M 628 4666 
L 2053 4666 
Q 2838 4666 3239 4311 
Q 3641 3956 3641 3272 
Q 3641 2581 3239 2228 
Q 2838 1875 2053 1875 
L 1259 1875 
L 1259 0 
L 628 0 
L 628 4666 
z
" transform="scale(0.015625)"/>
      <path id="DejaVuSans-6c" d="M 603 4863 
L 1178 4863 
L 1178 0 
L 603 0 
L 603 4863 
z
" transform="scale(0.015625)"/>
     </defs>
     <use xlink:href="#DejaVuSans-45"/>
     <use xlink:href="#DejaVuSans-78" x="63.183594"/>
     <use xlink:href="#DejaVuSans-63" x="120.613281"/>
     <use xlink:href="#DejaVuSans-69" x="175.59375"/>
     <use xlink:href="#DejaVuSans-74" x="203.376953"/>
     <use xlink:href="#DejaVuSans-61" x="242.585938"/>
     <use xlink:href="#DejaVuSans-74" x="303.865234"/>
     <use xlink:href="#DejaVuSans-6f" x="343.074219"/>
     <use xlink:href="#DejaVuSans-72" x="404.255859"/>
     <use xlink:href="#DejaVuSans-79" x="445.369141"/>
     <use xlink:href="#DejaVuSans-20" x="504.548828"/>
     <use xlink:href="#DejaVuSans-4d" x="536.335938"/>
     <use xlink:href="#DejaVuSans-65" x="622.615234"/>
     <use xlink:href="#DejaVuSans-6d" x="684.138672"/>
     <use xlink:href="#DejaVuSans-62" x="781.550781"/>
     <use xlink:href="#DejaVuSans-72" x="845.027344"/>
     <use xlink:href="#DejaVuSans-61" x="886.140625"/>
     <use xlink:href="#DejaVuSans-6e" x="947.419922"/>
     <use xlink:href="#DejaVuSans-65" x="1010.798828"/>
     <use xlink:href="#DejaVuSans-20" x="1072.322266"/>
     <use xlink:href="#DejaVuSans-50" x="1104.109375"/>
     <use xlink:href="#DejaVuSans-6f" x="1160.787109"/>
     <use xlink:href="#DejaVuSans-74" x="1221.96875"/>
     <use xlink:href="#DejaVuSans-65" x="1261.177734"/>
     <use xlink:href="#DejaVuSans-6e" x="1322.701172"/>
     <use xlink:href="#DejaVuSans-74" x="1386.080078"/>
     <use xlink:href="#DejaVuSans-69" x="1425.289062"/>
     <use xlink:href="#DejaVuSans-61" x="1453.072266"/>
     <use xlink:href="#DejaVuSans-6c" x="1514.351562"/>
     <use xlink:href="#DejaVuSans-73" x="1542.134766"/>
    </g>
   </g>
  </g>
 </g>
 <defs>
  <clipPath id="p33b1527c19">
   <rect x="47.300625" y="48.522988" width="647.499375" height="341.73475"/>
  </clipPath>
 </defs>
</svg>
