<?xml version="1.0" encoding="utf-8" standalone="no"?>
<!DOCTYPE svg PUBLIC "-//W3C//DTD SVG 1.1//EN"
  "http://www.w3.org/Graphics/SVG/1.1/DTD/svg11.dtd">
<svg xmlns:xlink="http://www.w3.org/1999/xlink" width="702pt" height="414.496077pt" viewBox="0 0 702 414.496077" xmlns="http://www.w3.org/2000/svg" version="1.1">
 <metadata>
  <rdf:RDF xmlns:dc="http://purl.org/dc/elements/1.1/" xmlns:cc="http://creativecommons.org/ns#" xmlns:rdf="http://www.w3.org/1999/02/22-rdf-syntax-ns#">
   <cc:Work>
    <dc:type rdf:resource="http://purl.org/dc/dcmitype/StillImage"/>
    <dc:date>2025-11-12T12:52:26.790972</dc:date>
    <dc:format>image/svg+xml</dc:format>
    <dc:creator>
     <cc:Agent>
      <dc:title>Matplotlib v3.8.2, https://matplotlib.org/</dc:title>
     </cc:Agent>
    </dc:creator>
   </cc:Work>
  </rdf:RDF>
 </metadata>
 <defs>
  <style type="text/css">*{stroke-linejoin: round; stroke-linecap: butt}</style>
 </defs>
 <g id="figure_1">
  <g id="patch_1">
   <path d="M 0 414.496077 
L 702 414.496077 
L 702 0 
L 0 0 
z
" style="fill: #ffffff"/>
  </g>
  <g id="axes_1">
   <g id="patch_2">
    <path d="M 47.300625 390.257738 
L 694.8 390.257738 
L 694.8 48.522987 
L 47.300625 48.522987 
z
" style="fill: #ffffff"/>
   </g>
   <g id="matplotlib.axis_1"/>
   <g id="matplotlib.axis_2">
    <g id="ytick_1">
     <g id="line2d_1">
      <path d="M 47.300625 356.863128 
L 694.8 356.863128 
" clip-path="url(#p1c6251312d)" style="fill: none; stroke: #b0b0b0; stroke-opacity: 0.3; stroke-width: 0.8; stroke-linecap: square"/>
     </g>
     <g id="line2d_2">
      <defs>
       <path id="mc6764f5876" d="M 0 0 
L -5 0 
" style="stroke: #000000; stroke-width: 0.8"/>
      </defs>
      <g>
       <use xlink:href="#mc6764f5876" x="47.300625" y="356.863128" style="stroke: #000000; stroke-width: 0.8"/>
      </g>
     </g>
     <g id="text_1">
      <!-- 1 -->
      <g transform="translate(28.620625 362.941878) scale(0.16 -0.16)">
       <defs>
        <path id="DejaVuSans-31" d="M 794 531 
L 1825 531 
L 1825 4091 
L 703 3866 
L 703 4441 
L 1819 4666 
L 2450 4666 
L 2450 531 
L 3481 531 
L 3481 0 
L 794 0 
L 794 531 
z
" transform="scale(0.015625)"/>
       </defs>
       <use xlink:href="#DejaVuSans-31"/>
      </g>
     </g>
    </g>
    <g id="ytick_2">
     <g id="line2d_3">
      <path d="M 47.300625 258.191252 
L 694.8 258.191252 
" clip-path="url(#p1c6251312d)" style="fill: none; stroke: #b0b0b0; stroke-opacity: 0.3; stroke-width: 0.8; stroke-linecap: square"/>
     </g>
     <g id="line2d_4">
      <g>
       <use xlink:href="#mc6764f5876" x="47.300625" y="258.191252" style="stroke: #000000; stroke-width: 0.8"/>
      </g>
     </g>
     <g id="text_2">
      <!-- 2 -->
      <g transform="translate(28.620625 264.270002) scale(0.16 -0.16)">
       <defs>
        <path id="DejaVuSans-32" d="M 1228 531 
L 3431 531 
L 3431 0 
L 469 0 
L 469 531 
Q 828 903 1448 1529 
Q 2069 2156 2228 2338 
Q 2531 2678 2651 2914 
Q 2772 3150 2772 3378 
Q 2772 3750 2511 3984 
Q 2250 4219 1831 4219 
Q 1534 4219 1204 4116 
Q 875 4013 500 3803 
L 500 4441 
Q 881 4594 1212 4672 
Q 1544 4750 1819 4750 
Q 2544 4750 2975 4387 
Q 3406 4025 3406 3419 
Q 3406 3131 3298 2873 
Q 3191 2616 2906 2266 
Q 2828 2175 2409 1742 
Q 1991 1309 1228 531 
z
" transform="scale(0.015625)"/>
       </defs>
       <use xlink:href="#DejaVuSans-32"/>
      </g>
     </g>
    </g>
    <g id="ytick_3">
     <g id="line2d_5">
      <path d="M 47.300625 159.519376 
L 694.8 159.519376 
" clip-path="url(#p1c6251312d)" style="fill: none; stroke: #b0b0b0; stroke-opacity: 0.3; stroke-width: 0.8; stroke-linecap: square"/>
     </g>
     <g id="line2d_6">
      <g>
       <use xlink:href="#mc6764f5876" x="47.300625" y="159.519376" style="stroke: #000000; stroke-width: 0.8"/>
      </g>
     </g>
     <g id="text_3">
      <!-- 3 -->
      <g transform="translate(28.620625 165.598126) scale(0.16 -0.16)">
       <defs>
        <path id="DejaVuSans-33" d="M 2597 2516 
Q 3050 2419 3304 2112 
Q 3559 1806 3559 1356 
Q 3559 666 3084 287 
Q 2609 -91 1734 -91 
Q 1441 -91 1130 -33 
Q 819 25 488 141 
L 488 750 
Q 750 597 1062 519 
Q 1375 441 1716 441 
Q 2309 441 2620 675 
Q 2931 909 2931 1356 
Q 2931 1769 2642 2001 
Q 2353 2234 1838 2234 
L 1294 2234 
L 1294 2753 
L 1863 2753 
Q 2328 2753 2575 2939 
Q 2822 3125 2822 3475 
Q 2822 3834 2567 4026 
Q 2313 4219 1838 4219 
Q 1578 4219 1281 4162 
Q 984 4106 628 3988 
L 628 4550 
Q 988 4650 1302 4700 
Q 1616 4750 1894 4750 
Q 2613 4750 3031 4423 
Q 3450 4097 3450 3541 
Q 3450 3153 3228 2886 
Q 3006 2619 2597 2516 
z
" transform="scale(0.015625)"/>
       </defs>
       <use xlink:href="#DejaVuSans-33"/>
      </g>
     </g>
    </g>
    <g id="text_4">
     <!-- Neurons -->
     <g transform="translate(20.877188 256.761456) rotate(-90) scale(0.18 -0.18)">
      <defs>
       <path id="DejaVuSans-4e" d="M 628 4666 
L 1478 4666 
L 3547 763 
L 3547 4666 
L 4159 4666 
L 4159 0 
L 3309 0 
L 1241 3903 
L 1241 0 
L 628 0 
L 628 4666 
z
" transform="scale(0.015625)"/>
       <path id="DejaVuSans-65" d="M 3597 1894 
L 3597 1613 
L 953 1613 
Q 991 1019 1311 708 
Q 1631 397 2203 397 
Q 2534 397 2845 478 
Q 3156 559 3463 722 
L 3463 178 
Q 3153 47 2828 -22 
Q 2503 -91 2169 -91 
Q 1331 -91 842 396 
Q 353 884 353 1716 
Q 353 2575 817 3079 
Q 1281 3584 2069 3584 
Q 2775 3584 3186 3129 
Q 3597 2675 3597 1894 
z
M 3022 2063 
Q 3016 2534 2758 2815 
Q 2500 3097 2075 3097 
Q 1594 3097 1305 2825 
Q 1016 2553 972 2059 
L 3022 2063 
z
" transform="scale(0.015625)"/>
       <path id="DejaVuSans-75" d="M 544 1381 
L 544 3500 
L 1119 3500 
L 1119 1403 
Q 1119 906 1312 657 
Q 1506 409 1894 409 
Q 2359 409 2629 706 
Q 2900 1003 2900 1516 
L 2900 3500 
L 3475 3500 
L 3475 0 
L 2900 0 
L 2900 538 
Q 2691 219 2414 64 
Q 2138 -91 1772 -91 
Q 1169 -91 856 284 
Q 544 659 544 1381 
z
M 1991 3584 
L 1991 3584 
z
" transform="scale(0.015625)"/>
       <path id="DejaVuSans-72" d="M 2631 2963 
Q 2534 3019 2420 3045 
Q 2306 3072 2169 3072 
Q 1681 3072 1420 2755 
Q 1159 2438 1159 1844 
L 1159 0 
L 581 0 
L 581 3500 
L 1159 3500 
L 1159 2956 
Q 1341 3275 1631 3429 
Q 1922 3584 2338 3584 
Q 2397 3584 2469 3576 
Q 2541 3569 2628 3553 
L 2631 2963 
z
" transform="scale(0.015625)"/>
       <path id="DejaVuSans-6f" d="M 1959 3097 
Q 1497 3097 1228 2736 
Q 959 2375 959 1747 
Q 959 1119 1226 758 
Q 1494 397 1959 397 
Q 2419 397 2687 759 
Q 2956 1122 2956 1747 
Q 2956 2369 2687 2733 
Q 2419 3097 1959 3097 
z
M 1959 3584 
Q 2709 3584 3137 3096 
Q 3566 2609 3566 1747 
Q 3566 888 3137 398 
Q 2709 -91 1959 -91 
Q 1206 -91 779 398 
Q 353 888 353 1747 
Q 353 2609 779 3096 
Q 1206 3584 1959 3584 
z
" transform="scale(0.015625)"/>
       <path id="DejaVuSans-6e" d="M 3513 2113 
L 3513 0 
L 2938 0 
L 2938 2094 
Q 2938 2591 2744 2837 
Q 2550 3084 2163 3084 
Q 1697 3084 1428 2787 
Q 1159 2491 1159 1978 
L 1159 0 
L 581 0 
L 581 3500 
L 1159 3500 
L 1159 2956 
Q 1366 3272 1645 3428 
Q 1925 3584 2291 3584 
Q 2894 3584 3203 3211 
Q 3513 2838 3513 2113 
z
" transform="scale(0.015625)"/>
       <path id="DejaVuSans-73" d="M 2834 3397 
L 2834 2853 
Q 2591 2978 2328 3040 
Q 2066 3103 1784 3103 
Q 1356 3103 1142 2972 
Q 928 2841 928 2578 
Q 928 2378 1081 2264 
Q 1234 2150 1697 2047 
L 1894 2003 
Q 2506 1872 2764 1633 
Q 3022 1394 3022 966 
Q 3022 478 2636 193 
Q 2250 -91 1575 -91 
Q 1294 -91 989 -36 
Q 684 19 347 128 
L 347 722 
Q 666 556 975 473 
Q 1284 391 1588 391 
Q 1994 391 2212 530 
Q 2431 669 2431 922 
Q 2431 1156 2273 1281 
Q 2116 1406 1581 1522 
L 1381 1569 
Q 847 1681 609 1914 
Q 372 2147 372 2553 
Q 372 3047 722 3315 
Q 1072 3584 1716 3584 
Q 2034 3584 2315 3537 
Q 2597 3491 2834 3397 
z
" transform="scale(0.015625)"/>
      </defs>
      <use xlink:href="#DejaVuSans-4e"/>
      <use xlink:href="#DejaVuSans-65" x="74.804688"/>
      <use xlink:href="#DejaVuSans-75" x="136.328125"/>
      <use xlink:href="#DejaVuSans-72" x="199.707031"/>
      <use xlink:href="#DejaVuSans-6f" x="238.570312"/>
      <use xlink:href="#DejaVuSans-6e" x="299.751953"/>
      <use xlink:href="#DejaVuSans-73" x="363.130859"/>
     </g>
    </g>
   </g>
   <g id="line2d_7">
    <path d="M 76.732415 352.305954 
L 77.821445 352.373048 
L 81.412303 352.762261 
L 83.737531 352.892932 
L 85.326927 353.284203 
L 90.566048 354.720158 
L 92.714676 354.899115 
L 94.716138 354.853323 
L 95.805168 354.608002 
L 97.217965 354.05176 
L 98.336429 353.424096 
L 99.690359 352.392057 
L 101.544654 350.706581 
L 103.163484 348.90201 
L 103.958182 347.692602 
L 104.811746 345.958547 
L 108.255438 338.405979 
L 108.696937 338.004239 
L 109.079569 337.933828 
L 109.785967 338.137498 
L 110.492366 338.583065 
L 111.404797 339.446252 
L 112.376094 340.639627 
L 113.200226 342.232942 
L 114.613022 344.892432 
L 116.555617 347.797254 
L 118.233313 350.006036 
L 119.793276 351.717836 
L 121.029473 352.753498 
L 122.324537 353.551838 
L 123.501867 354.02166 
L 124.796931 354.280625 
L 126.298027 354.352459 
L 128.564388 354.445819 
L 131.802047 354.883953 
L 133.420876 355.005413 
L 134.568773 354.815447 
L 135.952137 354.359352 
L 136.864568 353.816873 
L 138.012465 352.857385 
L 139.307529 351.494993 
L 142.339155 347.672523 
L 143.516485 345.821678 
L 146.72471 340.601916 
L 147.254509 340.232594 
L 149.462004 339.475929 
L 150.168402 339.540623 
L 150.727634 339.794072 
L 151.345733 340.353831 
L 152.22873 341.508848 
L 154.436225 344.842594 
L 156.143354 347.719421 
L 158.115383 350.475623 
L 159.35158 351.822947 
L 160.587777 352.846964 
L 161.735674 353.519714 
L 162.971871 353.978056 
L 164.208068 354.212449 
L 165.797464 354.251501 
L 168.623057 354.434609 
L 172.743714 354.97249 
L 174.274243 354.753952 
L 175.216108 354.370856 
L 176.364005 353.654878 
L 177.600202 352.637142 
L 178.983565 351.155348 
L 181.279359 348.290025 
L 182.633289 346.193 
L 183.63402 344.347765 
L 185.105683 341.658527 
L 185.723782 340.987988 
L 187.313178 339.704947 
L 187.87241 339.569336 
L 188.431642 339.672341 
L 189.196907 340.088079 
L 190.168204 340.860211 
L 191.286668 342.091121 
L 192.051933 343.125971 
L 195.495625 348.731687 
L 197.114454 350.780321 
L 198.438951 352.103861 
L 199.645715 352.998878 
L 200.823045 353.599088 
L 202.088675 354.007639 
L 203.295439 354.165034 
L 207.975328 354.447301 
L 210.97752 354.97209 
L 212.684649 354.995286 
L 213.655947 354.751506 
L 214.892144 354.19577 
L 215.981175 353.489896 
L 217.217372 352.397526 
L 218.630168 350.868941 
L 220.896529 347.892308 
L 221.720661 346.520494 
L 223.133457 343.60792 
L 224.752287 340.508133 
L 225.635284 339.068355 
L 226.194516 338.532909 
L 226.665449 338.363246 
L 228.284278 338.358811 
L 229.137842 338.496081 
L 229.785374 338.831421 
L 230.138573 339.233384 
L 230.727239 340.302605 
L 233.258499 345.268247 
L 235.289394 348.716325 
L 236.702191 350.644204 
L 237.908954 351.944631 
L 239.056852 352.861349 
L 240.234182 353.529677 
L 241.352646 353.919207 
L 242.677143 354.122406 
L 244.178239 354.116631 
L 245.738202 354.14639 
L 247.739664 354.458476 
L 251.124489 354.992839 
L 252.242953 354.840372 
L 253.596883 354.422812 
L 254.538747 353.899928 
L 255.686644 352.993161 
L 257.070008 351.60762 
L 259.218636 348.988571 
L 260.1605 347.644305 
L 261.455564 345.329777 
L 264.31059 340.298453 
L 264.810955 339.920756 
L 265.370187 339.79973 
L 266.635818 339.690173 
L 267.342216 339.86513 
L 268.107481 340.298676 
L 268.637279 340.861999 
L 269.431977 342.086216 
L 271.16854 344.809012 
L 274.935997 350.157362 
L 276.437094 351.759429 
L 277.702724 352.780187 
L 278.938921 353.506987 
L 280.145685 353.959224 
L 281.499615 354.232281 
L 283.000711 354.291776 
L 285.149339 354.442526 
L 287.3274 354.758363 
L 289.564328 355.070672 
L 290.888825 354.940531 
L 292.213322 354.607461 
L 293.243486 354.07792 
L 294.538549 353.146169 
L 295.657013 352.100003 
L 297.15811 350.377981 
L 298.835806 348.208204 
L 300.013136 346.249131 
L 301.3082 343.693176 
L 302.779863 340.689359 
L 303.368528 339.990472 
L 305.36999 338.379278 
L 305.958655 338.285107 
L 306.54732 338.41686 
L 307.253718 338.805814 
L 307.960117 339.450498 
L 309.314047 341.107461 
L 309.873279 342.021898 
L 313.670169 348.94759 
L 314.965233 350.735894 
L 316.171997 352.024358 
L 317.319894 352.929208 
L 318.408924 353.512339 
L 319.645121 353.925583 
L 320.822452 354.087401 
L 325.531774 354.362058 
L 328.416233 354.918111 
L 330.152796 354.924875 
L 331.065227 354.708949 
L 332.213124 354.191594 
L 333.449321 353.39349 
L 334.626651 352.336173 
L 336.039448 350.779768 
L 337.834877 348.383196 
L 339.071074 346.394834 
L 340.395571 343.665122 
L 341.455168 341.703672 
L 343.044564 339.524732 
L 343.633229 339.053369 
L 344.133595 338.926121 
L 344.63396 339.046594 
L 346.605989 339.950656 
L 347.43012 340.61035 
L 347.871619 341.1557 
L 348.636884 342.569118 
L 350.344013 345.731953 
L 353.199039 350.001496 
L 354.552969 351.554806 
L 355.7303 352.583646 
L 356.878197 353.3004 
L 358.084961 353.800876 
L 359.262291 354.045597 
L 360.998854 354.11462 
L 363.441814 354.195746 
L 365.767042 354.678389 
L 368.151136 355.052793 
L 369.093001 355.029397 
L 370.211465 354.767091 
L 371.506528 354.230469 
L 372.507259 353.554061 
L 373.743456 352.439131 
L 375.009086 351.035558 
L 377.48148 347.802571 
L 378.570511 345.872257 
L 381.602137 340.366558 
L 382.190802 339.734848 
L 382.691167 339.508182 
L 384.398297 339.367725 
L 385.192995 339.484728 
L 385.86996 339.810116 
L 386.311459 340.31058 
L 387.017857 341.520529 
L 388.901586 344.863919 
L 391.903778 349.538637 
L 393.463741 351.377791 
L 394.641072 352.439472 
L 395.877269 353.252668 
L 397.054599 353.768717 
L 398.320229 354.071321 
L 399.674159 354.177973 
L 402.705785 354.282625 
L 404.942713 354.660204 
L 407.209074 355.029938 
L 408.445271 354.923746 
L 409.799201 354.594616 
L 410.770499 354.100187 
L 411.977263 353.221744 
L 413.184026 352.091416 
L 414.773422 350.251192 
L 416.539418 347.991537 
L 417.775615 345.91839 
L 419.188412 343.210238 
L 420.424609 340.854448 
L 421.013274 340.184708 
L 423.073602 338.732638 
L 423.721134 338.626787 
L 424.339232 338.7474 
L 424.986764 339.117546 
L 425.663729 339.772064 
L 427.223692 341.737819 
L 427.959523 343.063241 
L 430.314184 347.470442 
L 431.933014 350.007659 
L 433.139777 351.494899 
L 434.287675 352.569472 
L 435.406139 353.319762 
L 436.554036 353.817143 
L 437.7608 354.10628 
L 438.93813 354.162658 
L 442.205222 354.213261 
L 443.824051 354.555047 
L 445.88438 354.946353 
L 447.620942 354.973101 
L 448.50394 354.818129 
L 449.563537 354.389853 
L 450.858601 353.617191 
L 452.006498 352.665455 
L 453.595894 351.031276 
L 455.155857 349.067298 
L 456.509787 347.063797 
L 457.392785 345.357843 
L 459.60028 340.91713 
L 460.895343 338.91043 
L 461.484008 338.405838 
L 461.95494 338.274614 
L 462.455306 338.378231 
L 464.191868 339.026633 
L 464.957133 339.580887 
L 465.545798 340.249814 
L 466.222763 341.534361 
L 468.165359 345.363124 
L 470.990952 349.767102 
L 472.403748 351.45313 
L 473.581079 352.522963 
L 474.758409 353.29139 
L 475.93574 353.805651 
L 477.083637 354.067522 
L 478.614166 354.158035 
L 481.43976 354.238221 
L 486.85548 354.994521 
L 487.973944 354.728851 
L 489.269007 354.190982 
L 490.269738 353.505058 
L 491.564801 352.324892 
L 492.830432 350.909922 
L 495.449992 347.49125 
L 496.745055 345.180404 
L 499.570649 340.182556 
L 500.129881 339.667189 
L 500.600813 339.5073 
L 503.01434 339.246123 
L 503.632439 339.49549 
L 504.073938 339.967841 
L 504.750903 341.0871 
L 506.840664 344.728614 
L 509.489658 349.002698 
L 511.13792 351.083879 
L 512.344684 352.255681 
L 513.610314 353.166071 
L 514.787645 353.740122 
L 515.994408 354.077461 
L 517.289472 354.221342 
L 521.439562 354.445807 
L 525.619085 354.982829 
L 527.061315 354.712607 
L 527.973746 354.360246 
L 529.062777 353.684343 
L 530.387273 352.588469 
L 531.682337 351.200364 
L 534.066431 348.206569 
L 535.243761 346.239968 
L 536.892024 343.063559 
L 538.069355 340.790306 
L 538.65802 340.110604 
L 539.953083 339.249475 
L 540.688915 338.942213 
L 541.307013 338.921581 
L 541.925112 339.127497 
L 542.572644 339.591097 
L 543.337908 340.437075 
L 545.192204 343.002993 
L 549.106828 349.523252 
L 550.460758 351.22323 
L 551.696955 352.419134 
L 552.874285 353.256055 
L 554.022182 353.801887 
L 555.258379 354.154083 
L 556.465143 354.267722 
L 560.114867 354.39704 
L 564.588723 354.977454 
L 565.972086 354.809201 
L 566.972817 354.414307 
L 568.267881 353.648385 
L 569.386345 352.753157 
L 570.916874 351.203645 
L 572.50627 349.281236 
L 573.919067 347.266008 
L 574.890365 345.516356 
L 577.303892 340.835204 
L 578.716689 338.896468 
L 579.305354 338.473591 
L 579.805719 338.376643 
L 580.541551 338.526899 
L 581.777748 338.930568 
L 582.484146 339.39632 
L 583.219978 340.142363 
L 583.838076 341.243472 
L 586.428203 346.210785 
L 588.400232 349.403673 
L 589.724728 351.105381 
L 590.902059 352.274736 
L 592.020523 353.075523 
L 593.197853 353.648785 
L 594.316317 353.953672 
L 595.523081 354.04335 
L 597.701142 353.943991 
L 598.76074 354.004522 
L 600.379569 354.350636 
L 603.087429 354.91463 
L 604.353059 354.992592 
L 605.412657 354.798838 
L 606.737153 354.315031 
L 607.737884 353.713703 
L 608.944648 352.709235 
L 610.416311 351.191448 
L 612.800405 348.279627 
L 613.712836 346.741043 
L 616.067497 342.097073 
L 617.127095 340.060248 
L 617.686327 339.416269 
L 618.157259 339.18337 
L 619.275723 339.105972 
L 620.217587 339.182029 
L 620.953419 339.464119 
L 621.483217 339.873458 
L 622.013016 340.662082 
L 623.21978 343.022201 
L 624.39711 345.060343 
L 627.046104 349.261369 
L 628.664933 351.197917 
L 629.90113 352.356475 
L 631.137327 353.201441 
L 632.344091 353.759165 
L 633.609721 354.097646 
L 634.963651 354.240468 
L 639.408074 354.451724 
L 643.263831 354.952752 
L 644.764927 354.712901 
L 645.647925 354.403521 
L 646.707522 353.787254 
L 648.032019 352.748005 
L 649.297649 351.442144 
L 651.65231 348.599781 
L 652.711908 346.934702 
L 654.271871 343.990805 
L 655.979 340.566005 
L 656.538232 339.956996 
L 658.59856 338.544401 
L 659.216659 338.499833 
L 659.834757 338.676013 
L 660.511722 339.109771 
L 661.247554 339.859296 
L 662.92525 342.035013 
L 664.073147 344.223951 
L 665.36821 346.574967 
L 665.36821 346.574967 
" clip-path="url(#p1c6251312d)" style="fill: none; stroke: #1f77b4; stroke-width: 3; stroke-linecap: square"/>
   </g>
   <g id="line2d_8">
    <path d="M 76.732415 356.863128 
L 665.36821 356.863128 
L 665.36821 356.863128 
" clip-path="url(#p1c6251312d)" style="fill: none; stroke-dasharray: 2.96,1.28; stroke-dashoffset: 0; stroke: #808080; stroke-opacity: 0.7; stroke-width: 0.8"/>
   </g>
   <g id="line2d_9">
    <path d="M 76.732415 256.13242 
L 79.322542 255.85167 
L 82.177568 255.287418 
L 84.443929 255.023724 
L 86.209925 255.085642 
L 88.535153 255.042074 
L 89.565317 254.833758 
L 91.066413 254.270494 
L 92.420343 253.576547 
L 93.83314 252.550566 
L 95.18707 251.263431 
L 98.424728 248.046665 
L 99.307726 247.609472 
L 100.102424 247.445407 
L 100.749956 247.516548 
L 101.574087 247.868226 
L 103.987615 249.020679 
L 105.812477 249.619301 
L 106.666042 250.008244 
L 107.549039 250.726468 
L 109.697668 252.857946 
L 111.404797 254.478316 
L 112.640994 255.334421 
L 113.877191 255.919799 
L 115.260554 256.318363 
L 116.702784 256.488356 
L 122.53057 256.757391 
L 124.061099 256.570412 
L 125.032397 256.233155 
L 126.091994 255.614466 
L 127.328191 254.635676 
L 128.240622 253.538672 
L 129.741719 251.750591 
L 130.713016 250.619382 
L 132.184679 248.556738 
L 136.334769 241.94719 
L 138.012465 239.23478 
L 138.836596 238.31725 
L 139.454695 237.972159 
L 140.13166 237.850275 
L 140.749758 237.965431 
L 141.57389 238.385661 
L 142.309721 239.005574 
L 144.487783 241.262489 
L 145.164748 242.206344 
L 146.077179 243.908486 
L 148.372973 248.897242 
L 149.60917 251.28418 
L 150.698201 252.914454 
L 151.816665 254.217892 
L 152.905695 255.156312 
L 153.994726 255.804573 
L 155.20149 256.250328 
L 156.820319 256.593985 
L 159.410446 256.870923 
L 161.647374 256.903435 
L 163.119037 256.739606 
L 164.325801 256.376235 
L 165.444265 255.811677 
L 166.386129 255.045697 
L 168.475891 252.954188 
L 169.859254 251.161779 
L 173.685578 245.989479 
L 177.423602 239.43218 
L 178.13 238.726377 
L 178.954132 238.236041 
L 179.925429 237.893561 
L 180.425795 237.975899 
L 181.10276 238.352538 
L 182.898189 239.732668 
L 183.575154 240.545087 
L 184.428718 241.948366 
L 185.547182 244.26781 
L 186.783379 247.28513 
L 188.078443 250.192775 
L 189.196907 252.159553 
L 190.285937 253.659027 
L 191.345535 254.750926 
L 192.375699 255.506414 
L 193.523596 256.063491 
L 194.877526 256.463184 
L 196.672955 256.735042 
L 199.233649 256.920185 
L 201.264544 256.857138 
L 202.67734 256.582787 
L 203.766371 256.170013 
L 204.708235 255.546219 
L 206.591964 253.954362 
L 207.622128 252.720418 
L 209.034925 251.108259 
L 210.536021 249.542797 
L 211.595619 248.067461 
L 214.480078 243.362419 
L 216.775873 239.407832 
L 217.688304 238.433418 
L 218.600735 237.739894 
L 219.248267 237.542777 
L 219.954665 237.578159 
L 221.514628 237.963713 
L 222.221026 238.442851 
L 223.045157 239.279361 
L 223.869289 240.428402 
L 224.428521 241.538133 
L 225.370385 244.000188 
L 227.136381 248.584286 
L 228.372578 251.197349 
L 229.402742 252.87479 
L 230.432906 254.138565 
L 231.46307 255.058071 
L 232.552101 255.733785 
L 233.699998 256.191845 
L 235.259961 256.547687 
L 237.526322 256.834506 
L 239.792683 256.913457 
L 241.411513 256.738218 
L 242.441677 256.437707 
L 243.412974 255.910766 
L 244.796338 254.876527 
L 245.620469 253.968971 
L 247.386465 251.937311 
L 248.357762 250.961862 
L 249.976592 248.987461 
L 253.331983 244.254778 
L 254.715347 241.989112 
L 255.863244 240.432919 
L 256.657942 239.689005 
L 257.305474 239.407549 
L 258.070738 239.310249 
L 258.98317 239.435686 
L 259.836734 239.722364 
L 260.837465 240.363426 
L 261.985362 241.372516 
L 262.632894 242.16541 
L 263.368726 243.494819 
L 264.693222 246.456596 
L 266.694684 250.756063 
L 267.783715 252.565104 
L 268.872745 253.94227 
L 269.961776 254.974439 
L 271.050807 255.707602 
L 272.139837 256.181188 
L 273.493767 256.514728 
L 275.406929 256.748169 
L 278.350256 256.882686 
L 280.322284 256.747322 
L 281.529048 256.434107 
L 282.824111 255.849741 
L 283.677676 255.247849 
L 284.79614 254.160537 
L 287.150801 251.551709 
L 290.977125 246.254985 
L 292.066155 244.249908 
L 294.509116 239.936467 
L 295.215514 238.999881 
L 295.892479 238.445862 
L 296.863777 237.96296 
L 297.717342 237.742553 
L 298.276574 237.858532 
L 299.189005 238.316968 
L 300.807834 239.37859 
L 301.455366 240.190492 
L 302.220631 241.539098 
L 303.280228 243.922296 
L 306.54732 251.49052 
L 307.665784 253.189534 
L 308.725381 254.400259 
L 309.755546 255.247778 
L 310.844576 255.848941 
L 312.169073 256.310035 
L 313.729036 256.621862 
L 316.28973 256.890308 
L 318.497224 256.895248 
L 319.851154 256.681569 
L 321.116784 256.263455 
L 321.940916 255.770979 
L 323.14768 254.744715 
L 324.737076 253.147824 
L 327.327203 250.019818 
L 328.4751 248.620256 
L 329.622997 246.849608 
L 333.125555 240.578493 
L 333.97912 239.234545 
L 334.862118 238.229548 
L 336.274914 237.002567 
L 336.834146 236.852335 
L 337.481678 236.926063 
L 339.100507 237.424751 
L 339.689172 237.901771 
L 340.366137 238.749361 
L 341.131402 240.071431 
L 341.984967 242.003227 
L 345.399225 250.821369 
L 346.458823 252.648948 
L 347.488987 253.987697 
L 348.489718 254.936963 
L 349.549315 255.636344 
L 350.756079 256.157592 
L 352.168875 256.508541 
L 354.435236 256.820885 
L 356.848764 256.920279 
L 358.408727 256.762896 
L 359.733223 256.413452 
L 360.645655 255.92234 
L 362.205617 254.762782 
L 362.912016 254.084174 
L 365.590443 251.208335 
L 366.856073 249.887301 
L 368.033403 248.330896 
L 369.240167 246.751179 
L 370.62353 244.916542 
L 372.831025 241.7588 
L 373.831756 240.813087 
L 374.567587 240.389539 
L 375.362285 240.214817 
L 376.274716 240.258221 
L 377.746379 240.554827 
L 378.599944 241.040811 
L 379.600675 241.885624 
L 380.27764 242.693598 
L 380.984038 243.97511 
L 382.426268 247.201827 
L 384.192264 250.866584 
L 385.281294 252.646643 
L 386.340892 253.967889 
L 387.429922 254.983543 
L 388.548386 255.71847 
L 389.66685 256.198079 
L 391.050214 256.534607 
L 393.110542 256.78995 
L 395.700669 256.897413 
L 397.672697 256.74624 
L 398.850028 256.453586 
L 400.027358 255.92234 
L 401.175256 255.187318 
L 402.234853 254.176417 
L 405.943444 250.163369 
L 408.474704 246.873674 
L 409.387136 245.313224 
L 411.68293 241.176622 
L 412.713094 239.616171 
L 413.360626 239.024794 
L 414.155324 238.613903 
L 415.008888 238.405775 
L 415.626987 238.439534 
L 416.362818 238.7599 
L 418.128814 239.835332 
L 418.658613 240.333949 
L 419.335578 241.301893 
L 420.189142 242.952845 
L 421.601939 246.263501 
L 423.220768 250.038497 
L 424.280366 251.939616 
L 425.39883 253.509618 
L 426.458427 254.625725 
L 427.518025 255.421065 
L 428.636488 255.972402 
L 430.049285 256.40423 
L 431.815281 256.705706 
L 434.287675 256.913481 
L 436.31857 256.860502 
L 437.613633 256.599678 
L 438.820397 256.136631 
L 439.644528 255.595669 
L 440.910159 254.437146 
L 442.793887 252.474862 
L 444.501016 250.500038 
L 446.090413 248.847439 
L 447.179443 247.334886 
L 450.063903 242.629868 
L 451.564999 240.182799 
L 452.418564 239.299098 
L 453.713627 238.376487 
L 454.302292 238.191602 
L 454.949824 238.234747 
L 456.80412 238.735575 
L 457.451651 239.160017 
L 458.216916 239.950888 
L 459.011614 241.10527 
L 459.747446 242.547224 
L 460.807043 245.328397 
L 462.278706 249.013033 
L 463.57377 251.603864 
L 464.633367 253.22908 
L 465.663531 254.410445 
L 466.693696 255.257494 
L 467.812159 255.885029 
L 469.048356 256.320434 
L 470.726052 256.645834 
L 473.13958 256.892614 
L 475.199908 256.901318 
L 476.730438 256.670442 
L 477.760602 256.32241 
L 478.702466 255.748089 
L 480.291862 254.469235 
L 481.17486 253.436031 
L 482.61709 251.762213 
L 484.500819 249.864128 
L 485.648716 248.319157 
L 487.473578 245.766931 
L 488.533176 244.099252 
L 490.593504 240.663137 
L 491.564801 239.512519 
L 492.241766 238.996141 
L 492.948165 238.74395 
L 493.683996 238.717414 
L 494.949627 238.966287 
L 495.656025 239.333351 
L 496.568456 240.079147 
L 497.68692 241.300764 
L 498.275585 242.260169 
L 499.158583 244.187213 
L 501.866443 250.371238 
L 502.955474 252.275603 
L 504.015071 253.689374 
L 505.074668 254.75469 
L 506.163699 255.536479 
L 507.282163 256.068526 
L 508.60666 256.432084 
L 510.608122 256.725773 
L 513.345415 256.897036 
L 515.19971 256.792514 
L 516.347608 256.538747 
L 517.436638 256.063279 
L 518.672835 255.277984 
L 519.585266 254.388732 
L 523.67649 249.677526 
L 526.590383 245.749899 
L 530.26954 239.956604 
L 530.917072 239.446366 
L 531.682337 239.145385 
L 532.653634 238.992235 
L 533.389466 239.066716 
L 534.243031 239.464386 
L 535.920726 240.515634 
L 536.479958 241.075063 
L 537.186357 242.129604 
L 538.098788 243.937375 
L 539.894217 248.119922 
L 541.130414 250.742136 
L 542.219444 252.536545 
L 543.308475 253.933001 
L 544.368072 254.945761 
L 545.42767 255.65747 
L 546.575567 256.152511 
L 548.04723 256.529526 
L 550.225291 256.820579 
L 552.609386 256.95672 
L 554.434248 256.863395 
L 555.729311 256.559356 
L 556.847775 256.076242 
L 557.730773 255.427275 
L 559.614502 253.656815 
L 560.526933 252.572233 
L 562.734428 249.876502 
L 563.970625 248.305442 
L 565.147955 246.4338 
L 569.533511 238.785708 
L 570.328209 238.044334 
L 571.564406 237.238737 
L 572.094205 237.178959 
L 572.741736 237.358621 
L 574.566599 238.236465 
L 575.21413 238.84205 
L 576.008829 239.905766 
L 576.862393 241.432505 
L 577.657091 243.281375 
L 580.247218 249.867234 
L 581.424549 252.063171 
L 582.454713 253.532461 
L 583.484877 254.624501 
L 584.515041 255.394434 
L 585.662938 255.971861 
L 586.958002 256.375483 
L 588.959464 256.728478 
L 591.166958 256.917174 
L 592.99182 256.882498 
L 594.43405 256.620945 
L 595.434781 256.242377 
L 596.376645 255.617194 
L 598.142641 254.115651 
L 599.437705 252.562564 
L 600.409002 251.599912 
L 602.498764 249.803692 
L 603.617228 248.4752 
L 604.794558 247.130358 
L 606.207355 245.481335 
L 608.14995 243.068472 
L 609.209547 242.154447 
L 610.004245 241.730523 
L 610.828377 241.574362 
L 612.12344 241.620942 
L 613.418504 241.754495 
L 614.566401 242.162304 
L 615.478832 242.694539 
L 615.979198 243.275 
L 616.656163 244.454695 
L 618.068959 247.531557 
L 619.982121 251.41571 
L 621.041719 253.0509 
L 622.101316 254.291737 
L 623.160913 255.206515 
L 624.279377 255.880112 
L 625.427274 256.3122 
L 626.928371 256.619345 
L 629.106432 256.828108 
L 631.578826 256.883768 
L 633.462555 256.693308 
L 634.639885 256.357015 
L 635.905516 255.749147 
L 636.729647 255.164569 
L 637.789244 254.10697 
L 640.850303 250.619805 
L 644.88266 245.296733 
L 646.648656 242.563127 
L 648.002586 240.763213 
L 648.650118 240.257304 
L 649.385949 239.979212 
L 650.357247 239.857493 
L 651.122512 239.956134 
L 652.064376 240.400807 
L 654.271871 241.675897 
L 654.948836 242.52638 
L 655.772967 243.951679 
L 657.068031 246.707233 
L 658.834026 250.554499 
L 659.923057 252.364552 
L 661.041521 253.819445 
L 662.101118 254.848202 
L 663.160716 255.572144 
L 664.308613 256.077324 
L 665.36821 256.378823 
L 665.36821 256.378823 
" clip-path="url(#p1c6251312d)" style="fill: none; stroke: #ff7f0e; stroke-width: 3; stroke-linecap: square"/>
   </g>
   <g id="line2d_10">
    <path d="M 76.732415 258.191252 
L 665.36821 258.191252 
L 665.36821 258.191252 
" clip-path="url(#p1c6251312d)" style="fill: none; stroke-dasharray: 2.96,1.28; stroke-dashoffset: 0; stroke: #808080; stroke-opacity: 0.7; stroke-width: 0.8"/>
   </g>
   <g id="line2d_11">
    <path d="M 76.732415 108.390793 
L 77.14448 91.587419 
L 77.733146 67.381462 
L 77.968612 64.932982 
L 78.204078 64.312198 
L 78.49841 64.136841 
L 79.145942 64.10146 
L 79.94064 64.245951 
L 80.382139 64.53877 
L 80.705905 65.017061 
L 81.000238 65.873637 
L 81.29457 67.53007 
L 81.588903 70.591429 
L 81.971535 77.244852 
L 83.884697 114.951998 
L 84.738262 126.047474 
L 85.591826 134.354225 
L 86.445391 140.544601 
L 87.269522 144.995665 
L 88.093654 148.297757 
L 88.917785 150.711797 
L 89.741916 152.462825 
L 90.536614 153.66174 
L 91.331312 154.474724 
L 92.332043 155.140511 
L 93.421074 155.608428 
L 94.421805 155.797312 
L 95.275369 156.010027 
L 99.425459 157.294244 
L 101.426921 157.64444 
L 103.604982 157.80627 
L 105.93021 157.734801 
L 107.549039 157.767336 
L 109.815401 158.075916 
L 112.729294 158.453331 
L 113.818324 158.312439 
L 115.113388 157.910981 
L 115.702053 157.521592 
L 116.320151 156.833903 
L 117.055983 155.645668 
L 117.997847 153.664728 
L 118.939712 151.179901 
L 120.028742 147.69243 
L 120.82344 144.406359 
L 121.412106 141.059215 
L 121.912471 136.938869 
L 122.35397 131.429054 
L 122.736602 123.795288 
L 123.089802 112.026191 
L 123.472434 90.511306 
L 123.913933 67.548279 
L 124.149399 64.737017 
L 124.384865 64.194619 
L 124.708631 64.075252 
L 125.679929 64.07864 
L 126.41576 64.24167 
L 126.827826 64.551214 
L 127.181025 65.106786 
L 127.475357 66.00239 
L 127.76969 67.675033 
L 128.093456 71.094492 
L 128.505522 78.414196 
L 130.271517 113.414813 
L 131.125082 124.886458 
L 131.978646 133.471489 
L 132.832211 139.859594 
L 133.685776 144.658878 
L 134.53934 148.256071 
L 135.392905 150.929499 
L 136.275903 152.971981 
L 137.158901 154.480229 
L 138.071332 155.606781 
L 139.013196 156.418071 
L 140.013927 156.989828 
L 141.161824 157.381029 
L 142.604054 157.62442 
L 144.517216 157.703183 
L 146.72471 157.84224 
L 149.197104 158.223161 
L 151.463466 158.502311 
L 153.553227 158.474786 
L 154.289059 158.249956 
L 155.054323 157.7703 
L 155.937321 156.926028 
L 156.790886 155.831729 
L 157.703317 154.238743 
L 158.851214 151.762574 
L 159.704779 149.427226 
L 160.411177 146.823527 
L 160.999842 143.800537 
L 161.500208 140.072309 
L 161.941707 135.096281 
L 162.324339 128.205888 
L 162.677538 117.368131 
L 163.030737 98.507806 
L 163.589969 67.001765 
L 163.825435 64.603299 
L 164.060901 64.165566 
L 164.414101 64.067771 
L 165.532565 64.098801 
L 166.150663 64.282063 
L 166.533295 64.616309 
L 166.857061 65.222859 
L 167.151394 66.318946 
L 167.445727 68.433086 
L 167.769492 72.657272 
L 168.269858 82.817504 
L 169.476622 107.581667 
L 170.330186 120.477999 
L 171.183751 130.157846 
L 172.037315 137.432499 
L 172.89088 142.875597 
L 173.744444 146.924732 
L 174.598009 149.942993 
L 175.451574 152.205624 
L 176.334571 153.933221 
L 177.217569 155.185468 
L 178.13 156.10808 
L 179.071865 156.756246 
L 180.131462 157.20833 
L 181.426526 157.511264 
L 183.015922 157.641147 
L 186.283014 157.873082 
L 191.168935 158.562723 
L 192.316832 158.529388 
L 193.19983 158.245933 
L 194.141695 157.704053 
L 194.965826 157.004178 
L 195.731091 156.008521 
L 196.761255 154.265656 
L 198.026885 151.693692 
L 198.851016 149.502107 
L 199.557415 146.99232 
L 200.14608 144.073312 
L 200.646445 140.450195 
L 201.087944 135.460239 
L 201.470577 128.42879 
L 201.823776 117.454021 
L 202.176975 98.536201 
L 202.736207 67.033994 
L 202.971673 64.612098 
L 203.207139 64.168036 
L 203.560338 64.067866 
L 204.649369 64.096472 
L 205.267467 64.283215 
L 205.6501 64.627295 
L 205.973866 65.256971 
L 206.268198 66.392862 
L 206.591964 68.693369 
L 206.91573 72.805199 
L 207.416096 82.694679 
L 208.681726 108.40185 
L 209.53529 121.090595 
L 210.388855 130.647711 
L 211.24242 137.795775 
L 212.095984 143.113578 
L 212.978982 147.213975 
L 213.832547 150.177916 
L 214.686111 152.385851 
L 215.569109 154.067103 
L 216.452107 155.295095 
L 217.364538 156.19931 
L 218.335836 156.8499 
L 219.424866 157.302196 
L 220.690496 157.583345 
L 222.338759 157.701748 
L 225.488118 157.87327 
L 230.668372 158.548891 
L 231.845703 158.358807 
L 233.0819 157.947186 
L 233.729431 157.46626 
L 234.494696 156.596016 
L 235.52486 155.048622 
L 236.555024 153.145668 
L 237.555755 150.83601 
L 238.379887 148.361323 
L 239.027418 145.701845 
L 239.557217 142.514344 
L 240.028149 138.23939 
L 240.440215 132.354935 
L 240.793414 124.139533 
L 241.146613 110.092583 
L 241.588112 81.005616 
L 241.911878 66.767289 
L 242.147344 64.554626 
L 242.38281 64.15552 
L 242.736009 64.066195 
L 243.82504 64.100824 
L 244.443138 64.302506 
L 244.855204 64.676157 
L 245.17897 65.282072 
L 245.473303 66.340424 
L 245.767635 68.335997 
L 246.091401 72.31051 
L 246.562333 81.513337 
L 247.88683 108.581489 
L 248.740395 121.250308 
L 249.593959 130.754327 
L 250.447524 137.838238 
L 251.301088 143.153665 
L 252.154653 147.142858 
L 253.008218 150.113268 
L 253.861782 152.317275 
L 254.74478 154.012078 
L 255.627778 155.248727 
L 256.540209 156.158094 
L 257.511507 156.818776 
L 258.571104 157.267167 
L 259.807301 157.544129 
L 261.367264 157.655897 
L 264.369456 157.813375 
L 267.283349 158.311756 
L 269.137645 158.521437 
L 271.08024 158.446909 
L 271.786638 158.252214 
L 272.493037 157.824196 
L 273.258301 157.090586 
L 274.229599 155.826459 
L 275.112597 154.256787 
L 276.201628 151.845759 
L 277.055192 149.455739 
L 277.732157 146.870459 
L 278.320822 143.702673 
L 278.821188 139.773916 
L 279.262687 134.515443 
L 279.645319 127.275866 
L 279.998518 116.10238 
L 280.351717 96.737793 
L 280.881516 67.120003 
L 281.116982 64.628471 
L 281.352448 64.170953 
L 281.676214 64.071394 
L 282.706378 64.087674 
L 283.44221 64.277546 
L 283.854275 64.625201 
L 284.178041 65.21312 
L 284.472374 66.255216 
L 284.766707 68.241661 
L 285.090472 72.225655 
L 285.561405 81.473062 
L 286.885901 108.578925 
L 287.739466 121.233299 
L 288.593031 130.720145 
L 289.446595 137.834662 
L 290.30016 143.175943 
L 291.153724 147.159961 
L 292.007289 150.120138 
L 292.890287 152.406106 
L 293.773285 154.090228 
L 294.656282 155.314457 
L 295.598147 156.242197 
L 296.569444 156.88954 
L 297.629042 157.326097 
L 298.924105 157.614022 
L 300.513501 157.728025 
L 303.721727 157.904888 
L 309.225747 158.562982 
L 310.020445 158.477421 
L 310.844576 158.156561 
L 311.757007 157.542106 
L 312.698872 156.650242 
L 313.552436 155.476451 
L 314.729767 153.450554 
L 315.907097 151.018495 
L 316.731229 148.791434 
L 317.408194 146.30656 
L 317.967426 143.347512 
L 318.438358 139.575198 
L 318.850423 134.281603 
L 319.203622 126.841567 
L 319.556822 114.067473 
L 319.939454 90.120199 
L 320.35152 67.502711 
L 320.586986 64.694436 
L 320.822452 64.180787 
L 321.146218 64.071747 
L 322.146949 64.081275 
L 322.853347 64.261784 
L 323.235979 64.581962 
L 323.559745 65.174985 
L 323.854078 66.26385 
L 324.14841 68.326846 
L 324.472176 72.306276 
L 324.943108 81.468145 
L 326.297038 109.008871 
L 327.150603 121.55103 
L 328.004168 130.997931 
L 328.857732 138.070008 
L 329.711297 143.338573 
L 330.564861 147.271682 
L 331.418426 150.225554 
L 332.271991 152.426126 
L 333.125555 154.051106 
L 334.008553 155.279945 
L 334.920984 156.180231 
L 335.862848 156.806096 
L 336.951879 157.254886 
L 338.217509 157.534342 
L 339.895205 157.656956 
L 342.779665 157.863742 
L 347.812753 158.588107 
L 348.754617 158.489701 
L 349.784781 158.148915 
L 350.814945 157.580334 
L 351.49191 156.904173 
L 352.345475 155.703352 
L 353.522805 153.616854 
L 354.582403 151.309549 
L 355.435967 148.901414 
L 356.112932 146.34453 
L 356.672164 143.350829 
L 357.143096 139.562895 
L 357.555162 134.446938 
L 357.937795 126.738856 
L 358.290994 114.571548 
L 358.644193 93.91952 
L 359.115125 67.529271 
L 359.350591 64.710221 
L 359.586057 64.183986 
L 359.909823 64.071794 
L 360.910554 64.08151 
L 361.616952 64.26049 
L 361.999585 64.575845 
L 362.32335 65.138615 
L 362.647116 66.165232 
L 362.941449 67.923318 
L 363.265215 71.451088 
L 363.677281 78.831204 
L 365.413843 113.156271 
L 366.267408 124.688611 
L 367.120972 133.332902 
L 367.974537 139.773351 
L 368.828101 144.587244 
L 369.681666 148.211679 
L 370.53523 150.915596 
L 371.388795 152.918838 
L 372.271793 154.453175 
L 373.184224 155.600923 
L 374.126088 156.428446 
L 375.126819 157.011612 
L 376.245283 157.399943 
L 377.56978 157.621221 
L 379.453509 157.689421 
L 381.425537 157.801495 
L 384.722062 158.337328 
L 386.694091 158.548938 
L 388.224621 158.429547 
L 389.313651 158.179639 
L 390.020049 157.741905 
L 390.814748 156.960751 
L 391.844912 155.602264 
L 392.845643 153.906591 
L 394.022973 151.473919 
L 394.847104 149.234814 
L 395.494636 146.808918 
L 396.053868 143.839777 
L 396.554234 139.939463 
L 396.995732 134.646267 
L 397.378365 127.267985 
L 397.731564 115.776439 
L 398.084763 95.798008 
L 398.585129 67.371652 
L 398.820595 64.674628 
L 399.056061 64.179046 
L 399.379827 64.072618 
L 400.380558 64.086074 
L 401.116389 64.268183 
L 401.528455 64.597794 
L 401.852221 65.155389 
L 402.146553 66.146882 
L 402.440886 68.045414 
L 402.764652 71.890727 
L 403.206151 80.352344 
L 404.64838 109.707146 
L 405.501945 122.082629 
L 406.35551 131.354173 
L 407.209074 138.309965 
L 408.062639 143.531903 
L 408.916203 147.426219 
L 409.769768 150.319584 
L 410.652766 152.551986 
L 411.535764 154.193904 
L 412.418761 155.384844 
L 413.360626 156.284119 
L 414.331923 156.908007 
L 415.420954 157.336613 
L 416.745451 157.61007 
L 418.423147 157.71097 
L 421.219307 157.894302 
L 423.927167 158.352102 
L 425.663729 158.512285 
L 427.547458 158.485655 
L 428.312723 158.216715 
L 429.136854 157.686433 
L 430.167018 156.740814 
L 430.991149 155.663618 
L 432.109613 153.805315 
L 433.375244 151.294775 
L 434.258241 149.030262 
L 434.935206 146.695432 
L 435.494438 143.963167 
L 435.994804 140.315207 
L 436.40687 135.554599 
L 436.789502 128.276652 
L 437.142701 116.627251 
L 437.4959 96.323608 
L 437.996266 67.397953 
L 438.231732 64.671616 
L 438.467198 64.176034 
L 438.790964 64.071065 
L 439.821128 64.08351 
L 440.498093 64.259502 
L 440.880725 64.580503 
L 441.204491 65.181267 
L 441.498824 66.293727 
L 441.793156 68.450377 
L 442.116922 72.57931 
L 442.617288 82.539624 
L 443.882918 108.341626 
L 444.736483 121.046838 
L 445.590047 130.615928 
L 446.443612 137.785024 
L 447.297176 143.129434 
L 448.150741 147.111899 
L 449.004305 150.106258 
L 449.85787 152.340964 
L 450.711435 153.994528 
L 451.594432 155.247104 
L 452.506864 156.169127 
L 453.448728 156.816282 
L 454.508325 157.273189 
L 455.773956 157.572594 
L 457.363352 157.701701 
L 460.836477 157.919544 
L 465.486932 158.58726 
L 466.458229 158.513485 
L 467.54726 158.195754 
L 468.577424 157.679046 
L 469.254389 157.032644 
L 470.078521 155.906045 
L 471.226418 153.920847 
L 472.286015 151.681435 
L 473.169013 149.286687 
L 473.875411 146.737048 
L 474.434643 143.908353 
L 474.935009 140.144273 
L 475.376508 134.976067 
L 475.75914 127.704919 
L 476.112339 116.342455 
L 476.465538 96.842598 
L 476.995337 67.159972 
L 477.230803 64.634258 
L 477.466269 64.169965 
L 477.790035 64.070077 
L 478.820199 64.086192 
L 479.497164 64.269218 
L 479.879797 64.597253 
L 480.232996 65.220318 
L 480.527328 66.193792 
L 480.821661 68.004527 
L 481.145427 71.643547 
L 481.586926 79.801831 
L 483.146889 111.125905 
L 484.000453 123.164224 
L 484.854018 132.192188 
L 485.707582 138.920303 
L 486.561147 143.948487 
L 487.414712 147.7324 
L 488.268276 150.554625 
L 489.121841 152.645404 
L 490.004839 154.248482 
L 490.91727 155.449868 
L 491.829701 156.296869 
L 492.830432 156.922875 
L 493.919462 157.339954 
L 495.214526 157.595696 
L 496.951088 157.69836 
L 499.394049 157.840123 
L 505.280701 158.499205 
L 506.840664 158.255249 
L 507.517629 157.899759 
L 508.224027 157.270437 
L 509.107025 156.163858 
L 510.04889 154.645188 
L 511.079054 152.499148 
L 512.020918 150.041399 
L 512.75675 147.502911 
L 513.374848 144.51121 
L 513.904647 140.760422 
L 514.375579 135.658204 
L 514.787645 128.43326 
L 515.140844 118.03914 
L 515.494043 100.176049 
L 516.112141 66.454027 
L 516.347608 64.501623 
L 516.583074 64.14764 
L 516.965706 64.064384 
L 518.113603 64.117645 
L 518.731702 64.343252 
L 519.114334 64.729606 
L 519.4381 65.412072 
L 519.732433 66.620515 
L 520.026765 68.900037 
L 520.350531 73.321718 
L 520.909763 84.940607 
L 522.028227 107.700352 
L 522.881792 120.57624 
L 523.735356 130.234655 
L 524.588921 137.451507 
L 525.442485 142.880843 
L 526.29605 146.939671 
L 527.149615 149.953297 
L 528.032612 152.272365 
L 528.91561 153.985635 
L 529.798608 155.233436 
L 530.711039 156.152542 
L 531.682337 156.821858 
L 532.741934 157.275706 
L 534.036998 157.572641 
L 535.596961 157.694196 
L 538.864053 157.877646 
L 541.130414 158.271034 
L 543.161309 158.514544 
L 545.221637 158.514661 
L 545.986902 158.268752 
L 546.811033 157.758843 
L 547.782331 156.877354 
L 548.547596 155.894706 
L 549.57776 154.177013 
L 550.902257 151.5181 
L 551.755821 149.280241 
L 552.462219 146.801084 
L 553.050885 143.876289 
L 553.55125 140.187512 
L 553.963316 135.467956 
L 554.345948 128.295261 
L 554.699147 116.863609 
L 555.052346 96.930465 
L 555.582145 66.966736 
L 555.817611 64.588196 
L 556.053077 64.160884 
L 556.406276 64.066642 
L 557.52474 64.098331 
L 558.142839 64.291802 
L 558.525471 64.650256 
L 558.819804 65.235798 
L 559.114136 66.393238 
L 559.408469 68.649588 
L 559.761668 73.497381 
L 560.3209 85.139795 
L 561.439364 107.820142 
L 562.292929 120.655661 
L 563.146493 130.315841 
L 564.000058 137.561864 
L 564.853622 142.96838 
L 565.707187 146.990038 
L 566.560752 150.01091 
L 567.414316 152.267683 
L 568.267881 153.938561 
L 569.150879 155.203112 
L 570.06331 156.135016 
L 571.005174 156.790052 
L 572.064771 157.252793 
L 573.330402 157.561208 
L 574.890365 157.699207 
L 578.510656 157.947374 
L 582.660746 158.538939 
L 583.808643 158.543292 
L 584.750507 158.295853 
L 585.839538 157.769053 
L 586.48707 157.274765 
L 587.222901 156.402733 
L 588.194199 154.866419 
L 589.459829 152.422503 
L 590.401693 150.13804 
L 591.166958 147.710968 
L 591.785057 145.01058 
L 592.285422 141.836982 
L 592.726921 137.619312 
L 593.138987 131.377322 
L 593.492186 122.492203 
L 593.845385 107.146169 
L 594.669516 65.277391 
L 594.904982 64.286579 
L 595.169882 64.097319 
L 595.817413 64.058197 
L 596.818144 64.180363 
L 597.259643 64.439846 
L 597.583409 64.881061 
L 597.907175 65.734603 
L 598.201508 67.150138 
L 598.49584 69.725396 
L 598.849039 75.018309 
L 599.555438 90.171484 
L 600.526735 109.118075 
L 601.3803 121.642661 
L 602.233864 131.057097 
L 603.087429 138.085347 
L 603.940994 143.314201 
L 604.794558 147.252509 
L 605.648123 150.201088 
L 606.501687 152.389779 
L 607.384685 154.062374 
L 608.297116 155.321397 
L 609.209547 156.215331 
L 610.180845 156.865615 
L 611.240442 157.31297 
L 612.476639 157.589721 
L 614.036602 157.695819 
L 617.362561 157.825138 
L 622.866581 158.530259 
L 624.48541 158.310651 
L 625.191808 157.98071 
L 625.898207 157.398131 
L 626.751771 156.383442 
L 627.752502 154.834637 
L 628.929833 152.530483 
L 629.930563 150.143004 
L 630.607528 147.981249 
L 631.196194 145.328382 
L 631.725992 141.844463 
L 632.196925 137.156877 
L 632.60899 130.671001 
L 632.962189 121.590106 
L 633.285955 107.608721 
L 634.13952 65.079826 
L 634.374986 64.249339 
L 634.639885 64.091108 
L 635.346284 64.060055 
L 636.347014 64.196713 
L 636.817947 64.482144 
L 637.171146 64.988877 
L 637.465478 65.837667 
L 637.759811 67.475163 
L 638.054144 70.499093 
L 638.436776 77.069143 
L 640.408805 115.615785 
L 641.262369 126.519202 
L 642.115934 134.670639 
L 642.969498 140.79945 
L 643.823063 145.389171 
L 644.676627 148.80442 
L 645.559625 151.425646 
L 646.442623 153.370216 
L 647.325621 154.795538 
L 648.238052 155.85429 
L 649.179916 156.618059 
L 650.180647 157.149446 
L 651.357978 157.511923 
L 652.741341 157.702689 
L 658.451394 158.182062 
L 660.806055 158.497229 
L 662.92525 158.518849 
L 663.690514 158.280727 
L 664.485212 157.798578 
L 665.36821 157.02034 
L 665.36821 157.02034 
" clip-path="url(#p1c6251312d)" style="fill: none; stroke: #2ca02c; stroke-width: 3; stroke-linecap: square"/>
   </g>
   <g id="line2d_12">
    <path d="M 76.732415 159.519376 
L 665.36821 159.519376 
L 665.36821 159.519376 
" clip-path="url(#p1c6251312d)" style="fill: none; stroke-dasharray: 2.96,1.28; stroke-dashoffset: 0; stroke: #808080; stroke-opacity: 0.7; stroke-width: 0.8"/>
   </g>
   <g id="line2d_13">
    <path d="M 76.732415 374.72434 
L 106.165676 374.72434 
" clip-path="url(#p1c6251312d)" style="fill: none; stroke: #000000; stroke-width: 5; stroke-linecap: square"/>
   </g>
   <g id="text_5">
    <!-- 100ms -->
    <g transform="translate(64.219045 403.968577) scale(0.16 -0.16)">
     <defs>
      <path id="DejaVuSans-30" d="M 2034 4250 
Q 1547 4250 1301 3770 
Q 1056 3291 1056 2328 
Q 1056 1369 1301 889 
Q 1547 409 2034 409 
Q 2525 409 2770 889 
Q 3016 1369 3016 2328 
Q 3016 3291 2770 3770 
Q 2525 4250 2034 4250 
z
M 2034 4750 
Q 2819 4750 3233 4129 
Q 3647 3509 3647 2328 
Q 3647 1150 3233 529 
Q 2819 -91 2034 -91 
Q 1250 -91 836 529 
Q 422 1150 422 2328 
Q 422 3509 836 4129 
Q 1250 4750 2034 4750 
z
" transform="scale(0.015625)"/>
      <path id="DejaVuSans-6d" d="M 3328 2828 
Q 3544 3216 3844 3400 
Q 4144 3584 4550 3584 
Q 5097 3584 5394 3201 
Q 5691 2819 5691 2113 
L 5691 0 
L 5113 0 
L 5113 2094 
Q 5113 2597 4934 2840 
Q 4756 3084 4391 3084 
Q 3944 3084 3684 2787 
Q 3425 2491 3425 1978 
L 3425 0 
L 2847 0 
L 2847 2094 
Q 2847 2600 2669 2842 
Q 2491 3084 2119 3084 
Q 1678 3084 1418 2786 
Q 1159 2488 1159 1978 
L 1159 0 
L 581 0 
L 581 3500 
L 1159 3500 
L 1159 2956 
Q 1356 3278 1631 3431 
Q 1906 3584 2284 3584 
Q 2666 3584 2933 3390 
Q 3200 3197 3328 2828 
z
" transform="scale(0.015625)"/>
     </defs>
     <use xlink:href="#DejaVuSans-31"/>
     <use xlink:href="#DejaVuSans-30" x="63.623047"/>
     <use xlink:href="#DejaVuSans-30" x="127.246094"/>
     <use xlink:href="#DejaVuSans-6d" x="190.869141"/>
     <use xlink:href="#DejaVuSans-73" x="288.28125"/>
    </g>
   </g>
   <g id="text_6">
    <!-- Excitatory Synaptic Variable -->
    <g transform="translate(202.352813 25.43625) scale(0.24 -0.24)">
     <defs>
      <path id="DejaVuSans-45" d="M 628 4666 
L 3578 4666 
L 3578 4134 
L 1259 4134 
L 1259 2753 
L 3481 2753 
L 3481 2222 
L 1259 2222 
L 1259 531 
L 3634 531 
L 3634 0 
L 628 0 
L 628 4666 
z
" transform="scale(0.015625)"/>
      <path id="DejaVuSans-78" d="M 3513 3500 
L 2247 1797 
L 3578 0 
L 2900 0 
L 1881 1375 
L 863 0 
L 184 0 
L 1544 1831 
L 300 3500 
L 978 3500 
L 1906 2253 
L 2834 3500 
L 3513 3500 
z
" transform="scale(0.015625)"/>
      <path id="DejaVuSans-63" d="M 3122 3366 
L 3122 2828 
Q 2878 2963 2633 3030 
Q 2388 3097 2138 3097 
Q 1578 3097 1268 2742 
Q 959 2388 959 1747 
Q 959 1106 1268 751 
Q 1578 397 2138 397 
Q 2388 397 2633 464 
Q 2878 531 3122 666 
L 3122 134 
Q 2881 22 2623 -34 
Q 2366 -91 2075 -91 
Q 1284 -91 818 406 
Q 353 903 353 1747 
Q 353 2603 823 3093 
Q 1294 3584 2113 3584 
Q 2378 3584 2631 3529 
Q 2884 3475 3122 3366 
z
" transform="scale(0.015625)"/>
      <path id="DejaVuSans-69" d="M 603 3500 
L 1178 3500 
L 1178 0 
L 603 0 
L 603 3500 
z
M 603 4863 
L 1178 4863 
L 1178 4134 
L 603 4134 
L 603 4863 
z
" transform="scale(0.015625)"/>
      <path id="DejaVuSans-74" d="M 1172 4494 
L 1172 3500 
L 2356 3500 
L 2356 3053 
L 1172 3053 
L 1172 1153 
Q 1172 725 1289 603 
Q 1406 481 1766 481 
L 2356 481 
L 2356 0 
L 1766 0 
Q 1100 0 847 248 
Q 594 497 594 1153 
L 594 3053 
L 172 3053 
L 172 3500 
L 594 3500 
L 594 4494 
L 1172 4494 
z
" transform="scale(0.015625)"/>
      <path id="DejaVuSans-61" d="M 2194 1759 
Q 1497 1759 1228 1600 
Q 959 1441 959 1056 
Q 959 750 1161 570 
Q 1363 391 1709 391 
Q 2188 391 2477 730 
Q 2766 1069 2766 1631 
L 2766 1759 
L 2194 1759 
z
M 3341 1997 
L 3341 0 
L 2766 0 
L 2766 531 
Q 2569 213 2275 61 
Q 1981 -91 1556 -91 
Q 1019 -91 701 211 
Q 384 513 384 1019 
Q 384 1609 779 1909 
Q 1175 2209 1959 2209 
L 2766 2209 
L 2766 2266 
Q 2766 2663 2505 2880 
Q 2244 3097 1772 3097 
Q 1472 3097 1187 3025 
Q 903 2953 641 2809 
L 641 3341 
Q 956 3463 1253 3523 
Q 1550 3584 1831 3584 
Q 2591 3584 2966 3190 
Q 3341 2797 3341 1997 
z
" transform="scale(0.015625)"/>
      <path id="DejaVuSans-79" d="M 2059 -325 
Q 1816 -950 1584 -1140 
Q 1353 -1331 966 -1331 
L 506 -1331 
L 506 -850 
L 844 -850 
Q 1081 -850 1212 -737 
Q 1344 -625 1503 -206 
L 1606 56 
L 191 3500 
L 800 3500 
L 1894 763 
L 2988 3500 
L 3597 3500 
L 2059 -325 
z
" transform="scale(0.015625)"/>
      <path id="DejaVuSans-20" transform="scale(0.015625)"/>
      <path id="DejaVuSans-53" d="M 3425 4513 
L 3425 3897 
Q 3066 4069 2747 4153 
Q 2428 4238 2131 4238 
Q 1616 4238 1336 4038 
Q 1056 3838 1056 3469 
Q 1056 3159 1242 3001 
Q 1428 2844 1947 2747 
L 2328 2669 
Q 3034 2534 3370 2195 
Q 3706 1856 3706 1288 
Q 3706 609 3251 259 
Q 2797 -91 1919 -91 
Q 1588 -91 1214 -16 
Q 841 59 441 206 
L 441 856 
Q 825 641 1194 531 
Q 1563 422 1919 422 
Q 2459 422 2753 634 
Q 3047 847 3047 1241 
Q 3047 1584 2836 1778 
Q 2625 1972 2144 2069 
L 1759 2144 
Q 1053 2284 737 2584 
Q 422 2884 422 3419 
Q 422 4038 858 4394 
Q 1294 4750 2059 4750 
Q 2388 4750 2728 4690 
Q 3069 4631 3425 4513 
z
" transform="scale(0.015625)"/>
      <path id="DejaVuSans-70" d="M 1159 525 
L 1159 -1331 
L 581 -1331 
L 581 3500 
L 1159 3500 
L 1159 2969 
Q 1341 3281 1617 3432 
Q 1894 3584 2278 3584 
Q 2916 3584 3314 3078 
Q 3713 2572 3713 1747 
Q 3713 922 3314 415 
Q 2916 -91 2278 -91 
Q 1894 -91 1617 61 
Q 1341 213 1159 525 
z
M 3116 1747 
Q 3116 2381 2855 2742 
Q 2594 3103 2138 3103 
Q 1681 3103 1420 2742 
Q 1159 2381 1159 1747 
Q 1159 1113 1420 752 
Q 1681 391 2138 391 
Q 2594 391 2855 752 
Q 3116 1113 3116 1747 
z
" transform="scale(0.015625)"/>
      <path id="DejaVuSans-56" d="M 1831 0 
L 50 4666 
L 709 4666 
L 2188 738 
L 3669 4666 
L 4325 4666 
L 2547 0 
L 1831 0 
z
" transform="scale(0.015625)"/>
      <path id="DejaVuSans-62" d="M 3116 1747 
Q 3116 2381 2855 2742 
Q 2594 3103 2138 3103 
Q 1681 3103 1420 2742 
Q 1159 2381 1159 1747 
Q 1159 1113 1420 752 
Q 1681 391 2138 391 
Q 2594 391 2855 752 
Q 3116 1113 3116 1747 
z
M 1159 2969 
Q 1341 3281 1617 3432 
Q 1894 3584 2278 3584 
Q 2916 3584 3314 3078 
Q 3713 2572 3713 1747 
Q 3713 922 3314 415 
Q 2916 -91 2278 -91 
Q 1894 -91 1617 61 
Q 1341 213 1159 525 
L 1159 0 
L 581 0 
L 581 4863 
L 1159 4863 
L 1159 2969 
z
" transform="scale(0.015625)"/>
      <path id="DejaVuSans-6c" d="M 603 4863 
L 1178 4863 
L 1178 0 
L 603 0 
L 603 4863 
z
" transform="scale(0.015625)"/>
     </defs>
     <use xlink:href="#DejaVuSans-45"/>
     <use xlink:href="#DejaVuSans-78" x="63.183594"/>
     <use xlink:href="#DejaVuSans-63" x="120.613281"/>
     <use xlink:href="#DejaVuSans-69" x="175.59375"/>
     <use xlink:href="#DejaVuSans-74" x="203.376953"/>
     <use xlink:href="#DejaVuSans-61" x="242.585938"/>
     <use xlink:href="#DejaVuSans-74" x="303.865234"/>
     <use xlink:href="#DejaVuSans-6f" x="343.074219"/>
     <use xlink:href="#DejaVuSans-72" x="404.255859"/>
     <use xlink:href="#DejaVuSans-79" x="445.369141"/>
     <use xlink:href="#DejaVuSans-20" x="504.548828"/>
     <use xlink:href="#DejaVuSans-53" x="536.335938"/>
     <use xlink:href="#DejaVuSans-79" x="599.8125"/>
     <use xlink:href="#DejaVuSans-6e" x="658.992188"/>
     <use xlink:href="#DejaVuSans-61" x="722.371094"/>
     <use xlink:href="#DejaVuSans-70" x="783.650391"/>
     <use xlink:href="#DejaVuSans-74" x="847.126953"/>
     <use xlink:href="#DejaVuSans-69" x="886.335938"/>
     <use xlink:href="#DejaVuSans-63" x="914.119141"/>
     <use xlink:href="#DejaVuSans-20" x="969.099609"/>
     <use xlink:href="#DejaVuSans-56" x="1000.886719"/>
     <use xlink:href="#DejaVuSans-61" x="1061.544922"/>
     <use xlink:href="#DejaVuSans-72" x="1122.824219"/>
     <use xlink:href="#DejaVuSans-69" x="1163.9375"/>
     <use xlink:href="#DejaVuSans-61" x="1191.720703"/>
     <use xlink:href="#DejaVuSans-62" x="1253"/>
     <use xlink:href="#DejaVuSans-6c" x="1316.476562"/>
     <use xlink:href="#DejaVuSans-65" x="1344.259766"/>
    </g>
   </g>
  </g>
 </g>
 <defs>
  <clipPath id="p1c6251312d">
   <rect x="47.300625" y="48.522987" width="647.499375" height="341.73475"/>
  </clipPath>
 </defs>
</svg>
