<?xml version="1.0" encoding="utf-8" standalone="no"?>
<!DOCTYPE svg PUBLIC "-//W3C//DTD SVG 1.1//EN"
  "http://www.w3.org/Graphics/SVG/1.1/DTD/svg11.dtd">
<svg xmlns:xlink="http://www.w3.org/1999/xlink" width="702pt" height="410.402382pt" viewBox="0 0 702 410.402382" xmlns="http://www.w3.org/2000/svg" version="1.1">
 <metadata>
  <rdf:RDF xmlns:dc="http://purl.org/dc/elements/1.1/" xmlns:cc="http://creativecommons.org/ns#" xmlns:rdf="http://www.w3.org/1999/02/22-rdf-syntax-ns#">
   <cc:Work>
    <dc:type rdf:resource="http://purl.org/dc/dcmitype/StillImage"/>
    <dc:date>2025-10-24T18:04:41.922335</dc:date>
    <dc:format>image/svg+xml</dc:format>
    <dc:creator>
     <cc:Agent>
      <dc:title>Matplotlib v3.10.7, https://matplotlib.org/</dc:title>
     </cc:Agent>
    </dc:creator>
   </cc:Work>
  </rdf:RDF>
 </metadata>
 <defs>
  <style type="text/css">*{stroke-linejoin: round; stroke-linecap: butt}</style>
 </defs>
 <g id="figure_1">
  <g id="patch_1">
   <path d="M 0 410.402382 
L 702 410.402382 
L 702 0 
L 0 0 
z
" style="fill: #ffffff"/>
  </g>
  <g id="axes_1">
   <g id="patch_2">
    <path d="M 60.708125 386.3618 
L 694.8 386.3618 
L 694.8 88.1338 
L 60.708125 88.1338 
z
" style="fill: #ffffff"/>
   </g>
   <g id="matplotlib.axis_1"/>
   <g id="matplotlib.axis_2">
    <g id="ytick_1">
     <g id="line2d_1">
      <defs>
       <path id="me6a1c3eb7a" d="M 0 0 
L -5 0 
" style="stroke: #000000; stroke-width: 0.8"/>
      </defs>
      <g>
       <use xlink:href="#me6a1c3eb7a" x="60.708125" y="348.994517" style="stroke: #000000; stroke-width: 0.8"/>
      </g>
     </g>
     <g id="text_1">
      <!-- −2 -->
      <g transform="translate(28.620625 355.073267) scale(0.16 -0.16)">
       <defs>
        <path id="DejaVuSans-2212" d="M 678 2272 
L 4684 2272 
L 4684 1741 
L 678 1741 
L 678 2272 
z
" transform="scale(0.015625)"/>
        <path id="DejaVuSans-32" d="M 1228 531 
L 3431 531 
L 3431 0 
L 469 0 
L 469 531 
Q 828 903 1448 1529 
Q 2069 2156 2228 2338 
Q 2531 2678 2651 2914 
Q 2772 3150 2772 3378 
Q 2772 3750 2511 3984 
Q 2250 4219 1831 4219 
Q 1534 4219 1204 4116 
Q 875 4013 500 3803 
L 500 4441 
Q 881 4594 1212 4672 
Q 1544 4750 1819 4750 
Q 2544 4750 2975 4387 
Q 3406 4025 3406 3419 
Q 3406 3131 3298 2873 
Q 3191 2616 2906 2266 
Q 2828 2175 2409 1742 
Q 1991 1309 1228 531 
z
" transform="scale(0.015625)"/>
       </defs>
       <use xlink:href="#DejaVuSans-2212"/>
       <use xlink:href="#DejaVuSans-32" transform="translate(83.789062 0)"/>
      </g>
     </g>
    </g>
    <g id="ytick_2">
     <g id="line2d_2">
      <g>
       <use xlink:href="#me6a1c3eb7a" x="60.708125" y="292.262242" style="stroke: #000000; stroke-width: 0.8"/>
      </g>
     </g>
     <g id="text_2">
      <!-- −1 -->
      <g transform="translate(28.620625 298.340992) scale(0.16 -0.16)">
       <defs>
        <path id="DejaVuSans-31" d="M 794 531 
L 1825 531 
L 1825 4091 
L 703 3866 
L 703 4441 
L 1819 4666 
L 2450 4666 
L 2450 531 
L 3481 531 
L 3481 0 
L 794 0 
L 794 531 
z
" transform="scale(0.015625)"/>
       </defs>
       <use xlink:href="#DejaVuSans-2212"/>
       <use xlink:href="#DejaVuSans-31" transform="translate(83.789062 0)"/>
      </g>
     </g>
    </g>
    <g id="ytick_3">
     <g id="line2d_3">
      <g>
       <use xlink:href="#me6a1c3eb7a" x="60.708125" y="235.529967" style="stroke: #000000; stroke-width: 0.8"/>
      </g>
     </g>
     <g id="text_3">
      <!-- 0 -->
      <g transform="translate(42.028125 241.608717) scale(0.16 -0.16)">
       <defs>
        <path id="DejaVuSans-30" d="M 2034 4250 
Q 1547 4250 1301 3770 
Q 1056 3291 1056 2328 
Q 1056 1369 1301 889 
Q 1547 409 2034 409 
Q 2525 409 2770 889 
Q 3016 1369 3016 2328 
Q 3016 3291 2770 3770 
Q 2525 4250 2034 4250 
z
M 2034 4750 
Q 2819 4750 3233 4129 
Q 3647 3509 3647 2328 
Q 3647 1150 3233 529 
Q 2819 -91 2034 -91 
Q 1250 -91 836 529 
Q 422 1150 422 2328 
Q 422 3509 836 4129 
Q 1250 4750 2034 4750 
z
" transform="scale(0.015625)"/>
       </defs>
       <use xlink:href="#DejaVuSans-30"/>
      </g>
     </g>
    </g>
    <g id="ytick_4">
     <g id="line2d_4">
      <g>
       <use xlink:href="#me6a1c3eb7a" x="60.708125" y="178.797692" style="stroke: #000000; stroke-width: 0.8"/>
      </g>
     </g>
     <g id="text_4">
      <!-- 1 -->
      <g transform="translate(42.028125 184.876442) scale(0.16 -0.16)">
       <use xlink:href="#DejaVuSans-31"/>
      </g>
     </g>
    </g>
    <g id="ytick_5">
     <g id="line2d_5">
      <g>
       <use xlink:href="#me6a1c3eb7a" x="60.708125" y="122.065417" style="stroke: #000000; stroke-width: 0.8"/>
      </g>
     </g>
     <g id="text_5">
      <!-- 2 -->
      <g transform="translate(42.028125 128.144167) scale(0.16 -0.16)">
       <use xlink:href="#DejaVuSans-32"/>
      </g>
     </g>
    </g>
    <g id="text_6">
     <!-- x -->
     <g transform="translate(20.877188 242.574675) rotate(-90) scale(0.18 -0.18)">
      <defs>
       <path id="DejaVuSans-78" d="M 3513 3500 
L 2247 1797 
L 3578 0 
L 2900 0 
L 1881 1375 
L 863 0 
L 184 0 
L 1544 1831 
L 300 3500 
L 978 3500 
L 1906 2253 
L 2834 3500 
L 3513 3500 
z
" transform="scale(0.015625)"/>
      </defs>
      <use xlink:href="#DejaVuSans-78"/>
     </g>
    </g>
   </g>
   <g id="line2d_6">
    <path d="M 89.530483 219.606633 
L 90.533521 215.132763 
L 91.340563 210.477013 
L 92.124547 204.603339 
L 92.897002 197.048779 
L 93.692515 186.967957 
L 94.568732 172.838183 
L 95.871529 147.583245 
L 96.793862 131.681728 
L 97.278088 126.662149 
L 97.577846 125.33383 
L 97.716196 125.246646 
L 97.739255 125.265458 
L 97.877605 125.579937 
L 98.096659 126.781808 
L 98.407947 129.914995 
L 98.857585 137.028768 
L 99.514747 151.581096 
L 101.613057 200.480962 
L 102.385512 212.36768 
L 103.10032 220.154961 
L 103.780542 225.292344 
L 104.449234 228.74767 
L 105.129455 231.144093 
L 105.832735 232.848127 
L 106.685894 234.32001 
L 109.568187 238.834591 
L 110.352171 240.787342 
L 111.078509 243.214316 
L 111.793317 246.406603 
L 112.496597 250.593953 
L 113.199877 256.194262 
L 113.903156 263.656053 
L 114.629494 273.853243 
L 115.401949 288.019378 
L 116.312754 309.282263 
L 117.915309 347.509958 
L 118.330359 352.379594 
L 118.584001 353.369618 
L 118.676234 353.32028 
L 118.814584 352.82285 
L 119.033639 350.97568 
L 119.356455 345.96758 
L 119.817622 334.754104 
L 120.590077 309.386416 
L 121.973578 264.693304 
L 122.769091 246.19032 
L 123.506958 233.933326 
L 124.233296 225.408014 
L 125.01728 218.802493 
L 125.98573 212.563354 
L 127.795811 201.249733 
L 128.695086 193.96776 
L 129.605891 184.693597 
L 130.631987 171.820888 
L 132.880176 142.689212 
L 133.352872 139.530315 
L 133.66416 138.628267 
L 133.848627 138.578975 
L 134.010035 138.838713 
L 134.252148 139.754414 
L 134.586494 142.010758 
L 135.036132 146.708813 
L 135.693295 156.226929 
L 138.2643 196.023329 
L 139.002168 203.003085 
L 139.647801 207.192234 
L 140.212731 209.554954 
L 140.696956 210.742067 
L 141.088948 211.196417 
L 141.400236 211.253239 
L 141.699994 211.067389 
L 142.057399 210.555089 
L 142.518566 209.4582 
L 143.060437 207.537182 
L 143.683012 204.441479 
L 144.386292 199.726323 
L 145.147217 193.031421 
L 145.965789 183.732527 
L 146.934239 170.014139 
L 149.124782 137.776842 
L 149.57442 134.511061 
L 149.862649 133.680696 
L 150.012529 133.675798 
L 150.162408 133.969075 
L 150.392991 134.998451 
L 150.727337 137.678808 
L 151.188504 143.431377 
L 151.857196 155.021382 
L 154.151502 197.110391 
L 154.912427 206.111468 
L 155.592649 211.741008 
L 156.215224 215.191073 
L 156.768624 217.13934 
L 157.25285 218.112681 
L 157.656371 218.476559 
L 158.002246 218.509824 
L 158.348121 218.304875 
L 158.751642 217.773665 
L 159.235868 216.732351 
L 159.812326 214.927576 
L 160.45796 212.12474 
L 161.14971 208.067727 
L 161.887578 202.325154 
L 162.636974 194.687673 
L 163.432487 184.180723 
L 164.354821 168.852035 
L 166.637597 129.032485 
L 167.01806 126.35175 
L 167.248643 125.874681 
L 167.363935 125.983647 
L 167.536873 126.587543 
L 167.790514 128.415449 
L 168.159448 132.92953 
L 168.666732 142.202065 
L 169.542949 163.149257 
L 170.891862 194.497563 
L 171.698904 208.23506 
L 172.425242 217.087162 
L 173.116993 222.96119 
L 173.785685 226.842012 
L 174.442848 229.418289 
L 175.11154 231.186712 
L 175.826349 232.456331 
L 176.656449 233.48087 
L 178.512646 235.267925 
L 179.527213 236.482218 
L 180.334256 237.799808 
L 181.095181 239.484173 
L 181.80999 241.62039 
L 182.513269 244.460515 
L 183.216549 248.278384 
L 183.908299 253.320936 
L 184.60005 260.081316 
L 185.303329 269.249567 
L 186.041197 282.019116 
L 186.859768 300.339587 
L 189.142544 354.919026 
L 189.430774 356.680982 
L 189.523007 356.752032 
L 189.557595 356.715297 
L 189.684415 356.283102 
L 189.891941 354.572938 
L 190.203228 349.773084 
L 190.629808 339.230219 
L 191.321558 315.667487 
L 192.866467 262.202904 
L 193.650451 243.115156 
L 194.376789 230.48269 
L 195.114656 221.37789 
L 195.887111 214.529389 
L 196.970853 207.086503 
L 198.642583 195.694315 
L 199.634092 187.123852 
L 200.660189 176.177378 
L 203.381074 145.763783 
L 203.830712 143.501913 
L 204.13047 142.890802 
L 204.303408 142.895839 
L 204.487875 143.200376 
L 204.753046 144.171921 
L 205.121979 146.523693 
L 205.617734 151.312262 
L 206.355601 160.920431 
L 208.546144 190.575851 
L 209.318598 197.566477 
L 209.975761 201.678821 
L 210.55222 203.992572 
L 211.024916 205.068354 
L 211.38232 205.418132 
L 211.67055 205.425625 
L 211.970308 205.187987 
L 212.339242 204.574907 
L 212.800409 203.336315 
L 213.34228 201.18468 
L 213.976385 197.67809 
L 214.702723 192.328466 
L 215.532823 184.462823 
L 216.478215 173.201721 
L 218.9224 142.773751 
L 219.383567 140.055818 
L 219.671796 139.372766 
L 219.844734 139.370973 
L 220.017672 139.682291 
L 220.271313 140.705319 
L 220.617189 143.151474 
L 221.101414 148.395138 
L 221.839281 159.229773 
L 224.006766 192.530744 
L 224.77922 200.486522 
L 225.447912 205.283207 
L 226.0359 208.059284 
L 226.543184 209.488796 
L 226.958234 210.068914 
L 227.29258 210.19565 
L 227.592339 210.067584 
L 227.926685 209.653807 
L 228.341735 208.743477 
L 228.849019 207.043559 
L 229.471594 204.109497 
L 230.151815 199.800041 
L 230.901212 193.52128 
L 231.719783 184.676866 
L 232.676704 171.745003 
L 235.051714 138.085301 
L 235.478294 135.387725 
L 235.754994 134.738065 
L 235.904873 134.777086 
L 236.077811 135.176323 
L 236.331453 136.458399 
L 236.688857 139.595634 
L 237.184611 146.191303 
L 237.945537 159.766941 
L 239.755617 192.65482 
L 240.562659 202.963931 
L 241.265939 209.312242 
L 241.900043 213.190313 
L 242.464973 215.399541 
L 242.960727 216.531088 
L 243.375778 216.99386 
L 243.710124 217.070781 
L 244.032941 216.906709 
L 244.413403 216.429041 
L 244.886099 215.43755 
L 245.4395 213.736774 
L 246.062075 211.060249 
L 246.742296 207.107102 
L 247.468634 201.521237 
L 248.22956 193.842447 
L 249.048131 183.191376 
L 249.981994 167.925116 
L 252.126421 131.495792 
L 252.541471 128.320072 
L 252.795113 127.644007 
L 252.921934 127.691075 
L 253.083342 128.12895 
L 253.325455 129.57641 
L 253.659801 133.114314 
L 254.132497 140.776384 
L 254.870364 156.94326 
L 256.588211 195.370245 
L 257.395253 208.125526 
L 258.121591 216.285389 
L 258.801812 221.568519 
L 259.447446 224.945443 
L 260.070021 227.106096 
L 260.669538 228.439295 
L 261.257526 229.234687 
L 261.822456 229.646903 
L 262.410444 229.803234 
L 263.02149 229.733063 
L 263.690182 229.426317 
L 264.404991 228.846858 
L 265.142858 227.94936 
L 265.869196 226.707365 
L 266.584004 225.034084 
L 267.287284 222.803789 
L 267.990564 219.783508 
L 268.693843 215.734977 
L 269.385594 210.400669 
L 270.077344 203.246899 
L 270.792153 193.414093 
L 271.53002 179.993888 
L 272.383179 160.106843 
L 274.32008 112.764808 
L 274.677484 109.388479 
L 274.850422 108.987518 
L 274.87348 108.998334 
L 274.977243 109.236507 
L 275.150181 110.322611 
L 275.415352 113.616972 
L 275.795814 121.495777 
L 276.349215 138.256961 
L 278.666579 214.120951 
L 279.415975 229.107264 
L 280.142313 239.400408 
L 280.88018 246.854385 
L 281.767926 253.517224 
L 284.581045 273.138251 
L 285.537966 282.479742 
L 286.690884 296.144201 
L 288.466376 317.23669 
L 289.031306 321.388431 
L 289.411769 322.816456 
L 289.653881 323.063615 
L 289.80376 322.946184 
L 290.011286 322.437387 
L 290.311044 321.000589 
L 290.714565 317.833974 
L 291.291024 311.296761 
L 292.236416 297.646864 
L 293.689092 277.217615 
L 294.507663 268.749042 
L 295.199414 263.707544 
L 295.798931 260.81583 
L 296.306214 259.345346 
L 296.709736 258.761375 
L 297.032552 258.637187 
L 297.320782 258.762998 
L 297.655128 259.173772 
L 298.058649 260.056217 
L 298.554403 261.729711 
L 299.142391 264.55791 
L 299.845671 269.111347 
L 300.606596 275.547209 
L 301.471284 284.908493 
L 302.578085 299.571403 
L 304.169111 320.527179 
L 304.722511 325.058451 
L 305.091445 326.554497 
L 305.310499 326.766868 
L 305.460378 326.609953 
L 305.667904 325.986585 
L 305.967662 324.277703 
L 306.394241 320.357772 
L 306.959171 312.872318 
L 307.985267 295.692347 
L 309.253477 275.554241 
L 310.072048 265.924155 
L 310.775328 260.094396 
L 311.397903 256.637066 
L 311.939774 254.770683 
L 312.389412 253.918482 
L 312.746816 253.650029 
L 313.035046 253.684889 
L 313.346333 253.96308 
L 313.738325 254.650076 
L 314.23408 256.02177 
L 314.799009 258.282257 
L 315.444643 261.840005 
L 316.159452 267.08847 
L 316.931906 274.459131 
L 317.773536 284.752532 
L 318.83422 300.710227 
L 320.471363 325.426032 
L 320.990175 330.083147 
L 321.336051 331.537337 
L 321.532047 331.678907 
L 321.670397 331.467924 
L 321.877922 330.666304 
L 322.17768 328.507801 
L 322.60426 323.60498 
L 323.192248 314.038881 
L 324.667982 284.7953 
L 325.624903 268.799586 
L 326.397358 259.357926 
L 327.089108 253.442645 
L 327.711684 249.865772 
L 328.276613 247.789327 
L 328.760839 246.750049 
L 329.16436 246.337544 
L 329.510235 246.269585 
L 329.85611 246.434623 
L 330.248102 246.894378 
L 330.720798 247.828166 
L 331.285728 249.484361 
L 331.919832 252.069344 
L 332.600053 255.820949 
L 333.326391 261.152712 
L 334.087317 268.496525 
L 334.871301 278.362709 
L 335.759047 292.579226 
L 337.073373 317.88059 
L 337.972648 333.178416 
L 338.456874 338.141003 
L 338.756632 339.44545 
L 338.894982 339.527161 
L 338.918041 339.507848 
L 339.056391 339.193037 
L 339.275445 338.000675 
L 339.598262 334.758894 
L 340.0479 327.653822 
L 340.716592 312.90367 
L 342.780314 265.140898 
L 343.552769 253.260252 
L 344.267577 245.468942 
L 344.947799 240.332466 
L 345.604961 236.939708 
L 346.273654 234.591695 
L 346.953875 232.966991 
L 347.737859 231.66861 
L 348.821601 230.34052 
L 350.401098 228.377244 
L 351.265786 226.900146 
L 352.026711 225.14705 
L 352.764578 222.856502 
L 353.479387 219.875835 
L 354.171138 215.999193 
L 354.874417 210.716613 
L 355.577697 203.663814 
L 356.292506 194.123983 
L 357.053431 180.72517 
L 357.883532 161.837521 
L 359.912666 113.463031 
L 360.258541 110.432378 
L 360.431479 110.078187 
L 360.443008 110.08402 
L 360.546771 110.305402 
L 360.719708 111.354947 
L 360.984879 114.59532 
L 361.365342 122.390914 
L 361.941801 139.461179 
L 364.236106 213.05863 
L 364.985503 227.890813 
L 365.711841 238.07995 
L 366.461237 245.571725 
L 367.325925 251.946841 
L 370.208218 271.656361 
L 371.142081 280.733494 
L 372.202765 293.391012 
L 374.347192 319.650913 
L 374.866004 323.164181 
L 375.21188 324.245084 
L 375.407876 324.352613 
L 375.569284 324.158014 
L 375.799868 323.433587 
L 376.122684 321.554833 
L 376.560793 317.518025 
L 377.194898 309.32826 
L 378.705219 285.847792 
L 379.685199 272.934763 
L 380.457654 265.483865 
L 381.126346 261.039507 
L 381.702805 258.562264 
L 382.18703 257.356981 
L 382.567493 256.917091 
L 382.87878 256.857896 
L 383.178539 257.035349 
L 383.524414 257.525059 
L 383.950993 258.555107 
L 384.469806 260.443783 
L 385.092382 263.616892 
L 385.80719 268.475811 
L 386.568116 275.263788 
L 387.432804 285.09356 
L 388.528075 300.334062 
L 390.107572 322.218393 
L 390.649443 326.82391 
L 391.006848 328.283192 
L 391.214373 328.475979 
L 391.352723 328.328121 
L 391.560248 327.690545 
L 391.860007 325.906444 
L 392.263528 321.95138 
L 392.839986 313.79453 
L 393.877612 295.220361 
L 395.111234 274.523662 
L 395.918276 264.510418 
L 396.633085 258.223078 
L 397.267189 254.474402 
L 397.820589 252.397033 
L 398.293286 251.394068 
L 398.673748 251.04679 
L 398.985036 251.035034 
L 399.307853 251.255687 
L 399.688316 251.813192 
L 400.149483 252.921088 
L 400.702883 254.878494 
L 401.348517 258.043269 
L 402.040267 262.600783 
L 402.789663 269.111014 
L 403.596705 278.195728 
L 404.484452 290.845433 
L 405.879482 314.641478 
L 406.778757 328.163803 
L 407.286041 332.87706 
L 407.608858 334.222434 
L 407.781796 334.334056 
L 407.920146 334.107087 
L 408.127671 333.235477 
L 408.427429 330.871057 
L 408.84248 325.605942 
L 409.453526 314.629672 
L 412.162882 262.189241 
L 412.900749 253.787731 
L 413.58097 248.428144 
L 414.215075 245.094267 
L 414.791533 243.159973 
L 415.310346 242.136466 
L 415.771513 241.676884 
L 416.163505 241.571633 
L 416.543968 241.698564 
L 416.982076 242.100353 
L 417.500889 242.903444 
L 418.088877 244.255142 
L 418.734511 246.329453 
L 419.426261 249.341927 
L 420.14107 253.516405 
L 420.867408 259.156485 
L 421.605275 266.718966 
L 422.3662 276.927433 
L 423.196301 291.270408 
L 424.280043 314.307483 
L 425.432961 337.733435 
L 425.917186 343.603112 
L 426.216944 345.151935 
L 426.343765 345.252763 
L 426.366824 345.234492 
L 426.493645 344.93115 
L 426.70117 343.696799 
L 427.000928 340.357889 
L 427.427508 332.806722 
L 428.061612 316.928685 
L 430.159922 261.342395 
L 430.932376 247.963014 
L 431.647185 239.166083 
L 432.361994 232.982948 
L 433.099861 228.474018 
L 433.95302 224.617462 
L 436.524026 213.888765 
L 437.331068 208.961251 
L 438.103523 202.806384 
L 438.875977 194.787294 
L 439.694549 183.844518 
L 440.616882 168.29677 
L 442.842013 129.116157 
L 443.234005 126.265896 
L 443.476118 125.742388 
L 443.591409 125.845195 
L 443.764347 126.431569 
L 444.017989 128.224734 
L 444.375393 132.591794 
L 444.882677 141.890221 
L 445.735836 162.411996 
L 447.107807 194.541923 
L 447.926379 208.55104 
L 448.652717 217.435885 
L 449.344467 223.339811 
L 450.013159 227.231586 
L 450.681851 229.882812 
L 451.362072 231.705795 
L 452.111469 233.085493 
L 453.045332 234.317098 
L 455.224346 237.046288 
L 456.042917 238.537791 
L 456.803842 240.404331 
L 457.53018 242.799 
L 458.23346 245.923488 
L 458.93674 250.106765 
L 459.640019 255.707034 
L 460.343299 263.19807 
L 461.058108 273.303877 
L 461.819033 287.484091 
L 462.706779 308.524358 
L 464.390039 349.729604 
L 464.79356 354.363519 
L 465.024143 355.156234 
L 465.116377 355.059801 
L 465.266256 354.389491 
L 465.496839 352.129593 
L 465.842715 346.136766 
L 466.32694 333.252471 
L 467.214686 302.289704 
L 468.379133 264.000201 
L 469.174646 244.916278 
L 469.900984 232.458048 
L 470.627322 223.599484 
L 471.388247 216.933812 
L 472.414344 210.020721 
L 474.224424 198.117302 
L 475.169816 190.098387 
L 476.138267 179.831501 
L 477.406476 163.689741 
L 478.732331 147.452989 
L 479.320319 142.73604 
L 479.712311 141.105772 
L 479.954423 140.804065 
L 480.104303 140.903673 
L 480.300299 141.370027 
L 480.588528 142.741748 
L 480.98052 145.84413 
L 481.53392 152.226029 
L 482.398608 165.097489 
L 483.989634 188.638752 
L 484.808205 197.450533 
L 485.499956 202.692486 
L 486.111002 205.764641 
L 486.629815 207.338797 
L 487.044865 207.983166 
L 487.379211 208.144985 
L 487.667441 208.046899 
L 487.990257 207.677808 
L 488.393779 206.833712 
L 488.889533 205.223326 
L 489.48905 202.45676 
L 490.169271 198.217044 
L 490.918668 192.035043 
L 491.748768 183.235199 
L 492.751806 170.031032 
L 494.873174 141.121287 
L 495.34587 137.775943 
L 495.657158 136.818213 
L 495.841625 136.759964 
L 496.003033 137.028955 
L 496.233617 137.935663 
L 496.556434 140.238094 
L 497.006071 145.242249 
L 497.651705 155.217773 
L 500.153536 196.60235 
L 500.902932 204.333799 
L 501.571624 209.090452 
L 502.171141 211.873152 
L 502.678425 213.274957 
L 503.093475 213.848011 
L 503.427821 213.97937 
L 503.739109 213.868281 
L 504.084984 213.489548 
L 504.511563 212.651429 
L 505.018847 211.122045 
L 505.629893 208.510887 
L 506.298585 204.63702 
L 507.024923 199.040335 
L 507.797378 191.275497 
L 508.650537 180.306858 
L 509.665104 164.099081 
L 511.348364 137.018991 
L 511.855647 132.331048 
L 512.178464 130.999585 
L 512.351402 130.892257 
L 512.489752 131.121232 
L 512.697277 131.993732 
L 512.997035 134.355252 
L 513.412086 139.60764 
L 514.023132 150.541632 
L 516.732488 202.815587 
L 517.470355 211.194286 
L 518.150576 216.537647 
L 518.773151 219.809531 
L 519.34961 221.750055 
L 519.856894 222.755574 
L 520.318061 223.217811 
L 520.710053 223.323552 
L 521.090515 223.194014 
L 521.517095 222.797917 
L 522.035908 221.985444 
L 522.623895 220.617972 
L 523.269529 218.516566 
L 523.96128 215.462934 
L 524.676088 211.23194 
L 525.402426 205.521719 
L 526.140293 197.869574 
L 526.901219 187.579487 
L 527.731319 173.136624 
L 528.861178 149.077515 
L 529.933392 127.614728 
L 530.417617 121.797896 
L 530.717375 120.250672 
L 530.844196 120.144655 
L 530.867255 120.16175 
L 530.994076 120.457804 
L 531.201601 121.679256 
L 531.501359 125.004675 
L 531.927939 132.51906 
L 532.550514 147.94191 
L 534.69494 204.191722 
L 535.467395 217.32731 
L 536.182204 225.950166 
L 536.897013 232.00371 
L 537.63488 236.413684 
L 538.488039 240.180864 
L 541.070573 250.705744 
L 541.877616 255.533688 
L 542.638541 261.47492 
L 543.410996 269.338062 
L 544.218038 279.939259 
L 545.117313 294.892705 
L 547.53844 337.351153 
L 547.895844 339.556884 
L 548.103369 339.864303 
L 548.218661 339.711098 
L 548.403128 338.978286 
L 548.668299 336.870095 
L 549.048762 331.776293 
L 549.590633 321.108624 
L 550.651317 294.580901 
L 551.769647 268.958275 
L 552.576689 255.320429 
L 553.303027 246.571265 
L 553.994777 240.770108 
L 554.663469 236.930683 
L 555.343691 234.248566 
L 556.04697 232.345067 
L 556.865542 230.76778 
L 558.410451 228.419746 
L 559.425018 226.641188 
L 560.243589 224.74657 
L 560.992986 222.421926 
L 561.719324 219.416327 
L 562.434132 215.46029 
L 563.137412 210.248 
L 563.852221 203.194051 
L 564.578559 193.701745 
L 565.339484 180.645009 
L 566.181114 162.148226 
L 568.175661 116.296211 
L 568.544595 112.933142 
L 568.740591 112.489664 
L 568.75212 112.494353 
L 568.855882 112.69343 
L 569.02882 113.657376 
L 569.293991 116.657292 
L 569.674454 123.957519 
L 570.239383 139.752814 
L 572.683568 213.689935 
L 573.432964 227.28239 
L 574.159302 236.603461 
L 574.908698 243.465945 
L 575.773387 249.328952 
L 578.436626 266.177897 
L 579.324372 274.137496 
L 580.246706 284.560026 
L 581.399623 300.409909 
L 582.921474 321.033905 
L 583.474875 325.738477 
L 583.843808 327.304331 
L 584.062862 327.548783 
L 584.201213 327.425025 
L 584.397208 326.875307 
L 584.685438 325.277456 
L 585.07743 321.688201 
L 585.642359 314.193493 
L 586.576222 298.327932 
L 587.971252 275.354998 
L 588.789824 265.40685 
L 589.493103 259.348372 
L 590.115679 255.721949 
L 590.669079 253.693232 
L 591.141775 252.72327 
L 591.510709 252.397328 
L 591.810467 252.396702 
L 592.121755 252.635834 
L 592.502218 253.243655 
L 592.986443 254.486998 
L 593.551372 256.597716 
L 594.185477 259.881893 
L 594.888757 264.760014 
L 595.661211 271.775327 
L 596.479783 281.399466 
L 597.448233 295.645717 
L 599.627247 328.90817 
L 600.076885 332.186738 
L 600.353585 332.944321 
L 600.491935 332.925995 
L 600.653343 332.561787 
L 600.895456 331.326764 
L 601.241331 328.198693 
L 601.725557 321.503354 
L 602.451895 307.805717 
L 604.388796 270.068728 
L 605.17278 259.577695 
L 605.876059 252.926169 
L 606.521693 248.773728 
L 607.109681 246.304799 
L 607.628494 244.978417 
L 608.078131 244.367103 
L 608.470123 244.172437 
L 608.815999 244.236737 
L 609.196461 244.550458 
L 609.646099 245.23349 
L 610.199499 246.51812 
L 610.810546 248.53262 
L 611.479238 251.548228 
L 612.182517 255.793085 
L 612.908855 261.604105 
L 613.658251 269.469585 
L 614.453764 280.299508 
L 615.341511 295.690778 
L 617.716521 339.28519 
L 618.073925 341.614656 
L 618.28145 341.93678 
L 618.396742 341.764779 
L 618.581209 340.950682 
L 618.857909 338.511242 
L 619.249901 332.741047 
L 619.803301 320.867077 
L 622.570303 255.817772 
L 623.30817 245.871238 
L 624.01145 239.22614 
L 624.7032 234.687244 
L 625.418009 231.403146 
L 626.225051 228.729073 
L 627.550906 225.241356 
L 628.669236 222.019319 
L 629.487807 218.933706 
L 630.248733 215.17141 
L 630.97507 210.422643 
L 631.712938 204.065625 
L 632.462334 195.583813 
L 633.246318 184.007943 
L 634.099477 167.890866 
L 636.405311 121.786947 
L 636.751187 119.348366 
L 636.935653 119.043549 
L 636.947183 119.048634 
L 637.062474 119.258484 
L 637.246941 120.199727 
L 637.523641 122.994083 
L 637.915633 129.583892 
L 638.503621 143.834902 
L 641.005452 209.510554 
L 641.754848 221.34997 
L 642.469657 229.330332 
L 643.195995 235.039995 
L 643.968449 239.397166 
L 645.017604 243.967274 
L 646.527926 250.548693 
L 647.369556 255.317759 
L 648.165069 261.180718 
L 648.960582 268.789985 
L 649.779153 278.903714 
L 650.666899 292.814053 
L 653.226376 335.379727 
L 653.58378 337.433194 
L 653.791305 337.705374 
L 653.918126 337.522535 
L 654.114122 336.711536 
L 654.402352 334.367278 
L 654.805873 328.941292 
L 655.393861 317.551686 
L 658.19545 258.634606 
L 658.933317 249.776668 
L 659.613538 244.095689 
L 660.270701 240.356133 
L 660.893276 237.996547 
L 661.504323 236.483979 
L 662.10384 235.556819 
L 662.703357 235.020994 
L 663.314403 234.767597 
L 663.971566 234.738079 
L 664.686375 234.935869 
L 665.458829 235.388244 
L 665.977642 235.838094 
L 665.977642 235.838094 
" clip-path="url(#pd5d241f489)" style="fill: none; stroke-dasharray: 11.1,4.8; stroke-dashoffset: 0; stroke: #000000; stroke-opacity: 0.7; stroke-width: 3"/>
   </g>
   <g id="line2d_7">
    <path d="M 89.530483 219.652739 
L 89.726479 218.291522 
L 90.014708 216.529486 
L 90.233763 216.399633 
L 90.337525 216.236626 
L 90.82175 214.770797 
L 91.144567 211.721898 
L 91.490442 207.406151 
L 91.548088 207.607116 
L 92.147605 211.34871 
L 92.193722 211.292839 
L 92.343601 210.527514 
L 92.689477 207.798611 
L 93.346639 197.070974 
L 93.842394 192.907135 
L 94.257444 187.574275 
L 94.764728 182.539076 
L 94.833903 182.583725 
L 94.972253 182.569969 
L 95.099074 182.192387 
L 95.225895 180.997406 
L 95.43342 176.06513 
L 96.424929 152.692356 
L 96.886096 147.655154 
L 97.370321 130.327507 
L 97.704667 122.672012 
L 97.877605 122.075007 
L 98.200422 121.662612 
L 98.350301 120.463191 
L 98.63853 118.740327 
L 98.788409 118.332273 
L 98.822997 118.388244 
L 98.91523 119.063098 
L 99.145814 123.214 
L 99.814506 140.240179 
L 101.774465 199.072826 
L 102.316337 210.037355 
L 102.835149 216.973128 
L 103.38855 225.708901 
L 103.918892 229.964844 
L 104.852755 235.411295 
L 105.290863 238.446137 
L 105.579093 239.782974 
L 106.028731 241.789281 
L 106.720481 247.534262 
L 107.02024 248.394122 
L 107.354586 249.477919 
L 107.550582 249.994722 
L 107.608227 249.92906 
L 107.769636 249.67886 
L 107.804223 249.741672 
L 107.896457 250.404185 
L 108.230803 253.102584 
L 108.346095 253.377216 
L 108.634324 254.894372 
L 109.66042 263.845341 
L 109.902533 266.028638 
L 110.594283 273.786039 
L 111.447442 288.41008 
L 112.196839 303.966794 
L 112.531185 310.211072 
L 112.58883 310.112873 
L 112.692593 309.936879 
L 112.727181 309.992694 
L 112.819414 310.594041 
L 113.026939 314.002316 
L 114.27209 336.305148 
L 114.456557 338.529402 
L 114.917724 345.201737 
L 114.998428 345.45928 
L 115.044544 345.369839 
L 115.344303 343.944047 
L 115.540299 342.521149 
L 115.747824 338.848961 
L 117.258146 301.599124 
L 118.076717 276.680737 
L 119.967502 236.575136 
L 120.532431 232.86268 
L 120.97054 229.618338 
L 121.466294 226.534335 
L 122.722974 219.151363 
L 123.05732 216.638591 
L 123.472371 214.999786 
L 123.553075 215.103381 
L 123.7606 215.614486 
L 123.818246 215.490202 
L 123.968125 214.370646 
L 124.198708 213.111513 
L 124.763638 212.116079 
L 125.685972 205.744421 
L 126.043376 202.514599 
L 126.158668 202.366323 
L 126.297018 201.35555 
L 126.527602 197.999908 
L 126.769714 195.191458 
L 126.931123 194.396155 
L 127.173235 191.511945 
L 127.784282 184.100551 
L 128.545207 175.130481 
L 128.891082 171.085286 
L 129.110136 164.800024 
L 129.398366 157.710018 
L 129.732712 150.353597 
L 130.078587 145.954784 
L 131.219975 133.420727 
L 131.404442 133.502147 
L 131.588909 133.85189 
L 131.635026 133.789832 
L 131.750317 133.523119 
L 131.796434 133.618971 
L 131.934784 134.104617 
L 131.99243 133.956229 
L 132.13078 133.347261 
L 132.188426 133.504142 
L 132.372893 135.074359 
L 133.006997 140.983123 
L 133.560398 147.990174 
L 134.159915 162.535476 
L 134.840136 178.04931 
L 135.658707 193.111317 
L 136.800095 205.732042 
L 138.27583 217.210989 
L 138.575588 218.298496 
L 139.221222 221.883363 
L 139.544039 222.803448 
L 139.647801 222.729257 
L 139.751564 222.664638 
L 139.786151 222.69631 
L 139.970618 222.817998 
L 139.993677 222.791253 
L 140.178143 222.484481 
L 140.22426 222.590833 
L 140.36261 223.658964 
L 140.593194 225.292637 
L 140.616252 225.271539 
L 140.731544 224.843645 
L 140.881423 224.545667 
L 140.904481 224.553821 
L 141.100477 224.541977 
L 141.227298 224.142887 
L 141.446352 222.393394 
L 141.861403 219.499971 
L 142.161161 219.30378 
L 142.414803 218.313404 
L 142.645386 217.203732 
L 142.691503 217.243197 
L 142.829853 217.642881 
L 142.945145 218.054088 
L 142.991262 217.911529 
L 143.141141 216.278465 
L 143.452429 213.743035 
L 143.694541 212.958995 
L 144.812871 203.306142 
L 145.758263 191.176963 
L 146.265547 181.9624 
L 146.484601 181.4022 
L 146.599893 180.678655 
L 146.980356 175.578896 
L 147.280114 169.707578 
L 147.821986 156.789403 
L 148.029511 151.986148 
L 148.386915 143.779284 
L 148.59444 142.021367 
L 148.801965 137.363111 
L 149.193957 129.464465 
L 149.332307 128.634955 
L 149.366895 128.685907 
L 149.724299 129.781401 
L 150.093233 132.187093 
L 150.173937 132.385019 
L 150.220054 132.318471 
L 150.381462 131.84715 
L 150.439108 131.943347 
L 150.577458 132.822789 
L 150.877217 136.657614 
L 151.476734 145.508127 
L 152.133897 155.684367 
L 153.34446 188.341275 
L 154.059269 198.5195 
L 154.209148 199.261852 
L 154.531965 203.669535 
L 155.696411 219.157497 
L 156.226753 223.485154 
L 156.710978 227.982334 
L 156.930033 228.580356 
L 157.24132 228.731391 
L 157.564137 229.676677 
L 157.690958 229.843007 
L 157.725546 229.822873 
L 158.152125 229.299709 
L 158.302004 228.903735 
L 158.348121 228.963588 
L 158.670938 229.403001 
L 158.832346 229.571827 
L 159.178222 230.495589 
L 159.212809 230.472173 
L 159.328101 230.200252 
L 159.512568 229.728882 
L 159.547155 229.747757 
L 159.75468 230.003421 
L 159.812326 229.857346 
L 160.031381 229.11478 
L 160.089026 229.215483 
L 160.250435 229.683129 
L 160.308081 229.603502 
L 160.446431 229.374024 
L 160.492547 229.450973 
L 160.619368 230.254656 
L 160.976773 232.451243 
L 161.265002 232.549636 
L 161.610877 233.627788 
L 161.645465 233.597112 
L 161.760757 233.25228 
L 162.187336 231.119103 
L 162.244982 231.145014 
L 162.360274 231.385282 
L 162.510153 232.460722 
L 163.028966 236.853811 
L 163.063553 236.863376 
L 163.098141 236.771798 
L 163.743774 234.233712 
L 163.93977 234.213694 
L 164.181883 233.766792 
L 164.228 233.860946 
L 164.343292 234.691867 
L 164.64305 236.773201 
L 164.7814 236.905803 
L 164.815988 236.840985 
L 165.046571 235.836303 
L 165.138805 236.113793 
L 165.3348 236.92951 
L 165.380917 236.818014 
L 165.576913 235.451558 
L 165.680676 235.090429 
L 165.726792 235.178846 
L 165.876672 236.181724 
L 166.568422 241.033597 
L 166.787476 242.062762 
L 166.810535 242.044019 
L 166.925826 241.645 
L 167.075706 241.205857 
L 167.121822 241.254004 
L 167.260172 241.780206 
L 167.444639 242.332184 
L 167.479227 242.307275 
L 167.629106 242.055694 
L 167.686752 242.170803 
L 167.85969 243.094693 
L 168.816611 250.207214 
L 169.370011 251.74955 
L 169.612124 253.908289 
L 170.326933 261.331162 
L 170.615162 263.360739 
L 170.995625 268.4507 
L 171.376088 281.043122 
L 171.779609 293.769393 
L 172.897938 307.368279 
L 174.189206 340.243149 
L 174.765665 356.389156 
L 174.892486 357.218707 
L 174.927073 357.12999 
L 175.053894 355.910145 
L 175.837878 344.067756 
L 177.613371 290.583851 
L 179.411922 239.198314 
L 179.815443 226.799766 
L 180.172847 222.70535 
L 180.610956 219.550743 
L 181.314235 215.307624 
L 181.602465 213.320068 
L 181.971398 210.441571 
L 182.236569 207.004138 
L 182.432565 205.847889 
L 182.605503 205.289673 
L 182.78997 203.459753 
L 183.124316 200.620207 
L 183.435603 198.966048 
L 183.954416 195.257796 
L 184.392525 194.48356 
L 184.646167 192.98328 
L 184.957454 190.98934 
L 185.072746 190.274862 
L 185.245684 187.177388 
L 185.591559 181.727714 
L 186.202605 173.103092 
L 186.606126 171.625975 
L 186.68683 171.321592 
L 186.83671 169.505709 
L 187.862806 151.067068 
L 188.058802 148.874539 
L 188.139506 149.084457 
L 188.312444 149.44222 
L 188.335502 149.419111 
L 188.416206 149.079053 
L 188.600673 146.906955 
L 188.819727 144.561941 
L 188.854315 144.581195 
L 188.969607 144.65333 
L 189.004194 144.604609 
L 189.119486 144.067551 
L 189.396186 141.224569 
L 189.695945 138.273907 
L 189.719003 138.298267 
L 189.811236 138.848364 
L 190.064878 140.534553 
L 190.099466 140.509935 
L 190.214757 140.356631 
L 190.260874 140.441575 
L 190.364637 141.198349 
L 191.494496 155.095052 
L 192.094013 164.961424 
L 192.41683 169.453113 
L 193.419868 182.516038 
L 193.696568 186.430866 
L 194.618902 199.38379 
L 194.941719 201.487642 
L 195.20689 202.02729 
L 195.276065 201.904859 
L 195.402886 201.628481 
L 195.449002 201.696866 
L 196.106165 204.147981 
L 196.359807 205.019139 
L 196.532745 204.910437 
L 196.728741 204.786694 
L 196.763328 204.866146 
L 197.109203 205.897955 
L 197.166849 205.819413 
L 197.29367 205.591723 
L 197.339787 205.673623 
L 197.800954 206.887239 
L 197.824012 206.875049 
L 197.916246 206.638725 
L 198.181417 205.584588 
L 198.227533 205.627942 
L 198.423529 205.839557 
L 198.458117 205.800531 
L 198.573408 205.373707 
L 198.850109 203.412017 
L 199.276688 199.328397 
L 199.368921 199.128033 
L 199.783972 196.964987 
L 199.991497 195.720441 
L 200.026084 195.752991 
L 200.210551 196.1364 
L 200.268197 196.034836 
L 200.614072 194.737176 
L 200.948418 193.185568 
L 201.144414 191.713365 
L 201.559464 187.369007 
L 202.424152 175.675364 
L 202.643207 175.108522 
L 202.793086 173.372307 
L 203.000611 167.559672 
L 203.519424 152.548797 
L 203.830712 150.094472 
L 204.337995 146.065061 
L 204.776104 140.536865 
L 205.225742 139.291328 
L 205.294917 139.412399 
L 205.410208 140.067681 
L 205.94055 144.308632 
L 206.044313 144.413851 
L 206.078901 144.37982 
L 206.286426 143.84776 
L 206.36713 144.071548 
L 206.586184 144.564186 
L 206.655359 144.670318 
L 206.805238 145.70769 
L 207.185701 150.112922 
L 207.520047 156.255862 
L 207.992743 163.335108 
L 208.280973 166.366954 
L 208.730611 176.27527 
L 209.168719 184.062546 
L 211.267029 212.204228 
L 212.131717 217.454866 
L 212.339242 217.642672 
L 212.3623 217.613146 
L 212.489121 217.147758 
L 212.754292 216.396001 
L 212.904171 215.910163 
L 213.157813 214.007325 
L 213.607451 210.705897 
L 213.826505 210.26693 
L 213.89568 210.43045 
L 214.137793 211.683029 
L 214.356847 212.871122 
L 214.402964 212.812992 
L 214.529785 212.605398 
L 214.575902 212.67423 
L 214.956364 213.416682 
L 214.990952 213.378065 
L 215.106244 212.92741 
L 215.371415 210.665407 
L 215.774936 207.307114 
L 215.867169 207.335715 
L 215.936344 207.199103 
L 216.247632 205.428886 
L 216.605036 201.164373 
L 217.054674 195.286377 
L 217.319845 193.937372 
L 218.6457 178.023049 
L 218.703346 178.066319 
L 218.78405 177.997695 
L 218.887813 177.429656 
L 219.026163 175.113012 
L 220.501897 139.485778 
L 220.697893 139.07665 
L 220.824714 138.515272 
L 221.101414 135.693729 
L 221.458818 131.786283 
L 221.493406 131.765966 
L 221.539523 131.837614 
L 222.035277 133.350818 
L 222.461856 135.521678 
L 222.588677 135.917862 
L 222.634794 135.881369 
L 222.703969 135.860194 
L 222.738557 135.929609 
L 222.899965 136.290213 
L 222.946082 136.213088 
L 223.095961 135.808599 
L 223.153607 135.913473 
L 223.315015 136.802058 
L 223.487953 139.546037 
L 225.021333 174.637248 
L 225.805317 191.393998 
L 226.162721 196.622407 
L 226.796826 202.478203 
L 227.892097 212.999578 
L 228.168797 214.841502 
L 228.41091 216.671603 
L 229.045015 221.212109 
L 229.356302 222.039719 
L 229.517711 222.276993 
L 229.725236 222.576767 
L 229.736765 222.572312 
L 229.886644 222.376056 
L 230.048053 221.575565 
L 230.174874 221.193068 
L 230.209461 221.227818 
L 230.532278 221.730061 
L 230.578395 221.669728 
L 230.716745 221.10275 
L 230.970387 220.136577 
L 231.016503 220.210553 
L 231.270145 220.865341 
L 231.316262 220.836211 
L 231.881191 220.051363 
L 232.296242 218.418873 
L 232.503767 218.222369 
L 232.676704 217.886262 
L 232.745879 217.969175 
L 232.861171 218.094022 
L 232.895759 218.031765 
L 232.987992 217.37076 
L 233.43763 213.404161 
L 233.668213 212.653965 
L 233.875738 210.679504 
L 234.198555 208.416547 
L 234.498314 206.59346 
L 235.305356 197.603575 
L 235.420648 196.720603 
L 235.754994 191.364018 
L 236.435215 181.008978 
L 236.711915 178.396577 
L 237.080849 172.395606 
L 237.565074 162.852263 
L 239.167629 127.995728 
L 239.29445 127.657002 
L 239.329038 127.680504 
L 239.444329 128.008963 
L 239.559621 128.280945 
L 239.605738 128.211204 
L 239.951613 127.400698 
L 239.974671 127.409895 
L 240.216784 127.60883 
L 240.378192 129.124759 
L 241.980748 150.803412 
L 242.753202 173.689743 
L 243.583303 195.822268 
L 243.975295 203.30085 
L 244.344228 207.132594 
L 245.116683 218.985921 
L 245.670083 223.640863 
L 246.338775 229.366014 
L 247.272638 237.484873 
L 247.987447 239.885872 
L 248.079681 240.014353 
L 248.206501 240.747042 
L 248.460143 241.886067 
L 248.759902 242.543498 
L 248.955898 243.463747 
L 248.990485 243.437308 
L 249.140365 243.030068 
L 249.336361 242.680021 
L 249.34789 242.68397 
L 249.428594 242.871455 
L 249.543886 243.162962 
L 249.590002 243.082097 
L 249.682236 242.903976 
L 249.728352 242.989566 
L 249.970465 244.301441 
L 250.235636 246.976783 
L 250.46622 249.066642 
L 250.489278 249.048498 
L 250.616099 248.618026 
L 250.846682 248.025448 
L 250.869741 248.047816 
L 250.973503 248.401469 
L 251.250203 250.555239 
L 252.195596 260.165715 
L 252.391592 260.90155 
L 252.852759 263.467683 
L 253.11793 267.137478 
L 253.648272 273.468231 
L 254.005676 276.558689 
L 254.293905 280.486373 
L 254.616722 285.142939 
L 254.732014 285.848649 
L 254.870364 288.638487 
L 255.285414 297.571201 
L 255.89646 304.999108 
L 256.369157 316.046471 
L 256.726561 322.952936 
L 257.729599 335.312175 
L 257.971712 338.538194 
L 258.110062 339.552646 
L 258.144649 339.4844 
L 258.259941 338.533243 
L 259.724146 320.748971 
L 260.058492 313.604387 
L 260.980826 291.748503 
L 261.741751 273.683224 
L 262.237506 265.080362 
L 262.491148 261.293182 
L 263.136782 251.976853 
L 263.943824 244.928588 
L 264.312757 243.132668 
L 264.474166 242.515019 
L 265.016037 238.424505 
L 265.465675 235.778139 
L 265.869196 234.433129 
L 266.411067 233.002197 
L 266.664709 231.1165 
L 266.837646 230.319231 
L 266.872234 230.403604 
L 266.987526 231.469368 
L 267.171992 233.153424 
L 267.218109 233.076635 
L 267.529397 231.602774 
L 267.62163 231.915427 
L 267.806097 232.667444 
L 267.852214 232.619006 
L 268.094326 232.106777 
L 268.140443 232.204789 
L 268.555493 234.146551 
L 268.855252 235.973221 
L 269.005131 236.280874 
L 269.039718 236.22222 
L 269.15501 235.493376 
L 269.696881 230.220954 
L 269.766056 230.382266 
L 270.054286 231.884878 
L 270.158048 231.740843 
L 270.492394 230.641834 
L 271.011207 228.354323 
L 271.357082 225.844294 
L 271.39167 225.880571 
L 271.518491 226.33505 
L 271.818249 228.066706 
L 271.898954 227.95307 
L 272.048833 227.247567 
L 272.290945 226.084182 
L 272.325533 226.127449 
L 272.417766 226.785855 
L 272.717525 228.835365 
L 272.798229 228.998792 
L 273.051871 229.650614 
L 273.074929 229.633329 
L 273.167163 229.342418 
L 273.47845 227.3773 
L 273.559155 227.72669 
L 273.789738 229.140156 
L 273.835855 229.073615 
L 274.147142 228.547758 
L 274.158672 228.553093 
L 274.354668 228.675078 
L 274.389255 228.576942 
L 274.516076 227.629587 
L 274.965714 223.977703 
L 275.034889 223.91591 
L 275.081006 223.961177 
L 275.288531 224.243303 
L 275.334647 224.16231 
L 275.449939 223.417694 
L 275.668993 220.242146 
L 275.899577 218.175812 
L 276.014869 218.060871 
L 276.14169 216.999759 
L 276.441448 214.888071 
L 276.510623 214.820944 
L 276.55674 214.875728 
L 276.764265 215.545481 
L 276.914144 215.796122 
L 276.948732 215.746089 
L 277.029436 215.212941 
L 277.202374 211.868065 
L 277.640482 204.160737 
L 278.263057 196.675057 
L 278.885633 191.209473 
L 279.669617 174.581994 
L 281.929335 123.165989 
L 282.194506 114.937159 
L 282.41356 111.571221 
L 282.701789 110.114413 
L 282.724848 110.143399 
L 282.840139 110.696628 
L 283.25519 114.158912 
L 283.485773 119.994406 
L 284.212111 146.869671 
L 285.076799 179.013168 
L 285.872312 200.449965 
L 287.57863 236.823901 
L 288.351085 250.204695 
L 288.846839 253.448789 
L 289.088952 254.732998 
L 289.331064 255.619888 
L 289.538589 256.155694 
L 289.723056 257.513407 
L 289.965169 258.734232 
L 290.138106 258.886831 
L 290.276457 259.178731 
L 290.334102 259.105713 
L 290.599273 258.635265 
L 290.64539 258.679913 
L 290.795269 259.171584 
L 290.991265 260.361882 
L 291.256436 264.215562 
L 291.76372 270.89905 
L 292.674525 277.720926 
L 292.951225 279.723282 
L 293.101104 281.673773 
L 293.619917 288.555934 
L 294.069555 294.178434 
L 294.288609 296.629377 
L 294.334726 296.669029 
L 294.392372 296.589475 
L 294.749776 296.023228 
L 294.772834 296.049253 
L 294.865068 296.433987 
L 295.095651 298.846631 
L 295.510701 306.384396 
L 296.08716 314.653561 
L 296.110218 314.6493 
L 296.133277 314.581595 
L 296.490681 312.747459 
L 296.582915 313.039696 
L 296.79044 314.933928 
L 297.136315 318.200376 
L 297.655128 321.296937 
L 297.701244 321.216741 
L 297.805007 320.238532 
L 298.093236 317.218265 
L 298.116295 317.2465 
L 298.254645 317.592523 
L 298.32382 317.474157 
L 298.542874 316.853867 
L 298.60052 316.946108 
L 298.727341 317.20856 
L 298.773458 317.103442 
L 298.900279 315.975202 
L 300.537421 295.66792 
L 301.690339 276.756622 
L 302.578085 266.454674 
L 303.050781 261.563074 
L 303.869352 253.856011 
L 304.146053 252.916741 
L 304.31899 252.427285 
L 304.549574 251.934961 
L 304.664865 251.593451 
L 304.930036 250.966205 
L 305.16062 250.909284 
L 305.29897 250.833302 
L 305.322028 250.853141 
L 305.518024 250.90196 
L 305.71402 250.883015 
L 305.840841 251.18942 
L 306.00225 252.314158 
L 306.474946 257.458985 
L 306.613296 257.121926 
L 306.694 257.047754 
L 306.751646 257.074991 
L 306.855408 256.963491 
L 307.155167 256.627093 
L 307.374221 256.746692 
L 307.466455 257.304664 
L 307.858447 260.180748 
L 308.630901 263.620836 
L 308.849955 268.008737 
L 309.057481 269.616143 
L 309.230418 270.838105 
L 309.633939 276.456844 
L 310.164281 285.924506 
L 310.74074 291.230608 
L 311.190378 296.398001 
L 311.58237 299.227173 
L 311.732249 300.477417 
L 312.251062 308.939625 
L 312.988929 320.641621 
L 313.196454 323.563135 
L 313.576917 329.080842 
L 313.772913 330.506722 
L 314.107259 332.945079 
L 314.118788 332.942719 
L 314.245609 333.009822 
L 314.418546 333.650942 
L 314.499251 333.862557 
L 314.556897 333.750893 
L 314.718305 332.583224 
L 315.121826 328.268746 
L 316.32086 305.504961 
L 317.727419 274.882401 
L 318.672812 259.78058 
L 319.157037 255.695955 
L 320.021725 251.437447 
L 320.390658 249.558823 
L 320.921 248.71366 
L 320.955588 248.74259 
L 321.128526 248.99169 
L 321.174642 248.889088 
L 321.34758 247.802047 
L 321.820276 245.256653 
L 322.108505 244.186768 
L 322.212268 244.248773 
L 322.500497 244.974214 
L 322.892489 246.683114 
L 323.215306 248.629305 
L 323.249894 248.605546 
L 323.445889 248.157822 
L 323.757177 247.174774 
L 323.837881 247.1558 
L 323.872469 247.205995 
L 324.010819 247.735764 
L 324.82939 251.761544 
L 325.002328 252.608664 
L 325.186795 255.235938 
L 325.590316 260.13576 
L 325.694078 260.459861 
L 325.740195 260.408631 
L 325.843958 260.327209 
L 325.878545 260.382953 
L 325.982308 260.976105 
L 326.166774 263.794612 
L 326.3743 265.707655 
L 326.570296 265.791304 
L 326.708646 266.385069 
L 326.996875 267.559426 
L 327.089108 267.679717 
L 327.2044 268.555067 
L 327.584863 271.900909 
L 327.723213 273.253198 
L 328.207438 281.541677 
L 328.634018 290.280013 
L 328.910718 293.801693 
L 329.487177 301.918474 
L 330.052106 310.072011 
L 331.274198 338.888207 
L 331.435607 340.501598 
L 331.850657 345.410052 
L 331.862186 345.397249 
L 331.965949 344.929966 
L 332.404057 341.788999 
L 333.845204 310.106495 
L 335.643755 266.086154 
L 336.704439 247.292246 
L 337.903473 237.736888 
L 338.733574 232.833806 
L 339.171682 230.79628 
L 339.425324 229.824811 
L 339.817316 229.34647 
L 339.978725 228.604113 
L 340.197779 227.254267 
L 340.243896 227.342702 
L 340.428362 227.990767 
L 340.497537 227.870577 
L 340.647417 226.994453 
L 340.970234 225.191713 
L 341.120113 225.241394 
L 341.339167 225.201775 
L 341.58128 224.978587 
L 341.71963 224.517782 
L 342.157738 222.284944 
L 342.342205 221.922032 
L 342.365264 221.933092 
L 342.503614 222.205511 
L 342.572789 222.266742 
L 342.607376 222.210612 
L 342.734197 221.549741 
L 342.964781 220.742981 
L 343.080072 220.138244 
L 343.518181 217.434521 
L 343.737235 215.38404 
L 344.221461 210.774291 
L 344.601923 208.794634 
L 345.097678 205.733766 
L 345.293674 204.618254 
L 346.492708 192.788694 
L 346.861641 187.008934 
L 346.988462 185.629043 
L 347.230575 179.690602 
L 347.634096 171.635565 
L 347.876209 169.702648 
L 348.614076 154.428895 
L 349.10983 135.464334 
L 349.467235 128.666409 
L 349.709347 124.924224 
L 350.020635 120.489432 
L 350.251218 117.792964 
L 350.550977 114.476043 
L 350.562506 114.482414 
L 350.631681 114.734904 
L 350.770031 116.35608 
L 352.003653 139.199615 
L 352.764578 160.652329 
L 353.986671 196.982267 
L 354.586188 207.79913 
L 355.25488 216.677052 
L 355.923572 223.154813 
L 356.799789 231.527456 
L 357.710594 241.428809 
L 358.494578 245.791042 
L 358.88657 248.756571 
L 359.001861 248.714028 
L 359.382324 248.536067 
L 359.589849 247.811049 
L 359.635966 247.865459 
L 359.912666 248.720639 
L 360.258541 250.292514 
L 360.477596 252.214654 
L 360.754296 254.365004 
L 360.915704 255.320435 
L 361.203934 256.968309 
L 361.365342 258.31256 
L 361.595925 262.643087 
L 361.884155 267.340545 
L 362.160855 267.799608 
L 362.287676 269.325773 
L 362.714255 275.274534 
L 362.841076 275.921444 
L 363.014014 278.240944 
L 363.48671 284.990845 
L 363.705764 286.688007 
L 364.04011 291.032902 
L 364.512806 300.854665 
L 365.181499 310.557561 
L 365.608078 318.823865 
L 365.896307 321.146798 
L 366.299828 325.106908 
L 366.611116 328.616216 
L 366.772524 330.385143 
L 366.910875 331.505274 
L 366.945462 331.421548 
L 368.305905 325.200028 
L 368.732484 318.93724 
L 369.320472 306.41159 
L 370.588681 281.340011 
L 370.842323 276.617851 
L 371.499486 265.150217 
L 372.191236 255.934464 
L 372.606286 252.247927 
L 372.686991 252.173434 
L 372.733107 252.218793 
L 372.848399 252.332532 
L 372.894516 252.268569 
L 373.11357 251.535817 
L 373.459445 248.798876 
L 373.81685 247.038479 
L 374.220371 246.102208 
L 374.589304 245.385898 
L 374.64695 245.469697 
L 374.7853 246.098068 
L 374.946709 246.878399 
L 374.992825 246.823167 
L 375.154234 246.110696 
L 375.327171 245.697531 
L 375.338701 245.701709 
L 375.48858 245.661184 
L 375.753751 245.379847 
L 375.776809 245.400036 
L 376.157272 246.047287 
L 376.399385 247.102015 
L 376.641497 247.961397 
L 376.733731 248.128638 
L 376.860552 248.410105 
L 376.906668 248.336258 
L 377.125723 247.906088 
L 377.16031 247.934392 
L 377.275602 248.259577 
L 377.909706 250.508885 
L 378.036527 250.592674 
L 378.14029 251.091084 
L 378.751336 256.034925 
L 378.855099 255.951578 
L 378.935803 255.93602 
L 378.97039 255.99679 
L 379.062624 256.546865 
L 379.235561 259.494917 
L 379.454616 261.61166 
L 380.22707 266.791699 
L 380.987996 276.64628 
L 381.230108 280.096628 
L 381.852684 289.969262 
L 382.302322 294.51747 
L 382.947955 307.730588 
L 383.593589 322.616915 
L 384.181577 334.047234 
L 384.41216 337.615062 
L 384.458277 337.61208 
L 384.504394 337.554662 
L 384.56204 337.547933 
L 384.596627 337.618654 
L 384.746506 338.470232 
L 385.207673 341.069387 
L 385.357553 341.013247 
L 385.461315 340.66203 
L 385.599665 339.222638 
L 386.279886 330.240672 
L 386.429766 329.205843 
L 386.752583 324.398401 
L 388.205259 285.597978 
L 388.781717 271.521399 
L 389.231355 264.518792 
L 389.600289 258.380934 
L 390.176747 250.999261 
L 391.11061 244.473724 
L 391.606365 240.767603 
L 393.024453 233.118784 
L 393.370328 232.878042 
L 393.543266 232.84167 
L 393.681616 231.881742 
L 393.877612 230.858667 
L 393.9122 230.904033 
L 394.154312 231.621169 
L 394.235016 231.440974 
L 394.442542 231.043214 
L 394.454071 231.047714 
L 394.534775 231.197448 
L 394.696183 232.372506 
L 394.776888 232.6176 
L 394.834533 232.535103 
L 395.053588 231.909954 
L 395.111234 232.02935 
L 395.895217 234.931389 
L 395.941334 234.865285 
L 396.045097 234.204336 
L 396.667672 229.028221 
L 396.679201 229.030041 
L 396.771435 229.192391 
L 396.955901 230.08735 
L 397.048135 230.378192 
L 397.094251 230.301986 
L 397.428598 228.734313 
L 397.832119 226.208074 
L 397.855177 226.225134 
L 397.970469 226.399276 
L 398.016585 226.304826 
L 398.166465 225.36918 
L 398.339402 224.595269 
L 398.37399 224.620685 
L 398.489282 225.045461 
L 398.78904 227.201791 
L 399.008094 227.916176 
L 399.123386 228.10577 
L 399.169503 228.05807 
L 399.330911 227.851874 
L 399.365499 227.902683 
L 399.526907 228.570954 
L 399.734432 229.05078 
L 399.826666 228.956455 
L 399.999603 228.162363 
L 400.276303 226.6381 
L 400.333949 226.734778 
L 400.622179 227.605694 
L 400.691354 227.458037 
L 400.829704 226.333186 
L 401.094875 221.809147 
L 401.267812 220.385465 
L 401.279342 220.388058 
L 401.429221 220.3331 
L 401.532983 220.307873 
L 401.556042 220.34339 
L 401.682863 220.867365 
L 401.948034 221.797344 
L 402.086384 221.929322 
L 402.120971 221.884455 
L 402.201675 221.432511 
L 402.397671 218.443785 
L 402.755076 213.779131 
L 402.778134 213.805048 
L 402.893426 214.35394 
L 403.124009 215.419346 
L 403.158597 215.338939 
L 403.273889 214.297014 
L 404.253868 203.279908 
L 404.36916 202.521152 
L 404.841856 196.374133 
L 405.187731 191.760138 
L 405.429844 188.910407 
L 405.856424 183.854441 
L 406.225357 180.20446 
L 406.444411 174.121798 
L 407.090045 151.972757 
L 407.793325 132.463612 
L 408.646484 111.64234 
L 408.923184 105.432487 
L 409.315176 101.689618 
L 409.361292 101.764566 
L 409.453526 102.544017 
L 409.914693 110.499364 
L 410.22598 118.860844 
L 410.65256 138.692287 
L 411.551835 180.67548 
L 412.485698 214.788722 
L 412.958395 224.651463 
L 415.241171 264.406222 
L 415.621634 265.93912 
L 416.071272 267.348322 
L 416.336443 267.416104 
L 416.474793 267.888119 
L 416.832197 270.141535 
L 416.947489 269.949553 
L 417.06278 269.805406 
L 417.097368 269.855517 
L 417.201131 270.420066 
L 417.938998 277.726167 
L 418.307931 282.215382 
L 418.526986 284.009424 
L 418.630748 284.141012 
L 418.74604 284.897306 
L 419.034269 287.385828 
L 419.080386 287.330682 
L 419.241794 287.077938 
L 419.287911 287.141112 
L 419.403203 287.768939 
L 419.702961 289.190007 
L 419.772136 289.26387 
L 419.818253 289.207446 
L 419.910486 289.127108 
L 419.945074 289.177736 
L 420.048836 289.772073 
L 420.429299 292.458606 
L 420.590708 292.744364 
L 420.83282 293.83893 
L 420.994229 296.431173 
L 421.766683 312.801286 
L 421.974208 313.924623 
L 422.008796 313.873339 
L 422.481492 312.332332 
L 422.700546 311.810775 
L 422.873484 311.396601 
L 423.242418 309.608535 
L 423.426884 307.179963 
L 423.945697 300.917013 
L 424.072518 300.865743 
L 424.222397 299.902135 
L 424.395335 299.116279 
L 424.429922 299.139916 
L 424.787327 299.664652 
L 424.844973 299.513897 
L 425.479077 296.260022 
L 425.894128 292.666258 
L 426.124711 292.3211 
L 426.228474 291.853306 
L 426.528232 288.707953 
L 427.277628 278.770066 
L 427.565858 277.397644 
L 427.646562 277.290524 
L 427.692679 277.330234 
L 427.900204 277.67817 
L 427.980908 277.548476 
L 428.038554 277.499617 
L 428.084671 277.581155 
L 428.257608 278.292468 
L 428.349842 278.10913 
L 428.51125 277.925883 
L 428.522779 277.931408 
L 428.684188 277.995322 
L 428.707246 277.946976 
L 428.868654 277.156343 
L 429.122296 276.31053 
L 429.203 276.447407 
L 429.49123 277.301454 
L 429.548876 277.254119 
L 429.687226 277.264227 
L 429.860163 277.352592 
L 429.883222 277.320414 
L 430.010043 276.856031 
L 430.909318 271.920674 
L 430.943906 271.945194 
L 431.047668 272.2922 
L 431.243664 274.035604 
L 431.474248 275.157619 
L 431.612598 275.668131 
L 431.658714 275.613283 
L 431.900827 274.718215 
L 432.119881 274.217134 
L 432.28129 274.094216 
L 432.315877 274.166299 
L 432.41964 274.856296 
L 432.777044 277.584452 
L 432.949982 277.899294 
L 432.97304 277.883272 
L 433.088332 277.600473 
L 433.180565 277.391885 
L 433.226682 277.459296 
L 433.353503 278.24625 
L 433.584086 279.689 
L 433.630203 279.66251 
L 433.745495 279.69597 
L 433.860787 280.081786 
L 433.999137 281.442461 
L 434.783121 292.049278 
L 434.979116 294.750017 
L 435.659338 305.307237 
L 435.786159 305.434057 
L 435.820746 305.395184 
L 436.05133 304.851715 
L 436.120505 305.00679 
L 436.304971 306.126976 
L 436.662376 309.370253 
L 436.754609 309.256134 
L 436.88143 309.17372 
L 436.904489 309.206271 
L 437.008251 309.703548 
L 437.29648 311.134372 
L 437.388714 311.227424 
L 437.515535 311.884296 
L 437.734589 314.744787 
L 437.930585 316.007692 
L 437.942114 316.000942 
L 438.011289 315.73565 
L 438.749156 310.281502 
L 439.175736 305.699824 
L 439.417848 303.386934 
L 440.005836 297.733798 
L 440.040424 297.748724 
L 440.155716 297.702187 
L 440.363241 297.156913 
L 440.639941 295.758734 
L 440.905112 292.417189 
L 441.366279 287.395634 
L 441.735212 284.843777 
L 441.954267 283.95512 
L 442.173321 281.761151 
L 442.980363 271.474126 
L 443.245534 270.176659 
L 443.326238 270.225548 
L 443.337767 270.250561 
L 443.545293 270.874382 
L 443.614468 270.691615 
L 443.821993 268.921491 
L 444.121751 267.199502 
L 444.42151 266.849435 
L 444.479156 266.994694 
L 444.663622 268.267385 
L 444.940323 270.869107 
L 445.193964 272.990661 
L 445.343844 272.999608 
L 445.436077 273.078665 
L 445.620544 273.808171 
L 445.81654 274.495837 
L 445.862657 274.456284 
L 445.989477 274.37924 
L 446.024065 274.4195 
L 446.127828 274.51031 
L 446.173944 274.455712 
L 446.381469 274.309648 
L 446.65817 274.371482 
L 446.669699 274.346892 
L 446.911811 273.750945 
L 446.969457 273.836619 
L 447.142395 274.118235 
L 447.176982 274.102101 
L 447.280745 274.179109 
L 447.534387 274.890848 
L 447.868733 278.421324 
L 448.214608 282.350138 
L 448.352958 282.283455 
L 448.456721 282.365768 
L 448.74495 283.003459 
L 448.987063 285.616295 
L 449.551992 293.589064 
L 449.817163 295.085367 
L 450.289859 297.824104 
L 450.370563 298.014767 
L 450.497384 299.21506 
L 450.889376 303.036907 
L 451.085372 303.648446 
L 451.592656 306.006519 
L 451.777123 307.074947 
L 451.81171 307.024495 
L 451.938531 306.347044 
L 452.065352 305.876189 
L 452.09994 305.9476 
L 452.215231 306.811237 
L 452.445815 310.257764 
L 452.664869 312.250486 
L 452.745573 312.336883 
L 452.780161 312.287831 
L 453.241328 310.801699 
L 453.541086 309.504398 
L 453.598732 309.589409 
L 453.817786 310.332657 
L 453.886961 310.121746 
L 454.255895 307.277817 
L 454.532595 305.483887 
L 454.659416 305.15208 
L 454.832354 303.650786 
L 456.123621 290.521239 
L 456.331146 288.841127 
L 457.484064 274.793701 
L 458.314164 267.766895 
L 458.498631 266.531184 
L 458.867565 264.444277 
L 459.07509 263.956238 
L 459.501669 261.831637 
L 459.559315 261.90719 
L 460.089657 263.06398 
L 460.539295 263.869414 
L 460.677645 264.365305 
L 460.723762 264.337408 
L 461.115753 264.084718 
L 461.207987 264.247747 
L 461.507745 265.657274 
L 461.646095 267.055453 
L 462.383963 277.422031 
L 462.395492 277.419772 
L 462.476196 277.174447 
L 462.97195 275.193767 
L 463.052655 275.188367 
L 463.075713 275.225046 
L 463.191005 275.75697 
L 463.882755 279.627072 
L 464.055693 280.634412 
L 464.217101 283.961869 
L 464.562976 290.376805 
L 465.035672 294.926619 
L 465.323902 295.717256 
L 465.462252 298.304887 
L 465.785069 304.321271 
L 466.073298 305.392519 
L 466.234707 307.316989 
L 466.569053 311.193549 
L 466.811165 311.887495 
L 466.891869 311.871236 
L 466.914928 311.823395 
L 467.099395 311.371111 
L 467.15704 311.472428 
L 467.272332 312.1354 
L 467.756557 315.8075 
L 468.148549 317.635063 
L 468.286899 317.985759 
L 468.321487 317.923573 
L 468.436779 317.123657 
L 468.690421 315.683399 
L 468.70195 315.687078 
L 468.8403 315.757677 
L 468.874887 315.672206 
L 469.024767 314.706522 
L 469.312996 311.221135 
L 469.647342 307.691599 
L 470.027805 305.718334 
L 470.535088 299.082776 
L 470.961668 292.786159 
L 471.445893 287.439087 
L 471.90706 281.815887 
L 472.126114 280.995074 
L 472.137644 281.000518 
L 472.241406 281.060756 
L 472.275994 280.975174 
L 472.414344 280.008428 
L 474.478066 260.945787 
L 474.55877 260.877925 
L 474.593358 260.920644 
L 474.720178 261.401803 
L 474.962291 262.460337 
L 474.985349 262.447257 
L 475.192875 262.39491 
L 475.342754 262.327787 
L 475.481104 262.152373 
L 475.861567 261.489361 
L 475.976858 261.380199 
L 476.610963 259.614016 
L 477.129776 256.682629 
L 477.152834 256.697892 
L 477.648589 257.478937 
L 477.717764 257.301087 
L 477.959876 256.474883 
L 477.994464 256.497582 
L 478.155872 256.817362 
L 478.305751 257.788741 
L 478.582452 261.474156 
L 479.228085 271.803796 
L 479.239615 271.802234 
L 479.389494 271.758392 
L 479.412552 271.815658 
L 479.539373 272.569504 
L 479.977482 277.554164 
L 480.208065 282.032368 
L 480.669232 291.827624 
L 481.015107 295.400531 
L 482.052733 310.878838 
L 482.502371 313.404168 
L 482.594604 313.924731 
L 482.732954 316.307151 
L 483.0673 322.189263 
L 483.931988 326.465239 
L 484.024222 326.045013 
L 484.266334 324.696975 
L 484.300922 324.715506 
L 484.473859 325.051607 
L 484.589151 325.451788 
L 484.635268 325.323304 
L 484.935026 323.085639 
L 485.972652 310.071375 
L 487.805791 277.139777 
L 488.140137 274.098984 
L 488.197783 274.099379 
L 488.243899 274.146436 
L 488.301545 274.12776 
L 488.324603 274.078745 
L 488.462954 273.343095 
L 488.808829 271.737123 
L 489.177762 269.929585 
L 490.976313 253.389867 
L 491.333718 251.404621 
L 491.72571 249.665655 
L 491.783356 249.79662 
L 492.41746 252.990308 
L 492.601927 253.8637 
L 492.613456 253.86006 
L 492.820981 253.851534 
L 492.959331 254.299857 
L 493.293677 256.516012 
L 493.558848 260.635199 
L 493.789432 262.134457 
L 493.847078 262.138309 
L 493.881665 262.08278 
L 494.043074 261.437908 
L 494.469653 259.551258 
L 494.527299 259.675427 
L 494.677178 260.774248 
L 495.368929 268.540824 
L 495.714804 272.092384 
L 495.864683 272.813558 
L 495.899271 272.798656 
L 495.991504 272.784984 
L 496.014562 272.827608 
L 496.118325 273.393081 
L 496.625609 278.347158 
L 497.155951 287.445927 
L 497.409592 291.344531 
L 497.651705 294.184182 
L 497.85923 295.316189 
L 498.251222 301.68732 
L 499.185085 320.28889 
L 499.507902 328.190998 
L 499.853777 332.726316 
L 499.934481 332.469579 
L 500.395648 329.583395 
L 500.487882 329.878965 
L 500.79917 330.811288 
L 500.868345 330.683027 
L 501.133516 330.177742 
L 501.225749 329.97874 
L 501.49092 328.48851 
L 501.686916 326.327998 
L 502.770658 304.919473 
L 504.131101 274.409781 
L 504.69603 267.69377 
L 505.284018 260.268576 
L 505.503072 259.554155 
L 505.652952 259.469559 
L 505.802831 258.628396 
L 506.252469 254.840675 
L 506.828927 249.258064 
L 507.232448 246.936674 
L 508.085607 244.66432 
L 508.270074 244.646007 
L 508.281603 244.674041 
L 508.396895 245.354344 
L 508.639008 246.891694 
L 508.673595 246.869117 
L 509.180879 246.127559 
L 509.434521 245.732712 
L 509.630517 245.518211 
L 509.665104 245.569836 
L 509.780396 246.22684 
L 509.895688 246.670037 
L 509.941804 246.576137 
L 510.264621 245.587167 
L 510.28768 245.605982 
L 510.402971 245.934179 
L 510.622026 247.478012 
L 510.887197 248.696613 
L 511.221543 249.578561 
L 511.429068 251.294827 
L 511.68271 253.175202 
L 511.947881 253.342674 
L 512.282227 254.274072 
L 512.420577 256.704907 
L 512.697277 261.084358 
L 513.020094 262.253793 
L 513.308323 265.240991 
L 513.804078 271.131894 
L 513.953957 272.293283 
L 514.149953 276.47805 
L 514.876291 292.38913 
L 515.337458 298.397878 
L 516.720958 322.301542 
L 516.905425 324.330947 
L 517.723997 334.818042 
L 517.977638 336.81096 
L 518.50798 341.288989 
L 518.588685 340.766593 
L 518.888443 335.980347 
L 519.338081 325.743396 
L 521.655445 273.073045 
L 522.347195 262.356543 
L 523.661521 243.404216 
L 524.307155 239.31998 
L 524.964318 235.012977 
L 525.483131 231.692261 
L 525.898181 230.679578 
L 525.944297 230.709765 
L 526.209468 231.039022 
L 526.255585 230.895631 
L 526.382406 229.634136 
L 526.636048 227.530865 
L 526.924277 226.657936 
L 527.131802 225.722679 
L 527.200977 225.753154 
L 527.293211 225.600263 
L 527.639086 224.647594 
L 527.71979 224.718402 
L 527.846611 224.820002 
L 527.881199 224.763702 
L 528.492245 222.719322 
L 528.56142 222.536813 
L 528.607537 222.619594 
L 528.884237 223.909927 
L 528.964941 223.699513 
L 529.126349 222.150275 
L 529.967979 215.43633 
L 530.187033 213.564415 
L 530.50985 210.742864 
L 530.740434 209.740118 
L 531.605122 204.045471 
L 531.939468 201.927467 
L 532.031701 202.087656 
L 532.066289 202.098497 
L 532.100876 202.029278 
L 532.19311 201.33519 
L 533.553552 182.936984 
L 534.037777 171.751706 
L 534.291419 167.160675 
L 534.568119 163.578401 
L 534.741057 163.189034 
L 534.867878 161.679062 
L 535.063874 155.551562 
L 535.651862 137.856338 
L 536.078441 128.876347 
L 536.954658 113.999697 
L 537.058421 114.380076 
L 537.196771 115.964989 
L 538.245926 135.301474 
L 538.718622 147.211947 
L 539.72166 175.93037 
L 540.632465 202.24748 
L 541.68162 222.519573 
L 545.417072 256.466827 
L 545.670714 257.390161 
L 545.832122 257.49692 
L 546.212585 258.381695 
L 546.904335 264.350525 
L 546.98504 264.59116 
L 547.031156 264.489559 
L 547.215623 263.858874 
L 547.26174 263.931184 
L 547.365502 264.527422 
L 547.573027 267.512126 
L 547.95349 271.797618 
L 548.506891 275.558107 
L 548.714416 276.181569 
L 548.968058 279.389328 
L 549.705925 292.696522 
L 550.46685 306.803561 
L 551.873409 324.987778 
L 552.184697 327.782871 
L 552.27693 327.644709 
L 552.311518 327.634659 
L 552.346105 327.705725 
L 552.461397 328.565453 
L 552.991739 333.896595 
L 553.049385 333.776693 
L 553.441377 331.460361 
L 553.637373 329.194095 
L 554.721115 313.481517 
L 555.274516 304.035432 
L 555.470512 301.180764 
L 557.499646 261.235425 
L 558.053046 254.241567 
L 560.162885 243.226106 
L 560.243589 243.113264 
L 560.289706 243.162374 
L 560.612523 243.836711 
L 560.681698 243.693438 
L 561.027573 242.464802 
L 561.096748 242.527666 
L 561.246628 242.682841 
L 561.292744 242.643944 
L 561.742382 242.304208 
L 561.90379 242.412478 
L 561.938378 242.356949 
L 562.088257 241.641201 
L 562.180491 241.442934 
L 562.226607 241.498415 
L 562.341899 242.041921 
L 562.526366 242.948207 
L 562.572483 242.909786 
L 562.676245 242.896184 
L 562.699303 242.926045 
L 563.033649 243.635903 
L 563.506346 246.595179 
L 564.175038 247.857982 
L 564.336446 248.429918 
L 564.371034 248.403684 
L 564.497855 248.073885 
L 564.739967 247.023328 
L 564.809142 247.118533 
L 564.935963 247.768254 
L 565.189605 250.789753 
L 565.339484 251.482238 
L 565.362543 251.47788 
L 565.466305 251.538549 
L 565.570068 252.214565 
L 566.480872 262.674704 
L 566.849806 267.385498 
L 567.587673 275.011541 
L 568.729061 296.20748 
L 569.121053 303.538114 
L 570.619846 334.676702 
L 570.931134 337.550902 
L 571.219363 339.883032 
L 571.449946 341.934674 
L 571.484534 341.883593 
L 571.715117 341.153255 
L 571.784292 341.247971 
L 571.888055 341.425561 
L 571.922642 341.340577 
L 572.014876 340.342978 
L 573.894131 304.987191 
L 574.551294 285.787031 
L 575.335278 266.661508 
L 576.303728 247.410563 
L 576.626545 244.7587 
L 577.295237 239.328681 
L 578.367451 232.342812 
L 579.232139 227.808227 
L 579.543426 226.947579 
L 580.119885 223.856887 
L 580.235177 223.613998 
L 580.385056 222.394189 
L 580.765519 219.902683 
L 580.846223 219.993709 
L 581.053748 220.53235 
L 581.111394 220.362744 
L 581.261273 218.886681 
L 581.561032 216.549857 
L 581.837732 215.887634 
L 581.906907 215.825681 
L 581.953024 215.882454 
L 582.252782 216.541714 
L 582.321957 216.449007 
L 582.437249 215.859862 
L 582.690891 213.977417 
L 582.748537 214.060137 
L 582.967591 214.590682 
L 583.025237 214.460361 
L 583.221233 213.196922 
L 583.486404 210.079419 
L 583.832279 205.303314 
L 584.09745 204.26063 
L 584.281917 202.596705 
L 584.535559 197.836077 
L 584.80073 194.115635 
L 585.042842 193.567405 
L 585.308013 192.5081 
L 585.446363 190.503864 
L 585.780709 185.517778 
L 586.241876 181.574146 
L 586.553164 177.407737 
L 588.305598 134.990254 
L 588.709119 127.050292 
L 589.101111 122.093098 
L 589.527691 115.294869 
L 589.53922 115.306487 
L 589.619924 115.790178 
L 590.357791 123.46511 
L 591.268596 147.445163 
L 592.813505 190.34917 
L 593.816543 211.630511 
L 594.888757 225.118837 
L 595.592036 230.687885 
L 596.122378 233.55214 
L 596.318374 234.371778 
L 597.044712 238.988075 
L 597.413646 240.703189 
L 597.6327 243.160895 
L 597.967046 246.479978 
L 598.624209 249.135805 
L 599.108434 250.146798 
L 599.119963 250.140199 
L 599.281372 249.895601 
L 599.339018 250.028559 
L 599.638776 251.438436 
L 599.846301 252.367913 
L 599.950064 252.483354 
L 600.169118 253.359884 
L 600.56111 257.262429 
L 601.045335 262.016276 
L 601.206744 262.397434 
L 601.40274 264.178771 
L 601.633323 266.810236 
L 603.305053 295.502693 
L 603.547166 298.66075 
L 603.812337 299.246691 
L 603.962216 302.18357 
L 604.273504 307.391314 
L 604.504088 309.581949 
L 604.769259 315.426492 
L 605.126663 322.595524 
L 605.345717 326.437268 
L 605.680063 332.531311 
L 605.968293 334.850606 
L 606.533222 339.28786 
L 606.694631 340.473707 
L 606.821451 341.072674 
L 606.856039 340.997685 
L 606.994389 339.996942 
L 607.317206 335.952869 
L 607.836019 328.345493 
L 608.055073 326.409275 
L 608.458594 316.315896 
L 610.925837 251.04917 
L 611.317829 245.159287 
L 612.101813 238.066369 
L 613.093322 231.106746 
L 613.762014 229.060913 
L 614.107889 228.698737 
L 614.303885 228.446341 
L 614.476823 227.78738 
L 614.788111 225.733831 
L 614.868815 225.918221 
L 614.972577 226.1385 
L 615.018694 226.05281 
L 615.157044 225.217735 
L 615.456803 221.448223 
L 615.62974 220.401818 
L 615.652799 220.418465 
L 615.814207 220.727392 
L 615.871853 220.567368 
L 616.033261 219.046479 
L 616.33302 216.970205 
L 616.448312 216.834172 
L 616.678895 215.569105 
L 616.771128 215.77704 
L 617.117004 216.575274 
L 617.16312 216.59104 
L 617.197708 216.521009 
L 617.30147 215.699453 
L 617.497466 214.171086 
L 617.532054 214.24011 
L 617.693462 215.294759 
L 617.900987 216.032275 
L 618.016279 215.942827 
L 618.120042 215.349325 
L 618.327567 212.374804 
L 618.800263 206.214549 
L 618.904026 205.883188 
L 619.238372 203.209427 
L 619.457426 200.353602 
L 619.872476 194.341966 
L 620.10306 193.38527 
L 620.275997 191.624205 
L 621.659498 166.510303 
L 621.959257 160.563686 
L 622.293603 154.621174 
L 623.458049 125.990548 
L 623.99992 119.987656 
L 624.242033 117.215592 
L 624.253562 117.21666 
L 624.311208 117.452067 
L 624.56485 120.182634 
L 624.910725 124.539341 
L 625.867647 146.936726 
L 626.536339 162.031354 
L 626.997506 172.752856 
L 627.585493 187.859752 
L 629.326399 218.846243 
L 629.960503 224.667585 
L 630.306378 226.132797 
L 630.583079 227.08232 
L 631.563058 232.881365 
L 631.793642 233.706532 
L 632.151046 234.218623 
L 632.485392 235.668422 
L 632.704447 236.718765 
L 632.739034 236.702951 
L 632.831267 236.763381 
L 633.004205 237.422956 
L 633.269376 238.262823 
L 633.430785 238.420504 
L 633.684426 239.399263 
L 633.765131 239.24609 
L 634.018772 238.01815 
L 634.122535 237.609715 
L 634.168652 237.687802 
L 634.433823 239.014509 
L 634.675935 239.86312 
L 634.791227 240.242024 
L 635.044869 241.961111 
L 635.137102 241.648227 
L 635.413802 240.623491 
L 635.436861 240.641097 
L 635.529094 241.007073 
L 635.748148 243.097708 
L 636.174728 247.349841 
L 636.635895 249.101988 
L 637.016358 252.798556 
L 637.304587 255.765577 
L 637.592816 258.300709 
L 637.604345 258.296511 
L 637.696579 258.063123 
L 637.800341 257.822363 
L 637.834929 257.894756 
L 637.938691 258.778457 
L 638.319154 262.751464 
L 638.342213 262.746615 
L 638.584325 262.725499 
L 638.688088 263.008444 
L 638.826438 264.278434 
L 639.241488 272.340394 
L 640.094647 288.012306 
L 640.382876 295.442718 
L 640.728751 303.059225 
L 641.201448 310.077915 
L 641.570381 320.857558 
L 642.112252 338.075326 
L 642.412011 341.57455 
L 642.70024 345.533091 
L 643.011528 349.125611 
L 643.11529 349.495359 
L 643.161407 349.349967 
L 643.703278 345.624142 
L 644.556437 330.858216 
L 645.271246 311.967339 
L 647.046739 260.891904 
L 648.084364 237.217631 
L 648.43024 234.841058 
L 648.764586 233.475901 
L 649.098932 230.843643 
L 649.456336 228.057307 
L 649.767624 225.765017 
L 649.975149 224.978605 
L 650.171145 224.447351 
L 650.828308 221.017325 
L 651.058891 218.78779 
L 651.393237 216.326897 
L 652.142634 212.76773 
L 652.234867 212.277823 
L 652.569213 210.201231 
L 652.903559 208.987928 
L 653.053438 208.063018 
L 653.399313 205.842688 
L 653.526134 205.626387 
L 653.676014 204.305607 
L 654.240943 198.691764 
L 654.298589 198.731605 
L 654.367764 198.778926 
L 654.402352 198.71766 
L 654.494585 198.019328 
L 654.690581 194.030431 
L 654.921164 191.51297 
L 655.197865 189.82782 
L 656.074082 178.634155 
L 656.708186 172.673661 
L 657.169353 164.398944 
L 658.391446 143.491126 
L 658.506737 143.189374 
L 658.633558 141.937594 
L 659.002492 138.235195 
L 659.348367 135.963309 
L 659.475188 135.820008 
L 659.555892 135.770706 
L 659.59048 135.831492 
L 659.809534 136.753683 
L 659.878709 136.451653 
L 660.120822 133.757742 
L 660.224584 134.21386 
L 660.42058 136.422139 
L 660.812572 140.930568 
L 661.008568 141.874968 
L 661.596556 149.47191 
L 661.96549 159.434283 
L 662.461244 171.029768 
L 662.691828 175.18817 
L 663.383578 190.125818 
L 663.91392 196.775231 
L 664.60567 206.363518 
L 664.882371 207.67807 
L 665.112954 208.222018 
L 665.216717 208.368478 
L 665.389654 209.326773 
L 665.977642 213.592727 
L 665.977642 213.592727 
" clip-path="url(#pd5d241f489)" style="fill: none; stroke: #2ca02c; stroke-opacity: 0.8; stroke-width: 3; stroke-linecap: square"/>
   </g>
   <g id="line2d_8">
    <path d="M 89.530483 372.805982 
L 204.822221 372.805982 
" clip-path="url(#pd5d241f489)" style="fill: none; stroke: #000000; stroke-width: 5; stroke-linecap: square"/>
   </g>
   <g id="patch_3">
    <path d="M 60.708125 386.3618 
L 60.708125 88.1338 
" style="fill: none; stroke: #000000; stroke-width: 0.8; stroke-linejoin: miter; stroke-linecap: square"/>
   </g>
   <g id="text_7">
    <!-- 1s -->
    <g transform="translate(137.918852 399.874882) scale(0.16 -0.16)">
     <defs>
      <path id="DejaVuSans-73" d="M 2834 3397 
L 2834 2853 
Q 2591 2978 2328 3040 
Q 2066 3103 1784 3103 
Q 1356 3103 1142 2972 
Q 928 2841 928 2578 
Q 928 2378 1081 2264 
Q 1234 2150 1697 2047 
L 1894 2003 
Q 2506 1872 2764 1633 
Q 3022 1394 3022 966 
Q 3022 478 2636 193 
Q 2250 -91 1575 -91 
Q 1294 -91 989 -36 
Q 684 19 347 128 
L 347 722 
Q 666 556 975 473 
Q 1284 391 1588 391 
Q 1994 391 2212 530 
Q 2431 669 2431 922 
Q 2431 1156 2273 1281 
Q 2116 1406 1581 1522 
L 1381 1569 
Q 847 1681 609 1914 
Q 372 2147 372 2553 
Q 372 3047 722 3315 
Q 1072 3584 1716 3584 
Q 2034 3584 2315 3537 
Q 2597 3491 2834 3397 
z
" transform="scale(0.015625)"/>
     </defs>
     <use xlink:href="#DejaVuSans-31"/>
     <use xlink:href="#DejaVuSans-73" transform="translate(63.623047 0)"/>
    </g>
   </g>
   <g id="text_8">
    <!-- True vs Generated  -->
    <g transform="translate(263.814063 25.43625) scale(0.24 -0.24)">
     <defs>
      <path id="DejaVuSans-54" d="M -19 4666 
L 3928 4666 
L 3928 4134 
L 2272 4134 
L 2272 0 
L 1638 0 
L 1638 4134 
L -19 4134 
L -19 4666 
z
" transform="scale(0.015625)"/>
      <path id="DejaVuSans-72" d="M 2631 2963 
Q 2534 3019 2420 3045 
Q 2306 3072 2169 3072 
Q 1681 3072 1420 2755 
Q 1159 2438 1159 1844 
L 1159 0 
L 581 0 
L 581 3500 
L 1159 3500 
L 1159 2956 
Q 1341 3275 1631 3429 
Q 1922 3584 2338 3584 
Q 2397 3584 2469 3576 
Q 2541 3569 2628 3553 
L 2631 2963 
z
" transform="scale(0.015625)"/>
      <path id="DejaVuSans-75" d="M 544 1381 
L 544 3500 
L 1119 3500 
L 1119 1403 
Q 1119 906 1312 657 
Q 1506 409 1894 409 
Q 2359 409 2629 706 
Q 2900 1003 2900 1516 
L 2900 3500 
L 3475 3500 
L 3475 0 
L 2900 0 
L 2900 538 
Q 2691 219 2414 64 
Q 2138 -91 1772 -91 
Q 1169 -91 856 284 
Q 544 659 544 1381 
z
M 1991 3584 
L 1991 3584 
z
" transform="scale(0.015625)"/>
      <path id="DejaVuSans-65" d="M 3597 1894 
L 3597 1613 
L 953 1613 
Q 991 1019 1311 708 
Q 1631 397 2203 397 
Q 2534 397 2845 478 
Q 3156 559 3463 722 
L 3463 178 
Q 3153 47 2828 -22 
Q 2503 -91 2169 -91 
Q 1331 -91 842 396 
Q 353 884 353 1716 
Q 353 2575 817 3079 
Q 1281 3584 2069 3584 
Q 2775 3584 3186 3129 
Q 3597 2675 3597 1894 
z
M 3022 2063 
Q 3016 2534 2758 2815 
Q 2500 3097 2075 3097 
Q 1594 3097 1305 2825 
Q 1016 2553 972 2059 
L 3022 2063 
z
" transform="scale(0.015625)"/>
      <path id="DejaVuSans-20" transform="scale(0.015625)"/>
      <path id="DejaVuSans-76" d="M 191 3500 
L 800 3500 
L 1894 563 
L 2988 3500 
L 3597 3500 
L 2284 0 
L 1503 0 
L 191 3500 
z
" transform="scale(0.015625)"/>
      <path id="DejaVuSans-47" d="M 3809 666 
L 3809 1919 
L 2778 1919 
L 2778 2438 
L 4434 2438 
L 4434 434 
Q 4069 175 3628 42 
Q 3188 -91 2688 -91 
Q 1594 -91 976 548 
Q 359 1188 359 2328 
Q 359 3472 976 4111 
Q 1594 4750 2688 4750 
Q 3144 4750 3555 4637 
Q 3966 4525 4313 4306 
L 4313 3634 
Q 3963 3931 3569 4081 
Q 3175 4231 2741 4231 
Q 1884 4231 1454 3753 
Q 1025 3275 1025 2328 
Q 1025 1384 1454 906 
Q 1884 428 2741 428 
Q 3075 428 3337 486 
Q 3600 544 3809 666 
z
" transform="scale(0.015625)"/>
      <path id="DejaVuSans-6e" d="M 3513 2113 
L 3513 0 
L 2938 0 
L 2938 2094 
Q 2938 2591 2744 2837 
Q 2550 3084 2163 3084 
Q 1697 3084 1428 2787 
Q 1159 2491 1159 1978 
L 1159 0 
L 581 0 
L 581 3500 
L 1159 3500 
L 1159 2956 
Q 1366 3272 1645 3428 
Q 1925 3584 2291 3584 
Q 2894 3584 3203 3211 
Q 3513 2838 3513 2113 
z
" transform="scale(0.015625)"/>
      <path id="DejaVuSans-61" d="M 2194 1759 
Q 1497 1759 1228 1600 
Q 959 1441 959 1056 
Q 959 750 1161 570 
Q 1363 391 1709 391 
Q 2188 391 2477 730 
Q 2766 1069 2766 1631 
L 2766 1759 
L 2194 1759 
z
M 3341 1997 
L 3341 0 
L 2766 0 
L 2766 531 
Q 2569 213 2275 61 
Q 1981 -91 1556 -91 
Q 1019 -91 701 211 
Q 384 513 384 1019 
Q 384 1609 779 1909 
Q 1175 2209 1959 2209 
L 2766 2209 
L 2766 2266 
Q 2766 2663 2505 2880 
Q 2244 3097 1772 3097 
Q 1472 3097 1187 3025 
Q 903 2953 641 2809 
L 641 3341 
Q 956 3463 1253 3523 
Q 1550 3584 1831 3584 
Q 2591 3584 2966 3190 
Q 3341 2797 3341 1997 
z
" transform="scale(0.015625)"/>
      <path id="DejaVuSans-74" d="M 1172 4494 
L 1172 3500 
L 2356 3500 
L 2356 3053 
L 1172 3053 
L 1172 1153 
Q 1172 725 1289 603 
Q 1406 481 1766 481 
L 2356 481 
L 2356 0 
L 1766 0 
Q 1100 0 847 248 
Q 594 497 594 1153 
L 594 3053 
L 172 3053 
L 172 3500 
L 594 3500 
L 594 4494 
L 1172 4494 
z
" transform="scale(0.015625)"/>
      <path id="DejaVuSans-64" d="M 2906 2969 
L 2906 4863 
L 3481 4863 
L 3481 0 
L 2906 0 
L 2906 525 
Q 2725 213 2448 61 
Q 2172 -91 1784 -91 
Q 1150 -91 751 415 
Q 353 922 353 1747 
Q 353 2572 751 3078 
Q 1150 3584 1784 3584 
Q 2172 3584 2448 3432 
Q 2725 3281 2906 2969 
z
M 947 1747 
Q 947 1113 1208 752 
Q 1469 391 1925 391 
Q 2381 391 2643 752 
Q 2906 1113 2906 1747 
Q 2906 2381 2643 2742 
Q 2381 3103 1925 3103 
Q 1469 3103 1208 2742 
Q 947 2381 947 1747 
z
" transform="scale(0.015625)"/>
     </defs>
     <use xlink:href="#DejaVuSans-54"/>
     <use xlink:href="#DejaVuSans-72" transform="translate(46.333984 0)"/>
     <use xlink:href="#DejaVuSans-75" transform="translate(87.447266 0)"/>
     <use xlink:href="#DejaVuSans-65" transform="translate(150.826172 0)"/>
     <use xlink:href="#DejaVuSans-20" transform="translate(212.349609 0)"/>
     <use xlink:href="#DejaVuSans-76" transform="translate(244.136719 0)"/>
     <use xlink:href="#DejaVuSans-73" transform="translate(303.316406 0)"/>
     <use xlink:href="#DejaVuSans-20" transform="translate(355.416016 0)"/>
     <use xlink:href="#DejaVuSans-47" transform="translate(387.203125 0)"/>
     <use xlink:href="#DejaVuSans-65" transform="translate(464.693359 0)"/>
     <use xlink:href="#DejaVuSans-6e" transform="translate(526.216797 0)"/>
     <use xlink:href="#DejaVuSans-65" transform="translate(589.595703 0)"/>
     <use xlink:href="#DejaVuSans-72" transform="translate(651.119141 0)"/>
     <use xlink:href="#DejaVuSans-61" transform="translate(692.232422 0)"/>
     <use xlink:href="#DejaVuSans-74" transform="translate(753.511719 0)"/>
     <use xlink:href="#DejaVuSans-65" transform="translate(792.720703 0)"/>
     <use xlink:href="#DejaVuSans-64" transform="translate(854.244141 0)"/>
     <use xlink:href="#DejaVuSans-20" transform="translate(917.720703 0)"/>
    </g>
    <!--  of x Variable over Time -->
    <g transform="translate(235.304688 52.311) scale(0.24 -0.24)">
     <defs>
      <path id="DejaVuSans-6f" d="M 1959 3097 
Q 1497 3097 1228 2736 
Q 959 2375 959 1747 
Q 959 1119 1226 758 
Q 1494 397 1959 397 
Q 2419 397 2687 759 
Q 2956 1122 2956 1747 
Q 2956 2369 2687 2733 
Q 2419 3097 1959 3097 
z
M 1959 3584 
Q 2709 3584 3137 3096 
Q 3566 2609 3566 1747 
Q 3566 888 3137 398 
Q 2709 -91 1959 -91 
Q 1206 -91 779 398 
Q 353 888 353 1747 
Q 353 2609 779 3096 
Q 1206 3584 1959 3584 
z
" transform="scale(0.015625)"/>
      <path id="DejaVuSans-66" d="M 2375 4863 
L 2375 4384 
L 1825 4384 
Q 1516 4384 1395 4259 
Q 1275 4134 1275 3809 
L 1275 3500 
L 2222 3500 
L 2222 3053 
L 1275 3053 
L 1275 0 
L 697 0 
L 697 3053 
L 147 3053 
L 147 3500 
L 697 3500 
L 697 3744 
Q 697 4328 969 4595 
Q 1241 4863 1831 4863 
L 2375 4863 
z
" transform="scale(0.015625)"/>
      <path id="DejaVuSans-56" d="M 1831 0 
L 50 4666 
L 709 4666 
L 2188 738 
L 3669 4666 
L 4325 4666 
L 2547 0 
L 1831 0 
z
" transform="scale(0.015625)"/>
      <path id="DejaVuSans-69" d="M 603 3500 
L 1178 3500 
L 1178 0 
L 603 0 
L 603 3500 
z
M 603 4863 
L 1178 4863 
L 1178 4134 
L 603 4134 
L 603 4863 
z
" transform="scale(0.015625)"/>
      <path id="DejaVuSans-62" d="M 3116 1747 
Q 3116 2381 2855 2742 
Q 2594 3103 2138 3103 
Q 1681 3103 1420 2742 
Q 1159 2381 1159 1747 
Q 1159 1113 1420 752 
Q 1681 391 2138 391 
Q 2594 391 2855 752 
Q 3116 1113 3116 1747 
z
M 1159 2969 
Q 1341 3281 1617 3432 
Q 1894 3584 2278 3584 
Q 2916 3584 3314 3078 
Q 3713 2572 3713 1747 
Q 3713 922 3314 415 
Q 2916 -91 2278 -91 
Q 1894 -91 1617 61 
Q 1341 213 1159 525 
L 1159 0 
L 581 0 
L 581 4863 
L 1159 4863 
L 1159 2969 
z
" transform="scale(0.015625)"/>
      <path id="DejaVuSans-6c" d="M 603 4863 
L 1178 4863 
L 1178 0 
L 603 0 
L 603 4863 
z
" transform="scale(0.015625)"/>
      <path id="DejaVuSans-6d" d="M 3328 2828 
Q 3544 3216 3844 3400 
Q 4144 3584 4550 3584 
Q 5097 3584 5394 3201 
Q 5691 2819 5691 2113 
L 5691 0 
L 5113 0 
L 5113 2094 
Q 5113 2597 4934 2840 
Q 4756 3084 4391 3084 
Q 3944 3084 3684 2787 
Q 3425 2491 3425 1978 
L 3425 0 
L 2847 0 
L 2847 2094 
Q 2847 2600 2669 2842 
Q 2491 3084 2119 3084 
Q 1678 3084 1418 2786 
Q 1159 2488 1159 1978 
L 1159 0 
L 581 0 
L 581 3500 
L 1159 3500 
L 1159 2956 
Q 1356 3278 1631 3431 
Q 1906 3584 2284 3584 
Q 2666 3584 2933 3390 
Q 3200 3197 3328 2828 
z
" transform="scale(0.015625)"/>
     </defs>
     <use xlink:href="#DejaVuSans-20"/>
     <use xlink:href="#DejaVuSans-6f" transform="translate(31.787109 0)"/>
     <use xlink:href="#DejaVuSans-66" transform="translate(92.96875 0)"/>
     <use xlink:href="#DejaVuSans-20" transform="translate(128.173828 0)"/>
     <use xlink:href="#DejaVuSans-78" transform="translate(159.960938 0)"/>
     <use xlink:href="#DejaVuSans-20" transform="translate(219.140625 0)"/>
     <use xlink:href="#DejaVuSans-56" transform="translate(250.927734 0)"/>
     <use xlink:href="#DejaVuSans-61" transform="translate(311.585938 0)"/>
     <use xlink:href="#DejaVuSans-72" transform="translate(372.865234 0)"/>
     <use xlink:href="#DejaVuSans-69" transform="translate(413.978516 0)"/>
     <use xlink:href="#DejaVuSans-61" transform="translate(441.761719 0)"/>
     <use xlink:href="#DejaVuSans-62" transform="translate(503.041016 0)"/>
     <use xlink:href="#DejaVuSans-6c" transform="translate(566.517578 0)"/>
     <use xlink:href="#DejaVuSans-65" transform="translate(594.300781 0)"/>
     <use xlink:href="#DejaVuSans-20" transform="translate(655.824219 0)"/>
     <use xlink:href="#DejaVuSans-6f" transform="translate(687.611328 0)"/>
     <use xlink:href="#DejaVuSans-76" transform="translate(748.792969 0)"/>
     <use xlink:href="#DejaVuSans-65" transform="translate(807.972656 0)"/>
     <use xlink:href="#DejaVuSans-72" transform="translate(869.496094 0)"/>
     <use xlink:href="#DejaVuSans-20" transform="translate(910.609375 0)"/>
     <use xlink:href="#DejaVuSans-54" transform="translate(942.396484 0)"/>
     <use xlink:href="#DejaVuSans-69" transform="translate(1000.355469 0)"/>
     <use xlink:href="#DejaVuSans-6d" transform="translate(1028.138672 0)"/>
     <use xlink:href="#DejaVuSans-65" transform="translate(1125.550781 0)"/>
    </g>
   </g>
   <g id="legend_1">
    <g id="patch_4">
     <path d="M 529.104375 377.3618 
L 682.2 377.3618 
Q 685.8 377.3618 685.8 373.7618 
L 685.8 322.72055 
Q 685.8 319.12055 682.2 319.12055 
L 529.104375 319.12055 
Q 525.504375 319.12055 525.504375 322.72055 
L 525.504375 373.7618 
Q 525.504375 377.3618 529.104375 377.3618 
z
" style="fill: #ffffff; opacity: 0.8; stroke: #cccccc; stroke-linejoin: miter"/>
    </g>
    <g id="line2d_9">
     <path d="M 532.704375 333.697738 
L 550.704375 333.697738 
L 568.704375 333.697738 
" style="fill: none; stroke-dasharray: 11.1,4.8; stroke-dashoffset: 0; stroke: #000000; stroke-opacity: 0.7; stroke-width: 3"/>
    </g>
    <g id="text_9">
     <!-- True -->
     <g transform="translate(583.104375 339.997738) scale(0.18 -0.18)">
      <use xlink:href="#DejaVuSans-54"/>
      <use xlink:href="#DejaVuSans-72" transform="translate(46.333984 0)"/>
      <use xlink:href="#DejaVuSans-75" transform="translate(87.447266 0)"/>
      <use xlink:href="#DejaVuSans-65" transform="translate(150.826172 0)"/>
     </g>
    </g>
    <g id="line2d_10">
     <path d="M 532.704375 360.118363 
L 550.704375 360.118363 
L 568.704375 360.118363 
" style="fill: none; stroke: #2ca02c; stroke-opacity: 0.8; stroke-width: 3; stroke-linecap: square"/>
    </g>
    <g id="text_10">
     <!-- Generated -->
     <g transform="translate(583.104375 366.418363) scale(0.18 -0.18)">
      <use xlink:href="#DejaVuSans-47"/>
      <use xlink:href="#DejaVuSans-65" transform="translate(77.490234 0)"/>
      <use xlink:href="#DejaVuSans-6e" transform="translate(139.013672 0)"/>
      <use xlink:href="#DejaVuSans-65" transform="translate(202.392578 0)"/>
      <use xlink:href="#DejaVuSans-72" transform="translate(263.916016 0)"/>
      <use xlink:href="#DejaVuSans-61" transform="translate(305.029297 0)"/>
      <use xlink:href="#DejaVuSans-74" transform="translate(366.308594 0)"/>
      <use xlink:href="#DejaVuSans-65" transform="translate(405.517578 0)"/>
      <use xlink:href="#DejaVuSans-64" transform="translate(467.041016 0)"/>
     </g>
    </g>
   </g>
  </g>
 </g>
 <defs>
  <clipPath id="pd5d241f489">
   <rect x="60.708125" y="88.1338" width="634.091875" height="298.228"/>
  </clipPath>
 </defs>
</svg>
