<?xml version="1.0" encoding="utf-8" standalone="no"?>
<!DOCTYPE svg PUBLIC "-//W3C//DTD SVG 1.1//EN"
  "http://www.w3.org/Graphics/SVG/1.1/DTD/svg11.dtd">
<svg xmlns:xlink="http://www.w3.org/1999/xlink" width="702pt" height="410.402382pt" viewBox="0 0 702 410.402382" xmlns="http://www.w3.org/2000/svg" version="1.1">
 <metadata>
  <rdf:RDF xmlns:dc="http://purl.org/dc/elements/1.1/" xmlns:cc="http://creativecommons.org/ns#" xmlns:rdf="http://www.w3.org/1999/02/22-rdf-syntax-ns#">
   <cc:Work>
    <dc:type rdf:resource="http://purl.org/dc/dcmitype/StillImage"/>
    <dc:date>2025-10-24T18:04:47.851673</dc:date>
    <dc:format>image/svg+xml</dc:format>
    <dc:creator>
     <cc:Agent>
      <dc:title>Matplotlib v3.10.7, https://matplotlib.org/</dc:title>
     </cc:Agent>
    </dc:creator>
   </cc:Work>
  </rdf:RDF>
 </metadata>
 <defs>
  <style type="text/css">*{stroke-linejoin: round; stroke-linecap: butt}</style>
 </defs>
 <g id="figure_1">
  <g id="patch_1">
   <path d="M 0 410.402382 
L 702 410.402382 
L 702 0 
L 0 0 
z
" style="fill: #ffffff"/>
  </g>
  <g id="axes_1">
   <g id="patch_2">
    <path d="M 60.708125 386.3618 
L 694.8 386.3618 
L 694.8 88.1338 
L 60.708125 88.1338 
z
" style="fill: #ffffff"/>
   </g>
   <g id="matplotlib.axis_1"/>
   <g id="matplotlib.axis_2">
    <g id="ytick_1">
     <g id="line2d_1">
      <defs>
       <path id="me33f7e1d13" d="M 0 0 
L -5 0 
" style="stroke: #000000; stroke-width: 0.8"/>
      </defs>
      <g>
       <use xlink:href="#me33f7e1d13" x="60.708125" y="353.390359" style="stroke: #000000; stroke-width: 0.8"/>
      </g>
     </g>
     <g id="text_1">
      <!-- −2 -->
      <g transform="translate(28.620625 359.469109) scale(0.16 -0.16)">
       <defs>
        <path id="DejaVuSans-2212" d="M 678 2272 
L 4684 2272 
L 4684 1741 
L 678 1741 
L 678 2272 
z
" transform="scale(0.015625)"/>
        <path id="DejaVuSans-32" d="M 1228 531 
L 3431 531 
L 3431 0 
L 469 0 
L 469 531 
Q 828 903 1448 1529 
Q 2069 2156 2228 2338 
Q 2531 2678 2651 2914 
Q 2772 3150 2772 3378 
Q 2772 3750 2511 3984 
Q 2250 4219 1831 4219 
Q 1534 4219 1204 4116 
Q 875 4013 500 3803 
L 500 4441 
Q 881 4594 1212 4672 
Q 1544 4750 1819 4750 
Q 2544 4750 2975 4387 
Q 3406 4025 3406 3419 
Q 3406 3131 3298 2873 
Q 3191 2616 2906 2266 
Q 2828 2175 2409 1742 
Q 1991 1309 1228 531 
z
" transform="scale(0.015625)"/>
       </defs>
       <use xlink:href="#DejaVuSans-2212"/>
       <use xlink:href="#DejaVuSans-32" transform="translate(83.789062 0)"/>
      </g>
     </g>
    </g>
    <g id="ytick_2">
     <g id="line2d_2">
      <g>
       <use xlink:href="#me33f7e1d13" x="60.708125" y="300.611931" style="stroke: #000000; stroke-width: 0.8"/>
      </g>
     </g>
     <g id="text_2">
      <!-- −1 -->
      <g transform="translate(28.620625 306.690681) scale(0.16 -0.16)">
       <defs>
        <path id="DejaVuSans-31" d="M 794 531 
L 1825 531 
L 1825 4091 
L 703 3866 
L 703 4441 
L 1819 4666 
L 2450 4666 
L 2450 531 
L 3481 531 
L 3481 0 
L 794 0 
L 794 531 
z
" transform="scale(0.015625)"/>
       </defs>
       <use xlink:href="#DejaVuSans-2212"/>
       <use xlink:href="#DejaVuSans-31" transform="translate(83.789062 0)"/>
      </g>
     </g>
    </g>
    <g id="ytick_3">
     <g id="line2d_3">
      <g>
       <use xlink:href="#me33f7e1d13" x="60.708125" y="247.833503" style="stroke: #000000; stroke-width: 0.8"/>
      </g>
     </g>
     <g id="text_3">
      <!-- 0 -->
      <g transform="translate(42.028125 253.912253) scale(0.16 -0.16)">
       <defs>
        <path id="DejaVuSans-30" d="M 2034 4250 
Q 1547 4250 1301 3770 
Q 1056 3291 1056 2328 
Q 1056 1369 1301 889 
Q 1547 409 2034 409 
Q 2525 409 2770 889 
Q 3016 1369 3016 2328 
Q 3016 3291 2770 3770 
Q 2525 4250 2034 4250 
z
M 2034 4750 
Q 2819 4750 3233 4129 
Q 3647 3509 3647 2328 
Q 3647 1150 3233 529 
Q 2819 -91 2034 -91 
Q 1250 -91 836 529 
Q 422 1150 422 2328 
Q 422 3509 836 4129 
Q 1250 4750 2034 4750 
z
" transform="scale(0.015625)"/>
       </defs>
       <use xlink:href="#DejaVuSans-30"/>
      </g>
     </g>
    </g>
    <g id="ytick_4">
     <g id="line2d_4">
      <g>
       <use xlink:href="#me33f7e1d13" x="60.708125" y="195.055075" style="stroke: #000000; stroke-width: 0.8"/>
      </g>
     </g>
     <g id="text_4">
      <!-- 1 -->
      <g transform="translate(42.028125 201.133825) scale(0.16 -0.16)">
       <use xlink:href="#DejaVuSans-31"/>
      </g>
     </g>
    </g>
    <g id="ytick_5">
     <g id="line2d_5">
      <g>
       <use xlink:href="#me33f7e1d13" x="60.708125" y="142.276647" style="stroke: #000000; stroke-width: 0.8"/>
      </g>
     </g>
     <g id="text_5">
      <!-- 2 -->
      <g transform="translate(42.028125 148.355397) scale(0.16 -0.16)">
       <use xlink:href="#DejaVuSans-32"/>
      </g>
     </g>
    </g>
    <g id="ytick_6">
     <g id="line2d_6">
      <g>
       <use xlink:href="#me33f7e1d13" x="60.708125" y="89.498219" style="stroke: #000000; stroke-width: 0.8"/>
      </g>
     </g>
     <g id="text_6">
      <!-- 3 -->
      <g transform="translate(42.028125 95.576969) scale(0.16 -0.16)">
       <defs>
        <path id="DejaVuSans-33" d="M 2597 2516 
Q 3050 2419 3304 2112 
Q 3559 1806 3559 1356 
Q 3559 666 3084 287 
Q 2609 -91 1734 -91 
Q 1441 -91 1130 -33 
Q 819 25 488 141 
L 488 750 
Q 750 597 1062 519 
Q 1375 441 1716 441 
Q 2309 441 2620 675 
Q 2931 909 2931 1356 
Q 2931 1769 2642 2001 
Q 2353 2234 1838 2234 
L 1294 2234 
L 1294 2753 
L 1863 2753 
Q 2328 2753 2575 2939 
Q 2822 3125 2822 3475 
Q 2822 3834 2567 4026 
Q 2313 4219 1838 4219 
Q 1578 4219 1281 4162 
Q 984 4106 628 3988 
L 628 4550 
Q 988 4650 1302 4700 
Q 1616 4750 1894 4750 
Q 2613 4750 3031 4423 
Q 3450 4097 3450 3541 
Q 3450 3153 3228 2886 
Q 3006 2619 2597 2516 
z
" transform="scale(0.015625)"/>
       </defs>
       <use xlink:href="#DejaVuSans-33"/>
      </g>
     </g>
    </g>
    <g id="text_7">
     <!-- z -->
     <g transform="translate(20.877188 241.971394) rotate(-90) scale(0.18 -0.18)">
      <defs>
       <path id="DejaVuSans-7a" d="M 353 3500 
L 3084 3500 
L 3084 2975 
L 922 459 
L 3084 459 
L 3084 0 
L 275 0 
L 275 525 
L 2438 3041 
L 353 3041 
L 353 3500 
z
" transform="scale(0.015625)"/>
      </defs>
      <use xlink:href="#DejaVuSans-7a"/>
     </g>
    </g>
   </g>
   <g id="line2d_7">
    <path d="M 89.530483 291.010013 
L 90.568109 300.556309 
L 91.375151 306.130296 
L 91.963139 308.85537 
L 92.378189 309.8933 
L 92.64336 310.086666 
L 92.827827 309.974258 
L 93.05841 309.515217 
L 93.346639 308.36442 
L 93.704044 305.888945 
L 94.119094 301.283609 
L 94.59179 293.338409 
L 95.122132 280.349394 
L 95.733178 259.431551 
L 96.563279 222.310371 
L 97.739255 170.918623 
L 98.235009 158.375182 
L 98.580884 154.21698 
L 98.799939 153.503972 
L 98.892172 153.623422 
L 99.042051 154.315091 
L 99.295693 156.772649 
L 99.676156 162.985941 
L 100.367906 178.779804 
L 102.489274 227.69212 
L 103.757483 250.904591 
L 105.106397 271.605928 
L 106.501427 289.700753 
L 107.896457 305.007597 
L 109.256899 317.583985 
L 110.513579 327.238254 
L 111.551205 333.6246 
L 112.323659 337.152879 
L 112.865531 338.72674 
L 113.222935 339.198638 
L 113.453519 339.203533 
L 113.672573 338.956145 
L 113.937744 338.271597 
L 114.260561 336.747562 
L 114.629494 333.834588 
L 115.044544 328.622153 
L 115.494182 319.947554 
L 115.989937 305.77062 
L 116.531808 283.274588 
L 117.2005 245.138603 
L 118.883759 143.382891 
L 119.264222 133.846108 
L 119.517864 131.616989 
L 119.587039 131.539713 
L 119.633156 131.607742 
L 119.759977 132.266878 
L 119.979031 134.904427 
L 120.324906 142.234867 
L 120.993598 162.278541 
L 122.377099 203.44591 
L 123.34555 225.342107 
L 124.383175 243.851853 
L 125.466918 259.324152 
L 126.458427 270.517888 
L 127.288527 277.618344 
L 127.934161 281.424092 
L 128.406857 283.064681 
L 128.729674 283.53092 
L 128.937199 283.50993 
L 129.144724 283.213429 
L 129.421424 282.352961 
L 129.767299 280.457737 
L 130.193879 276.722846 
L 130.701162 270.065994 
L 131.266092 259.494879 
L 131.969372 241.758033 
L 134.206031 181.446097 
L 134.64414 176.39691 
L 134.943898 174.951337 
L 135.093778 174.827356 
L 135.116836 174.842401 
L 135.255186 175.117791 
L 135.47424 176.173384 
L 135.808586 179.098616 
L 136.304341 185.720702 
L 137.261262 202.197385 
L 139.567097 242.52069 
L 140.91601 261.890667 
L 142.091986 275.784352 
L 143.060437 284.801357 
L 143.809833 289.897031 
L 144.351704 292.265741 
L 144.732167 293.117436 
L 144.97428 293.246066 
L 145.158746 293.099295 
L 145.38933 292.588047 
L 145.689088 291.32228 
L 146.058022 288.715823 
L 146.496131 283.902647 
L 147.003414 275.631452 
L 147.591402 262.029153 
L 148.31774 239.43968 
L 150.231583 176.651223 
L 150.69275 169.490857 
L 151.015567 167.296514 
L 151.176975 167.057246 
L 151.200033 167.06805 
L 151.315325 167.285256 
L 151.511321 168.251964 
L 151.81108 171.048398 
L 152.260717 177.642082 
L 153.148464 194.809569 
L 155.339007 237.581762 
L 156.710978 259.599849 
L 158.048363 277.623545 
L 159.258926 291.113797 
L 160.273493 300.116286 
L 161.045948 305.201019 
L 161.610877 307.63008 
L 162.002869 308.493219 
L 162.244982 308.616074 
L 162.429449 308.46673 
L 162.660032 307.948866 
L 162.959791 306.654718 
L 163.328724 303.946266 
L 163.755304 298.996765 
L 164.239529 290.53431 
L 164.769871 277.062839 
L 165.403976 254.721217 
L 166.337839 212.510491 
L 167.306289 171.881066 
L 167.802044 159.465535 
L 168.147919 155.291095 
L 168.366973 154.538697 
L 168.459207 154.635628 
L 168.609086 155.283834 
L 168.851198 157.511419 
L 169.220132 163.260965 
L 169.865766 177.497904 
L 172.263834 231.747586 
L 173.555101 254.632562 
L 174.927073 275.071471 
L 176.333632 292.80087 
L 177.751721 307.939031 
L 179.15828 320.629421 
L 180.507193 330.856717 
L 181.717756 338.431838 
L 182.674678 343.13245 
L 183.366428 345.55777 
L 183.839124 346.519758 
L 184.138883 346.730462 
L 184.357937 346.641467 
L 184.588521 346.270373 
L 184.888279 345.295156 
L 185.234154 343.337343 
L 185.626146 339.742658 
L 186.052726 333.638236 
L 186.513893 323.599343 
L 187.009647 307.482282 
L 187.563047 281.482125 
L 188.243269 237.711703 
L 189.672886 142.398251 
L 190.087937 129.36371 
L 190.364637 126.026095 
L 190.45687 125.851992 
L 190.502987 125.929176 
L 190.629808 126.676352 
L 190.848862 129.648531 
L 191.206266 138.146678 
L 191.99025 163.865346 
L 193.143168 199.508783 
L 194.053972 220.814671 
L 195.022423 238.367518 
L 196.025461 252.678978 
L 196.982382 263.356766 
L 197.777895 269.951826 
L 198.400471 273.472697 
L 198.861638 274.97665 
L 199.172925 275.379184 
L 199.380451 275.345282 
L 199.599505 275.027766 
L 199.887734 274.140958 
L 200.245139 272.247104 
L 200.671718 268.672555 
L 201.179002 262.383834 
L 201.790048 251.824584 
L 202.574032 234.050179 
L 204.395641 191.286498 
L 204.914454 184.561632 
L 205.294917 182.089088 
L 205.537029 181.596427 
L 205.66385 181.663244 
L 205.836788 182.099941 
L 206.101959 183.498439 
L 206.493951 186.978884 
L 207.081939 194.435423 
L 208.142623 211.304046 
L 210.206345 243.591486 
L 211.486083 260.129745 
L 212.523709 270.894054 
L 213.34228 277.292054 
L 213.964855 280.607075 
L 214.414493 281.967287 
L 214.714252 282.303918 
L 214.921777 282.242282 
L 215.140831 281.897161 
L 215.417531 280.994372 
L 215.774936 278.958453 
L 216.201515 275.096291 
L 216.708799 268.286209 
L 217.308316 256.954858 
L 218.046183 238.302001 
L 220.075317 184.3403 
L 220.548014 178.253835 
L 220.88236 176.273712 
L 221.078356 176.003116 
L 221.089885 176.007165 
L 221.216706 176.194376 
L 221.412702 176.980867 
L 221.723989 179.346586 
L 222.185156 184.79739 
L 222.899965 196.26249 
L 226.012842 249.058076 
L 227.29258 266.149171 
L 228.387852 278.001755 
L 229.264069 285.270178 
L 229.921232 289.062934 
L 230.393928 290.682925 
L 230.716745 291.14424 
L 230.92427 291.123053 
L 231.131795 290.826 
L 231.396966 290.004697 
L 231.742841 288.101174 
L 232.157892 284.43894 
L 232.630588 278.057332 
L 233.172459 267.466064 
L 233.829622 249.912834 
L 234.775014 217.81618 
L 235.824169 184.387245 
L 236.354511 173.689314 
L 236.734974 169.755461 
L 236.988615 168.842222 
L 237.092378 168.844908 
L 237.115436 168.874156 
L 237.265316 169.310343 
L 237.507428 170.865527 
L 237.864833 174.833096 
L 238.441291 184.14872 
L 239.72103 209.590304 
L 241.323585 239.426472 
L 242.707086 261.0676 
L 244.009882 278.12092 
L 245.1628 290.497901 
L 246.108192 298.440211 
L 246.823001 302.74767 
L 247.330284 304.636655 
L 247.676159 305.225 
L 247.895214 305.24982 
L 248.09121 305.012682 
L 248.344852 304.299097 
L 248.667668 302.636331 
L 249.05966 299.287901 
L 249.509298 293.295427 
L 250.016582 283.279178 
L 250.581511 267.406371 
L 251.29632 240.355508 
L 253.1064 168.2479 
L 253.544509 160.017357 
L 253.844267 157.683812 
L 253.982618 157.463932 
L 254.017205 157.489213 
L 254.132497 157.796245 
L 254.340022 159.163131 
L 254.662839 163.105293 
L 255.170122 172.483024 
L 256.32304 199.084337 
L 257.752657 229.80547 
L 259.066983 253.245528 
L 260.450484 273.998228 
L 261.868572 291.994656 
L 263.286661 307.233007 
L 264.681691 319.906355 
L 266.019075 330.107877 
L 267.195051 337.48595 
L 268.117385 341.98821 
L 268.786077 344.298308 
L 269.235714 345.176994 
L 269.523944 345.350596 
L 269.742998 345.232154 
L 269.985111 344.80697 
L 270.284869 343.758594 
L 270.630744 341.660264 
L 271.022736 337.820569 
L 271.460845 331.132952 
L 271.933541 320.178369 
L 272.440825 302.736487 
L 273.017283 274.239922 
L 273.755151 225.070813 
L 274.931126 147.017321 
L 275.369235 131.687982 
L 275.668993 127.265229 
L 275.795814 126.862858 
L 275.830402 126.896484 
L 275.934164 127.346762 
L 276.13016 129.519145 
L 276.441448 135.93096 
L 277.017907 153.438232 
L 278.608933 202.720533 
L 279.531267 223.589117 
L 280.522776 241.072338 
L 281.548872 255.359217 
L 282.494264 265.632973 
L 283.278248 271.941984 
L 283.889294 275.250107 
L 284.327403 276.58503 
L 284.627161 276.927253 
L 284.823157 276.87567 
L 285.042212 276.544488 
L 285.330441 275.633731 
L 285.687845 273.661336 
L 286.125954 269.83168 
L 286.644767 263.130728 
L 287.255813 252.139099 
L 288.051326 233.380018 
L 289.826819 190.215657 
L 290.345632 183.238041 
L 290.714565 180.734569 
L 290.956678 180.219304 
L 291.083499 180.295782 
L 291.256436 180.767368 
L 291.533136 182.327182 
L 291.936658 186.072841 
L 292.524645 193.895774 
L 293.781325 214.542163 
L 295.625993 243.754597 
L 296.917261 260.758631 
L 297.977945 272.003296 
L 298.819574 278.784831 
L 299.453679 282.30399 
L 299.914846 283.790488 
L 300.226134 284.193309 
L 300.422129 284.162754 
L 300.629655 283.867055 
L 300.906355 283.01448 
L 301.25223 281.138858 
L 301.678809 277.442379 
L 302.174564 270.98189 
L 302.751023 260.281102 
L 303.454302 242.616075 
L 305.760137 180.532239 
L 306.186716 175.924095 
L 306.486475 174.62535 
L 306.624825 174.555375 
L 306.647883 174.57524 
L 306.786233 174.878144 
L 307.016817 176.051389 
L 307.351163 179.087998 
L 307.846917 185.884793 
L 308.873014 203.879893 
L 311.01744 241.494246 
L 312.366353 261.090919 
L 313.565388 275.449674 
L 314.545367 284.730731 
L 315.306293 290.036824 
L 315.871222 292.593805 
L 316.263214 293.506705 
L 316.516856 293.659129 
L 316.701323 293.520351 
L 316.931906 293.017422 
L 317.231665 291.756133 
L 317.600598 289.143239 
L 318.038707 284.312046 
L 318.545991 276.036814 
L 319.122449 262.686215 
L 319.837258 240.492762 
L 321.820276 175.366951 
L 322.258385 168.80931 
L 322.569672 166.83114 
L 322.719552 166.64602 
L 322.74261 166.658995 
L 322.869431 166.921012 
L 323.076956 168.015966 
L 323.388244 171.064105 
L 323.849411 178.085528 
L 324.783274 196.674358 
L 326.800879 236.230908 
L 328.18438 258.684469 
L 329.521764 276.919508 
L 330.755386 290.86287 
L 331.793011 300.244341 
L 332.588524 305.625361 
L 333.176512 308.259486 
L 333.580033 309.207252 
L 333.833675 309.369621 
L 334.018142 309.242538 
L 334.248725 308.754819 
L 334.548484 307.500537 
L 334.905888 304.941704 
L 335.332468 300.094079 
L 335.805164 291.988922 
L 336.335506 278.773445 
L 336.958081 257.178035 
L 337.834298 217.771653 
L 338.894982 172.090602 
L 339.390737 159.346655 
L 339.748141 154.876903 
L 339.978725 154.065818 
L 340.070958 154.173867 
L 340.220837 154.843506 
L 340.46295 157.113252 
L 340.843413 163.159877 
L 341.512105 178.149604 
L 343.771823 229.739905 
L 345.051561 252.783691 
L 346.412004 273.353183 
L 347.818563 291.334398 
L 349.225122 306.552243 
L 350.608623 319.189761 
L 351.91142 329.145815 
L 353.041279 336.175515 
L 353.894437 340.22461 
L 354.493954 342.131194 
L 354.909005 342.839405 
L 355.174176 342.946616 
L 355.381701 342.796987 
L 355.623813 342.312605 
L 355.923572 341.157701 
L 356.280976 338.790708 
L 356.684497 334.494881 
L 357.122606 327.210561 
L 357.595302 315.343586 
L 358.114115 296.389256 
L 358.702103 266.053168 
L 359.543733 209.029694 
L 360.477596 149.730799 
L 360.927233 133.644752 
L 361.238521 128.866276 
L 361.376871 128.391617 
L 361.411459 128.424022 
L 361.515221 128.867969 
L 361.711217 130.991103 
L 362.034034 137.44969 
L 362.587434 153.856194 
L 364.213048 203.468135 
L 365.15844 224.724349 
L 366.161478 242.399844 
L 367.199104 256.943701 
L 368.167555 267.604573 
L 368.963068 274.125539 
L 369.585643 277.590022 
L 370.035281 279.011966 
L 370.335039 279.377257 
L 370.531035 279.337418 
L 370.750089 279.011969 
L 371.038319 278.106435 
L 371.395723 276.130929 
L 371.822303 272.374368 
L 372.329586 265.743506 
L 372.929103 254.763867 
L 373.690029 236.294998 
L 375.62693 187.158746 
L 376.122684 180.711532 
L 376.46856 178.552213 
L 376.687614 178.180869 
L 376.802906 178.286211 
L 376.987372 178.867817 
L 377.264073 180.620909 
L 377.679123 184.841399 
L 378.301698 193.750906 
L 379.927312 221.690999 
L 381.506809 246.720415 
L 382.786547 263.641045 
L 383.85876 275.072913 
L 384.711919 282.001 
L 385.346023 285.555698 
L 385.80719 287.074479 
L 386.118478 287.491285 
L 386.314474 287.467294 
L 386.521999 287.176858 
L 386.798699 286.326621 
L 387.144575 284.437856 
L 387.559625 280.797562 
L 388.055379 274.241767 
L 388.60878 263.702121 
L 389.289001 246.028054 
L 390.41886 209.553043 
L 391.272019 185.375734 
L 391.802361 175.888388 
L 392.171294 172.554098 
L 392.413407 171.844994 
L 392.528699 171.89766 
L 392.678578 172.322735 
L 392.920691 173.802645 
L 393.289624 177.688961 
L 393.866083 186.508963 
L 395.042059 208.68504 
L 396.748376 239.550468 
L 398.120348 260.410624 
L 399.377028 276.312288 
L 400.449241 287.265337 
L 401.290871 293.816312 
L 401.924975 297.214944 
L 402.374613 298.605479 
L 402.674372 298.956407 
L 402.870368 298.897538 
L 403.077893 298.558 
L 403.354593 297.612555 
L 403.700468 295.555983 
L 404.103989 291.68446 
L 404.565156 284.945624 
L 405.107027 273.468341 
L 405.741132 254.853827 
L 406.628878 221.078139 
L 407.781796 178.68776 
L 408.300608 167.237075 
L 408.669542 163.153267 
L 408.911655 162.321861 
L 409.015417 162.398411 
L 409.165296 162.946836 
L 409.407409 164.854442 
L 409.799401 170.074924 
L 410.410447 181.638328 
L 413.465678 243.811925 
L 414.83765 265.489571 
L 416.221151 283.915679 
L 417.535477 298.578202 
L 418.699923 309.238167 
L 419.633786 315.91714 
L 420.325537 319.453838 
L 420.809762 320.947688 
L 421.132579 321.359337 
L 421.340104 321.328961 
L 421.547629 321.033709 
L 421.8128 320.210249 
L 422.147146 318.329673 
L 422.539138 314.678319 
L 422.977247 308.329081 
L 423.461472 297.870184 
L 424.003343 280.912632 
L 424.637448 253.452326 
L 425.732719 193.756273 
L 426.447528 161.004334 
L 426.897166 149.031429 
L 427.219983 145.221999 
L 427.381391 144.778456 
L 427.404449 144.791822 
L 427.508212 145.077952 
L 427.692679 146.445986 
L 427.992437 150.71189 
L 428.476662 161.440876 
L 431.428131 233.519215 
L 432.638694 254.680541 
L 433.906903 273.067543 
L 435.140525 287.856737 
L 436.212738 298.20717 
L 437.065897 304.464379 
L 437.688472 307.582399 
L 438.126581 308.824563 
L 438.41481 309.111366 
L 438.599277 309.036655 
L 438.818331 308.652423 
L 439.095032 307.650504 
L 439.440907 305.461152 
L 439.844428 301.347345 
L 440.305595 294.173813 
L 440.824408 282.377688 
L 441.412395 263.459516 
L 442.18485 230.621346 
L 443.591409 170.035314 
L 444.075635 158.515301 
L 444.409981 154.918993 
L 444.605977 154.414231 
L 444.69821 154.559185 
L 444.859618 155.363456 
L 445.124789 158.061056 
L 445.53984 165.012316 
L 446.300765 182.300355 
L 448.18002 225.557374 
L 449.44823 249.100559 
L 450.797143 270.085905 
L 452.203702 288.571541 
L 453.610261 304.214947 
L 455.005291 317.320582 
L 456.331146 327.758164 
L 457.484064 335.199867 
L 458.383339 339.694537 
L 459.040502 341.973688 
L 459.478611 342.808313 
L 459.755311 342.95607 
L 459.962836 342.832216 
L 460.204949 342.385831 
L 460.504707 341.28584 
L 460.862112 339.014284 
L 461.265633 334.861869 
L 461.703741 327.877893 
L 462.176437 316.556254 
L 462.683721 298.691053 
L 463.26018 269.722134 
L 464.032634 218.246992 
L 465.093318 149.536992 
L 465.542956 133.539048 
L 465.854244 128.850367 
L 465.992594 128.412809 
L 466.027181 128.452605 
L 466.130944 128.910446 
L 466.32694 131.055653 
L 466.638228 137.336532 
L 467.214686 154.502127 
L 468.851829 204.352932 
L 469.797221 225.428485 
L 470.800259 242.960078 
L 471.837885 257.376735 
L 472.794806 267.802115 
L 473.590319 274.23794 
L 474.201366 277.568648 
L 474.639474 278.919331 
L 474.939233 279.268972 
L 475.135229 279.219402 
L 475.354283 278.888014 
L 475.630983 278.011454 
L 475.988388 276.030275 
L 476.414967 272.275497 
L 476.922251 265.671942 
L 477.521768 254.728572 
L 478.282693 236.334546 
L 480.231124 187.046775 
L 480.715349 180.775754 
L 481.061224 178.622267 
L 481.280278 178.262167 
L 481.407099 178.396512 
L 481.591566 179.015964 
L 481.879795 180.87082 
L 482.294846 185.156694 
L 482.917421 194.179685 
L 487.079453 259.889123 
L 488.197783 272.509303 
L 489.097058 280.385114 
L 489.788809 284.690632 
L 490.296092 286.627916 
L 490.641967 287.231245 
L 490.861022 287.267115 
L 491.057018 287.047536 
L 491.31066 286.378007 
L 491.633476 284.830433 
L 492.036997 281.676508 
L 492.498164 276.188557 
L 493.028506 266.976977 
L 493.67414 251.476761 
L 494.561887 224.064217 
L 495.77245 187.439656 
L 496.32585 176.826835 
L 496.717842 172.947005 
L 496.983013 172.043407 
L 497.098305 172.062171 
L 497.109834 172.077267 
L 497.259713 172.485286 
L 497.501826 173.92934 
L 497.85923 177.603894 
L 498.42416 186.089186 
L 499.53096 206.854711 
L 501.294924 238.890347 
L 502.678425 259.991631 
L 503.935105 275.93703 
L 505.007318 286.9271 
L 505.860477 293.584115 
L 506.494581 296.982588 
L 506.944219 298.371366 
L 507.243978 298.720349 
L 507.439974 298.660008 
L 507.647499 298.318889 
L 507.924199 297.373123 
L 508.270074 295.318808 
L 508.673595 291.441857 
L 509.146291 284.50046 
L 509.688162 272.958458 
L 510.322267 254.281683 
L 511.221543 220.075749 
L 512.351402 178.792914 
L 512.870214 167.390951 
L 513.239148 163.323821 
L 513.481261 162.498434 
L 513.585023 162.576529 
L 513.734902 163.126038 
L 513.977015 165.031041 
L 514.369007 170.227067 
L 514.980053 181.753538 
L 518.046813 244.006185 
L 519.418785 265.632291 
L 520.790757 283.868515 
L 522.105083 298.494782 
L 523.258 308.998992 
L 524.180334 315.536504 
L 524.860555 318.957585 
L 525.333251 320.379678 
L 525.644539 320.759779 
L 525.852064 320.719064 
L 526.059589 320.411043 
L 526.32476 319.576432 
L 526.659106 317.678253 
L 527.051098 313.987457 
L 527.489207 307.570036 
L 527.984961 296.738266 
L 528.526832 279.630422 
L 529.172466 251.494923 
L 531.293834 151.524969 
L 531.651239 146.117095 
L 531.870293 145.187569 
L 531.950997 145.275597 
L 532.089347 145.929873 
L 532.319931 148.303619 
L 532.688864 154.835911 
L 533.357556 171.586175 
L 535.213753 218.775817 
L 536.366671 241.623004 
L 537.611821 261.942817 
L 538.89156 279.302489 
L 540.090594 292.68477 
L 541.093632 301.586483 
L 541.866086 306.680504 
L 542.431016 309.125053 
L 542.823008 310.004203 
L 543.07665 310.137767 
L 543.261116 309.986883 
L 543.4917 309.467654 
L 543.791458 308.16941 
L 544.160392 305.441263 
L 544.586971 300.420703 
L 545.071197 291.835652 
L 545.601539 278.142464 
L 546.235643 255.370757 
L 547.157977 212.8936 
L 548.103369 172.287554 
L 548.610653 158.856363 
L 548.956528 154.4513 
L 549.187112 153.616824 
L 549.279345 153.722037 
L 549.429224 154.39282 
L 549.671337 156.671107 
L 550.0518 162.697923 
L 550.720492 177.529634 
L 552.922564 228.386993 
L 554.190773 251.49084 
L 555.539687 272.097783 
L 556.934717 290.10417 
L 558.329747 305.317448 
L 559.67866 317.676053 
L 560.889223 326.839591 
L 561.869203 332.716284 
L 562.584012 335.815941 
L 563.079766 337.124551 
L 563.414112 337.503423 
L 563.633167 337.477476 
L 563.852221 337.19101 
L 564.117392 336.430879 
L 564.440209 334.764666 
L 564.820671 331.498123 
L 565.247251 325.730024 
L 565.708418 316.181456 
L 566.215701 300.557223 
L 566.79216 275.232566 
L 567.49544 233.336296 
L 568.867411 149.92153 
L 569.30552 136.543563 
L 569.605279 132.77567 
L 569.72057 132.463756 
L 569.766687 132.508939 
L 569.881979 133.031889 
L 570.077975 135.186643 
L 570.412321 141.812141 
L 571.011838 158.99875 
L 572.602864 205.716863 
L 573.594373 227.631177 
L 574.643527 246.027439 
L 575.738799 261.467006 
L 576.741837 272.692359 
L 577.571938 279.707971 
L 578.217571 283.466943 
L 578.678738 285.03298 
L 578.990026 285.467833 
L 579.197551 285.444766 
L 579.405076 285.151266 
L 579.681776 284.304752 
L 580.027652 282.408578 
L 580.442702 278.735375 
L 580.926927 272.306233 
L 581.503386 261.406824 
L 582.195136 243.684515 
L 584.558617 178.594908 
L 584.973667 174.242152 
L 585.250367 173.168059 
L 585.365659 173.140938 
L 585.388717 173.164271 
L 585.538597 173.542432 
L 585.780709 174.913683 
L 586.138114 178.40061 
L 586.668456 186.052904 
L 587.752198 205.840746 
L 589.67757 240.191604 
L 591.049542 260.629984 
L 592.283163 275.840324 
L 593.30926 285.947062 
L 594.116302 291.890694 
L 594.70429 294.786618 
L 595.130869 295.930774 
L 595.407569 296.163925 
L 595.592036 296.060258 
L 595.811091 295.635885 
L 596.09932 294.524142 
L 596.456724 292.161377 
L 596.883304 287.710332 
L 597.379058 279.963351 
L 597.932458 267.551409 
L 598.601151 247.14523 
L 599.800185 201.859016 
L 600.56111 177.677189 
L 601.045335 168.364669 
L 601.391211 165.168559 
L 601.610265 164.61156 
L 601.714027 164.719432 
L 601.875436 165.335789 
L 602.129078 167.328317 
L 602.50954 172.33099 
L 603.120587 183.783303 
L 606.095114 242.943423 
L 607.467085 264.465789 
L 608.815999 282.263373 
L 610.061149 295.91469 
L 611.121833 305.264102 
L 611.940405 310.687769 
L 612.528392 313.28185 
L 612.943443 314.266393 
L 613.208614 314.441009 
L 613.393081 314.317035 
L 613.623664 313.839553 
L 613.911893 312.666441 
L 614.269298 310.164905 
L 614.684348 305.509144 
L 615.145515 297.687494 
L 615.664328 284.70397 
L 616.263845 263.609339 
L 617.036299 227.756546 
L 618.316038 168.144897 
L 618.788734 155.423871 
L 619.134609 151.012357 
L 619.353663 150.263634 
L 619.445897 150.394986 
L 619.607305 151.223025 
L 619.860947 153.931152 
L 620.252939 160.853893 
L 620.990806 178.585368 
L 622.731711 220.753663 
L 623.942274 244.251796 
L 625.245071 265.269134 
L 626.593984 283.53752 
L 627.90831 298.453967 
L 629.107344 309.665343 
L 630.087324 316.903637 
L 630.813662 320.802359 
L 631.332475 322.548772 
L 631.67835 323.086642 
L 631.897404 323.107125 
L 632.0934 322.87992 
L 632.347042 322.191699 
L 632.669859 320.565935 
L 633.050322 317.378359 
L 633.476901 311.714371 
L 633.949597 302.159777 
L 634.479939 286.567768 
L 635.079456 261.97308 
L 635.921086 216.776294 
L 636.970241 162.793836 
L 637.454466 148.457135 
L 637.788812 143.902156 
L 637.973279 143.251139 
L 637.984808 143.252882 
L 638.065512 143.400716 
L 638.215392 144.283925 
L 638.469033 147.393251 
L 638.884084 155.670866 
L 639.691126 177.321279 
L 641.120743 214.300124 
L 642.239073 237.3126 
L 643.438107 257.509674 
L 644.683258 274.878105 
L 645.847705 288.20266 
L 646.827684 297.087282 
L 647.58861 302.177917 
L 648.153539 304.630371 
L 648.534002 305.467622 
L 648.776115 305.588111 
L 648.960582 305.434504 
L 649.191165 304.910431 
L 649.502453 303.562745 
L 649.871386 300.83558 
L 650.297966 295.793391 
L 650.782191 287.175891 
L 651.335591 273.086063 
L 651.981225 250.549919 
L 653.122613 200.635198 
L 653.906597 171.370112 
L 654.379293 160.944245 
L 654.725168 157.380407 
L 654.921164 156.87506 
L 654.932694 156.878342 
L 655.036456 157.068066 
L 655.209394 158.002265 
L 655.486094 160.937559 
L 655.924203 168.248103 
L 656.708186 185.765002 
L 658.552854 226.924095 
L 659.855651 250.665104 
L 661.227622 271.673384 
L 662.634182 289.904178 
L 664.05227 305.48689 
L 665.470358 318.679464 
L 665.977642 322.880217 
L 665.977642 322.880217 
" clip-path="url(#p51dde8ba47)" style="fill: none; stroke-dasharray: 11.1,4.8; stroke-dashoffset: 0; stroke: #000000; stroke-opacity: 0.7; stroke-width: 3"/>
   </g>
   <g id="line2d_8">
    <path d="M 89.530483 290.891004 
L 89.645775 290.451845 
L 89.922475 288.303954 
L 90.003179 288.566883 
L 90.164588 289.16224 
L 90.210704 289.099845 
L 90.302938 288.562265 
L 90.637284 286.289377 
L 90.994688 285.737427 
L 91.006217 285.74404 
L 91.098451 285.953471 
L 91.225271 287.132399 
L 91.52503 292.735492 
L 92.020784 300.823294 
L 92.424306 306.715206 
L 92.770181 307.119377 
L 92.793239 307.093355 
L 92.885473 306.921793 
L 92.931589 307.028689 
L 93.05841 308.175278 
L 93.392756 312.81217 
L 93.48499 312.52364 
L 93.692515 310.676812 
L 94.580261 302.596547 
L 94.718611 301.436644 
L 95.225895 294.385717 
L 95.617887 281.996672 
L 96.309637 260.554119 
L 96.724687 251.354888 
L 96.9668 241.578134 
L 98.465593 161.857686 
L 98.857585 151.467211 
L 99.088168 149.924328 
L 99.307222 149.420629 
L 99.445572 149.579317 
L 99.606981 149.955484 
L 99.75686 151.103401 
L 100.010502 155.842784 
L 100.667665 171.061097 
L 102.40857 218.756698 
L 102.996558 230.631919 
L 103.400079 237.50109 
L 104.161004 249.452767 
L 104.875813 260.415317 
L 105.417684 266.636296 
L 105.76356 273.452377 
L 106.259314 281.393693 
L 107.135531 291.903335 
L 107.550582 297.606012 
L 108.12704 304.602095 
L 108.645853 305.284705 
L 109.060903 307.09287 
L 109.256899 311.334166 
L 109.441366 313.406041 
L 109.452895 313.40024 
L 109.52207 313.116989 
L 109.775712 311.279246 
L 109.867945 311.340099 
L 109.94865 311.099468 
L 110.156175 310.503558 
L 110.179233 310.520199 
L 110.455933 310.971181 
L 110.663458 312.06614 
L 110.721104 311.952966 
L 111.043921 310.321024 
L 111.216859 307.98671 
L 111.701084 295.830394 
L 112.623418 271.640675 
L 112.854001 265.767435 
L 113.165289 249.423628 
L 113.545752 231.444449 
L 113.776335 221.50191 
L 115.009957 151.065148 
L 115.229011 147.923763 
L 115.632532 143.089929 
L 115.736295 143.309257 
L 115.909233 144.36417 
L 116.347341 148.909304 
L 116.716275 155.016769 
L 117.488729 173.809535 
L 118.226596 195.479034 
L 119.333397 220.459006 
L 119.886797 226.647761 
L 121.454765 257.37131 
L 122.596153 271.765024 
L 122.838266 273.105532 
L 122.930499 273.649482 
L 123.564604 281.086725 
L 123.956596 287.000821 
L 124.417763 289.372784 
L 124.636817 292.302523 
L 124.855871 295.249294 
L 124.87893 295.218295 
L 125.005751 294.968736 
L 125.051867 295.062337 
L 125.190217 295.995185 
L 125.536093 298.102388 
L 125.835851 299.095259 
L 126.112551 300.377189 
L 126.170197 300.24909 
L 126.308547 299.907181 
L 126.354664 299.951626 
L 126.723598 300.543597 
L 126.781243 300.343811 
L 126.954181 298.579002 
L 127.369231 293.93797 
L 127.426877 293.982238 
L 127.507581 293.9849 
L 127.53064 293.941852 
L 127.622873 293.369856 
L 127.784282 290.341747 
L 128.118628 284.552251 
L 128.280036 284.243578 
L 128.303094 284.25534 
L 128.452974 284.531419 
L 128.510619 284.341813 
L 128.695086 282.458254 
L 128.948728 278.290379 
L 129.421424 264.967167 
L 129.813416 251.072088 
L 130.044 245.20738 
L 131.807963 185.767626 
L 132.038547 176.635776 
L 132.315247 169.439348 
L 133.214522 155.057809 
L 133.491223 155.058828 
L 133.606514 156.228546 
L 134.044623 164.482713 
L 137.272792 237.319162 
L 137.84925 248.985341 
L 138.206655 252.827938 
L 138.437238 253.70244 
L 138.55253 254.034418 
L 138.806172 255.980748 
L 139.601685 264.032991 
L 139.94756 268.786637 
L 140.155085 271.603397 
L 141.561644 297.133828 
L 141.838344 301.481416 
L 142.760678 306.053875 
L 143.15267 309.654477 
L 143.187258 309.629486 
L 143.325608 309.146858 
L 143.659954 307.783533 
L 143.729129 307.927247 
L 144.224883 310.072641 
L 144.294058 309.921603 
L 144.478525 309.248016 
L 144.536171 309.310448 
L 144.639934 309.397908 
L 144.674521 309.354559 
L 144.778284 309.229021 
L 144.8244 309.286005 
L 144.939692 309.474535 
L 144.985809 309.410448 
L 145.170276 308.987653 
L 145.227921 309.045304 
L 145.435447 309.503867 
L 145.539209 309.677964 
L 145.585326 309.610467 
L 146.092609 308.090693 
L 146.346251 306.031741 
L 146.403897 306.17957 
L 146.484601 306.397388 
L 146.530718 306.249137 
L 146.657539 304.791399 
L 146.968827 297.743026 
L 147.960336 272.837771 
L 148.882669 223.848709 
L 149.240074 207.289157 
L 149.528303 200.43621 
L 149.805003 193.948608 
L 150.254641 175.944359 
L 150.750396 162.332116 
L 150.992508 160.240687 
L 151.200033 158.950949 
L 151.465204 157.843261 
L 151.615084 157.750358 
L 151.79955 156.470719 
L 151.880255 156.219524 
L 151.926371 156.354581 
L 152.030134 157.617472 
L 152.295305 164.698209 
L 153.390576 195.82468 
L 155.189128 230.985046 
L 155.661824 239.885026 
L 156.872387 260.952305 
L 157.368141 269.271952 
L 158.970697 291.886725 
L 159.33963 294.228268 
L 159.75468 299.452702 
L 160.215847 303.90867 
L 160.492547 307.355604 
L 161.484056 316.033692 
L 161.818402 319.52032 
L 161.956753 320.770011 
L 162.314157 324.054437 
L 162.68309 325.768819 
L 162.925203 326.076665 
L 163.121199 327.830495 
L 163.547779 331.274126 
L 163.709187 331.634243 
L 163.755304 331.614582 
L 163.824479 331.709058 
L 163.928241 332.555936 
L 164.228 334.959641 
L 164.447054 335.774583 
L 164.689167 338.446382 
L 165.011984 341.295777 
L 165.092688 341.386528 
L 165.138805 341.323687 
L 165.357859 340.554749 
L 165.599971 339.869277 
L 165.62303 339.883484 
L 165.703734 340.175896 
L 165.865142 341.932734 
L 166.626068 351.106939 
L 166.683714 350.92185 
L 167.306289 347.749989 
L 167.386993 347.858507 
L 167.490756 348.628225 
L 167.721339 350.596759 
L 167.767456 350.538656 
L 168.044156 350.172939 
L 168.159448 350.027476 
L 168.286269 349.800541 
L 168.320856 349.85258 
L 168.459207 350.492431 
L 168.758965 351.804592 
L 168.793553 351.77806 
L 168.931903 351.323109 
L 169.289307 349.60236 
L 169.370011 349.841387 
L 169.554478 350.734868 
L 169.612124 350.63188 
L 169.842707 349.417661 
L 170.027174 348.028653 
L 170.234699 346.205306 
L 170.280816 346.268468 
L 170.569045 347.253581 
L 170.63822 347.081674 
L 170.799629 345.643132 
L 171.549025 335.522199 
L 171.964075 326.077948 
L 172.667355 313.323444 
L 173.070876 299.048569 
L 173.670393 258.298253 
L 175.019306 149.242939 
L 175.503532 132.654242 
L 175.699528 130.537696 
L 175.722586 130.554608 
L 175.814819 131.028157 
L 176.241399 133.607192 
L 176.322103 133.694181 
L 176.425866 134.390305 
L 176.598803 137.433967 
L 177.371258 158.684559 
L 178.086067 180.692317 
L 178.846992 201.791286 
L 179.423451 213.380918 
L 179.896147 223.474153 
L 180.657072 239.92751 
L 181.602465 253.240991 
L 181.717756 253.204102 
L 181.775402 253.272145 
L 181.879165 254.088307 
L 182.409507 259.145916 
L 182.593974 259.403561 
L 182.709265 259.515423 
L 182.801499 260.134445 
L 184.046649 273.288387 
L 184.242645 274.075487 
L 184.265704 274.061403 
L 184.392525 273.741493 
L 184.842162 272.378129 
L 184.968983 272.500287 
L 185.107333 273.007612 
L 185.188038 273.308758 
L 185.234154 273.173792 
L 185.384034 271.314826 
L 185.810613 263.915278 
L 185.948963 262.693983 
L 185.983551 262.736366 
L 186.13343 263.033847 
L 186.191076 262.99065 
L 186.306368 263.038405 
L 186.398601 263.095479 
L 186.433188 263.029476 
L 186.54848 262.305771 
L 186.744476 259.439395 
L 187.159526 250.959228 
L 187.228701 251.096736 
L 187.332464 251.42396 
L 187.378581 251.290712 
L 187.482343 249.755855 
L 187.689868 242.280291 
L 188.162565 225.872481 
L 188.427736 224.617515 
L 188.577615 222.057195 
L 188.92349 215.488209 
L 189.073369 211.522588 
L 189.730532 190.592885 
L 190.214757 185.700261 
L 190.226287 185.70213 
L 190.31852 185.623572 
L 190.572162 184.741957 
L 190.664395 184.820024 
L 190.73357 184.738622 
L 190.848862 183.942794 
L 191.125562 181.650024 
L 191.16015 181.694852 
L 191.356146 182.443839 
L 191.494496 183.748475 
L 191.955663 188.697246 
L 192.070954 189.046163 
L 192.105542 189.006746 
L 192.197775 188.901235 
L 192.232363 188.959848 
L 192.486005 190.013748 
L 192.705059 192.121586 
L 193.581276 205.727185 
L 194.849485 235.413544 
L 195.725703 244.589591 
L 196.521215 248.965497 
L 197.651075 263.941913 
L 198.031537 268.550371 
L 198.446588 271.193409 
L 199.230571 278.949851 
L 199.657151 281.164817 
L 200.118318 283.114596 
L 200.37196 284.721032 
L 200.49878 284.692065 
L 200.625601 284.749401 
L 200.694776 284.80093 
L 200.729364 284.723523 
L 200.936889 283.783068 
L 201.017593 283.972105 
L 201.20206 284.57626 
L 201.248177 284.496796 
L 201.409585 283.561765 
L 201.697815 280.50426 
L 201.90534 279.501807 
L 202.643207 278.878855 
L 202.723911 278.776034 
L 202.816144 278.004935 
L 202.954494 274.400275 
L 203.185078 261.209156 
L 203.450249 250.869658 
L 203.669303 248.627965 
L 203.784595 247.918022 
L 204.015178 244.424982 
L 204.291879 235.266137 
L 204.960571 207.805238 
L 205.444796 197.409013 
L 205.733025 191.871756 
L 206.609243 171.723963 
L 206.655359 171.6239 
L 206.713005 171.736131 
L 206.966647 173.200671 
L 207.070409 173.54867 
L 207.116526 173.479128 
L 207.231818 173.120584 
L 207.277935 173.230166 
L 207.393226 174.525384 
L 207.76216 182.303214 
L 208.027331 185.058132 
L 208.200269 186.487419 
L 208.430852 191.96213 
L 208.984252 203.28232 
L 209.480007 209.824628 
L 209.71059 212.111578 
L 210.021878 219.783726 
L 210.702099 234.873389 
L 212.92723 269.261916 
L 213.665097 274.777857 
L 214.46061 282.121112 
L 214.610489 282.723392 
L 214.633547 282.718705 
L 214.760368 282.772187 
L 214.864131 283.21206 
L 215.106244 285.835414 
L 215.809523 290.796038 
L 216.40904 295.02901 
L 216.466686 294.970749 
L 216.55892 294.518547 
L 216.893266 291.374444 
L 216.97397 291.854524 
L 217.308316 294.702057 
L 217.331374 294.673662 
L 217.435137 294.121611 
L 217.907833 291.515158 
L 218.173004 290.679855 
L 218.253708 290.748642 
L 218.50735 291.410439 
L 218.599583 291.283448 
L 218.749463 290.815951 
L 219.014634 288.963007 
L 219.164513 286.190201 
L 219.637209 271.490914 
L 220.132963 252.287438 
L 221.343527 205.177216 
L 221.654814 194.688981 
L 222.300448 180.175368 
L 222.577148 172.375108 
L 223.119019 164.29344 
L 223.38419 162.19312 
L 223.441836 162.21752 
L 223.464895 162.267482 
L 223.614774 163.017752 
L 223.868416 165.399561 
L 224.202762 172.782224 
L 225.413325 198.322382 
L 225.747671 205.067383 
L 226.520126 222.556326 
L 227.396343 239.995446 
L 228.330206 252.382695 
L 230.09417 273.328138 
L 231.304733 289.605155 
L 231.4892 291.430182 
L 232.284713 301.397561 
L 232.745879 304.938813 
L 232.895759 306.220692 
L 233.414572 312.112397 
L 233.460688 312.063894 
L 233.587509 311.941792 
L 233.622097 311.99948 
L 233.725859 312.595749 
L 233.921855 313.937141 
L 233.967972 313.877011 
L 234.348435 313.296755 
L 234.429139 313.375873 
L 234.751956 314.464107 
L 234.959481 315.937687 
L 235.028656 315.484894 
L 235.432177 311.830479 
L 235.743465 309.222358 
L 235.789581 309.275812 
L 236.020165 309.801035 
L 236.08934 309.702275 
L 236.216161 309.00303 
L 236.423686 308.000225 
L 236.446744 308.013324 
L 236.562036 308.362745 
L 236.596624 308.427014 
L 236.64274 308.261757 
L 236.746503 306.353453 
L 237.864833 271.845796 
L 238.429762 242.151584 
L 239.29445 201.168624 
L 239.7095 191.365515 
L 240.458897 165.055186 
L 240.920064 158.860651 
L 241.208293 155.419839 
L 241.508052 153.009402 
L 241.727106 152.302419 
L 241.761693 152.354615 
L 241.876985 153.044724 
L 242.026864 155.541558 
L 242.430385 167.829534 
L 243.191311 189.552983 
L 244.055999 205.52105 
L 244.286582 208.483406 
L 244.932216 223.136938 
L 245.404912 233.505464 
L 247.226522 264.190211 
L 247.549339 270.244633 
L 248.114268 282.739599 
L 249.578473 300.481461 
L 249.76294 301.194025 
L 249.785998 301.18789 
L 249.90129 301.226037 
L 249.912819 301.253041 
L 250.03964 301.916379 
L 250.45469 305.532364 
L 250.685274 307.367206 
L 250.892799 307.602175 
L 251.065737 308.130418 
L 251.181028 309.582179 
L 251.457728 314.693092 
L 251.526904 314.546295 
L 251.838191 313.978798 
L 251.84972 313.988984 
L 251.941954 314.314717 
L 252.264771 316.844557 
L 252.795113 321.089226 
L 252.875817 320.713594 
L 253.233221 316.737127 
L 253.636742 311.821356 
L 253.682859 311.799581 
L 253.728976 311.875597 
L 253.890384 312.518638 
L 253.959559 312.268808 
L 254.259318 309.335369 
L 254.847306 299.202702 
L 255.435293 284.303088 
L 255.815756 278.438413 
L 256.161631 265.169142 
L 257.314549 205.568414 
L 257.683482 190.862231 
L 258.444408 163.831367 
L 258.628875 162.254603 
L 258.940162 161.604421 
L 259.147687 160.425643 
L 259.470504 158.525669 
L 259.654971 158.451623 
L 259.80485 158.720604 
L 259.966259 159.162815 
L 260.127667 160.633583 
L 260.438955 166.164239 
L 260.865534 177.773136 
L 262.17986 209.611573 
L 262.560323 215.843695 
L 264.047586 248.005933 
L 264.750866 259.879225 
L 265.742375 273.639757 
L 266.030604 277.700424 
L 266.434125 279.302738 
L 266.64165 281.928766 
L 268.301851 304.091532 
L 268.520906 307.810644 
L 268.786077 311.82934 
L 268.935956 311.873237 
L 269.051248 312.034682 
L 269.201127 312.792427 
L 269.500885 315.411338 
L 270.423219 325.366441 
L 270.584628 325.846421 
L 270.746036 327.313741 
L 270.930503 328.354875 
L 270.942032 328.349439 
L 271.068853 328.280848 
L 271.103441 328.356379 
L 271.241791 329.200011 
L 271.472374 330.134898 
L 271.622253 330.118804 
L 271.737545 329.834936 
L 271.968129 328.919038 
L 272.025774 329.016817 
L 272.325533 330.153239 
L 272.567646 332.153703 
L 272.959638 335.930277 
L 273.247867 336.431384 
L 273.893501 340.483936 
L 273.985734 340.397451 
L 274.101026 340.288271 
L 274.135613 340.323391 
L 274.250905 340.745507 
L 274.504547 342.772723 
L 274.689014 345.462032 
L 275.057947 351.47426 
L 275.230885 352.508662 
L 275.253943 352.488063 
L 275.346177 352.111003 
L 275.611348 350.694872 
L 275.668993 350.766138 
L 276.049456 351.984578 
L 276.222394 353.456283 
L 276.522152 357.217965 
L 276.591327 357.090659 
L 276.902615 356.131128 
L 277.190844 354.606012 
L 277.444486 350.816654 
L 277.686599 348.261131 
L 277.698128 348.265453 
L 277.767303 348.498069 
L 277.894124 349.949899 
L 278.124707 352.690234 
L 278.159295 352.640869 
L 278.332233 351.851308 
L 278.585874 349.910985 
L 278.943279 343.967192 
L 279.888671 317.961525 
L 280.995472 266.990292 
L 281.283701 242.164495 
L 281.675693 212.528823 
L 282.056156 180.541273 
L 282.563439 137.300508 
L 282.886256 122.276646 
L 283.139898 118.079479 
L 283.347423 117.473327 
L 283.39354 117.572106 
L 283.508832 118.587923 
L 283.785532 123.183805 
L 284.096819 134.267881 
L 284.823157 160.238208 
L 287.140521 227.1032 
L 287.740038 234.28191 
L 287.959093 237.411609 
L 288.627785 250.687824 
L 289.642352 261.41046 
L 289.919052 262.615631 
L 290.126577 263.77244 
L 290.414807 265.17081 
L 290.576215 265.45818 
L 290.737624 266.390541 
L 290.933619 267.026427 
L 291.07197 267.191104 
L 291.19879 267.861984 
L 291.659957 271.572769 
L 291.706074 271.4737 
L 291.925128 270.375691 
L 292.005833 270.634415 
L 292.167241 272.259153 
L 292.351708 273.594234 
L 292.374766 273.581216 
L 292.570762 273.185812 
L 292.766758 272.552365 
L 292.824404 272.423656 
L 292.870521 272.578591 
L 292.997342 274.340195 
L 293.227925 277.057163 
L 293.250983 277.035444 
L 293.331688 276.454212 
L 293.735209 272.28639 
L 293.781325 272.320815 
L 293.86203 272.355699 
L 293.896617 272.31607 
L 294.023438 271.91627 
L 294.127201 270.493878 
L 294.622955 261.68498 
L 294.934243 256.094334 
L 295.280118 244.53054 
L 295.579876 236.802241 
L 295.902693 228.906952 
L 296.271627 219.867588 
L 296.686677 213.518498 
L 297.286194 203.142991 
L 297.666657 199.647303 
L 297.816536 198.320765 
L 297.839595 198.346095 
L 297.989474 198.703897 
L 298.04712 198.584701 
L 298.173941 197.537747 
L 298.612049 190.730049 
L 299.096274 182.271057 
L 299.200037 182.175505 
L 299.234625 182.244921 
L 299.349916 183.076285 
L 299.661204 185.012927 
L 299.71885 185.050903 
L 299.764967 184.980927 
L 299.937904 184.37093 
L 299.99555 184.589163 
L 300.249192 187.26078 
L 300.733417 193.809902 
L 301.632693 206.794895 
L 301.886335 211.111106 
L 303.027723 234.686189 
L 303.973115 251.317181 
L 304.526515 258.874325 
L 305.02227 266.404699 
L 305.368145 268.918816 
L 305.771666 271.19009 
L 306.371183 276.077202 
L 306.509533 277.155986 
L 306.9707 282.005046 
L 307.074463 282.250805 
L 307.25893 283.554265 
L 307.489513 286.589528 
L 307.996797 292.927809 
L 308.423376 296.272604 
L 308.573255 296.218729 
L 308.688547 295.594034 
L 309.045951 293.705404 
L 309.311122 293.038285 
L 309.34571 293.099704 
L 309.461002 293.396653 
L 309.507118 293.312061 
L 309.645468 292.347031 
L 310.244986 287.19777 
L 310.521686 285.559033 
L 310.786857 280.208819 
L 311.224965 273.083942 
L 311.628486 266.637521 
L 312.020478 257.290086 
L 312.285649 247.727592 
L 313.565388 199.785493 
L 314.729834 171.661374 
L 314.822068 171.351068 
L 314.983476 169.633163 
L 315.283234 167.073312 
L 315.559935 165.705809 
L 315.62911 165.801335 
L 315.744401 166.526338 
L 316.032631 170.643927 
L 316.413093 178.823714 
L 319.030216 230.350452 
L 319.399149 235.549154 
L 319.837258 242.349316 
L 321.163113 261.466859 
L 321.589693 267.823874 
L 321.889451 271.564612 
L 322.17768 274.451797 
L 322.535085 278.15126 
L 322.765668 282.896397 
L 323.042368 287.901331 
L 323.526594 291.456079 
L 324.022348 296.207618 
L 324.356694 301.387236 
L 324.425869 301.288834 
L 324.633394 301.095705 
L 324.794803 300.947561 
L 325.002328 300.494371 
L 325.059974 300.602871 
L 325.267499 301.73643 
L 325.774783 303.634674 
L 326.028424 304.321537 
L 326.351241 305.446143 
L 326.431945 305.259431 
L 326.570296 304.937372 
L 326.604883 304.989348 
L 326.697116 305.567012 
L 326.973817 307.747198 
L 327.008404 307.724706 
L 327.112167 307.394411 
L 327.354279 306.726613 
L 327.423454 306.593267 
L 327.90768 304.167088 
L 328.126734 300.460642 
L 328.438022 296.549759 
L 329.072126 291.917032 
L 329.30271 285.395745 
L 330.225044 253.317328 
L 330.69774 229.365118 
L 331.147378 203.843016 
L 331.481724 187.903865 
L 331.793011 175.508251 
L 332.473233 156.954474 
L 332.519349 157.013968 
L 332.749933 157.834 
L 332.842166 157.588348 
L 333.222629 156.232787 
L 333.257216 156.258608 
L 333.407096 156.573506 
L 333.545446 157.621329 
L 333.983554 163.662272 
L 334.433192 173.887376 
L 335.747518 206.475152 
L 338.756632 265.653773 
L 339.125566 269.678288 
L 339.506029 274.00092 
L 339.7712 276.045451 
L 339.978725 279.732583 
L 340.336129 285.604028 
L 341.01635 294.362683 
L 341.223875 296.31552 
L 341.465988 297.951866 
L 341.638926 301.011409 
L 341.904097 304.66091 
L 342.238443 305.282314 
L 342.284559 305.260878 
L 342.376793 305.328029 
L 342.480555 305.931785 
L 342.745726 309.392359 
L 343.033956 312.474294 
L 343.276068 312.698077 
L 343.368302 312.822086 
L 343.587356 313.756167 
L 344.186873 317.810179 
L 344.313694 318.465784 
L 344.555807 321.438125 
L 344.705686 322.565908 
L 344.740273 322.527264 
L 345.224499 321.59894 
L 345.316732 321.743453 
L 345.432024 321.979127 
L 345.478141 321.870174 
L 345.697195 320.990541 
L 345.754841 321.115078 
L 345.893191 321.612561 
L 345.939307 321.503357 
L 346.262124 319.868816 
L 346.561883 316.455996 
L 347.368925 305.327154 
L 347.415042 305.245205 
L 347.484217 305.323468 
L 347.530333 305.292393 
L 347.541863 305.262929 
L 347.703271 304.368384 
L 347.841621 302.49712 
L 348.268201 288.75871 
L 348.55643 277.272558 
L 349.467235 223.412866 
L 350.470273 170.52146 
L 350.804619 160.85315 
L 351.450253 150.003162 
L 351.76154 148.5578 
L 351.865303 148.450829 
L 351.89989 148.478664 
L 351.992124 148.792694 
L 352.291882 151.131613 
L 352.591641 155.989462 
L 353.110454 169.908034 
L 354.436309 202.85979 
L 357.34166 259.163799 
L 357.837415 268.489481 
L 358.506107 275.417111 
L 359.243974 284.500389 
L 359.555262 286.455113 
L 359.705141 286.688823 
L 359.912666 287.782883 
L 360.408421 293.536397 
L 360.650533 295.560374 
L 360.719708 295.398533 
L 360.950292 294.583635 
L 360.996408 294.685912 
L 361.123229 295.656391 
L 361.365342 297.820691 
L 361.422988 297.758435 
L 361.503692 297.647393 
L 361.549809 297.75247 
L 361.642042 298.753822 
L 361.907213 301.921016 
L 361.930272 301.912289 
L 362.137797 301.597605 
L 362.472143 300.042182 
L 362.760372 298.444637 
L 363.060131 298.320621 
L 363.21001 297.132652 
L 363.844114 288.691792 
L 364.109285 280.937694 
L 364.409044 274.129649 
L 364.616569 270.277558 
L 365.169969 253.412572 
L 365.896307 226.049457 
L 366.899345 199.127692 
L 367.579567 178.54839 
L 367.913913 173.213204 
L 368.029204 172.964953 
L 368.144496 171.495575 
L 368.548017 165.914919 
L 368.744013 165.082486 
L 368.755542 165.086494 
L 368.824717 165.271614 
L 368.963068 166.571821 
L 369.447293 174.685463 
L 370.450331 193.384383 
L 370.784677 198.07644 
L 372.168178 231.026096 
L 372.756166 241.94418 
L 373.378741 249.833003 
L 373.713087 254.456862 
L 374.37025 260.922643 
L 375.419405 277.328425 
L 375.730693 278.811169 
L 375.926688 281.213163 
L 376.353268 286.683998 
L 376.526205 289.148461 
L 376.779847 292.12462 
L 377.02196 293.078325 
L 377.229485 294.254316 
L 377.425481 297.66567 
L 377.644535 299.630555 
L 377.990411 301.27079 
L 378.174877 301.868833 
L 378.624515 303.848163 
L 378.843569 305.409764 
L 379.293207 308.87736 
L 379.385441 308.583929 
L 379.604495 307.614173 
L 379.650612 307.702811 
L 379.777432 308.599853 
L 379.938841 309.389383 
L 379.973428 309.375881 
L 380.054133 309.38927 
L 380.077191 309.438364 
L 380.192483 310.114512 
L 380.584475 312.503834 
L 380.596004 312.498033 
L 380.676708 312.216625 
L 380.884233 310.331059 
L 381.253167 305.327312 
L 381.875742 296.576757 
L 382.348438 290.184096 
L 382.567493 284.083165 
L 382.994072 268.485832 
L 383.512885 244.288941 
L 383.985581 223.820576 
L 384.435219 200.842363 
L 385.611194 157.396345 
L 385.81872 156.289185 
L 385.980128 155.476816 
L 386.37212 153.028831 
L 386.418237 153.105212 
L 386.533528 154.022954 
L 387.017754 160.703333 
L 387.386687 169.22594 
L 388.931596 207.536797 
L 389.750168 220.936677 
L 390.718618 241.844152 
L 392.298115 265.845693 
L 392.770811 272.088297 
L 393.07057 276.454542 
L 393.335741 278.254998 
L 393.543266 281.876765 
L 393.866083 286.420565 
L 394.292662 291.523821 
L 395.791455 311.359144 
L 395.895217 311.307578 
L 395.99898 311.413039 
L 396.114272 312.009289 
L 397.013547 320.563701 
L 397.336364 324.712918 
L 397.53236 324.915529 
L 397.693769 325.897478 
L 397.981998 327.674198 
L 398.201052 328.599269 
L 398.604573 329.993688 
L 398.765982 330.341744 
L 399.008094 331.029607 
L 399.227149 332.978045 
L 399.284795 332.900607 
L 399.526907 332.214506 
L 399.607611 332.423887 
L 399.745961 333.696958 
L 400.011132 336.110106 
L 400.034191 336.105651 
L 400.114895 336.202625 
L 400.241716 337.057601 
L 400.668295 341.025964 
L 400.749 340.88678 
L 400.910408 340.195689 
L 401.210167 338.427879 
L 401.244754 338.488518 
L 401.348517 339.24642 
L 401.682863 344.295901 
L 402.178617 352.132011 
L 402.213205 352.0625 
L 402.340026 351.002768 
L 402.766605 347.293999 
L 402.916484 346.658647 
L 402.951072 346.730416 
L 403.043305 347.540602 
L 403.469885 353.764563 
L 403.550589 353.410153 
L 403.827289 349.864119 
L 404.057872 347.733989 
L 404.09246 347.772544 
L 404.253868 348.21461 
L 404.299985 348.073538 
L 404.426806 346.737349 
L 404.668919 344.980159 
L 404.761152 345.079089 
L 404.899502 345.090792 
L 404.991736 345.170186 
L 405.095498 345.272162 
L 405.130086 345.216348 
L 405.268436 344.505835 
L 405.545136 341.899583 
L 406.05242 331.891221 
L 406.306061 325.863289 
L 406.88252 303.645628 
L 407.793325 250.719306 
L 408.715659 172.281903 
L 409.199884 127.35924 
L 409.522701 112.272474 
L 409.880105 104.657529 
L 410.145276 101.689618 
L 410.179864 101.821668 
L 410.283626 103.389668 
L 410.51421 111.345068 
L 412.358878 183.410606 
L 412.577932 188.507476 
L 413.926845 226.095065 
L 414.364954 229.394463 
L 414.514833 231.330252 
L 415.206583 242.975986 
L 415.967509 249.265275 
L 416.313384 252.163942 
L 416.463263 252.503688 
L 416.497851 252.481197 
L 416.624672 252.346838 
L 416.659259 252.411437 
L 416.982076 253.580097 
L 417.085839 253.534027 
L 417.178072 253.590355 
L 417.293364 254.224263 
L 417.466302 254.743568 
L 417.477831 254.740097 
L 417.604652 254.79761 
L 417.754531 255.031266 
L 417.789118 254.994688 
L 417.892881 254.585282 
L 418.134994 253.337696 
L 418.192639 253.371733 
L 418.561573 253.675922 
L 418.596161 253.632303 
L 418.74604 253.170091 
L 419.426261 249.898609 
L 419.679903 247.932191 
L 419.72602 248.034746 
L 419.887428 249.07328 
L 419.991191 249.552257 
L 420.037307 249.404081 
L 420.244832 247.961967 
L 420.337066 248.223965 
L 420.625295 249.584533 
L 420.69447 249.410283 
L 420.83282 248.210347 
L 420.9827 244.272798 
L 421.662921 222.123522 
L 422.066442 217.423831 
L 422.343142 215.229715 
L 422.665959 210.95126 
L 423.611351 197.624364 
L 423.645939 197.574024 
L 423.692055 197.688917 
L 423.89958 198.505237 
L 423.957226 198.442465 
L 424.04946 198.339671 
L 424.084047 198.401519 
L 424.222397 199.191043 
L 424.487568 200.322815 
L 424.87956 201.412018 
L 425.040969 201.834856 
L 425.075556 201.794124 
L 425.363786 201.120531 
L 425.421431 201.310181 
L 425.628957 203.536233 
L 426.585878 214.588662 
L 427.058574 219.446612 
L 427.462095 222.905272 
L 428.384429 233.14906 
L 429.237588 238.560918 
L 429.306763 238.677685 
L 429.410526 239.724235 
L 429.929338 245.711032 
L 430.263684 248.587089 
L 430.978493 253.724706 
L 431.209077 254.958257 
L 431.358956 255.169886 
L 431.508835 256.696521 
L 431.912356 260.801372 
L 431.970002 260.782968 
L 431.99306 260.742398 
L 432.200586 260.016607 
L 432.385052 258.800786 
L 432.581048 257.275486 
L 432.627165 257.381572 
L 432.765515 257.777926 
L 432.811632 257.699847 
L 432.915394 257.391795 
L 432.97304 257.537688 
L 433.226682 259.0702 
L 433.307386 258.87336 
L 433.434207 257.496686 
L 433.733966 254.584195 
L 433.929962 253.905242 
L 433.95302 253.913031 
L 434.149016 253.921451 
L 434.241249 253.723713 
L 434.391129 252.618312 
L 435.278875 242.12789 
L 435.693925 233.929023 
L 435.982155 232.530169 
L 436.074388 232.40051 
L 436.178151 231.52905 
L 436.351088 227.396493 
L 436.754609 217.020685 
L 437.01978 213.459696 
L 437.907527 199.239652 
L 438.091993 198.167449 
L 438.230343 197.815851 
L 438.368694 196.50805 
L 438.69151 193.690762 
L 438.737627 193.671032 
L 438.772215 193.729966 
L 438.945152 194.127795 
L 438.991269 194.054799 
L 439.106561 193.272693 
L 439.417848 191.177646 
L 439.775253 190.406412 
L 439.982778 190.246213 
L 440.213361 189.494414 
L 440.271007 189.611175 
L 440.386299 190.616711 
L 441.446983 205.808863 
L 443.487647 237.77132 
L 444.052576 241.912961 
L 444.110222 241.937595 
L 444.156339 241.88758 
L 444.202455 241.866242 
L 444.237043 241.926483 
L 444.375393 242.735225 
L 445.643602 252.448888 
L 446.104769 256.136578 
L 446.542878 259.509532 
L 446.727345 259.575403 
L 446.888753 259.705205 
L 446.911811 259.684656 
L 447.004045 259.410362 
L 447.200041 258.539504 
L 447.257687 258.592649 
L 447.396037 258.997809 
L 447.580503 260.42751 
L 447.822616 261.723781 
L 447.90332 261.604551 
L 448.260725 260.579917 
L 448.456721 258.55204 
L 448.560483 257.84891 
L 448.6066 257.962026 
L 449.125413 260.777132 
L 449.194588 260.520734 
L 449.886338 254.351395 
L 450.163038 251.77821 
L 450.497384 247.533402 
L 451.823239 217.257963 
L 451.984648 216.22626 
L 452.215231 212.866013 
L 452.768632 203.528488 
L 452.849336 203.369196 
L 452.976157 202.32433 
L 453.921549 189.604588 
L 454.002253 190.02389 
L 454.394245 193.399376 
L 454.451891 193.288076 
L 454.60177 192.278281 
L 454.993762 189.776734 
L 455.109054 189.410816 
L 455.155171 189.528213 
L 455.270462 190.679206 
L 457.276539 221.808633 
L 458.175814 236.022117 
L 459.340261 250.475469 
L 459.882132 254.452804 
L 460.101186 254.832761 
L 460.285653 255.229674 
L 461.323279 259.245462 
L 461.657625 265.270451 
L 461.749858 264.956889 
L 461.876679 264.489768 
L 461.922796 264.608444 
L 462.049616 265.787904 
L 462.41855 269.207208 
L 462.729838 271.732251 
L 462.914305 271.794362 
L 463.075713 272.498141 
L 463.26018 273.360512 
L 463.306296 273.295822 
L 463.421588 272.634779 
L 463.709818 271.055631 
L 463.859697 270.197883 
L 464.09028 267.356828 
L 464.51686 260.407391 
L 464.528389 260.408301 
L 464.666739 260.605992 
L 464.79356 260.726314 
L 464.828147 260.677204 
L 464.966497 260.010261 
L 465.335431 257.387504 
L 465.542956 253.223978 
L 465.958006 244.920486 
L 466.430703 237.76394 
L 467.249274 218.140032 
L 467.768087 199.832177 
L 468.125491 198.445963 
L 468.367604 196.875189 
L 468.70195 196.357314 
L 468.851829 194.433155 
L 469.070883 192.699867 
L 469.347583 192.114477 
L 469.543579 190.940173 
L 469.624284 191.190726 
L 469.751105 191.545174 
L 469.797221 191.489669 
L 470.37368 190.555216 
L 470.431326 190.640657 
L 470.569676 191.599843 
L 471.007785 194.674599 
L 471.376718 198.556898 
L 471.837885 204.383502 
L 472.103056 206.497487 
L 474.42042 241.759957 
L 474.754766 245.677658 
L 475.4004 255.096035 
L 475.607925 258.025829 
L 475.999917 263.217759 
L 476.472613 266.259687 
L 477.026013 273.204827 
L 477.245068 274.964365 
L 477.452593 275.930921 
L 477.717764 276.818853 
L 477.879172 277.422866 
L 477.925289 277.384179 
L 478.005993 277.355835 
L 478.04058 277.402016 
L 478.236576 277.552544 
L 478.32881 277.612038 
L 478.421043 278.150279 
L 479.274202 285.511329 
L 479.343377 285.512157 
L 479.366435 285.464117 
L 479.481727 284.720437 
L 480.381003 278.589948 
L 480.496295 278.326616 
L 480.542411 278.41178 
L 480.69229 278.959685 
L 480.749936 278.731054 
L 480.888286 276.716707 
L 481.25722 266.691628 
L 481.487803 263.319422 
L 481.683799 262.458207 
L 481.902854 258.290832 
L 482.202612 249.686821 
L 482.871304 222.794693 
L 483.124946 213.678476 
L 483.286355 209.807074 
L 483.828226 193.783873 
L 484.024222 188.773904 
L 484.554564 176.994742 
L 484.623739 176.548121 
L 484.681385 176.800813 
L 484.877381 179.490556 
L 485.119493 181.305467 
L 485.177139 181.384113 
L 485.223256 181.284283 
L 485.350077 180.230263 
L 485.71901 177.520984 
L 485.765127 177.584348 
L 485.868889 178.444584 
L 486.295469 185.38467 
L 486.964161 196.418759 
L 487.471445 203.355215 
L 488.082491 213.567271 
L 488.520599 217.185855 
L 489.223879 224.399703 
L 490.826434 252.900927 
L 492.371343 272.659326 
L 492.624985 276.238754 
L 492.98239 277.339307 
L 493.178386 280.257309 
L 493.432027 282.602387 
L 493.789432 284.104246 
L 494.123778 288.057867 
L 494.446595 291.100788 
L 494.631062 291.65521 
L 494.873174 293.341783 
L 494.93082 293.226614 
L 495.334341 290.82469 
L 495.922329 286.463915 
L 495.991504 286.604452 
L 496.199029 287.650104 
L 496.279733 287.427127 
L 496.60255 285.434741 
L 497.663234 271.946852 
L 497.939934 271.026925 
L 498.055226 270.302327 
L 498.239693 267.00929 
L 499.058264 244.809943 
L 499.911423 205.96635 
L 500.176594 198.553752 
L 501.168103 170.900634 
L 501.237278 170.653384 
L 501.283395 170.765835 
L 501.387157 171.062513 
L 501.433274 170.937837 
L 501.560095 169.708518 
L 501.859853 166.997038 
L 502.067379 166.946138 
L 502.228787 166.673029 
L 502.274904 166.742904 
L 502.367137 167.280062 
L 502.574662 170.199037 
L 503.312529 185.750664 
L 504.084984 202.023336 
L 504.592268 212.966925 
L 505.514602 230.89964 
L 505.802831 234.867377 
L 506.436935 245.064627 
L 507.866553 265.69966 
L 508.535245 275.785872 
L 508.800416 277.976471 
L 509.031 280.371216 
L 509.411462 284.662808 
L 509.5844 285.750734 
L 510.656613 298.449286 
L 510.875667 300.82342 
L 511.267659 302.227924 
L 511.475184 303.207519 
L 511.705768 304.024544 
L 511.798001 304.113364 
L 511.913293 304.797351 
L 512.189993 306.322114 
L 512.351402 307.173246 
L 512.547398 308.263336 
L 512.605043 308.092744 
L 512.939389 306.186774 
L 512.997035 306.309141 
L 513.227619 307.333206 
L 513.308323 307.181035 
L 513.458202 306.822913 
L 513.504319 306.87772 
L 513.873253 308.012695 
L 514.057719 308.638113 
L 514.092307 308.616111 
L 514.173011 308.337679 
L 514.380536 306.332615 
L 514.910878 301.580535 
L 515.014641 300.75881 
L 515.187578 296.992014 
L 516.098383 268.203106 
L 517.26283 212.65063 
L 517.689409 192.608078 
L 518.600214 154.181605 
L 518.969147 150.197261 
L 519.176672 149.325649 
L 519.234318 149.367804 
L 519.245848 149.399174 
L 519.361139 150.173239 
L 519.856894 156.222072 
L 520.387236 165.103204 
L 520.906049 178.425715 
L 521.874499 204.718018 
L 522.531662 218.540302 
L 524.583855 256.782526 
L 525.229489 266.131382 
L 525.506189 269.14761 
L 525.748302 272.552011 
L 526.728281 286.736841 
L 526.935806 288.832807 
L 527.616028 298.217488 
L 527.846611 300.35374 
L 528.250132 304.845281 
L 528.342366 305.032169 
L 528.572949 306.408877 
L 528.930353 310.604432 
L 529.379991 315.372808 
L 529.40305 315.359771 
L 529.495283 315.084926 
L 529.645162 314.6528 
L 529.691279 314.701611 
L 529.8181 315.188858 
L 530.475263 318.673221 
L 530.728905 319.614494 
L 530.947959 321.349236 
L 531.017134 321.094152 
L 531.374538 319.323667 
L 531.76653 318.428066 
L 531.789589 318.447778 
L 531.858764 318.776996 
L 532.239226 321.63306 
L 532.273814 321.5458 
L 532.400635 320.374453 
L 534.27989 297.465456 
L 534.69494 288.783871 
L 535.017757 280.898056 
L 535.294457 268.542497 
L 535.824799 232.054352 
L 536.205262 209.485079 
L 537.173713 159.073951 
L 537.876992 145.320354 
L 538.165222 144.294886 
L 538.211338 144.377634 
L 538.407334 145.455122 
L 538.614859 147.865791 
L 538.995322 150.989459 
L 539.329668 155.033379 
L 539.698602 166.711081 
L 540.909165 203.707789 
L 541.773853 221.69217 
L 542.488662 235.384857 
L 543.157354 247.384318 
L 543.699225 256.488475 
L 544.171921 265.088338 
L 544.586971 267.427358 
L 544.852142 269.675683 
L 545.751418 279.590255 
L 545.878239 279.881095 
L 546.097293 281.161464 
L 546.443168 283.431218 
L 546.97351 285.214957 
L 547.12339 286.309196 
L 547.330915 286.943076 
L 547.492323 287.819016 
L 547.884315 291.359986 
L 548.149486 293.721895 
L 548.195603 293.668038 
L 548.357011 293.375016 
L 548.414657 293.408708 
L 548.553007 293.328011 
L 548.725945 293.070039 
L 548.852766 292.145452 
L 549.048762 288.321086 
L 549.452283 281.328524 
L 549.855804 276.004329 
L 550.120975 268.641454 
L 550.593671 257.317611 
L 551.008721 249.467152 
L 553.107031 177.147227 
L 553.487494 169.136416 
L 553.844898 167.58726 
L 554.271477 163.684538 
L 554.363711 163.842623 
L 554.548178 164.706671 
L 554.801819 167.361835 
L 555.562745 176.802009 
L 556.208379 195.279487 
L 556.923187 210.509597 
L 557.257533 216.540951 
L 558.156809 235.709059 
L 558.83703 247.994523 
L 559.563368 256.424443 
L 559.989948 261.363383 
L 560.958398 275.981776 
L 561.454153 279.47581 
L 562.537895 292.900548 
L 562.906829 295.591348 
L 563.321879 300.389313 
L 563.806104 303.299409 
L 564.543971 310.876157 
L 564.774555 311.676427 
L 565.028197 312.229315 
L 565.431718 315.105713 
L 566.227231 321.137835 
L 566.307935 321.058472 
L 566.607693 320.311121 
L 567.161094 316.870447 
L 567.21874 316.968491 
L 567.322502 317.80524 
L 567.472381 318.983785 
L 567.518498 318.815054 
L 568.094957 314.195068 
L 568.556124 300.423797 
L 568.913528 290.192376 
L 569.097995 287.570489 
L 569.340108 279.755953 
L 569.985741 248.750278 
L 571.161717 182.253925 
L 571.565238 166.120198 
L 572.060993 154.743647 
L 572.176284 155.067108 
L 572.256989 155.197736 
L 572.303105 155.124111 
L 572.418397 154.412698 
L 572.868035 150.334633 
L 572.925681 150.512549 
L 573.087089 152.391345 
L 574.136244 168.821826 
L 575.473628 206.645833 
L 577.998517 254.426364 
L 579.923889 282.92745 
L 580.246706 286.096657 
L 580.765519 291.695345 
L 581.157511 294.075777 
L 581.284332 293.872851 
L 581.330448 293.855908 
L 581.365036 293.947552 
L 581.457269 294.852107 
L 581.906907 300.338633 
L 582.206665 300.683128 
L 582.333486 301.744905 
L 583.232762 312.544755 
L 583.440287 314.032995 
L 583.670871 314.98816 
L 583.866866 315.214748 
L 584.016746 315.246829 
L 584.293446 315.557613 
L 584.362621 315.445376 
L 584.535559 314.485901 
L 584.743084 313.6073 
L 584.754613 313.609168 
L 584.869905 313.549511 
L 584.996726 312.877635 
L 585.146605 312.289426 
L 585.181192 312.319909 
L 585.284955 312.536129 
L 585.331072 312.426037 
L 585.49248 311.002129 
L 585.861414 306.666068 
L 586.149643 303.641419 
L 586.264935 303.301561 
L 586.380226 301.854884 
L 586.622339 295.020787 
L 587.325619 275.384841 
L 587.59079 270.990471 
L 587.752198 263.174661 
L 588.893586 202.069756 
L 589.377812 176.979208 
L 589.723687 162.187376 
L 590.138737 152.969123 
L 590.461554 150.626718 
L 590.715196 150.25717 
L 590.772842 150.357346 
L 590.968838 151.278184 
L 591.153304 153.100015 
L 591.994934 166.473048 
L 592.582922 181.829117 
L 593.516785 209.401569 
L 594.047127 220.699355 
L 596.675779 264.413763 
L 597.21765 272.002988 
L 597.621171 282.028017 
L 597.863283 285.93861 
L 599.454309 300.444988 
L 599.627247 301.520871 
L 599.811714 302.001618 
L 599.927006 302.131347 
L 600.192177 303.187971 
L 600.272881 302.921789 
L 600.42276 302.28823 
L 600.468877 302.364309 
L 600.572639 303.155519 
L 600.734048 306.524895 
L 600.97616 310.204181 
L 601.079923 310.412297 
L 601.12604 310.35503 
L 601.275919 309.667608 
L 601.471915 309.300123 
L 601.702498 309.056207 
L 601.898494 309.047758 
L 601.95614 308.999538 
L 601.990728 309.057837 
L 602.106019 309.832525 
L 602.244369 310.508195 
L 602.278957 310.45308 
L 602.463424 309.492982 
L 602.636361 307.954572 
L 602.913062 302.780641 
L 604.411854 268.424429 
L 604.653967 256.311961 
L 605.16125 231.770226 
L 605.357246 223.723989 
L 606.095114 186.149141 
L 606.902156 155.96914 
L 607.282618 153.471627 
L 607.294148 153.475767 
L 607.386381 153.454463 
L 607.39791 153.427308 
L 607.53626 152.662466 
L 607.697669 152.016789 
L 607.732256 152.042648 
L 607.847548 152.218186 
L 607.905194 152.121697 
L 608.020486 151.866821 
L 608.066602 151.965072 
L 608.193423 153.028567 
L 608.470123 157.507091 
L 609.21952 178.458639 
L 610.268674 205.539214 
L 610.61455 209.356477 
L 610.787487 211.95981 
L 611.133362 221.679861 
L 611.675234 233.701092 
L 612.597568 252.387092 
L 613.393081 266.158185 
L 613.854247 271.58763 
L 614.280827 277.260585 
L 614.51141 278.927798 
L 615.952557 293.959437 
L 616.067849 293.935994 
L 616.113966 293.934245 
L 616.137024 293.980854 
L 616.217728 294.65044 
L 616.667366 300.340609 
L 616.690424 300.32941 
L 616.874891 300.266914 
L 616.897949 300.300613 
L 617.013241 300.720054 
L 617.16312 302.438016 
L 617.5897 307.879531 
L 617.831812 310.329656 
L 618.085454 311.830599 
L 618.212275 312.518078 
L 618.56968 314.696565 
L 618.754146 314.566604 
L 618.915555 314.558608 
L 619.065434 314.798642 
L 619.249901 315.004637 
L 619.272959 314.989374 
L 619.492013 314.683466 
L 619.641893 313.553235 
L 619.987768 311.142975 
L 620.033885 311.098316 
L 620.080001 311.16392 
L 620.195293 311.421193 
L 620.229881 311.328038 
L 620.391289 309.964267 
L 620.737164 305.418227 
L 620.990806 303.362628 
L 621.106098 302.250398 
L 621.302094 297.414651 
L 622.005373 278.204142 
L 622.351249 273.296934 
L 622.581832 259.439839 
L 623.677104 197.191453 
L 624.057566 178.315139 
L 624.4265 162.853017 
L 624.830021 154.582693 
L 625.337305 152.016135 
L 625.39495 152.051884 
L 625.40648 152.080423 
L 625.510242 152.711403 
L 625.856117 156.995911 
L 626.582455 165.926949 
L 627.055151 173.418539 
L 628.577002 213.502316 
L 629.061228 223.573769 
L 629.741449 237.205403 
L 630.410141 247.032668 
L 632.819738 282.990203 
L 633.303964 287.304087 
L 634.410764 298.905609 
L 634.779698 303.237487 
L 635.275452 309.26835 
L 635.459919 310.104225 
L 635.978732 313.206255 
L 636.00179 313.19622 
L 636.174728 312.977521 
L 636.220845 313.067228 
L 636.324607 313.799133 
L 636.820362 318.113778 
L 637.062474 319.966104 
L 637.177766 319.726769 
L 637.25847 319.684741 
L 637.304587 319.723718 
L 637.373762 319.734275 
L 637.408349 319.669653 
L 637.627404 319.021887 
L 637.68505 319.136849 
L 638.077042 320.941969 
L 638.469033 324.655224 
L 638.526679 324.552178 
L 638.665029 323.598706 
L 639.091609 320.683048 
L 639.264546 319.522774 
L 639.564305 315.09201 
L 640.002414 310.265525 
L 640.129234 309.158397 
L 640.302172 304.356795 
L 640.740281 292.933088 
L 640.982393 286.986325 
L 641.282152 271.605715 
L 642.204486 220.866443 
L 643.219053 170.620315 
L 643.484224 158.097791 
L 643.726337 151.07037 
L 644.314325 144.881082 
L 644.625612 143.920053 
L 644.694787 144.047157 
L 644.833137 144.962332 
L 645.167483 149.432331 
L 645.455713 156.5405 
L 647.392614 211.700995 
L 647.761547 218.094568 
L 648.545531 235.664745 
L 650.032795 260.580545 
L 650.51702 263.948072 
L 652.0504 282.425547 
L 652.361688 286.175083 
L 652.834384 290.715838 
L 653.180259 294.5577 
L 653.341668 295.111997 
L 653.699072 297.392479 
L 653.814364 297.12434 
L 653.941185 296.793669 
L 653.987301 296.872749 
L 654.183297 297.91136 
L 654.540702 299.490056 
L 654.644464 299.36063 
L 655.047985 298.256515 
L 655.243981 295.227374 
L 655.555269 291.732164 
L 655.762794 289.286142 
L 656.673599 276.901173 
L 656.927241 273.669485 
L 657.273116 267.247542 
L 659.048609 213.102624 
L 660.42058 172.521069 
L 660.789514 166.988714 
L 661.158447 161.496242 
L 661.204564 161.486873 
L 661.239152 161.542076 
L 661.561968 162.45734 
L 661.757964 165.2724 
L 665.620238 243.933136 
L 665.977642 250.570291 
L 665.977642 250.570291 
" clip-path="url(#p51dde8ba47)" style="fill: none; stroke: #2ca02c; stroke-opacity: 0.8; stroke-width: 3; stroke-linecap: square"/>
   </g>
   <g id="line2d_9">
    <path d="M 89.530483 372.805982 
L 204.822221 372.805982 
" clip-path="url(#p51dde8ba47)" style="fill: none; stroke: #000000; stroke-width: 5; stroke-linecap: square"/>
   </g>
   <g id="patch_3">
    <path d="M 60.708125 386.3618 
L 60.708125 88.1338 
" style="fill: none; stroke: #000000; stroke-width: 0.8; stroke-linejoin: miter; stroke-linecap: square"/>
   </g>
   <g id="text_8">
    <!-- 1s -->
    <g transform="translate(137.918852 399.874882) scale(0.16 -0.16)">
     <defs>
      <path id="DejaVuSans-73" d="M 2834 3397 
L 2834 2853 
Q 2591 2978 2328 3040 
Q 2066 3103 1784 3103 
Q 1356 3103 1142 2972 
Q 928 2841 928 2578 
Q 928 2378 1081 2264 
Q 1234 2150 1697 2047 
L 1894 2003 
Q 2506 1872 2764 1633 
Q 3022 1394 3022 966 
Q 3022 478 2636 193 
Q 2250 -91 1575 -91 
Q 1294 -91 989 -36 
Q 684 19 347 128 
L 347 722 
Q 666 556 975 473 
Q 1284 391 1588 391 
Q 1994 391 2212 530 
Q 2431 669 2431 922 
Q 2431 1156 2273 1281 
Q 2116 1406 1581 1522 
L 1381 1569 
Q 847 1681 609 1914 
Q 372 2147 372 2553 
Q 372 3047 722 3315 
Q 1072 3584 1716 3584 
Q 2034 3584 2315 3537 
Q 2597 3491 2834 3397 
z
" transform="scale(0.015625)"/>
     </defs>
     <use xlink:href="#DejaVuSans-31"/>
     <use xlink:href="#DejaVuSans-73" transform="translate(63.623047 0)"/>
    </g>
   </g>
   <g id="text_9">
    <!-- True vs Generated  -->
    <g transform="translate(263.814063 25.43625) scale(0.24 -0.24)">
     <defs>
      <path id="DejaVuSans-54" d="M -19 4666 
L 3928 4666 
L 3928 4134 
L 2272 4134 
L 2272 0 
L 1638 0 
L 1638 4134 
L -19 4134 
L -19 4666 
z
" transform="scale(0.015625)"/>
      <path id="DejaVuSans-72" d="M 2631 2963 
Q 2534 3019 2420 3045 
Q 2306 3072 2169 3072 
Q 1681 3072 1420 2755 
Q 1159 2438 1159 1844 
L 1159 0 
L 581 0 
L 581 3500 
L 1159 3500 
L 1159 2956 
Q 1341 3275 1631 3429 
Q 1922 3584 2338 3584 
Q 2397 3584 2469 3576 
Q 2541 3569 2628 3553 
L 2631 2963 
z
" transform="scale(0.015625)"/>
      <path id="DejaVuSans-75" d="M 544 1381 
L 544 3500 
L 1119 3500 
L 1119 1403 
Q 1119 906 1312 657 
Q 1506 409 1894 409 
Q 2359 409 2629 706 
Q 2900 1003 2900 1516 
L 2900 3500 
L 3475 3500 
L 3475 0 
L 2900 0 
L 2900 538 
Q 2691 219 2414 64 
Q 2138 -91 1772 -91 
Q 1169 -91 856 284 
Q 544 659 544 1381 
z
M 1991 3584 
L 1991 3584 
z
" transform="scale(0.015625)"/>
      <path id="DejaVuSans-65" d="M 3597 1894 
L 3597 1613 
L 953 1613 
Q 991 1019 1311 708 
Q 1631 397 2203 397 
Q 2534 397 2845 478 
Q 3156 559 3463 722 
L 3463 178 
Q 3153 47 2828 -22 
Q 2503 -91 2169 -91 
Q 1331 -91 842 396 
Q 353 884 353 1716 
Q 353 2575 817 3079 
Q 1281 3584 2069 3584 
Q 2775 3584 3186 3129 
Q 3597 2675 3597 1894 
z
M 3022 2063 
Q 3016 2534 2758 2815 
Q 2500 3097 2075 3097 
Q 1594 3097 1305 2825 
Q 1016 2553 972 2059 
L 3022 2063 
z
" transform="scale(0.015625)"/>
      <path id="DejaVuSans-20" transform="scale(0.015625)"/>
      <path id="DejaVuSans-76" d="M 191 3500 
L 800 3500 
L 1894 563 
L 2988 3500 
L 3597 3500 
L 2284 0 
L 1503 0 
L 191 3500 
z
" transform="scale(0.015625)"/>
      <path id="DejaVuSans-47" d="M 3809 666 
L 3809 1919 
L 2778 1919 
L 2778 2438 
L 4434 2438 
L 4434 434 
Q 4069 175 3628 42 
Q 3188 -91 2688 -91 
Q 1594 -91 976 548 
Q 359 1188 359 2328 
Q 359 3472 976 4111 
Q 1594 4750 2688 4750 
Q 3144 4750 3555 4637 
Q 3966 4525 4313 4306 
L 4313 3634 
Q 3963 3931 3569 4081 
Q 3175 4231 2741 4231 
Q 1884 4231 1454 3753 
Q 1025 3275 1025 2328 
Q 1025 1384 1454 906 
Q 1884 428 2741 428 
Q 3075 428 3337 486 
Q 3600 544 3809 666 
z
" transform="scale(0.015625)"/>
      <path id="DejaVuSans-6e" d="M 3513 2113 
L 3513 0 
L 2938 0 
L 2938 2094 
Q 2938 2591 2744 2837 
Q 2550 3084 2163 3084 
Q 1697 3084 1428 2787 
Q 1159 2491 1159 1978 
L 1159 0 
L 581 0 
L 581 3500 
L 1159 3500 
L 1159 2956 
Q 1366 3272 1645 3428 
Q 1925 3584 2291 3584 
Q 2894 3584 3203 3211 
Q 3513 2838 3513 2113 
z
" transform="scale(0.015625)"/>
      <path id="DejaVuSans-61" d="M 2194 1759 
Q 1497 1759 1228 1600 
Q 959 1441 959 1056 
Q 959 750 1161 570 
Q 1363 391 1709 391 
Q 2188 391 2477 730 
Q 2766 1069 2766 1631 
L 2766 1759 
L 2194 1759 
z
M 3341 1997 
L 3341 0 
L 2766 0 
L 2766 531 
Q 2569 213 2275 61 
Q 1981 -91 1556 -91 
Q 1019 -91 701 211 
Q 384 513 384 1019 
Q 384 1609 779 1909 
Q 1175 2209 1959 2209 
L 2766 2209 
L 2766 2266 
Q 2766 2663 2505 2880 
Q 2244 3097 1772 3097 
Q 1472 3097 1187 3025 
Q 903 2953 641 2809 
L 641 3341 
Q 956 3463 1253 3523 
Q 1550 3584 1831 3584 
Q 2591 3584 2966 3190 
Q 3341 2797 3341 1997 
z
" transform="scale(0.015625)"/>
      <path id="DejaVuSans-74" d="M 1172 4494 
L 1172 3500 
L 2356 3500 
L 2356 3053 
L 1172 3053 
L 1172 1153 
Q 1172 725 1289 603 
Q 1406 481 1766 481 
L 2356 481 
L 2356 0 
L 1766 0 
Q 1100 0 847 248 
Q 594 497 594 1153 
L 594 3053 
L 172 3053 
L 172 3500 
L 594 3500 
L 594 4494 
L 1172 4494 
z
" transform="scale(0.015625)"/>
      <path id="DejaVuSans-64" d="M 2906 2969 
L 2906 4863 
L 3481 4863 
L 3481 0 
L 2906 0 
L 2906 525 
Q 2725 213 2448 61 
Q 2172 -91 1784 -91 
Q 1150 -91 751 415 
Q 353 922 353 1747 
Q 353 2572 751 3078 
Q 1150 3584 1784 3584 
Q 2172 3584 2448 3432 
Q 2725 3281 2906 2969 
z
M 947 1747 
Q 947 1113 1208 752 
Q 1469 391 1925 391 
Q 2381 391 2643 752 
Q 2906 1113 2906 1747 
Q 2906 2381 2643 2742 
Q 2381 3103 1925 3103 
Q 1469 3103 1208 2742 
Q 947 2381 947 1747 
z
" transform="scale(0.015625)"/>
     </defs>
     <use xlink:href="#DejaVuSans-54"/>
     <use xlink:href="#DejaVuSans-72" transform="translate(46.333984 0)"/>
     <use xlink:href="#DejaVuSans-75" transform="translate(87.447266 0)"/>
     <use xlink:href="#DejaVuSans-65" transform="translate(150.826172 0)"/>
     <use xlink:href="#DejaVuSans-20" transform="translate(212.349609 0)"/>
     <use xlink:href="#DejaVuSans-76" transform="translate(244.136719 0)"/>
     <use xlink:href="#DejaVuSans-73" transform="translate(303.316406 0)"/>
     <use xlink:href="#DejaVuSans-20" transform="translate(355.416016 0)"/>
     <use xlink:href="#DejaVuSans-47" transform="translate(387.203125 0)"/>
     <use xlink:href="#DejaVuSans-65" transform="translate(464.693359 0)"/>
     <use xlink:href="#DejaVuSans-6e" transform="translate(526.216797 0)"/>
     <use xlink:href="#DejaVuSans-65" transform="translate(589.595703 0)"/>
     <use xlink:href="#DejaVuSans-72" transform="translate(651.119141 0)"/>
     <use xlink:href="#DejaVuSans-61" transform="translate(692.232422 0)"/>
     <use xlink:href="#DejaVuSans-74" transform="translate(753.511719 0)"/>
     <use xlink:href="#DejaVuSans-65" transform="translate(792.720703 0)"/>
     <use xlink:href="#DejaVuSans-64" transform="translate(854.244141 0)"/>
     <use xlink:href="#DejaVuSans-20" transform="translate(917.720703 0)"/>
    </g>
    <!--  of z Variable over Time -->
    <g transform="translate(236.109063 52.311) scale(0.24 -0.24)">
     <defs>
      <path id="DejaVuSans-6f" d="M 1959 3097 
Q 1497 3097 1228 2736 
Q 959 2375 959 1747 
Q 959 1119 1226 758 
Q 1494 397 1959 397 
Q 2419 397 2687 759 
Q 2956 1122 2956 1747 
Q 2956 2369 2687 2733 
Q 2419 3097 1959 3097 
z
M 1959 3584 
Q 2709 3584 3137 3096 
Q 3566 2609 3566 1747 
Q 3566 888 3137 398 
Q 2709 -91 1959 -91 
Q 1206 -91 779 398 
Q 353 888 353 1747 
Q 353 2609 779 3096 
Q 1206 3584 1959 3584 
z
" transform="scale(0.015625)"/>
      <path id="DejaVuSans-66" d="M 2375 4863 
L 2375 4384 
L 1825 4384 
Q 1516 4384 1395 4259 
Q 1275 4134 1275 3809 
L 1275 3500 
L 2222 3500 
L 2222 3053 
L 1275 3053 
L 1275 0 
L 697 0 
L 697 3053 
L 147 3053 
L 147 3500 
L 697 3500 
L 697 3744 
Q 697 4328 969 4595 
Q 1241 4863 1831 4863 
L 2375 4863 
z
" transform="scale(0.015625)"/>
      <path id="DejaVuSans-56" d="M 1831 0 
L 50 4666 
L 709 4666 
L 2188 738 
L 3669 4666 
L 4325 4666 
L 2547 0 
L 1831 0 
z
" transform="scale(0.015625)"/>
      <path id="DejaVuSans-69" d="M 603 3500 
L 1178 3500 
L 1178 0 
L 603 0 
L 603 3500 
z
M 603 4863 
L 1178 4863 
L 1178 4134 
L 603 4134 
L 603 4863 
z
" transform="scale(0.015625)"/>
      <path id="DejaVuSans-62" d="M 3116 1747 
Q 3116 2381 2855 2742 
Q 2594 3103 2138 3103 
Q 1681 3103 1420 2742 
Q 1159 2381 1159 1747 
Q 1159 1113 1420 752 
Q 1681 391 2138 391 
Q 2594 391 2855 752 
Q 3116 1113 3116 1747 
z
M 1159 2969 
Q 1341 3281 1617 3432 
Q 1894 3584 2278 3584 
Q 2916 3584 3314 3078 
Q 3713 2572 3713 1747 
Q 3713 922 3314 415 
Q 2916 -91 2278 -91 
Q 1894 -91 1617 61 
Q 1341 213 1159 525 
L 1159 0 
L 581 0 
L 581 4863 
L 1159 4863 
L 1159 2969 
z
" transform="scale(0.015625)"/>
      <path id="DejaVuSans-6c" d="M 603 4863 
L 1178 4863 
L 1178 0 
L 603 0 
L 603 4863 
z
" transform="scale(0.015625)"/>
      <path id="DejaVuSans-6d" d="M 3328 2828 
Q 3544 3216 3844 3400 
Q 4144 3584 4550 3584 
Q 5097 3584 5394 3201 
Q 5691 2819 5691 2113 
L 5691 0 
L 5113 0 
L 5113 2094 
Q 5113 2597 4934 2840 
Q 4756 3084 4391 3084 
Q 3944 3084 3684 2787 
Q 3425 2491 3425 1978 
L 3425 0 
L 2847 0 
L 2847 2094 
Q 2847 2600 2669 2842 
Q 2491 3084 2119 3084 
Q 1678 3084 1418 2786 
Q 1159 2488 1159 1978 
L 1159 0 
L 581 0 
L 581 3500 
L 1159 3500 
L 1159 2956 
Q 1356 3278 1631 3431 
Q 1906 3584 2284 3584 
Q 2666 3584 2933 3390 
Q 3200 3197 3328 2828 
z
" transform="scale(0.015625)"/>
     </defs>
     <use xlink:href="#DejaVuSans-20"/>
     <use xlink:href="#DejaVuSans-6f" transform="translate(31.787109 0)"/>
     <use xlink:href="#DejaVuSans-66" transform="translate(92.96875 0)"/>
     <use xlink:href="#DejaVuSans-20" transform="translate(128.173828 0)"/>
     <use xlink:href="#DejaVuSans-7a" transform="translate(159.960938 0)"/>
     <use xlink:href="#DejaVuSans-20" transform="translate(212.451172 0)"/>
     <use xlink:href="#DejaVuSans-56" transform="translate(244.238281 0)"/>
     <use xlink:href="#DejaVuSans-61" transform="translate(304.896484 0)"/>
     <use xlink:href="#DejaVuSans-72" transform="translate(366.175781 0)"/>
     <use xlink:href="#DejaVuSans-69" transform="translate(407.289062 0)"/>
     <use xlink:href="#DejaVuSans-61" transform="translate(435.072266 0)"/>
     <use xlink:href="#DejaVuSans-62" transform="translate(496.351562 0)"/>
     <use xlink:href="#DejaVuSans-6c" transform="translate(559.828125 0)"/>
     <use xlink:href="#DejaVuSans-65" transform="translate(587.611328 0)"/>
     <use xlink:href="#DejaVuSans-20" transform="translate(649.134766 0)"/>
     <use xlink:href="#DejaVuSans-6f" transform="translate(680.921875 0)"/>
     <use xlink:href="#DejaVuSans-76" transform="translate(742.103516 0)"/>
     <use xlink:href="#DejaVuSans-65" transform="translate(801.283203 0)"/>
     <use xlink:href="#DejaVuSans-72" transform="translate(862.806641 0)"/>
     <use xlink:href="#DejaVuSans-20" transform="translate(903.919922 0)"/>
     <use xlink:href="#DejaVuSans-54" transform="translate(935.707031 0)"/>
     <use xlink:href="#DejaVuSans-69" transform="translate(993.666016 0)"/>
     <use xlink:href="#DejaVuSans-6d" transform="translate(1021.449219 0)"/>
     <use xlink:href="#DejaVuSans-65" transform="translate(1118.861328 0)"/>
    </g>
   </g>
   <g id="legend_1">
    <g id="patch_4">
     <path d="M 529.104375 377.3618 
L 682.2 377.3618 
Q 685.8 377.3618 685.8 373.7618 
L 685.8 322.72055 
Q 685.8 319.12055 682.2 319.12055 
L 529.104375 319.12055 
Q 525.504375 319.12055 525.504375 322.72055 
L 525.504375 373.7618 
Q 525.504375 377.3618 529.104375 377.3618 
z
" style="fill: #ffffff; opacity: 0.8; stroke: #cccccc; stroke-linejoin: miter"/>
    </g>
    <g id="line2d_10">
     <path d="M 532.704375 333.697738 
L 550.704375 333.697738 
L 568.704375 333.697738 
" style="fill: none; stroke-dasharray: 11.1,4.8; stroke-dashoffset: 0; stroke: #000000; stroke-opacity: 0.7; stroke-width: 3"/>
    </g>
    <g id="text_10">
     <!-- True -->
     <g transform="translate(583.104375 339.997738) scale(0.18 -0.18)">
      <use xlink:href="#DejaVuSans-54"/>
      <use xlink:href="#DejaVuSans-72" transform="translate(46.333984 0)"/>
      <use xlink:href="#DejaVuSans-75" transform="translate(87.447266 0)"/>
      <use xlink:href="#DejaVuSans-65" transform="translate(150.826172 0)"/>
     </g>
    </g>
    <g id="line2d_11">
     <path d="M 532.704375 360.118363 
L 550.704375 360.118363 
L 568.704375 360.118363 
" style="fill: none; stroke: #2ca02c; stroke-opacity: 0.8; stroke-width: 3; stroke-linecap: square"/>
    </g>
    <g id="text_11">
     <!-- Generated -->
     <g transform="translate(583.104375 366.418363) scale(0.18 -0.18)">
      <use xlink:href="#DejaVuSans-47"/>
      <use xlink:href="#DejaVuSans-65" transform="translate(77.490234 0)"/>
      <use xlink:href="#DejaVuSans-6e" transform="translate(139.013672 0)"/>
      <use xlink:href="#DejaVuSans-65" transform="translate(202.392578 0)"/>
      <use xlink:href="#DejaVuSans-72" transform="translate(263.916016 0)"/>
      <use xlink:href="#DejaVuSans-61" transform="translate(305.029297 0)"/>
      <use xlink:href="#DejaVuSans-74" transform="translate(366.308594 0)"/>
      <use xlink:href="#DejaVuSans-65" transform="translate(405.517578 0)"/>
      <use xlink:href="#DejaVuSans-64" transform="translate(467.041016 0)"/>
     </g>
    </g>
   </g>
  </g>
 </g>
 <defs>
  <clipPath id="p51dde8ba47">
   <rect x="60.708125" y="88.1338" width="634.091875" height="298.228"/>
  </clipPath>
 </defs>
</svg>
