<?xml version="1.0" encoding="utf-8" standalone="no"?>
<!DOCTYPE svg PUBLIC "-//W3C//DTD SVG 1.1//EN"
  "http://www.w3.org/Graphics/SVG/1.1/DTD/svg11.dtd">
<svg xmlns:xlink="http://www.w3.org/1999/xlink" width="702pt" height="410.402382pt" viewBox="0 0 702 410.402382" xmlns="http://www.w3.org/2000/svg" version="1.1">
 <metadata>
  <rdf:RDF xmlns:dc="http://purl.org/dc/elements/1.1/" xmlns:cc="http://creativecommons.org/ns#" xmlns:rdf="http://www.w3.org/1999/02/22-rdf-syntax-ns#">
   <cc:Work>
    <dc:type rdf:resource="http://purl.org/dc/dcmitype/StillImage"/>
    <dc:date>2025-10-24T18:04:47.474596</dc:date>
    <dc:format>image/svg+xml</dc:format>
    <dc:creator>
     <cc:Agent>
      <dc:title>Matplotlib v3.10.7, https://matplotlib.org/</dc:title>
     </cc:Agent>
    </dc:creator>
   </cc:Work>
  </rdf:RDF>
 </metadata>
 <defs>
  <style type="text/css">*{stroke-linejoin: round; stroke-linecap: butt}</style>
 </defs>
 <g id="figure_1">
  <g id="patch_1">
   <path d="M 0 410.402382 
L 702 410.402382 
L 702 0 
L 0 0 
z
" style="fill: #ffffff"/>
  </g>
  <g id="axes_1">
   <g id="patch_2">
    <path d="M 60.708125 386.3618 
L 694.8 386.3618 
L 694.8 88.1338 
L 60.708125 88.1338 
z
" style="fill: #ffffff"/>
   </g>
   <g id="matplotlib.axis_1"/>
   <g id="matplotlib.axis_2">
    <g id="ytick_1">
     <g id="line2d_1">
      <defs>
       <path id="mf8450af4a7" d="M 0 0 
L -5 0 
" style="stroke: #000000; stroke-width: 0.8"/>
      </defs>
      <g>
       <use xlink:href="#mf8450af4a7" x="60.708125" y="381.481104" style="stroke: #000000; stroke-width: 0.8"/>
      </g>
     </g>
     <g id="text_1">
      <!-- −3 -->
      <g transform="translate(28.620625 387.559854) scale(0.16 -0.16)">
       <defs>
        <path id="DejaVuSans-2212" d="M 678 2272 
L 4684 2272 
L 4684 1741 
L 678 1741 
L 678 2272 
z
" transform="scale(0.015625)"/>
        <path id="DejaVuSans-33" d="M 2597 2516 
Q 3050 2419 3304 2112 
Q 3559 1806 3559 1356 
Q 3559 666 3084 287 
Q 2609 -91 1734 -91 
Q 1441 -91 1130 -33 
Q 819 25 488 141 
L 488 750 
Q 750 597 1062 519 
Q 1375 441 1716 441 
Q 2309 441 2620 675 
Q 2931 909 2931 1356 
Q 2931 1769 2642 2001 
Q 2353 2234 1838 2234 
L 1294 2234 
L 1294 2753 
L 1863 2753 
Q 2328 2753 2575 2939 
Q 2822 3125 2822 3475 
Q 2822 3834 2567 4026 
Q 2313 4219 1838 4219 
Q 1578 4219 1281 4162 
Q 984 4106 628 3988 
L 628 4550 
Q 988 4650 1302 4700 
Q 1616 4750 1894 4750 
Q 2613 4750 3031 4423 
Q 3450 4097 3450 3541 
Q 3450 3153 3228 2886 
Q 3006 2619 2597 2516 
z
" transform="scale(0.015625)"/>
       </defs>
       <use xlink:href="#DejaVuSans-2212"/>
       <use xlink:href="#DejaVuSans-33" transform="translate(83.789062 0)"/>
      </g>
     </g>
    </g>
    <g id="ytick_2">
     <g id="line2d_2">
      <g>
       <use xlink:href="#mf8450af4a7" x="60.708125" y="332.284188" style="stroke: #000000; stroke-width: 0.8"/>
      </g>
     </g>
     <g id="text_2">
      <!-- −2 -->
      <g transform="translate(28.620625 338.362938) scale(0.16 -0.16)">
       <defs>
        <path id="DejaVuSans-32" d="M 1228 531 
L 3431 531 
L 3431 0 
L 469 0 
L 469 531 
Q 828 903 1448 1529 
Q 2069 2156 2228 2338 
Q 2531 2678 2651 2914 
Q 2772 3150 2772 3378 
Q 2772 3750 2511 3984 
Q 2250 4219 1831 4219 
Q 1534 4219 1204 4116 
Q 875 4013 500 3803 
L 500 4441 
Q 881 4594 1212 4672 
Q 1544 4750 1819 4750 
Q 2544 4750 2975 4387 
Q 3406 4025 3406 3419 
Q 3406 3131 3298 2873 
Q 3191 2616 2906 2266 
Q 2828 2175 2409 1742 
Q 1991 1309 1228 531 
z
" transform="scale(0.015625)"/>
       </defs>
       <use xlink:href="#DejaVuSans-2212"/>
       <use xlink:href="#DejaVuSans-32" transform="translate(83.789062 0)"/>
      </g>
     </g>
    </g>
    <g id="ytick_3">
     <g id="line2d_3">
      <g>
       <use xlink:href="#mf8450af4a7" x="60.708125" y="283.087272" style="stroke: #000000; stroke-width: 0.8"/>
      </g>
     </g>
     <g id="text_3">
      <!-- −1 -->
      <g transform="translate(28.620625 289.166022) scale(0.16 -0.16)">
       <defs>
        <path id="DejaVuSans-31" d="M 794 531 
L 1825 531 
L 1825 4091 
L 703 3866 
L 703 4441 
L 1819 4666 
L 2450 4666 
L 2450 531 
L 3481 531 
L 3481 0 
L 794 0 
L 794 531 
z
" transform="scale(0.015625)"/>
       </defs>
       <use xlink:href="#DejaVuSans-2212"/>
       <use xlink:href="#DejaVuSans-31" transform="translate(83.789062 0)"/>
      </g>
     </g>
    </g>
    <g id="ytick_4">
     <g id="line2d_4">
      <g>
       <use xlink:href="#mf8450af4a7" x="60.708125" y="233.890355" style="stroke: #000000; stroke-width: 0.8"/>
      </g>
     </g>
     <g id="text_4">
      <!-- 0 -->
      <g transform="translate(42.028125 239.969105) scale(0.16 -0.16)">
       <defs>
        <path id="DejaVuSans-30" d="M 2034 4250 
Q 1547 4250 1301 3770 
Q 1056 3291 1056 2328 
Q 1056 1369 1301 889 
Q 1547 409 2034 409 
Q 2525 409 2770 889 
Q 3016 1369 3016 2328 
Q 3016 3291 2770 3770 
Q 2525 4250 2034 4250 
z
M 2034 4750 
Q 2819 4750 3233 4129 
Q 3647 3509 3647 2328 
Q 3647 1150 3233 529 
Q 2819 -91 2034 -91 
Q 1250 -91 836 529 
Q 422 1150 422 2328 
Q 422 3509 836 4129 
Q 1250 4750 2034 4750 
z
" transform="scale(0.015625)"/>
       </defs>
       <use xlink:href="#DejaVuSans-30"/>
      </g>
     </g>
    </g>
    <g id="ytick_5">
     <g id="line2d_5">
      <g>
       <use xlink:href="#mf8450af4a7" x="60.708125" y="184.693439" style="stroke: #000000; stroke-width: 0.8"/>
      </g>
     </g>
     <g id="text_5">
      <!-- 1 -->
      <g transform="translate(42.028125 190.772189) scale(0.16 -0.16)">
       <use xlink:href="#DejaVuSans-31"/>
      </g>
     </g>
    </g>
    <g id="ytick_6">
     <g id="line2d_6">
      <g>
       <use xlink:href="#mf8450af4a7" x="60.708125" y="135.496523" style="stroke: #000000; stroke-width: 0.8"/>
      </g>
     </g>
     <g id="text_6">
      <!-- 2 -->
      <g transform="translate(42.028125 141.575273) scale(0.16 -0.16)">
       <use xlink:href="#DejaVuSans-32"/>
      </g>
     </g>
    </g>
    <g id="text_7">
     <!-- y -->
     <g transform="translate(20.877188 242.574675) rotate(-90) scale(0.18 -0.18)">
      <defs>
       <path id="DejaVuSans-79" d="M 2059 -325 
Q 1816 -950 1584 -1140 
Q 1353 -1331 966 -1331 
L 506 -1331 
L 506 -850 
L 844 -850 
Q 1081 -850 1212 -737 
Q 1344 -625 1503 -206 
L 1606 56 
L 191 3500 
L 800 3500 
L 1894 763 
L 2988 3500 
L 3597 3500 
L 2059 -325 
z
" transform="scale(0.015625)"/>
      </defs>
      <use xlink:href="#DejaVuSans-79"/>
     </g>
    </g>
   </g>
   <g id="line2d_7">
    <path d="M 89.530483 214.667601 
L 90.199175 211.405968 
L 90.902455 206.804627 
L 91.628793 200.525777 
L 92.389718 191.908088 
L 93.219819 179.825016 
L 94.165211 162.568815 
L 95.733178 133.685063 
L 96.148229 129.790263 
L 96.390341 129.054197 
L 96.494104 129.139831 
L 96.643983 129.72181 
L 96.874567 131.742392 
L 97.174325 136.603133 
L 97.623963 147.967308 
L 98.350301 172.791288 
L 99.606981 215.534519 
L 100.194969 227.863094 
L 100.702252 234.213214 
L 101.140361 237.263379 
L 101.520824 238.577859 
L 101.843641 239.027887 
L 102.120341 239.091527 
L 102.431628 238.909469 
L 102.915854 238.318565 
L 104.679817 235.968273 
L 105.325451 235.545342 
L 105.90191 235.419234 
L 106.478368 235.518745 
L 107.077885 235.856417 
L 107.723519 236.492786 
L 108.392211 237.477115 
L 109.083962 238.906685 
L 109.787241 240.893811 
L 110.490521 243.587275 
L 111.1938 247.207846 
L 111.885551 251.983509 
L 112.58883 258.483273 
L 113.315168 267.41383 
L 114.029977 279.063946 
L 114.813961 295.741699 
L 115.886174 323.921942 
L 116.820037 346.567004 
L 117.223558 351.795214 
L 117.431083 352.531881 
L 117.511788 352.390223 
L 117.650138 351.549428 
L 117.869192 348.601503 
L 118.18048 340.930745 
L 118.607059 324.21671 
L 119.333397 285.192749 
L 120.232673 240.760301 
L 120.797602 222.947056 
L 121.270298 214.235397 
L 121.696878 210.024958 
L 122.07734 208.188789 
L 122.388628 207.591629 
L 122.653799 207.492305 
L 122.953558 207.6488 
L 123.668366 208.387011 
L 124.187179 208.741628 
L 124.544584 208.7327 
L 124.87893 208.491048 
L 125.259392 207.921405 
L 125.70903 206.811973 
L 126.239372 204.864695 
L 126.861948 201.679797 
L 127.565227 196.83824 
L 128.36074 189.692955 
L 129.271545 179.365966 
L 131.911726 147.653339 
L 132.257601 146.298748 
L 132.442068 146.168519 
L 132.580418 146.374536 
L 132.776414 147.15347 
L 133.064643 149.364434 
L 133.468164 154.410748 
L 134.033094 164.639557 
L 135.047661 188.02712 
L 135.958466 206.570097 
L 136.581041 215.183488 
L 137.122912 219.861126 
L 137.584079 222.138392 
L 137.964542 223.063757 
L 138.27583 223.328396 
L 138.564059 223.29035 
L 138.875347 222.998186 
L 139.301926 222.247182 
L 139.901443 220.686402 
L 140.685427 217.98489 
L 141.584703 214.051913 
L 142.46092 209.195519 
L 143.302549 203.216716 
L 144.144179 195.568006 
L 145.020396 185.466006 
L 146.000376 171.397122 
L 147.868102 143.934239 
L 148.306211 140.687522 
L 148.571382 140.000788 
L 148.686674 140.051239 
L 148.836553 140.459908 
L 149.055607 141.815199 
L 149.366895 145.353924 
L 149.816533 153.323205 
L 150.485225 169.698014 
L 152.156955 212.350334 
L 152.744943 221.099581 
L 153.263756 225.7593 
L 153.701864 227.938743 
L 154.070798 228.81828 
L 154.382085 229.067528 
L 154.658786 229.024812 
L 154.981602 228.71959 
L 155.454299 227.918556 
L 156.180636 226.194561 
L 157.25285 223.032079 
L 158.290475 219.303408 
L 159.178222 215.267888 
L 159.985264 210.536563 
L 160.769248 204.558882 
L 161.553231 196.777536 
L 162.394861 186.031642 
L 163.236491 172.208088 
L 165.565384 131.633089 
L 165.876672 129.988352 
L 165.991963 129.889196 
L 166.026551 129.917616 
L 166.153372 130.261163 
L 166.349368 131.567841 
L 166.626068 135.159135 
L 167.01806 143.598182 
L 167.617577 162.006586 
L 169.416128 220.557741 
L 169.957999 229.920832 
L 170.442224 234.8489 
L 170.868804 237.169055 
L 171.226208 238.07019 
L 171.537496 238.345495 
L 171.814196 238.310352 
L 172.171601 238.000651 
L 172.805705 237.090869 
L 174.143089 235.174142 
L 174.892486 234.502473 
L 175.561178 234.188594 
L 176.22987 234.114988 
L 176.910091 234.268394 
L 177.6249 234.664638 
L 178.351238 235.329444 
L 179.077576 236.300523 
L 179.803914 237.660297 
L 180.518722 239.492963 
L 181.222002 241.943738 
L 181.913752 245.200404 
L 182.605503 249.576855 
L 183.285724 255.367391 
L 183.977474 263.254729 
L 184.703812 274.23273 
L 185.418621 288.487742 
L 186.260251 310.228659 
L 187.885864 353.352091 
L 188.22021 356.904072 
L 188.347031 357.218707 
L 188.381619 357.19253 
L 188.485381 356.807487 
L 188.658319 355.056048 
L 188.92349 349.496393 
L 189.303953 336.052682 
L 189.868882 306.984001 
L 191.263912 231.724295 
L 191.782725 216.402391 
L 192.243892 208.695672 
L 192.635884 205.3434 
L 192.993288 203.934821 
L 193.281518 203.521004 
L 193.52363 203.504429 
L 193.834918 203.741075 
L 195.033952 204.838313 
L 195.368298 204.793281 
L 195.702644 204.503359 
L 196.083107 203.845633 
L 196.544274 202.563628 
L 197.097674 200.305919 
L 197.743308 196.657017 
L 198.504233 190.977505 
L 199.380451 182.632182 
L 200.694776 167.621758 
L 201.790048 156.051311 
L 202.32039 152.533841 
L 202.654736 151.516429 
L 202.839203 151.442954 
L 202.989082 151.660671 
L 203.208136 152.444257 
L 203.519424 154.525909 
L 203.934474 159.024587 
L 204.499404 167.901027 
L 206.874414 208.73353 
L 207.450872 213.949108 
L 207.946627 216.632669 
L 208.384735 217.911021 
L 208.730611 218.338077 
L 209.007311 218.368595 
L 209.29554 218.152713 
L 209.676003 217.545521 
L 210.194816 216.247059 
L 210.863508 213.92166 
L 211.682079 210.213365 
L 212.535238 205.273989 
L 213.399926 198.897605 
L 214.299201 190.547903 
L 215.29071 179.146243 
L 217.781012 149.184899 
L 218.161475 147.375969 
L 218.380529 147.108424 
L 218.50735 147.239594 
L 218.691817 147.822135 
L 218.956988 149.494039 
L 219.325921 153.457043 
L 219.810147 161.383708 
L 220.697893 180.560934 
L 221.885398 204.83501 
L 222.531032 213.834815 
L 223.072903 218.590183 
L 223.557128 221.064105 
L 223.960649 222.116611 
L 224.283466 222.432194 
L 224.548637 222.409707 
L 224.848395 222.138232 
L 225.263446 221.429969 
L 225.839904 219.950732 
L 226.60083 217.336581 
L 227.453989 213.595966 
L 228.341735 208.650139 
L 229.194894 202.608155 
L 230.024994 195.079005 
L 230.901212 185.028318 
L 231.950366 170.206024 
L 233.656684 145.811461 
L 234.117851 142.19833 
L 234.394551 141.352756 
L 234.521372 141.354683 
L 234.532901 141.367777 
L 234.682781 141.740055 
L 234.913364 143.066508 
L 235.236181 146.488008 
L 235.66276 153.697626 
L 236.273807 168.324538 
L 237.922478 209.61274 
L 238.533525 219.067076 
L 239.052338 224.02451 
L 239.513504 226.508082 
L 239.905496 227.590069 
L 240.228313 227.928699 
L 240.493484 227.920121 
L 240.804772 227.657163 
L 241.242881 226.952707 
L 241.888514 225.447753 
L 242.845436 222.603188 
L 243.848474 218.929124 
L 244.759279 214.754695 
L 245.57785 209.915453 
L 246.373363 203.829427 
L 247.168876 195.948205 
L 247.975918 185.674198 
L 248.886723 170.976675 
L 251.042678 134.670685 
L 251.400083 132.401481 
L 251.561491 132.17377 
L 251.584549 132.18719 
L 251.699841 132.437415 
L 251.884308 133.48446 
L 252.161008 136.562654 
L 252.541471 143.66335 
L 253.060284 157.99428 
L 255.181652 222.223707 
L 255.711994 229.86316 
L 256.173161 233.70904 
L 256.588211 235.541823 
L 256.945615 236.254822 
L 257.233845 236.409267 
L 257.522074 236.300135 
L 257.914066 235.875991 
L 258.628875 234.711314 
L 260.196842 232.154988 
L 261.33823 230.7606 
L 263.966882 227.724918 
L 264.808512 226.268812 
L 265.569437 224.489263 
L 266.295775 222.198342 
L 266.999055 219.210583 
L 267.702334 215.200521 
L 268.382556 209.986199 
L 269.074306 202.862351 
L 269.777586 193.20581 
L 270.526982 179.678199 
L 271.299437 161.436312 
L 273.409275 108.322258 
L 273.662917 106.929884 
L 273.732092 106.971619 
L 273.743621 106.997475 
L 273.870442 107.653617 
L 274.066438 110.104734 
L 274.354668 117.155516 
L 274.781247 133.999096 
L 275.461468 171.218715 
L 276.476036 225.510066 
L 277.017907 243.31713 
L 277.490603 252.350669 
L 277.905653 256.523064 
L 278.274587 258.295386 
L 278.585874 258.879566 
L 278.839516 258.95332 
L 279.127746 258.777771 
L 280.534305 257.623092 
L 280.857122 257.75285 
L 281.202997 258.155288 
L 281.618047 259.019944 
L 282.113802 260.615811 
L 282.701789 263.335021 
L 283.39354 267.684394 
L 284.177524 274.138125 
L 285.122916 283.936447 
L 287.601688 310.820526 
L 287.99368 312.54335 
L 288.224264 312.821307 
L 288.362614 312.700027 
L 288.55861 312.141496 
L 288.83531 310.560602 
L 289.204243 307.004908 
L 289.688469 299.936405 
L 290.587744 282.810585 
L 291.867483 259.451001 
L 292.513116 251.514301 
L 293.054987 247.297486 
L 293.539213 245.09758 
L 293.931205 244.198076 
L 294.242492 243.943716 
L 294.507663 243.993552 
L 294.818951 244.310249 
L 295.24553 245.101383 
L 295.81046 246.665768 
L 296.548327 249.423308 
L 297.378428 253.423866 
L 298.243116 258.75055 
L 299.119333 265.577958 
L 300.007079 274.313883 
L 301.010117 286.536146 
L 303.20066 314.246781 
L 303.62724 316.759621 
L 303.880882 317.273941 
L 304.007703 317.218042 
L 304.169111 316.821134 
L 304.399694 315.561422 
L 304.73404 312.2608 
L 305.206737 305.109605 
L 305.910016 290.663316 
L 307.616334 254.313408 
L 308.215851 246.697745 
L 308.734664 242.652563 
L 309.184302 240.675804 
L 309.553235 239.902115 
L 309.852994 239.712443 
L 310.129694 239.799326 
L 310.46404 240.163335 
L 310.913678 241.024255 
L 311.547782 242.765633 
L 312.366353 245.701558 
L 313.265629 249.781703 
L 314.130317 254.750827 
L 314.971947 260.957074 
L 315.813576 268.902484 
L 316.701323 279.511833 
L 317.704361 294.348968 
L 319.353033 318.92407 
L 319.802671 322.617963 
L 320.079371 323.515176 
L 320.206192 323.519639 
L 320.217721 323.506638 
L 320.3676 323.127481 
L 320.586654 321.844763 
L 320.886413 318.591225 
L 321.312992 311.065956 
L 321.981684 294.685685 
L 323.734119 250.045409 
L 324.310578 241.632973 
L 324.817861 237.168004 
L 325.25597 235.021523 
L 325.624903 234.150402 
L 325.924662 233.914637 
L 326.201362 233.968888 
L 326.535708 234.292117 
L 327.008404 235.101126 
L 327.7578 236.882451 
L 328.853072 240.099732 
L 329.890698 243.80169 
L 330.778444 247.817633 
L 331.585486 252.529236 
L 332.36947 258.494411 
L 333.153454 266.275039 
L 333.972025 276.770588 
L 334.813655 290.515671 
L 337.223252 332.346908 
L 337.511481 333.673991 
L 337.615244 333.719695 
L 337.649832 333.680237 
L 337.788182 333.23715 
L 337.995707 331.670678 
L 338.283936 327.513976 
L 338.710516 317.597541 
L 339.367678 296.34036 
L 340.889529 245.493031 
L 341.454459 234.558617 
L 341.950213 228.844844 
L 342.388322 226.080017 
L 342.757256 224.957332 
L 343.080072 224.580234 
L 343.356773 224.562246 
L 343.679589 224.791065 
L 344.221461 225.504956 
L 345.812487 227.716577 
L 346.515766 228.26562 
L 347.138342 228.482138 
L 347.760917 228.465554 
L 348.395022 228.219046 
L 349.063714 227.711025 
L 349.755464 226.895601 
L 350.470273 225.691094 
L 351.173552 224.053684 
L 351.876832 221.830337 
L 352.580112 218.830563 
L 353.271862 214.853893 
L 353.963612 209.524691 
L 354.655363 202.422678 
L 355.358642 192.763216 
L 356.09651 179.395989 
L 356.92661 160.008785 
L 358.955745 109.874663 
L 359.209386 108.368004 
L 359.267032 108.360906 
L 359.30162 108.420199 
L 359.428441 109.058531 
L 359.635966 111.59005 
L 359.924195 118.298432 
L 360.304658 132.936639 
L 361.030996 171.687079 
L 362.103209 226.341165 
L 362.64508 243.083851 
L 363.117776 251.543101 
L 363.532827 255.472052 
L 363.90176 257.110012 
L 364.213048 257.638323 
L 364.46669 257.693721 
L 364.766448 257.500719 
L 366.080774 256.40422 
L 366.41512 256.499201 
L 366.760995 256.851892 
L 367.164516 257.617999 
L 367.648742 259.058402 
L 368.213671 261.491478 
L 368.870834 265.372864 
L 369.62023 271.195052 
L 370.484918 279.788483 
L 371.649365 293.847617 
L 372.986749 309.492942 
L 373.517091 313.317289 
L 373.839908 314.350278 
L 374.012846 314.410638 
L 374.162725 314.163495 
L 374.381779 313.283417 
L 374.693067 310.952962 
L 375.108117 305.914128 
L 375.673047 295.949771 
L 377.909706 253.670484 
L 378.497694 247.638602 
L 379.004978 244.509598 
L 379.443086 243.023533 
L 379.800491 242.488515 
L 380.077191 242.413362 
L 380.353891 242.581072 
L 380.722825 243.107097 
L 381.218579 244.237513 
L 381.887271 246.368793 
L 382.705843 249.760091 
L 383.559001 254.279843 
L 384.435219 260.171962 
L 385.288378 267.465682 
L 386.187653 277.201107 
L 387.236808 291.205145 
L 389.012301 315.181033 
L 389.484997 318.631489 
L 389.773226 319.449391 
L 389.911576 319.421996 
L 390.061455 319.052003 
L 390.292039 317.780466 
L 390.614856 314.588362 
L 391.052964 307.789427 
L 391.67554 294.175158 
L 393.439503 253.36382 
L 394.03902 245.168411 
L 394.557833 240.796828 
L 395.007471 238.695456 
L 395.387934 237.841061 
L 395.699221 237.590997 
L 395.964392 237.642909 
L 396.287209 237.966139 
L 396.736847 238.774153 
L 397.39401 240.470033 
L 398.270227 243.394637 
L 399.215619 247.330377 
L 400.091837 251.971755 
L 400.921937 257.59988 
L 401.728979 264.650026 
L 402.55908 273.963354 
L 403.469885 286.866392 
L 404.841856 310.094342 
L 405.683486 322.456768 
L 406.133124 326.275757 
L 406.386766 327.034581 
L 406.502057 326.984077 
L 406.651937 326.523981 
L 406.88252 324.912638 
L 407.205337 320.78462 
L 407.631916 312.102625 
L 408.300608 292.952205 
L 409.695638 252.993479 
L 410.306685 241.584121 
L 410.825497 235.609114 
L 411.298194 232.48212 
L 411.701715 231.128319 
L 412.036061 230.676437 
L 412.312761 230.634879 
L 412.624049 230.841714 
L 413.062157 231.446915 
L 413.811553 232.932876 
L 415.5294 236.951289 
L 416.739964 240.263781 
L 417.616181 243.320182 
L 418.411694 246.932061 
L 419.16109 251.401812 
L 419.898957 257.196239 
L 420.636824 264.825555 
L 421.409279 275.270174 
L 422.216321 289.290178 
L 423.242418 311.576681 
L 424.395335 335.597168 
L 424.821914 340.448818 
L 425.064027 341.351782 
L 425.15626 341.280679 
L 425.294611 340.707753 
L 425.502136 338.727512 
L 425.790365 333.503445 
L 426.228474 320.811143 
L 426.920224 293.29765 
L 428.165375 243.629631 
L 428.730304 230.031051 
L 429.226059 222.954675 
L 429.652638 219.646075 
L 430.033101 218.204308 
L 430.355918 217.696703 
L 430.632618 217.62355 
L 430.943906 217.793365 
L 431.531894 218.432608 
L 432.338936 219.220643 
L 432.800103 219.383077 
L 433.203624 219.291958 
L 433.607145 218.961475 
L 434.068312 218.26838 
L 434.598654 217.035901 
L 435.198171 215.040963 
L 435.855334 212.023441 
L 436.558613 207.687401 
L 437.284951 201.742795 
L 438.045877 193.588024 
L 438.84139 182.604315 
L 439.763724 166.535557 
L 441.619921 133.254323 
L 442.011912 130.115455 
L 442.219438 129.681519 
L 442.3232 129.843565 
L 442.484609 130.631129 
L 442.73825 133.208017 
L 443.084126 139.324434 
L 443.556822 152.074414 
L 444.352335 180.782434 
L 445.320785 213.112185 
L 445.920302 226.268959 
L 446.439115 233.197424 
L 446.888753 236.544775 
L 447.292274 238.078757 
L 447.62662 238.605667 
L 447.90332 238.685918 
L 448.203079 238.525745 
L 448.664246 237.982887 
L 450.727968 235.244426 
L 451.385131 234.852638 
L 452.007706 234.73122 
L 452.618752 234.836499 
L 453.264386 235.177393 
L 453.944607 235.799055 
L 454.647887 236.755957 
L 455.351167 238.101064 
L 456.065975 239.974157 
L 456.769255 242.474632 
L 457.461005 245.790555 
L 458.164285 250.315814 
L 458.856035 256.300524 
L 459.559315 264.454613 
L 460.285653 275.61162 
L 461.02352 290.35703 
L 461.888208 312.659514 
L 463.329355 350.100064 
L 463.698288 354.479781 
L 463.871226 354.979388 
L 463.882755 354.972662 
L 463.974989 354.728731 
L 464.136397 353.44981 
L 464.36698 349.577284 
L 464.701326 339.521061 
L 465.20861 316.499548 
L 467.064807 224.937981 
L 467.560562 213.952115 
L 467.987141 208.786607 
L 468.367604 206.496531 
L 468.70195 205.623466 
L 468.967121 205.435959 
L 469.232292 205.524924 
L 469.68193 205.972047 
L 470.431326 206.665263 
L 470.811789 206.731417 
L 471.134605 206.561997 
L 471.49201 206.099135 
L 471.918589 205.147714 
L 472.425873 203.429882 
L 473.02539 200.542463 
L 473.71714 196.044916 
L 474.501124 189.385291 
L 475.434987 179.390841 
L 477.994464 150.606066 
L 478.363397 149.089894 
L 478.570922 148.89757 
L 478.709273 149.057291 
L 478.905269 149.695078 
L 479.193498 151.534962 
L 479.573961 155.633283 
L 480.104303 164.234764 
L 481.222632 187.077239 
L 482.225671 205.602978 
L 482.859775 213.438715 
L 483.401646 217.606377 
L 483.862813 219.652519 
L 484.254805 220.513415 
L 484.554564 220.730788 
L 484.819735 220.66344 
L 485.142552 220.318323 
L 485.58066 219.487969 
L 486.168648 217.845202 
L 486.929573 215.014957 
L 487.771203 210.999261 
L 488.64742 205.686476 
L 489.500579 199.111113 
L 490.376796 190.523745 
L 491.333718 178.803014 
L 493.916253 145.553432 
L 494.262128 144.041084 
L 494.446595 143.899982 
L 494.584945 144.12502 
L 494.79247 145.016558 
L 495.080699 147.380076 
L 495.472691 152.653076 
L 496.003033 163.115509 
L 497.202067 192.952577 
L 498.009109 209.554473 
L 498.620156 217.937529 
L 499.138968 222.305039 
L 499.588606 224.403791 
L 499.980598 225.307043 
L 500.291886 225.550434 
L 500.557057 225.492599 
L 500.879874 225.163062 
L 501.341041 224.323191 
L 501.998204 222.608144 
L 502.88595 219.620751 
L 503.808284 215.747601 
L 504.684501 211.072536 
L 505.514602 205.405188 
L 506.333173 198.189033 
L 507.163273 188.788723 
L 508.074078 175.804288 
L 509.595929 150.126776 
L 510.322267 140.126367 
L 510.737317 136.921946 
L 510.97943 136.339137 
L 511.083193 136.42525 
L 511.244601 136.984259 
L 511.486714 138.826868 
L 511.82106 143.378523 
L 512.259168 152.721017 
L 513.008565 174.641006 
L 514.242186 209.618167 
L 514.864762 221.350763 
L 515.383574 227.382194 
L 515.85627 230.553739 
L 516.259792 231.937217 
L 516.594138 232.407358 
L 516.870838 232.460001 
L 517.170596 232.273379 
L 517.597176 231.701957 
L 518.300455 230.32668 
L 519.856894 226.68535 
L 521.113574 223.300496 
L 522.024378 220.204154 
L 522.831421 216.632609 
L 523.592346 212.21001 
L 524.341742 206.466258 
L 525.079609 199.005025 
L 525.840535 188.9475 
L 526.670635 174.825991 
L 527.650615 153.90518 
L 528.895766 127.949231 
L 529.322345 123.128499 
L 529.564458 122.252262 
L 529.656691 122.332669 
L 529.795042 122.914471 
L 530.014096 125.033349 
L 530.302325 130.252878 
L 530.728905 142.711734 
L 531.455243 171.578588 
L 532.677335 219.580693 
L 533.242264 233.006281 
L 533.738019 239.998176 
L 534.164598 243.280275 
L 534.545061 244.709994 
L 534.879407 245.218255 
L 535.156107 245.278419 
L 535.478924 245.089855 
L 536.113029 244.383769 
L 536.885483 243.640744 
L 537.34665 243.480818 
L 537.750171 243.571016 
L 538.165222 243.909076 
L 538.626389 244.597757 
L 539.16826 245.847833 
L 539.767777 247.829059 
L 540.42494 250.819427 
L 541.128219 255.114245 
L 541.854557 261.007933 
L 542.615483 269.103279 
L 543.410996 280.049741 
L 544.3218 295.917563 
L 546.270231 331.073315 
L 546.639164 333.871654 
L 546.823631 334.21712 
L 546.83516 334.211933 
L 546.938923 334.018008 
L 547.111861 333.091787 
L 547.365502 330.336882 
L 547.722907 323.661902 
L 548.207132 309.934413 
L 549.117937 276.086663 
L 549.971096 248.269891 
L 550.559083 235.691241 
L 551.066367 229.12581 
L 551.516005 225.907111 
L 551.907997 224.48697 
L 552.242343 223.997613 
L 552.519043 223.939687 
L 552.830331 224.124943 
L 553.326085 224.727762 
L 554.997815 226.938901 
L 555.63192 227.353944 
L 556.208379 227.472886 
L 556.761779 227.362221 
L 557.338238 227.013786 
L 557.960813 226.368447 
L 558.617976 225.353569 
L 559.309726 223.856716 
L 560.001477 221.808768 
L 560.704756 219.000563 
L 561.408036 215.225551 
L 562.111316 210.155098 
L 562.826124 203.273291 
L 563.529404 194.265589 
L 564.267271 181.779448 
L 565.085842 163.931222 
L 567.299444 112.740304 
L 567.530027 111.682598 
L 567.610731 111.761986 
L 567.737552 112.395395 
L 567.945078 114.83473 
L 568.244836 121.520301 
L 568.648357 136.215988 
L 569.351637 172.275034 
L 570.377733 221.954204 
L 570.942663 239.40849 
L 571.426888 248.152138 
L 571.853467 252.31814 
L 572.222401 254.072139 
L 572.545218 254.695692 
L 572.810389 254.803562 
L 573.098618 254.663217 
L 573.709664 254.028676 
L 574.274594 253.59259 
L 574.655057 253.555822 
L 574.989403 253.747924 
L 575.358336 254.235067 
L 575.796445 255.21304 
L 576.315258 256.952054 
L 576.914775 259.797326 
L 577.606525 264.248857 
L 578.367451 270.681723 
L 579.232139 280.043993 
L 580.338939 294.714892 
L 581.768557 313.394919 
L 582.264311 317.291945 
L 582.575599 318.329136 
L 582.725478 318.36667 
L 582.737007 318.356391 
L 582.886887 318.046753 
L 583.105941 316.991155 
L 583.417229 314.227374 
L 583.82075 308.411737 
L 584.443325 295.575578 
L 586.426343 252.53262 
L 587.014331 245.287704 
L 587.533144 241.40589 
L 587.971252 239.582205 
L 588.340186 238.858828 
L 588.628415 238.698677 
L 588.905115 238.804761 
L 589.250991 239.207981 
L 589.723687 240.140883 
L 590.403908 242.033011 
L 591.268596 245.135959 
L 592.19093 249.30889 
L 593.055618 254.278319 
L 593.885718 260.415017 
L 594.715819 268.290901 
L 595.592036 278.85577 
L 596.560487 293.425983 
L 598.359038 321.082869 
L 598.785617 324.441924 
L 599.050788 325.17584 
L 599.16608 325.122766 
L 599.315959 324.691931 
L 599.546543 323.18639 
L 599.846301 319.575991 
L 600.28441 311.222368 
L 600.97616 293.119985 
L 602.567186 250.331361 
L 603.155174 240.971963 
L 603.662458 236.08718 
L 604.112096 233.667054 
L 604.492558 232.678968 
L 604.803846 232.398823 
L 605.080546 232.428845 
L 605.403363 232.714209 
L 605.876059 233.474221 
L 606.660043 235.224724 
L 607.96284 238.737953 
L 609.046582 242.24967 
L 609.934328 245.887481 
L 610.729841 250.117733 
L 611.502296 255.482173 
L 612.263221 262.394223 
L 613.024147 271.407379 
L 613.831189 283.782513 
L 614.811169 302.546996 
L 616.344549 332.182669 
L 616.759599 336.257991 
L 616.990183 336.96532 
L 617.082416 336.881489 
L 617.220766 336.331917 
L 617.43982 334.3742 
L 617.751108 329.242915 
L 618.177688 317.943522 
L 618.823321 293.876911 
L 620.033885 249.10028 
L 620.633402 234.764465 
L 621.140685 227.424299 
L 621.590323 223.770282 
L 621.982315 222.137535 
L 622.316661 221.542367 
L 622.593361 221.428028 
L 622.89312 221.556232 
L 623.342757 222.030773 
L 624.783904 223.692276 
L 625.302717 223.915949 
L 625.763884 223.877195 
L 626.225051 223.606936 
L 626.732335 223.029517 
L 627.297264 222.025873 
L 627.919839 220.440759 
L 628.588532 218.089287 
L 629.280282 214.810456 
L 629.983562 210.35383 
L 630.709899 204.242747 
L 631.436237 196.180913 
L 632.197163 185.106184 
L 633.038793 169.409207 
L 634.214768 142.739944 
L 635.044869 126.056205 
L 635.459919 121.413422 
L 635.690503 120.657779 
L 635.782736 120.790189 
L 635.932615 121.572133 
L 636.163199 124.20123 
L 636.486016 130.839975 
L 636.912595 144.69462 
L 637.800341 183.321713 
L 638.734204 219.754251 
L 639.299134 233.831271 
L 639.794888 241.140442 
L 640.232997 244.666005 
L 640.61346 246.157041 
L 640.936277 246.663472 
L 641.212977 246.740592 
L 641.524264 246.575444 
L 642.123782 245.934066 
L 642.861649 245.258423 
L 643.311286 245.126163 
L 643.691749 245.240194 
L 644.09527 245.610722 
L 644.556437 246.365233 
L 645.086779 247.702883 
L 645.686296 249.863178 
L 646.343459 253.106215 
L 647.046739 257.764813 
L 647.796135 264.312559 
L 648.56859 273.133089 
L 649.421749 285.592015 
L 650.482433 304.584433 
L 651.704525 325.837724 
L 652.165692 330.442261 
L 652.430863 331.429028 
L 652.523096 331.426497 
L 652.546155 331.396302 
L 652.684505 330.959609 
L 652.903559 329.345001 
L 653.214847 325.059851 
L 653.629897 315.819965 
L 654.264001 295.692816 
L 655.68209 250.274463 
L 656.281607 238.07377 
L 656.788891 231.786926 
L 657.250058 228.535835 
L 657.642049 227.13913 
L 657.976395 226.652208 
L 658.253096 226.589581 
L 658.552854 226.760627 
L 659.002492 227.316333 
L 660.097763 229.160227 
L 661.216093 230.822299 
L 662.265248 231.983211 
L 665.712471 235.460317 
L 665.977642 235.868957 
L 665.977642 235.868957 
" clip-path="url(#p9a8aa92678)" style="fill: none; stroke-dasharray: 11.1,4.8; stroke-dashoffset: 0; stroke: #000000; stroke-opacity: 0.7; stroke-width: 3"/>
   </g>
   <g id="line2d_8">
    <path d="M 89.530483 214.715369 
L 89.680362 213.809605 
L 90.072354 211.255774 
L 90.153058 211.221321 
L 90.187646 211.261417 
L 90.26835 211.315373 
L 90.314467 211.24934 
L 90.83328 209.784322 
L 91.133038 207.17592 
L 91.490442 202.092663 
L 91.52503 202.170494 
L 91.651851 203.501667 
L 92.07843 207.441165 
L 92.159135 207.743911 
L 92.205251 207.647788 
L 92.355131 206.402084 
L 92.689477 202.265652 
L 93.242877 190.487026 
L 93.438873 188.787835 
L 93.588752 187.701424 
L 93.819336 183.871908 
L 94.338148 172.946931 
L 94.707082 167.103321 
L 94.753199 167.036305 
L 94.810845 167.117478 
L 94.995311 167.418321 
L 95.029899 167.387121 
L 95.122132 167.043237 
L 95.248953 165.522325 
L 95.456478 159.385753 
L 96.286579 135.708609 
L 96.528691 134.505606 
L 96.620925 134.560031 
L 96.6901 134.572265 
L 96.724687 134.511881 
L 96.82845 133.931297 
L 97.001388 131.158324 
L 97.416438 123.548638 
L 97.497142 124.046119 
L 97.739255 128.615424 
L 97.992896 136.967403 
L 98.373359 148.486148 
L 98.742293 157.945804 
L 99.088168 170.560303 
L 100.333319 218.334262 
L 101.174948 241.980385 
L 101.486236 245.379481 
L 101.785995 246.217823 
L 102.143399 246.834038 
L 102.27022 246.729641 
L 102.431628 246.211168 
L 102.639154 245.792652 
L 102.650683 245.797543 
L 102.742916 245.998168 
L 102.904325 247.050012 
L 103.134908 248.438768 
L 103.169496 248.416916 
L 103.503842 247.818013 
L 104.057242 246.402725 
L 104.552996 245.034778 
L 104.795109 244.376761 
L 105.037222 244.01788 
L 105.221688 244.142337 
L 105.486859 244.391838 
L 105.890381 244.451414 
L 105.994143 244.840285 
L 106.282372 247.350014 
L 106.720481 250.413631 
L 107.00871 251.078146 
L 107.458348 252.441577 
L 107.665873 252.737257 
L 107.781165 252.960261 
L 107.884928 253.746561 
L 108.253861 257.154849 
L 108.392211 257.75268 
L 108.645853 259.873541 
L 109.545129 271.369704 
L 109.764183 272.938451 
L 110.087 277.611456 
L 111.412855 303.388003 
L 112.392835 327.847292 
L 112.508126 329.017745 
L 112.554243 328.863872 
L 112.773297 327.702268 
L 112.830943 327.823545 
L 112.980822 329.003857 
L 113.303639 331.624811 
L 113.361285 331.610595 
L 113.441989 331.723092 
L 113.684102 332.495271 
L 113.764806 332.422185 
L 113.85704 332.123794 
L 113.983861 330.490801 
L 114.813961 313.874122 
L 115.678649 286.297214 
L 116.485691 256.470081 
L 117.707784 226.360981 
L 118.04213 223.409606 
L 118.353417 221.013818 
L 119.344926 211.950081 
L 119.702331 209.67653 
L 119.748447 209.734564 
L 119.909856 210.323019 
L 120.382552 213.180439 
L 120.97054 216.197735 
L 121.24724 216.804789 
L 121.270298 216.789128 
L 121.708407 216.220538 
L 121.823699 216.042487 
L 121.858286 216.07654 
L 122.134986 216.412994 
L 122.181103 216.360157 
L 122.319453 216.223321 
L 122.354041 216.261015 
L 122.526978 216.54776 
L 122.573095 216.46641 
L 122.688387 215.663888 
L 122.999674 213.651376 
L 123.460841 211.731859 
L 123.541546 211.91145 
L 123.772129 213.062125 
L 123.852833 212.775928 
L 124.071888 210.343528 
L 124.394704 208.512756 
L 124.925046 204.685598 
L 125.178688 202.504218 
L 125.29398 202.305955 
L 125.43233 201.006143 
L 126.170197 192.955412 
L 126.308547 191.554378 
L 128.729674 160.287215 
L 128.868024 158.850468 
L 129.052491 154.480365 
L 129.375307 146.408438 
L 129.559774 143.266034 
L 129.905649 138.249204 
L 130.263054 135.447587 
L 130.332229 135.625553 
L 130.45905 135.945286 
L 130.505167 135.909405 
L 130.724221 135.616321 
L 130.770338 135.715518 
L 130.908688 136.574395 
L 131.219975 140.60686 
L 131.508205 146.553016 
L 132.280659 167.38006 
L 133.272168 197.537727 
L 134.563436 220.646568 
L 134.851665 222.609468 
L 135.808586 230.366252 
L 135.90082 230.297165 
L 136.212108 230.044685 
L 136.408103 229.893029 
L 136.546454 229.362613 
L 136.823154 228.390611 
L 137.01915 228.40493 
L 137.307379 228.38557 
L 137.514904 228.159327 
L 137.733958 227.452777 
L 137.906896 226.964301 
L 137.941484 226.986246 
L 138.114421 227.037119 
L 138.12595 227.024838 
L 138.287359 226.644836 
L 138.506413 226.358614 
L 138.725467 226.453873 
L 138.863817 226.391761 
L 139.232751 226.054932 
L 139.544039 225.994996 
L 139.728506 225.575956 
L 140.005206 224.619251 
L 140.235789 223.497123 
L 140.281906 223.556012 
L 140.408727 224.202968 
L 140.547077 224.842037 
L 140.593194 224.76653 
L 140.754602 223.866898 
L 141.008244 223.030101 
L 141.215769 222.057194 
L 141.434823 219.519412 
L 141.89599 214.450117 
L 142.31104 213.461283 
L 142.518566 212.121724 
L 142.656916 211.646067 
L 142.691503 211.660541 
L 142.806795 211.895516 
L 142.945145 212.413465 
L 142.991262 212.237714 
L 143.129612 210.405511 
L 143.463958 206.494366 
L 143.70607 205.905192 
L 144.397821 199.80792 
L 144.893575 192.162257 
L 145.539209 183.265547 
L 146.334722 164.086832 
L 146.576835 163.17984 
L 146.888122 158.487517 
L 147.19941 152.915186 
L 147.937277 135.73276 
L 148.294682 129.783854 
L 148.375386 130.101933 
L 148.605969 131.392537 
L 148.652086 131.306549 
L 148.778907 130.329931 
L 148.974903 128.994766 
L 149.00949 129.029345 
L 149.124782 129.399315 
L 149.240074 130.873169 
L 149.805003 143.662202 
L 151.649671 206.734403 
L 152.583534 226.879181 
L 153.229168 234.684852 
L 153.736452 237.765376 
L 153.874802 238.114252 
L 153.920918 238.034125 
L 154.059269 237.153446 
L 154.370556 235.319146 
L 154.578081 235.15827 
L 155.085365 235.653542 
L 155.327478 236.275066 
L 155.373594 236.222393 
L 155.638765 235.504784 
L 155.984641 234.711694 
L 156.007699 234.7347 
L 156.146049 235.183416 
L 156.607216 236.730491 
L 156.734037 236.664476 
L 156.883916 236.186799 
L 157.414258 234.110215 
L 157.656371 233.824085 
L 158.048363 231.900771 
L 158.302004 230.718787 
L 158.382709 230.881761 
L 158.532588 231.068465 
L 158.555646 231.058162 
L 158.809288 230.962045 
L 158.832346 231.012963 
L 159.074459 231.745581 
L 159.155163 231.663226 
L 159.293513 231.201481 
L 159.604801 229.938164 
L 159.627859 229.946857 
L 159.743151 229.943149 
L 159.75468 229.917764 
L 159.89303 229.229747 
L 160.04291 228.71034 
L 160.077497 228.74339 
L 160.250435 229.140967 
L 160.31961 229.040583 
L 160.434902 228.878654 
L 160.469489 228.940214 
L 160.573252 229.646014 
L 160.930656 232.6565 
L 160.965244 232.632049 
L 161.14971 232.172658 
L 161.207356 232.131843 
L 161.241944 232.18978 
L 161.564761 233.188159 
L 161.633936 233.03449 
L 161.818402 231.881334 
L 162.106632 230.06206 
L 162.314157 230.110432 
L 162.417919 230.460132 
L 162.590857 231.99231 
L 163.005907 235.984054 
L 163.063553 236.121361 
L 163.10967 235.981865 
L 163.628483 233.433745 
L 163.686129 233.377274 
L 163.732245 233.441845 
L 164.055062 234.117524 
L 164.078121 234.102137 
L 164.158825 234.075731 
L 164.193412 234.14097 
L 164.297175 234.826891 
L 164.700696 238.054288 
L 164.769871 238.140457 
L 164.804458 238.07726 
L 164.91975 237.244997 
L 165.023513 236.755777 
L 165.069629 236.872453 
L 165.34633 238.688783 
L 165.438563 238.28701 
L 165.680676 236.605634 
L 165.738322 236.812226 
L 165.945847 238.942608 
L 166.510776 243.833154 
L 166.775947 245.224093 
L 166.833593 245.120858 
L 167.064177 244.063549 
L 167.15641 244.298317 
L 167.421581 245.518538 
L 167.490756 245.377784 
L 167.640635 244.890059 
L 167.698281 245.002326 
L 167.85969 245.956864 
L 168.044156 246.913465 
L 168.078744 246.894202 
L 168.13639 246.910165 
L 168.159448 246.971532 
L 168.263211 247.784067 
L 169.093311 256.396752 
L 169.25472 256.825647 
L 169.462245 258.339058 
L 169.762003 262.589544 
L 171.007154 284.611796 
L 171.422204 302.644485 
L 171.768079 316.692564 
L 172.275363 324.6223 
L 172.517476 327.839016 
L 172.655826 328.911247 
L 172.886409 332.901228 
L 173.266872 339.771254 
L 174.13156 344.363349 
L 174.465906 347.260701 
L 174.523552 347.075282 
L 174.627315 345.472452 
L 174.857898 336.88691 
L 175.434357 306.734483 
L 177.002324 226.897671 
L 177.451962 214.94303 
L 177.728662 213.307605 
L 177.855483 213.16603 
L 177.878542 213.178211 
L 178.143713 213.508815 
L 178.282063 213.554437 
L 178.293592 213.5432 
L 178.431942 213.230144 
L 178.616409 212.174511 
L 179.01993 207.820847 
L 179.469567 201.053204 
L 179.71168 198.275211 
L 179.85003 197.953393 
L 179.884618 197.979033 
L 180.057555 198.396271 
L 180.345785 199.438958 
L 180.922243 202.87449 
L 181.222002 203.454773 
L 181.256589 203.4164 
L 181.763873 202.151932 
L 182.36339 198.495074 
L 182.478682 198.686563 
L 182.582444 198.796216 
L 182.617032 198.739478 
L 182.720794 198.12218 
L 183.228078 194.342183 
L 183.539366 192.291979 
L 183.804537 190.744981 
L 183.931358 190.512963 
L 184.726871 186.991504 
L 184.922867 186.05576 
L 185.026629 185.591916 
L 185.164979 183.478414 
L 185.948963 167.46918 
L 186.329426 165.294386 
L 186.444718 164.932567 
L 186.490834 164.986054 
L 186.640714 165.27512 
L 186.68683 165.187273 
L 186.813651 164.301294 
L 187.021176 161.23187 
L 187.401639 156.047514 
L 187.80516 149.183323 
L 187.931981 147.694738 
L 187.966569 147.869536 
L 188.174094 150.89929 
L 188.427736 152.611275 
L 188.485381 152.523375 
L 188.635261 151.60416 
L 188.727494 151.189196 
L 188.773611 151.307388 
L 188.92349 152.764491 
L 189.234778 155.189352 
L 189.430774 155.286384 
L 189.534536 156.131667 
L 189.742061 160.471942 
L 190.283932 172.086746 
L 190.652866 180.924981 
L 191.8519 207.018156 
L 192.509063 212.91779 
L 192.705059 214.080727 
L 193.24693 219.192713 
L 193.489043 219.55052 
L 193.604335 219.764656 
L 194.284556 221.420451 
L 194.307614 221.407887 
L 194.422906 221.137843 
L 194.64196 220.805531 
L 194.803369 220.539073 
L 194.953248 219.596281 
L 195.437473 216.499937 
L 196.129224 215.020458 
L 196.267574 214.773548 
L 196.428982 213.879469 
L 196.832503 211.708243 
L 197.01697 211.653322 
L 197.143791 211.184652 
L 197.374374 210.365014 
L 197.397433 210.373208 
L 197.535783 210.320816 
L 197.743308 209.697651 
L 197.893187 208.686211 
L 198.331296 204.955323 
L 198.469646 204.558451 
L 198.665642 202.986864 
L 198.907754 199.473962 
L 199.195984 195.543282 
L 199.345863 195.450285 
L 199.611034 194.131923 
L 199.783972 192.491521 
L 200.014555 190.526886 
L 200.049143 190.563001 
L 200.164434 190.776357 
L 200.210551 190.695028 
L 200.533368 189.198991 
L 200.752422 187.313234 
L 201.490289 179.358946 
L 202.712382 162.658736 
L 202.87379 160.709376 
L 203.15049 152.94509 
L 203.461778 146.030286 
L 203.865299 142.25143 
L 203.957533 142.064738 
L 204.003649 142.153882 
L 204.153529 143.293669 
L 204.326466 143.755235 
L 204.510933 143.849076 
L 204.660812 145.315282 
L 205.202683 149.417977 
L 205.375621 151.894998 
L 205.698438 160.72894 
L 206.217251 172.319499 
L 207.370168 199.131913 
L 207.796747 209.315356 
L 208.096506 212.245577 
L 208.257914 213.71873 
L 209.307069 226.946323 
L 209.664474 228.229981 
L 209.699061 228.213192 
L 210.044936 227.848702 
L 210.194816 227.289663 
L 210.436928 226.161035 
L 210.483045 226.191339 
L 211.001858 226.601063 
L 211.140208 226.565722 
L 211.301616 226.048873 
L 211.5322 225.615386 
L 211.993367 225.575399 
L 212.143246 225.072278 
L 212.454534 223.162561 
L 213.826505 211.453716 
L 213.884151 211.432563 
L 213.930268 211.498499 
L 214.114735 212.127319 
L 214.345318 213.223018 
L 214.414493 213.079332 
L 214.552843 212.768425 
L 214.59896 212.800979 
L 214.921777 213.077669 
L 214.944835 213.054363 
L 215.037069 212.719943 
L 215.221535 210.731825 
L 215.913286 202.721254 
L 216.086223 201.463366 
L 216.293749 199.019228 
L 217.146907 186.215764 
L 217.331374 184.174592 
L 217.94242 173.36345 
L 218.219121 168.031408 
L 218.6457 161.502745 
L 218.807108 161.354074 
L 218.945458 160.505647 
L 219.106867 157.533766 
L 219.637209 142.632508 
L 219.925438 136.704299 
L 220.305901 133.132028 
L 220.421193 132.774889 
L 220.467309 132.87154 
L 220.59413 133.909785 
L 221.055297 137.682167 
L 221.527993 141.901957 
L 221.954573 151.275536 
L 222.254331 161.277392 
L 222.623265 172.104739 
L 223.338074 187.097512 
L 224.490991 214.15296 
L 224.756162 216.471643 
L 225.62085 229.800117 
L 225.920609 232.317462 
L 225.966725 232.31745 
L 226.001313 232.257269 
L 226.231896 231.376995 
L 226.543184 229.952024 
L 227.01588 227.975474 
L 227.188818 227.493109 
L 227.373284 227.059075 
L 227.396343 227.068908 
L 227.71916 227.423383 
L 227.903626 228.178113 
L 227.961272 228.263612 
L 228.007389 228.197609 
L 228.330206 227.171365 
L 228.445498 227.266695 
L 228.82596 227.874799 
L 229.11419 228.135751 
L 229.344773 228.018958 
L 229.598415 227.488027 
L 229.817469 226.247929 
L 230.393928 223.282303 
L 230.555336 223.00682 
L 230.705216 222.164266 
L 230.981916 220.507569 
L 231.028033 220.567205 
L 231.177912 220.903287 
L 231.224029 220.83488 
L 231.373908 220.152535 
L 231.696725 218.741583 
L 231.846604 217.902247 
L 232.353888 214.438542 
L 232.561413 213.806705 
L 232.722821 213.326535 
L 232.757409 213.341434 
L 232.849642 213.329253 
L 232.861171 213.304272 
L 232.941875 212.779967 
L 233.114813 209.530425 
L 233.356926 206.508552 
L 234.025618 201.742791 
L 234.544431 196.388299 
L 235.063243 187.582238 
L 235.605115 180.233641 
L 236.36604 162.474161 
L 236.688857 159.335006 
L 236.942499 154.614901 
L 238.326 129.448286 
L 238.533525 127.943279 
L 238.821754 125.746832 
L 238.833283 125.749037 
L 238.902458 125.934034 
L 239.086925 127.371339 
L 239.375154 132.24256 
L 239.790205 140.960509 
L 240.724068 173.230714 
L 242.08451 216.562819 
L 242.741673 230.330899 
L 243.90612 244.59984 
L 243.963766 244.579487 
L 243.986824 244.533777 
L 244.148232 243.835374 
L 244.286582 243.442703 
L 244.332699 243.484037 
L 244.620928 243.901506 
L 244.667045 243.858983 
L 244.966804 243.666536 
L 245.059037 243.488791 
L 245.416441 241.790456 
L 245.831492 240.337423 
L 245.958313 240.292071 
L 245.981371 240.312179 
L 246.142779 240.65423 
L 246.742296 242.074139 
L 247.272638 242.916187 
L 247.480164 243.049509 
L 247.687689 243.510019 
L 247.826039 243.735735 
L 247.872155 243.687931 
L 248.09121 243.123385 
L 248.160385 243.287099 
L 248.494731 244.329912 
L 248.64461 244.657024 
L 248.78296 245.657105 
L 248.944369 246.589698 
L 248.978956 246.554394 
L 249.128835 245.998668 
L 249.382477 244.987669 
L 249.428594 245.037193 
L 249.532356 245.18823 
L 249.566944 245.12622 
L 249.693765 244.792804 
L 249.751411 244.899568 
L 249.947407 246.051038 
L 250.235636 249.454495 
L 250.489278 252.097452 
L 250.500807 252.087942 
L 250.627628 251.700382 
L 250.858211 251.111853 
L 250.892799 251.145254 
L 250.996562 251.575994 
L 251.284791 254.252171 
L 252.13795 266.169548 
L 252.391592 267.320064 
L 252.841229 271.303359 
L 253.094871 276.267025 
L 253.659801 286.346671 
L 253.971088 289.600406 
L 254.236259 294.3396 
L 254.743543 304.698559 
L 254.893422 308.773373 
L 255.20471 316.433977 
L 255.400706 317.766889 
L 255.515998 318.318713 
L 255.711994 320.962733 
L 256.530565 330.9629 
L 256.668915 331.022192 
L 256.749619 331.113002 
L 256.922557 331.827419 
L 256.980203 331.60768 
L 257.107024 329.588841 
L 257.452899 324.491728 
L 258.087003 316.956612 
L 258.40982 304.515392 
L 258.859458 291.034754 
L 259.447446 271.843967 
L 260.623422 238.512523 
L 261.19988 230.968979 
L 261.799397 226.146562 
L 262.110685 224.762963 
L 262.249035 224.661954 
L 262.272093 224.673379 
L 262.445031 224.641623 
L 262.514206 224.657981 
L 262.537264 224.707644 
L 263.194427 226.865701 
L 263.736299 228.752707 
L 264.485695 230.495881 
L 264.624045 230.302091 
L 264.946862 229.410686 
L 265.419558 228.062805 
L 265.753904 227.962637 
L 266.341892 228.409684 
L 266.480242 228.122342 
L 266.814588 226.63302 
L 266.895292 226.993026 
L 267.241167 230.516584 
L 267.356459 230.331341 
L 267.494809 230.118639 
L 267.529397 230.193216 
L 267.656218 231.121315 
L 267.794568 231.832032 
L 267.829155 231.778447 
L 268.105855 230.671414 
L 268.18656 230.932236 
L 269.005131 235.144066 
L 269.028189 235.120199 
L 269.120423 234.623801 
L 269.339477 231.620058 
L 269.696881 227.870773 
L 269.742998 227.939249 
L 269.869819 228.842314 
L 270.13499 230.333819 
L 270.227223 230.40476 
L 270.261811 230.364833 
L 270.526982 229.664013 
L 271.034266 227.216368 
L 271.368612 224.531669 
L 271.472374 224.644386 
L 271.576137 225.145932 
L 271.795191 226.497769 
L 271.841308 226.456872 
L 271.956599 225.975957 
L 272.290945 223.430616 
L 272.37165 223.83962 
L 272.659879 226.785351 
L 272.763642 226.740156 
L 272.901992 227.101151 
L 273.0634 227.33742 
L 273.086458 227.311389 
L 273.178692 226.927452 
L 273.466921 224.777708 
L 273.547625 225.167639 
L 273.778209 227.067664 
L 273.835855 226.914983 
L 274.204788 225.69504 
L 274.354668 225.642626 
L 274.45843 224.981029 
L 274.815835 220.077589 
L 275.069476 217.851584 
L 275.127122 217.856021 
L 275.16171 217.908281 
L 275.288531 218.12626 
L 275.334647 218.023202 
L 275.449939 216.966057 
L 276.037927 210.259427 
L 276.245452 208.406965 
L 276.591327 206.743271 
L 276.787323 206.666671 
L 276.925673 206.682744 
L 276.937203 206.653833 
L 277.017907 206.068516 
L 277.167786 202.671192 
L 277.652011 191.278419 
L 278.631991 175.104354 
L 278.793399 172.378264 
L 279.093158 162.014114 
L 279.600442 147.092371 
L 280.522776 123.661346 
L 281.133822 115.130358 
L 281.410522 113.881452 
L 281.422051 113.891622 
L 281.491226 114.180026 
L 281.744868 116.94799 
L 281.929335 121.168402 
L 282.425089 139.260483 
L 283.428127 192.581248 
L 284.073761 224.199819 
L 284.834687 250.404395 
L 285.215149 256.35286 
L 285.491849 257.905361 
L 285.572554 258.023723 
L 285.61867 257.949078 
L 285.76855 257.209065 
L 286.587121 251.967026 
L 286.621708 251.984823 
L 286.829234 252.152668 
L 286.863821 252.092616 
L 287.094405 251.564962 
L 287.15205 251.658323 
L 287.30193 252.42606 
L 287.647805 255.513534 
L 288.293439 261.652342 
L 288.362614 261.759142 
L 288.42026 261.702122 
L 288.673901 261.486538 
L 288.777664 261.335521 
L 289.077422 260.875489 
L 289.192714 260.773636 
L 289.492473 260.184967 
L 289.550119 260.268058 
L 289.67694 260.919289 
L 289.872935 261.938735 
L 289.907523 261.89938 
L 290.380219 260.644709 
L 290.633861 259.719392 
L 290.64539 259.725286 
L 290.726094 259.944146 
L 290.956678 261.490388 
L 291.233378 265.992207 
L 291.717603 273.241825 
L 292.121124 276.222055 
L 292.386295 278.611809 
L 292.559233 281.209869 
L 292.847462 285.094862 
L 293.008871 286.347604 
L 293.666034 294.492628 
L 293.838971 295.536315 
L 293.988851 298.148953 
L 294.265551 302.522498 
L 294.300138 302.509989 
L 294.323197 302.45116 
L 294.599897 301.099005 
L 294.795893 300.059717 
L 294.842009 300.132586 
L 294.96883 301.017703 
L 295.453056 306.170712 
L 295.925752 311.634259 
L 296.006456 311.948039 
L 296.052573 311.778901 
L 296.190923 309.925365 
L 296.548327 305.707598 
L 296.813498 305.398485 
L 296.905731 305.22649 
L 297.124786 303.775586 
L 297.240078 303.447319 
L 297.286194 303.4908 
L 297.505249 303.868031 
L 297.539836 303.802569 
L 297.632069 303.070299 
L 297.839595 298.88012 
L 298.496757 285.790736 
L 298.946395 279.217887 
L 299.672733 265.239396 
L 300.180017 259.111838 
L 301.056234 247.269256 
L 301.505872 241.250124 
L 301.817159 239.161729 
L 301.920922 239.004667 
L 301.967039 239.051027 
L 302.50891 239.911726 
L 302.658789 239.676226 
L 302.774081 239.62183 
L 302.808668 239.656744 
L 303.246777 240.121083 
L 303.500419 240.20125 
L 303.857823 240.891131 
L 304.099936 241.727353 
L 304.687924 244.250105 
L 304.849332 244.549478 
L 305.886958 248.264801 
L 306.186716 251.958112 
L 306.567179 256.568465 
L 306.659412 256.694173 
L 306.843879 257.079045 
L 306.878467 257.062461 
L 307.074463 257.070913 
L 307.224342 257.377342 
L 307.38575 258.283919 
L 307.616334 261.689311 
L 308.042913 265.875138 
L 308.296555 266.91494 
L 308.446434 267.480335 
L 308.619372 269.504711 
L 308.826897 275.140094 
L 309.022893 277.137938 
L 309.218889 278.096126 
L 309.426414 280.89469 
L 309.703114 286.94549 
L 310.03746 294.312088 
L 310.314161 297.102878 
L 311.44402 309.13596 
L 311.478607 309.100678 
L 311.616957 308.939973 
L 311.651545 308.986885 
L 311.755307 309.511966 
L 312.089653 313.238626 
L 312.666112 320.481637 
L 312.792933 320.982174 
L 312.82752 320.950112 
L 312.965871 320.443012 
L 313.207983 319.913656 
L 313.288687 320.011913 
L 313.346333 320.067646 
L 313.380921 319.988894 
L 313.496213 319.083374 
L 313.692208 315.338956 
L 313.957379 311.88585 
L 314.23408 306.648816 
L 314.995005 285.859529 
L 315.871222 262.03284 
L 317.612128 236.319786 
L 318.038707 232.404067 
L 318.315407 231.445565 
L 318.534461 231.289348 
L 318.684341 231.466929 
L 319.168566 232.616552 
L 320.010196 236.366326 
L 320.413717 237.003878 
L 320.886413 238.563686 
L 321.186171 240.090225 
L 321.255346 239.945034 
L 321.601222 239.088781 
L 321.820276 238.704802 
L 321.993214 238.413577 
L 322.027801 238.452918 
L 322.154622 238.89089 
L 322.615789 241.99109 
L 322.823314 244.191418 
L 323.249894 248.885411 
L 323.457419 249.372108 
L 323.503535 249.342582 
L 323.653415 249.343244 
L 323.86094 249.695073 
L 324.056936 250.632997 
L 324.725628 254.754418 
L 324.97927 255.801317 
L 325.129149 257.812745 
L 325.544199 263.447521 
L 325.728666 264.392338 
L 325.832428 264.480579 
L 325.936191 265.101402 
L 326.109129 267.979869 
L 326.36277 271.42821 
L 326.581825 271.593147 
L 326.731704 272.413177 
L 327.250517 277.404724 
L 327.527217 282.087939 
L 327.677096 283.682301 
L 328.126734 293.095204 
L 328.726251 307.745128 
L 329.002951 314.000742 
L 329.394943 320.430819 
L 329.671643 322.396237 
L 329.786935 322.724908 
L 330.063635 324.914329 
L 330.801502 333.099514 
L 330.83609 333.086811 
L 330.859148 333.031777 
L 331.066673 332.747279 
L 331.135848 332.437516 
L 331.285728 330.336781 
L 332.023595 315.463821 
L 332.842166 283.60945 
L 333.372508 262.158378 
L 334.398605 230.591006 
L 334.709892 227.163379 
L 336.496914 219.169902 
L 336.589148 219.316265 
L 336.796673 220.316206 
L 337.211723 222.200672 
L 337.511481 222.662299 
L 337.730536 222.759539 
L 338.099469 223.338991 
L 338.110999 223.331716 
L 338.260878 223.064546 
L 338.410757 222.991569 
L 338.629811 223.220015 
L 338.92957 223.448807 
L 339.056391 223.320564 
L 339.310033 222.642644 
L 339.402266 222.809377 
L 339.886491 223.84774 
L 339.967195 223.711094 
L 340.151662 222.994346 
L 340.220837 223.200004 
L 340.474479 224.49062 
L 340.543654 224.360192 
L 340.728121 223.353018 
L 340.947175 222.777423 
L 341.592809 222.033042 
L 341.71963 221.471948 
L 342.27303 217.694873 
L 342.342205 217.636881 
L 342.388322 217.70385 
L 342.56126 218.074744 
L 342.607376 217.980833 
L 342.757256 217.023229 
L 343.783352 209.07029 
L 344.267577 203.563118 
L 344.544277 200.868454 
L 344.878624 197.211182 
L 345.48967 191.333137 
L 345.985424 184.920422 
L 346.365887 180.943543 
L 347.011521 166.266142 
L 347.276692 157.632539 
L 347.657154 148.022582 
L 347.818563 147.265815 
L 347.968442 144.257109 
L 348.291259 138.535884 
L 348.452667 136.963626 
L 348.614076 132.294697 
L 348.97148 122.107803 
L 349.25971 120.045928 
L 349.294297 120.094242 
L 349.38653 120.781987 
L 350.251218 131.858866 
L 350.608623 138.14446 
L 350.873794 148.308886 
L 352.499407 221.947169 
L 353.029749 236.565191 
L 354.044317 248.967889 
L 354.182667 249.18504 
L 354.217254 249.156624 
L 354.447838 249.058191 
L 354.655363 249.01756 
L 354.862888 248.630835 
L 355.300997 246.797858 
L 355.727576 244.199018 
L 356.09651 242.608056 
L 356.280976 242.413336 
L 356.292506 242.420498 
L 356.419326 242.665621 
L 356.834377 244.084694 
L 357.699065 248.383119 
L 357.883532 248.408106 
L 358.114115 248.512765 
L 358.275523 248.916597 
L 358.59834 250.594602 
L 358.828924 252.43253 
L 358.88657 252.338759 
L 359.186328 251.874374 
L 359.359266 251.840871 
L 359.635966 250.958583 
L 359.71667 251.073992 
L 360.051016 252.108052 
L 360.304658 253.505139 
L 360.523712 256.513281 
L 360.754296 258.2926 
L 360.904175 259.412133 
L 361.226992 261.974143 
L 361.411459 264.363243 
L 361.688159 271.485063 
L 361.884155 274.063183 
L 362.137797 275.088787 
L 362.276147 277.128604 
L 362.771901 286.100388 
L 362.93331 287.877993 
L 363.198481 294.251353 
L 363.498239 298.176499 
L 363.728823 300.357041 
L 364.04011 304.903133 
L 364.46669 314.523975 
L 365.02009 319.944047 
L 365.15844 321.166931 
L 365.561961 325.523228 
L 365.631136 325.717691 
L 365.677253 325.580656 
L 365.884778 323.907718 
L 366.265241 321.36337 
L 366.380533 321.348116 
L 366.392062 321.359276 
L 366.507353 321.486365 
L 366.55347 321.381398 
L 366.876287 319.51744 
L 367.049225 314.49766 
L 367.441217 304.227575 
L 367.648742 297.704259 
L 368.052263 285.569999 
L 368.686367 267.256338 
L 369.251297 252.534459 
L 369.873872 240.334461 
L 370.208218 236.722248 
L 370.392685 236.358159 
L 370.484918 236.053595 
L 370.784677 233.731281 
L 371.142081 231.542072 
L 371.349606 231.252873 
L 371.499486 231.377867 
L 371.810773 232.051566 
L 372.041357 232.281863 
L 372.456407 232.390095 
L 372.617816 233.132342 
L 373.067453 235.506855 
L 373.182745 235.450728 
L 373.344154 235.445409 
L 373.782262 235.927231 
L 374.404838 236.861972 
L 374.439425 236.841285 
L 374.531658 236.877007 
L 374.543188 236.901538 
L 374.670009 237.508127 
L 375.004355 239.919928 
L 375.085059 239.803603 
L 375.246467 239.512774 
L 375.292584 239.559614 
L 375.845984 240.795994 
L 376.341739 244.205233 
L 376.918197 249.026999 
L 377.194898 249.249921 
L 377.390894 250.210197 
L 378.267111 256.512458 
L 378.682161 260.841224 
L 378.866628 261.072426 
L 378.958861 261.235404 
L 379.062624 262.10717 
L 379.270149 266.749646 
L 379.500732 269.201434 
L 380.22707 277.30549 
L 380.722825 287.492727 
L 383.201597 327.522649 
L 383.489826 329.927828 
L 383.697352 330.989784 
L 383.708881 330.98857 
L 383.916406 330.829952 
L 384.031698 330.681715 
L 384.077814 330.772038 
L 384.181577 331.617398 
L 384.285339 332.460095 
L 384.331456 332.285502 
L 384.469806 330.038753 
L 385.311436 311.532611 
L 385.66884 299.498673 
L 386.498941 271.027532 
L 387.375158 245.977234 
L 388.216788 233.269934 
L 388.735601 228.15111 
L 389.16218 225.598136 
L 389.542643 224.531531 
L 389.600289 224.596564 
L 389.819343 225.251793 
L 390.188276 226.871051 
L 390.684031 230.037902 
L 390.960731 230.530933 
L 391.767773 230.522763 
L 391.975298 229.946591 
L 392.528699 228.253344 
L 392.863045 227.855384 
L 393.151274 228.176059 
L 393.416445 228.681914 
L 393.543266 228.964116 
L 393.577853 228.891508 
L 393.854554 227.565606 
L 393.946787 227.903516 
L 394.304191 229.479831 
L 394.4656 229.985968 
L 394.638537 231.294871 
L 394.765358 231.982006 
L 394.799946 231.910335 
L 394.972884 230.841848 
L 395.065117 230.52611 
L 395.111234 230.598048 
L 395.641576 232.850173 
L 395.849101 233.510199 
L 395.906747 233.521672 
L 395.941334 233.448817 
L 396.045097 232.640496 
L 396.667672 226.313214 
L 396.679201 226.314219 
L 396.759905 226.467814 
L 396.932843 227.45796 
L 397.082722 228.125587 
L 397.128839 228.074618 
L 397.405539 227.195215 
L 397.832119 224.031751 
L 397.878235 224.134114 
L 397.993527 224.43177 
L 398.039644 224.348596 
L 398.166465 223.56003 
L 398.362461 222.513401 
L 398.397048 222.555036 
L 398.546927 223.181458 
L 399.031153 225.28214 
L 399.123386 225.369634 
L 399.169503 225.309341 
L 399.284795 225.174912 
L 399.330911 225.237946 
L 399.457732 225.844461 
L 399.757491 227.150625 
L 399.838195 227.014595 
L 400.011132 225.925719 
L 400.253245 224.197467 
L 400.299362 224.284481 
L 400.610649 225.296327 
L 400.656766 225.207798 
L 400.760529 224.376608 
L 400.956525 220.570185 
L 401.360046 212.925911 
L 401.544513 212.281213 
L 401.567571 212.297427 
L 401.659804 212.620703 
L 402.086384 214.614076 
L 402.097913 214.608525 
L 402.155559 214.371872 
L 402.270851 212.511966 
L 402.732017 204.426867 
L 402.755076 204.40573 
L 402.801193 204.509715 
L 403.124009 206.22433 
L 403.204714 205.8957 
L 403.665881 201.264314 
L 405.452902 169.553317 
L 405.937128 160.490011 
L 406.144653 157.615121 
L 406.386766 149.358491 
L 407.02087 122.448544 
L 407.274512 112.798202 
L 407.5858 104.498401 
L 407.793325 103.068604 
L 408.070025 101.689618 
L 408.1392 101.855766 
L 408.254492 103.09462 
L 408.623425 110.916128 
L 408.83095 119.948187 
L 409.857047 182.883531 
L 410.525739 220.732679 
L 411.148314 247.624657 
L 411.77089 262.670087 
L 412.266644 270.334171 
L 412.508757 272.223209 
L 412.531815 272.201052 
L 412.624049 271.814391 
L 412.843103 269.636485 
L 413.223566 266.313445 
L 413.776966 264.835178 
L 413.788495 264.840333 
L 413.892258 265.041153 
L 414.6993 268.104266 
L 415.11435 269.948952 
L 415.125879 269.946222 
L 415.241171 269.783702 
L 415.437167 269.052678 
L 415.783042 267.779337 
L 415.898334 267.701177 
L 415.932921 267.723774 
L 416.002096 267.713373 
L 416.025155 267.664781 
L 416.175034 266.872119 
L 416.440205 265.836481 
L 416.451734 265.842029 
L 416.532438 266.052974 
L 416.716905 267.48766 
L 416.832197 268.00541 
L 416.878314 267.95327 
L 417.07431 267.528112 
L 417.120426 267.614221 
L 417.224189 268.3895 
L 418.031231 279.122691 
L 418.584631 286.996765 
L 418.676865 287.213426 
L 418.803686 288.338814 
L 419.034269 290.662174 
L 419.080386 290.604412 
L 419.287911 290.123493 
L 419.334028 290.191559 
L 419.460849 290.51328 
L 419.506965 290.400812 
L 419.922016 288.72147 
L 419.956603 288.791777 
L 420.048836 289.529871 
L 420.325537 292.555449 
L 420.383182 292.505928 
L 420.498474 292.419945 
L 420.533062 292.46749 
L 420.659883 292.688403 
L 420.705999 292.611364 
L 420.844349 292.355315 
L 420.890466 292.410884 
L 420.9827 292.888648 
L 421.167166 295.55154 
L 421.386221 297.283383 
L 421.478454 297.622869 
L 421.628333 299.487788 
L 421.905033 302.077313 
L 421.928092 302.100725 
L 421.974208 301.989717 
L 422.158675 300.526385 
L 422.735134 295.018225 
L 423.196301 289.38758 
L 424.18781 273.564602 
L 424.441452 272.825816 
L 424.556743 272.588975 
L 424.937206 270.988062 
L 425.294611 268.76157 
L 425.767307 262.882258 
L 425.882598 262.58404 
L 425.928715 262.618498 
L 426.101653 262.969068 
L 426.263061 263.40209 
L 426.309178 263.365195 
L 426.435999 263.035055 
L 426.608936 261.503205 
L 427.243041 255.804363 
L 427.404449 255.354201 
L 427.427508 255.363982 
L 427.53127 255.586073 
L 427.681149 256.645497 
L 428.257608 261.128156 
L 428.292196 261.105835 
L 428.315254 261.038774 
L 428.78795 259.668351 
L 428.960888 259.528102 
L 428.983946 259.550247 
L 429.099238 259.904794 
L 429.283705 261.485969 
L 429.583463 263.486155 
L 429.76793 264.537892 
L 430.010043 265.637913 
L 430.021572 265.632855 
L 430.125334 265.390131 
L 430.332859 265.097944 
L 430.448151 265.229124 
L 430.574972 265.436105 
L 430.621089 265.375481 
L 430.817085 265.061284 
L 430.863201 265.122471 
L 430.966964 265.679432 
L 431.209077 268.65531 
L 431.543423 271.77503 
L 431.727889 272.405072 
L 431.912356 272.422557 
L 431.99306 272.411426 
L 432.016119 272.445594 
L 432.292819 273.266589 
L 432.41964 274.753183 
L 432.719398 278.298574 
L 432.892336 278.353473 
L 433.192095 278.517747 
L 433.307386 279.451843 
L 433.572557 281.792724 
L 433.618674 281.749263 
L 433.791612 281.582294 
L 433.81467 281.604234 
L 433.895374 281.892013 
L 434.010666 283.452146 
L 434.379599 288.995594 
L 435.082879 296.338968 
L 435.440283 302.433313 
L 435.590163 302.503004 
L 435.613221 302.473886 
L 435.728513 302.063431 
L 435.947567 300.054081 
L 436.201209 298.812752 
L 436.32803 298.642376 
L 436.362617 298.685616 
L 436.489438 299.241317 
L 436.593201 299.623944 
L 436.639318 299.467866 
L 436.823784 297.603955 
L 437.192718 294.562219 
L 437.538593 292.809304 
L 437.573181 292.858374 
L 437.769177 293.643785 
L 437.838352 293.38908 
L 437.99976 291.254336 
L 439.936661 258.800515 
L 440.005836 259.039758 
L 440.340182 260.58939 
L 440.478532 260.692497 
L 440.51312 260.642694 
L 440.639941 260.04767 
L 441.193341 257.152121 
L 441.400866 257.244425 
L 441.562275 257.829678 
L 441.954267 259.712618 
L 442.000383 259.687394 
L 442.115675 259.433492 
L 442.288613 258.242983 
L 442.830484 254.556738 
L 443.141772 253.531757 
L 443.234005 253.666261 
L 443.360826 254.360801 
L 443.649055 256.623706 
L 443.71823 256.520525 
L 444.087164 255.551846 
L 444.14481 255.599009 
L 444.433039 256.158194 
L 444.617506 257.726924 
L 444.882677 261.29857 
L 445.263139 267.171334 
L 445.632073 269.564121 
L 445.931832 271.469284 
L 446.404528 273.734975 
L 446.681228 275.30679 
L 446.750403 275.2077 
L 446.946399 274.915305 
L 446.969457 274.930659 
L 447.038632 274.924647 
L 447.061691 274.875079 
L 447.269216 274.323087 
L 447.338391 274.381198 
L 447.465212 274.619787 
L 447.592033 275.730256 
L 448.18002 282.378581 
L 448.237666 282.31165 
L 448.422133 281.623869 
L 448.641187 281.029825 
L 448.675775 281.075828 
L 448.779537 281.673995 
L 448.987063 284.456399 
L 449.494346 293.611834 
L 449.632696 293.608321 
L 449.805634 293.678475 
L 449.955513 294.291667 
L 450.232213 295.974012 
L 450.335976 295.907635 
L 450.405151 296.116343 
L 450.635734 297.646175 
L 450.739497 297.48791 
L 450.993139 296.917119 
L 451.500422 294.648577 
L 451.546539 294.720197 
L 451.731006 295.414077 
L 451.81171 295.174901 
L 452.134527 292.698156 
L 452.272877 292.949395 
L 452.399698 293.738952 
L 452.722515 295.842953 
L 452.757102 295.866435 
L 452.79169 295.762231 
L 452.941569 294.370712 
L 453.20674 290.145667 
L 453.690966 283.480015 
L 454.371187 278.195545 
L 454.832354 270.408084 
L 455.316579 261.093698 
L 456.861488 248.412348 
L 457.034426 248.39417 
L 457.276539 248.443659 
L 457.437947 248.46352 
L 457.587826 248.51383 
L 458.072052 249.045296 
L 458.244989 249.808196 
L 458.521689 250.978954 
L 458.683098 251.321815 
L 458.856035 252.309038 
L 459.155794 253.877553 
L 459.397907 253.959404 
L 459.524727 254.448741 
L 460.112715 257.429941 
L 460.424003 258.62011 
L 460.700703 260.730125 
L 460.781407 260.619959 
L 461.207987 259.760046 
L 461.288691 259.908975 
L 461.461629 260.902851 
L 461.611508 262.545649 
L 462.41855 278.215787 
L 462.522313 277.904596 
L 462.891246 276.552045 
L 463.006538 276.501269 
L 463.029596 276.530182 
L 463.133359 276.922632 
L 463.363942 279.115281 
L 463.778993 282.914218 
L 464.136397 285.322907 
L 464.908852 297.714904 
L 465.370019 300.299995 
L 465.600602 307.168449 
L 465.715894 308.514193 
L 465.76201 308.411256 
L 466.027181 307.406229 
L 466.073298 307.458061 
L 466.177061 308.027644 
L 466.442232 310.307264 
L 466.511407 310.15047 
L 466.74199 308.747961 
L 467.03022 306.483296 
L 467.710441 299.273802 
L 467.814203 299.593916 
L 467.917966 299.796666 
L 467.964083 299.744904 
L 468.067845 299.293419 
L 468.390662 296.277787 
L 469.474404 274.862528 
L 469.774163 271.021544 
L 470.166155 265.571099 
L 470.846376 255.512501 
L 471.21531 252.514373 
L 471.688006 248.814281 
L 471.953177 247.855442 
L 472.022352 247.937482 
L 472.137644 248.628196 
L 472.287523 249.576158 
L 472.333639 249.467449 
L 472.552694 247.990294 
L 472.771748 247.371072 
L 472.956215 247.280289 
L 473.186798 246.861366 
L 473.382794 246.523727 
L 473.394323 246.527978 
L 473.509615 246.729988 
L 473.613378 246.838666 
L 473.647965 246.803906 
L 473.878549 246.267062 
L 474.212895 244.994602 
L 474.455007 244.216942 
L 474.489595 244.251769 
L 474.604887 244.727499 
L 475.204404 248.73316 
L 475.573337 250.802641 
L 476.357321 252.819786 
L 476.530259 252.914441 
L 476.65708 252.787156 
L 476.945309 252.383592 
L 477.049072 252.557863 
L 477.175892 253.322644 
L 477.614001 256.398644 
L 477.729293 256.704195 
L 477.76388 256.662848 
L 477.890701 256.494786 
L 477.936818 256.557178 
L 478.086697 257.123134 
L 478.248106 258.636567 
L 478.60551 265.345758 
L 479.216556 277.94203 
L 479.228085 277.936265 
L 479.343377 277.592187 
L 479.424081 277.470142 
L 479.470198 277.561914 
L 479.58549 278.422366 
L 480.081244 285.225617 
L 480.346415 293.56274 
L 480.646174 300.275169 
L 481.003578 304.465366 
L 481.660741 315.08937 
L 481.94897 317.486226 
L 482.018145 317.370369 
L 482.502371 315.599936 
L 482.594604 315.358643 
L 482.640721 315.461405 
L 482.756013 316.533882 
L 482.917421 317.926638 
L 482.963538 317.801467 
L 483.171063 316.018625 
L 483.436234 312.180177 
L 483.862813 306.312404 
L 483.978105 304.389459 
L 484.877381 285.643502 
L 485.557602 271.988383 
L 486.745107 249.00872 
L 487.033336 246.963109 
L 487.286978 246.836605 
L 487.459915 245.885091 
L 487.81732 244.095708 
L 488.105549 243.532252 
L 488.174724 243.717654 
L 488.7973 246.336396 
L 489.004825 246.362978 
L 489.143175 246.222769 
L 489.442933 245.421575 
L 489.811867 244.55008 
L 489.823396 244.556858 
L 490.030921 244.806519 
L 490.088567 244.674358 
L 490.353738 243.440557 
L 490.861022 241.006285 
L 491.137722 240.484725 
L 491.229955 240.591481 
L 491.460539 240.970646 
L 491.495126 240.951592 
L 491.668064 240.937444 
L 491.679593 240.961853 
L 491.771826 241.484446 
L 492.84404 250.737314 
L 493.040036 252.460278 
L 493.408969 258.45659 
L 493.743315 264.408891 
L 493.893194 264.838178 
L 493.916253 264.828132 
L 494.250599 264.436898 
L 494.458124 263.308712 
L 494.538828 263.52839 
L 494.711766 265.094997 
L 495.253637 272.514208 
L 495.6341 278.256148 
L 495.830096 279.00181 
L 495.876212 278.949013 
L 495.991504 278.773414 
L 496.037621 278.857799 
L 496.164442 279.781884 
L 496.544904 284.029945 
L 497.225126 298.209582 
L 497.44418 302.839164 
L 497.663234 305.737402 
L 497.893818 307.496504 
L 498.550981 317.18275 
L 499.173556 323.0661 
L 499.473315 326.205138 
L 499.484844 326.20298 
L 499.611665 325.988829 
L 499.657781 326.118322 
L 499.738486 326.370218 
L 499.784602 326.204792 
L 499.899894 324.462645 
L 500.165065 316.12151 
L 500.557057 306.207419 
L 500.949049 297.026977 
L 501.364099 286.78747 
L 501.76762 276.567736 
L 502.33255 259.920391 
L 502.862892 248.616446 
L 503.750638 234.52002 
L 504.050397 232.797841 
L 504.223334 232.623237 
L 504.350155 232.535589 
L 504.638384 231.682804 
L 504.868968 231.260834 
L 504.995789 231.374234 
L 505.157197 231.948735 
L 505.433897 233.999564 
L 505.779773 236.227594 
L 506.09106 236.867735 
L 506.137177 236.830244 
L 507.013394 235.877443 
L 507.186332 236.044249 
L 507.405386 236.676172 
L 507.509149 236.80363 
L 507.555265 236.775086 
L 507.647499 236.808775 
L 507.659028 236.829162 
L 507.820436 237.389455 
L 508.408424 240.825248 
L 508.696654 243.211404 
L 509.376875 243.89081 
L 509.618987 244.186712 
L 509.72275 244.898082 
L 509.964863 246.76631 
L 509.987921 246.753037 
L 510.206975 246.674084 
L 510.333796 246.957062 
L 510.495205 247.967986 
L 510.990959 251.685713 
L 511.175426 252.553329 
L 511.452126 255.590155 
L 511.67118 257.374402 
L 511.936351 257.672049 
L 512.247639 258.998898 
L 512.385989 261.583708 
L 512.720335 268.247735 
L 512.985506 269.345917 
L 513.193031 271.887383 
L 513.435144 277.919269 
L 513.700315 283.219304 
L 513.988544 286.206915 
L 514.565003 300.524989 
L 515.003112 310.736973 
L 515.233695 314.539593 
L 516.1445 328.651475 
L 516.548021 331.06738 
L 516.55955 331.063703 
L 516.640254 330.873762 
L 516.755546 330.609579 
L 516.801663 330.679581 
L 516.986129 331.116286 
L 517.043775 331.032074 
L 517.147538 330.423485 
L 517.585647 324.86222 
L 518.634801 300.937731 
L 519.061381 283.077167 
L 519.511019 267.037199 
L 519.891481 255.734748 
L 520.560173 236.118331 
L 520.929107 229.869656 
L 521.494036 226.184751 
L 521.782266 225.937339 
L 521.966733 225.946562 
L 522.13967 226.229473 
L 522.41637 226.63354 
L 522.612366 226.672768 
L 522.623895 226.652322 
L 522.762246 226.082709 
L 523.258 223.862572 
L 523.281058 223.872118 
L 523.419408 224.116103 
L 523.8114 224.740658 
L 524.041984 224.954181 
L 524.422447 225.775092 
L 524.457034 225.753335 
L 524.906672 225.196947 
L 525.06808 224.611938 
L 525.35631 223.51166 
L 525.379368 223.520937 
L 525.840535 223.94491 
L 526.071118 225.175899 
L 526.244056 225.9203 
L 526.278644 225.847717 
L 526.393935 224.90269 
L 526.61299 223.582499 
L 526.878161 223.501084 
L 527.074157 223.011255 
L 527.143332 223.172585 
L 527.247094 223.38148 
L 527.293211 223.314116 
L 527.420032 222.701218 
L 527.627557 221.974121 
L 527.639086 221.978173 
L 527.765907 222.182215 
L 527.835082 222.266218 
L 527.881199 222.184451 
L 528.330836 219.928257 
L 528.584478 218.244067 
L 528.676712 218.674627 
L 528.872708 219.726437 
L 528.907295 219.688381 
L 528.999529 219.21756 
L 529.414579 214.417169 
L 529.702808 211.295129 
L 530.140917 208.667755 
L 530.625142 203.649784 
L 530.855726 201.002724 
L 531.282305 195.605314 
L 532.285343 187.435819 
L 532.527456 184.677516 
L 532.688864 182.252081 
L 533.72649 156.395973 
L 534.060836 148.456519 
L 534.256832 144.395945 
L 534.568119 138.850303 
L 534.637295 138.948115 
L 534.729528 139.086975 
L 534.764115 139.031295 
L 534.856349 138.337767 
L 535.006228 134.771677 
L 535.386691 125.951253 
L 535.617274 124.363155 
L 535.81327 123.408975 
L 535.882445 123.651153 
L 536.124558 126.305424 
L 536.966188 137.773873 
L 537.265946 148.923123 
L 538.926147 220.710791 
L 539.410372 235.761832 
L 539.929185 244.886903 
L 540.309648 248.402444 
L 540.759286 250.621127 
L 540.920694 251.015037 
L 541.53174 253.537529 
L 541.612445 253.416669 
L 541.750795 252.688036 
L 542.269608 249.584456 
L 542.51172 249.085583 
L 542.776891 249.169197 
L 542.9383 249.476397 
L 543.134296 249.658308 
L 543.318762 249.532534 
L 543.445583 249.51492 
L 543.457112 249.528777 
L 543.572404 249.880354 
L 544.298742 252.971474 
L 544.955905 255.673471 
L 545.543893 258.703662 
L 545.624597 258.826645 
L 545.670714 258.786349 
L 545.843651 258.685754 
L 545.86671 258.711582 
L 546.154939 259.295038 
L 546.304818 261.106398 
L 546.858219 268.089977 
L 547.008098 268.968877 
L 547.065744 268.822414 
L 547.181036 268.518765 
L 547.227152 268.608607 
L 547.342444 269.490005 
L 547.549969 273.567487 
L 547.907374 279.132321 
L 548.599124 284.555454 
L 548.702887 285.092411 
L 548.944999 288.348556 
L 549.290874 295.854776 
L 549.7751 305.191144 
L 550.224737 313.519904 
L 550.524496 317.614078 
L 551.377655 325.682948 
L 551.400713 325.663161 
L 551.492947 325.189056 
L 552.150109 319.310386 
L 552.887977 308.434931 
L 553.014797 306.72124 
L 553.245381 298.968032 
L 553.775723 283.439396 
L 555.043932 251.65739 
L 555.343691 247.815915 
L 556.600371 237.003976 
L 557.338238 233.409703 
L 557.845521 230.829006 
L 557.937755 230.950461 
L 558.087634 231.638025 
L 558.733268 235.246541 
L 559.205964 235.694599 
L 559.482664 235.665642 
L 559.909243 235.748402 
L 560.116769 235.470846 
L 560.197473 235.420996 
L 560.23206 235.478515 
L 560.416527 236.30831 
L 560.65864 237.237906 
L 560.704756 237.177102 
L 560.93534 236.662495 
L 561.004515 236.760362 
L 561.753911 238.89463 
L 561.961436 239.713111 
L 562.007553 239.660809 
L 562.099786 239.509143 
L 562.145903 239.609869 
L 562.284253 240.692015 
L 562.630128 243.150187 
L 563.045179 244.36798 
L 563.575521 248.615217 
L 563.748458 249.171741 
L 564.290329 251.775452 
L 564.336446 251.809447 
L 564.382563 251.740914 
L 564.532442 251.094055 
L 564.70538 250.35388 
L 564.751496 250.409329 
L 564.878317 251.050733 
L 565.062784 253.266383 
L 565.339484 256.017934 
L 565.466305 256.256604 
L 565.581597 257.424304 
L 566.550047 274.099193 
L 566.895923 278.892858 
L 567.21874 282.996436 
L 569.397753 328.977167 
L 570.158679 339.012593 
L 570.239383 339.233482 
L 570.2855 339.149851 
L 570.42385 338.227376 
L 570.758196 334.824144 
L 571.473005 320.613904 
L 572.222401 293.059699 
L 573.317672 250.953598 
L 573.721194 240.14791 
L 574.113185 231.035228 
L 574.47059 227.579822 
L 574.920228 224.904283 
L 575.173869 223.127059 
L 575.969382 216.731318 
L 576.130791 215.986333 
L 576.165378 216.038755 
L 576.292199 216.695813 
L 576.70725 218.946473 
L 577.894754 222.880766 
L 578.010046 222.769059 
L 578.37898 222.096865 
L 578.65568 221.52301 
L 578.840147 221.306215 
L 579.116847 220.917467 
L 579.128376 220.923702 
L 579.243668 221.138755 
L 579.49731 221.679133 
L 579.531897 221.628242 
L 579.63566 221.060515 
L 579.91236 219.677676 
L 580.016122 219.800579 
L 580.235177 220.168645 
L 580.281293 220.069395 
L 580.581052 218.410277 
L 580.74246 217.863777 
L 580.777048 217.900341 
L 580.961515 218.473257 
L 581.03069 218.603963 
L 581.076806 218.513784 
L 581.192098 217.5513 
L 581.641736 213.249626 
L 581.791615 212.263708 
L 581.964553 211.455966 
L 581.987611 211.466159 
L 582.218195 211.666846 
L 582.264311 211.600217 
L 582.379603 211.136123 
L 582.529482 209.288062 
L 582.713949 208.004123 
L 582.725478 208.010184 
L 582.875358 208.299412 
L 582.944533 208.362343 
L 582.97912 208.301638 
L 583.094412 207.551348 
L 583.417229 203.659986 
L 583.993687 195.177857 
L 584.316504 191.934949 
L 584.535559 186.616501 
L 584.812259 181.290787 
L 585.446363 175.439383 
L 585.803768 168.483561 
L 586.414814 162.289041 
L 586.599281 158.391969 
L 587.510085 136.876617 
L 588.386303 121.769185 
L 588.443948 121.577021 
L 588.501594 121.723991 
L 588.628415 123.052036 
L 589.458516 138.313716 
L 589.712158 146.322843 
L 592.271634 236.825715 
L 592.536805 241.093562 
L 592.940326 243.255898 
L 593.793485 245.671372 
L 593.885718 245.543966 
L 594.093244 245.037543 
L 594.150889 245.135683 
L 594.312298 245.973602 
L 594.439119 246.27763 
L 594.473706 246.263222 
L 594.623586 246.01896 
L 595.361453 244.411201 
L 595.54592 244.236999 
L 596.110849 243.293668 
L 596.329903 242.711628 
L 596.352962 242.726474 
L 596.502841 243.046638 
L 596.802599 243.567113 
L 597.148475 243.788818 
L 597.332941 244.234984 
L 597.505879 245.337562 
L 598.301392 252.374729 
L 599.050788 253.591679 
L 599.154551 253.50629 
L 599.258313 253.340882 
L 599.30443 253.436437 
L 599.604189 254.925653 
L 599.811714 256.244521 
L 599.86936 256.234928 
L 599.950064 256.363893 
L 600.14606 257.347681 
L 600.318997 259.751214 
L 601.11451 269.31913 
L 601.229802 269.874778 
L 601.552619 273.558127 
L 602.117549 285.499271 
L 602.532599 293.545826 
L 603.604812 316.781972 
L 603.662458 316.757792 
L 603.743162 316.826098 
L 603.823866 317.489921 
L 603.996804 321.636262 
L 604.215858 324.809807 
L 604.250446 324.819156 
L 604.296562 324.744732 
L 604.400325 324.618518 
L 604.446442 324.670497 
L 604.550204 325.137001 
L 604.873021 328.356397 
L 605.069017 329.269447 
L 605.195838 329.15461 
L 605.31113 329.054429 
L 605.357246 329.081477 
L 605.426421 328.983372 
L 605.541713 328.07835 
L 606.256522 318.613433 
L 607.109681 295.773133 
L 608.746823 242.848972 
L 609.231049 233.857509 
L 610.141854 222.391823 
L 610.89125 216.020931 
L 611.006542 215.916728 
L 611.041129 215.953888 
L 611.16795 216.385169 
L 611.974992 219.899205 
L 612.309338 220.3612 
L 612.56298 220.747734 
L 612.931914 220.585592 
L 613.104851 220.437716 
L 613.139439 220.481003 
L 614.027185 222.313456 
L 614.350002 222.997294 
L 614.442235 222.915721 
L 614.569056 222.315442 
L 614.741994 221.520474 
L 614.776581 221.567071 
L 614.903402 222.256109 
L 615.007165 222.579832 
L 615.053282 222.520307 
L 615.168573 221.951486 
L 615.618211 218.312935 
L 615.721974 218.483416 
L 615.791149 218.573529 
L 615.837265 218.479487 
L 615.952557 217.494205 
L 616.379137 213.64596 
L 616.482899 212.934063 
L 616.701953 211.088902 
L 616.736541 211.128013 
L 617.16312 212.08212 
L 617.220766 211.878869 
L 617.359116 209.97672 
L 617.508996 208.576265 
L 617.543583 208.634455 
L 617.693462 209.596051 
L 617.8664 210.257015 
L 617.889458 210.243244 
L 618.00475 209.997128 
L 618.120042 209.096792 
L 618.385213 204.40195 
L 618.84638 197.264217 
L 619.007788 195.781367 
L 619.468955 189.568035 
L 619.872476 181.389849 
L 620.149176 178.967393 
L 620.333643 175.643944 
L 620.79481 165.292885 
L 621.036923 162.916719 
L 621.613381 148.797131 
L 621.959257 140.501512 
L 622.293603 134.528608 
L 622.685595 127.168384 
L 622.89312 125.758691 
L 623.238995 121.854529 
L 623.273582 121.913035 
L 623.365816 122.720139 
L 623.561812 127.262689 
L 624.092154 138.78592 
L 624.380383 146.510473 
L 626.743864 225.923612 
L 627.447143 237.517998 
L 627.654668 237.985297 
L 627.850664 238.111696 
L 628.000544 238.822357 
L 628.427123 240.732975 
L 628.588532 240.815251 
L 628.600061 240.807968 
L 628.692294 240.808484 
L 628.715352 240.849702 
L 628.911348 241.614164 
L 629.199578 243.313564 
L 629.30334 243.155592 
L 630.121912 240.71664 
L 630.640724 239.153428 
L 631.067304 239.018535 
L 631.493883 238.893257 
L 631.620704 238.977466 
L 631.655292 238.936582 
L 631.8167 238.432305 
L 632.10493 237.684556 
L 632.347042 237.735858 
L 632.462334 238.026553 
L 632.704447 239.013558 
L 632.785151 238.964295 
L 632.888913 239.04681 
L 633.038793 239.567466 
L 633.21173 240.026485 
L 633.234789 240.019539 
L 633.407726 239.999328 
L 633.419255 240.02614 
L 633.649839 240.921775 
L 633.753601 240.656571 
L 634.05336 238.890557 
L 634.145593 238.568202 
L 634.19171 238.668523 
L 634.410764 239.886886 
L 634.687464 241.223459 
L 634.802756 241.777381 
L 635.056398 243.943045 
L 635.137102 243.632211 
L 635.425332 242.250996 
L 635.459919 242.296192 
L 635.575211 242.954617 
L 635.805794 245.826932 
L 636.174728 250.460475 
L 636.658953 253.676724 
L 637.016358 257.941963 
L 637.350704 262.286692 
L 637.627404 265.090335 
L 637.788812 265.013392 
L 637.811871 265.115313 
L 637.927162 266.550306 
L 638.353742 272.576424 
L 638.630442 273.42508 
L 638.768792 274.738395 
L 638.953259 279.405541 
L 639.575834 294.968615 
L 639.841005 300.846194 
L 640.901689 327.180454 
L 641.259093 330.992493 
L 641.535794 337.489347 
L 641.847081 344.275448 
L 642.077665 345.587248 
L 642.123782 345.483196 
L 642.262132 344.285548 
L 642.850119 336.548022 
L 643.080703 331.991808 
L 643.368932 320.315683 
L 644.959958 245.543909 
L 645.582534 227.761765 
L 645.939938 223.439452 
L 646.170522 222.684249 
L 646.343459 221.942181 
L 646.896859 218.231396 
L 647.231206 215.420925 
L 647.796135 209.552655 
L 647.853781 209.598335 
L 647.992131 210.063259 
L 648.407181 212.65835 
L 648.937523 215.853761 
L 649.12199 216.056766 
L 649.26034 216.101531 
L 649.525511 216.58487 
L 649.583157 216.505041 
L 649.709978 215.896975 
L 649.871386 215.227162 
L 649.905974 215.255587 
L 650.493962 215.979624 
L 650.620783 215.93336 
L 650.805249 215.426068 
L 650.966658 214.577212 
L 651.35865 212.173583 
L 651.669937 210.135197 
L 651.842875 209.682528 
L 652.154163 209.645602 
L 652.246396 208.915748 
L 652.626859 205.462634 
L 653.134142 201.261745 
L 653.410843 198.903104 
L 653.526134 198.674585 
L 653.676014 197.173865 
L 654.01036 191.688325 
L 654.240943 189.586274 
L 654.436939 188.821188 
L 654.598348 185.826168 
L 654.875048 181.344397 
L 655.11716 180.193397 
L 655.566798 172.366534 
L 656.004907 165.586948 
L 656.52372 160.854463 
L 656.604424 160.618836 
L 656.765832 159.150443 
L 657.042532 154.415325 
L 657.618991 143.713624 
L 657.826516 142.85355 
L 657.91875 142.581661 
L 658.034041 141.143307 
L 658.276154 138.054454 
L 658.299212 138.070963 
L 658.391446 138.562515 
L 659.336838 146.731872 
L 660.259172 166.818788 
L 661.550439 201.437904 
L 662.415127 220.808666 
L 663.533457 229.70536 
L 663.683336 230.240993 
L 664.040741 231.357456 
L 664.386616 231.466504 
L 664.548024 231.292053 
L 664.697904 230.669372 
L 665.435771 226.846183 
L 665.608708 226.619679 
L 665.689413 226.55523 
L 665.724 226.61529 
L 665.896938 227.084062 
L 665.954584 226.993522 
L 665.977642 226.932852 
L 665.977642 226.932852 
" clip-path="url(#p9a8aa92678)" style="fill: none; stroke: #2ca02c; stroke-opacity: 0.8; stroke-width: 3; stroke-linecap: square"/>
   </g>
   <g id="line2d_9">
    <path d="M 89.530483 372.805982 
L 204.822221 372.805982 
" clip-path="url(#p9a8aa92678)" style="fill: none; stroke: #000000; stroke-width: 5; stroke-linecap: square"/>
   </g>
   <g id="patch_3">
    <path d="M 60.708125 386.3618 
L 60.708125 88.1338 
" style="fill: none; stroke: #000000; stroke-width: 0.8; stroke-linejoin: miter; stroke-linecap: square"/>
   </g>
   <g id="text_8">
    <!-- 1s -->
    <g transform="translate(137.918852 399.874882) scale(0.16 -0.16)">
     <defs>
      <path id="DejaVuSans-73" d="M 2834 3397 
L 2834 2853 
Q 2591 2978 2328 3040 
Q 2066 3103 1784 3103 
Q 1356 3103 1142 2972 
Q 928 2841 928 2578 
Q 928 2378 1081 2264 
Q 1234 2150 1697 2047 
L 1894 2003 
Q 2506 1872 2764 1633 
Q 3022 1394 3022 966 
Q 3022 478 2636 193 
Q 2250 -91 1575 -91 
Q 1294 -91 989 -36 
Q 684 19 347 128 
L 347 722 
Q 666 556 975 473 
Q 1284 391 1588 391 
Q 1994 391 2212 530 
Q 2431 669 2431 922 
Q 2431 1156 2273 1281 
Q 2116 1406 1581 1522 
L 1381 1569 
Q 847 1681 609 1914 
Q 372 2147 372 2553 
Q 372 3047 722 3315 
Q 1072 3584 1716 3584 
Q 2034 3584 2315 3537 
Q 2597 3491 2834 3397 
z
" transform="scale(0.015625)"/>
     </defs>
     <use xlink:href="#DejaVuSans-31"/>
     <use xlink:href="#DejaVuSans-73" transform="translate(63.623047 0)"/>
    </g>
   </g>
   <g id="text_9">
    <!-- True vs Generated  -->
    <g transform="translate(263.814063 25.43625) scale(0.24 -0.24)">
     <defs>
      <path id="DejaVuSans-54" d="M -19 4666 
L 3928 4666 
L 3928 4134 
L 2272 4134 
L 2272 0 
L 1638 0 
L 1638 4134 
L -19 4134 
L -19 4666 
z
" transform="scale(0.015625)"/>
      <path id="DejaVuSans-72" d="M 2631 2963 
Q 2534 3019 2420 3045 
Q 2306 3072 2169 3072 
Q 1681 3072 1420 2755 
Q 1159 2438 1159 1844 
L 1159 0 
L 581 0 
L 581 3500 
L 1159 3500 
L 1159 2956 
Q 1341 3275 1631 3429 
Q 1922 3584 2338 3584 
Q 2397 3584 2469 3576 
Q 2541 3569 2628 3553 
L 2631 2963 
z
" transform="scale(0.015625)"/>
      <path id="DejaVuSans-75" d="M 544 1381 
L 544 3500 
L 1119 3500 
L 1119 1403 
Q 1119 906 1312 657 
Q 1506 409 1894 409 
Q 2359 409 2629 706 
Q 2900 1003 2900 1516 
L 2900 3500 
L 3475 3500 
L 3475 0 
L 2900 0 
L 2900 538 
Q 2691 219 2414 64 
Q 2138 -91 1772 -91 
Q 1169 -91 856 284 
Q 544 659 544 1381 
z
M 1991 3584 
L 1991 3584 
z
" transform="scale(0.015625)"/>
      <path id="DejaVuSans-65" d="M 3597 1894 
L 3597 1613 
L 953 1613 
Q 991 1019 1311 708 
Q 1631 397 2203 397 
Q 2534 397 2845 478 
Q 3156 559 3463 722 
L 3463 178 
Q 3153 47 2828 -22 
Q 2503 -91 2169 -91 
Q 1331 -91 842 396 
Q 353 884 353 1716 
Q 353 2575 817 3079 
Q 1281 3584 2069 3584 
Q 2775 3584 3186 3129 
Q 3597 2675 3597 1894 
z
M 3022 2063 
Q 3016 2534 2758 2815 
Q 2500 3097 2075 3097 
Q 1594 3097 1305 2825 
Q 1016 2553 972 2059 
L 3022 2063 
z
" transform="scale(0.015625)"/>
      <path id="DejaVuSans-20" transform="scale(0.015625)"/>
      <path id="DejaVuSans-76" d="M 191 3500 
L 800 3500 
L 1894 563 
L 2988 3500 
L 3597 3500 
L 2284 0 
L 1503 0 
L 191 3500 
z
" transform="scale(0.015625)"/>
      <path id="DejaVuSans-47" d="M 3809 666 
L 3809 1919 
L 2778 1919 
L 2778 2438 
L 4434 2438 
L 4434 434 
Q 4069 175 3628 42 
Q 3188 -91 2688 -91 
Q 1594 -91 976 548 
Q 359 1188 359 2328 
Q 359 3472 976 4111 
Q 1594 4750 2688 4750 
Q 3144 4750 3555 4637 
Q 3966 4525 4313 4306 
L 4313 3634 
Q 3963 3931 3569 4081 
Q 3175 4231 2741 4231 
Q 1884 4231 1454 3753 
Q 1025 3275 1025 2328 
Q 1025 1384 1454 906 
Q 1884 428 2741 428 
Q 3075 428 3337 486 
Q 3600 544 3809 666 
z
" transform="scale(0.015625)"/>
      <path id="DejaVuSans-6e" d="M 3513 2113 
L 3513 0 
L 2938 0 
L 2938 2094 
Q 2938 2591 2744 2837 
Q 2550 3084 2163 3084 
Q 1697 3084 1428 2787 
Q 1159 2491 1159 1978 
L 1159 0 
L 581 0 
L 581 3500 
L 1159 3500 
L 1159 2956 
Q 1366 3272 1645 3428 
Q 1925 3584 2291 3584 
Q 2894 3584 3203 3211 
Q 3513 2838 3513 2113 
z
" transform="scale(0.015625)"/>
      <path id="DejaVuSans-61" d="M 2194 1759 
Q 1497 1759 1228 1600 
Q 959 1441 959 1056 
Q 959 750 1161 570 
Q 1363 391 1709 391 
Q 2188 391 2477 730 
Q 2766 1069 2766 1631 
L 2766 1759 
L 2194 1759 
z
M 3341 1997 
L 3341 0 
L 2766 0 
L 2766 531 
Q 2569 213 2275 61 
Q 1981 -91 1556 -91 
Q 1019 -91 701 211 
Q 384 513 384 1019 
Q 384 1609 779 1909 
Q 1175 2209 1959 2209 
L 2766 2209 
L 2766 2266 
Q 2766 2663 2505 2880 
Q 2244 3097 1772 3097 
Q 1472 3097 1187 3025 
Q 903 2953 641 2809 
L 641 3341 
Q 956 3463 1253 3523 
Q 1550 3584 1831 3584 
Q 2591 3584 2966 3190 
Q 3341 2797 3341 1997 
z
" transform="scale(0.015625)"/>
      <path id="DejaVuSans-74" d="M 1172 4494 
L 1172 3500 
L 2356 3500 
L 2356 3053 
L 1172 3053 
L 1172 1153 
Q 1172 725 1289 603 
Q 1406 481 1766 481 
L 2356 481 
L 2356 0 
L 1766 0 
Q 1100 0 847 248 
Q 594 497 594 1153 
L 594 3053 
L 172 3053 
L 172 3500 
L 594 3500 
L 594 4494 
L 1172 4494 
z
" transform="scale(0.015625)"/>
      <path id="DejaVuSans-64" d="M 2906 2969 
L 2906 4863 
L 3481 4863 
L 3481 0 
L 2906 0 
L 2906 525 
Q 2725 213 2448 61 
Q 2172 -91 1784 -91 
Q 1150 -91 751 415 
Q 353 922 353 1747 
Q 353 2572 751 3078 
Q 1150 3584 1784 3584 
Q 2172 3584 2448 3432 
Q 2725 3281 2906 2969 
z
M 947 1747 
Q 947 1113 1208 752 
Q 1469 391 1925 391 
Q 2381 391 2643 752 
Q 2906 1113 2906 1747 
Q 2906 2381 2643 2742 
Q 2381 3103 1925 3103 
Q 1469 3103 1208 2742 
Q 947 2381 947 1747 
z
" transform="scale(0.015625)"/>
     </defs>
     <use xlink:href="#DejaVuSans-54"/>
     <use xlink:href="#DejaVuSans-72" transform="translate(46.333984 0)"/>
     <use xlink:href="#DejaVuSans-75" transform="translate(87.447266 0)"/>
     <use xlink:href="#DejaVuSans-65" transform="translate(150.826172 0)"/>
     <use xlink:href="#DejaVuSans-20" transform="translate(212.349609 0)"/>
     <use xlink:href="#DejaVuSans-76" transform="translate(244.136719 0)"/>
     <use xlink:href="#DejaVuSans-73" transform="translate(303.316406 0)"/>
     <use xlink:href="#DejaVuSans-20" transform="translate(355.416016 0)"/>
     <use xlink:href="#DejaVuSans-47" transform="translate(387.203125 0)"/>
     <use xlink:href="#DejaVuSans-65" transform="translate(464.693359 0)"/>
     <use xlink:href="#DejaVuSans-6e" transform="translate(526.216797 0)"/>
     <use xlink:href="#DejaVuSans-65" transform="translate(589.595703 0)"/>
     <use xlink:href="#DejaVuSans-72" transform="translate(651.119141 0)"/>
     <use xlink:href="#DejaVuSans-61" transform="translate(692.232422 0)"/>
     <use xlink:href="#DejaVuSans-74" transform="translate(753.511719 0)"/>
     <use xlink:href="#DejaVuSans-65" transform="translate(792.720703 0)"/>
     <use xlink:href="#DejaVuSans-64" transform="translate(854.244141 0)"/>
     <use xlink:href="#DejaVuSans-20" transform="translate(917.720703 0)"/>
    </g>
    <!--  of y Variable over Time -->
    <g transform="translate(235.304688 52.311) scale(0.24 -0.24)">
     <defs>
      <path id="DejaVuSans-6f" d="M 1959 3097 
Q 1497 3097 1228 2736 
Q 959 2375 959 1747 
Q 959 1119 1226 758 
Q 1494 397 1959 397 
Q 2419 397 2687 759 
Q 2956 1122 2956 1747 
Q 2956 2369 2687 2733 
Q 2419 3097 1959 3097 
z
M 1959 3584 
Q 2709 3584 3137 3096 
Q 3566 2609 3566 1747 
Q 3566 888 3137 398 
Q 2709 -91 1959 -91 
Q 1206 -91 779 398 
Q 353 888 353 1747 
Q 353 2609 779 3096 
Q 1206 3584 1959 3584 
z
" transform="scale(0.015625)"/>
      <path id="DejaVuSans-66" d="M 2375 4863 
L 2375 4384 
L 1825 4384 
Q 1516 4384 1395 4259 
Q 1275 4134 1275 3809 
L 1275 3500 
L 2222 3500 
L 2222 3053 
L 1275 3053 
L 1275 0 
L 697 0 
L 697 3053 
L 147 3053 
L 147 3500 
L 697 3500 
L 697 3744 
Q 697 4328 969 4595 
Q 1241 4863 1831 4863 
L 2375 4863 
z
" transform="scale(0.015625)"/>
      <path id="DejaVuSans-56" d="M 1831 0 
L 50 4666 
L 709 4666 
L 2188 738 
L 3669 4666 
L 4325 4666 
L 2547 0 
L 1831 0 
z
" transform="scale(0.015625)"/>
      <path id="DejaVuSans-69" d="M 603 3500 
L 1178 3500 
L 1178 0 
L 603 0 
L 603 3500 
z
M 603 4863 
L 1178 4863 
L 1178 4134 
L 603 4134 
L 603 4863 
z
" transform="scale(0.015625)"/>
      <path id="DejaVuSans-62" d="M 3116 1747 
Q 3116 2381 2855 2742 
Q 2594 3103 2138 3103 
Q 1681 3103 1420 2742 
Q 1159 2381 1159 1747 
Q 1159 1113 1420 752 
Q 1681 391 2138 391 
Q 2594 391 2855 752 
Q 3116 1113 3116 1747 
z
M 1159 2969 
Q 1341 3281 1617 3432 
Q 1894 3584 2278 3584 
Q 2916 3584 3314 3078 
Q 3713 2572 3713 1747 
Q 3713 922 3314 415 
Q 2916 -91 2278 -91 
Q 1894 -91 1617 61 
Q 1341 213 1159 525 
L 1159 0 
L 581 0 
L 581 4863 
L 1159 4863 
L 1159 2969 
z
" transform="scale(0.015625)"/>
      <path id="DejaVuSans-6c" d="M 603 4863 
L 1178 4863 
L 1178 0 
L 603 0 
L 603 4863 
z
" transform="scale(0.015625)"/>
      <path id="DejaVuSans-6d" d="M 3328 2828 
Q 3544 3216 3844 3400 
Q 4144 3584 4550 3584 
Q 5097 3584 5394 3201 
Q 5691 2819 5691 2113 
L 5691 0 
L 5113 0 
L 5113 2094 
Q 5113 2597 4934 2840 
Q 4756 3084 4391 3084 
Q 3944 3084 3684 2787 
Q 3425 2491 3425 1978 
L 3425 0 
L 2847 0 
L 2847 2094 
Q 2847 2600 2669 2842 
Q 2491 3084 2119 3084 
Q 1678 3084 1418 2786 
Q 1159 2488 1159 1978 
L 1159 0 
L 581 0 
L 581 3500 
L 1159 3500 
L 1159 2956 
Q 1356 3278 1631 3431 
Q 1906 3584 2284 3584 
Q 2666 3584 2933 3390 
Q 3200 3197 3328 2828 
z
" transform="scale(0.015625)"/>
     </defs>
     <use xlink:href="#DejaVuSans-20"/>
     <use xlink:href="#DejaVuSans-6f" transform="translate(31.787109 0)"/>
     <use xlink:href="#DejaVuSans-66" transform="translate(92.96875 0)"/>
     <use xlink:href="#DejaVuSans-20" transform="translate(128.173828 0)"/>
     <use xlink:href="#DejaVuSans-79" transform="translate(159.960938 0)"/>
     <use xlink:href="#DejaVuSans-20" transform="translate(219.140625 0)"/>
     <use xlink:href="#DejaVuSans-56" transform="translate(250.927734 0)"/>
     <use xlink:href="#DejaVuSans-61" transform="translate(311.585938 0)"/>
     <use xlink:href="#DejaVuSans-72" transform="translate(372.865234 0)"/>
     <use xlink:href="#DejaVuSans-69" transform="translate(413.978516 0)"/>
     <use xlink:href="#DejaVuSans-61" transform="translate(441.761719 0)"/>
     <use xlink:href="#DejaVuSans-62" transform="translate(503.041016 0)"/>
     <use xlink:href="#DejaVuSans-6c" transform="translate(566.517578 0)"/>
     <use xlink:href="#DejaVuSans-65" transform="translate(594.300781 0)"/>
     <use xlink:href="#DejaVuSans-20" transform="translate(655.824219 0)"/>
     <use xlink:href="#DejaVuSans-6f" transform="translate(687.611328 0)"/>
     <use xlink:href="#DejaVuSans-76" transform="translate(748.792969 0)"/>
     <use xlink:href="#DejaVuSans-65" transform="translate(807.972656 0)"/>
     <use xlink:href="#DejaVuSans-72" transform="translate(869.496094 0)"/>
     <use xlink:href="#DejaVuSans-20" transform="translate(910.609375 0)"/>
     <use xlink:href="#DejaVuSans-54" transform="translate(942.396484 0)"/>
     <use xlink:href="#DejaVuSans-69" transform="translate(1000.355469 0)"/>
     <use xlink:href="#DejaVuSans-6d" transform="translate(1028.138672 0)"/>
     <use xlink:href="#DejaVuSans-65" transform="translate(1125.550781 0)"/>
    </g>
   </g>
   <g id="legend_1">
    <g id="patch_4">
     <path d="M 529.104375 377.3618 
L 682.2 377.3618 
Q 685.8 377.3618 685.8 373.7618 
L 685.8 322.72055 
Q 685.8 319.12055 682.2 319.12055 
L 529.104375 319.12055 
Q 525.504375 319.12055 525.504375 322.72055 
L 525.504375 373.7618 
Q 525.504375 377.3618 529.104375 377.3618 
z
" style="fill: #ffffff; opacity: 0.8; stroke: #cccccc; stroke-linejoin: miter"/>
    </g>
    <g id="line2d_10">
     <path d="M 532.704375 333.697738 
L 550.704375 333.697738 
L 568.704375 333.697738 
" style="fill: none; stroke-dasharray: 11.1,4.8; stroke-dashoffset: 0; stroke: #000000; stroke-opacity: 0.7; stroke-width: 3"/>
    </g>
    <g id="text_10">
     <!-- True -->
     <g transform="translate(583.104375 339.997738) scale(0.18 -0.18)">
      <use xlink:href="#DejaVuSans-54"/>
      <use xlink:href="#DejaVuSans-72" transform="translate(46.333984 0)"/>
      <use xlink:href="#DejaVuSans-75" transform="translate(87.447266 0)"/>
      <use xlink:href="#DejaVuSans-65" transform="translate(150.826172 0)"/>
     </g>
    </g>
    <g id="line2d_11">
     <path d="M 532.704375 360.118363 
L 550.704375 360.118363 
L 568.704375 360.118363 
" style="fill: none; stroke: #2ca02c; stroke-opacity: 0.8; stroke-width: 3; stroke-linecap: square"/>
    </g>
    <g id="text_11">
     <!-- Generated -->
     <g transform="translate(583.104375 366.418363) scale(0.18 -0.18)">
      <use xlink:href="#DejaVuSans-47"/>
      <use xlink:href="#DejaVuSans-65" transform="translate(77.490234 0)"/>
      <use xlink:href="#DejaVuSans-6e" transform="translate(139.013672 0)"/>
      <use xlink:href="#DejaVuSans-65" transform="translate(202.392578 0)"/>
      <use xlink:href="#DejaVuSans-72" transform="translate(263.916016 0)"/>
      <use xlink:href="#DejaVuSans-61" transform="translate(305.029297 0)"/>
      <use xlink:href="#DejaVuSans-74" transform="translate(366.308594 0)"/>
      <use xlink:href="#DejaVuSans-65" transform="translate(405.517578 0)"/>
      <use xlink:href="#DejaVuSans-64" transform="translate(467.041016 0)"/>
     </g>
    </g>
   </g>
  </g>
 </g>
 <defs>
  <clipPath id="p9a8aa92678">
   <rect x="60.708125" y="88.1338" width="634.091875" height="298.228"/>
  </clipPath>
 </defs>
</svg>
